<?xml version="1.0" standalone="no"?>
<!DOCTYPE svg PUBLIC "-//W3C//DTD SVG 1.1//EN" "http://www.w3.org/Graphics/SVG/1.1/DTD/svg11.dtd" >
<svg xmlns="http://www.w3.org/2000/svg">
<metadata>
Created by FontPrep 20130207 at Wed Mar 25 23:46:11 2015
 By Callum Flack
(c)2012 Kai Bernau and Susana Carvalho with Christian Schwartz under exclusive license to Schwartzco Inc./Commercial Type. All rights reserved.
</metadata>
<defs>
<font id="eb5ef31a4b40f1859c9b25f84e46cd36" horiz-adv-x='1024' >
  <font-face 
    font-family="AtlasGrotesk-BlackItalic"
    font-weight="900"
    font-style="italic"
    font-stretch="normal"
    units-per-em="2048"
    panose-1="0 0 0 0 0 0 0 0 0 0"
    ascent="1663"
    descent="-385"
    x-height="1108"
    cap-height="1567"
    bbox="-496 -475.015 2562 2474"
    underline-thickness="102"
    underline-position="-102"
    slope="-11"
    unicode-range="U+0020-FB02"
  />
<missing-glyph horiz-adv-x="1024" 
 />
    <glyph glyph-name="f_f" unicode="ff" horiz-adv-x="1476" 
d="M797 1591q101 0 168 -14l-52 -262h-53q-82 0 -123 -32t-55 -105l-14 -70h338l18 96q47 242 167 333t333 91q94 0 184 -18l-51 -262q-29 4 -91 4q-131 0 -157 -138l-20 -106h188l-53 -272h-189l-161 -836h-383l161 836h-336l-161 -836h-383l161 836h-131l54 272h129l12 59
q47 242 167 333t333 91z" />
    <glyph glyph-name="fi" unicode="fi" horiz-adv-x="1368" 
d="M793 1628q86 0 172 -18l-52 -262q-15 4 -73 4q-123 0 -150 -138l-20 -106h188l-53 -272h-189l-161 -836h-383l161 836h-131l54 272h131l18 96q47 242 165 333t323 91zM768 0l215 1108h393l-215 -1108h-393zM1014 1268l67 346h394l-68 -346h-393z" />
    <glyph glyph-name="fl" unicode="fl" horiz-adv-x="1368" 
d="M793 1628q86 0 172 -18l-52 -262q-15 4 -73 4q-123 0 -150 -138l-20 -106h188l-53 -272h-189l-161 -836h-383l161 836h-131l54 272h131l18 96q47 242 165 333t323 91zM768 0l313 1614h394l-314 -1614h-393z" />
    <glyph glyph-name=".notdef" horiz-adv-x="1024" 
 />
    <glyph glyph-name=".null" horiz-adv-x="0" 
 />
    <glyph glyph-name="nonmarkingreturn" horiz-adv-x="681" 
 />
    <glyph glyph-name="space" unicode=" " horiz-adv-x="411" 
 />
    <glyph glyph-name="exclam" unicode="!" horiz-adv-x="716" 
d="M455 0h-414l68 348h413zM203 504l141 1108h455l-316 -1108h-280z" />
    <glyph glyph-name="quotedbl" unicode="&#x22;" horiz-adv-x="1103" 
d="M289 987l69 580h349l-183 -580h-235zM750 987l69 580h348l-182 -580h-235z" />
    <glyph glyph-name="numbersign" unicode="#" horiz-adv-x="1392" 
d="M178 203l117 346h-213l41 215h246l96 291h-225l41 215h256l100 297h240l-99 -297h223l101 297h241l-100 -297h221l-41 -215h-252l-96 -291h230l-41 -215h-263l-116 -346h-242l117 346h-225l-117 -346h-240zM608 764h226l98 291h-225z" />
    <glyph glyph-name="dollar" unicode="$" horiz-adv-x="1368" 
d="M170 1008q0 244 179 382t460 138l33 168h143l-35 -176q205 -23 321 -128t101 -302h-379q12 123 -96 155l-59 -313l88 -21q215 -51 300 -152t85 -267q1 -224 -181 -370t-479 -151l-41 -209h-143l41 215q-242 23 -367 137t-106 322h395q-10 -143 133 -174l66 332l-84 20
q-203 46 -289 142t-86 252zM901 418q0 58 -30 90q-30 31 -105 53l-59 -305l2 2q86 10 139 56t53 104zM700 965l56 290q-82 -8 -132 -50t-50 -106t26 -90t100 -44z" />
    <glyph glyph-name="percent" unicode="%" horiz-adv-x="1851" 
d="M1335 180q51 0 91 65t44 163q6 121 -88 120q-59 0 -100 -68t-44 -144q-2 -76 22 -106t75 -30zM1720 420q0 -198 -122 -316t-274 -118t-243 79q-90 79 -90 220q0 201 123 319q124 118 276 119q152 0 241 -79t89 -224zM557 975q59 1 100 69t41 174t-88 105q-59 0 -100 -68
t-43 -174t90 -106zM219 1079q0 201 123 320q124 119 276 119t241 -79t89 -225q0 -198 -123 -316t-274 -118t-242 79q-90 79 -90 220zM188 -82l1313 1681h266l-1310 -1681h-269z" />
    <glyph glyph-name="ampersand" unicode="&#x26;" horiz-adv-x="1615" 
d="M1352 0q-139 0 -206 24t-130 99q-203 -154 -435 -154t-371 111q-138 111 -136 297t105 307t290 207q-88 121 -88 283q0 204 145 320q144 116 348 118t324 -91t120 -253q-1 -160 -123 -275q-100 -95 -247 -174l150 -207q31 47 170 265h329q-223 -354 -331 -494
q41 -49 82 -65t125 -19l-56 -299h-65zM459 455q0 -91 50 -145t150 -54t201 78l-260 360l-10 -6q-131 -104 -131 -233zM864 1370q-60 0 -100 -52t-41 -128q0 -76 80 -178q94 51 143 103q49 53 48 119t-35 101q-35 35 -95 35z" />
    <glyph glyph-name="quotesingle" unicode="'" horiz-adv-x="643" 
d="M289 987l69 580h349l-183 -580h-235z" />
    <glyph glyph-name="parenleft" unicode="(" horiz-adv-x="747" 
d="M436 380q0 -345 121 -646h-268q-187 326 -187 680t155 660t386 540h299q-244 -301 -375 -595t-131 -639z" />
    <glyph glyph-name="parenright" unicode=")" horiz-adv-x="747" 
d="M375 968q0 345 -121 646h268q186 -326 186 -680t-154 -660q-155 -306 -386 -540h-299q244 301 375 595t131 639z" />
    <glyph glyph-name="asterisk" unicode="*" horiz-adv-x="913" 
d="M580 1092h-9l-157 -234l-193 160l240 172v8l-256 45l135 252l199 -149l4 4l-4 264h266l-109 -277l4 -6l254 123l33 -262l-270 -10v-8l170 -195l-240 -135z" />
    <glyph glyph-name="plus" unicode="+" horiz-adv-x="1269" 
d="M797 594l-78 -406h-311l77 406h-372l53 278h375l77 402h312l-78 -402h377l-53 -278h-379z" />
    <glyph glyph-name="comma" unicode="," horiz-adv-x="641" 
d="M-41 -240l184 607h385l-311 -607h-258z" />
    <glyph glyph-name="hyphen" unicode="-" horiz-adv-x="870" 
d="M98 475l58 297h669l-57 -297h-670z" />
    <glyph glyph-name="period" unicode="." horiz-adv-x="641" 
d="M27 0l69 367h391l-69 -367h-391z" />
    <glyph glyph-name="slash" unicode="/" horiz-adv-x="1148" 
d="M-199 -266l1260 1880h301l-1262 -1880h-299z" />
    <glyph glyph-name="zero" unicode="0" horiz-adv-x="1443" 
d="M686 264q96 0 172 127t110 295t33 332q0 229 -159 229q-92 0 -167 -118q-75 -117 -113 -285t-38 -336q0 -244 162 -244zM868 1536q250 0 405 -146t153 -435t-106 -535q-56 -130 -139 -228t-213 -158t-292 -61q-262 -1 -418 143t-156 427t106 527q58 134 143 236t219 166
t298 64z" />
    <glyph glyph-name="one" unicode="1" horiz-adv-x="890" 
d="M193 1249q153 -1 237 59t121 210h352l-295 -1518h-393l193 999h-289l49 250h25z" />
    <glyph glyph-name="two" unicode="2" horiz-adv-x="1308" 
d="M840 1540q227 0 364 -101t131 -306q-6 -160 -111 -292t-323 -302l-287 -224v-4h576l-60 -311h-1161l41 215l633 518q136 113 192 175q95 106 97 206q0 66 -35 103t-96 34q-176 -4 -217 -260h-391q41 260 205 405q165 144 442 144z" />
    <glyph glyph-name="three" unicode="3" horiz-adv-x="1329" 
d="M684 639h-164l51 260h125q94 0 155 56q60 55 60 135t-45 118t-104 39q-164 0 -193 -180h-383q27 199 182 336t423 137q221 0 365 -95t144 -300q0 -139 -82 -236q-83 -96 -212 -129v-6q233 -70 233 -309t-175 -367q-176 -128 -446 -129q-270 0 -430 124t-141 356h399
q-6 -83 41 -131t143 -48t153 60q58 60 59 155q0 154 -158 154z" />
    <glyph glyph-name="four" unicode="4" horiz-adv-x="1380" 
d="M1292 319h-174l-61 -319h-387l61 319h-706l51 269l796 930h480l-176 -902h174zM453 612h346l114 592h-4q-51 -90 -121 -176z" />
    <glyph glyph-name="five" unicode="5" horiz-adv-x="1316" 
d="M850 543q0 166 -158 176q-135 6 -227 -96h-326l248 895h942l-61 -312h-645l-93 -329h5q123 131 315 131t296 -114t105 -310q-1 -279 -197 -447t-468 -168t-419 124q-146 124 -110 351h377q-10 -82 32 -128t142 -46t172 78q70 78 70 195z" />
    <glyph glyph-name="six" unicode="6" horiz-adv-x="1353" 
d="M680 262q86 0 147 89t61 183t-41 142q-42 47 -112 47q-97 0 -159 -88q-62 -89 -62 -185t40 -142t126 -46zM860 1260q-96 0 -181 -108t-140 -337h8q125 193 362 193q179 0 277 -116t100 -300q2 -272 -180 -448t-458 -175q-276 0 -409 152q-135 152 -135 421t102 498
q102 228 286 364t404 135t333 -96t127 -302h-369q-14 119 -127 119z" />
    <glyph glyph-name="seven" unicode="7" horiz-adv-x="1159" 
d="M47 0l752 1206h-633l61 312h1090l-43 -218l-815 -1300h-412z" />
    <glyph glyph-name="eight" unicode="8" horiz-adv-x="1353" 
d="M651 229q94 0 159 70q64 70 64 161q-1 179 -192 179q-94 0 -160 -62q-66 -63 -66 -159t51 -142q50 -46 144 -47zM950 1102q0 168 -168 168q-82 0 -136 -67t-54 -147q0 -156 160 -155q80 0 139 57q59 56 59 144zM1323 1149q0 -154 -77 -237t-210 -132v-8q232 -88 232 -308
t-176 -358t-450 -139q-274 0 -429 113q-156 113 -156 289q1 176 99 281t256 149v8q-184 91 -184 283t162 321q164 129 392 129t378 -90q75 -45 119 -123t44 -178z" />
    <glyph glyph-name="nine" unicode="9" horiz-adv-x="1353" 
d="M545 520q-180 0 -280 108q-99 108 -101 290q-2 272 182 447t458 175t407 -148q132 -148 132 -405q0 -475 -217 -748t-573 -270q-231 1 -365 105t-110 305h368q-4 -121 125 -121t213 101t127 335h-8q-113 -174 -358 -174zM784 1239q-109 0 -169 -85t-60 -196
q4 -70 49 -114t119 -43q106 0 167 82q60 82 60 194q-4 72 -47 117t-119 45z" />
    <glyph glyph-name="colon" unicode=":" horiz-adv-x="641" 
d="M414 0h-383l69 367h383zM168 713l72 366h383l-72 -366h-383z" />
    <glyph glyph-name="semicolon" unicode=";" horiz-adv-x="690" 
d="M227 -240h-258l185 607h385zM236 713l71 366h383l-72 -366h-382z" />
    <glyph glyph-name="less" unicode="&#x3c;" horiz-adv-x="1269" 
d="M1055 74l-928 528l35 168l1130 530l-65 -344l-645 -286l530 -297z" />
    <glyph glyph-name="equal" unicode="=" horiz-adv-x="1269" 
d="M1098 362h-983l53 279h983zM201 809l55 278h983l-55 -278h-983z" />
    <glyph glyph-name="greater" unicode="&#x3e;" horiz-adv-x="1269" 
d="M285 1296l925 -520l-32 -172l-1129 -530l66 340l645 291l-533 294z" />
    <glyph glyph-name="question" unicode="?" horiz-adv-x="1236" 
d="M309 0l68 348h414l-68 -348h-414zM928 1196q0 134 -174 133q-88 0 -148 -61t-59 -187h-373q4 238 159 392t455 153q228 0 376 -104t149 -293q-1 -135 -59 -233t-195 -187l-176 -117q-63 -41 -86 -149l-9 -39h-344l23 108q23 111 52 166q30 55 116 111l151 98
q76 49 109 97t33 112z" />
    <glyph glyph-name="at" unicode="@" horiz-adv-x="2066" 
d="M985 326q61 0 114 59q52 59 70 158l19 92q18 90 -12 147q-31 57 -93 58q-98 0 -153 -112t-56 -236q0 -166 111 -166zM1481 106q-129 0 -205 54t-88 153h-6q-106 -199 -318 -198q-147 0 -232 102t-85 275q0 221 130 388t331 167q92 0 150 -40t81 -100h4l23 107h319
l-125 -572q-37 -172 86 -172q100 0 186 122q85 122 89 341q5 291 -183 469t-495 178q-350 0 -606 -260q-257 -260 -263 -616t190 -552t510 -196t542 172l81 -94q-266 -213 -643 -213t-610 238t-225 624q8 449 308 741t728 292q371 0 605 -214t228 -545t-150 -491
q-146 -160 -357 -160z" />
    <glyph glyph-name="A" unicode="A" horiz-adv-x="1554" 
d="M1020 0l-41 291h-535l-141 -291h-395l809 1567h448l260 -1567h-405zM874 1231h-4q-16 -66 -102 -250l-184 -401h354l-47 389q-13 120 -17 233v29z" />
    <glyph glyph-name="B" unicode="B" horiz-adv-x="1484" 
d="M762 287q114 0 186 56t72 159q0 168 -209 168h-248l-74 -383h273zM840 926q121 0 173 61t52 139q0 164 -195 164h-186l-72 -364h228zM772 0h-745l303 1567h598q246 0 387 -91t141 -286q0 -289 -328 -369v-8q123 -29 198 -111t75 -204q0 -242 -168 -370t-461 -128z" />
    <glyph glyph-name="C" unicode="C" horiz-adv-x="1560" 
d="M559 559q0 -129 55 -212t179 -83q229 0 288 291h414q-37 -276 -227 -432t-494 -156t-479 155q-174 155 -174 486q0 402 213 683q102 136 264 217t330 81q168 1 278 -31q374 -106 363 -557h-428q25 295 -199 289q-98 -2 -175 -70q-137 -120 -186 -408q-22 -124 -22 -253z
" />
    <glyph glyph-name="D" unicode="D" horiz-adv-x="1554" 
d="M643 301q219 0 343 170t124 494q0 305 -301 305h-129l-188 -969h151zM852 1567q318 0 504 -168t186 -473q0 -406 -240 -666t-667 -260h-608l303 1567h522z" />
    <glyph glyph-name="E" unicode="E" horiz-adv-x="1275" 
d="M27 0l303 1567h1022l-60 -303h-614l-66 -338h594l-57 -295h-592l-65 -332h641l-58 -299h-1048z" />
    <glyph glyph-name="F" unicode="F" horiz-adv-x="1204" 
d="M545 571l-111 -571h-407l303 1567h993l-59 -303h-586l-76 -394h563l-57 -299h-563z" />
    <glyph glyph-name="G" unicode="G" horiz-adv-x="1605" 
d="M958 1298q-102 0 -181 -70q-139 -122 -194 -413q-24 -121 -28 -250t51 -218t183 -91t207 77t104 212l6 35h-289l53 280h695l-166 -860h-316l39 205h-6q-48 -102 -156 -170t-268 -68q-266 0 -418 161t-151 470q0 199 57 378q56 179 162 316t269 218t360 79q269 0 440 -123
q170 -123 166 -405h-424q8 117 -43 177q-50 60 -152 60z" />
    <glyph glyph-name="H" unicode="H" horiz-adv-x="1585" 
d="M555 623l-121 -623h-407l303 1567h407l-123 -635h519l122 635h410l-303 -1567h-410l121 623h-518z" />
    <glyph glyph-name="I" unicode="I" horiz-adv-x="655" 
d="M27 0l303 1567h407l-303 -1567h-407z" />
    <glyph glyph-name="J" unicode="J" horiz-adv-x="915" 
d="M162 -6h-187l64 323h106q76 1 123 13q79 21 113 116q12 35 27 107l200 1014h402l-207 -1061q-57 -296 -201 -404t-440 -108z" />
    <glyph glyph-name="K" unicode="K" horiz-adv-x="1499" 
d="M522 451l-88 -451h-407l303 1567h407l-121 -619l580 619h459l-676 -686l387 -881h-432l-262 606z" />
    <glyph glyph-name="L" unicode="L" horiz-adv-x="1230" 
d="M27 0l303 1567h407l-243 -1256h608l-60 -311h-1015z" />
    <glyph glyph-name="M" unicode="M" horiz-adv-x="1957" 
d="M995 618h6q41 121 105 248l344 701h588l-303 -1567h-379l227 1169h-6q-70 -170 -174 -376l-397 -793h-275l-88 793q-20 180 -20 325v49h-7l-227 -1167h-362l303 1567h567l80 -686q9 -65 18 -226v-37z" />
    <glyph glyph-name="N" unicode="N" horiz-adv-x="1550" 
d="M27 0l303 1567h418l251 -699q41 -111 70 -241l4 -33h6l189 973h362l-303 -1567h-377l-276 721q-53 128 -76 250l-8 35h-6l-195 -1006h-362z" />
    <glyph glyph-name="O" unicode="O" horiz-adv-x="1648" 
d="M1190 980q0 318 -236 318q-104 0 -185 -72q-136 -121 -191 -426q-23 -122 -23 -241q0 -297 246 -297q125 0 217 122t132 284t40 312zM1240 102q-194 -136 -459 -135q-265 0 -451 133q-96 70 -152 199q-55 129 -55 309q-2 264 95 484t292 359q195 138 458 138t453 -150
q93 -75 147 -205t54 -298q-2 -266 -95 -482t-287 -352z" />
    <glyph glyph-name="P" unicode="P" horiz-adv-x="1370" 
d="M762 801q131 0 200 78t68 221q0 178 -190 178h-158l-92 -477h172zM731 504h-201l-96 -504h-407l303 1567h549q254 0 400 -115t146 -338q0 -299 -190 -455q-191 -155 -504 -155z" />
    <glyph glyph-name="Q" unicode="Q" horiz-adv-x="1648" 
d="M803 256q96 0 172 68q139 124 191 412q24 128 24 261t-56 217t-170 84q-295 0 -386 -498q-23 -122 -23 -247q-1 -125 57 -211t191 -86zM766 -25q-268 0 -447 136q-92 71 -144 197t-52 289q0 500 303 791q98 93 236 147t288 54q282 0 470 -150q94 -75 148 -204t54 -299
q0 -569 -391 -799v-12q99 -27 161 -80t111 -158l-373 -194q-76 156 -150 219q-75 63 -194 63h-20z" />
    <glyph glyph-name="R" unicode="R" horiz-adv-x="1456" 
d="M856 1567q600 0 600 -451q0 -369 -352 -489v-4l260 -623h-422l-223 559h-176l-109 -559h-407l303 1567h526zM772 842q129 0 203 66t74 180q1 116 -53 160t-183 44h-129l-88 -450h176z" />
    <glyph glyph-name="S" unicode="S" horiz-adv-x="1386" 
d="M168 1049q0 254 181 397t445 143t430 -101q165 -101 148 -349h-411q4 75 -43 115q-48 40 -136 40t-143 -45t-55 -111t44 -96q44 -29 128 -49l205 -51q365 -90 364 -401q0 -258 -186 -416q-187 -158 -489 -158t-468 121q-165 121 -151 365h428q-9 -191 203 -191
q112 0 178 50t65 130q0 106 -162 146l-196 49q-201 51 -290 153t-89 259z" />
    <glyph glyph-name="T" unicode="T" horiz-adv-x="1339" 
d="M1016 1249l-242 -1249h-407l241 1249h-411l61 318h1231l-62 -318h-411z" />
    <glyph glyph-name="U" unicode="U" horiz-adv-x="1523" 
d="M735 -33q-350 0 -506 174q-155 174 -98 467l186 959h408l-193 -979q-30 -150 28 -224t188 -74t187 68q58 68 85 203l194 1006h402l-199 -1022q-115 -578 -682 -578z" />
    <glyph glyph-name="V" unicode="V" horiz-adv-x="1495" 
d="M432 0l-209 1567h406l96 -922q12 -132 12 -219l-2 -31h4q20 92 86 228l453 944h403l-786 -1567h-463z" />
    <glyph glyph-name="W" unicode="W" horiz-adv-x="2115" 
d="M725 0h-397l-101 1567h410l29 -760q4 -169 -7 -250l-2 -35h5q33 111 98 260l344 785h344l61 -766q11 -136 11 -246l-2 -33h4q25 113 84 260l315 785h373l-676 -1567h-385l-49 829l-6 258h-4q-23 -88 -87 -235z" />
    <glyph glyph-name="X" unicode="X" horiz-adv-x="1513" 
d="M-76 0l656 819l-318 748h438l172 -461h2l338 461h439l-611 -758l353 -809h-451l-197 518h-2l-383 -518h-436z" />
    <glyph glyph-name="Y" unicode="Y" horiz-adv-x="1445" 
d="M424 0l131 680l-328 887h422l178 -559h4l373 559h424l-674 -936l-123 -631h-407z" />
    <glyph glyph-name="Z" unicode="Z" horiz-adv-x="1325" 
d="M242 1255l59 312h1151l-53 -277l-889 -977h704l-59 -313h-1194l53 276l891 979h-663z" />
    <glyph glyph-name="bracketleft" unicode="[" horiz-adv-x="811" 
d="M29 -266l366 1880h580l-45 -230h-264l-277 -1421h264l-45 -229h-579z" />
    <glyph glyph-name="backslash" unicode="\" horiz-adv-x="1148" 
d="M778 -266l-545 1880h283l545 -1880h-283z" />
    <glyph glyph-name="bracketright" unicode="]" horiz-adv-x="811" 
d="M846 1614l-367 -1880h-577l43 229h264l276 1421h-264l45 230h580z" />
    <glyph glyph-name="asciicircum" unicode="^" horiz-adv-x="968" 
d="M823 1614l195 -613h-234l-131 334h-2l-250 -334h-251l428 613h245z" />
    <glyph glyph-name="underscore" unicode="_" horiz-adv-x="790" 
d="M-123 -389l45 235h780l-45 -235h-780z" />
    <glyph glyph-name="grave" unicode="`" horiz-adv-x="741" 
d="M680 1614l37 -369h-291l-117 369h371z" />
    <glyph glyph-name="a" unicode="a" horiz-adv-x="1220" 
d="M958 0q-96 0 -156 24t-89 97h-6q-80 -76 -149 -104q-68 -27 -198 -27t-228 80q-97 80 -97 231q0 252 246 332q102 31 188 36q154 9 287 9l10 59q29 150 -111 150q-125 0 -141 -121h-373q17 178 155 272t398 94t366 -130t64 -353l-57 -295q-10 -51 8 -68t70 -20l-53 -266
h-134zM532 225q143 0 181 230l6 30q-129 -4 -182 -16q-119 -31 -119 -129q0 -55 32 -85t82 -30z" />
    <glyph glyph-name="b" unicode="b" horiz-adv-x="1335" 
d="M652 229q104 0 170 130t67 303q0 203 -148 202q-76 0 -137 -59t-82 -168l-26 -141q-23 -121 15 -194q37 -73 141 -73zM740 -27q-237 0 -316 181h-4l-31 -154h-377l314 1614h393l-133 -678h6q121 193 338 192q170 0 266 -118t96 -332q0 -213 -82 -386q-92 -199 -266 -276
q-96 -43 -204 -43z" />
    <glyph glyph-name="c" unicode="c" horiz-adv-x="1282" 
d="M629 233q80 -1 132 53t68 150h381q-20 -229 -189 -348t-402 -119t-388 105q-78 53 -121 149q-44 96 -44 228q0 307 173 495t480 189q250 0 393 -122t133 -335h-399q14 197 -135 199q-113 3 -176 -137t-64 -310q0 -197 158 -197z" />
    <glyph glyph-name="d" unicode="d" horiz-adv-x="1349" 
d="M70 412q0 401 252 608q131 109 305 108q211 0 305 -165h4l127 651h393l-313 -1614h-379l31 158h-4q-129 -186 -323 -186t-297 126q-101 126 -101 314zM712 866q-104 0 -170 -128t-67 -306q0 -203 143 -203q78 -1 140 59t84 171l26 141q27 126 -13 196q-39 70 -143 70z
" />
    <glyph glyph-name="e" unicode="e" horiz-adv-x="1261" 
d="M597 -31q-239 0 -386 124t-148 358q-1 291 179 487t474 197q294 0 412 -167t70 -429l-14 -74h-721v-31q0 -203 153 -203q59 0 103 29q43 29 51 80h391q-33 -186 -179 -278t-385 -93zM705 897q-156 0 -216 -225h336l2 16q29 209 -122 209z" />
    <glyph glyph-name="f" unicode="f" horiz-adv-x="757" 
d="M805 1628q88 0 162 -14l22 -4l-51 -262q-28 4 -90 4q-131 0 -158 -138l-20 -106h188l-53 -272h-189l-161 -836h-383l161 836h-131l54 272h131l18 96q47 242 167 333t333 91z" />
    <glyph glyph-name="g" unicode="g" horiz-adv-x="1337" 
d="M526 -160q104 0 158 56t78 157l31 152h-5q-117 -160 -308 -160q-190 1 -296 107t-106 315q0 266 154 464q155 198 399 197q123 0 202 -51t111 -135h4l33 166h381l-197 -1010q-51 -264 -212 -385t-441 -121t-394 100q-116 100 -112 267h371q-2 -59 42 -89t107 -30z
M850 498l20 110q23 115 -13 187t-128 71q-121 0 -185 -116t-63 -269q4 -193 164 -192q75 -1 131 57t74 152z" />
    <glyph glyph-name="h" unicode="h" horiz-adv-x="1323" 
d="M870 725q0 125 -122 125q-182 0 -234 -279l-108 -571h-396l314 1614h393l-135 -694h4q121 209 372 208q182 0 263 -117q80 -118 36 -341l-129 -670h-393l123 633q12 68 12 92z" />
    <glyph glyph-name="i" unicode="i" horiz-adv-x="610" 
d="M10 0l215 1108h393l-215 -1108h-393zM256 1268l68 346h393l-68 -346h-393z" />
    <glyph glyph-name="j" unicode="j" horiz-adv-x="622" 
d="M-76 -430q-124 0 -166 20l-18 7l49 260q33 -10 78 -11q125 0 151 140l220 1122h393l-223 -1143q-78 -395 -484 -395zM268 1268l68 346h393l-67 -346h-394z" />
    <glyph glyph-name="k" unicode="k" horiz-adv-x="1245" 
d="M449 274l-54 -274h-385l314 1614h385l-177 -912l388 406h419l-471 -475l271 -633h-398l-176 399z" />
    <glyph glyph-name="l" unicode="l" horiz-adv-x="610" 
d="M10 0l314 1614h393l-314 -1614h-393z" />
    <glyph glyph-name="m" unicode="m" horiz-adv-x="2017" 
d="M1550 725q0 125 -116 125q-76 0 -136 -71t-84 -208l-106 -571h-393l119 614q14 76 14 111q0 125 -117 125q-80 0 -136 -72t-83 -207l-106 -571h-396l215 1108h379l-39 -199h4q143 219 379 219q260 0 277 -239h4q154 240 418 239q184 0 261 -118t31 -340l-129 -670h-393
l119 614q14 76 14 111z" />
    <glyph glyph-name="n" unicode="n" horiz-adv-x="1335" 
d="M868 740q0 110 -120 110q-90 0 -150 -74t-86 -209l-106 -567h-396l215 1108h379l-39 -199h4q133 219 389 219q182 0 263 -116q80 -117 36 -340l-129 -672h-393l119 614q14 76 14 126z" />
    <glyph glyph-name="o" unicode="o" horiz-adv-x="1298" 
d="M852 688q0 74 -34 130t-103 56t-119 -44t-75 -114q-52 -139 -52 -282q0 -203 147 -203q66 1 115 47t74 119q47 139 47 291zM600 -31q-233 0 -384 120t-150 362q0 291 176 487t475 197q233 0 386 -126t152 -356q0 -313 -180 -499t-475 -185z" />
    <glyph glyph-name="p" unicode="p" horiz-adv-x="1335" 
d="M938 1128q164 0 259 -118t95 -328q0 -266 -130 -476q-64 -104 -176 -168t-234 -64t-204 44q-81 45 -112 117h-6l-100 -520h-393l288 1493h379l-35 -180h4q53 86 149 143t216 57zM652 229q104 0 170 130t67 303q0 203 -148 202q-76 0 -137 -59t-82 -168l-26 -141
q-23 -121 15 -194q37 -73 141 -73z" />
    <glyph glyph-name="q" unicode="q" horiz-adv-x="1345" 
d="M618 229q78 -1 140 59t84 171l26 141q27 125 -13 196q-39 70 -143 70t-170 -128t-67 -306q0 -203 143 -203zM464 -29q-187 0 -291 126q-103 125 -103 315q0 404 247 608q131 109 310 108q215 0 317 -176h4l31 156h379l-291 -1493h-393l100 516h-4q-119 -160 -306 -160z
" />
    <glyph glyph-name="r" unicode="r" horiz-adv-x="897" 
d="M969 1124h16l-70 -364h-22q-183 0 -277 -64t-133 -262l-84 -434h-389l215 1108h371l-51 -256h4q152 272 420 272z" />
    <glyph glyph-name="s" unicode="s" horiz-adv-x="1110" 
d="M121 739q0 187 140 291t357 104t336 -90t109 -262h-340q4 55 -34 82t-95 27t-90 -27t-33 -63q0 -66 135 -92l142 -31q145 -34 206 -102t62 -197q0 -195 -144 -303t-354 -109q-210 0 -350 70q-156 78 -152 289h355q-4 -115 143 -115q146 0 145 98q0 63 -98 84l-131 27
q-164 36 -236 110t-73 209z" />
    <glyph glyph-name="t" unicode="t" horiz-adv-x="845" 
d="M510 -14q-428 0 -346 422l84 428h-142l54 272h39q94 0 137 43t70 180l16 82h319l-59 -305h229l-53 -272h-225l-80 -414q-16 -90 4 -121t102 -31l84 11l-53 -279q-94 -16 -180 -16z" />
    <glyph glyph-name="u" unicode="u" horiz-adv-x="1310" 
d="M475 395q0 -135 123 -135q76 0 133 69t82 197l113 582h393l-215 -1108h-379l37 190h-4q-135 -209 -365 -208q-193 0 -275 114t-38 330l133 682h393l-121 -621q-10 -61 -10 -92z" />
    <glyph glyph-name="v" unicode="v" horiz-adv-x="1212" 
d="M578 344h4q51 145 116 283l230 481h389l-598 -1108h-404l-186 1108h383l51 -461q11 -97 15 -262v-41z" />
    <glyph glyph-name="w" unicode="w" horiz-adv-x="1755" 
d="M1186 393v-47h6q39 166 92 291l201 471h336l-494 -1108h-366l-29 303q-16 164 -19 356v66h-4q-92 -229 -159 -385l-148 -340h-362l-123 1108h350l35 -428q12 -149 6 -287l-2 -47h4q45 166 106 301l209 461h310l41 -449q10 -98 10 -266z" />
    <glyph glyph-name="x" unicode="x" horiz-adv-x="1212" 
d="M-88 0l483 598l-239 510h395l119 -301h2l202 301h408l-440 -545l262 -563h-404l-135 344h-2l-241 -344h-410z" />
    <glyph glyph-name="y" unicode="y" horiz-adv-x="1202" 
d="M137 -408q-141 0 -190 23l53 276q41 -10 122 -10t130 23t74 88l-197 1116h395l54 -522q12 -119 6 -226l-2 -36h4q37 121 86 227l246 557h389l-609 -1161q-98 -187 -222 -271t-339 -84z" />
    <glyph glyph-name="z" unicode="z" horiz-adv-x="1122" 
d="M158 825l55 283h954l-47 -238l-606 -583h500l-56 -287h-978l45 240l608 585h-475z" />
    <glyph glyph-name="braceleft" unicode="{" horiz-adv-x="894" 
d="M174 547h-65l51 262h65q65 0 89 27t38 104l54 279q49 252 204 342q156 90 439 61l-43 -221q-152 8 -218 -44t-88 -175l-45 -242q-20 -113 -69 -172t-148 -76v-8q160 -43 111 -289l-41 -205q-27 -125 21 -182t206 -61l-43 -221q-288 10 -410 116t-73 361l41 213
q24 131 -76 131z" />
    <glyph glyph-name="bar" unicode="|" horiz-adv-x="579" 
d="M20 -266l367 1880h256l-367 -1880h-256z" />
    <glyph glyph-name="braceright" unicode="}" horiz-adv-x="894" 
d="M786 809h66l-51 -262h-66q-65 0 -89 -27t-38 -104l-53 -279q-49 -252 -205 -342t-438 -61l43 221q151 -8 217 44t88 175l45 242q19 113 69 172t148 76v8q-160 43 -110 289l41 204q27 125 -21 183t-207 61l43 221q289 -10 411 -116t73 -361l-41 -213q-25 -131 75 -131z
" />
    <glyph glyph-name="asciitilde" unicode="~" horiz-adv-x="1067" 
d="M707 770q35 0 63 23t33 73h241q-23 -387 -315 -387q-68 0 -173 48t-141 48q-36 -1 -66 -27t-27 -69h-242q18 170 102 279t232 108q68 0 163 -48t130 -48z" />
    <glyph glyph-name="uni00A0" unicode="&#xa0;" horiz-adv-x="411" 
 />
    <glyph glyph-name="exclamdown" unicode="&#xa1;" horiz-adv-x="716" 
d="M326 1386h413l-67 -348h-414zM578 883l-142 -1108h-454l315 1108h281z" />
    <glyph glyph-name="cent" unicode="&#xa2;" horiz-adv-x="1282" 
d="M846 436h364q-20 -225 -185 -344t-402 -123l-41 -207h-146l43 218q-186 28 -300 142t-113 329q0 303 168 490q169 187 468 194l33 165h146l-35 -176q195 -30 301 -146t98 -300h-383q10 162 -63 205l-131 -674q147 28 178 227zM526 229l131 668q-102 -35 -154 -172
q-53 -137 -53 -293t76 -203z" />
    <glyph glyph-name="sterling" unicode="&#xa3;" horiz-adv-x="1327" 
d="M856 1540q266 0 387 -123t94 -334h-379q10 92 -26 146q-37 53 -109 53q-197 0 -157 -317l16 -136h385l-43 -225h-326q-8 -84 -57 -151t-158 -140v-4h682l-59 -309h-1110l41 215l57 33q129 76 191 151q61 76 57 205h-244l43 225h170l-10 78q-45 303 91 468t464 165z" />
    <glyph glyph-name="currency" unicode="&#xa4;" horiz-adv-x="1292" 
d="M644 547q71 0 114 46t43 120t-43 121t-114 47t-114 -47t-43 -121t43 -120t114 -46zM258 712q0 83 29 156l-219 215l208 209l216 -221q70 29 150 29t157 -31l217 223l209 -209l-224 -219q29 -70 29 -152t-29 -151l226 -219l-209 -209l-219 223q-149 -58 -307 -2l-216 -221
l-208 209l219 213q-29 74 -29 157z" />
    <glyph glyph-name="yen" unicode="&#xa5;" horiz-adv-x="1370" 
d="M395 0l51 266h-395l31 164h397l29 154h-399l30 164h396l-297 770h405l150 -439h4l307 439h424l-600 -770h395l-31 -164h-397l-29 -154h400l-31 -164h-401l-52 -266h-387z" />
    <glyph glyph-name="brokenbar" unicode="&#xa6;" horiz-adv-x="608" 
d="M264 -266h-256l162 829h256zM631 1614l-162 -832h-256l162 832h256z" />
    <glyph glyph-name="section" unicode="&#xa7;" horiz-adv-x="1341" 
d="M285 1186q0 188 138 296t379 108q242 0 364 -101q122 -100 102 -258h-350q8 53 -26 84t-95 31q-133 0 -133 -97q0 -39 28 -61t107 -62l260 -125q197 -94 198 -274q2 -244 -251 -340v-4q74 -70 77 -195q1 -217 -149 -319t-386 -102t-356 93t-108 265h338q-6 -53 33 -84
t102 -31t109 24q45 24 45 80t-88 99l-281 137q-111 53 -167 121t-58 172q-2 231 258 322v4q-29 35 -45 59q-45 66 -45 158zM463 731q0 -55 92 -98l246 -119q47 4 77 36t30 73t-28 69q-26 28 -98 62l-209 98q-43 -6 -77 -36t-33 -85z" />
    <glyph glyph-name="dieresis" unicode="&#xa8;" horiz-adv-x="741" 
d="M145 1292l64 322h321l-63 -322h-322zM578 1292l63 322h322l-64 -322h-321z" />
    <glyph glyph-name="copyright" unicode="&#xa9;" horiz-adv-x="1804" 
d="M801 694q0 -152 121 -151q59 0 99 41t54 114h262q-14 -176 -137 -266t-293 -90q-171 0 -279 85t-108 267q0 236 128 386t351 151q181 0 277 -92t88 -256h-277q10 152 -100 151q-90 0 -138 -105t-48 -235zM950 84q289 0 483 200q193 200 193 494t-193 496
q-194 201 -483 201q-290 0 -482 -200t-192 -496q0 -295 192 -495t482 -200zM143 778q1 346 231 580t576 233q346 0 578 -233q232 -232 231 -578q0 -346 -231 -579q-232 -233 -578 -233t-576 232t-231 578z" />
    <glyph glyph-name="ordfeminine" unicode="&#xaa;" horiz-adv-x="1062" 
d="M702 1540q208 0 302 -101t61 -270l-43 -225q-8 -41 3 -54t42 -13l-45 -222h-78q-106 -1 -145 11t-57 32q-17 20 -33 58h-7q-84 -111 -249 -111q-119 0 -193 65t-74 181q0 193 183 254q105 39 379 39l6 33q20 109 -68 108q-88 0 -98 -78h-328q14 133 124 213t318 80z
M586 840q41 0 83 39t52 118l4 33q-113 0 -166 -28t-53 -91q0 -71 80 -71z" />
    <glyph glyph-name="guillemotleft" unicode="&#xab;" horiz-adv-x="1091" 
d="M377 950h270l-270 -422l112 -411h-272l-129 418zM831 950h269l-271 -422l111 -411h-268l-129 418z" />
    <glyph glyph-name="logicalnot" unicode="&#xac;" horiz-adv-x="1265" 
d="M88 594l53 278h1063l-133 -684h-299l78 406h-762z" />
    <glyph glyph-name="registered" unicode="&#xae;" horiz-adv-x="1030" 
d="M709 1386q65 0 107 -38t34 -103q-8 -92 -102 -127l73 -192h-133l-59 172h-43l-19 -172h-123l52 460h213zM643 1184q78 0 86 65q4 58 -70 60h-49l-14 -125h47zM623 772q152 0 258 106t116 263q8 158 -88 264q-95 106 -247 106t-258 -106t-114 -264q-9 -157 86 -263
t247 -106zM666 1589q190 0 311 -129t111 -319q-10 -191 -145 -319t-325 -128t-309 128q-118 129 -108 319t142 319q133 129 323 129z" />
    <glyph glyph-name="macron" unicode="&#xaf;" horiz-adv-x="741" 
d="M152 1292l47 246h741l-47 -246h-741z" />
    <glyph glyph-name="degree" unicode="&#xb0;" horiz-adv-x="804" 
d="M529 1051q71 0 115 46t48 120q2 75 -40 121t-112 46t-115 -47q-44 -47 -47 -121q-4 -74 38 -119q42 -46 113 -46zM184 1217q4 151 106 251t254 100q153 0 250 -100t93 -254q-3 -154 -105 -251t-256 -97t-250 100t-92 251z" />
    <glyph glyph-name="plusminus" unicode="&#xb1;" horiz-adv-x="1269" 
d="M-18 0l53 279h1063l-54 -279h-1062zM813 778l-63 -323h-299l63 323h-383l55 279h381l62 319h299l-62 -319h383l-55 -279h-381z" />
    <glyph glyph-name="twosuperior" unicode="&#xb2;" horiz-adv-x="874" 
d="M672 1683q143 0 229 -60q86 -59 86 -169t-56 -184t-159 -146l-197 -139v-4h343l-37 -195h-758l29 138l413 319q123 96 143 123q19 26 19 60t-25 54t-63 21q-99 0 -111 -123h-270q39 305 414 305z" />
    <glyph glyph-name="threesuperior" unicode="&#xb3;" horiz-adv-x="884" 
d="M594 1155h-119l33 152h96q57 1 94 33t37 75q0 82 -89 82t-109 -92h-269q16 117 118 198t270 81q170 0 258 -60q88 -59 90 -158q0 -178 -197 -225v-4q151 -45 151 -183t-110 -212t-292 -74q-181 0 -277 72t-84 211h262q-1 -45 27 -69t81 -24t85 33t32 82q0 82 -88 82z" />
    <glyph glyph-name="acute" unicode="&#xb4;" horiz-adv-x="741" 
d="M307 1245l170 369h381l-250 -369h-301z" />
    <glyph glyph-name="paragraph" unicode="&#xb6;" horiz-adv-x="1239" 
d="M709 1567h229l-303 -1567h-219l141 737q-170 3 -268 101t-99 262q0 223 146 345t373 122zM1100 1567h219l-303 -1567h-219z" />
    <glyph glyph-name="periodcentered" unicode="&#xb7;" horiz-adv-x="624" 
d="M121 563l72 367h391l-72 -367h-391z" />
    <glyph glyph-name="cedilla" unicode="&#xb8;" horiz-adv-x="1075" 
d="M450 -96q64 0 108 -41t44 -105q0 -106 -75 -170t-195 -63q-120 0 -189 43q-70 43 -59 131h180q4 -41 50 -41q84 0 85 68q0 53 -57 53q-39 0 -61 -29h-131l137 301h119l-82 -188h4q58 41 122 41z" />
    <glyph glyph-name="onesuperior" unicode="&#xb9;" horiz-adv-x="626" 
d="M289 1522q86 0 142 32t71 115h252l-187 -883h-272l117 549h-197l39 187h35z" />
    <glyph glyph-name="ordmasculine" unicode="&#xba;" horiz-adv-x="1120" 
d="M541 1004q5 -144 106 -140q47 0 83 31t60 108t25 168q-4 131 -104 132q-86 1 -128 -95t-42 -204zM629 635q-190 2 -314 95q-123 93 -125 282q0 225 142 377t385 149q186 -4 311 -101t129 -278q2 -244 -143 -386t-385 -138z" />
    <glyph glyph-name="guillemotright" unicode="&#xbb;" horiz-adv-x="1091" 
d="M739 117h-270l270 422l-110 411h270l127 -415zM266 117h-270l272 422l-112 411h270l125 -415z" />
    <glyph glyph-name="onequarter" unicode="&#xbc;" horiz-adv-x="1845" 
d="M1724 176h-110l-37 -176h-248l37 176h-457l37 178l494 529h323l-106 -508h110zM1198 360h215l74 342h-6q-41 -74 -103 -141zM94 -82l1422 1681h249l-1421 -1681h-250zM268 1419q188 0 213 148h252l-186 -883h-273l117 549h-196l38 186h35z" />
    <glyph glyph-name="onehalf" unicode="&#xbd;" horiz-adv-x="1921" 
d="M1542 897q144 0 230 -60t86 -170t-56 -184t-160 -145l-196 -139v-4h342l-37 -195h-758l29 137l414 320q123 96 142 123q19 26 19 60t-24 54q-25 20 -64 21q-98 0 -110 -123h-271q39 305 414 305zM59 -82l1422 1681h250l-1422 -1681h-250zM268 1419q188 0 213 148h252
l-186 -883h-273l117 549h-196l38 186h35z" />
    <glyph glyph-name="threequarters" unicode="&#xbe;" horiz-adv-x="2060" 
d="M1939 176h-110l-37 -176h-248l37 176h-457l37 178l494 529h323l-106 -508h110zM1413 360h215l74 342h-6q-41 -74 -103 -141zM324 -82l1421 1681h250l-1422 -1681h-249zM573 1053h-118l32 151h97q57 0 94 33t37 76q0 80 -89 81t-110 -91h-268q16 117 118 197t270 81
q169 0 258 -59t89 -158q0 -178 -197 -225v-4q152 -45 152 -183t-111 -213q-111 -73 -292 -73t-277 72t-84 210h262q-2 -44 27 -68t82 -24t85 33t32 82q-1 82 -89 82z" />
    <glyph glyph-name="questiondown" unicode="&#xbf;" horiz-adv-x="1236" 
d="M987 1386l-67 -348h-414l67 348h414zM543 57q88 -1 148 61t59 187h372q-4 -237 -158 -391t-456 -154q-228 0 -376 104t-148 294q0 135 58 232t196 188l176 116q63 41 86 150l8 39h344l-23 -109q-23 -111 -53 -166t-114 -110l-152 -99q-76 -49 -109 -97t-33 -112t44 -98
q43 -35 131 -35z" />
    <glyph glyph-name="Agrave" unicode="&#xc0;" horiz-adv-x="1554" 
d="M1034 1966l78 -272h-283l-161 272h366zM1020 0l-41 291h-535l-141 -291h-395l809 1567h448l260 -1567h-405zM874 1231h-4q-16 -66 -102 -250l-184 -401h354l-47 389q-13 120 -17 233v29z" />
    <glyph glyph-name="Aacute" unicode="&#xc1;" horiz-adv-x="1554" 
d="M797 1694l166 272h374l-250 -272h-290zM1020 0l-41 291h-535l-141 -291h-395l809 1567h448l260 -1567h-405zM874 1231h-4q-16 -66 -102 -250l-184 -401h354l-47 389q-13 120 -17 233v29z" />
    <glyph glyph-name="Acircumflex" unicode="&#xc2;" horiz-adv-x="1554" 
d="M1174 1966l165 -272h-256l-104 92h-2l-133 -92h-260l272 272h318zM1020 0l-41 291h-535l-141 -291h-395l809 1567h448l260 -1567h-405zM874 1231h-4q-16 -66 -102 -250l-184 -401h354l-47 389q-13 120 -17 233v29z" />
    <glyph glyph-name="Atilde" unicode="&#xc3;" horiz-adv-x="1554" 
d="M881 2009q63 0 139 -46t120 -46t68 18t41 74h168q-10 -145 -91 -241t-200 -97q-86 0 -171 46t-117 46q-68 0 -111 -92h-164q10 129 97 233t221 105zM1020 0l-41 291h-535l-141 -291h-395l809 1567h448l260 -1567h-405zM874 1231h-4q-16 -66 -102 -250l-184 -401h354
l-47 389q-13 120 -17 233v29z" />
    <glyph glyph-name="Adieresis" unicode="&#xc4;" horiz-adv-x="1554" 
d="M586 1702l63 321h322l-64 -321h-321zM1018 1702l63 321h322l-64 -321h-321zM1020 0l-41 291h-535l-141 -291h-395l809 1567h448l260 -1567h-405zM874 1231h-4q-16 -66 -102 -250l-184 -401h354l-47 389q-13 120 -17 233v29z" />
    <glyph glyph-name="Aring" unicode="&#xc5;" horiz-adv-x="1554" 
d="M1012 2009q-57 0 -90 -40t-33 -96q0 -112 100 -112q51 0 85 40t34 104q0 104 -96 104zM994 1618q-126 0 -208 60t-82 185t88 209q87 84 220 85q133 0 208 -67q74 -66 74 -186t-87 -203t-213 -83zM1020 0l-41 291h-535l-141 -291h-395l809 1567h448l260 -1567h-405z
M874 1231h-4q-16 -66 -102 -250l-184 -401h354l-47 389q-13 120 -17 233v29z" />
    <glyph glyph-name="AE" unicode="&#xc6;" horiz-adv-x="2217" 
d="M963 0l63 324h-487l-205 -324h-451l1047 1567h1364l-60 -303h-620l-66 -338h600l-57 -295h-600l-64 -332h644l-58 -299h-1050zM1083 621l123 643h-80q-88 -145 -145 -240l-256 -403h358z" />
    <glyph glyph-name="Ccedilla" unicode="&#xc7;" horiz-adv-x="1560" 
d="M922 -242q0 -106 -75 -170t-195 -63q-120 0 -189 43q-70 43 -60 131h181q4 -41 50 -41q83 0 85 68q0 53 -57 53q-39 0 -62 -29h-131l109 236q-457 94 -457 622q0 402 213 683q102 136 264 217t330 81q168 1 278 -31q374 -106 363 -557h-428q25 295 -199 289
q-98 -2 -175 -70q-137 -120 -186 -408q-22 -124 -22 -253t55 -212t179 -83q229 0 288 291h414q-37 -276 -227 -432t-486 -156q-31 0 -92 4l-47 -108h4q57 41 122 41t109 -41t44 -105z" />
    <glyph glyph-name="Egrave" unicode="&#xc8;" horiz-adv-x="1275" 
d="M938 1966l78 -272h-283l-162 272h367zM27 0l303 1567h1022l-60 -303h-614l-66 -338h594l-57 -295h-592l-65 -332h641l-58 -299h-1048z" />
    <glyph glyph-name="Eacute" unicode="&#xc9;" horiz-adv-x="1275" 
d="M700 1694l166 272h375l-250 -272h-291zM27 0l303 1567h1022l-60 -303h-614l-66 -338h594l-57 -295h-592l-65 -332h641l-58 -299h-1048z" />
    <glyph glyph-name="Ecircumflex" unicode="&#xca;" horiz-adv-x="1275" 
d="M1077 1966l166 -272h-256l-104 92h-2l-133 -92h-261l273 272h317zM27 0l303 1567h1022l-60 -303h-614l-66 -338h594l-57 -295h-592l-65 -332h641l-58 -299h-1048z" />
    <glyph glyph-name="Edieresis" unicode="&#xcb;" horiz-adv-x="1275" 
d="M489 1702l64 321h321l-63 -321h-322zM922 1702l63 321h322l-64 -321h-321zM27 0l303 1567h1022l-60 -303h-614l-66 -338h594l-57 -295h-592l-65 -332h641l-58 -299h-1048z" />
    <glyph glyph-name="Igrave" unicode="&#xcc;" horiz-adv-x="655" 
d="M631 1966l78 -272h-283l-162 272h367zM27 0l303 1567h407l-303 -1567h-407z" />
    <glyph glyph-name="Iacute" unicode="&#xcd;" horiz-adv-x="655" 
d="M393 1694l166 272h375l-250 -272h-291zM27 0l303 1567h407l-303 -1567h-407z" />
    <glyph glyph-name="Icircumflex" unicode="&#xce;" horiz-adv-x="655" 
d="M770 1966l166 -272h-256l-105 92h-2l-133 -92h-260l273 272h317zM27 0l303 1567h407l-303 -1567h-407z" />
    <glyph glyph-name="Idieresis" unicode="&#xcf;" horiz-adv-x="655" 
d="M182 1702l64 321h321l-63 -321h-322zM614 1702l64 321h321l-63 -321h-322zM27 0l303 1567h407l-303 -1567h-407z" />
    <glyph glyph-name="Eth" unicode="&#xd0;" horiz-adv-x="1554" 
d="M643 301q219 0 343 170t124 494q0 305 -301 305h-129l-70 -355h277l-51 -264h-277l-67 -350h151zM635 0h-608l127 651h-142l51 264h140l127 652h522q318 0 504 -168t186 -473q0 -406 -240 -666t-667 -260z" />
    <glyph glyph-name="Ntilde" unicode="&#xd1;" horiz-adv-x="1550" 
d="M924 2009q63 0 139 -46t120 -46q45 0 69 18t40 74h168q-10 -145 -91 -241t-200 -97q-86 0 -171 46t-117 46q-68 0 -111 -92h-164q10 129 97 233t221 105zM27 0l303 1567h418l251 -699q41 -111 70 -241l4 -33h6l189 973h362l-303 -1567h-377l-276 721q-53 128 -76 250
l-8 35h-6l-195 -1006h-362z" />
    <glyph glyph-name="Ograve" unicode="&#xd2;" horiz-adv-x="1648" 
d="M1112 1966l78 -272h-283l-162 272h367zM1190 980q0 318 -236 318q-104 0 -185 -72q-136 -121 -191 -426q-23 -122 -23 -241q0 -297 246 -297q125 0 217 122t132 284t40 312zM1240 102q-194 -136 -459 -135q-265 0 -451 133q-96 70 -152 199q-55 129 -55 309
q-2 264 95 484t292 359q195 138 458 138t453 -150q93 -75 147 -205t54 -298q-2 -266 -95 -482t-287 -352z" />
    <glyph glyph-name="Oacute" unicode="&#xd3;" horiz-adv-x="1648" 
d="M872 1694l166 272h375l-250 -272h-291zM1190 980q0 318 -236 318q-104 0 -185 -72q-136 -121 -191 -426q-23 -122 -23 -241q0 -297 246 -297q125 0 217 122t132 284t40 312zM1240 102q-194 -136 -459 -135q-265 0 -451 133q-96 70 -152 199q-55 129 -55 309
q-2 264 95 484t292 359q195 138 458 138t453 -150q93 -75 147 -205t54 -298q-2 -266 -95 -482t-287 -352z" />
    <glyph glyph-name="Ocircumflex" unicode="&#xd4;" horiz-adv-x="1648" 
d="M1249 1966l166 -272h-256l-104 92h-2l-133 -92h-261l273 272h317zM1190 980q0 318 -236 318q-104 0 -185 -72q-136 -121 -191 -426q-23 -122 -23 -241q0 -297 246 -297q125 0 217 122t132 284t40 312zM1240 102q-194 -136 -459 -135q-265 0 -451 133q-96 70 -152 199
q-55 129 -55 309q-2 264 95 484t292 359q195 138 458 138t453 -150q93 -75 147 -205t54 -298q-2 -266 -95 -482t-287 -352z" />
    <glyph glyph-name="Otilde" unicode="&#xd5;" horiz-adv-x="1648" 
d="M958 2009q64 0 140 -46t120 -46t68 18t41 74h168q-10 -145 -91 -241t-200 -97q-86 0 -171 46t-118 46q-68 0 -110 -92h-164q10 129 97 233t220 105zM1190 980q0 318 -236 318q-104 0 -185 -72q-136 -121 -191 -426q-23 -122 -23 -241q0 -297 246 -297q125 0 217 122
t132 284t40 312zM1240 102q-194 -136 -459 -135q-265 0 -451 133q-96 70 -152 199q-55 129 -55 309q-2 264 95 484t292 359q195 138 458 138t453 -150q93 -75 147 -205t54 -298q-2 -266 -95 -482t-287 -352z" />
    <glyph glyph-name="Odieresis" unicode="&#xd6;" horiz-adv-x="1648" 
d="M664 1702l63 321h322l-64 -321h-321zM1096 1702l63 321h322l-64 -321h-321zM1190 980q0 318 -236 318q-104 0 -185 -72q-136 -121 -191 -426q-23 -122 -23 -241q0 -297 246 -297q125 0 217 122t132 284t40 312zM1240 102q-194 -136 -459 -135q-265 0 -451 133
q-96 70 -152 199q-55 129 -55 309q-2 264 95 484t292 359q195 138 458 138t453 -150q93 -75 147 -205t54 -298q-2 -266 -95 -482t-287 -352z" />
    <glyph glyph-name="multiply" unicode="&#xd7;" horiz-adv-x="1300" 
d="M285 168l-189 240l375 319l-276 346l254 213l270 -344l364 320l191 -244l-369 -313l271 -345l-256 -215l-265 347z" />
    <glyph glyph-name="Oslash" unicode="&#xd8;" horiz-adv-x="1648" 
d="M768 -33q-278 0 -446 139l-156 -157h-238l285 284q-90 147 -91 393t96 466t292 359q195 138 463 138t442 -145l178 180h240l-307 -307q96 -155 95 -401t-94 -462t-287 -352t-472 -135zM801 258q100 0 182 76t129 192q98 241 96 469l-628 -630q65 -107 221 -107zM952 1303
q-108 0 -194 -79t-132 -199q-93 -243 -91 -466l628 633q-59 111 -211 111z" />
    <glyph glyph-name="Ugrave" unicode="&#xd9;" horiz-adv-x="1523" 
d="M1067 1966l78 -272h-283l-162 272h367zM735 -33q-350 0 -506 174q-155 174 -98 467l186 959h408l-193 -979q-30 -150 28 -224t188 -74t187 68q58 68 85 203l194 1006h402l-199 -1022q-115 -578 -682 -578z" />
    <glyph glyph-name="Uacute" unicode="&#xda;" horiz-adv-x="1523" 
d="M829 1694l166 272h375l-250 -272h-291zM735 -33q-350 0 -506 174q-155 174 -98 467l186 959h408l-193 -979q-30 -150 28 -224t188 -74t187 68q58 68 85 203l194 1006h402l-199 -1022q-115 -578 -682 -578z" />
    <glyph glyph-name="Ucircumflex" unicode="&#xdb;" horiz-adv-x="1523" 
d="M1204 1966l166 -272h-256l-104 92h-2l-134 -92h-260l273 272h317zM735 -33q-350 0 -506 174q-155 174 -98 467l186 959h408l-193 -979q-30 -150 28 -224t188 -74t187 68q58 68 85 203l194 1006h402l-199 -1022q-115 -578 -682 -578z" />
    <glyph glyph-name="Udieresis" unicode="&#xdc;" horiz-adv-x="1523" 
d="M618 1702l64 321h322l-64 -321h-322zM1051 1702l63 321h322l-64 -321h-321zM735 -33q-350 0 -506 174q-155 174 -98 467l186 959h408l-193 -979q-30 -150 28 -224t188 -74t187 68q58 68 85 203l194 1006h402l-199 -1022q-115 -578 -682 -578z" />
    <glyph glyph-name="Yacute" unicode="&#xdd;" horiz-adv-x="1445" 
d="M797 1694l166 272h374l-250 -272h-290zM424 0l131 680l-328 887h422l178 -559h4l373 559h424l-674 -936l-123 -631h-407z" />
    <glyph glyph-name="Thorn" unicode="&#xde;" horiz-adv-x="1370" 
d="M758 317h-262l-62 -317h-407l303 1567h407l-55 -289h139q260 0 410 -114q151 -114 141 -364t-175 -367q-165 -116 -439 -116zM549 598h188q109 4 172 56t67 152t-60 150q-62 49 -175 50h-112z" />
    <glyph glyph-name="germandbls" unicode="&#xdf;" horiz-adv-x="1347" 
d="M834 1626q209 0 345 -97t134 -298q-2 -139 -78 -243t-215 -140v-8q120 -27 186 -116q66 -90 66 -244t-90 -270t-228 -163t-315 -47h-119l53 279h58q109 0 175 63q66 62 66 168t-47 156t-127 49h-18l55 276h27q199 0 199 230q0 65 -36 111t-105 46t-120 -50t-69 -148
l-228 -1180h-393l221 1174q39 204 189 328t414 124z" />
    <glyph glyph-name="agrave" unicode="&#xe0;" horiz-adv-x="1220" 
d="M844 1614l37 -369h-291l-117 369h371zM958 0q-96 0 -156 24t-89 97h-6q-80 -76 -149 -104q-68 -27 -198 -27t-228 80q-97 80 -97 231q0 252 246 332q102 31 188 36q154 9 287 9l10 59q29 150 -111 150q-125 0 -141 -121h-373q17 178 155 272t398 94t366 -130t64 -353
l-57 -295q-10 -51 8 -68t70 -20l-53 -266h-134zM532 225q143 0 181 230l6 30q-129 -4 -182 -16q-119 -31 -119 -129q0 -55 32 -85t82 -30z" />
    <glyph glyph-name="aacute" unicode="&#xe1;" horiz-adv-x="1220" 
d="M555 1245l170 369h381l-250 -369h-301zM958 0q-96 0 -156 24t-89 97h-6q-80 -76 -149 -104q-68 -27 -198 -27t-228 80q-97 80 -97 231q0 252 246 332q102 31 188 36q154 9 287 9l10 59q29 150 -111 150q-125 0 -141 -121h-373q17 178 155 272t398 94t366 -130t64 -353
l-57 -295q-10 -51 8 -68t70 -20l-53 -266h-134zM532 225q143 0 181 230l6 30q-129 -4 -182 -16q-119 -31 -119 -129q0 -55 32 -85t82 -30z" />
    <glyph glyph-name="acircumflex" unicode="&#xe2;" horiz-adv-x="1220" 
d="M938 1614l154 -369h-238l-104 131l-144 -131h-250l297 369h285zM958 0q-96 0 -156 24t-89 97h-6q-80 -76 -149 -104q-68 -27 -198 -27t-228 80q-97 80 -97 231q0 252 246 332q102 31 188 36q154 9 287 9l10 59q29 150 -111 150q-125 0 -141 -121h-373q17 178 155 272
t398 94t366 -130t64 -353l-57 -295q-10 -51 8 -68t70 -20l-53 -266h-134zM532 225q143 0 181 230l6 30q-129 -4 -182 -16q-119 -31 -119 -129q0 -55 32 -85t82 -30z" />
    <glyph glyph-name="atilde" unicode="&#xe3;" horiz-adv-x="1220" 
d="M653 1614q66 0 138 -46t108 -46q74 0 123 92h168q-14 -152 -100 -260t-222 -109q-66 0 -144 46t-114 46q-74 0 -116 -92h-164q10 149 98 259t225 110zM958 0q-96 0 -156 24t-89 97h-6q-80 -76 -149 -104q-68 -27 -198 -27t-228 80q-97 80 -97 231q0 252 246 332
q102 31 188 36q154 9 287 9l10 59q29 150 -111 150q-125 0 -141 -121h-373q17 178 155 272t398 94t366 -130t64 -353l-57 -295q-10 -51 8 -68t70 -20l-53 -266h-134zM532 225q143 0 181 230l6 30q-129 -4 -182 -16q-119 -31 -119 -129q0 -55 32 -85t82 -30z" />
    <glyph glyph-name="adieresis" unicode="&#xe4;" horiz-adv-x="1220" 
d="M356 1292l64 322h321l-63 -322h-322zM788 1292l64 322h322l-64 -322h-322zM958 0q-96 0 -156 24t-89 97h-6q-80 -76 -149 -104q-68 -27 -198 -27t-228 80q-97 80 -97 231q0 252 246 332q102 31 188 36q154 9 287 9l10 59q29 150 -111 150q-125 0 -141 -121h-373
q17 178 155 272t398 94t366 -130t64 -353l-57 -295q-10 -51 8 -68t70 -20l-53 -266h-134zM532 225q143 0 181 230l6 30q-129 -4 -182 -16q-119 -31 -119 -129q0 -55 32 -85t82 -30z" />
    <glyph glyph-name="aring" unicode="&#xe5;" horiz-adv-x="1220" 
d="M780 1599q-57 1 -90 -39t-33 -96q0 -114 101 -112q51 0 85 40t34 103q-1 104 -97 104zM763 1208q-126 0 -208 60t-82 186q0 125 87 209t220 84t208 -67q75 -66 75 -186t-87 -203t-213 -83zM958 0q-96 0 -156 24t-89 97h-6q-80 -76 -149 -104q-68 -27 -198 -27t-228 80
q-97 80 -97 231q0 252 246 332q102 31 188 36q154 9 287 9l10 59q29 150 -111 150q-125 0 -141 -121h-373q17 178 155 272t398 94t366 -130t64 -353l-57 -295q-10 -51 8 -68t70 -20l-53 -266h-134zM532 225q143 0 181 230l6 30q-129 -4 -182 -16q-119 -31 -119 -129
q0 -55 32 -85t82 -30z" />
    <glyph glyph-name="ae" unicode="&#xe6;" horiz-adv-x="1898" 
d="M1262 -14q-170 0 -270 46t-161 140h-4q-76 -86 -172 -134t-260 -48t-262 79t-98 232q0 252 246 332q102 31 188 36q154 9 287 9l10 59q29 150 -111 150q-125 0 -141 -121h-373q19 178 157 272t378 94t332 -143h2q131 145 358 146q286 0 402 -166t65 -430l-14 -74h-713
v-31q0 -200 144 -202q70 0 112 28q43 29 51 80h383q-63 -354 -536 -354zM532 225q143 0 181 230l6 30q-129 -4 -182 -16q-119 -31 -119 -129q0 -55 32 -85t82 -30zM1352 897q-74 0 -129 -59t-84 -166h331l3 16q29 209 -121 209z" />
    <glyph glyph-name="ccedilla" unicode="&#xe7;" horiz-adv-x="1282" 
d="M760 -242q0 -106 -75 -170t-195 -63q-120 0 -189 43q-70 43 -59 131h180q4 -41 50 -41q85 0 85 68q0 53 -57 53q-39 0 -62 -29h-131l111 240q-352 86 -352 461q0 307 173 495t480 189q250 0 393 -122t133 -335h-399q14 197 -135 199q-113 3 -176 -137t-64 -310
q0 -197 158 -197q80 -1 132 53t68 150h381q-20 -229 -189 -348t-411 -119q-29 0 -82 4l-47 -110h4q57 41 122 41t109 -41t44 -105z" />
    <glyph glyph-name="egrave" unicode="&#xe8;" horiz-adv-x="1261" 
d="M893 1614l37 -369h-291l-117 369h371zM597 -31q-239 0 -386 124t-148 358q-1 291 179 487t474 197q294 0 412 -167t70 -429l-14 -74h-721v-31q0 -203 153 -203q59 0 103 29q43 29 51 80h391q-33 -186 -179 -278t-385 -93zM705 897q-156 0 -216 -225h336l2 16
q29 209 -122 209z" />
    <glyph glyph-name="eacute" unicode="&#xe9;" horiz-adv-x="1261" 
d="M604 1245l170 369h381l-250 -369h-301zM597 -31q-239 0 -386 124t-148 358q-1 291 179 487t474 197q294 0 412 -167t70 -429l-14 -74h-721v-31q0 -203 153 -203q59 0 103 29q43 29 51 80h391q-33 -186 -179 -278t-385 -93zM705 897q-156 0 -216 -225h336l2 16
q29 209 -122 209z" />
    <glyph glyph-name="ecircumflex" unicode="&#xea;" horiz-adv-x="1261" 
d="M989 1614l154 -369h-238l-104 131l-144 -131h-249l297 369h284zM597 -31q-239 0 -386 124t-148 358q-1 291 179 487t474 197q294 0 412 -167t70 -429l-14 -74h-721v-31q0 -203 153 -203q59 0 103 29q43 29 51 80h391q-33 -186 -179 -278t-385 -93zM705 897
q-156 0 -216 -225h336l2 16q29 209 -122 209z" />
    <glyph glyph-name="edieresis" unicode="&#xeb;" horiz-adv-x="1261" 
d="M408 1292l63 322h322l-64 -322h-321zM840 1292l63 322h322l-64 -322h-321zM597 -31q-239 0 -386 124t-148 358q-1 291 179 487t474 197q294 0 412 -167t70 -429l-14 -74h-721v-31q0 -203 153 -203q59 0 103 29q43 29 51 80h391q-33 -186 -179 -278t-385 -93zM705 897
q-156 0 -216 -225h336l2 16q29 209 -122 209z" />
    <glyph glyph-name="igrave" unicode="&#xec;" horiz-adv-x="610" 
d="M567 1614l37 -369h-291l-116 369h370zM10 0l215 1108h393l-215 -1108h-393z" />
    <glyph glyph-name="iacute" unicode="&#xed;" horiz-adv-x="610" 
d="M279 1245l170 369h380l-249 -369h-301zM10 0l215 1108h393l-215 -1108h-393z" />
    <glyph glyph-name="icircumflex" unicode="&#xee;" horiz-adv-x="610" 
d="M10 0l215 1108h393l-215 -1108h-393zM664 1614l131 -369h-238l-82 131l-123 -131h-250l277 369h285z" />
    <glyph glyph-name="idieresis" unicode="&#xef;" horiz-adv-x="610" 
d="M10 0l215 1108h393l-215 -1108h-393zM147 1292l62 322h266l-61 -322h-267zM502 1292l61 322h268l-61 -322h-268z" />
    <glyph glyph-name="eth" unicode="&#xf0;" horiz-adv-x="1298" 
d="M852 689q0 75 -33 134t-111 59t-138 -79q-104 -142 -102 -357q1 -215 148 -215q66 1 115 47t74 119q47 139 47 292zM598 -29q-233 0 -383 120t-149 366q0 169 66 319t198 248q133 98 295 98t237 -96h4q-45 131 -170 244l-311 -117l-41 137l219 82q-90 63 -219 119
l307 141q135 -49 252 -131l219 82l43 -137l-137 -51q240 -244 240 -584q0 -436 -180 -638t-490 -202z" />
    <glyph glyph-name="ntilde" unicode="&#xf1;" horiz-adv-x="1335" 
d="M735 1614q65 0 137 -46t109 -46q74 0 123 92h168q-14 -152 -100 -260t-222 -109q-66 0 -144 46t-114 46q-74 0 -117 -92h-163q10 149 98 259t225 110zM868 740q0 110 -120 110q-90 0 -150 -74t-86 -209l-106 -567h-396l215 1108h379l-39 -199h4q133 219 389 219
q182 0 263 -116q80 -117 36 -340l-129 -672h-393l119 614q14 76 14 126z" />
    <glyph glyph-name="ograve" unicode="&#xf2;" horiz-adv-x="1298" 
d="M885 1614l37 -369h-291l-117 369h371zM852 688q0 74 -34 130t-103 56t-119 -44t-75 -114q-52 -139 -52 -282q0 -203 147 -203q66 1 115 47t74 119q47 139 47 291zM600 -31q-233 0 -384 120t-150 362q0 291 176 487t475 197q233 0 386 -126t152 -356q0 -313 -180 -499
t-475 -185z" />
    <glyph glyph-name="oacute" unicode="&#xf3;" horiz-adv-x="1298" 
d="M596 1245l170 369h381l-250 -369h-301zM852 688q0 74 -34 130t-103 56t-119 -44t-75 -114q-52 -139 -52 -282q0 -203 147 -203q66 1 115 47t74 119q47 139 47 291zM600 -31q-233 0 -384 120t-150 362q0 291 176 487t475 197q233 0 386 -126t152 -356q0 -313 -180 -499
t-475 -185z" />
    <glyph glyph-name="ocircumflex" unicode="&#xf4;" horiz-adv-x="1298" 
d="M979 1614l154 -369h-238l-104 131l-144 -131h-250l297 369h285zM852 688q0 74 -34 130t-103 56t-119 -44t-75 -114q-52 -139 -52 -282q0 -203 147 -203q66 1 115 47t74 119q47 139 47 291zM600 -31q-233 0 -384 120t-150 362q0 291 176 487t475 197q233 0 386 -126
t152 -356q0 -313 -180 -499t-475 -185z" />
    <glyph glyph-name="otilde" unicode="&#xf5;" horiz-adv-x="1298" 
d="M694 1614q66 0 138 -46t108 -46q74 0 123 92h168q-15 -152 -101 -260t-221 -109q-65 0 -143 46t-115 46q-74 0 -116 -92h-164q10 149 98 259t225 110zM852 688q0 74 -34 130t-103 56t-119 -44t-75 -114q-52 -139 -52 -282q0 -203 147 -203q66 1 115 47t74 119
q47 139 47 291zM600 -31q-233 0 -384 120t-150 362q0 291 176 487t475 197q233 0 386 -126t152 -356q0 -313 -180 -499t-475 -185z" />
    <glyph glyph-name="odieresis" unicode="&#xf6;" horiz-adv-x="1298" 
d="M397 1292l64 322h321l-63 -322h-322zM829 1292l64 322h321l-63 -322h-322zM852 688q0 74 -34 130t-103 56t-119 -44t-75 -114q-52 -139 -52 -282q0 -203 147 -203q66 1 115 47t74 119q47 139 47 291zM600 -31q-233 0 -384 120t-150 362q0 291 176 487t475 197
q233 0 386 -126t152 -356q0 -313 -180 -499t-475 -185z" />
    <glyph glyph-name="divide" unicode="&#xf7;" horiz-adv-x="1269" 
d="M741 115h-368l67 346h369zM160 594l53 278h983l-53 -278h-983zM545 999l67 347h369l-68 -347h-368z" />
    <glyph glyph-name="oslash" unicode="&#xf8;" horiz-adv-x="1298" 
d="M1255 653q0 -313 -180 -498t-475 -186q-195 0 -332 82l-143 -141h-211l242 242q-90 117 -90 299q0 291 176 487t475 197q199 0 338 -91l151 152h211l-254 -252q92 -117 92 -291zM609 221q71 0 120 42q123 106 139 386l-374 -373q44 -55 115 -55zM453 446l378 377
q-43 63 -123 63t-142 -76q-108 -135 -113 -364z" />
    <glyph glyph-name="ugrave" unicode="&#xf9;" horiz-adv-x="1310" 
d="M913 1614l37 -369h-291l-116 369h370zM475 395q0 -135 123 -135q76 0 133 69t82 197l113 582h393l-215 -1108h-379l37 190h-4q-135 -209 -365 -208q-193 0 -275 114t-38 330l133 682h393l-121 -621q-10 -61 -10 -92z" />
    <glyph glyph-name="uacute" unicode="&#xfa;" horiz-adv-x="1310" 
d="M625 1245l170 369h381l-250 -369h-301zM475 395q0 -135 123 -135q76 0 133 69t82 197l113 582h393l-215 -1108h-379l37 190h-4q-135 -209 -365 -208q-193 0 -275 114t-38 330l133 682h393l-121 -621q-10 -61 -10 -92z" />
    <glyph glyph-name="ucircumflex" unicode="&#xfb;" horiz-adv-x="1310" 
d="M1008 1614l153 -369h-237l-105 131l-143 -131h-250l297 369h285zM475 395q0 -135 123 -135q76 0 133 69t82 197l113 582h393l-215 -1108h-379l37 190h-4q-135 -209 -365 -208q-193 0 -275 114t-38 330l133 682h393l-121 -621q-10 -61 -10 -92z" />
    <glyph glyph-name="udieresis" unicode="&#xfc;" horiz-adv-x="1310" 
d="M426 1292l63 322h322l-63 -322h-322zM858 1292l64 322h321l-63 -322h-322zM475 395q0 -135 123 -135q76 0 133 69t82 197l113 582h393l-215 -1108h-379l37 190h-4q-135 -209 -365 -208q-193 0 -275 114t-38 330l133 682h393l-121 -621q-10 -61 -10 -92z" />
    <glyph glyph-name="yacute" unicode="&#xfd;" horiz-adv-x="1202" 
d="M586 1245l170 369h381l-250 -369h-301zM137 -408q-141 0 -190 23l53 276q41 -10 122 -10t130 23t74 88l-197 1116h395l54 -522q12 -119 6 -226l-2 -36h4q37 121 86 227l246 557h389l-609 -1161q-98 -187 -222 -271t-339 -84z" />
    <glyph glyph-name="thorn" unicode="&#xfe;" horiz-adv-x="1335" 
d="M1292 682q0 -266 -130 -476q-64 -104 -176 -168t-234 -64t-204 44q-81 45 -112 117h-6l-100 -520h-393l387 1999h393l-131 -678h6q121 193 338 192q170 0 266 -118t96 -328zM652 229q104 0 170 130t67 303q0 203 -148 202q-76 0 -137 -59t-82 -168l-26 -141
q-23 -121 15 -194q37 -73 141 -73z" />
    <glyph glyph-name="ydieresis" unicode="&#xff;" horiz-adv-x="1202" 
d="M387 1292l64 322h321l-63 -322h-322zM819 1292l64 322h321l-63 -322h-322zM137 -408q-141 0 -190 23l53 276q41 -10 122 -10t130 23t74 88l-197 1116h395l54 -522q12 -119 6 -226l-2 -36h4q37 121 86 227l246 557h389l-609 -1161q-98 -187 -222 -271t-339 -84z" />
    <glyph glyph-name="Amacron" unicode="&#x100;" horiz-adv-x="1554" 
d="M594 1702l47 246h741l-47 -246h-741zM1020 0l-41 291h-535l-141 -291h-395l809 1567h448l260 -1567h-405zM874 1231h-4q-16 -66 -102 -250l-184 -401h354l-47 389q-13 120 -17 233v29z" />
    <glyph glyph-name="amacron" unicode="&#x101;" horiz-adv-x="1220" 
d="M362 1292l48 246h741l-47 -246h-742zM958 0q-96 0 -156 24t-89 97h-6q-80 -76 -149 -104q-68 -27 -198 -27t-228 80q-97 80 -97 231q0 252 246 332q102 31 188 36q154 9 287 9l10 59q29 150 -111 150q-125 0 -141 -121h-373q17 178 155 272t398 94t366 -130t64 -353
l-57 -295q-10 -51 8 -68t70 -20l-53 -266h-134zM532 225q143 0 181 230l6 30q-129 -4 -182 -16q-119 -31 -119 -129q0 -55 32 -85t82 -30z" />
    <glyph glyph-name="Abreve" unicode="&#x102;" horiz-adv-x="1554" 
d="M989 1874q51 0 87 33t50 86h240q-28 -178 -138 -259t-264 -81t-242 91q-89 91 -60 249h225q-5 -53 23 -86t79 -33zM1020 0l-41 291h-535l-141 -291h-395l809 1567h448l260 -1567h-405zM874 1231h-4q-16 -66 -102 -250l-184 -401h354l-47 389q-13 120 -17 233v29z" />
    <glyph glyph-name="abreve" unicode="&#x103;" horiz-adv-x="1220" 
d="M728 1235q-156 0 -243 101q-86 101 -49 278h238q-12 -61 12 -94t72 -33q109 0 133 127h250q-21 -193 -139 -286t-274 -93zM958 0q-96 0 -156 24t-89 97h-6q-80 -76 -149 -104q-68 -27 -198 -27t-228 80q-97 80 -97 231q0 252 246 332q102 31 188 36q154 9 287 9l10 59
q29 150 -111 150q-125 0 -141 -121h-373q17 178 155 272t398 94t366 -130t64 -353l-57 -295q-10 -51 8 -68t70 -20l-53 -266h-134zM532 225q143 0 181 230l6 30q-129 -4 -182 -16q-119 -31 -119 -129q0 -55 32 -85t82 -30z" />
    <glyph glyph-name="Aogonek" unicode="&#x104;" horiz-adv-x="1554" 
d="M874 1231h-4q-16 -66 -102 -250l-184 -401h354l-47 389q-13 120 -17 233v29zM1282 -385q-152 0 -215 37t-63 113t40 130q41 54 136 105h-160l-41 291h-535l-141 -291h-395l809 1567h448l256 -1553q-115 -66 -114 -133q0 -53 79 -53l-40 -213h-64z" />
    <glyph glyph-name="aogonek" unicode="&#x105;" horiz-adv-x="1220" 
d="M532 225q82 1 120 59t61 169l6 32q-129 -4 -182 -16q-119 -31 -119 -129q0 -55 32 -85t82 -30zM35 301q0 252 246 332q102 31 188 36q154 9 287 9l10 59q25 150 -111 150q-125 0 -141 -121h-373q19 178 157 272t397 94t367 -130q108 -132 60 -367l-55 -281q-10 -51 8 -68
t70 -20l-53 -258q-115 -66 -115 -133q0 -47 80 -47l-41 -213h-72q-154 0 -212 37t-58 121q0 153 217 221v6q-72 12 -113 36t-65 85h-6q-80 -76 -149 -104q-68 -27 -198 -27t-228 80q-97 80 -97 231z" />
    <glyph glyph-name="Cacute" unicode="&#x106;" horiz-adv-x="1560" 
d="M856 1694l166 272h375l-250 -272h-291zM559 559q0 -129 55 -212t179 -83q229 0 288 291h414q-37 -276 -227 -432t-494 -156t-479 155q-174 155 -174 486q0 402 213 683q102 136 264 217t330 81q168 1 278 -31q374 -106 363 -557h-428q25 295 -199 289q-98 -2 -175 -70
q-137 -120 -186 -408q-22 -124 -22 -253z" />
    <glyph glyph-name="cacute" unicode="&#x107;" horiz-adv-x="1282" 
d="M608 1245l170 369h381l-250 -369h-301zM629 233q80 -1 132 53t68 150h381q-20 -229 -189 -348t-402 -119t-388 105q-78 53 -121 149q-44 96 -44 228q0 307 173 495t480 189q250 0 393 -122t133 -335h-399q14 197 -135 199q-113 3 -176 -137t-64 -310q0 -197 158 -197z
" />
    <glyph glyph-name="Ccircumflex" unicode="&#x108;" horiz-adv-x="1560" 
d="M1212 1966l166 -272h-256l-104 92h-2l-133 -92h-260l272 272h317zM559 559q0 -129 55 -212t179 -83q229 0 288 291h414q-37 -276 -227 -432t-494 -156t-479 155q-174 155 -174 486q0 402 213 683q102 136 264 217t330 81q168 1 278 -31q374 -106 363 -557h-428
q25 295 -199 289q-98 -2 -175 -70q-137 -120 -186 -408q-22 -124 -22 -253z" />
    <glyph glyph-name="ccircumflex" unicode="&#x109;" horiz-adv-x="1282" 
d="M993 1614l154 -369h-238l-104 131l-143 -131h-250l297 369h284zM629 233q80 -1 132 53t68 150h381q-20 -229 -189 -348t-402 -119t-388 105q-78 53 -121 149q-44 96 -44 228q0 307 173 495t480 189q250 0 393 -122t133 -335h-399q14 197 -135 199q-113 3 -176 -137
t-64 -310q0 -197 158 -197z" />
    <glyph glyph-name="Cdotaccent" unicode="&#x10a;" horiz-adv-x="1560" 
d="M862 1702l64 321h321l-63 -321h-322zM559 559q0 -129 55 -212t179 -83q229 0 288 291h414q-37 -276 -227 -432t-494 -156t-479 155q-174 155 -174 486q0 402 213 683q102 136 264 217t330 81q168 1 278 -31q374 -106 363 -557h-428q25 295 -199 289q-98 -2 -175 -70
q-137 -120 -186 -408q-22 -124 -22 -253z" />
    <glyph glyph-name="cdotaccent" unicode="&#x10b;" horiz-adv-x="1282" 
d="M627 1292l63 322h322l-64 -322h-321zM629 233q80 -1 132 53t68 150h381q-20 -229 -189 -348t-402 -119t-388 105q-78 53 -121 149q-44 96 -44 228q0 307 173 495t480 189q250 0 393 -122t133 -335h-399q14 197 -135 199q-113 3 -176 -137t-64 -310q0 -197 158 -197z" />
    <glyph glyph-name="Ccaron" unicode="&#x10c;" horiz-adv-x="1560" 
d="M817 1694l-166 272h252l105 -92h2l135 92h262l-272 -272h-318zM559 559q0 -129 55 -212t179 -83q229 0 288 291h414q-37 -276 -227 -432t-494 -156t-479 155q-174 155 -174 486q0 402 213 683q102 136 264 217t330 81q168 1 278 -31q374 -106 363 -557h-428
q25 295 -199 289q-98 -2 -175 -70q-137 -120 -186 -408q-22 -124 -22 -253z" />
    <glyph glyph-name="ccaron" unicode="&#x10d;" horiz-adv-x="1282" 
d="M631 1245l-154 369h238l98 -131l152 131h247l-297 -369h-284zM629 233q80 -1 132 53t68 150h381q-20 -229 -189 -348t-402 -119t-388 105q-78 53 -121 149q-44 96 -44 228q0 307 173 495t480 189q250 0 393 -122t133 -335h-399q14 197 -135 199q-113 3 -176 -137
t-64 -310q0 -197 158 -197z" />
    <glyph glyph-name="Dcaron" unicode="&#x10e;" horiz-adv-x="1554" 
d="M735 1694l-166 272h252l105 -92h2l135 92h262l-272 -272h-318zM643 301q219 0 343 170t124 494q0 305 -301 305h-129l-188 -969h151zM852 1567q318 0 504 -168t186 -473q0 -406 -240 -666t-667 -260h-608l303 1567h522z" />
    <glyph glyph-name="dcaron" unicode="&#x10f;" horiz-adv-x="1349" 
d="M1505 1204l80 410h295l-201 -410h-174zM70 412q0 401 252 608q131 109 305 108q211 0 305 -165h4l127 651h393l-313 -1614h-379l31 158h-4q-129 -186 -323 -186t-297 126q-101 126 -101 314zM712 866q-104 0 -170 -128t-67 -306q0 -203 143 -203q78 -1 140 59t84 171
l26 141q27 126 -13 196q-39 70 -143 70z" />
    <glyph glyph-name="Dcroat" unicode="&#x110;" horiz-adv-x="1554" 
d="M643 301q219 0 343 170t124 494q0 305 -301 305h-129l-70 -355h277l-51 -264h-277l-67 -350h151zM635 0h-608l127 651h-142l51 264h140l127 652h522q318 0 504 -168t186 -473q0 -406 -240 -666t-667 -260z" />
    <glyph glyph-name="dcroat" unicode="&#x111;" horiz-adv-x="1349" 
d="M70 412q0 401 252 608q131 109 305 108q211 0 305 -165h4l51 262h-295l43 223h295l33 166h393l-33 -166h158l-43 -223h-158l-237 -1225h-379l31 158h-4q-129 -186 -323 -186t-297 126q-101 126 -101 314zM712 866q-104 0 -170 -128t-67 -306q0 -203 143 -203
q78 -1 140 59t84 171l26 141q27 126 -13 196q-39 70 -143 70z" />
    <glyph glyph-name="Emacron" unicode="&#x112;" horiz-adv-x="1275" 
d="M498 1702l47 246h741l-47 -246h-741zM27 0l303 1567h1022l-60 -303h-614l-66 -338h594l-57 -295h-592l-65 -332h641l-58 -299h-1048z" />
    <glyph glyph-name="emacron" unicode="&#x113;" horiz-adv-x="1261" 
d="M414 1292l47 246h741l-47 -246h-741zM597 -31q-239 0 -386 124t-148 358q-1 291 179 487t474 197q294 0 412 -167t70 -429l-14 -74h-721v-31q0 -203 153 -203q59 0 103 29q43 29 51 80h391q-33 -186 -179 -278t-385 -93zM705 897q-156 0 -216 -225h336l2 16
q29 209 -122 209z" />
    <glyph glyph-name="Ebreve" unicode="&#x114;" horiz-adv-x="1275" 
d="M893 1874q51 0 87 33t50 86h240q-28 -178 -138 -259t-264 -81t-242 91q-90 91 -61 249h226q-5 -53 23 -86t79 -33zM27 0l303 1567h1022l-60 -303h-614l-66 -338h594l-57 -295h-592l-65 -332h641l-58 -299h-1048z" />
    <glyph glyph-name="ebreve" unicode="&#x115;" horiz-adv-x="1261" 
d="M778 1235q-156 0 -242 101t-49 278h238q-13 -61 11 -94t73 -33q109 0 133 127h250q-20 -193 -138 -286q-120 -93 -276 -93zM597 -31q-239 0 -386 124t-148 358q-1 291 179 487t474 197q294 0 412 -167t70 -429l-14 -74h-721v-31q0 -203 153 -203q59 0 103 29q43 29 51 80
h391q-33 -186 -179 -278t-385 -93zM705 897q-156 0 -216 -225h336l2 16q29 209 -122 209z" />
    <glyph glyph-name="Edotaccent" unicode="&#x116;" horiz-adv-x="1275" 
d="M705 1702l63 321h322l-64 -321h-321zM27 0l303 1567h1022l-60 -303h-614l-66 -338h594l-57 -295h-592l-65 -332h641l-58 -299h-1048z" />
    <glyph glyph-name="edotaccent" unicode="&#x117;" horiz-adv-x="1261" 
d="M623 1292l63 322h322l-64 -322h-321zM597 -31q-239 0 -386 124t-148 358q-1 291 179 487t474 197q294 0 412 -167t70 -429l-14 -74h-721v-31q0 -203 153 -203q59 0 103 29q43 29 51 80h391q-33 -186 -179 -278t-385 -93zM705 897q-156 0 -216 -225h336l2 16
q29 209 -122 209z" />
    <glyph glyph-name="Eogonek" unicode="&#x118;" horiz-adv-x="1275" 
d="M930 -385q-152 0 -208 36t-56 112t51 138t151 99h-841l303 1567h1022l-60 -303h-614l-66 -338h594l-57 -295h-592l-65 -332h641l-58 -299q-113 -66 -112 -131q-1 -45 77 -45l-39 -209h-71z" />
    <glyph glyph-name="eogonek" unicode="&#x119;" horiz-adv-x="1261" 
d="M731 -385q-154 0 -212 37t-58 121q0 127 168 194v4q-12 -2 -25 -2q-246 0 -393 124t-148 358q-1 291 179 487t474 197q294 0 412 -167t70 -429l-14 -74h-721v-31q0 -203 153 -203q59 0 103 29q43 29 51 80h391q-39 -215 -243 -313q-154 -74 -154 -148q0 -51 80 -51
l-41 -213h-72zM707 897q-74 0 -129 -59t-84 -166h331l2 16q29 209 -120 209z" />
    <glyph glyph-name="Ecaron" unicode="&#x11a;" horiz-adv-x="1275" 
d="M700 1694l-165 272h251l105 -92h2l135 92h262l-272 -272h-318zM27 0l303 1567h1022l-60 -303h-614l-66 -338h594l-57 -295h-592l-65 -332h641l-58 -299h-1048z" />
    <glyph glyph-name="ecaron" unicode="&#x11b;" horiz-adv-x="1261" 
d="M627 1245l-154 369h238l98 -131l152 131h247l-297 -369h-284zM597 -31q-239 0 -386 124t-148 358q-1 291 179 487t474 197q294 0 412 -167t70 -429l-14 -74h-721v-31q0 -203 153 -203q59 0 103 29q43 29 51 80h391q-33 -186 -179 -278t-385 -93zM705 897
q-156 0 -216 -225h336l2 16q29 209 -122 209z" />
    <glyph glyph-name="Gcircumflex" unicode="&#x11c;" horiz-adv-x="1605" 
d="M1239 1966l166 -272h-256l-105 92h-2l-133 -92h-260l273 272h317zM958 1298q-102 0 -181 -70q-139 -122 -194 -413q-24 -121 -28 -250t51 -218t183 -91t207 77t104 212l6 35h-289l53 280h695l-166 -860h-316l39 205h-6q-48 -102 -156 -170t-268 -68q-266 0 -418 161
t-151 470q0 199 57 378q56 179 162 316t269 218t360 79q269 0 440 -123q170 -123 166 -405h-424q8 117 -43 177q-50 60 -152 60z" />
    <glyph glyph-name="gcircumflex" unicode="&#x11d;" horiz-adv-x="1337" 
d="M1022 1614l154 -369h-238l-104 131l-144 -131h-250l297 369h285zM526 -160q104 0 158 56t78 157l31 152h-5q-117 -160 -308 -160q-190 1 -296 107t-106 315q0 266 154 464q155 198 399 197q123 0 202 -51t111 -135h4l33 166h381l-197 -1010q-51 -264 -212 -385t-441 -121
t-394 100q-116 100 -112 267h371q-2 -59 42 -89t107 -30zM850 498l20 110q23 115 -13 187t-128 71q-121 0 -185 -116t-63 -269q4 -193 164 -192q75 -1 131 57t74 152z" />
    <glyph glyph-name="Gbreve" unicode="&#x11e;" horiz-adv-x="1605" 
d="M1055 1874q51 0 87 33t50 86h240q-27 -178 -138 -259t-264 -81t-243 91q-89 91 -60 249h225q-4 -53 24 -86t79 -33zM958 1298q-102 0 -181 -70q-139 -122 -194 -413q-24 -121 -28 -250t51 -218t183 -91t207 77t104 212l6 35h-289l53 280h695l-166 -860h-316l39 205h-6
q-48 -102 -156 -170t-268 -68q-266 0 -418 161t-151 470q0 199 57 378q56 179 162 316t269 218t360 79q269 0 440 -123q170 -123 166 -405h-424q8 117 -43 177q-50 60 -152 60z" />
    <glyph glyph-name="gbreve" unicode="&#x11f;" horiz-adv-x="1337" 
d="M812 1235q-156 0 -243 101q-86 101 -49 278h238q-12 -61 12 -94t72 -33q109 0 133 127h250q-21 -193 -139 -286t-274 -93zM526 -160q104 0 158 56t78 157l31 152h-5q-117 -160 -308 -160q-190 1 -296 107t-106 315q0 266 154 464q155 198 399 197q123 0 202 -51t111 -135
h4l33 166h381l-197 -1010q-51 -264 -212 -385t-441 -121t-394 100q-116 100 -112 267h371q-2 -59 42 -89t107 -30zM850 498l20 110q23 115 -13 187t-128 71q-121 0 -185 -116t-63 -269q4 -193 164 -192q75 -1 131 57t74 152z" />
    <glyph glyph-name="Gdotaccent" unicode="&#x120;" horiz-adv-x="1605" 
d="M868 1702l64 321h321l-63 -321h-322zM958 1298q-102 0 -181 -70q-139 -122 -194 -413q-24 -121 -28 -250t51 -218t183 -91t207 77t104 212l6 35h-289l53 280h695l-166 -860h-316l39 205h-6q-48 -102 -156 -170t-268 -68q-266 0 -418 161t-151 470q0 199 57 378
q56 179 162 316t269 218t360 79q269 0 440 -123q170 -123 166 -405h-424q8 117 -43 177q-50 60 -152 60z" />
    <glyph glyph-name="gdotaccent" unicode="&#x121;" horiz-adv-x="1337" 
d="M655 1292l64 322h321l-63 -322h-322zM526 -160q104 0 158 56t78 157l31 152h-5q-117 -160 -308 -160q-190 1 -296 107t-106 315q0 266 154 464q155 198 399 197q123 0 202 -51t111 -135h4l33 166h381l-197 -1010q-51 -264 -212 -385t-441 -121t-394 100
q-116 100 -112 267h371q-2 -59 42 -89t107 -30zM850 498l20 110q23 115 -13 187t-128 71q-121 0 -185 -116t-63 -269q4 -193 164 -192q75 -1 131 57t74 152z" />
    <glyph glyph-name="Gcommaaccent" unicode="&#x122;" horiz-adv-x="1605" 
d="M385 -467l119 340h370l-223 -340h-266zM958 1298q-102 0 -181 -70q-139 -122 -194 -413q-24 -121 -28 -250t51 -218t183 -91t207 77t104 212l6 35h-289l53 280h695l-166 -860h-316l39 205h-6q-48 -102 -156 -170t-268 -68q-266 0 -418 161t-151 470q0 199 57 378
q56 179 162 316t269 218t360 79q269 0 440 -123q170 -123 166 -405h-424q8 117 -43 177q-50 60 -152 60z" />
    <glyph glyph-name="gcommaaccent" unicode="&#x123;" horiz-adv-x="1337" 
d="M1098 1614l-129 -369h-381l250 369h260zM526 -160q104 0 158 56t78 157l31 152h-5q-117 -160 -308 -160q-190 1 -296 107t-106 315q0 266 154 464q155 198 399 197q123 0 202 -51t111 -135h4l33 166h381l-197 -1010q-51 -264 -212 -385t-441 -121t-394 100
q-116 100 -112 267h371q-2 -59 42 -89t107 -30zM850 498l20 110q23 115 -13 187t-128 71q-121 0 -185 -116t-63 -269q4 -193 164 -192q75 -1 131 57t74 152z" />
    <glyph glyph-name="Hcircumflex" unicode="&#x124;" horiz-adv-x="1585" 
d="M1235 1966l166 -272h-256l-105 92h-2l-133 -92h-260l273 272h317zM555 623l-121 -623h-407l303 1567h407l-123 -635h519l122 635h410l-303 -1567h-410l121 623h-518z" />
    <glyph glyph-name="hcircumflex" unicode="&#x125;" horiz-adv-x="1323" 
d="M1110 1966l166 -272h-256l-105 92h-2l-133 -92h-260l273 272h317zM870 725q0 125 -122 125q-182 0 -234 -279l-108 -571h-396l314 1614h393l-135 -694h4q121 209 372 208q182 0 263 -117q80 -118 36 -341l-129 -670h-393l123 633q12 68 12 92z" />
    <glyph glyph-name="Hbar" unicode="&#x126;" horiz-adv-x="1585" 
d="M555 623l-121 -623h-407l221 1147h-144l46 225h143l37 195h407l-37 -195h519l36 195h410l-37 -195h144l-46 -225h-143l-221 -1147h-410l121 623h-518zM614 932h519l41 215h-519z" />
    <glyph glyph-name="hbar" unicode="&#x127;" horiz-adv-x="1323" 
d="M870 725q0 125 -122 125q-183 0 -234 -279l-108 -571h-396l238 1225h-160l43 223h160l33 166h393l-33 -166h291l-43 -223h-291l-59 -305h4q121 209 372 208q182 0 263 -117q80 -118 36 -341l-129 -670h-393l123 633q12 68 12 92z" />
    <glyph glyph-name="Itilde" unicode="&#x128;" horiz-adv-x="655" 
d="M477 2009q63 0 139 -46t120 -46t69 18t41 74h168q-10 -145 -91 -241t-200 -97q-86 0 -171 46t-118 46q-68 0 -110 -92h-164q10 129 97 233t220 105zM27 0l303 1567h407l-303 -1567h-407z" />
    <glyph glyph-name="itilde" unicode="&#x129;" horiz-adv-x="610" 
d="M10 0l215 1108h393l-215 -1108h-393zM389 1614q59 0 127 -46t100 -46q66 0 115 92h152q-21 -154 -97 -262t-196 -107q-61 0 -136 46t-108 46q-61 0 -104 -92h-148q14 153 93 261t202 108z" />
    <glyph glyph-name="Imacron" unicode="&#x12a;" horiz-adv-x="655" 
d="M190 1702l48 246h741l-47 -246h-742zM27 0l303 1567h407l-303 -1567h-407z" />
    <glyph glyph-name="imacron" unicode="&#x12b;" horiz-adv-x="610" 
d="M10 0l215 1108h393l-215 -1108h-393zM162 1292l47 246h592l-45 -246h-594z" />
    <glyph glyph-name="Ibreve" unicode="&#x12c;" horiz-adv-x="655" 
d="M586 1874q51 0 87 33t50 86h240q-27 -178 -138 -259t-264 -81t-243 91q-89 91 -60 249h225q-4 -53 24 -86t79 -33zM27 0l303 1567h407l-303 -1567h-407z" />
    <glyph glyph-name="ibreve" unicode="&#x12d;" horiz-adv-x="610" 
d="M10 0l215 1108h393l-215 -1108h-393zM448 1235q-140 0 -216 101q-75 101 -37 278h213q-12 -61 7 -94t64 -33t79 33t46 94h225q-25 -193 -133 -286t-248 -93z" />
    <glyph glyph-name="Iogonek" unicode="&#x12e;" horiz-adv-x="655" 
d="M287 -385q-154 0 -212 37q-59 37 -59 112t48 136t141 100h-178l303 1567h407l-301 -1555q-117 -72 -117 -137q0 -47 80 -47l-41 -213h-71z" />
    <glyph glyph-name="iogonek" unicode="&#x12f;" horiz-adv-x="610" 
d="M256 -385q-154 0 -212 37t-58 112q0 157 186 236h-162l215 1108h393l-215 -1100q-115 -66 -114 -133q0 -47 80 -47l-41 -213h-72zM256 1268l68 346h393l-68 -346h-393z" />
    <glyph glyph-name="Idotaccent" unicode="&#x130;" horiz-adv-x="655" 
d="M397 1702l64 321h321l-63 -321h-322zM27 0l303 1567h407l-303 -1567h-407z" />
    <glyph glyph-name="dotlessi" unicode="&#x131;" horiz-adv-x="610" 
d="M10 0l215 1108h393l-215 -1108h-393z" />
    <glyph glyph-name="IJ" unicode="&#x132;" horiz-adv-x="1509" 
d="M756 -6h-125l63 323h45q76 1 123 13q79 21 113 116q12 35 26 107l201 1014h402l-207 -1061q-57 -296 -201 -404t-440 -108zM27 0l303 1567h407l-303 -1567h-407z" />
    <glyph glyph-name="ij" unicode="&#x133;" horiz-adv-x="1232" 
d="M535 -430q-126 0 -166 20l-19 7l49 260q33 -10 78 -11q125 0 152 140l219 1122h393l-223 -1143q-77 -395 -483 -395zM879 1268l67 346h393l-67 -346h-393zM10 0l215 1108h393l-215 -1108h-393zM256 1268l68 346h393l-68 -346h-393z" />
    <glyph glyph-name="Jcircumflex" unicode="&#x134;" horiz-adv-x="915" 
d="M1047 1966l165 -272h-256l-104 92h-2l-133 -92h-260l272 272h318zM162 -6h-187l64 323h106q76 1 123 13q79 21 113 116q12 35 27 107l200 1014h402l-207 -1061q-57 -296 -201 -404t-440 -108z" />
    <glyph glyph-name="jcircumflex" unicode="&#x135;" horiz-adv-x="622" 
d="M-76 -430q-124 0 -166 20l-18 7l49 260q33 -10 78 -11q125 0 151 140l220 1122h393l-223 -1143q-78 -395 -484 -395zM676 1614l131 -369h-238l-82 131l-122 -131h-250l276 369h285z" />
    <glyph glyph-name="Kcommaaccent" unicode="&#x136;" horiz-adv-x="1499" 
d="M373 -467l119 340h370l-223 -340h-266zM522 451l-88 -451h-407l303 1567h407l-121 -619l580 619h459l-676 -686l387 -881h-432l-262 606z" />
    <glyph glyph-name="kcommaaccent" unicode="&#x137;" horiz-adv-x="1245" 
d="M244 -467l118 340h371l-223 -340h-266zM449 274l-54 -274h-385l314 1614h385l-177 -912l388 406h419l-471 -475l271 -633h-398l-176 399z" />
    <glyph glyph-name="kgreenlandic" unicode="&#x138;" horiz-adv-x="1269" 
d="M449 274l-54 -274h-385l215 1108h385l-80 -406l390 406h419l-471 -475l271 -633h-398l-176 399z" />
    <glyph glyph-name="Lacute" unicode="&#x139;" horiz-adv-x="1230" 
d="M428 1694l166 272h375l-250 -272h-291zM27 0l303 1567h407l-243 -1256h608l-60 -311h-1015z" />
    <glyph glyph-name="lacute" unicode="&#x13a;" horiz-adv-x="610" 
d="M371 1694l166 272h374l-249 -272h-291zM10 0l314 1614h393l-314 -1614h-393z" />
    <glyph glyph-name="Lcommaaccent" unicode="&#x13b;" horiz-adv-x="1230" 
d="M219 -467l119 340h371l-224 -340h-266zM27 0l303 1567h407l-243 -1256h608l-60 -311h-1015z" />
    <glyph glyph-name="lcommaaccent" unicode="&#x13c;" horiz-adv-x="610" 
d="M-109 -467l119 340h371l-223 -340h-267zM10 0l314 1614h393l-314 -1614h-393z" />
    <glyph glyph-name="Lcaron" unicode="&#x13d;" horiz-adv-x="1230" 
d="M27 0l303 1567h407l-243 -1256h608l-60 -311h-1015zM797 1163l127 451h295l-248 -451h-174z" />
    <glyph glyph-name="lcaron" unicode="&#x13e;" horiz-adv-x="610" 
d="M766 1204l80 410h295l-201 -410h-174zM10 0l314 1614h393l-314 -1614h-393z" />
    <glyph glyph-name="Ldot" unicode="&#x13f;" horiz-adv-x="1230" 
d="M788 715l72 366h391l-71 -366h-392zM27 0l303 1567h407l-243 -1256h608l-60 -311h-1015z" />
    <glyph glyph-name="ldot" unicode="&#x140;" horiz-adv-x="1095" 
d="M684 645l72 367h391l-72 -367h-391zM10 0l314 1614h393l-314 -1614h-393z" />
    <glyph glyph-name="Lslash" unicode="&#x141;" horiz-adv-x="1230" 
d="M27 0l102 524l-170 -49l55 285l170 49l146 758h407l-121 -629l443 131l-55 -285l-443 -131l-67 -342h608l-60 -311h-1015z" />
    <glyph glyph-name="lslash" unicode="&#x142;" horiz-adv-x="610" 
d="M403 0h-393l111 571l-158 -77l55 284l158 78l148 758h393l-105 -541l156 78l-55 -285l-156 -78z" />
    <glyph glyph-name="Nacute" unicode="&#x143;" horiz-adv-x="1550" 
d="M840 1694l166 272h374l-250 -272h-290zM27 0l303 1567h418l251 -699q41 -111 70 -241l4 -33h6l189 973h362l-303 -1567h-377l-276 721q-53 128 -76 250l-8 35h-6l-195 -1006h-362z" />
    <glyph glyph-name="nacute" unicode="&#x144;" horiz-adv-x="1335" 
d="M637 1245l170 369h381l-250 -369h-301zM868 740q0 110 -120 110q-90 0 -150 -74t-86 -209l-106 -567h-396l215 1108h379l-39 -199h4q133 219 389 219q182 0 263 -116q80 -117 36 -340l-129 -672h-393l119 614q14 76 14 126z" />
    <glyph glyph-name="Ncommaaccent" unicode="&#x145;" horiz-adv-x="1550" 
d="M360 -467l119 340h371l-223 -340h-267zM27 0l303 1567h418l251 -699q41 -111 70 -241l4 -33h6l189 973h362l-303 -1567h-377l-276 721q-53 128 -76 250l-8 35h-6l-195 -1006h-362z" />
    <glyph glyph-name="ncommaaccent" unicode="&#x146;" horiz-adv-x="1335" 
d="M250 -467l119 340h370l-223 -340h-266zM868 740q0 110 -120 110q-90 0 -150 -74t-86 -209l-106 -567h-396l215 1108h379l-39 -199h4q133 219 389 219q182 0 263 -116q80 -117 36 -340l-129 -672h-393l119 614q14 76 14 126z" />
    <glyph glyph-name="Ncaron" unicode="&#x147;" horiz-adv-x="1550" 
d="M840 1694l-166 272h252l104 -92h2l135 92h263l-273 -272h-317zM27 0l303 1567h418l251 -699q41 -111 70 -241l4 -33h6l189 973h362l-303 -1567h-377l-276 721q-53 128 -76 250l-8 35h-6l-195 -1006h-362z" />
    <glyph glyph-name="ncaron" unicode="&#x148;" horiz-adv-x="1335" 
d="M659 1245l-153 369h237l99 -131l151 131h248l-297 -369h-285zM868 740q0 110 -120 110q-90 0 -150 -74t-86 -209l-106 -567h-396l215 1108h379l-39 -199h4q133 219 389 219q182 0 263 -116q80 -117 36 -340l-129 -672h-393l119 614q14 76 14 126z" />
    <glyph glyph-name="napostrophe" unicode="&#x149;" horiz-adv-x="1335" 
d="M141 1233l119 340h371l-223 -340h-267zM868 740q0 110 -120 110q-90 0 -150 -74t-86 -209l-106 -567h-396l215 1108h379l-39 -199h4q133 219 389 219q182 0 263 -116q80 -117 36 -340l-129 -672h-393l119 614q14 76 14 126z" />
    <glyph glyph-name="Eng" unicode="&#x14a;" horiz-adv-x="1550" 
d="M715 -362h-135l61 290h55q104 0 158 18t88 72l-268 703q-53 128 -76 250l-8 35h-6l-195 -1006h-362l303 1567h418l251 -699q41 -111 70 -241l4 -33h6l189 973h362l-274 -1417q-56 -296 -200 -404t-441 -108z" />
    <glyph glyph-name="eng" unicode="&#x14b;" horiz-adv-x="1335" 
d="M639 -428q-122 0 -184 27l49 260q33 -10 78 -11q125 0 151 140l121 626q14 76 14 126q0 110 -120 110q-90 0 -150 -74t-86 -209l-106 -567h-396l215 1108h379l-39 -199h4q133 219 389 219q182 0 263 -116q80 -117 36 -340l-67 -348h2l-70 -357q-77 -395 -483 -395z" />
    <glyph glyph-name="Omacron" unicode="&#x14c;" horiz-adv-x="1648" 
d="M670 1702l47 246h741l-47 -246h-741zM1190 980q0 318 -236 318q-104 0 -185 -72q-136 -121 -191 -426q-23 -122 -23 -241q0 -297 246 -297q125 0 217 122t132 284t40 312zM1240 102q-194 -136 -459 -135q-265 0 -451 133q-96 70 -152 199q-55 129 -55 309q-2 264 95 484
t292 359q195 138 458 138t453 -150q93 -75 147 -205t54 -298q-2 -266 -95 -482t-287 -352z" />
    <glyph glyph-name="omacron" unicode="&#x14d;" horiz-adv-x="1298" 
d="M406 1292l47 246h741l-47 -246h-741zM852 688q0 74 -34 130t-103 56t-119 -44t-75 -114q-52 -139 -52 -282q0 -203 147 -203q66 1 115 47t74 119q47 139 47 291zM600 -31q-233 0 -384 120t-150 362q0 291 176 487t475 197q233 0 386 -126t152 -356q0 -313 -180 -499
t-475 -185z" />
    <glyph glyph-name="Obreve" unicode="&#x14e;" horiz-adv-x="1648" 
d="M1065 1874q51 0 87 33t50 86h240q-28 -178 -138 -259t-264 -81t-242 91q-90 91 -61 249h226q-5 -53 23 -86t79 -33zM1190 980q0 318 -236 318q-104 0 -185 -72q-136 -121 -191 -426q-23 -122 -23 -241q0 -297 246 -297q125 0 217 122t132 284t40 312zM1240 102
q-194 -136 -459 -135q-265 0 -451 133q-96 70 -152 199q-55 129 -55 309q-2 264 95 484t292 359q195 138 458 138t453 -150q93 -75 147 -205t54 -298q-2 -266 -95 -482t-287 -352z" />
    <glyph glyph-name="obreve" unicode="&#x14f;" horiz-adv-x="1298" 
d="M770 1235q-156 0 -242 101t-49 278h238q-13 -61 11 -94t73 -33q109 0 133 127h250q-20 -193 -138 -286q-120 -93 -276 -93zM852 688q0 74 -34 130t-103 56t-119 -44t-75 -114q-52 -139 -52 -282q0 -203 147 -203q66 1 115 47t74 119q47 139 47 291zM600 -31
q-233 0 -384 120t-150 362q0 291 176 487t475 197q233 0 386 -126t152 -356q0 -313 -180 -499t-475 -185z" />
    <glyph glyph-name="Ohungarumlaut" unicode="&#x150;" horiz-adv-x="1648" 
d="M735 1694l86 272h289l-154 -272h-221zM1094 1694l127 272h288l-194 -272h-221zM1190 980q0 318 -236 318q-104 0 -185 -72q-136 -121 -191 -426q-23 -122 -23 -241q0 -297 246 -297q125 0 217 122t132 284t40 312zM1240 102q-194 -136 -459 -135q-265 0 -451 133
q-96 70 -152 199q-55 129 -55 309q-2 264 95 484t292 359q195 138 458 138t453 -150q93 -75 147 -205t54 -298q-2 -266 -95 -482t-287 -352z" />
    <glyph glyph-name="ohungarumlaut" unicode="&#x151;" horiz-adv-x="1298" 
d="M467 1245l135 369h295l-203 -369h-227zM821 1245l174 369h295l-243 -369h-226zM852 688q0 74 -34 130t-103 56t-119 -44t-75 -114q-52 -139 -52 -282q0 -203 147 -203q66 1 115 47t74 119q47 139 47 291zM600 -31q-233 0 -384 120t-150 362q0 291 176 487t475 197
q233 0 386 -126t152 -356q0 -313 -180 -499t-475 -185z" />
    <glyph glyph-name="OE" unicode="&#x152;" horiz-adv-x="2269" 
d="M668 -33q-156 0 -285 74q-76 43 -132 112t-92 187t-36 268q2 420 223 699t584 278q264 0 360 -172h4l29 154h1022l-59 -303h-615l-65 -338h594l-58 -295h-592l-65 -332h641l-58 -299h-1048l24 133h-6q-143 -166 -370 -166zM805 262q117 0 213 102t127 271l47 250
q36 148 -11 280q-22 59 -79 97q-56 38 -152 36q-96 0 -177 -72q-136 -121 -191 -426q-23 -122 -23 -241q0 -297 246 -297z" />
    <glyph glyph-name="oe" unicode="&#x153;" horiz-adv-x="2019" 
d="M1362 -31q-279 0 -391 158q-151 -158 -385 -158t-377 120t-143 362q0 291 176 487t458 197q282 0 383 -164q158 164 398 164q287 0 405 -167t70 -429l-14 -74h-721v-31q0 -203 153 -203q59 0 103 29q43 29 51 80h391q-33 -186 -179 -278t-378 -93zM852 688q0 74 -34 130
t-103 56t-119 -44t-75 -114q-52 -139 -52 -282q0 -203 147 -203q66 1 115 47t74 119q47 139 47 291zM1464 897q-74 0 -129 -59t-84 -166h332l2 16q29 209 -121 209z" />
    <glyph glyph-name="Racute" unicode="&#x154;" horiz-adv-x="1456" 
d="M754 1694l166 272h374l-250 -272h-290zM856 1567q600 0 600 -451q0 -369 -352 -489v-4l260 -623h-422l-223 559h-176l-109 -559h-407l303 1567h526zM772 842q129 0 203 66t74 180q1 116 -53 160t-183 44h-129l-88 -450h176z" />
    <glyph glyph-name="racute" unicode="&#x155;" horiz-adv-x="897" 
d="M461 1245l170 369h381l-250 -369h-301zM969 1124h16l-70 -364h-22q-183 0 -277 -64t-133 -262l-84 -434h-389l215 1108h371l-51 -256h4q152 272 420 272z" />
    <glyph glyph-name="Rcommaaccent" unicode="&#x156;" horiz-adv-x="1456" 
d="M348 -467l119 340h371l-224 -340h-266zM856 1567q600 0 600 -451q0 -369 -352 -489v-4l260 -623h-422l-223 559h-176l-109 -559h-407l303 1567h526zM772 842q129 0 203 66t74 180q1 116 -53 160t-183 44h-129l-88 -450h176z" />
    <glyph glyph-name="rcommaaccent" unicode="&#x157;" horiz-adv-x="897" 
d="M-123 -467l119 340h371l-224 -340h-266zM969 1124h16l-70 -364h-22q-183 0 -277 -64t-133 -262l-84 -434h-389l215 1108h371l-51 -256h4q152 272 420 272z" />
    <glyph glyph-name="Rcaron" unicode="&#x158;" horiz-adv-x="1456" 
d="M725 1694l-166 272h252l104 -92h3l135 92h262l-273 -272h-317zM856 1567q600 0 600 -451q0 -369 -352 -489v-4l260 -623h-422l-223 559h-176l-109 -559h-407l303 1567h526zM772 842q129 0 203 66t74 180q1 116 -53 160t-183 44h-129l-88 -450h176z" />
    <glyph glyph-name="rcaron" unicode="&#x159;" horiz-adv-x="897" 
d="M483 1245l-153 369h237l99 -131l151 131h248l-297 -369h-285zM969 1124h16l-70 -364h-22q-183 0 -277 -64t-133 -262l-84 -434h-389l215 1108h371l-51 -256h4q152 272 420 272z" />
    <glyph glyph-name="Sacute" unicode="&#x15a;" horiz-adv-x="1386" 
d="M696 1694l166 272h375l-250 -272h-291zM168 1049q0 254 181 397t445 143t430 -101q165 -101 148 -349h-411q4 75 -43 115q-48 40 -136 40t-143 -45t-55 -111t44 -96q44 -29 128 -49l205 -51q365 -90 364 -401q0 -258 -186 -416q-187 -158 -489 -158t-468 121
q-165 121 -151 365h428q-9 -191 203 -191q112 0 178 50t65 130q0 106 -162 146l-196 49q-201 51 -290 153t-89 259z" />
    <glyph glyph-name="sacute" unicode="&#x15b;" horiz-adv-x="1110" 
d="M477 1245l170 369h381l-250 -369h-301zM121 739q0 187 140 291t357 104t336 -90t109 -262h-340q4 55 -34 82t-95 27t-90 -27t-33 -63q0 -66 135 -92l142 -31q145 -34 206 -102t62 -197q0 -195 -144 -303t-354 -109q-210 0 -350 70q-156 78 -152 289h355q-4 -115 143 -115
q146 0 145 98q0 63 -98 84l-131 27q-164 36 -236 110t-73 209z" />
    <glyph glyph-name="Scircumflex" unicode="&#x15c;" horiz-adv-x="1386" 
d="M1073 1966l166 -272h-256l-104 92h-2l-134 -92h-260l273 272h317zM168 1049q0 254 181 397t445 143t430 -101q165 -101 148 -349h-411q4 75 -43 115q-48 40 -136 40t-143 -45t-55 -111t44 -96q44 -29 128 -49l205 -51q365 -90 364 -401q0 -258 -186 -416
q-187 -158 -489 -158t-468 121q-165 121 -151 365h428q-9 -191 203 -191q112 0 178 50t65 130q0 106 -162 146l-196 49q-201 51 -290 153t-89 259z" />
    <glyph glyph-name="scircumflex" unicode="&#x15d;" horiz-adv-x="1110" 
d="M860 1614l154 -369h-238l-104 131l-144 -131h-249l296 369h285zM121 739q0 187 140 291t357 104t336 -90t109 -262h-340q4 55 -34 82t-95 27t-90 -27t-33 -63q0 -66 135 -92l142 -31q145 -34 206 -102t62 -197q0 -195 -144 -303t-354 -109q-210 0 -350 70
q-156 78 -152 289h355q-4 -115 143 -115q146 0 145 98q0 63 -98 84l-131 27q-164 36 -236 110t-73 209z" />
    <glyph glyph-name="Scedilla" unicode="&#x15e;" horiz-adv-x="1386" 
d="M836 -242q0 -106 -75 -170t-195 -63q-120 0 -189 43q-70 43 -60 131h181q4 -41 50 -41q83 0 85 68q0 53 -58 53q-39 0 -61 -29h-131l104 227q-229 31 -349 149t-107 327h428q-8 -191 211 -191q104 0 170 50t65 130q0 106 -162 146l-196 49q-201 51 -290 153t-89 259
q0 254 181 397t445 143t430 -101q165 -101 148 -349h-411q4 75 -43 115q-48 40 -136 40t-143 -45t-55 -111t44 -96q44 -29 128 -49l205 -51q365 -90 364 -401q0 -258 -186 -416t-484 -158h-53l-45 -104h4q57 41 122 41t109 -41t44 -105z" />
    <glyph glyph-name="scedilla" unicode="&#x15f;" horiz-adv-x="1110" 
d="M121 739q0 187 140 291t357 104t336 -90t109 -262h-340q4 55 -34 82t-95 27t-90 -27t-33 -63q0 -66 135 -92l142 -31q145 -34 206 -102t62 -197q0 -195 -144 -303t-372 -109q-45 0 -68 2l-47 -106h4q57 41 122 41t109 -41t44 -105q0 -106 -75 -170t-195 -63
q-120 0 -189 43q-70 43 -60 131h181q4 -41 50 -41q83 0 85 68q0 53 -58 53q-39 0 -61 -29h-131l106 234q-307 59 -301 342h355q-4 -115 143 -115q146 0 145 98q0 63 -98 84l-131 27q-164 36 -236 110t-73 209z" />
    <glyph glyph-name="Scaron" unicode="&#x160;" horiz-adv-x="1386" 
d="M696 1694l-166 272h252l105 -92h2l135 92h262l-272 -272h-318zM168 1049q0 254 181 397t445 143t430 -101q165 -101 148 -349h-411q4 75 -43 115q-48 40 -136 40t-143 -45t-55 -111t44 -96q44 -29 128 -49l205 -51q365 -90 364 -401q0 -258 -186 -416
q-187 -158 -489 -158t-468 121q-165 121 -151 365h428q-9 -191 203 -191q112 0 178 50t65 130q0 106 -162 146l-196 49q-201 51 -290 153t-89 259z" />
    <glyph glyph-name="scaron" unicode="&#x161;" horiz-adv-x="1110" 
d="M498 1245l-154 369h238l98 -131l151 131h248l-297 -369h-284zM121 739q0 187 140 291t357 104t336 -90t109 -262h-340q4 55 -34 82t-95 27t-90 -27t-33 -63q0 -66 135 -92l142 -31q145 -34 206 -102t62 -197q0 -195 -144 -303t-354 -109q-210 0 -350 70q-156 78 -152 289
h355q-4 -115 143 -115q146 0 145 98q0 63 -98 84l-131 27q-164 36 -236 110t-73 209z" />
    <glyph glyph-name="Tcommaaccent" unicode="&#x162;" horiz-adv-x="1339" 
d="M258 -467l119 340h371l-224 -340h-266zM1016 1249l-242 -1249h-407l241 1249h-411l61 318h1231l-62 -318h-411z" />
    <glyph glyph-name="tcommaaccent" unicode="&#x163;" horiz-adv-x="845" 
d="M84 -467l119 340h370l-223 -340h-266zM510 -14q-428 0 -346 422l84 428h-142l54 272h39q94 0 137 43t70 180l16 82h319l-59 -305h229l-53 -272h-225l-80 -414q-16 -90 4 -121t102 -31l84 11l-53 -279q-94 -16 -180 -16z" />
    <glyph glyph-name="Tcaron" unicode="&#x164;" horiz-adv-x="1339" 
d="M737 1694l-166 272h252l105 -92h2l135 92h262l-272 -272h-318zM1016 1249l-242 -1249h-407l241 1249h-411l61 318h1231l-62 -318h-411z" />
    <glyph glyph-name="tcaron" unicode="&#x165;" horiz-adv-x="845" 
d="M829 1204l80 410h295l-200 -410h-175zM510 -14q-428 0 -346 422l84 428h-142l54 272h39q94 0 137 43t70 180l16 82h319l-59 -305h229l-53 -272h-225l-80 -414q-16 -90 4 -121t102 -31l84 11l-53 -279q-94 -16 -180 -16z" />
    <glyph glyph-name="Tbar" unicode="&#x166;" horiz-adv-x="1339" 
d="M909 702l-135 -702h-407l135 702h-334l47 240h334l59 307h-411l61 318h1231l-62 -318h-411l-60 -307h328l-47 -240h-328z" />
    <glyph glyph-name="tbar" unicode="&#x167;" horiz-adv-x="845" 
d="M510 -14q-428 0 -346 422l8 41h-141l45 231h141l31 156h-142l54 272h39q94 0 137 43t70 180l16 82h319l-59 -305h229l-53 -272h-225l-31 -156h225l-45 -231h-223l-6 -27q-16 -90 4 -121t102 -31l84 11l-53 -279q-94 -16 -180 -16z" />
    <glyph glyph-name="Utilde" unicode="&#x168;" horiz-adv-x="1523" 
d="M913 2009q63 0 139 -46t121 -46t69 18t40 74h168q-10 -145 -91 -241t-200 -97q-86 0 -171 46t-118 46q-68 0 -110 -92h-164q10 129 97 233t220 105zM735 -33q-350 0 -506 174q-155 174 -98 467l186 959h408l-193 -979q-30 -150 28 -224t188 -74t187 68q58 68 85 203
l194 1006h402l-199 -1022q-115 -578 -682 -578z" />
    <glyph glyph-name="utilde" unicode="&#x169;" horiz-adv-x="1310" 
d="M723 1614q65 0 137 -46t109 -46q74 0 123 92h168q-14 -152 -100 -260t-222 -109q-66 0 -144 46t-114 46q-74 0 -117 -92h-164q11 149 99 259t225 110zM475 395q0 -135 123 -135q76 0 133 69t82 197l113 582h393l-215 -1108h-379l37 190h-4q-135 -209 -365 -208
q-193 0 -275 114t-38 330l133 682h393l-121 -621q-10 -61 -10 -92z" />
    <glyph glyph-name="Umacron" unicode="&#x16a;" horiz-adv-x="1523" 
d="M625 1702l47 246h741l-47 -246h-741zM735 -33q-350 0 -506 174q-155 174 -98 467l186 959h408l-193 -979q-30 -150 28 -224t188 -74t187 68q58 68 85 203l194 1006h402l-199 -1022q-115 -578 -682 -578z" />
    <glyph glyph-name="umacron" unicode="&#x16b;" horiz-adv-x="1310" 
d="M432 1292l47 246h742l-47 -246h-742zM475 395q0 -135 123 -135q76 0 133 69t82 197l113 582h393l-215 -1108h-379l37 190h-4q-135 -209 -365 -208q-193 0 -275 114t-38 330l133 682h393l-121 -621q-10 -61 -10 -92z" />
    <glyph glyph-name="Ubreve" unicode="&#x16c;" horiz-adv-x="1523" 
d="M1020 1874q51 0 87 33t50 86h240q-27 -178 -137 -259t-264 -81t-244 91t-60 249h226q-4 -53 24 -86t78 -33zM735 -33q-350 0 -506 174q-155 174 -98 467l186 959h408l-193 -979q-30 -150 28 -224t188 -74t187 68q58 68 85 203l194 1006h402l-199 -1022
q-115 -578 -682 -578z" />
    <glyph glyph-name="ubreve" unicode="&#x16d;" horiz-adv-x="1310" 
d="M798 1235q-156 0 -243 101q-86 101 -49 278h237q-12 -61 12 -94t72 -33q109 0 134 127h249q-20 -193 -138 -286t-274 -93zM475 395q0 -135 123 -135q76 0 133 69t82 197l113 582h393l-215 -1108h-379l37 190h-4q-135 -209 -365 -208q-193 0 -275 114t-38 330l133 682h393
l-121 -621q-10 -61 -10 -92z" />
    <glyph glyph-name="Uring" unicode="&#x16e;" horiz-adv-x="1523" 
d="M1042 2009q-57 0 -90 -40q-32 -40 -32 -96q1 -112 100 -112q51 0 85 40t34 104q-1 104 -97 104zM1025 1618q-126 0 -208 60t-82 185t87 209t220 85q133 0 208 -67q75 -66 75 -186t-87 -203t-213 -83zM735 -33q-350 0 -506 174q-155 174 -98 467l186 959h408l-193 -979
q-30 -150 28 -224t188 -74t187 68q58 68 85 203l194 1006h402l-199 -1022q-115 -578 -682 -578z" />
    <glyph glyph-name="uring" unicode="&#x16f;" horiz-adv-x="1310" 
d="M850 1599q-57 1 -90 -39t-33 -96q0 -114 100 -112q51 0 85 40t34 103q0 104 -96 104zM1133 1494q1 -120 -87 -203t-214 -83t-208 60t-81 186q0 125 87 209t220 84t208 -67q75 -66 75 -186zM475 395q0 -135 123 -135q76 0 133 69t82 197l113 582h393l-215 -1108h-379
l37 190h-4q-135 -209 -365 -208q-193 0 -275 114t-38 330l133 682h393l-121 -621q-10 -61 -10 -92z" />
    <glyph glyph-name="Uhungarumlaut" unicode="&#x170;" horiz-adv-x="1523" 
d="M705 1694l86 272h288l-153 -272h-221zM1063 1694l127 272h289l-195 -272h-221zM735 -33q-350 0 -506 174q-155 174 -98 467l186 959h408l-193 -979q-30 -150 28 -224t188 -74t187 68q58 68 85 203l194 1006h402l-199 -1022q-115 -578 -682 -578z" />
    <glyph glyph-name="uhungarumlaut" unicode="&#x171;" horiz-adv-x="1310" 
d="M494 1245l135 369h295l-203 -369h-227zM848 1245l174 369h295l-244 -369h-225zM475 395q0 -135 123 -135q76 0 133 69t82 197l113 582h393l-215 -1108h-379l37 190h-4q-135 -209 -365 -208q-193 0 -275 114t-38 330l133 682h393l-121 -621q-10 -61 -10 -92z" />
    <glyph glyph-name="Uogonek" unicode="&#x172;" horiz-adv-x="1523" 
d="M705 -121q0 -51 79 -51l-41 -213h-71q-154 0 -212 37t-58 116t46 133q48 54 109 83v2q-231 28 -353 192t-73 430l186 959h408l-193 -979q-28 -152 30 -225t178 -73t186 59q66 58 94 212l194 1006h402l-199 -1022q-96 -487 -510 -555q-117 -18 -159 -44t-43 -67z" />
    <glyph glyph-name="uogonek" unicode="&#x173;" horiz-adv-x="1310" 
d="M475 393q0 -133 123 -133q76 0 133 69t82 197l113 582h393l-213 -1100q-115 -66 -115 -133q0 -47 80 -47l-41 -213h-72q-154 0 -212 37t-58 112q0 157 186 236h-149l37 190h-4q-135 -209 -365 -208q-193 0 -275 114t-38 330l133 682h393l-121 -621q-10 -45 -10 -94z" />
    <glyph glyph-name="Wcircumflex" unicode="&#x174;" horiz-adv-x="2115" 
d="M1511 1966l166 -272h-256l-104 92h-2l-133 -92h-260l272 272h317zM725 0h-397l-101 1567h410l29 -760q4 -169 -7 -250l-2 -35h5q33 111 98 260l344 785h344l61 -766q11 -136 11 -246l-2 -33h4q25 113 84 260l315 785h373l-676 -1567h-385l-49 829l-6 258h-4
q-23 -88 -87 -235z" />
    <glyph glyph-name="wcircumflex" unicode="&#x175;" horiz-adv-x="1755" 
d="M1219 1614l153 -369h-237l-105 131l-143 -131h-250l297 369h285zM1186 393v-47h6q39 166 92 291l201 471h336l-494 -1108h-366l-29 303q-16 164 -19 356v66h-4q-92 -229 -159 -385l-148 -340h-362l-123 1108h350l35 -428q12 -149 6 -287l-2 -47h4q45 166 106 301l209 461
h310l41 -449q10 -98 10 -266z" />
    <glyph glyph-name="Ycircumflex" unicode="&#x176;" horiz-adv-x="1445" 
d="M1174 1966l165 -272h-256l-104 92h-2l-133 -92h-260l272 272h318zM424 0l131 680l-328 887h422l178 -559h4l373 559h424l-674 -936l-123 -631h-407z" />
    <glyph glyph-name="ycircumflex" unicode="&#x177;" horiz-adv-x="1202" 
d="M969 1614l153 -369h-237l-105 131l-143 -131h-250l297 369h285zM137 -408q-141 0 -190 23l53 276q41 -10 122 -10t130 23t74 88l-197 1116h395l54 -522q12 -119 6 -226l-2 -36h4q37 121 86 227l246 557h389l-609 -1161q-98 -187 -222 -271t-339 -84z" />
    <glyph glyph-name="Ydieresis" unicode="&#x178;" horiz-adv-x="1445" 
d="M586 1702l63 321h322l-64 -321h-321zM1018 1702l63 321h322l-64 -321h-321zM424 0l131 680l-328 887h422l178 -559h4l373 559h424l-674 -936l-123 -631h-407z" />
    <glyph glyph-name="Zacute" unicode="&#x179;" horiz-adv-x="1325" 
d="M719 1694l166 272h375l-250 -272h-291zM242 1255l59 312h1151l-53 -277l-889 -977h704l-59 -313h-1194l53 276l891 979h-663z" />
    <glyph glyph-name="zacute" unicode="&#x17a;" horiz-adv-x="1122" 
d="M539 1245l170 369h381l-250 -369h-301zM158 825l55 283h954l-47 -238l-606 -583h500l-56 -287h-978l45 240l608 585h-475z" />
    <glyph glyph-name="Zdotaccent" unicode="&#x17b;" horiz-adv-x="1325" 
d="M723 1702l63 321h322l-64 -321h-321zM242 1255l59 312h1151l-53 -277l-889 -977h704l-59 -313h-1194l53 276l891 979h-663z" />
    <glyph glyph-name="zdotaccent" unicode="&#x17c;" horiz-adv-x="1122" 
d="M555 1292l63 322h322l-63 -322h-322zM158 825l55 283h954l-47 -238l-606 -583h500l-56 -287h-978l45 240l608 585h-475z" />
    <glyph glyph-name="Zcaron" unicode="&#x17d;" horiz-adv-x="1325" 
d="M719 1694l-166 272h252l104 -92h2l136 92h262l-273 -272h-317zM242 1255l59 312h1151l-53 -277l-889 -977h704l-59 -313h-1194l53 276l891 979h-663z" />
    <glyph glyph-name="zcaron" unicode="&#x17e;" horiz-adv-x="1122" 
d="M561 1245l-153 369h237l98 -131l152 131h248l-297 -369h-285zM158 825l55 283h954l-47 -238l-606 -583h500l-56 -287h-978l45 240l608 585h-475z" />
    <glyph glyph-name="florin" unicode="&#x192;" horiz-adv-x="1040" 
d="M984 1339q-64 0 -112 -43q-49 -43 -75 -176l-33 -155h215l-49 -273h-223l-228 -1079h-377l220 1079h-236l49 273h244l31 155q59 289 189 399t329 109l170 -12l-23 -283q-27 6 -91 6z" />
    <glyph glyph-name="Aringacute" unicode="&#x1fa;" horiz-adv-x="1554" 
d="M899 2202l166 272h375l-250 -272h-291zM1012 2009q-57 0 -90 -40t-33 -96q0 -112 100 -112q51 0 85 40t34 104q0 104 -96 104zM994 1618q-126 0 -208 60t-82 185t88 209q87 84 220 85q133 0 208 -67q74 -66 74 -186t-87 -203t-213 -83zM1020 0l-41 291h-535l-141 -291
h-395l809 1567h448l260 -1567h-405zM874 1231h-4q-16 -66 -102 -250l-184 -401h354l-47 389q-13 120 -17 233v29z" />
    <glyph glyph-name="aringacute" unicode="&#x1fb;" horiz-adv-x="1220" 
d="M655 1794l166 272h375l-250 -272h-291zM772 1587q-57 0 -90 -40t-33 -96q0 -112 101 -112q51 0 85 40t33 104q0 104 -96 104zM755 1196q-126 0 -208 60t-82 186t87 209q87 84 220 84t208 -67q75 -66 75 -186t-87 -203t-213 -83zM958 0q-96 0 -156 24t-89 97h-6
q-80 -76 -149 -104q-68 -27 -198 -27t-228 80q-97 80 -97 231q0 252 246 332q102 31 188 36q154 9 287 9l10 59q29 150 -111 150q-125 0 -141 -121h-373q17 178 155 272t398 94t366 -130t64 -353l-57 -295q-10 -51 8 -68t70 -20l-53 -266h-134zM532 225q143 0 181 230l6 30
q-129 -4 -182 -16q-119 -31 -119 -129q0 -55 32 -85t82 -30z" />
    <glyph glyph-name="AEacute" unicode="&#x1fc;" horiz-adv-x="2217" 
d="M1382 1694l166 272h375l-250 -272h-291zM963 0l63 324h-487l-205 -324h-451l1047 1567h1364l-60 -303h-620l-66 -338h600l-57 -295h-600l-64 -332h644l-58 -299h-1050zM1083 621l123 643h-80q-88 -145 -145 -240l-256 -403h358z" />
    <glyph glyph-name="aeacute" unicode="&#x1fd;" horiz-adv-x="1898" 
d="M932 1245l170 369h381l-250 -369h-301zM1262 -14q-170 0 -270 46t-161 140h-4q-76 -86 -172 -134t-260 -48t-262 79t-98 232q0 252 246 332q102 31 188 36q154 9 287 9l10 59q29 150 -111 150q-125 0 -141 -121h-373q19 178 157 272t378 94t332 -143h2q131 145 358 146
q286 0 402 -166t65 -430l-14 -74h-713v-31q0 -200 144 -202q70 0 112 28q43 29 51 80h383q-63 -354 -536 -354zM532 225q143 0 181 230l6 30q-129 -4 -182 -16q-119 -31 -119 -129q0 -55 32 -85t82 -30zM1352 897q-74 0 -129 -59t-84 -166h331l3 16q29 209 -121 209z" />
    <glyph glyph-name="Oslashacute" unicode="&#x1fe;" horiz-adv-x="1648" 
d="M881 1694l166 272h374l-250 -272h-290zM768 -33q-278 0 -446 139l-156 -157h-238l285 284q-90 147 -91 393t96 466t292 359q195 138 463 138t442 -145l178 180h240l-307 -307q96 -155 95 -401t-94 -462t-287 -352t-472 -135zM801 258q100 0 182 76t129 192q98 241 96 469
l-628 -630q65 -107 221 -107zM952 1303q-108 0 -194 -79t-132 -199q-93 -243 -91 -466l628 633q-59 111 -211 111z" />
    <glyph glyph-name="oslashacute" unicode="&#x1ff;" horiz-adv-x="1298" 
d="M590 1245l170 369h381l-250 -369h-301zM1255 653q0 -313 -180 -498t-475 -186q-195 0 -332 82l-143 -141h-211l242 242q-90 117 -90 299q0 291 176 487t475 197q199 0 338 -91l151 152h211l-254 -252q92 -117 92 -291zM609 221q71 0 120 42q123 106 139 386l-374 -373
q44 -55 115 -55zM453 446l378 377q-43 63 -123 63t-142 -76q-108 -135 -113 -364z" />
    <glyph glyph-name="Scommaaccent" unicode="&#x218;" horiz-adv-x="1386" 
d="M295 -467l119 340h370l-223 -340h-266zM168 1049q0 254 181 397t445 143t430 -101q165 -101 148 -349h-411q4 75 -43 115q-48 40 -136 40t-143 -45t-55 -111t44 -96q44 -29 128 -49l205 -51q365 -90 364 -401q0 -258 -186 -416q-187 -158 -489 -158t-468 121
q-165 121 -151 365h428q-9 -191 203 -191q112 0 178 50t65 130q0 106 -162 146l-196 49q-201 51 -290 153t-89 259z" />
    <glyph glyph-name="scommaaccent" unicode="&#x219;" horiz-adv-x="1110" 
d="M160 -467l119 340h370l-223 -340h-266zM121 739q0 187 140 291t357 104t336 -90t109 -262h-340q4 55 -34 82t-95 27t-90 -27t-33 -63q0 -66 135 -92l142 -31q145 -34 206 -102t62 -197q0 -195 -144 -303t-354 -109q-210 0 -350 70q-156 78 -152 289h355q-4 -115 143 -115
q146 0 145 98q0 63 -98 84l-131 27q-164 36 -236 110t-73 209z" />
    <glyph glyph-name="uni021A" unicode="&#x21a;" horiz-adv-x="1339" 
d="M258 -467l119 340h371l-224 -340h-266zM1016 1249l-242 -1249h-407l241 1249h-411l61 318h1231l-62 -318h-411z" />
    <glyph glyph-name="uni021B" unicode="&#x21b;" horiz-adv-x="845" 
d="M84 -467l119 340h370l-223 -340h-266zM510 -14q-428 0 -346 422l84 428h-142l54 272h39q94 0 137 43t70 180l16 82h319l-59 -305h229l-53 -272h-225l-80 -414q-16 -90 4 -121t102 -31l84 11l-53 -279q-94 -16 -180 -16z" />
    <glyph glyph-name="uni0237" unicode="&#x237;" horiz-adv-x="622" 
d="M-76 -430q-124 0 -166 20l-18 7l49 260q33 -10 78 -11q125 0 151 140l220 1122h393l-223 -1143q-78 -395 -484 -395z" />
    <glyph glyph-name="circumflex" unicode="&#x2c6;" horiz-adv-x="741" 
d="M729 1614l154 -369h-238l-104 131l-144 -131h-250l297 369h285z" />
    <glyph glyph-name="caron" unicode="&#x2c7;" horiz-adv-x="741" 
d="M373 1245l-154 369h238l98 -131l152 131h247l-297 -369h-284z" />
    <glyph glyph-name="breve" unicode="&#x2d8;" horiz-adv-x="741" 
d="M526 1235q-156 0 -243 101q-86 101 -50 278h238q-13 -61 11 -94t73 -33q109 0 133 127h250q-20 -193 -138 -286t-274 -93z" />
    <glyph glyph-name="dotaccent" unicode="&#x2d9;" horiz-adv-x="741" 
d="M362 1292l64 322h322l-64 -322h-322z" />
    <glyph glyph-name="ring" unicode="&#x2da;" horiz-adv-x="741" 
d="M561 1599q-57 1 -90 -39t-33 -96q0 -114 101 -112q51 0 85 40t33 103q0 104 -96 104zM544 1208q-126 0 -208 60t-82 186q0 125 87 209t220 84t208 -67q75 -66 75 -186t-87 -203t-213 -83z" />
    <glyph glyph-name="ogonek" unicode="&#x2db;" horiz-adv-x="741" 
d="M311 -125q0 -47 80 -47l-41 -213h-71q-154 0 -212 37q-59 37 -59 120q0 82 68 152t200 103l150 -19q-115 -66 -115 -133z" />
    <glyph glyph-name="tilde" unicode="&#x2dc;" horiz-adv-x="741" 
d="M442 1614q66 0 138 -46t108 -46q74 0 123 92h168q-14 -152 -100 -260t-222 -109q-65 0 -143 46t-115 46q-74 0 -116 -92h-164q10 149 98 259t225 110z" />
    <glyph glyph-name="hungarumlaut" unicode="&#x2dd;" horiz-adv-x="876" 
d="M229 1245l136 369h294l-202 -369h-228zM584 1245l174 369h295l-244 -369h-225z" />
    <glyph glyph-name="Wgrave" unicode="&#x1e80;" horiz-adv-x="2115" 
d="M1372 1966l78 -272h-283l-161 272h366zM725 0h-397l-101 1567h410l29 -760q4 -169 -7 -250l-2 -35h5q33 111 98 260l344 785h344l61 -766q11 -136 11 -246l-2 -33h4q25 113 84 260l315 785h373l-676 -1567h-385l-49 829l-6 258h-4q-23 -88 -87 -235z" />
    <glyph glyph-name="wgrave" unicode="&#x1e81;" horiz-adv-x="1755" 
d="M1122 1614l37 -369h-291l-116 369h370zM1186 393v-47h6q39 166 92 291l201 471h336l-494 -1108h-366l-29 303q-16 164 -19 356v66h-4q-92 -229 -159 -385l-148 -340h-362l-123 1108h350l35 -428q12 -149 6 -287l-2 -47h4q45 166 106 301l209 461h310l41 -449
q10 -98 10 -266z" />
    <glyph glyph-name="Wacute" unicode="&#x1e82;" horiz-adv-x="2115" 
d="M1135 1694l165 272h375l-250 -272h-290zM725 0h-397l-101 1567h410l29 -760q4 -169 -7 -250l-2 -35h5q33 111 98 260l344 785h344l61 -766q11 -136 11 -246l-2 -33h4q25 113 84 260l315 785h373l-676 -1567h-385l-49 829l-6 258h-4q-23 -88 -87 -235z" />
    <glyph glyph-name="wacute" unicode="&#x1e83;" horiz-adv-x="1755" 
d="M834 1245l170 369h380l-249 -369h-301zM1186 393v-47h6q39 166 92 291l201 471h336l-494 -1108h-366l-29 303q-16 164 -19 356v66h-4q-92 -229 -159 -385l-148 -340h-362l-123 1108h350l35 -428q12 -149 6 -287l-2 -47h4q45 166 106 301l209 461h310l41 -449
q10 -98 10 -266z" />
    <glyph glyph-name="Wdieresis" unicode="&#x1e84;" horiz-adv-x="2115" 
d="M924 1702l63 321h322l-64 -321h-321zM1356 1702l63 321h322l-64 -321h-321zM725 0h-397l-101 1567h410l29 -760q4 -169 -7 -250l-2 -35h5q33 111 98 260l344 785h344l61 -766q11 -136 11 -246l-2 -33h4q25 113 84 260l315 785h373l-676 -1567h-385l-49 829l-6 258h-4
q-23 -88 -87 -235z" />
    <glyph glyph-name="wdieresis" unicode="&#x1e85;" horiz-adv-x="1755" 
d="M635 1292l63 322h322l-64 -322h-321zM1067 1292l63 322h322l-63 -322h-322zM1186 393v-47h6q39 166 92 291l201 471h336l-494 -1108h-366l-29 303q-16 164 -19 356v66h-4q-92 -229 -159 -385l-148 -340h-362l-123 1108h350l35 -428q12 -149 6 -287l-2 -47h4
q45 166 106 301l209 461h310l41 -449q10 -98 10 -266z" />
    <glyph glyph-name="Ygrave" unicode="&#x1ef2;" horiz-adv-x="1445" 
d="M1034 1966l78 -272h-283l-161 272h366zM424 0l131 680l-328 887h422l178 -559h4l373 559h424l-674 -936l-123 -631h-407z" />
    <glyph glyph-name="ygrave" unicode="&#x1ef3;" horiz-adv-x="1202" 
d="M874 1614l37 -369h-290l-117 369h370zM137 -408q-141 0 -190 23l53 276q41 -10 122 -10t130 23t74 88l-197 1116h395l54 -522q12 -119 6 -226l-2 -36h4q37 121 86 227l246 557h389l-609 -1161q-98 -187 -222 -271t-339 -84z" />
    <glyph glyph-name="uni2009" unicode="&#x2009;" horiz-adv-x="0" 
 />
    <glyph glyph-name="endash" unicode="&#x2013;" horiz-adv-x="1034" 
d="M100 485l54 277h833l-53 -277h-834z" />
    <glyph glyph-name="emdash" unicode="&#x2014;" horiz-adv-x="1812" 
d="M102 492l52 264h1611l-51 -264h-1612z" />
    <glyph glyph-name="quoteleft" unicode="&#x2018;" horiz-adv-x="647" 
d="M739 1567l-186 -580h-381l326 580h241z" />
    <glyph glyph-name="quoteright" unicode="&#x2019;" horiz-adv-x="647" 
d="M203 987l188 580h379l-324 -580h-243z" />
    <glyph glyph-name="quotesinglbase" unicode="&#x201a;" horiz-adv-x="647" 
d="M-33 -231l189 579h379l-324 -579h-244z" />
    <glyph glyph-name="quotedblleft" unicode="&#x201c;" horiz-adv-x="1103" 
d="M733 1567l-186 -580h-371l316 580h241zM1196 1567l-188 -580h-369l313 580h244z" />
    <glyph glyph-name="quotedblright" unicode="&#x201d;" horiz-adv-x="1103" 
d="M213 987l188 580h369l-313 -580h-244zM676 987l186 580h371l-315 -580h-242z" />
    <glyph glyph-name="quotedblbase" unicode="&#x201e;" horiz-adv-x="1097" 
d="M-33 -231l189 579h368l-313 -579h-244zM430 -231l186 579h371l-315 -579h-242z" />
    <glyph glyph-name="dagger" unicode="&#x2020;" horiz-adv-x="679" 
d="M580 1100l-99 -506h-262l98 506h-167l49 258h168l41 209h262l-41 -209h170l-49 -258h-170z" />
    <glyph glyph-name="daggerdbl" unicode="&#x2021;" horiz-adv-x="679" 
d="M528 803l-41 -209h-262l41 209h-168l43 221h168l21 113h-168l43 221h168l41 209h262l-41 -209h170l-43 -221h-170l-21 -113h170l-43 -221h-170z" />
    <glyph glyph-name="bullet" unicode="&#x2022;" horiz-adv-x="702" 
d="M370 365q-114 1 -187 73t-73 190t78 194q76 76 189 75q113 0 185 -75q72 -74 73 -192t-75 -192t-190 -73z" />
    <glyph glyph-name="ellipsis" unicode="&#x2026;" horiz-adv-x="1921" 
d="M27 0l69 367h391l-69 -367h-391zM666 0l69 367h391l-69 -367h-391zM1307 0l69 367h391l-69 -367h-391z" />
    <glyph glyph-name="perthousand" unicode="&#x2030;" horiz-adv-x="2680" 
d="M1350 180q59 0 100 69t41 175t-88 104q-59 0 -100 -68t-46 -171q1 -109 93 -109zM2171 180q59 0 100 69t41 175t-88 104q-59 0 -100 -68t-45 -171q0 -109 92 -109zM1741 420q0 -198 -123 -316q-122 -118 -274 -118t-242 79t-90 220q0 201 123 319t275 119q152 0 242 -79
t89 -224zM2562 420q0 -198 -122 -316t-274 -118t-243 79q-90 79 -90 220q0 201 123 319t275 119q151 0 241 -79t90 -224zM578 975q59 1 100 69t41 174t-88 105q-59 0 -101 -68t-45 -172q1 -108 93 -108zM240 1079q0 201 122 320q124 119 276 119t242 -79t89 -225
q0 -198 -123 -316q-122 -118 -274 -118t-242 79t-90 220zM209 -82l1313 1681h266l-1311 -1681h-268z" />
    <glyph glyph-name="uni2032" unicode="&#x2032;" horiz-adv-x="595" 
d="M166 987l168 580h371l-297 -580h-242z" />
    <glyph glyph-name="uni2033" unicode="&#x2033;" horiz-adv-x="1056" 
d="M166 987l168 580h371l-297 -580h-242zM627 987l170 580h368l-295 -580h-243z" />
    <glyph glyph-name="guilsinglleft" unicode="&#x2039;" horiz-adv-x="638" 
d="M377 950h270l-270 -422l112 -411h-272l-129 418z" />
    <glyph glyph-name="guilsinglright" unicode="&#x203a;" horiz-adv-x="618" 
d="M266 117h-270l270 422l-110 411h270l127 -415z" />
    <glyph glyph-name="fraction" unicode="&#x2044;" horiz-adv-x="641" 
d="M-496 -82l1422 1681h250l-1422 -1681h-250z" />
    <glyph glyph-name="Euro" unicode="&#x20ac;" horiz-adv-x="1495" 
d="M772 -27q-264 1 -405 141t-152 398h-162l33 164h135q6 68 23 153h-133l32 164h144q86 248 261 398q175 151 433 147t390 -124t116 -367h-385q16 90 -18 153t-123 66q-180 2 -279 -273h317l-32 -164h-330q-16 -80 -23 -153h328l-33 -164h-303q0 -262 189 -262
q176 0 217 201h389q-33 -213 -199 -345t-430 -133z" />
    <glyph glyph-name="trademark" unicode="&#x2122;" horiz-adv-x="1476" 
d="M680 940l121 627h266l31 -297l6 -101h6q14 45 41 101l141 297h295l-121 -627h-168l86 444h-6q-25 -55 -63 -127l-166 -317h-156l-45 315l-12 129h-6l-86 -444h-164zM539 1413l-93 -473h-170l93 473h-181l29 154h531l-29 -154h-180z" />
    <glyph glyph-name="onethird" unicode="&#x2153;" horiz-adv-x="1935" 
d="M1468 369h-118l32 151h97q57 0 94 33t37 76q0 80 -88 81t-111 -92h-268q15 117 117 198t271 81t258 -59t89 -158q0 -178 -197 -225v-4q152 -45 152 -183t-111 -213q-111 -73 -292 -73t-277 72t-84 210h262q-2 -44 27 -68t82 -24t85 33t31 82q0 82 -88 82zM70 -82
l1421 1681h250l-1422 -1681h-249zM268 1419q188 0 213 148h252l-186 -883h-273l117 549h-196l38 186h35z" />
    <glyph glyph-name="twothirds" unicode="&#x2154;" horiz-adv-x="2166" 
d="M1563 264q-4 -92 108 -92q53 0 85 33t32 82q0 82 -88 82h-119l33 151h96q57 0 94 33t37 76q0 80 -89 81t-110 -92h-268q16 117 118 198t270 81q170 0 258 -59t89 -158q0 -178 -196 -225v-4q151 -45 151 -183t-110 -213q-110 -73 -292 -73q-181 0 -278 71q-96 72 -84 211
h263zM322 -82l1421 1681h250l-1422 -1681h-249zM651 1581q143 0 229 -60t87 -170q-1 -110 -57 -184t-158 -145l-197 -139v-4h342l-37 -195h-758l29 137l414 320q123 96 142 123q19 26 19 60t-24 54q-25 20 -64 21q-98 0 -110 -123h-270q39 305 413 305z" />
    <glyph glyph-name="oneeighth" unicode="&#x215b;" horiz-adv-x="1918" 
d="M1427 147q51 0 87 35q36 36 36 90q0 104 -98 103q-68 0 -100 -39t-31 -92q0 -97 106 -97zM1606 643q0 80 -95 80q-48 0 -76 -34t-28 -79q0 -82 90 -82q45 0 77 30t32 85zM1151 633q1 115 103 189t268 75q166 0 252 -59q86 -58 86 -154t-50 -147t-145 -80v-6
q158 -49 158 -181q-1 -132 -101 -211q-100 -78 -307 -77q-371 0 -371 237q0 188 213 244v6q-106 49 -106 164zM68 -82l1421 1681h250l-1422 -1681h-249zM268 1419q188 0 213 148h252l-186 -883h-273l117 549h-196l38 186h35z" />
    <glyph glyph-name="threeeighths" unicode="&#x215c;" horiz-adv-x="2101" 
d="M1610 147q51 0 87 35q36 36 36 90q0 104 -99 103q-68 0 -100 -39t-31 -92q1 -97 107 -97zM1788 643q0 80 -95 80q-48 0 -76 -34t-28 -79q0 -82 90 -82q45 0 77 30t32 85zM1704 897q166 0 252 -59q86 -58 86 -154t-50 -147t-145 -80v-6q158 -49 158 -181t-100 -211
q-100 -78 -308 -77q-371 0 -370 237q0 188 213 244v6q-106 49 -106 164t102 189t268 75zM287 -82l1421 1681h250l-1421 -1681h-250zM573 1053h-118l32 151h97q57 0 94 33t37 76q0 80 -89 81t-110 -91h-268q16 117 118 197t270 81q169 0 258 -59t89 -158q0 -178 -197 -225v-4
q152 -45 152 -183t-111 -213q-111 -73 -292 -73t-277 72t-84 210h262q-2 -44 27 -68t82 -24t85 33t32 82q-1 82 -89 82z" />
    <glyph glyph-name="fiveeighths" unicode="&#x215d;" horiz-adv-x="2082" 
d="M1591 147q51 0 87 35q36 36 36 90q0 104 -98 103q-68 0 -100 -39t-31 -92q0 -97 106 -97zM1674 723q-48 0 -76 -34t-27 -79q0 -82 90 -82q45 0 77 30t31 85q0 80 -95 80zM1315 633q1 115 103 189t268 75q166 0 252 -59q86 -58 85 -154q0 -96 -50 -147t-144 -80v-6
q158 -49 158 -181q-1 -132 -101 -211q-100 -78 -307 -77q-371 0 -371 237q0 188 213 244v6q-106 49 -106 164zM260 -82l1421 1681h250l-1421 -1681h-250zM670 995q0 98 -101 99q-66 0 -131 -62h-225l152 535h630l-43 -207h-424l-51 -176h6q91 80 215 80t184 -62t60 -170
q0 -178 -116 -272t-304 -94t-277 68t-75 212h264q0 -94 103 -94q57 0 95 38t38 105z" />
    <glyph glyph-name="seveneighths" unicode="&#x215e;" horiz-adv-x="1951" 
d="M1460 147q51 0 87 35q36 36 36 90t-27 78t-83 25q-56 0 -88 -39t-31 -92q0 -97 106 -97zM1543 723q-48 0 -76 -34t-27 -79q0 -82 90 -82q45 0 77 30t31 85q0 80 -95 80zM1184 633q0 115 102 189t269 75q165 0 251 -59q86 -58 86 -154t-50 -147t-144 -80v-6
q158 -49 158 -181t-101 -211q-100 -78 -307 -77q-371 0 -371 237q0 188 213 244v6q-106 49 -106 164zM61 -82l1422 1681h250l-1422 -1681h-250zM168 684l455 680h-400l45 203h717l-31 -144l-499 -739h-287z" />
    <glyph glyph-name="minus" unicode="&#x2212;" horiz-adv-x="1269" 
d="M160 594l53 278h983l-53 -278h-983z" />
    <glyph glyph-name="approxequal" unicode="&#x2248;" horiz-adv-x="1296" 
d="M842 633q98 0 102 90h238q-41 -377 -351 -377q-71 0 -207 40t-182 40q-84 0 -102 -90h-242q16 174 112 275t257 102q70 0 200 -40t175 -40zM557 1159q70 0 200 -40t175 -40q98 0 102 90h238q-41 -377 -350 -376q-70 0 -207 40t-183 39q-84 0 -102 -90h-242
q16 174 112 276t257 101z" />
    <glyph glyph-name="notequal" unicode="&#x2260;" horiz-adv-x="1269" 
d="M532 362l-124 -200h-203l125 200h-215l53 279h338l104 168h-409l55 278h528l136 216h202l-135 -216h252l-55 -278h-371l-104 -168h442l-53 -279h-566z" />
    <glyph glyph-name="lessequal" unicode="&#x2264;" horiz-adv-x="1296" 
d="M1055 0h-1028l53 279h1028zM1118 340l-928 528l35 168l1131 531l-66 -344l-645 -287l531 -297z" />
    <glyph glyph-name="greaterequal" unicode="&#x2265;" horiz-adv-x="1296" 
d="M1077 0h-1026l53 279h1026zM348 1567l926 -520l-33 -173l-1128 -530l65 340l645 291l-532 295z" />
    <glyph glyph-name="uni24C5" unicode="&#x24c5;" horiz-adv-x="1804" 
d="M977 784q145 0 145 160q0 94 -102 94h-84l-49 -254h90zM1065 1223q152 0 238 -68t86 -201q0 -176 -113 -267t-297 -91h-129l-49 -252h-252l170 879h346zM950 84q289 0 483 200q193 200 193 494t-193 496q-194 201 -483 201q-290 0 -482 -200t-192 -496q0 -295 192 -495
t482 -200zM143 778q1 346 231 580t576 233q346 0 578 -233q232 -232 231 -578q0 -346 -231 -579q-232 -233 -578 -233t-576 232t-231 578z" />
    <glyph glyph-name="quotedblright.sc" horiz-adv-x="1103" 
d="M164 739l188 580h369l-313 -580h-244zM627 739l186 580h371l-316 -580h-241z" />
    <glyph glyph-name="Ibreve.sc" horiz-adv-x="659" 
d="M534 1470q-156 0 -243 102q-86 102 -49 277h237q-13 -61 11 -94t73 -33q109 0 133 127h250q-20 -193 -138 -286t-274 -93zM45 0l262 1319h387l-262 -1319h-387z" />
    <glyph glyph-name="exclamdown.uc" horiz-adv-x="716" 
d="M362 1567h414l-67 -348h-414zM614 1063l-141 -1108h-455l316 1108h280z" />
    <glyph glyph-name="hyphen.uc" horiz-adv-x="870" 
d="M117 567l57 297h670l-58 -297h-669z" />
    <glyph glyph-name="endash.uc" horiz-adv-x="1034" 
d="M119 578l53 276h834l-54 -276h-833z" />
    <glyph glyph-name="emdash.uc" horiz-adv-x="1812" 
d="M121 584l51 264h1612l-51 -264h-1612z" />
    <glyph glyph-name="guilsinglleft.uc" horiz-adv-x="600" 
d="M379 1073h270l-270 -422l113 -411h-273l-129 417z" />
    <glyph glyph-name="guilsinglright.uc" horiz-adv-x="600" 
d="M301 240h-270l270 422l-111 411h271l127 -416z" />
    <glyph glyph-name="guillemotleft.uc" horiz-adv-x="1052" 
d="M377 1073h270l-270 -422l112 -411h-272l-129 417zM831 1073h269l-271 -422l111 -411h-268l-129 417z" />
    <glyph glyph-name="guillemotright.uc" horiz-adv-x="1073" 
d="M774 240h-270l270 422l-110 411h270l127 -416zM301 240h-270l272 422l-113 411h271l125 -416z" />
    <glyph glyph-name="parenleft.uc" horiz-adv-x="747" 
d="M436 441q0 -345 121 -646h-268q-187 326 -187 680q0 355 155 661t386 539h299q-244 -301 -375 -595t-131 -639z" />
    <glyph glyph-name="parenright.uc" horiz-adv-x="747" 
d="M696 995q0 -354 -154 -660t-386 -540h-299q244 301 374 595q131 294 131 639t-120 646h268q186 -326 186 -680z" />
    <glyph glyph-name="space_uni0326" horiz-adv-x="741" 
d="M-10 -467l119 340h370l-223 -340h-266z" />
    <glyph glyph-name="grave.uc" horiz-adv-x="741" 
d="M694 1966l78 -272h-283l-161 272h366z" />
    <glyph glyph-name="bracketleft.uc" horiz-adv-x="811" 
d="M29 -205l366 1880h580l-45 -229h-264l-277 -1421h264l-45 -230h-579z" />
    <glyph glyph-name="bracketright.uc" horiz-adv-x="811" 
d="M862 1675l-366 -1880h-578l43 230h264l277 1421h-264l45 229h579z" />
    <glyph glyph-name="braceleft.uc" horiz-adv-x="894" 
d="M174 608h-65l51 262h65q65 0 89 27t38 104l54 279q49 252 204 342q156 90 439 61l-43 -221q-152 8 -218 -44t-88 -175l-45 -242q-20 -113 -69 -172t-148 -75v-9q160 -43 111 -288l-41 -205q-27 -125 21 -182t206 -62l-43 -221q-288 11 -410 117t-73 360l41 213
q24 131 -76 131z" />
    <glyph glyph-name="braceright.uc" horiz-adv-x="894" 
d="M803 870h65l-51 -262h-65q-66 0 -90 -26t-37 -105l-54 -278q-49 -252 -205 -342t-438 -62l43 221q151 -8 217 44t88 176l46 241q20 113 69 172t148 76v8q-160 43 -111 289l41 205q27 125 -21 182t-206 61l43 222q289 -10 411 -116t72 -362l-41 -213q-24 -131 76 -131z
" />
    <glyph glyph-name="slash.uc" horiz-adv-x="1148" 
d="M-190 -205l1259 1880h301l-1261 -1880h-299z" />
    <glyph glyph-name="backslash.uc" horiz-adv-x="1148" 
d="M778 -205l-545 1880h283l545 -1880h-283z" />
    <glyph glyph-name="bar.uc" horiz-adv-x="579" 
d="M6 -205l367 1880h256l-367 -1880h-256z" />
    <glyph glyph-name="acute.uc" horiz-adv-x="741" 
d="M416 1694l166 272h374l-249 -272h-291z" />
    <glyph glyph-name="at.uc" horiz-adv-x="2066" 
d="M1040 473q61 0 114 59q52 59 71 158l18 92q18 90 -12 148q-31 57 -92 57q-98 0 -154 -111q-55 -112 -55 -237q-1 -166 110 -166zM1536 254q-129 0 -205 53t-88 154h-6q-106 -199 -317 -199q-146 0 -232 102t-86 275q0 221 130 388t331 167q92 0 150 -40t81 -99h4l23 106
h319l-124 -571q-37 -172 86 -172q100 0 185 122t89 341q4 291 -183 469t-495 178q-350 0 -606 -260t-262 -616t190 -553q196 -195 509 -195q314 0 542 172l82 -94q-266 -213 -643 -213t-611 237q-233 238 -225 625q8 449 308 741t728 291q372 0 606 -214t228 -545
q-6 -330 -152 -490t-356 -160z" />
    <glyph glyph-name="f.short" horiz-adv-x="757" 
d="M805 1628q88 0 162 -14l22 -4l-51 -262q-28 4 -90 4q-131 0 -158 -138l-20 -106h188l-53 -272h-189l-161 -836h-383l161 836h-131l54 272h131l18 96q47 242 167 333t333 91z" />
    <glyph glyph-name="f_f.short" horiz-adv-x="1476" 
d="M797 1591q101 0 168 -14l-52 -262h-53q-82 0 -123 -32t-55 -105l-14 -70h338l18 96q47 242 167 333t333 91q94 0 184 -18l-51 -262q-29 4 -91 4q-131 0 -157 -138l-20 -106h188l-53 -272h-189l-161 -836h-383l161 836h-336l-161 -836h-383l161 836h-131l54 272h129l12 59
q47 242 167 333t333 91z" />
    <glyph glyph-name="macron.uc" horiz-adv-x="741" 
d="M231 1702l48 246h741l-47 -246h-742z" />
    <glyph glyph-name="circumflex.uc" horiz-adv-x="741" 
d="M813 1966l166 -272h-256l-105 92h-2l-133 -92h-260l273 272h317z" />
    <glyph glyph-name="caron.uc" horiz-adv-x="741" 
d="M442 1694l-166 272h252l105 -92h2l135 92h262l-272 -272h-318z" />
    <glyph glyph-name="breve.uc" horiz-adv-x="741" 
d="M635 1874q51 0 87 33t50 86h240q-27 -178 -138 -259t-264 -81q-152 0 -242 91t-61 249h225q-4 -53 24 -86t79 -33z" />
    <glyph glyph-name="caron.alt" horiz-adv-x="741" 
d="M387 1204l80 410h295l-201 -410h-174z" />
    <glyph glyph-name="dotaccent.uc" horiz-adv-x="741" 
d="M442 1702l64 321h321l-63 -321h-322z" />
    <glyph glyph-name="ring.uc" horiz-adv-x="741" 
d="M610 2009q-57 0 -90 -40t-33 -96q0 -112 101 -112q51 0 85 40t34 104q-1 104 -97 104zM593 1618q-126 0 -208 60t-82 185t87 209t220 85q133 0 208 -67q75 -66 75 -186t-87 -203t-213 -83z" />
    <glyph glyph-name="sterling.tab" horiz-adv-x="1204" 
d="M801 1540q510 0 448 -457h-354q29 190 -117 191q-172 0 -133 -309l17 -136h393l-43 -225h-330q-8 -88 -54 -149t-145 -127l-22 -15v-4h651l-59 -309h-1069l41 215l57 33q131 76 194 154t60 202h-250l43 225h174l-12 78q-45 285 80 459t430 174z" />
    <glyph glyph-name="tilde.uc" horiz-adv-x="741" 
d="M514 2009q63 0 139 -46t120 -46t69 18t41 74h168q-9 -145 -91 -241t-200 -97q-86 0 -171 46t-118 46q-68 0 -111 -92h-163q10 129 97 233t220 105z" />
    <glyph glyph-name="cent.tab" 
d="M846 436h364q-20 -225 -185 -344t-402 -123l-41 -207h-146l43 218q-186 28 -300 142t-113 329q0 303 168 490q169 187 468 194l33 165h146l-35 -176q195 -30 301 -146t98 -300h-383q10 162 -63 205l-131 -674q147 28 178 227zM526 229l131 668q-102 -35 -154 -172
q-53 -137 -53 -293t76 -203z" />
    <glyph glyph-name="plus.tab" 
d="M778 594l-78 -406h-311l78 406h-373l53 278h375l78 402h311l-77 -402h376l-53 -278h-379z" />
    <glyph glyph-name="minus.tab" 
d="M135 594l53 278h983l-53 -278h-983z" />
    <glyph glyph-name="multiply.tab" 
d="M242 168l-189 240l375 319l-276 346l254 213l270 -344l364 320l191 -244l-369 -313l271 -345l-256 -215l-265 347z" />
    <glyph glyph-name="divide.tab" 
d="M711 115h-369l68 346h368zM129 594l53 278h983l-53 -278h-983zM514 999l68 347h368l-67 -347h-369z" />
    <glyph glyph-name="equal.tab" 
d="M1067 362h-983l53 279h983zM170 809l55 278h983l-55 -278h-983z" />
    <glyph glyph-name="less.tab" 
d="M1022 74l-928 528l35 168l1131 530l-66 -344l-645 -286l530 -297z" />
    <glyph glyph-name="greater.tab" 
d="M248 1296l926 -520l-33 -172l-1129 -530l66 340l645 291l-533 294z" />
    <glyph glyph-name="florin.tab" 
d="M1094 1339q-64 0 -113 -43t-76 -176l-33 -155h215l-49 -273h-223l-227 -1079h-377l219 1079h-235l49 273h243l31 155q60 289 190 399t328 109l170 -12l-22 -283q-26 6 -90 6z" />
    <glyph glyph-name="plusminus.tab" 
d="M-25 0l54 279h1063l-54 -279h-1063zM807 778l-64 -323h-299l64 323h-383l55 279h381l62 319h299l-62 -319h383l-55 -279h-381z" />
    <glyph glyph-name="notequal.tab" 
d="M506 362l-125 -200h-203l125 200h-215l53 279h338l105 168h-410l55 278h529l135 216h203l-135 -216h251l-55 -278h-371l-104 -168h442l-53 -279h-565z" />
    <glyph glyph-name="approxequal.tab" 
d="M807 633q98 0 102 90h238q-41 -377 -350 -377q-70 0 -207 40t-182 40q-84 0 -103 -90h-242q15 174 111 275t258 102q70 0 200 -40t175 -40zM522 1159q70 0 200 -40t175 -40q98 0 102 90h238q-41 -377 -350 -376q-70 0 -207 40t-182 39q-84 0 -103 -90h-241
q16 174 111 276t257 101z" />
    <glyph glyph-name="lessequal.tab" 
d="M1030 0h-1028l53 279h1028zM1094 340l-928 528l35 168l1130 531l-65 -344l-645 -287l530 -297z" />
    <glyph glyph-name="greaterequal.tab" 
d="M1028 0h-1026l53 279h1026zM299 1567l926 -520l-33 -173l-1129 -530l66 340l645 291l-532 295z" />
    <glyph glyph-name="period.tab" horiz-adv-x="614" 
d="M61 0l70 367h391l-69 -367h-392z" />
    <glyph glyph-name="comma.tab" horiz-adv-x="614" 
d="M-31 -240l185 607h385l-312 -607h-258z" />
    <glyph glyph-name="colon.tab" horiz-adv-x="614" 
d="M391 0h-383l70 367h383zM145 713l72 366h383l-72 -366h-383z" />
    <glyph glyph-name="semicolon.tab" horiz-adv-x="614" 
d="M147 -240h-258l185 607h385zM156 713l71 366h383l-71 -366h-383z" />
    <glyph glyph-name="hungarumlaut.uc" horiz-adv-x="876" 
d="M342 1694l86 272h289l-154 -272h-221zM700 1694l127 272h289l-194 -272h-222z" />
    <glyph glyph-name="currency.tab" 
d="M455 713q1 -74 43 -120t113 -46t114 46t43 120t-43 121t-114 47t-113 -47t-43 -121zM225 712q0 83 29 156l-219 215l209 209l215 -221q69 29 149 29t158 -31l217 223l209 -209l-223 -219q29 -70 29 -152t-29 -151l225 -219l-209 -209l-219 223q-149 -58 -307 -2
l-215 -221l-209 209l219 213q-29 74 -29 157z" />
    <glyph glyph-name="percent.tab" horiz-adv-x="1843" 
d="M1229 284q0 -108 102 -108q53 0 92 67t39 167q0 123 -94 122q-59 0 -99 -70t-40 -178zM1698 416q0 -198 -118 -314t-266 -116q-150 0 -236 75q-85 76 -85 220q0 203 118 323t269 119q150 0 234 -80t84 -227zM459 1079q0 -108 96 -108q59 1 98 67t39 166q0 123 -94 123
q-59 0 -99 -70t-40 -178zM223 1075q0 203 118 323t269 120q150 0 234 -80t84 -228q0 -198 -118 -314t-267 -116t-235 76q-85 76 -85 219zM180 -82l1313 1681h266l-1310 -1681h-269z" />
    <glyph glyph-name="perthousand.tab" horiz-adv-x="2457" 
d="M1225 180q51 0 90 66t39 162q0 121 -92 120q-59 0 -99 -67q-39 -69 -39 -145t25 -106t76 -30zM2040 180q51 0 90 66t39 162q0 121 -92 120q-59 0 -99 -67q-39 -69 -39 -145t25 -106t76 -30zM1206 -14q-152 0 -236 74q-85 74 -85 216q0 203 119 325t268 122t235 -82
t86 -229q0 -199 -117 -313q-118 -113 -270 -113zM2022 -14q-152 0 -237 74t-85 216q0 203 119 325t268 122t235 -82t86 -229q0 -199 -117 -313q-117 -113 -269 -113zM502 1323q-58 0 -98 -68t-40 -174t101 -106q51 -1 90 65t39 162q0 121 -92 121zM125 1071q0 203 119 325
t268 122q150 0 236 -82t86 -230q0 -198 -118 -312t-270 -114t-236 75q-85 75 -85 216zM78 -82l1313 1681h266l-1311 -1681h-268z" />
    <glyph glyph-name="idotaccent" horiz-adv-x="610" 
d="M10 0l215 1108h393l-215 -1108h-393zM256 1268l68 346h393l-68 -346h-393z" />
    <glyph glyph-name="A.sc" horiz-adv-x="1380" 
d="M899 0l-35 233h-448l-113 -233h-364l686 1319h430l223 -1319h-379zM778 986v58h-6q-23 -90 -82 -213l-158 -356h297l-38 344q-13 127 -13 167z" />
    <glyph glyph-name="AE.sc" horiz-adv-x="2029" 
d="M885 0l53 268h-408l-176 -268h-436l930 1319h1220l-57 -268h-532l-54 -267h527l-56 -262h-524l-49 -258h557l-53 -264h-942zM987 518l107 533h-54q-63 -98 -131 -201l-217 -332h295z" />
    <glyph glyph-name="B.sc" horiz-adv-x="1359" 
d="M700 246q92 0 147 46q54 46 54 126q0 137 -166 137h-194l-64 -309h223zM768 780q96 0 134 51t38 115q0 127 -160 127h-137l-57 -293h182zM719 0h-674l262 1319h533q473 0 473 -305q0 -258 -309 -322v-8q262 -55 262 -278q0 -194 -144 -300t-403 -106z" />
    <glyph glyph-name="C.sc" horiz-adv-x="1425" 
d="M850 1071q-94 0 -166 -93q-139 -180 -139 -521q0 -219 166 -219t221 235h411q-37 -244 -209 -372t-438 -128q-268 0 -421 119t-152 371q0 393 193 634q194 241 573 240q249 -1 393 -129t121 -374h-404q13 92 -21 164t-128 73z" />
    <glyph glyph-name="D.sc" horiz-adv-x="1419" 
d="M590 268q164 0 272 131t109 400q0 129 -68 192t-184 64h-78l-154 -787h103zM803 1319q264 0 422 -143t157 -400q0 -342 -204 -559t-570 -217h-563l262 1319h496z" />
    <glyph glyph-name="Dcroat.sc" horiz-adv-x="1419" 
d="M590 268q164 0 272 131t109 400q0 129 -68 192t-184 64h-78l-55 -281h217l-49 -231h-213l-54 -275h103zM608 0h-563l109 543h-117l47 231h115l108 545h496q264 0 422 -143t157 -400q0 -342 -204 -559t-570 -217z" />
    <glyph glyph-name="E.sc" horiz-adv-x="1187" 
d="M45 0l262 1319h920l-58 -268h-528l-53 -267h520l-53 -262h-518l-52 -258h557l-53 -264h-944z" />
    <glyph glyph-name="Eng.sc" horiz-adv-x="1421" 
d="M668 -303h-136l60 258h76q139 0 178 78l-215 547q-43 105 -74 215l-6 28h-6l-158 -823h-342l262 1319h391l189 -559q41 -117 61 -215l6 -29h7l153 803h342l-233 -1182q-51 -260 -174 -350t-381 -90z" />
    <glyph glyph-name="Eth.sc" horiz-adv-x="1419" 
d="M590 268q164 0 272 131t109 400q0 129 -68 192t-184 64h-78l-55 -281h217l-49 -231h-213l-54 -275h103zM608 0h-563l109 543h-117l47 231h115l108 545h496q264 0 422 -143t157 -400q0 -342 -204 -559t-570 -217z" />
    <glyph glyph-name="F.sc" horiz-adv-x="1130" 
d="M526 471l-94 -471h-387l262 1319h895l-57 -268h-504l-61 -314h493l-53 -266h-494z" />
    <glyph glyph-name="G.sc" horiz-adv-x="1458" 
d="M125 457q0 409 214 647t544 233q246 -2 397 -108t139 -344h-389q4 96 -42 150q-46 55 -135 55t-166 -94q-150 -182 -159 -519q-6 -254 188 -257t263 249l8 31h-233l47 231h606l-145 -731h-304l33 168h-6q-37 -82 -136 -139t-237 -58q-233 0 -360 131t-127 355z" />
    <glyph glyph-name="H.sc" horiz-adv-x="1460" 
d="M535 516l-103 -516h-387l262 1319h387l-104 -528h411l105 528h389l-262 -1319h-389l102 516h-411z" />
    <glyph glyph-name="I.sc" horiz-adv-x="659" 
d="M45 0l262 1319h387l-262 -1319h-387z" />
    <glyph glyph-name="IJ.sc" horiz-adv-x="1423" 
d="M723 -6h-119l62 289h67q98 0 131 41t56 153l170 842h380l-176 -885q-55 -258 -183 -349t-388 -91zM51 0l262 1319h387l-262 -1319h-387z" />
    <glyph glyph-name="J.sc" horiz-adv-x="872" 
d="M172 -6h-172l61 289h121q98 0 131 41t56 153l170 842h381l-177 -885q-53 -258 -182 -349t-389 -91z" />
    <glyph glyph-name="K.sc" horiz-adv-x="1376" 
d="M508 403l-80 -403h-383l262 1319h383l-98 -498l469 498h430l-582 -576l326 -743h-397l-217 520z" />
    <glyph glyph-name="L.sc" horiz-adv-x="1116" 
d="M45 0l262 1319h387l-207 -1043h504l-55 -276h-891z" />
    <glyph glyph-name="M.sc" horiz-adv-x="1796" 
d="M45 0l262 1319h524l58 -553l14 -221h4q35 98 86 209l264 565h574l-262 -1319h-367l191 967h-7q-63 -143 -155 -332l-311 -635h-263l-63 635q-16 164 -16 287l2 43h-7l-190 -965h-338z" />
    <glyph glyph-name="N.sc" horiz-adv-x="1421" 
d="M45 0l262 1319h391l189 -559q41 -117 61 -215l6 -29h7l153 803h342l-262 -1319h-348l-215 580q-49 123 -70 223l-8 31h-6l-160 -834h-342z" />
    <glyph glyph-name="O.sc" horiz-adv-x="1492" 
d="M1022 842q0 238 -174 237q-104 0 -177 -105q-130 -187 -128 -505q0 -238 178 -238q96 -1 168 101q133 188 133 510zM125 505q0 128 16 224t66 209q49 113 127 199t213 143t281 57q146 -1 247 -31q365 -111 365 -546q0 -204 -82 -390q-49 -112 -126 -197t-212 -142
q-136 -57 -282 -57t-243 26q-97 27 -185 86q-87 59 -136 175t-49 244z" />
    <glyph glyph-name="OE.sc" horiz-adv-x="2013" 
d="M807 1335q225 0 309 -125h4l19 109h913l-55 -268h-527l-53 -267h518l-53 -262h-516l-51 -258h555l-55 -264h-938l18 104h-6q-109 -123 -301 -122q-131 0 -216 48q-86 48 -134 105t-80 159q-33 102 -31 234q2 350 188 578t492 229zM727 231q84 0 153 73t99 206l43 217
q51 352 -168 352q-86 0 -149 -61q-63 -62 -95 -160q-62 -189 -63 -389q0 -238 180 -238z" />
    <glyph glyph-name="Oslash.sc" horiz-adv-x="1492" 
d="M680 -27q-231 0 -377 111l-131 -127h-215l246 240q-80 133 -80 340t84 394q51 116 131 203t220 145t342 58t353 -120l158 151h217l-274 -266q84 -133 84 -307t-42 -307q-42 -134 -100 -216q-57 -82 -137 -150t-204 -109q-124 -40 -275 -40zM702 231q112 1 189 93
q142 168 153 479l-499 -484q45 -88 157 -88zM854 1079q-84 0 -150 -55q-116 -97 -163 -331q-21 -97 -25 -193l502 485q-47 94 -164 94z" />
    <glyph glyph-name="P.sc" horiz-adv-x="1300" 
d="M707 680q109 0 169 64t60 178q0 68 -45 104t-119 37h-131l-76 -383h142zM676 414h-164l-80 -414h-387l262 1319h502q227 0 367 -97t139 -286q0 -254 -179 -388t-460 -134z" />
    <glyph glyph-name="Q.sc" horiz-adv-x="1492" 
d="M1024 818q0 263 -174 261q-80 0 -141 -60q-61 -59 -97 -155q-70 -187 -69 -395q0 -242 182 -242q94 1 164 95t102 231q33 137 33 265zM692 -23h-10q-220 0 -378 114q-83 60 -131 175t-48 242t17 223t67 209q49 113 127 198t213 142t281 57q146 -1 245 -31
q365 -111 365 -544q0 -232 -91 -400t-247 -258v-10q82 -28 125 -70t78 -124l-332 -166q-61 127 -123 185t-158 58z" />
    <glyph glyph-name="R.sc" horiz-adv-x="1374" 
d="M780 1319q558 0 557 -385q0 -303 -311 -412v-4l227 -518h-403l-193 469h-133l-94 -469h-385l262 1319h473zM707 711q106 0 173 54t66 161q0 150 -209 149h-94l-72 -364h136z" />
    <glyph glyph-name="S.sc" horiz-adv-x="1271" 
d="M612 233q88 0 137 39q48 40 48 94t-26 83t-91 47l-139 34q-195 52 -270 140t-74 229q0 211 153 325q154 114 398 113q382 0 479 -196q37 -76 30 -180h-393q0 115 -139 114q-70 0 -111 -33t-41 -86q0 -54 32 -78t102 -42l157 -41q190 -51 258 -130t68 -212
q0 -219 -161 -351t-432 -131q-271 -1 -415 101t-131 309h400q1 -70 37 -109t124 -39z" />
    <glyph glyph-name="T.sc" horiz-adv-x="1243" 
d="M928 1036l-207 -1036h-393l207 1036h-361l59 283h1106l-57 -283h-354z" />
    <glyph glyph-name="Tbar.sc" horiz-adv-x="1243" 
d="M827 539l-106 -539h-393l106 539h-276l47 239h278l52 258h-361l59 283h1106l-57 -283h-354l-51 -258h274l-47 -239h-277z" />
    <glyph glyph-name="Thorn.sc" horiz-adv-x="1271" 
d="M653 252h-172l-49 -252h-387l262 1319h387l-51 -254h105q227 0 363 -91t136 -288q0 -434 -594 -434zM532 502h140q203 6 202 166q0 156 -192 155h-86z" />
    <glyph glyph-name="U.sc" horiz-adv-x="1390" 
d="M678 262q90 0 138 48t69 157l170 852h387l-176 -889q-90 -459 -621 -459q-297 0 -430 149t-86 382l164 817h393l-168 -821q-26 -124 22 -180t138 -56z" />
    <glyph glyph-name="V.sc" horiz-adv-x="1323" 
d="M365 0l-179 1319h379l74 -754l12 -209h6q27 90 82 209l351 754h383l-668 -1319h-440z" />
    <glyph glyph-name="W.sc" horiz-adv-x="1882" 
d="M1331 473h6q20 96 68 219l242 627h364l-559 -1319h-375l-33 674l-2 215h-6q-20 -74 -80 -219l-282 -670h-383l-84 1319h377l18 -606q4 -126 -8 -213l-2 -27h6q29 94 82 219l266 627h328l51 -612q12 -118 6 -205v-29z" />
    <glyph glyph-name="X.sc" horiz-adv-x="1359" 
d="M-57 0l573 705l-272 614h403l141 -373h5l258 373h422l-529 -645l305 -674h-411l-166 430h-4l-306 -430h-419z" />
    <glyph glyph-name="Y.sc" horiz-adv-x="1257" 
d="M342 0l115 573l-289 746h385l152 -469h4l305 469h391l-574 -784l-108 -535h-381z" />
    <glyph glyph-name="Z.sc" horiz-adv-x="1208" 
d="M223 1047l56 272h1009l-49 -246l-737 -799h583l-55 -274h-1046l51 246l737 801h-549z" />
    <glyph glyph-name="ampersand.sc" horiz-adv-x="1402" 
d="M1167 0q-106 0 -161 19t-115 81q-174 -127 -426 -127q-195 0 -311 89q-116 90 -115 254q0 164 89 256t249 167q-76 100 -76 222q0 178 131 275q130 97 310 99q180 3 288 -75t106 -208q-1 -130 -86 -212t-237 -152l125 -153q47 59 141 200h324q-39 -55 -140 -202
t-151 -207q35 -36 72 -50t98 -14l-51 -262h-64zM397 385q0 -135 155 -135q75 0 163 59l-207 252q-110 -66 -111 -176zM623 986q0 -60 67 -138q145 74 146 180q-2 43 -29 70q-27 26 -74 26t-79 -39t-31 -99z" />
    <glyph glyph-name="uni0237.sc" horiz-adv-x="872" 
d="M172 -6h-172l61 289h121q98 0 131 41t56 153l170 842h381l-177 -885q-53 -258 -182 -349t-389 -91z" />
    <glyph glyph-name="exclam.sc" horiz-adv-x="729" 
d="M461 0h-391l63 303h389zM217 428l102 891h439l-277 -891h-264z" />
    <glyph glyph-name="exclamdown.sc" horiz-adv-x="729" 
d="M367 1319h391l-64 -303h-389zM610 891l-102 -891h-438l276 891h264z" />
    <glyph glyph-name="germandbls.sc" horiz-adv-x="2543" 
d="M1884 233q88 0 136 39q48 40 48 94t-25 83q-26 29 -91 47l-140 34q-196 52 -270 140t-74 229q0 211 154 325t397 113q383 0 480 -196q37 -76 30 -180h-393q0 115 -139 114q-70 0 -111 -33t-41 -86q0 -54 32 -78t101 -42l158 -41q190 -51 258 -130t68 -212
q0 -219 -161 -351t-432 -131q-271 -1 -415 101t-131 309h399q2 -70 38 -109t124 -39zM612 233q88 0 137 39q48 40 48 94t-26 83t-91 47l-139 34q-195 52 -270 140t-74 229q0 211 153 325q154 114 398 113q382 0 479 -196q37 -76 30 -180h-393q0 115 -139 114q-70 0 -111 -33
t-41 -86q0 -54 32 -78t102 -42l157 -41q190 -51 258 -130t68 -212q0 -219 -161 -351t-432 -131q-271 -1 -415 101t-131 309h400q1 -70 37 -109t124 -39z" />
    <glyph glyph-name="question.sc" horiz-adv-x="1107" 
d="M270 0l64 303h389l-61 -303h-392zM1167 989q0 -201 -229 -346l-154 -96q-47 -29 -61 -101l-4 -18h-330l12 57q17 87 49 139t103 103l123 84q55 37 81 75q25 38 25 91q-1 111 -133 109q-67 0 -109 -47q-42 -46 -44 -134h-361q6 195 157 317t387 122t362 -95
q126 -94 126 -260z" />
    <glyph glyph-name="questiondown.sc" horiz-adv-x="1107" 
d="M909 1319l-63 -303h-389l61 303h391zM397 342q-1 -109 133 -109q66 1 109 47t45 134h360q-6 -195 -156 -317t-388 -122q-236 1 -362 95t-126 260q0 201 230 346l153 96q47 29 66 119h330l-13 -57q-18 -86 -49 -138t-102 -104l-123 -84q-55 -37 -81 -75t-26 -91z" />
    <glyph glyph-name="quotedblleft.sc" horiz-adv-x="1103" 
d="M684 1319l-186 -580h-371l315 580h242zM1147 1319l-189 -580h-368l313 580h244z" />
    <glyph glyph-name="space.tab" horiz-adv-x="614" 
 />
    <glyph glyph-name="quoteleft.sc" horiz-adv-x="647" 
d="M690 1319l-186 -580h-381l326 580h241z" />
    <glyph glyph-name="quoteright.sc" horiz-adv-x="647" 
d="M154 739l188 580h379l-324 -580h-243z" />
    <glyph glyph-name="Lslash.sc" horiz-adv-x="1116" 
d="M45 0l86 436l-145 -41l51 250l145 41l125 633h387l-102 -520l373 104l-52 -250l-372 -104l-54 -273h504l-55 -276h-891z" />
    <glyph glyph-name="AEacute.sc" horiz-adv-x="2029" 
d="M1221 1481l170 368h381l-250 -368h-301zM885 0l53 268h-408l-176 -268h-436l930 1319h1220l-57 -268h-532l-54 -267h527l-56 -262h-524l-49 -258h557l-53 -264h-942zM987 518l107 533h-54q-63 -98 -131 -201l-217 -332h295z" />
    <glyph glyph-name="Aacute.sc" horiz-adv-x="1380" 
d="M713 1481l170 368h381l-250 -368h-301zM899 0l-35 233h-448l-113 -233h-364l686 1319h430l223 -1319h-379zM778 986v58h-6q-23 -90 -82 -213l-158 -356h297l-38 344q-13 127 -13 167z" />
    <glyph glyph-name="Abreve.sc" horiz-adv-x="1380" 
d="M868 1470q-156 0 -243 102q-86 102 -50 277h238q-13 -61 11 -94t73 -33q109 0 133 127h250q-20 -193 -138 -286t-274 -93zM899 0l-35 233h-448l-113 -233h-364l686 1319h430l223 -1319h-379zM778 986v58h-6q-23 -90 -82 -213l-158 -356h297l-38 344q-13 127 -13 167z" />
    <glyph glyph-name="Acircumflex.sc" horiz-adv-x="1380" 
d="M1075 1849l154 -368h-238l-104 131l-144 -131h-249l297 368h284zM899 0l-35 233h-448l-113 -233h-364l686 1319h430l223 -1319h-379zM778 986v58h-6q-23 -90 -82 -213l-158 -356h297l-38 344q-13 127 -13 167z" />
    <glyph glyph-name="Adieresis.sc" horiz-adv-x="1380" 
d="M496 1528l63 321h322l-64 -321h-321zM928 1528l63 321h322l-64 -321h-321zM899 0l-35 233h-448l-113 -233h-364l686 1319h430l223 -1319h-379zM778 986v58h-6q-23 -90 -82 -213l-158 -356h297l-38 344q-13 127 -13 167z" />
    <glyph glyph-name="Agrave.sc" horiz-adv-x="1380" 
d="M983 1849l37 -368h-291l-117 368h371zM899 0l-35 233h-448l-113 -233h-364l686 1319h430l223 -1319h-379zM778 986v58h-6q-23 -90 -82 -213l-158 -356h297l-38 344q-13 127 -13 167z" />
    <glyph glyph-name="Amacron.sc" horiz-adv-x="1380" 
d="M502 1528l47 246h741l-47 -246h-741zM899 0l-35 233h-448l-113 -233h-364l686 1319h430l223 -1319h-379zM778 986v58h-6q-23 -90 -82 -213l-158 -356h297l-38 344q-13 127 -13 167z" />
    <glyph glyph-name="Aogonek.sc" horiz-adv-x="1380" 
d="M1130 -393q-154 0 -212 37q-58 36 -58 114t52 142t155 100h-168l-35 233h-448l-113 -233h-364l686 1319h430l223 -1319q-115 -66 -115 -133q0 -47 80 -47l-41 -213h-72zM778 986v58h-6q-23 -90 -82 -213l-158 -356h297l-38 344q-13 127 -13 167z" />
    <glyph glyph-name="Aring.sc" horiz-adv-x="1380" 
d="M920 1835q-56 0 -90 -40t-34 -96q1 -112 101 -112q51 0 85 40t34 104q0 104 -96 104zM902 1444q-126 0 -208 60t-82 185t87 209t221 84t208 -66t74 -186t-87 -203t-213 -83zM899 0l-35 233h-448l-113 -233h-364l686 1319h430l223 -1319h-379zM778 986v58h-6
q-23 -90 -82 -213l-158 -356h297l-38 344q-13 127 -13 167z" />
    <glyph glyph-name="uni01FA.sc" horiz-adv-x="1380" 
d="M803 2073l166 272h374l-249 -272h-291zM920 1835q-56 0 -90 -40t-34 -96q1 -112 101 -112q51 0 85 40t34 104q0 104 -96 104zM902 1444q-126 0 -208 60t-82 185t87 209t221 84t208 -66t74 -186t-87 -203t-213 -83zM899 0l-35 233h-448l-113 -233h-364l686 1319h430
l223 -1319h-379zM778 986v58h-6q-23 -90 -82 -213l-158 -356h297l-38 344q-13 127 -13 167z" />
    <glyph glyph-name="Atilde.sc" horiz-adv-x="1380" 
d="M1036 1757q74 0 123 92h168q-14 -153 -100 -261t-221 -107q-66 0 -144 46t-114 46q-74 0 -117 -92h-164q10 149 98 259t226 109q65 0 137 -46t108 -46zM899 0l-35 233h-448l-113 -233h-364l686 1319h430l223 -1319h-379zM778 986v58h-6q-23 -90 -82 -213l-158 -356h297
l-38 344q-13 127 -13 167z" />
    <glyph glyph-name="Cacute.sc" horiz-adv-x="1425" 
d="M784 1481l170 368h381l-250 -368h-301zM850 1071q-94 0 -166 -93q-139 -180 -139 -521q0 -219 166 -219t221 235h411q-37 -244 -209 -372t-438 -128q-268 0 -421 119t-152 371q0 393 193 634q194 241 573 240q249 -1 393 -129t121 -374h-404q13 92 -21 164t-128 73z" />
    <glyph glyph-name="Ccaron.sc" horiz-adv-x="1425" 
d="M756 1481l-154 368h238l98 -131l152 131h247l-297 -368h-284zM850 1071q-94 0 -166 -93q-139 -180 -139 -521q0 -219 166 -219t221 235h411q-37 -244 -209 -372t-438 -128q-268 0 -421 119t-152 371q0 393 193 634q194 241 573 240q249 -1 393 -129t121 -374h-404
q13 92 -21 164t-128 73z" />
    <glyph glyph-name="Ccedilla.sc" horiz-adv-x="1425" 
d="M862 -242q0 -106 -75 -170t-195 -63q-120 0 -189 43q-70 43 -59 131h180q4 -41 50 -41q84 0 85 68q0 53 -57 53q-39 0 -61 -29h-131l108 238q-395 74 -395 471t193 638q194 241 573 240q250 0 393 -129t121 -374h-404q13 92 -21 164t-128 73q-94 0 -166 -93
q-139 -180 -139 -521q0 -219 166 -219t221 235h411q-37 -244 -209 -372t-438 -128q-43 0 -63 2l-49 -112h4q57 41 122 41q64 0 108 -41t44 -105z" />
    <glyph glyph-name="Ccircumflex.sc" horiz-adv-x="1425" 
d="M1147 1849l153 -368h-237l-105 131l-143 -131h-250l297 368h285zM850 1071q-94 0 -166 -93q-139 -180 -139 -521q0 -219 166 -219t221 235h411q-37 -244 -209 -372t-438 -128q-268 0 -421 119t-152 371q0 393 193 634q194 241 573 240q249 -1 393 -129t121 -374h-404
q13 92 -21 164t-128 73z" />
    <glyph glyph-name="Cdotaccent.sc" horiz-adv-x="1425" 
d="M780 1528l64 321h321l-63 -321h-322zM850 1071q-94 0 -166 -93q-139 -180 -139 -521q0 -219 166 -219t221 235h411q-37 -244 -209 -372t-438 -128q-268 0 -421 119t-152 371q0 393 193 634q194 241 573 240q249 -1 393 -129t121 -374h-404q13 92 -21 164t-128 73z" />
    <glyph glyph-name="Dcaron.sc" horiz-adv-x="1419" 
d="M666 1481l-154 368h238l98 -131l151 131h248l-297 -368h-284zM590 268q164 0 272 131t109 400q0 129 -68 192t-184 64h-78l-154 -787h103zM803 1319q264 0 422 -143t157 -400q0 -342 -204 -559t-570 -217h-563l262 1319h496z" />
    <glyph glyph-name="Eacute.sc" horiz-adv-x="1187" 
d="M645 1481l170 368h381l-250 -368h-301zM45 0l262 1319h920l-58 -268h-528l-53 -267h520l-53 -262h-518l-52 -258h557l-53 -264h-944z" />
    <glyph glyph-name="Ecaron.sc" horiz-adv-x="1187" 
d="M616 1481l-153 368h237l99 -131l151 131h248l-297 -368h-285zM45 0l262 1319h920l-58 -268h-528l-53 -267h520l-53 -262h-518l-52 -258h557l-53 -264h-944z" />
    <glyph glyph-name="Ecircumflex.sc" horiz-adv-x="1187" 
d="M1008 1849l153 -368h-237l-105 131l-143 -131h-250l297 368h285zM45 0l262 1319h920l-58 -268h-528l-53 -267h520l-53 -262h-518l-52 -258h557l-53 -264h-944z" />
    <glyph glyph-name="Edieresis.sc" horiz-adv-x="1187" 
d="M428 1528l64 321h321l-63 -321h-322zM860 1528l64 321h321l-63 -321h-322zM45 0l262 1319h920l-58 -268h-528l-53 -267h520l-53 -262h-518l-52 -258h557l-53 -264h-944z" />
    <glyph glyph-name="Edotaccent.sc" horiz-adv-x="1187" 
d="M643 1528l64 321h321l-63 -321h-322zM45 0l262 1319h920l-58 -268h-528l-53 -267h520l-53 -262h-518l-52 -258h557l-53 -264h-944z" />
    <glyph glyph-name="Egrave.sc" horiz-adv-x="1187" 
d="M915 1849l37 -368h-290l-117 368h370zM45 0l262 1319h920l-58 -268h-528l-53 -267h520l-53 -262h-518l-52 -258h557l-53 -264h-944z" />
    <glyph glyph-name="Emacron.sc" horiz-adv-x="1187" 
d="M434 1528l47 246h742l-47 -246h-742zM45 0l262 1319h920l-58 -268h-528l-53 -267h520l-53 -262h-518l-52 -258h557l-53 -264h-944z" />
    <glyph glyph-name="Eogonek.sc" horiz-adv-x="1187" 
d="M842 -393q-154 0 -212 37q-58 36 -58 114t52 142t154 100h-733l262 1319h920l-58 -268h-528l-53 -267h520l-53 -262h-518l-52 -258h557l-53 -264q-115 -66 -115 -133q0 -47 80 -47l-41 -213h-71z" />
    <glyph glyph-name="Gbreve.sc" horiz-adv-x="1458" 
d="M936 1470q-156 0 -242 102t-49 277h238q-13 -61 11 -94t73 -33q109 0 133 127h250q-20 -193 -138 -286q-120 -93 -276 -93zM125 457q0 409 214 647t544 233q246 -2 397 -108t139 -344h-389q4 96 -42 150q-46 55 -135 55t-166 -94q-150 -182 -159 -519q-6 -254 188 -257
t263 249l8 31h-233l47 231h606l-145 -731h-304l33 168h-6q-37 -82 -136 -139t-237 -58q-233 0 -360 131t-127 355z" />
    <glyph glyph-name="Gcircumflex.sc" horiz-adv-x="1458" 
d="M1147 1849l153 -368h-237l-105 131l-143 -131h-250l297 368h285zM125 457q0 409 214 647t544 233q246 -2 397 -108t139 -344h-389q4 96 -42 150q-46 55 -135 55t-166 -94q-150 -182 -159 -519q-6 -254 188 -257t263 249l8 31h-233l47 231h606l-145 -731h-304l33 168h-6
q-37 -82 -136 -139t-237 -58q-233 0 -360 131t-127 355z" />
    <glyph glyph-name="Gcommaaccent.sc" horiz-adv-x="1458" 
d="M338 -467l119 340h370l-223 -340h-266zM125 457q0 409 214 647t544 233q246 -2 397 -108t139 -344h-389q4 96 -42 150q-46 55 -135 55t-166 -94q-150 -182 -159 -519q-6 -254 188 -257t263 249l8 31h-233l47 231h606l-145 -731h-304l33 168h-6q-37 -82 -136 -139
t-237 -58q-233 0 -360 131t-127 355z" />
    <glyph glyph-name="Gdotaccent.sc" horiz-adv-x="1458" 
d="M780 1528l64 321h321l-63 -321h-322zM125 457q0 409 214 647t544 233q246 -2 397 -108t139 -344h-389q4 96 -42 150q-46 55 -135 55t-166 -94q-150 -182 -159 -519q-6 -254 188 -257t263 249l8 31h-233l47 231h606l-145 -731h-304l33 168h-6q-37 -82 -136 -139t-237 -58
q-233 0 -360 131t-127 355z" />
    <glyph glyph-name="Hcircumflex.sc" horiz-adv-x="1460" 
d="M1143 1849l153 -368h-237l-105 131l-143 -131h-250l297 368h285zM535 516l-103 -516h-387l262 1319h387l-104 -528h411l105 528h389l-262 -1319h-389l102 516h-411z" />
    <glyph glyph-name="Iacute.sc" horiz-adv-x="659" 
d="M379 1481l170 368h381l-250 -368h-301zM45 0l262 1319h387l-262 -1319h-387z" />
    <glyph glyph-name="questiondown.uc" horiz-adv-x="1236" 
d="M1020 1567l-68 -348h-413l67 348h414zM401 371q0 -63 43 -99t131 -34q88 0 149 61q60 61 58 186h373q-4 -237 -159 -391t-455 -153q-227 0 -376 104q-148 104 -149 293q0 135 58 232t196 188l176 116q63 41 86 150l9 39h344l-23 -109q-22 -111 -52 -166t-116 -110
l-151 -98q-76 -50 -109 -98t-33 -111z" />
    <glyph glyph-name="Icircumflex.sc" horiz-adv-x="659" 
d="M741 1849l154 -368h-238l-104 131l-143 -131h-250l297 368h284zM45 0l262 1319h387l-262 -1319h-387z" />
    <glyph glyph-name="Idieresis.sc" horiz-adv-x="659" 
d="M162 1528l63 321h322l-64 -321h-321zM594 1528l63 321h322l-64 -321h-321zM45 0l262 1319h387l-262 -1319h-387z" />
    <glyph glyph-name="Igrave.sc" horiz-adv-x="659" 
d="M649 1849l37 -368h-291l-116 368h370zM45 0l262 1319h387l-262 -1319h-387z" />
    <glyph glyph-name="Imacron.sc" horiz-adv-x="659" 
d="M168 1528l47 246h741l-47 -246h-741zM45 0l262 1319h387l-262 -1319h-387z" />
    <glyph glyph-name="Iogonek.sc" horiz-adv-x="659" 
d="M287 -385q-152 0 -210 36q-59 36 -59 112t52 138t153 99h-178l262 1319h387l-262 -1319q-113 -66 -113 -131q0 -45 78 -45l-41 -209h-69z" />
    <glyph glyph-name="Itilde.sc" horiz-adv-x="659" 
d="M702 1757q74 0 123 92h168q-14 -153 -100 -261t-221 -107q-66 0 -144 46t-114 46q-74 0 -117 -92h-164q10 149 98 259t226 109q65 0 137 -46t108 -46zM45 0l262 1319h387l-262 -1319h-387z" />
    <glyph glyph-name="Jcircumflex.sc" horiz-adv-x="872" 
d="M965 1849l153 -368h-237l-105 131l-143 -131h-250l297 368h285zM172 -6h-172l61 289h121q98 0 131 41t56 153l170 842h381l-177 -885q-53 -258 -182 -349t-389 -91z" />
    <glyph glyph-name="Kcommaaccent.sc" horiz-adv-x="1376" 
d="M303 -467l119 340h371l-224 -340h-266zM508 403l-80 -403h-383l262 1319h383l-98 -498l469 498h430l-582 -576l326 -743h-397l-217 520z" />
    <glyph glyph-name="Lacute.sc" horiz-adv-x="1116" 
d="M385 1481l170 368h381l-250 -368h-301zM45 0l262 1319h387l-207 -1043h504l-55 -276h-891z" />
    <glyph glyph-name="Lcaron.sc" horiz-adv-x="1116" 
d="M764 909l80 410h295l-201 -410h-174zM45 0l262 1319h387l-207 -1043h504l-55 -276h-891z" />
    <glyph glyph-name="Lcommaaccent.sc" horiz-adv-x="1116" 
d="M174 -467l119 340h371l-224 -340h-266zM45 0l262 1319h387l-207 -1043h504l-55 -276h-891z" />
    <glyph glyph-name="Nacute.sc" horiz-adv-x="1421" 
d="M780 1481l170 368h381l-250 -368h-301zM45 0l262 1319h391l189 -559q41 -117 61 -215l6 -29h7l153 803h342l-262 -1319h-348l-215 580q-49 123 -70 223l-8 31h-6l-160 -834h-342z" />
    <glyph glyph-name="Ncaron.sc" horiz-adv-x="1421" 
d="M752 1481l-154 368h238l98 -131l151 131h248l-297 -368h-284zM45 0l262 1319h391l189 -559q41 -117 61 -215l6 -29h7l153 803h342l-262 -1319h-348l-215 580q-49 123 -70 223l-8 31h-6l-160 -834h-342z" />
    <glyph glyph-name="Ncommaaccent.sc" horiz-adv-x="1421" 
d="M334 -467l119 340h370l-223 -340h-266zM45 0l262 1319h391l189 -559q41 -117 61 -215l6 -29h7l153 803h342l-262 -1319h-348l-215 580q-49 123 -70 223l-8 31h-6l-160 -834h-342z" />
    <glyph glyph-name="Ntilde.sc" horiz-adv-x="1421" 
d="M1104 1757q74 0 123 92h168q-15 -153 -101 -261t-221 -107q-65 0 -143 46t-115 46q-74 0 -117 -92h-163q10 149 98 259t225 109q66 0 138 -46t108 -46zM45 0l262 1319h391l189 -559q41 -117 61 -215l6 -29h7l153 803h342l-262 -1319h-348l-215 580q-49 123 -70 223l-8 31
h-6l-160 -834h-342z" />
    <glyph glyph-name="Oacute.sc" horiz-adv-x="1492" 
d="M774 1481l170 368h381l-250 -368h-301zM1022 842q0 238 -174 237q-104 0 -177 -105q-130 -187 -128 -505q0 -238 178 -238q96 -1 168 101q133 188 133 510zM125 505q0 128 16 224t66 209q49 113 127 199t213 143t281 57q146 -1 247 -31q365 -111 365 -546
q0 -204 -82 -390q-49 -112 -126 -197t-212 -142q-136 -57 -282 -57t-243 26q-97 27 -185 86q-87 59 -136 175t-49 244z" />
    <glyph glyph-name="Obreve.sc" horiz-adv-x="1492" 
d="M926 1470q-156 0 -242 102t-49 277h237q-12 -61 12 -94t72 -33q109 0 134 127h249q-20 -193 -138 -286q-119 -93 -275 -93zM1022 842q0 238 -174 237q-104 0 -177 -105q-130 -187 -128 -505q0 -238 178 -238q96 -1 168 101q133 188 133 510zM125 505q0 128 16 224t66 209
q49 113 127 199t213 143t281 57q146 -1 247 -31q365 -111 365 -546q0 -204 -82 -390q-49 -112 -126 -197t-212 -142q-136 -57 -282 -57t-243 26q-97 27 -185 86q-87 59 -136 175t-49 244z" />
    <glyph glyph-name="Ocircumflex.sc" horiz-adv-x="1492" 
d="M1137 1849l153 -368h-237l-105 131l-143 -131h-250l297 368h285zM1022 842q0 238 -174 237q-104 0 -177 -105q-130 -187 -128 -505q0 -238 178 -238q96 -1 168 101q133 188 133 510zM125 505q0 128 16 224t66 209q49 113 127 199t213 143t281 57q146 -1 247 -31
q365 -111 365 -546q0 -204 -82 -390q-49 -112 -126 -197t-212 -142q-136 -57 -282 -57t-243 26q-97 27 -185 86q-87 59 -136 175t-49 244z" />
    <glyph glyph-name="Odieresis.sc" horiz-adv-x="1492" 
d="M555 1528l63 321h322l-63 -321h-322zM987 1528l64 321h321l-63 -321h-322zM1022 842q0 238 -174 237q-104 0 -177 -105q-130 -187 -128 -505q0 -238 178 -238q96 -1 168 101q133 188 133 510zM125 505q0 128 16 224t66 209q49 113 127 199t213 143t281 57q146 -1 247 -31
q365 -111 365 -546q0 -204 -82 -390q-49 -112 -126 -197t-212 -142q-136 -57 -282 -57t-243 26q-97 27 -185 86q-87 59 -136 175t-49 244z" />
    <glyph glyph-name="Ograve.sc" horiz-adv-x="1492" 
d="M1044 1849l37 -368h-290l-117 368h370zM1022 842q0 238 -174 237q-104 0 -177 -105q-130 -187 -128 -505q0 -238 178 -238q96 -1 168 101q133 188 133 510zM125 505q0 128 16 224t66 209q49 113 127 199t213 143t281 57q146 -1 247 -31q365 -111 365 -546
q0 -204 -82 -390q-49 -112 -126 -197t-212 -142q-136 -57 -282 -57t-243 26q-97 27 -185 86q-87 59 -136 175t-49 244z" />
    <glyph glyph-name="Ohungarumlaut.sc" horiz-adv-x="1492" 
d="M606 1481l135 368h295l-202 -368h-228zM961 1481l174 368h295l-244 -368h-225zM1022 842q0 238 -174 237q-104 0 -177 -105q-130 -187 -128 -505q0 -238 178 -238q96 -1 168 101q133 188 133 510zM125 505q0 128 16 224t66 209q49 113 127 199t213 143t281 57
q146 -1 247 -31q365 -111 365 -546q0 -204 -82 -390q-49 -112 -126 -197t-212 -142q-136 -57 -282 -57t-243 26q-97 27 -185 86q-87 59 -136 175t-49 244z" />
    <glyph glyph-name="Omacron.sc" horiz-adv-x="1492" 
d="M561 1528l47 246h742l-47 -246h-742zM1022 842q0 238 -174 237q-104 0 -177 -105q-130 -187 -128 -505q0 -238 178 -238q96 -1 168 101q133 188 133 510zM125 505q0 128 16 224t66 209q49 113 127 199t213 143t281 57q146 -1 247 -31q365 -111 365 -546q0 -204 -82 -390
q-49 -112 -126 -197t-212 -142q-136 -57 -282 -57t-243 26q-97 27 -185 86q-87 59 -136 175t-49 244z" />
    <glyph glyph-name="Oslashacute.sc" horiz-adv-x="1492" 
d="M803 1481l170 368h381l-250 -368h-301zM680 -27q-231 0 -377 111l-131 -127h-215l246 240q-80 133 -80 340t84 394q51 116 131 203t220 145t342 58t353 -120l158 151h217l-274 -266q84 -133 84 -307t-42 -307q-42 -134 -100 -216q-57 -82 -137 -150t-204 -109
q-124 -40 -275 -40zM702 231q112 1 189 93q142 168 153 479l-499 -484q45 -88 157 -88zM854 1079q-84 0 -150 -55q-116 -97 -163 -331q-21 -97 -25 -193l502 485q-47 94 -164 94z" />
    <glyph glyph-name="Otilde.sc" horiz-adv-x="1492" 
d="M1098 1757q74 0 123 92h168q-15 -153 -101 -261t-221 -107q-65 0 -143 46t-115 46q-74 0 -117 -92h-164q10 149 98 259t226 109q66 0 138 -46t108 -46zM1022 842q0 238 -174 237q-104 0 -177 -105q-130 -187 -128 -505q0 -238 178 -238q96 -1 168 101q133 188 133 510z
M125 505q0 128 16 224t66 209q49 113 127 199t213 143t281 57q146 -1 247 -31q365 -111 365 -546q0 -204 -82 -390q-49 -112 -126 -197t-212 -142q-136 -57 -282 -57t-243 26q-97 27 -185 86q-87 59 -136 175t-49 244z" />
    <glyph glyph-name="Racute.sc" horiz-adv-x="1374" 
d="M700 1481l170 368h381l-250 -368h-301zM780 1319q558 0 557 -385q0 -303 -311 -412v-4l227 -518h-403l-193 469h-133l-94 -469h-385l262 1319h473zM707 711q106 0 173 54t66 161q0 150 -209 149h-94l-72 -364h136z" />
    <glyph glyph-name="Rcaron.sc" horiz-adv-x="1374" 
d="M672 1481l-154 368h238l98 -131l152 131h247l-297 -368h-284zM780 1319q558 0 557 -385q0 -303 -311 -412v-4l227 -518h-403l-193 469h-133l-94 -469h-385l262 1319h473zM707 711q106 0 173 54t66 161q0 150 -209 149h-94l-72 -364h136z" />
    <glyph glyph-name="Rcommaaccent.sc" horiz-adv-x="1353" 
d="M313 -467l119 340h371l-223 -340h-267zM780 1319q558 0 557 -385q0 -303 -311 -412v-4l227 -518h-403l-193 469h-133l-94 -469h-385l262 1319h473zM707 711q106 0 173 54t66 161q0 150 -209 149h-94l-72 -364h136z" />
    <glyph glyph-name="Sacute.sc" horiz-adv-x="1271" 
d="M635 1481l170 368h381l-250 -368h-301zM612 233q88 0 137 39q48 40 48 94t-26 83t-91 47l-139 34q-195 52 -270 140t-74 229q0 211 153 325q154 114 398 113q382 0 479 -196q37 -76 30 -180h-393q0 115 -139 114q-70 0 -111 -33t-41 -86q0 -54 32 -78t102 -42l157 -41
q190 -51 258 -130t68 -212q0 -219 -161 -351t-432 -131q-271 -1 -415 101t-131 309h400q1 -70 37 -109t124 -39z" />
    <glyph glyph-name="Scaron.sc" horiz-adv-x="1271" 
d="M606 1481l-153 368h237l98 -131l152 131h248l-297 -368h-285zM612 233q88 0 137 39q48 40 48 94t-26 83t-91 47l-139 34q-195 52 -270 140t-74 229q0 211 153 325q154 114 398 113q382 0 479 -196q37 -76 30 -180h-393q0 115 -139 114q-70 0 -111 -33t-41 -86
q0 -54 32 -78t102 -42l157 -41q190 -51 258 -130t68 -212q0 -219 -161 -351t-432 -131q-271 -1 -415 101t-131 309h400q1 -70 37 -109t124 -39z" />
    <glyph glyph-name="Scedilla.sc" horiz-adv-x="1271" 
d="M713 -242q0 -106 -75 -170q-74 -64 -194 -63q-120 0 -190 43t-59 131h180q4 -41 50 -41q83 0 85 68q0 53 -57 53q-39 0 -62 -29h-131l111 244q-338 74 -320 387h400q1 -70 37 -109t124 -39t137 39q48 40 48 94t-26 83t-91 47l-139 34q-195 52 -270 140t-74 229
q0 211 153 325q154 114 398 113q382 0 479 -196q37 -76 30 -180h-393q0 115 -139 114q-70 0 -111 -33t-41 -86q0 -54 32 -78t102 -42l157 -41q190 -51 258 -130t68 -212q0 -219 -161 -351t-427 -131q-63 0 -119 6l-49 -114h4q57 41 122 41t109 -41t44 -105z" />
    <glyph glyph-name="Scircumflex.sc" horiz-adv-x="1271" 
d="M997 1849l154 -368h-238l-104 131l-143 -131h-250l297 368h284zM612 233q88 0 137 39q48 40 48 94t-26 83t-91 47l-139 34q-195 52 -270 140t-74 229q0 211 153 325q154 114 398 113q382 0 479 -196q37 -76 30 -180h-393q0 115 -139 114q-70 0 -111 -33t-41 -86
q0 -54 32 -78t102 -42l157 -41q190 -51 258 -130t68 -212q0 -219 -161 -351t-432 -131q-271 -1 -415 101t-131 309h400q1 -70 37 -109t124 -39z" />
    <glyph glyph-name="Scommaaccent.sc" horiz-adv-x="1271" 
d="M188 -467l119 340h371l-223 -340h-267zM612 233q88 0 137 39q48 40 48 94t-26 83t-91 47l-139 34q-195 52 -270 140t-74 229q0 211 153 325q154 114 398 113q382 0 479 -196q37 -76 30 -180h-393q0 115 -139 114q-70 0 -111 -33t-41 -86q0 -54 32 -78t102 -42l157 -41
q190 -51 258 -130t68 -212q0 -219 -161 -351t-432 -131q-271 -1 -415 101t-131 309h400q1 -70 37 -109t124 -39z" />
    <glyph glyph-name="Tcaron.sc" horiz-adv-x="1243" 
d="M637 1481l-154 368h238l98 -131l152 131h248l-297 -368h-285zM928 1036l-207 -1036h-393l207 1036h-361l59 283h1106l-57 -283h-354z" />
    <glyph glyph-name="Tcommaaccent.sc" horiz-adv-x="1243" 
d="M197 -467l118 340h371l-223 -340h-266zM928 1036l-207 -1036h-393l207 1036h-361l59 283h1106l-57 -283h-354z" />
    <glyph glyph-name="Uacute.sc" horiz-adv-x="1390" 
d="M756 1481l170 368h381l-250 -368h-301zM678 262q90 0 138 48t69 157l170 852h387l-176 -889q-90 -459 -621 -459q-297 0 -430 149t-86 382l164 817h393l-168 -821q-26 -124 22 -180t138 -56z" />
    <glyph glyph-name="Ubreve.sc" horiz-adv-x="1390" 
d="M908 1470q-156 0 -242 102t-50 277h238q-12 -61 12 -94t72 -33q109 0 133 127h250q-20 -193 -138 -286q-119 -93 -275 -93zM678 262q90 0 138 48t69 157l170 852h387l-176 -889q-90 -459 -621 -459q-297 0 -430 149t-86 382l164 817h393l-168 -821q-26 -124 22 -180
t138 -56z" />
    <glyph glyph-name="Ucircumflex.sc" horiz-adv-x="1390" 
d="M1118 1849l154 -368h-238l-104 131l-144 -131h-249l297 368h284zM678 262q90 0 138 48t69 157l170 852h387l-176 -889q-90 -459 -621 -459q-297 0 -430 149t-86 382l164 817h393l-168 -821q-26 -124 22 -180t138 -56z" />
    <glyph glyph-name="Udieresis.sc" horiz-adv-x="1390" 
d="M537 1528l63 321h322l-64 -321h-321zM969 1528l63 321h322l-64 -321h-321zM678 262q90 0 138 48t69 157l170 852h387l-176 -889q-90 -459 -621 -459q-297 0 -430 149t-86 382l164 817h393l-168 -821q-26 -124 22 -180t138 -56z" />
    <glyph glyph-name="Ugrave.sc" horiz-adv-x="1390" 
d="M1026 1849l37 -368h-291l-117 368h371zM678 262q90 0 138 48t69 157l170 852h387l-176 -889q-90 -459 -621 -459q-297 0 -430 149t-86 382l164 817h393l-168 -821q-26 -124 22 -180t138 -56z" />
    <glyph glyph-name="Uhungarumlaut.sc" horiz-adv-x="1390" 
d="M588 1481l135 368h295l-203 -368h-227zM942 1481l174 368h295l-244 -368h-225zM678 262q90 0 138 48t69 157l170 852h387l-176 -889q-90 -459 -621 -459q-297 0 -430 149t-86 382l164 817h393l-168 -821q-26 -124 22 -180t138 -56z" />
    <glyph glyph-name="Umacron.sc" horiz-adv-x="1390" 
d="M543 1528l47 246h741l-47 -246h-741zM678 262q90 0 138 48t69 157l170 852h387l-176 -889q-90 -459 -621 -459q-297 0 -430 149t-86 382l164 817h393l-168 -821q-26 -124 22 -180t138 -56z" />
    <glyph glyph-name="Uogonek.sc" horiz-adv-x="1390" 
d="M639 -385q-152 0 -211 40t-59 126q0 119 145 190v9q-229 35 -328 177q-98 142 -57 345l164 817h393l-168 -821q-26 -124 22 -180t138 -56t138 48t69 157l170 852h387l-176 -889q-76 -376 -431 -441q-164 -30 -163 -104q0 -57 80 -57l-41 -213h-72z" />
    <glyph glyph-name="Uring.sc" horiz-adv-x="1390" 
d="M961 1835q-57 0 -91 -40t-32 -96q1 -112 100 -112q51 0 85 40t34 104q0 104 -96 104zM943 1444q-126 0 -208 60t-82 185t87 209t220 84t208 -66t75 -186t-87 -203t-213 -83zM678 262q90 0 138 48t69 157l170 852h387l-176 -889q-90 -459 -621 -459q-297 0 -430 149
t-86 382l164 817h393l-168 -821q-26 -124 22 -180t138 -56z" />
    <glyph glyph-name="Utilde.sc" horiz-adv-x="1390" 
d="M1079 1757q74 0 123 92h168q-14 -153 -100 -261t-221 -107q-66 0 -144 46t-114 46q-74 0 -117 -92h-164q10 149 98 259t226 109q66 0 138 -46t107 -46zM678 262q90 0 138 48t69 157l170 852h387l-176 -889q-90 -459 -621 -459q-297 0 -430 149t-86 382l164 817h393
l-168 -821q-26 -124 22 -180t138 -56z" />
    <glyph glyph-name="Wacute.sc" horiz-adv-x="1882" 
d="M987 1481l170 368h381l-250 -368h-301zM1331 473h6q20 96 68 219l242 627h364l-559 -1319h-375l-33 674l-2 215h-6q-20 -74 -80 -219l-282 -670h-383l-84 1319h377l18 -606q4 -126 -8 -213l-2 -27h6q29 94 82 219l266 627h328l51 -612q12 -118 6 -205v-29z" />
    <glyph glyph-name="Wcircumflex.sc" horiz-adv-x="1882" 
d="M1350 1849l153 -368h-237l-105 131l-143 -131h-250l297 368h285zM1331 473h6q20 96 68 219l242 627h364l-559 -1319h-375l-33 674l-2 215h-6q-20 -74 -80 -219l-282 -670h-383l-84 1319h377l18 -606q4 -126 -8 -213l-2 -27h6q29 94 82 219l266 627h328l51 -612
q12 -118 6 -205v-29z" />
    <glyph glyph-name="Wdieresis.sc" horiz-adv-x="1882" 
d="M770 1528l64 321h321l-63 -321h-322zM1202 1528l64 321h321l-63 -321h-322zM1331 473h6q20 96 68 219l242 627h364l-559 -1319h-375l-33 674l-2 215h-6q-20 -74 -80 -219l-282 -670h-383l-84 1319h377l18 -606q4 -126 -8 -213l-2 -27h6q29 94 82 219l266 627h328l51 -612
q12 -118 6 -205v-29z" />
    <glyph glyph-name="Wgrave.sc" horiz-adv-x="1882" 
d="M1257 1849l37 -368h-290l-117 368h370zM1331 473h6q20 96 68 219l242 627h364l-559 -1319h-375l-33 674l-2 215h-6q-20 -74 -80 -219l-282 -670h-383l-84 1319h377l18 -606q4 -126 -8 -213l-2 -27h6q29 94 82 219l266 627h328l51 -612q12 -118 6 -205v-29z" />
    <glyph glyph-name="Yacute.sc" horiz-adv-x="1257" 
d="M678 1481l170 368h381l-250 -368h-301zM342 0l115 573l-289 746h385l152 -469h4l305 469h391l-574 -784l-108 -535h-381z" />
    <glyph glyph-name="Ycircumflex.sc" horiz-adv-x="1257" 
d="M1040 1849l154 -368h-238l-104 131l-143 -131h-250l297 368h284zM342 0l115 573l-289 746h385l152 -469h4l305 469h391l-574 -784l-108 -535h-381z" />
    <glyph glyph-name="Ydieresis.sc" horiz-adv-x="1257" 
d="M461 1528l63 321h322l-64 -321h-321zM893 1528l63 321h322l-64 -321h-321zM342 0l115 573l-289 746h385l152 -469h4l305 469h391l-574 -784l-108 -535h-381z" />
    <glyph glyph-name="Ygrave.sc" horiz-adv-x="1257" 
d="M948 1849l37 -368h-291l-116 368h370zM342 0l115 573l-289 746h385l152 -469h4l305 469h391l-574 -784l-108 -535h-381z" />
    <glyph glyph-name="Zacute.sc" horiz-adv-x="1208" 
d="M645 1481l170 368h381l-250 -368h-301zM223 1047l56 272h1009l-49 -246l-737 -799h583l-55 -274h-1046l51 246l737 801h-549z" />
    <glyph glyph-name="Zcaron.sc" horiz-adv-x="1208" 
d="M616 1481l-153 368h237l99 -131l151 131h248l-297 -368h-285zM223 1047l56 272h1009l-49 -246l-737 -799h583l-55 -274h-1046l51 246l737 801h-549z" />
    <glyph glyph-name="Zdotaccent.sc" horiz-adv-x="1208" 
d="M643 1528l64 321h321l-63 -321h-322zM223 1047l56 272h1009l-49 -246l-737 -799h583l-55 -274h-1046l51 246l737 801h-549z" />
    <glyph glyph-name="Ldot.sc" horiz-adv-x="1142" 
d="M45 0l262 1319h387l-207 -1043h504l-55 -276h-891zM782 625l64 299h297l-64 -299h-297z" />
    <glyph glyph-name="napostrophe.sc" horiz-adv-x="1421" 
d="M45 0l262 1319h391l189 -559q41 -117 61 -215l6 -29h7l153 803h342l-262 -1319h-348l-215 580q-49 123 -70 223l-8 31h-6l-160 -834h-342z" />
    <glyph glyph-name="Hbar.sc" horiz-adv-x="1460" 
d="M535 516l-103 -516h-387l193 965h-117l41 196h114l31 158h387l-30 -158h411l31 158h389l-31 -158h119l-43 -196h-115l-192 -965h-389l102 516h-411zM1001 791l35 174h-411l-35 -174h411z" />
    <glyph glyph-name="Idotaccent.sc" horiz-adv-x="659" 
d="M383 1528l63 321h322l-63 -321h-322zM45 0l262 1319h387l-262 -1319h-387z" />
    <glyph glyph-name="Ebreve.sc" horiz-adv-x="1187" 
d="M756 1470q-156 0 -242 102t-49 277h237q-12 -61 12 -94t72 -33q109 0 134 127h249q-20 -193 -138 -286q-119 -93 -275 -93zM45 0l262 1319h920l-58 -268h-528l-53 -267h520l-53 -262h-518l-52 -258h557l-53 -264h-944z" />
    <glyph glyph-name="yen.tab" 
d="M317 0l52 266h-344l30 164h346l29 154h-348l31 164h338l-271 770h393l136 -486h4l305 486h412l-572 -770h336l-31 -164h-346l-29 -154h349l-31 -164h-350l-51 -266h-388z" />
    <glyph glyph-name="eight.den" horiz-adv-x="888" 
d="M397 147q51 0 87 35q36 36 36 90q0 104 -98 103q-68 0 -100 -39t-31 -92q0 -97 106 -97zM480 723q-48 0 -76 -34t-27 -79q0 -82 90 -82q45 0 77 30t31 85q0 80 -95 80zM121 633q1 115 103 189t268 75q166 0 252 -59q86 -58 85 -154q0 -96 -50 -147t-144 -80v-6
q158 -49 158 -181q-1 -132 -101 -211q-100 -78 -307 -77q-371 0 -371 237q0 188 213 244v6q-106 49 -106 164z" />
    <glyph glyph-name="five.den" horiz-adv-x="897" 
d="M530 311q0 98 -100 99q-66 0 -131 -62h-225l151 535h631l-43 -207h-424l-51 -176h6q92 80 215 80t183 -62t61 -170q0 -178 -116 -272t-304 -94t-278 67q-89 68 -74 213h264q0 -94 102 -94q57 0 95 38t38 105z" />
    <glyph glyph-name="four.den" horiz-adv-x="935" 
d="M815 176h-110l-37 -176h-248l37 176h-457l37 178l493 529h324l-106 -508h110zM289 360h215l74 342h-7q-41 -74 -102 -141z" />
    <glyph glyph-name="nine.den" horiz-adv-x="897" 
d="M367 147q135 0 165 246h-6q-66 -92 -194 -92t-200 73t-73 181q0 160 110 251t299 91t271 -93t82 -245q0 -283 -129 -431t-358 -146q-150 2 -231 63t-76 176h247q12 -74 93 -74zM457 723q-57 0 -90 -45t-33 -109q0 -98 90 -98q63 0 96 44t33 108q0 100 -96 100z" />
    <glyph glyph-name="one.den" horiz-adv-x="626" 
d="M113 735q186 0 213 148h252l-187 -883h-272l117 549h-197l39 186h35z" />
    <glyph glyph-name="seven.den" horiz-adv-x="829" 
d="M29 0l454 680h-399l45 203h717l-31 -144l-500 -739h-286z" />
    <glyph glyph-name="six.den" horiz-adv-x="909" 
d="M416 152q55 0 87 47t32 110q0 102 -86 103q-59 0 -93 -47t-32 -109q0 -104 92 -104zM419 -20q-183 0 -276 91q-92 91 -92 255q0 270 132 420t358 149q141 0 222 -65t77 -171h-250q-10 68 -82 68q-123 0 -170 -244h6q82 99 209 99t193 -62t69 -172q3 -164 -105 -266
t-291 -102z" />
    <glyph glyph-name="three.den" horiz-adv-x="884" 
d="M281 264q-4 -92 108 -92q53 0 85 33t32 82q0 82 -88 82h-119l33 151h96q57 0 94 33t37 76q0 80 -89 81t-110 -92h-268q16 117 118 198t270 81q170 0 258 -59t89 -158q0 -178 -196 -225v-4q151 -45 151 -183t-110 -213q-110 -73 -292 -73q-181 0 -278 71q-96 72 -84 211
h263z" />
    <glyph glyph-name="two.den" horiz-adv-x="886" 
d="M508 897q143 0 229 -60t86 -170t-56 -184t-159 -145l-196 -139v-4h342l-37 -195h-758l29 137l413 320q123 96 143 123q19 26 19 60t-24 54q-25 20 -64 21q-98 0 -110 -123h-271q39 305 414 305z" />
    <glyph glyph-name="zero.den" horiz-adv-x="980" 
d="M342 295q0 -123 83 -123t133 134t50 240t-22 132t-62 24q-80 0 -131 -124t-51 -283zM47 334q0 231 128 395t360 164q172 0 270 -85t98 -267q0 -250 -129 -405t-364 -154q-176 0 -270 89q-93 89 -93 263z" />
    <glyph glyph-name="zero.num" horiz-adv-x="980" 
d="M764 1256q0 132 -84 130q-80 0 -131 -124t-51 -283q0 -123 83 -123t133 134t50 266zM203 1018q0 231 128 395t359 164q172 0 270 -85t99 -267q0 -250 -129 -405t-365 -154q-176 0 -269 89t-93 263z" />
    <glyph glyph-name="one.num" horiz-adv-x="626" 
d="M268 1419q188 0 213 148h252l-186 -883h-273l117 549h-196l38 186h35z" />
    <glyph glyph-name="two.num" horiz-adv-x="874" 
d="M651 1581q143 0 229 -60t87 -170q-1 -110 -57 -184t-158 -145l-197 -139v-4h342l-37 -195h-758l29 137l414 320q123 96 142 123q19 26 19 60t-24 54q-25 20 -64 21q-98 0 -110 -123h-270q39 305 413 305z" />
    <glyph glyph-name="three.num" horiz-adv-x="884" 
d="M573 1053h-118l32 151h97q57 0 94 33t37 76q0 80 -89 81t-110 -91h-268q16 117 118 197t270 81q169 0 258 -59t89 -158q0 -178 -197 -225v-4q152 -45 152 -183t-111 -213q-111 -73 -292 -73t-277 72t-84 210h262q-2 -44 27 -68t82 -24t85 33t32 82q-1 82 -89 82z" />
    <glyph glyph-name="four.num" horiz-adv-x="946" 
d="M981 860h-111l-36 -176h-248l37 176h-457l37 178l493 529h324l-107 -508h111zM455 1044h215l73 342h-6q-41 -74 -102 -141z" />
    <glyph glyph-name="five.num" horiz-adv-x="897" 
d="M670 995q0 98 -101 99q-66 0 -131 -62h-225l152 535h630l-43 -207h-424l-51 -176h6q91 80 215 80t184 -62t60 -170q0 -178 -116 -272t-304 -94t-277 68t-75 212h264q0 -94 103 -94q57 0 95 38t38 105z" />
    <glyph glyph-name="six.num" horiz-adv-x="909" 
d="M571 836q55 0 87 47t32 110q0 102 -86 103q-59 0 -92 -47t-33 -109q0 -104 92 -104zM566 664q-187 0 -273 88t-86 247q0 276 131 428t358 152q140 0 222 -65t77 -171h-250q-10 68 -81 68q-123 0 -170 -244h6q82 99 209 99t193 -62t69 -172q2 -166 -108 -267t-297 -101z
" />
    <glyph glyph-name="seven.num" horiz-adv-x="829" 
d="M168 684l455 680h-400l45 203h717l-31 -144l-499 -739h-287z" />
    <glyph glyph-name="eight.num" horiz-adv-x="882" 
d="M553 831q51 0 87 35q36 36 36 90t-27 78t-83 25q-56 0 -88 -39t-32 -92q1 -97 107 -97zM731 1327q0 80 -95 80q-48 0 -76 -34t-28 -79q0 -82 91 -82q45 0 77 30t31 85zM647 1581q166 0 252 -59q86 -58 86 -154t-50 -147t-144 -80v-6q157 -49 157 -181t-100 -211
q-100 -78 -307 -77q-371 0 -371 237q0 188 213 244v6q-107 49 -107 164t102 189t269 75z" />
    <glyph glyph-name="nine.num" horiz-adv-x="897" 
d="M522 831q135 0 166 246h-6q-66 -92 -194 -92t-200 73t-73 181q0 160 110 251t299 91t271 -93t82 -245q1 -283 -129 -431t-359 -146q-151 2 -231 63t-76 176h248q12 -74 92 -74zM612 1407q-57 0 -90 -45t-33 -109q0 -98 91 -98q63 0 96 44t33 108q-1 100 -97 100z" />
    <glyph glyph-name="minus.den" horiz-adv-x="858" 
d="M86 336l37 182h625l-39 -182h-623z" />
    <glyph glyph-name="plus.den" horiz-adv-x="860" 
d="M500 336l-49 -240h-220l50 240h-234l39 182h233l50 236h219l-49 -236h235l-37 -182h-237z" />
    <glyph glyph-name="parenleft.tab" horiz-adv-x="614" 
d="M399 453q0 -379 127 -719h-264q-152 314 -152 674t143 672q142 312 361 534h297q-250 -303 -381 -583t-131 -578z" />
    <glyph glyph-name="parenright.tab" horiz-adv-x="614" 
d="M578 940q0 -360 -142 -672t-362 -534h-297q250 302 381 582t131 579q0 379 -127 719h264q152 -314 152 -674z" />
    <glyph glyph-name="bracketleft.tab" horiz-adv-x="614" 
d="M-18 -266l366 1880h514l-45 -230h-223l-279 -1421h224l-43 -229h-514z" />
    <glyph glyph-name="bracketright.tab" horiz-adv-x="614" 
d="M715 1614l-367 -1880h-514l45 229h223l279 1421h-223l43 230h514z" />
    <glyph glyph-name="braceleft.tab" horiz-adv-x="614" 
d="M84 547h-45l51 262h45q61 0 85 29t32 102l33 279q31 256 165 344t414 59l-43 -221q-151 8 -199 -41t-63 -178l-24 -242q-11 -115 -55 -173t-142 -75v-8q164 -43 90 -289l-61 -205q-23 -78 -26 -131q-6 -110 194 -112l-43 -221q-281 10 -379 118t-25 359l62 213
q18 63 -2 97t-64 34z" />
    <glyph glyph-name="braceright.tab" horiz-adv-x="614" 
d="M614 809h45l-51 -262h-45q-61 0 -85 -29t-32 -102l-32 -279q-31 -256 -165 -344t-415 -59l43 221q150 -8 199 41t63 178l25 242q12 115 55 173t141 75v8q-164 43 -90 289l62 204q23 78 25 131q6 109 -193 113l43 221q281 -10 379 -118t24 -359l-61 -213q-18 -63 1 -97
t64 -34z" />
    <glyph glyph-name="eight.sub" horiz-adv-x="888" 
d="M375 25q51 1 87 35t36 88q0 104 -99 104q-67 0 -99 -39t-32 -92q1 -96 107 -96zM553 520q0 80 -95 80q-48 0 -76 -34t-28 -79q0 -82 90 -81q45 0 77 30t32 84zM469 774q166 0 252 -59t86 -155t-50 -146q-50 -51 -145 -80v-6q158 -50 158 -182t-100 -210t-308 -77
q-371 0 -370 237q0 188 213 244v6q-107 49 -107 164q0 116 102 190t269 74z" />
    <glyph glyph-name="eight.sup" horiz-adv-x="882" 
d="M573 934q51 0 87 35t36 89q0 105 -98 103q-68 0 -100 -39t-31 -92q0 -96 106 -96zM752 1430q0 79 -95 79q-48 1 -76 -33t-28 -79q0 -82 90 -82q45 0 77 30t32 85zM668 1683q166 0 252 -59q86 -58 86 -154t-50 -147t-145 -80v-6q158 -49 158 -181q-1 -132 -101 -210
t-307 -78q-371 0 -371 238q0 188 213 243v6q-106 49 -106 164t102 190q103 74 269 74z" />
    <glyph glyph-name="five.sub" horiz-adv-x="897" 
d="M508 188q0 98 -100 99q-63 0 -132 -62h-225l152 535h631l-43 -207h-424l-52 -176h7q92 80 215 80q123 -1 183 -63t60 -169q0 -178 -116 -272t-304 -94q-188 -1 -277 67t-75 213h264q0 -94 103 -94q55 1 94 39t39 104z" />
    <glyph glyph-name="five.sup" horiz-adv-x="897" 
d="M694 1098q0 98 -100 98q-66 0 -131 -61h-225l151 534h631l-43 -207h-424l-51 -176h6q92 80 215 80t183 -62t61 -169q0 -179 -116 -273q-117 -94 -305 -94t-277 68t-74 213h264q0 -94 102 -95q57 0 95 39t38 105z" />
    <glyph glyph-name="four.sub" horiz-adv-x="935" 
d="M793 53h-111l-37 -176h-248l37 176h-457l37 178l494 529h323l-106 -508h111zM266 238h215l74 342h-6q-41 -74 -103 -142z" />
    <glyph glyph-name="four.sup" horiz-adv-x="946" 
d="M1001 963h-110l-37 -177h-248l37 177h-457l37 178l494 528h323l-106 -508h110zM475 1147h215l74 342h-6q-41 -74 -103 -141z" />
    <glyph glyph-name="minus.sub" horiz-adv-x="858" 
d="M63 213l37 182h625l-39 -182h-623z" />
    <glyph glyph-name="minus.sup" horiz-adv-x="858" 
d="M246 1122l37 183h624l-39 -183h-622z" />
    <glyph glyph-name="nine.sub" horiz-adv-x="897" 
d="M310 178q-128 0 -200 73t-73 181q0 160 109 251q110 91 300 91t271 -93q82 -93 82 -245q1 -283 -129 -431t-359 -146q-151 2 -231 63t-76 176h248q12 -74 92 -73q135 0 166 245h-6q-66 -92 -194 -92zM434 600q-57 0 -90 -45t-33 -109q0 -98 90 -98q63 0 97 44
q33 44 32 108q0 100 -96 100z" />
    <glyph glyph-name="nine.sup" horiz-adv-x="897" 
d="M543 934q135 0 166 246h-7q-66 -92 -194 -92t-200 72q-73 73 -72 181q0 160 109 251q110 91 299 91t271 -93t82 -244q0 -284 -129 -432t-358 -146q-150 2 -230 63t-77 177h248q12 -74 92 -74zM633 1509q-57 0 -90 -45t-33 -108q0 -98 90 -99q63 1 96 45t33 107
q0 100 -96 100z" />
    <glyph glyph-name="one.sub" horiz-adv-x="626" 
d="M90 612q186 0 213 148h252l-186 -883h-273l117 549h-197l39 186h35z" />
    <glyph glyph-name="one.sup" horiz-adv-x="626" 
d="M289 1522q86 0 142 32t71 115h252l-187 -883h-272l117 549h-197l39 187h35z" />
    <glyph glyph-name="plus.sub" horiz-adv-x="860" 
d="M477 213l-49 -240h-219l49 240h-233l38 182h234l49 236h219l-49 -236h236l-37 -182h-238z" />
    <glyph glyph-name="plus.sup" horiz-adv-x="860" 
d="M659 1122l-49 -239h-219l49 239h-233l39 183h233l49 235h220l-50 -235h236l-37 -183h-238z" />
    <glyph glyph-name="seven.sub" horiz-adv-x="829" 
d="M6 -123l455 680h-400l45 203h717l-30 -144l-500 -739h-287z" />
    <glyph glyph-name="seven.sup" horiz-adv-x="829" 
d="M188 786l455 680h-399l45 203h717l-31 -143l-500 -740h-287z" />
    <glyph glyph-name="six.sub" horiz-adv-x="909" 
d="M393 29q55 0 87 47t32 110q0 102 -86 103q-59 0 -92 -47t-33 -109q0 -104 92 -104zM396 -143q-183 0 -275 91t-92 255q0 270 132 420t357 149q141 0 222 -64t77 -171h-250q-10 68 -82 67q-123 0 -170 -244h7q82 98 209 98t193 -62t69 -171q2 -164 -106 -266t-291 -102z
" />
    <glyph glyph-name="six.sup" horiz-adv-x="909" 
d="M592 938q55 0 87 47t32 111q0 102 -86 102q-59 0 -93 -47t-32 -109q0 -104 92 -104zM586 766q-188 0 -273 88q-86 88 -86 248q0 276 131 428t359 151q141 -1 222 -65t77 -170h-250q-10 68 -82 67q-123 0 -170 -243h6q82 98 209 98t193 -62t69 -171q2 -166 -107 -268
q-110 -101 -298 -101z" />
    <glyph glyph-name="three.sub" horiz-adv-x="884" 
d="M395 246h-119l33 151h97q57 0 94 33t37 76q0 80 -88 81t-111 -91h-268q16 118 117 198t271 80t258 -59q89 -59 89 -158q0 -178 -197 -225v-4q152 -46 152 -184t-111 -212t-292 -74t-277 72t-84 211h262q-2 -45 27 -69t81 -23q52 0 86 33q32 33 31 82q0 82 -88 82z" />
    <glyph glyph-name="three.sup" horiz-adv-x="884" 
d="M594 1155h-119l33 152h96q57 1 94 33t37 75q0 82 -89 82t-109 -92h-269q16 117 118 198t270 81q170 0 258 -60q88 -59 90 -158q0 -178 -197 -225v-4q151 -45 151 -183t-110 -212t-292 -74q-181 0 -277 72t-84 211h262q-1 -45 27 -69t81 -24t85 33t32 82q0 82 -88 82z" />
    <glyph glyph-name="two.sub" horiz-adv-x="886" 
d="M485 774q143 0 229 -60t87 -170q-1 -110 -57 -184t-158 -145l-197 -139v-4h342l-37 -195h-757l28 137l414 320q123 96 142 123t19 61t-24 53q-25 20 -63 21q-99 0 -111 -123h-270q39 305 413 305z" />
    <glyph glyph-name="two.sup" horiz-adv-x="874" 
d="M672 1683q143 0 229 -60q86 -59 86 -169t-56 -184t-159 -146l-197 -139v-4h343l-37 -195h-758l29 138l413 319q123 96 143 123q19 26 19 60t-25 54t-63 21q-99 0 -111 -123h-270q39 305 414 305z" />
    <glyph glyph-name="zero.sub" horiz-adv-x="980" 
d="M586 448q0 132 -82 132t-133 -125t-52 -283q0 -123 83 -123t134 134q50 133 50 265zM25 211q0 231 128 395t359 164q172 0 270 -85t99 -267q0 -250 -129 -405t-365 -154q-176 0 -269 89t-93 263z" />
    <glyph glyph-name="zero.sup" horiz-adv-x="980" 
d="M518 1081q0 -123 83 -123t133 134t50 240t-22 132t-62 25q-80 0 -131 -125t-51 -283zM223 1120q0 232 128 396t360 163q172 0 270 -85t98 -267q0 -251 -129 -405t-364 -154q-176 0 -270 89q-93 89 -93 263z" />
    <glyph glyph-name="Q.old" horiz-adv-x="1648" 
d="M555 553q0 -125 56 -212t190 -87h28l-92 106l226 187l116 -135q111 182 111 583q0 135 -56 219t-171 84q-299 0 -387 -498q-22 -122 -21 -247zM785 -33q-270 0 -455 133q-96 70 -152 199q-55 129 -55 309q-2 268 93 488t290 357q195 136 460 136t455 -150
q93 -75 147 -205t54 -298q-2 -244 -84 -451t-235 -335l127 -150l-222 -182l-164 188q-123 -39 -259 -39z" />
    <glyph glyph-name="Q.scold" horiz-adv-x="1501" 
d="M528 473q0 -250 191 -250q16 0 45 4l-105 119l193 152l94 -107q90 178 90 455q0 110 -47 174t-135 64q-237 -1 -307 -404q-19 -103 -19 -207zM714 -27q-256 0 -415 118q-176 130 -176 448q0 154 39 287q39 132 94 213t132 150t198 109t253 39q419 0 550 -305
q49 -116 49 -286t-71 -337t-196 -276l91 -104l-189 -148l-115 129q-114 -37 -244 -37z" />
    <glyph glyph-name="Euro.tab" horiz-adv-x="1204" 
d="M622 -33q-232 -1 -344 147t-102 384v14h-147l32 164h127q6 86 21 153h-119l33 164h119q145 545 612 545q209 0 320 -142t83 -349h-301q2 102 -26 154q-29 52 -105 52q-131 0 -215 -260h254l-33 -164h-262q-16 -80 -24 -153h258l-33 -164h-240v-25q-6 -233 140 -233
q129 0 178 197h311q-31 -219 -168 -351t-369 -133z" />
    <glyph glyph-name="dollar.tab" horiz-adv-x="1204" 
d="M1174 512q0 -242 -159 -388t-440 -147h-8l-39 -208h-135l41 217q-221 24 -334 138t-98 318h356q-8 -145 129 -180l68 352l-84 23q-326 88 -326 405q0 226 162 356t418 130h4l33 172l135 4l-35 -184q412 -49 389 -422h-342q6 121 -98 153l-61 -325l100 -29
q324 -92 324 -385zM811 434q0 104 -129 144l-61 -324h6q84 10 134 60t50 120zM512 1098q0 -92 109 -133l57 297q-74 -6 -120 -50t-46 -114z" />
    <glyph glyph-name="dieresis.uc" horiz-adv-x="741" 
d="M225 1702l64 321h321l-63 -321h-322zM657 1702l64 321h321l-63 -321h-322z" />
    <glyph glyph-name="zero.tab" 
d="M588 274q76 0 138 102t93 241q61 277 64 423q0 190 -131 191q-80 0 -142 -98q-62 -99 -95 -237q-62 -268 -62 -431q0 -191 135 -191zM94 489q0 277 91 537q50 143 124 255q74 113 192 185t263 72q231 0 354 -133t123 -405t-91 -528q-50 -142 -125 -252t-193 -180
t-263 -69q-475 0 -475 518z" />
    <glyph glyph-name="one.tab" 
d="M358 1249q158 1 253 59t126 210h334l-237 -1223h292l-55 -295h-1016l56 295h360l135 704h-370l49 250h73z" />
    <glyph glyph-name="nine.tab" 
d="M547 246q223 0 309 432h-6q-117 -137 -301 -137t-291 114q-106 115 -104 318q2 251 174 407t418 158t370 -138t125 -380q0 -294 -92 -549q-51 -143 -127 -253t-201 -180t-278 -71q-223 0 -342 114t-123 292h334q10 -127 135 -127zM664 797q109 -1 165 81t56 180t-40 149
q-40 50 -114 50q-105 0 -163 -88t-58 -183q0 -189 154 -189z" />
    <glyph glyph-name="eight.tab" 
d="M597 215q87 0 149 72t62 167t-46 141q-47 46 -135 46q-87 0 -151 -72t-64 -166t49 -141t136 -47zM584 1060q0 -84 39 -125q39 -40 98 -40q98 0 151 74q54 73 52 153q-2 161 -158 162q-78 0 -130 -70t-52 -154zM799 1540q190 0 328 -101t137 -278q-2 -139 -76 -239
t-203 -146v-8q186 -102 184 -309q0 -233 -172 -361t-419 -129q-247 1 -389 105t-142 305q0 151 95 265t251 151v8q-150 106 -151 274q-4 219 150 341q155 122 407 122z" />
    <glyph glyph-name="seven.tab" 
d="M39 0l835 1225h-679l63 293h1090l-50 -232l-868 -1286h-391z" />
    <glyph glyph-name="six.tab" 
d="M451 456q0 -198 171 -197q88 1 149 92q60 91 60 187t-41 147q-42 50 -118 50q-102 0 -162 -90q-60 -89 -59 -189zM782 1262q-215 0 -301 -424h6q70 78 137 112t164 35q166 0 276 -113t107 -301q-2 -281 -170 -441q-169 -160 -413 -161q-244 -2 -369 132
q-125 133 -125 397t96 528q54 143 132 256q78 114 200 186t273 72q215 0 335 -116t123 -289h-335q-10 127 -136 127z" />
    <glyph glyph-name="five.tab" 
d="M565 258q104 0 166 75q61 75 63 180t-43 153q-46 48 -116 47q-133 0 -219 -101h-293l199 906h909l-60 -306h-598l-73 -335h6q76 57 142 79t157 23q166 -1 269 -107t102 -309q-2 -274 -182 -434t-450 -160q-271 0 -400 135q-128 135 -105 330h344q6 -176 182 -176z" />
    <glyph glyph-name="space_uni0326.alt" horiz-adv-x="741" 
d="M817 1614l-129 -369h-381l250 369h260z" />
    <glyph glyph-name="four.tab" 
d="M1163 330h-157l-64 -330h-354l63 330h-618l49 258l741 930h414l-176 -902h158zM399 604h310l106 543h-6q-33 -66 -121 -176z" />
    <glyph glyph-name="three.tab" 
d="M621 631h-107l51 268h125q100 0 156 56q55 57 55 135t-44 124t-128 48q-84 0 -136 -54t-56 -141h-332q14 225 169 349t387 124t357 -110t125 -271q0 -301 -299 -387v-6q205 -88 205 -311t-163 -355t-426 -131t-394 139t-107 334h344q0 -184 183 -184q115 0 171 66t56 148
t-52 120q-52 39 -140 39z" />
    <glyph glyph-name="uni021A.sc" horiz-adv-x="1243" 
d="M197 -467l118 340h371l-223 -340h-266zM928 1036l-207 -1036h-393l207 1036h-361l59 283h1106l-57 -283h-354z" />
    <glyph glyph-name="two.tab" 
d="M762 1540q213 0 341 -117t128 -290q0 -115 -48 -212q-47 -97 -109 -162t-202 -188l-305 -272v-4h576l-56 -295h-1107l40 215q603 545 657 593t67 60q71 66 84 87q37 62 42 88q4 27 4 53q0 68 -40 106t-119 39q-78 0 -133 -61t-56 -181h-354q10 261 162 401t428 140z" />
    </font>
</defs>
</svg>
