<?xml version="1.0" standalone="no"?>
<!DOCTYPE svg PUBLIC "-//W3C//DTD SVG 1.1//EN" "http://www.w3.org/Graphics/SVG/1.1/DTD/svg11.dtd" >
<svg xmlns="http://www.w3.org/2000/svg">
<metadata>
Created by FontPrep 20130207 at Wed Mar 25 23:46:08 2015
 By Callum Flack
(c)2012 Kai Bernau and Susana Carvalho with Christian Schwartz under exclusive license to Schwartzco Inc./Commercial Type. All rights reserved.
</metadata>
<defs>
<font id="3ad80ac7df2b0d0f21340c081225ece9" horiz-adv-x='1024' >
  <font-face 
    font-family="AtlasGrotesk-Black"
    font-weight="900"
    font-stretch="normal"
    units-per-em="2048"
    panose-1="0 0 0 0 0 0 0 0 0 0"
    ascent="1663"
    descent="-385"
    x-height="1108"
    cap-height="1567"
    bbox="-451 -496 2630 2480"
    underline-thickness="102"
    underline-position="-102"
    unicode-range="U+0020-FB02"
  />
<missing-glyph horiz-adv-x="1024" 
 />
    <glyph glyph-name="f_f" unicode="ff" horiz-adv-x="1548" 
d="M565 836v-836h-391v836h-135v272h135v80q0 232 112 328t320 96q107 0 164 -10l23 -3v-268q-35 6 -97 6q-132 0 -131 -161v-68h383v96q0 232 112 328t320 96q109 0 164 -10l23 -2v-268q-35 6 -97 6q-132 0 -131 -162v-84h191v-272h-191v-836h-391v836h-383z" />
    <glyph glyph-name="fi" unicode="fi" horiz-adv-x="1396" 
d="M594 1628q66 0 174 -12v-268q-33 6 -74 6q-129 0 -129 -162v-84h191v-272h-191v-836h-391v836h-135v272h135v96q0 232 110 328t310 96zM885 0v1108h401v-1108h-401zM885 1268v346h401v-346h-401z" />
    <glyph glyph-name="fl" unicode="fl" horiz-adv-x="1396" 
d="M594 1628q66 0 174 -12v-268q-33 6 -74 6q-129 0 -129 -162v-84h191v-272h-191v-836h-391v836h-135v272h135v96q0 232 110 328t310 96zM885 0v1614h401v-1614h-401z" />
    <glyph glyph-name=".notdef" horiz-adv-x="1024" 
 />
    <glyph glyph-name=".null" horiz-adv-x="0" 
 />
    <glyph glyph-name="nonmarkingreturn" horiz-adv-x="681" 
 />
    <glyph glyph-name="space" unicode=" " horiz-adv-x="419" 
 />
    <glyph glyph-name="exclam" unicode="!" horiz-adv-x="731" 
d="M575 0h-421v348h421v-348zM221 504l-88 1110h465l-90 -1110h-287z" />
    <glyph glyph-name="quotedbl" unicode="&#x22;" horiz-adv-x="1126" 
d="M201 987l-41 580h336l-56 -580h-239zM672 987l-41 580h336l-56 -580h-239z" />
    <glyph glyph-name="numbersign" unicode="#" horiz-adv-x="1366" 
d="M102 549v215h250l41 291h-229v215h260l45 297h203l-43 -297h205l45 297h204l-45 -297h226v-215h-256l-41 -291h235v-215h-268l-49 -346h-205l49 346h-207l-49 -346h-203l49 346h-217zM555 764h207l43 291h-207z" />
    <glyph glyph-name="dollar" unicode="$" horiz-adv-x="1396" 
d="M768 -238h-147v211q-254 14 -402 133q-147 119 -158 336h394q16 -143 166 -176v332l-86 14q-221 36 -342 140t-121 304t144 328q144 127 405 144v168h147v-168q492 -29 532 -438h-393q-4 53 -39 98t-100 63v-313l86 -14q479 -76 479 -432q0 -230 -146 -366t-419 -153
v-211zM932 423q0 60 -40 94t-124 54v-309l8 2q78 14 117 56t39 103zM471 1118q0 -116 150 -155v292q-150 -21 -150 -137z" />
    <glyph glyph-name="percent" unicode="%" horiz-adv-x="1888" 
d="M1413 184q55 0 87 44t32 128t-32 129t-87 45q-117 0 -117 -173t117 -173zM1414 -14q-157 0 -260 97t-103 273t104 272t261 97q157 0 261 -95q105 -94 105 -272t-106 -275t-262 -97zM467 979q117 0 117 173t-117 173t-117 -173t117 -173zM466 780q-157 0 -260 98t-104 273
q0 176 106 272q106 97 261 97q156 0 261 -96q106 -96 106 -273q0 -175 -106 -273t-264 -98zM276 -82l1080 1681h266l-1079 -1681h-267z" />
    <glyph glyph-name="ampersand" unicode="&#x26;" horiz-adv-x="1648" 
d="M1536 301v-301h-86q-133 0 -202 26t-152 105q-184 -164 -439 -164t-409 125t-154 340q0 139 76 249t236 208q-80 82 -113 157t-33 177q0 171 131 281t357 110t348 -96q123 -96 123 -242t-75 -240t-235 -213l183 -196q29 53 127 250h342q-169 -348 -254 -482
q63 -68 94 -81t135 -13zM477 490q0 -108 66 -170q66 -64 165 -64t189 86l-324 348l-6 -6q-90 -86 -90 -194zM891 1236q0 66 -38 100q-39 34 -103 34t-103 -42t-39 -104q0 -60 24 -104t89 -110q84 61 127 111t43 115z" />
    <glyph glyph-name="quotesingle" unicode="'" horiz-adv-x="655" 
d="M201 987l-41 580h336l-56 -580h-239z" />
    <glyph glyph-name="parenleft" unicode="(" horiz-adv-x="761" 
d="M111 674q0 520 360 940h285q-297 -477 -297 -938t297 -942h-285q-360 420 -360 940z" />
    <glyph glyph-name="parenright" unicode=")" horiz-adv-x="733" 
d="M303 676q0 461 -297 938h283q360 -414 360 -940t-360 -940h-283q297 481 297 942z" />
    <glyph glyph-name="asterisk" unicode="*" horiz-adv-x="931" 
d="M471 1092h-8l-113 -240l-221 149l205 183v8l-266 29l84 260l233 -138l4 5l-59 266h272l-57 -271l4 -4l233 138l84 -260l-266 -29v-8l205 -183l-221 -149z" />
    <glyph glyph-name="plus" unicode="+" horiz-adv-x="1296" 
d="M799 594v-406h-305v406h-390v278h390v402h305v-402h391v-278h-391z" />
    <glyph glyph-name="comma" unicode="," horiz-adv-x="653" 
d="M72 -240l127 607h393l-258 -607h-262z" />
    <glyph glyph-name="hyphen" unicode="-" horiz-adv-x="901" 
d="M113 485v295h675v-295h-675z" />
    <glyph glyph-name="period" unicode="." horiz-adv-x="653" 
d="M127 0v367h399v-367h-399z" />
    <glyph glyph-name="slash" unicode="/" horiz-adv-x="1171" 
d="M-49 -266l930 1880h288l-929 -1880h-289z" />
    <glyph glyph-name="zero" unicode="0" horiz-adv-x="1472" 
d="M522 756q0 -280 52 -384t157 -104q104 0 160 111q55 111 55 377q0 492 -213 491q-211 0 -211 -491zM82 752q0 388 175 586t476 198q657 0 658 -784q0 -389 -172 -585t-486 -196q-651 1 -651 781z" />
    <glyph glyph-name="one" unicode="1" horiz-adv-x="884" 
d="M313 0v999h-295v250h37q141 -1 219 61t78 208h363v-1518h-402z" />
    <glyph glyph-name="two" unicode="2" horiz-adv-x="1335" 
d="M494 991h-398q4 261 156 405t440 144t425 -121q138 -121 138 -319q-1 -158 -77 -271t-267 -284l-254 -230v-4h596v-311h-1183v215l544 510q127 119 177 197q49 78 49 158t-42 125q-42 46 -118 46q-76 1 -131 -59t-55 -201z" />
    <glyph glyph-name="three" unicode="3" horiz-adv-x="1355" 
d="M676 639h-166v260h123q88 0 142 47t54 128t-52 127t-120 46q-168 0 -180 -180h-389q8 181 131 318q63 71 180 113t275 42q268 0 414 -116t147 -289q0 -129 -65 -219t-191 -123v-7q293 -68 293 -362q0 -190 -157 -322t-460 -133q-303 0 -437 145t-146 335h415
q7 -87 59 -133t134 -46t135 52t53 135q0 82 -52 132t-140 50z" />
    <glyph glyph-name="four" unicode="4" horiz-adv-x="1409" 
d="M1356 319h-176v-319h-396v319h-721v269l633 930h484v-902h176v-297zM795 612v592h-4q-27 -80 -84 -168l-273 -424h361z" />
    <glyph glyph-name="five" unicode="5" horiz-adv-x="1343" 
d="M864 497q0 103 -52 163t-146 61q-141 0 -213 -98h-334l82 895h960v-312h-659l-31 -334h4q47 56 131 96t189 40q221 0 346 -134t125 -364q0 -229 -157 -385t-445 -156q-335 0 -458 143t-134 332h387q20 -174 194 -174q96 0 154 62q57 62 57 165z" />
    <glyph glyph-name="six" unicode="6" horiz-adv-x="1380" 
d="M718 262q77 0 132 60t55 170q0 111 -52 171t-136 60t-134 -58q-51 -58 -51 -172q0 -115 54 -173t132 -58zM754 1260q-112 0 -182 -102q-69 -102 -74 -337h8q43 90 133 138t209 49q201 0 331 -131t130 -361t-155 -389q-156 -158 -446 -158q-290 1 -458 185t-168 540
q0 410 179 628t491 218q250 0 375 -112t143 -287h-373q-31 119 -143 119z" />
    <glyph glyph-name="seven" unicode="7" horiz-adv-x="1183" 
d="M31 1206v312h1112v-218l-596 -1300h-410l551 1206h-657z" />
    <glyph glyph-name="eight" unicode="8" horiz-adv-x="1380" 
d="M690 229q92 1 152 55t61 152q0 98 -58 150q-59 52 -155 53q-96 0 -154 -52q-58 -53 -58 -151t60 -152t152 -55zM690 1270q-80 0 -130 -47t-50 -137t50 -137q50 -48 130 -48t130 48t50 137q0 88 -50 136t-130 48zM129 1122q0 190 144 304q145 114 417 114t416 -114
t145 -306q0 -236 -241 -323v-9q297 -72 297 -366q0 -195 -172 -325t-453 -130q-280 0 -444 125t-164 330q0 291 297 366v9q-242 83 -242 325z" />
    <glyph glyph-name="nine" unicode="9" horiz-adv-x="1374" 
d="M633 258q117 0 179 113t69 315h-9q-40 -78 -124 -122t-191 -44q-211 0 -352 131t-141 357t160 378q161 154 452 154q292 0 454 -194t162 -572t-184 -592t-485 -213q-241 0 -375 113t-154 297h369q27 -121 170 -121zM666 1233q-78 0 -138 -54q-60 -55 -59 -159
q0 -104 57 -162q56 -58 140 -57q84 0 139 55q55 56 55 160t-58 160t-136 57z" />
    <glyph glyph-name="colon" unicode=":" horiz-adv-x="653" 
d="M522 0h-391v367h391v-367zM131 713v366h391v-366h-391z" />
    <glyph glyph-name="semicolon" unicode=";" horiz-adv-x="704" 
d="M334 -240h-262l127 607h393zM201 713v366h391v-366h-391z" />
    <glyph glyph-name="less" unicode="&#x3c;" horiz-adv-x="1296" 
d="M1161 63l-1048 541v158l1048 543v-314l-600 -299l600 -303v-326z" />
    <glyph glyph-name="equal" unicode="=" horiz-adv-x="1296" 
d="M1149 362h-1004v279h1004v-279zM145 809v278h1004v-278h-1004z" />
    <glyph glyph-name="greater" unicode="&#x3e;" horiz-adv-x="1296" 
d="M135 1305l1049 -541v-158l-1049 -543v314l600 299l-600 303v326z" />
    <glyph glyph-name="question" unicode="?" horiz-adv-x="1271" 
d="M848 0h-422v348h422v-348zM819 1178q0 147 -170 147q-199 0 -200 -252h-388q-2 252 152 405q155 152 443 152t423 -118t135 -320q0 -127 -48 -215t-158 -178l-172 -142q-29 -23 -29 -73v-80h-342v131q0 96 17 139t93 105l125 100q45 41 65 59q19 18 37 56t17 84z" />
    <glyph glyph-name="at" unicode="@" horiz-adv-x="2066" 
d="M969 326q61 0 113 59t71 158l18 92q16 90 -13 147q-30 57 -91 58q-97 0 -153 -112t-56 -236q0 -166 111 -166zM1462 106q-118 0 -198 54t-93 153h-6q-106 -199 -317 -198q-147 0 -233 102q-85 102 -85 275q0 221 130 388t331 167q93 0 151 -40t81 -100h4l22 107h320
l-127 -580q-16 -80 12 -122t92 -42q106 0 179 111t73 319q0 293 -205 487q-205 193 -531 193t-560 -242q-236 -242 -236 -597q0 -353 213 -569t533 -216t534 172l90 -94q-254 -213 -638 -213t-636 255t-252 669q0 415 280 693q278 278 675 278t648 -224t251 -579
q0 -301 -140 -454t-362 -153z" />
    <glyph glyph-name="A" unicode="A" horiz-adv-x="1587" 
d="M1137 0l-90 283h-545l-92 -283h-392l543 1567h459l549 -1567h-432zM774 1225q0 -35 -59 -246l-119 -399h356l-116 397q-39 141 -54 221l-4 27h-4z" />
    <glyph glyph-name="B" unicode="B" horiz-adv-x="1497" 
d="M805 287q221 0 221 189q0 98 -58 146t-163 48h-262v-383h262zM543 926h211q209 0 209 182q-1 88 -55 135t-154 47h-211v-364zM846 0h-719v1567h670q297 1 434 -101t137 -309q0 -123 -82 -206t-182 -107v-8q154 -27 248 -123t94 -254q0 -209 -160 -334t-440 -125z" />
    <glyph glyph-name="C" unicode="C" horiz-adv-x="1566" 
d="M810 1288q-112 0 -196 -130t-84 -381t78 -380t213 -129q104 0 171 70t79 217h422q-10 -272 -186 -430t-476 -158q-383 0 -566 208t-183 590t191 603t531 221q340 -1 511 -157q170 -156 180 -431h-424q-8 141 -78 214q-71 73 -183 73z" />
    <glyph glyph-name="D" unicode="D" horiz-adv-x="1570" 
d="M543 301h123q188 0 285 112t97 375q0 262 -94 372q-96 110 -278 110h-133v-969zM127 0v1567h565q373 -1 585 -191t212 -576t-215 -593t-582 -207h-565z" />
    <glyph glyph-name="E" unicode="E" horiz-adv-x="1296" 
d="M127 0v1567h1049v-303h-633v-338h612v-295h-612v-332h655v-299h-1071z" />
    <glyph glyph-name="F" unicode="F" horiz-adv-x="1222" 
d="M543 571v-571h-416v1567h1014v-303h-598v-394h575v-299h-575z" />
    <glyph glyph-name="G" unicode="G" horiz-adv-x="1638" 
d="M840 1298q-150 0 -233 -129t-83 -401t84 -392q84 -118 226 -118t216 76q75 76 91 213l4 33h-326v280h709v-860h-322v205h-6q-127 -238 -438 -238q-340 0 -510 215t-170 583t205 596t553 228q301 0 470 -136t195 -392h-418q-14 106 -78 172q-65 65 -169 65z" />
    <glyph glyph-name="H" unicode="H" horiz-adv-x="1617" 
d="M543 623v-623h-416v1567h416v-635h528v635h420v-1567h-420v623h-528z" />
    <glyph glyph-name="I" unicode="I" horiz-adv-x="669" 
d="M127 0v1567h416v-1567h-416z" />
    <glyph glyph-name="J" unicode="J" horiz-adv-x="944" 
d="M227 -6h-151v323h92q156 1 205 63t49 200v987h409v-1041q-1 -296 -153 -414t-451 -118z" />
    <glyph glyph-name="K" unicode="K" horiz-adv-x="1529" 
d="M543 0h-416v1567h416v-623l483 623h453l-543 -652l559 -915h-471l-365 598l-116 -141v-457z" />
    <glyph glyph-name="L" unicode="L" horiz-adv-x="1255" 
d="M127 0v1567h416v-1256h620v-311h-1036z" />
    <glyph glyph-name="M" unicode="M" horiz-adv-x="2011" 
d="M127 0v1567h596l221 -693q38 -116 55 -210l7 -35h6q23 121 61 248l215 690h596v-1567h-407v1161h-7q-41 -178 -100 -377l-237 -784h-289l-246 784q-53 165 -86 326l-10 49h-6v-1159h-369z" />
    <glyph glyph-name="N" unicode="N" horiz-adv-x="1607" 
d="M127 0v1567h440l404 -678q77 -135 119 -242l12 -33h6v953h373v-1567h-414l-424 702q-75 123 -127 248l-14 37h-6v-987h-369z" />
    <glyph glyph-name="O" unicode="O" horiz-adv-x="1681" 
d="M842 262q307 0 307 516q0 252 -84 386t-223 134q-307 0 -307 -520q1 -264 73 -390t234 -126zM82 772q0 377 204 597t566 220t554 -214q194 -214 194 -593t-200 -597t-566 -218t-560 214q-192 214 -192 591z" />
    <glyph glyph-name="P" unicode="P" horiz-adv-x="1398" 
d="M543 801h170q227 1 227 239t-225 238h-172v-477zM676 504h-133v-504h-416v1567h586q289 0 459 -126t171 -392q0 -413 -407 -517q-117 -28 -260 -28z" />
    <glyph glyph-name="Q" unicode="Q" horiz-adv-x="1681" 
d="M841 256q161 0 235 125t73 389q0 264 -82 396q-83 132 -229 132t-225 -133t-79 -395t74 -388q72 -126 233 -126zM82 776q0 381 201 597t562 216t558 -217t196 -594q1 -223 -75 -395t-207 -244v-10q113 -29 173 -81t116 -161l-373 -194q-76 158 -153 221t-210 63h-32
q-377 0 -567 209q-189 209 -189 590z" />
    <glyph glyph-name="R" unicode="R" horiz-adv-x="1486" 
d="M543 559v-559h-416v1567h637q195 0 321 -51q293 -117 293 -420q0 -156 -81 -265t-205 -165v-4l354 -662h-440l-281 559h-182zM543 842h164q109 0 179 54t70 180t-89 175q-71 41 -156 41h-168v-450z" />
    <glyph glyph-name="S" unicode="S" horiz-adv-x="1415" 
d="M713 1294q-84 0 -135 -38q-52 -38 -52 -104t40 -104q40 -36 139 -55l245 -45q201 -38 307 -148t107 -286q0 -268 -173 -408t-489 -139q-623 0 -647 486h432q11 -91 69 -141t158 -50t159 46q58 46 59 118q0 72 -44 108t-155 56l-241 47q-170 35 -283 147t-113 303
q0 223 161 363t464 139q303 1 449 -121t151 -329h-424q-4 63 -52 109t-132 46z" />
    <glyph glyph-name="T" unicode="T" horiz-adv-x="1366" 
d="M1311 1567v-318h-420v-1249h-416v1249h-420v318h1256z" />
    <glyph glyph-name="U" unicode="U" horiz-adv-x="1554" 
d="M115 561v1006h415l-2 -922q0 -201 50 -266q70 -88 217 -88t206 109q23 42 25 81t3 47t1 30v1009h410v-1006q0 -291 -179 -443t-487 -151q-308 -1 -483 151q-176 152 -176 443z" />
    <glyph glyph-name="V" unicode="V" horiz-adv-x="1525" 
d="M528 0l-510 1567h433l278 -942q39 -128 45 -205l2 -25h4q8 82 49 228l285 944h393l-506 -1567h-473z" />
    <glyph glyph-name="W" unicode="W" horiz-adv-x="2179" 
d="M827 0h-405l-397 1567h430l170 -774q28 -124 39 -238l4 -33h4q10 113 53 269l213 776h352l217 -774q26 -103 56 -238l6 -33h2q10 113 43 269l166 776h374l-395 -1567h-393l-221 836q-38 146 -43 219l-4 26h-4q-6 -88 -47 -243z" />
    <glyph glyph-name="X" unicode="X" horiz-adv-x="1552" 
d="M23 0l512 809l-476 758h471l261 -449h2l260 449h430l-477 -746l524 -821h-486l-299 508h-2l-292 -508h-428z" />
    <glyph glyph-name="Y" unicode="Y" horiz-adv-x="1474" 
d="M530 0v653l-507 914h450l281 -559h4l274 559h420l-506 -910v-657h-416z" />
    <glyph glyph-name="Z" unicode="Z" horiz-adv-x="1351" 
d="M98 1255v312h1174v-277l-729 -977h737v-313h-1219v276l732 979h-695z" />
    <glyph glyph-name="bracketleft" unicode="[" horiz-adv-x="827" 
d="M184 -266v1880h592v-230h-270v-1421h270v-229h-592z" />
    <glyph glyph-name="backslash" unicode="\" horiz-adv-x="1171" 
d="M932 -266l-930 1880h289l930 -1880h-289z" />
    <glyph glyph-name="bracketright" unicode="]" horiz-adv-x="827" 
d="M643 1614v-1880h-592v229h271v1421h-271v230h592z" />
    <glyph glyph-name="asciicircum" unicode="^" horiz-adv-x="968" 
d="M608 1614l320 -613h-256l-199 334h-2l-190 -334h-240l317 613h250z" />
    <glyph glyph-name="underscore" unicode="_" horiz-adv-x="790" 
d="M-4 -389v235h799v-235h-799z" />
    <glyph glyph-name="grave" unicode="`" horiz-adv-x="755" 
d="M494 1614l100 -369h-307l-181 369h388z" />
    <glyph glyph-name="a" unicode="a" horiz-adv-x="1230" 
d="M1106 674v-348q0 -33 18 -46t64 -14v-266h-154q-125 0 -186 25t-92 106h-6q-122 -141 -312 -141t-295 89q-104 89 -104 247q0 188 168 276q91 51 293 68q59 4 217 10v65q0 139 -125 140q-123 0 -129 -119h-383q10 174 145 270t363 97q290 0 404 -113t114 -346zM562 225
q64 1 112 61q47 60 47 163v38q-185 -10 -237 -45t-52 -92t33 -91t97 -34z" />
    <glyph glyph-name="b" unicode="b" horiz-adv-x="1361" 
d="M508 483q0 -117 46 -185t135 -69q89 0 141 82t53 236q0 319 -195 319q-78 0 -129 -66t-51 -194v-123zM111 0v1614h401v-664h6q45 78 129 129t201 51q209 0 326 -142q116 -142 116 -426t-124 -437q-124 -152 -347 -152t-319 166h-4v-139h-385z" />
    <glyph glyph-name="c" unicode="c" horiz-adv-x="1284" 
d="M659 877q-180 1 -180 -319t180 -320q158 0 164 198h394q0 -223 -155 -344q-154 -121 -420 -121t-420 155t-154 430t158 427t424 152t413 -121t149 -336h-395q-14 199 -158 199z" />
    <glyph glyph-name="d" unicode="d" horiz-adv-x="1372" 
d="M551 -29q-481 0 -479 570q0 281 136 435t348 152q212 0 300 -155h4v641h402v-1614h-385v152h-5q-111 -180 -321 -181zM864 467v139q0 127 -48 194q-48 66 -137 66t-144 -78t-56 -241q0 -317 197 -318q92 0 140 66t48 172z" />
    <glyph glyph-name="e" unicode="e" horiz-adv-x="1288" 
d="M68 551q0 270 153 427q155 157 433 157t420 -158t143 -432v-80h-746q8 -129 53 -181t129 -53q127 0 160 109h397q-23 -180 -168 -274t-411 -94t-415 154q-148 155 -148 425zM638 897q-151 0 -169 -225h340l-2 14q-18 211 -169 211z" />
    <glyph glyph-name="f" unicode="f" horiz-adv-x="774" 
d="M565 836v-836h-391v836h-135v272h135v96q0 232 112 328t320 96q107 0 164 -10l23 -2v-268q-35 6 -97 6q-132 0 -131 -162v-84h191v-272h-191z" />
    <glyph glyph-name="g" unicode="g" horiz-adv-x="1363" 
d="M670 -408q-541 0 -559 367h387q14 -61 52 -90t132 -29t141 58t47 184v151h-6q-82 -188 -307 -188q-485 0 -485 533q0 260 138 405t347 145q117 0 194 -45t113 -114h4v139h385v-987q0 -265 -139 -397t-444 -132zM870 504v127q0 113 -51 174t-137 61t-143 -70t-57 -215
t52 -219t141 -74t142 62q53 60 53 154z" />
    <glyph glyph-name="h" unicode="h" horiz-adv-x="1349" 
d="M850 0v629q0 119 -34 170t-122 51q-182 0 -182 -221v-629h-401v1614h401v-680h4q41 82 130 138t218 56q213 0 300 -108t87 -328v-692h-401z" />
    <glyph glyph-name="i" unicode="i" horiz-adv-x="622" 
d="M111 0v1108h401v-1108h-401zM111 1268v346h401v-346h-401z" />
    <glyph glyph-name="j" unicode="j" horiz-adv-x="634" 
d="M90 -430q-112 0 -178 22v265q26 -11 86 -11q124 -1 125 160v1102h401v-1100q0 -242 -114 -340t-320 -98zM123 1268v346h401v-346h-401z" />
    <glyph glyph-name="k" unicode="k" horiz-adv-x="1269" 
d="M504 0h-393v1614h393v-920l334 414h413l-370 -444l372 -664h-424l-217 399l-108 -137v-262z" />
    <glyph glyph-name="l" unicode="l" horiz-adv-x="622" 
d="M111 0v1614h401v-1614h-401z" />
    <glyph glyph-name="m" unicode="m" horiz-adv-x="2056" 
d="M111 0v1108h387v-180h4q119 201 350 200q156 0 236 -60t114 -169h4q43 92 134 161t235 68q207 0 295 -108t88 -328v-692h-402v629q0 119 -34 170t-115 51q-82 0 -127 -56t-45 -165v-629h-401v629q0 119 -34 170t-116 51t-127 -56t-45 -165v-629h-401z" />
    <glyph glyph-name="n" unicode="n" horiz-adv-x="1349" 
d="M850 0v629q0 119 -34 170t-122 51q-182 0 -182 -221v-629h-401v1108h387v-180h4q119 201 362 200q213 0 300 -108t87 -328v-692h-401z" />
    <glyph glyph-name="o" unicode="o" horiz-adv-x="1325" 
d="M663 874q-179 0 -179 -322t178 -321q180 -1 180 321t-179 322zM659 -29q-269 0 -431 154q-160 155 -160 431t158 428t430 151q272 0 437 -153t165 -426t-166 -429q-164 -156 -433 -156z" />
    <glyph glyph-name="p" unicode="p" horiz-adv-x="1361" 
d="M111 -385v1493h385v-178h4q41 80 131 140t217 60q209 0 326 -142q116 -142 116 -422t-128 -437q-128 -156 -340 -156t-304 152h-6v-510h-401zM508 483q0 -117 46 -185t135 -69q89 0 141 82t53 236q0 319 -195 319q-78 0 -129 -66t-51 -194v-123z" />
    <glyph glyph-name="q" unicode="q" horiz-adv-x="1372" 
d="M676 229q92 0 140 66t48 172v139q0 127 -48 194q-48 66 -137 66t-144 -78t-56 -241q0 -318 197 -318zM1262 1108v-1493h-402v508h-4q-37 -59 -114 -105t-191 -47q-479 0 -479 566q0 285 136 439t349 152q213 0 315 -161h5v141h385z" />
    <glyph glyph-name="r" unicode="r" horiz-adv-x="915" 
d="M111 0v1108h378v-248h5q47 136 150 200t222 64h19v-348h-70q-163 0 -235 -53t-72 -205v-518h-397z" />
    <glyph glyph-name="s" unicode="s" horiz-adv-x="1132" 
d="M565 891q-121 0 -121 -84q0 -37 24 -59t85 -29l197 -27q150 -18 236 -99t85 -228q0 -189 -139 -293t-367 -105q-489 0 -514 359h363q6 -115 149 -115t144 92q0 39 -27 58t-86 28l-180 23q-336 43 -336 344q0 158 123 268t360 111t353 -95t126 -258h-348q-4 45 -36 77
t-91 32z" />
    <glyph glyph-name="t" unicode="t" horiz-adv-x="862" 
d="M240 1413h338v-305h233v-272h-227v-402q0 -84 32 -122t111 -38l78 7v-281q-111 -14 -240 -14q-377 0 -377 370v480h-145v272h41q102 0 129 38t27 181v86z" />
    <glyph glyph-name="u" unicode="u" horiz-adv-x="1337" 
d="M500 1108v-631q0 -111 34 -164t121 -53q170 0 170 238v610h402v-1108h-387v174h-4q-109 -192 -333 -192t-315 100q-90 100 -90 305v721h402z" />
    <glyph glyph-name="v" unicode="v" horiz-adv-x="1236" 
d="M412 0l-400 1108h402l145 -481q31 -104 59 -242l9 -41h4q25 145 65 283l142 481h387l-402 -1108h-411z" />
    <glyph glyph-name="w" unicode="w" horiz-adv-x="1792" 
d="M336 0l-311 1108h378l111 -461q33 -138 43 -241l4 -39h6q23 145 62 280l129 461h305l131 -461q29 -109 55 -241l6 -39h9q25 145 55 280l106 461h342l-309 -1108h-379l-98 328q-33 111 -70 325l-10 64h-4q-47 -240 -92 -387l-100 -330h-369z" />
    <glyph glyph-name="x" unicode="x" horiz-adv-x="1236" 
d="M10 0l375 580l-346 528h424l164 -285h2l141 285h420l-344 -528l381 -580h-430l-191 328h-2l-172 -328h-422z" />
    <glyph glyph-name="y" unicode="y" horiz-adv-x="1226" 
d="M238 -119q166 0 198 99l4 12l-428 1116h416l156 -526q27 -92 45 -205l4 -33h4q10 113 45 238l143 526h389l-383 -1124q-73 -207 -187 -299t-339 -93q-160 0 -188 17v282q41 -10 121 -10z" />
    <glyph glyph-name="z" unicode="z" horiz-adv-x="1144" 
d="M98 825v283h973v-238l-504 -583h512v-287h-999v240l508 585h-490z" />
    <glyph glyph-name="braceleft" unicode="{" horiz-adv-x="913" 
d="M170 539h-68v262h68q59 -1 82 29t22 102v258q0 248 138 340t450 92v-221q-162 0 -220 -50t-58 -180v-223q0 -233 -170 -270v-8q170 -39 170 -283v-211q0 -129 58 -179t220 -50v-221q-313 0 -450 88t-138 317v277q0 72 -22 102t-82 29z" />
    <glyph glyph-name="bar" unicode="|" horiz-adv-x="591" 
d="M162 -266v1880h260v-1880h-260z" />
    <glyph glyph-name="braceright" unicode="}" horiz-adv-x="913" 
d="M811 809v-262h-68q-59 0 -81 -30t-23 -101v-258q0 -248 -137 -340t-451 -92v221q162 0 220 50t59 179v223q0 233 170 271v8q-170 39 -170 283v210q0 129 -58 179t-221 51v221q313 0 451 -88t137 -317v-277q0 -72 23 -102t81 -29h68z" />
    <glyph glyph-name="asciitilde" unicode="~" horiz-adv-x="968" 
d="M31 479q0 166 66 277q67 111 198 110q69 0 187 -48t153 -48q74 0 80 96h223q0 -172 -57 -280t-187 -107q-68 0 -186 48t-152 48q-72 0 -77 -96h-248z" />
    <glyph glyph-name="uni00A0" unicode="&#xa0;" horiz-adv-x="419" 
 />
    <glyph glyph-name="exclamdown" unicode="&#xa1;" horiz-adv-x="731" 
d="M156 1386h422v-348h-422v348zM510 883l88 -1110h-465l90 1110h287z" />
    <glyph glyph-name="cent" unicode="&#xa2;" horiz-adv-x="1308" 
d="M1241 436q0 -206 -131 -324t-350 -137v-213h-148v211q-248 20 -384 173t-136 410t138 407t382 170v167h148v-167q221 -17 348 -137t129 -318h-369q-14 158 -108 196v-636q108 38 114 198h367zM477 556q0 -270 135 -318v639q-135 -51 -135 -321z" />
    <glyph glyph-name="sterling" unicode="&#xa3;" horiz-adv-x="1353" 
d="M1229 309v-309h-1133v215l51 33q109 72 154 150t14 206h-274v225h199l-29 86q-92 265 51 445q142 180 440 180t428 -119t125 -338h-403q0 199 -139 199q-57 0 -93 -30t-50 -102t26 -196l37 -125h332v-225h-277q12 -164 -149 -285l-9 -6v-4h699z" />
    <glyph glyph-name="currency" unicode="&#xa4;" horiz-adv-x="1292" 
d="M644 547q71 0 114 46t43 120t-43 121t-114 47t-114 -47t-43 -121t43 -120t114 -46zM258 712q0 83 29 156l-219 215l208 209l216 -221q70 29 150 29t157 -31l217 223l209 -209l-224 -219q29 -70 29 -152t-29 -151l226 -219l-209 -209l-219 223q-149 -58 -307 -2l-216 -221
l-208 209l219 213q-29 74 -29 157z" />
    <glyph glyph-name="yen" unicode="&#xa5;" horiz-adv-x="1398" 
d="M504 0v266h-404v164h404v154h-408v164h404l-459 770h440l236 -439h4l229 439h408l-457 -770h404v-164h-406v-154h410v-164h-410v-266h-395z" />
    <glyph glyph-name="brokenbar" unicode="&#xa6;" horiz-adv-x="591" 
d="M422 -266h-260v829h260v-829zM422 1614v-832h-260v832h260z" />
    <glyph glyph-name="section" unicode="&#xa7;" horiz-adv-x="1312" 
d="M74 682q0 207 205 283v2q-115 86 -115 255t134 268t349 99q467 0 492 -358h-355q-6 115 -134 115t-128 -84q0 -51 30 -73t128 -63l274 -112q160 -66 222 -143t63 -205q0 -201 -203 -273v-4q113 -82 113 -225q0 -197 -136 -297t-360 -100q-477 0 -503 358h346
q2 -53 45 -84t108 -31t105 24q39 24 39 64t-27 67q-27 26 -86 48l-320 129q-147 59 -217 129q-69 70 -69 211zM807 510q90 16 90 102q0 38 -33 69q-33 30 -123 67l-235 98q-46 -6 -68 -36t-22 -64t24 -60t50 -41q28 -14 83 -37z" />
    <glyph glyph-name="dieresis" unicode="&#xa8;" horiz-adv-x="755" 
d="M-6 1292v322h328v-322h-328zM434 1292v322h328v-322h-328z" />
    <glyph glyph-name="copyright" unicode="&#xa9;" horiz-adv-x="1841" 
d="M1339 698q-1 -172 -115 -264t-312 -92t-312 118q-115 118 -115 329t119 327q118 116 314 115q196 0 306 -92t111 -258h-293q-10 154 -116 153q-135 0 -135 -244t135 -245q117 0 121 153h292zM920 84q288 0 482 200t194 494t-194 496q-194 201 -482 201t-482 -200
q-192 -200 -192 -496q0 -295 192 -495t482 -200zM113 778q0 346 230 580q231 234 577 233q346 0 577 -233q231 -232 231 -578t-230 -579q-232 -233 -578 -233t-576 232t-231 578z" />
    <glyph glyph-name="ordfeminine" unicode="&#xaa;" horiz-adv-x="1085" 
d="M528 1540q240 0 334 -92t94 -274v-240q0 -33 14 -45t44 -12v-222h-135q-101 1 -155 17t-85 84h-6q-84 -111 -252 -111q-131 0 -215 74t-84 190q0 150 131 219q63 34 147 46t263 18v45q0 39 -23 61t-57 21q-78 0 -86 -72h-348q6 137 123 215q118 78 296 78zM432 938
q0 -74 87 -74q46 0 76 39t30 101v26q-121 -4 -158 -26q-35 -23 -35 -66z" />
    <glyph glyph-name="guillemotleft" unicode="&#xab;" horiz-adv-x="1073" 
d="M264 950h275l-193 -422l197 -411h-277l-213 418zM727 950h274l-192 -422l195 -411h-275l-213 418z" />
    <glyph glyph-name="logicalnot" unicode="&#xac;" horiz-adv-x="1296" 
d="M1190 188h-305v406h-781v278h1086v-684z" />
    <glyph glyph-name="registered" unicode="&#xae;" horiz-adv-x="1050" 
d="M467 1098v-172h-127v460h219q66 0 114 -34t48 -94q0 -106 -92 -140l98 -192h-135l-80 172h-45zM467 1184h47q80 0 80 65q0 59 -78 60h-49v-125zM524 772q152 0 253 106t102 263q1 158 -101 264t-254 106t-252 -106t-100 -264q0 -157 100 -263t252 -106zM82 1141
q0 190 126 319t316 129t318 -129t127 -319q0 -191 -127 -319q-128 -128 -318 -128t-316 128t-126 319z" />
    <glyph glyph-name="macron" unicode="&#xaf;" horiz-adv-x="755" 
d="M0 1292v246h756v-246h-756z" />
    <glyph glyph-name="degree" unicode="&#xb0;" horiz-adv-x="911" 
d="M456 1051q72 0 114 46t42 120q0 75 -43 121t-113 46t-114 -47q-43 -47 -43 -121t43 -119q43 -46 114 -46zM104 1217q0 151 100 251t252 100q153 0 252 -100t99 -252t-99 -250q-99 -100 -252 -100q-152 0 -252 100t-100 251z" />
    <glyph glyph-name="plusminus" unicode="&#xb1;" horiz-adv-x="1296" 
d="M104 0v279h1086v-279h-1086zM799 778v-323h-305v323h-390v279h390v319h305v-319h391v-279h-391z" />
    <glyph glyph-name="twosuperior" unicode="&#xb2;" horiz-adv-x="909" 
d="M458 1683q190 -1 281 -73q92 -72 92 -180t-51 -178q-51 -69 -166 -156l-131 -101v-6h351v-203h-773v138l377 317q63 53 86 86t23 74q0 90 -86 90q-119 0 -121 -143h-270q4 158 101 246t287 89z" />
    <glyph glyph-name="threesuperior" unicode="&#xb3;" horiz-adv-x="921" 
d="M459 1155h-113v158h86q47 -1 78 23t31 68t-27 68t-72 23q-44 0 -68 -28t-26 -62h-272q8 115 97 199t277 84t280 -69q93 -69 93 -171q0 -164 -182 -199v-4q205 -31 205 -209q0 -112 -102 -190t-296 -78t-284 81t-92 202h280q2 -41 30 -64t77 -23t78 28t29 70t-30 68
q-28 26 -77 25z" />
    <glyph glyph-name="acute" unicode="&#xb4;" horiz-adv-x="755" 
d="M168 1245l100 369h387l-180 -369h-307z" />
    <glyph glyph-name="paragraph" unicode="&#xb6;" horiz-adv-x="1263" 
d="M72 1158q0 204 130 306t347 103h199v-1567h-224v737q-208 5 -330 111t-122 310zM913 1567h224v-1567h-224v1567z" />
    <glyph glyph-name="periodcentered" unicode="&#xb7;" horiz-adv-x="653" 
d="M127 563v367h399v-367h-399z" />
    <glyph glyph-name="cedilla" unicode="&#xb8;" horiz-adv-x="1097" 
d="M827 -246q1 -88 -67 -148t-188 -60t-184 50q-64 52 -69 123h181q18 -41 65 -41q66 0 66 60t-66 59q-37 0 -57 -26h-143l131 301h116l-63 -144h4q29 18 97 18t123 -52q54 -52 54 -140z" />
    <glyph glyph-name="onesuperior" unicode="&#xb9;" horiz-adv-x="649" 
d="M240 786v549h-197v187h31q86 0 137 30q51 35 51 117h260v-883h-282z" />
    <glyph glyph-name="ordmasculine" unicode="&#xba;" horiz-adv-x="1144" 
d="M573 1296q-75 0 -99 -57t-23 -154q0 -211 120 -211q76 0 100 58t23 153q0 211 -121 211zM569 633q-215 0 -346 118q-131 119 -131 337t128 334t344 116t352 -117t136 -333t-134 -336t-349 -119z" />
    <glyph glyph-name="guillemotright" unicode="&#xbb;" horiz-adv-x="1093" 
d="M829 117h-274l193 422l-195 411h274l213 -415zM348 117h-276l194 422l-196 411h276l211 -415z" />
    <glyph glyph-name="onequarter" unicode="&#xbc;" horiz-adv-x="1843" 
d="M1786 174h-113v-174h-256v174h-471v180l393 529h334v-508h113v-201zM1425 360v361h-6q-27 -78 -78 -150l-151 -211h235zM160 -82l1120 1681h262l-1120 -1681h-262zM240 684v549h-197v186h31q86 0 137 33t51 115h260v-883h-282z" />
    <glyph glyph-name="onehalf" unicode="&#xbd;" horiz-adv-x="1923" 
d="M1472 897q190 0 281 -73q92 -73 92 -181t-51 -177t-166 -157l-131 -100v-6h350v-203h-772v137l377 318q63 53 86 86t23 73q0 90 -86 91q-119 -1 -121 -144h-271q3 158 101 247t288 89zM156 -82l1120 1681h262l-1120 -1681h-262zM240 684v549h-197v186h31q86 0 137 33
t51 115h260v-883h-282z" />
    <glyph glyph-name="threequarters" unicode="&#xbe;" horiz-adv-x="1996" 
d="M1939 174h-112v-174h-256v174h-471v180l393 529h334v-508h112v-201zM1579 360v361h-6q-27 -78 -78 -150l-152 -211h236zM348 -82l1120 1681h263l-1121 -1681h-262zM459 1053h-113v157h86q47 0 78 24t31 68t-27 68t-72 23q-44 0 -68 -28t-26 -62h-272q8 115 97 199t277 83
t280 -69q93 -68 93 -170q0 -164 -182 -199v-4q205 -31 205 -209q0 -113 -102 -191q-102 -77 -296 -77t-284 80t-92 202h280q2 -42 30 -64t77 -22t78 28t29 70t-30 68q-28 26 -77 25z" />
    <glyph glyph-name="questiondown" unicode="&#xbf;" horiz-adv-x="1271" 
d="M428 1386h422v-348h-422v348zM457 209q0 -147 170 -148q199 0 200 252h387q2 -253 -152 -405t-442 -152q-290 0 -424 118t-135 321q0 127 49 215q48 88 158 178l172 141q29 23 29 74v80h342v-131q0 -96 -17 -140t-94 -104l-125 -100q-45 -42 -64 -60t-37 -56t-17 -83z
" />
    <glyph glyph-name="Agrave" unicode="&#xc0;" horiz-adv-x="1587" 
d="M799 1966l135 -272h-297l-221 272h383zM1137 0l-90 283h-545l-92 -283h-392l543 1567h459l549 -1567h-432zM774 1225q0 -35 -59 -246l-119 -399h356l-116 397q-39 141 -54 221l-4 27h-4z" />
    <glyph glyph-name="Aacute" unicode="&#xc1;" horiz-adv-x="1587" 
d="M631 1694l135 272h383l-221 -272h-297zM1137 0l-90 283h-545l-92 -283h-392l543 1567h459l549 -1567h-432zM774 1225q0 -35 -59 -246l-119 -399h356l-116 397q-39 141 -54 221l-4 27h-4z" />
    <glyph glyph-name="Acircumflex" unicode="&#xc2;" horiz-adv-x="1587" 
d="M958 1966l224 -272h-271l-125 92h-2l-118 -92h-254l223 272h323zM1137 0l-90 283h-545l-92 -283h-392l543 1567h459l549 -1567h-432zM774 1225q0 -35 -59 -246l-119 -399h356l-116 397q-39 141 -54 221l-4 27h-4z" />
    <glyph glyph-name="Atilde" unicode="&#xc3;" horiz-adv-x="1587" 
d="M639 2009q68 0 159 -48t130 -48q68 0 102 96h162q-6 -162 -62 -251t-190 -89q-68 0 -159 47t-130 47q-68 0 -98 -94h-166q5 160 61 250t191 90zM1137 0l-90 283h-545l-92 -283h-392l543 1567h459l549 -1567h-432zM774 1225q0 -35 -59 -246l-119 -399h356l-116 397
q-39 141 -54 221l-4 27h-4z" />
    <glyph glyph-name="Adieresis" unicode="&#xc4;" horiz-adv-x="1587" 
d="M412 1702v321h327v-321h-327zM852 1702v321h328v-321h-328zM1137 0l-90 283h-545l-92 -283h-392l543 1567h459l549 -1567h-432zM774 1225q0 -35 -59 -246l-119 -399h356l-116 397q-39 141 -54 221l-4 27h-4z" />
    <glyph glyph-name="Aring" unicode="&#xc5;" horiz-adv-x="1587" 
d="M788 2009q-52 0 -80 -34t-28 -90t30 -90t80 -34t78 34t29 90q0 56 -29 90t-80 34zM786 1618q-133 0 -212 74q-78 74 -78 194t82 195q82 76 216 76t212 -74t78 -196q0 -121 -83 -195q-82 -74 -215 -74zM1137 0l-90 283h-545l-92 -283h-392l543 1567h459l549 -1567h-432z
M774 1225q0 -35 -59 -246l-119 -399h356l-116 397q-39 141 -54 221l-4 27h-4z" />
    <glyph glyph-name="AE" unicode="&#xc6;" horiz-adv-x="2252" 
d="M2132 1567v-303h-633v-338h612v-295h-612v-332h655v-299h-1071v324h-499l-152 -324h-430l784 1567h1346zM1083 621v643h-59l-301 -643h360z" />
    <glyph glyph-name="Ccedilla" unicode="&#xc7;" horiz-adv-x="1566" 
d="M793 -496q-121 0 -185 52t-67 122h180q18 -41 65 -40q66 0 66 59t-66 59q-37 0 -57 -26h-143l106 245q-311 37 -461 240t-149 537q0 395 191 616t531 221q340 -1 511 -157q170 -156 180 -431h-424q-8 143 -74 215q-67 72 -183 72t-200 -130t-84 -381t78 -380t202 -129
t186 69t75 218h422q-10 -272 -186 -430t-476 -158h-26l-35 -80h4q30 19 98 19t122 -53t54 -141t-67 -148q-68 -60 -188 -60z" />
    <glyph glyph-name="Egrave" unicode="&#xc8;" horiz-adv-x="1296" 
d="M672 1966l135 -272h-297l-221 272h383zM127 0v1567h1049v-303h-633v-338h612v-295h-612v-332h655v-299h-1071z" />
    <glyph glyph-name="Eacute" unicode="&#xc9;" horiz-adv-x="1296" 
d="M504 1694l135 272h383l-221 -272h-297zM127 0v1567h1049v-303h-633v-338h612v-295h-612v-332h655v-299h-1071z" />
    <glyph glyph-name="Ecircumflex" unicode="&#xca;" horiz-adv-x="1296" 
d="M831 1966l224 -272h-271l-125 92h-2l-118 -92h-254l223 272h323zM127 0v1567h1049v-303h-633v-338h612v-295h-612v-332h655v-299h-1071z" />
    <glyph glyph-name="Edieresis" unicode="&#xcb;" horiz-adv-x="1296" 
d="M279 1702v321h327v-321h-327zM719 1702v321h328v-321h-328zM127 0v1567h1049v-303h-633v-338h612v-295h-612v-332h655v-299h-1071z" />
    <glyph glyph-name="Igrave" unicode="&#xcc;" horiz-adv-x="669" 
d="M344 1966l135 -272h-297l-221 272h383zM127 0v1567h416v-1567h-416z" />
    <glyph glyph-name="Iacute" unicode="&#xcd;" horiz-adv-x="669" 
d="M176 1694l135 272h383l-221 -272h-297zM127 0v1567h416v-1567h-416z" />
    <glyph glyph-name="Icircumflex" unicode="&#xce;" horiz-adv-x="669" 
d="M504 1966l223 -272h-270l-125 92h-2l-119 -92h-254l223 272h324zM127 0v1567h416v-1567h-416z" />
    <glyph glyph-name="Idieresis" unicode="&#xcf;" horiz-adv-x="669" 
d="M-49 1702v321h328v-321h-328zM391 1702v321h328v-321h-328zM127 0v1567h416v-1567h-416z" />
    <glyph glyph-name="Eth" unicode="&#xd0;" horiz-adv-x="1624" 
d="M596 301h123q188 0 286 112q97 112 97 375q0 262 -95 372t-278 110h-133v-355h283v-264h-283v-350zM745 0h-565v651h-143v264h143v652h565q373 -1 585 -191t212 -576t-215 -593t-582 -207z" />
    <glyph glyph-name="Ntilde" unicode="&#xd1;" horiz-adv-x="1607" 
d="M653 2009q68 0 159 -48t130 -48q68 0 102 96h162q-6 -162 -61 -251t-191 -89q-68 0 -158 47t-130 47q-68 0 -99 -94h-166q5 160 61 250t191 90zM127 0v1567h440l404 -678q77 -135 119 -242l12 -33h6v953h373v-1567h-414l-424 702q-75 123 -127 248l-14 37h-6v-987h-369z
" />
    <glyph glyph-name="Ograve" unicode="&#xd2;" horiz-adv-x="1681" 
d="M850 1966l135 -272h-297l-221 272h383zM842 262q307 0 307 516q0 252 -84 386t-223 134q-307 0 -307 -520q1 -264 73 -390t234 -126zM82 772q0 377 204 597t566 220t554 -214q194 -214 194 -593t-200 -597t-566 -218t-560 214q-192 214 -192 591z" />
    <glyph glyph-name="Oacute" unicode="&#xd3;" horiz-adv-x="1681" 
d="M682 1694l135 272h383l-221 -272h-297zM842 262q307 0 307 516q0 252 -84 386t-223 134q-307 0 -307 -520q1 -264 73 -390t234 -126zM82 772q0 377 204 597t566 220t554 -214q194 -214 194 -593t-200 -597t-566 -218t-560 214q-192 214 -192 591z" />
    <glyph glyph-name="Ocircumflex" unicode="&#xd4;" horiz-adv-x="1681" 
d="M1010 1966l223 -272h-270l-125 92h-2l-119 -92h-254l223 272h324zM842 262q307 0 307 516q0 252 -84 386t-223 134q-307 0 -307 -520q1 -264 73 -390t234 -126zM82 772q0 377 204 597t566 220t554 -214q194 -214 194 -593t-200 -597t-566 -218t-560 214
q-192 214 -192 591z" />
    <glyph glyph-name="Otilde" unicode="&#xd5;" horiz-adv-x="1681" 
d="M690 2009q68 0 159 -48t130 -48q68 0 102 96h162q-6 -162 -61 -251t-191 -89q-69 0 -159 47t-130 47q-68 0 -98 -94h-166q6 160 62 250t190 90zM842 262q307 0 307 516q0 252 -84 386t-223 134q-307 0 -307 -520q1 -264 73 -390t234 -126zM82 772q0 377 204 597t566 220
t554 -214q194 -214 194 -593t-200 -597t-566 -218t-560 214q-192 214 -192 591z" />
    <glyph glyph-name="Odieresis" unicode="&#xd6;" horiz-adv-x="1681" 
d="M457 1702v321h327v-321h-327zM897 1702v321h328v-321h-328zM842 262q307 0 307 516q0 252 -84 386t-223 134q-307 0 -307 -520q1 -264 73 -390t234 -126zM82 772q0 377 204 597t566 220t554 -214q194 -214 194 -593t-200 -597t-566 -218t-560 214q-192 214 -192 591z" />
    <glyph glyph-name="multiply" unicode="&#xd7;" horiz-adv-x="1296" 
d="M309 166l-209 209l342 338l-342 338l209 209l338 -342l336 342l209 -209l-340 -338l342 -338l-209 -209l-338 342z" />
    <glyph glyph-name="Oslash" unicode="&#xd8;" horiz-adv-x="1681" 
d="M1599 773q1 -370 -199 -588t-556 -218q-274 0 -457 117l-111 -135h-243l215 262q-166 209 -166 573t204 585q204 220 558 220q262 0 438 -110l119 145h244l-222 -270q176 -211 176 -581zM842 254q319 0 319 524q0 123 -20 230l-531 -652q76 -102 232 -102zM842 1307
q-319 0 -320 -529q0 -133 13 -215l524 641q-80 103 -217 103z" />
    <glyph glyph-name="Ugrave" unicode="&#xd9;" horiz-adv-x="1554" 
d="M786 1966l136 -272h-297l-222 272h383zM115 561v1006h415l-2 -922q0 -201 50 -266q70 -88 217 -88t206 109q23 42 25 81t3 47t1 30v1009h410v-1006q0 -291 -179 -443t-487 -151q-308 -1 -483 151q-176 152 -176 443z" />
    <glyph glyph-name="Uacute" unicode="&#xda;" horiz-adv-x="1554" 
d="M618 1694l136 272h383l-222 -272h-297zM115 561v1006h415l-2 -922q0 -201 50 -266q70 -88 217 -88t206 109q23 42 25 81t3 47t1 30v1009h410v-1006q0 -291 -179 -443t-487 -151q-308 -1 -483 151q-176 152 -176 443z" />
    <glyph glyph-name="Ucircumflex" unicode="&#xdb;" horiz-adv-x="1554" 
d="M946 1966l223 -272h-270l-125 92h-2l-119 -92h-254l224 272h323zM115 561v1006h415l-2 -922q0 -201 50 -266q70 -88 217 -88t206 109q23 42 25 81t3 47t1 30v1009h410v-1006q0 -291 -179 -443t-487 -151q-308 -1 -483 151q-176 152 -176 443z" />
    <glyph glyph-name="Udieresis" unicode="&#xdc;" horiz-adv-x="1554" 
d="M393 1702v321h328v-321h-328zM834 1702v321h327v-321h-327zM115 561v1006h415l-2 -922q0 -201 50 -266q70 -88 217 -88t206 109q23 42 25 81t3 47t1 30v1009h410v-1006q0 -291 -179 -443t-487 -151q-308 -1 -483 151q-176 152 -176 443z" />
    <glyph glyph-name="Yacute" unicode="&#xdd;" horiz-adv-x="1474" 
d="M600 1694l135 272h383l-221 -272h-297zM530 0v653l-507 914h450l281 -559h4l274 559h420l-506 -910v-657h-416z" />
    <glyph glyph-name="Thorn" unicode="&#xde;" horiz-adv-x="1398" 
d="M758 317h-215v-317h-416v1567h416v-289h239q258 0 410 -113t151 -356q1 -492 -585 -492zM543 598h182q104 4 164 56q59 52 59 151q0 201 -233 201h-172v-408z" />
    <glyph glyph-name="germandbls" unicode="&#xdf;" horiz-adv-x="1374" 
d="M111 0v1126q0 234 141 368t450 134q244 0 377 -119t133 -301q0 -147 -72 -231t-169 -113v-8q154 -31 247 -134t93 -265q0 -219 -156 -338t-440 -119h-84v279h57q94 0 150 51q55 51 55 155q1 105 -61 167t-152 63h-27v276h27q168 0 168 203q0 184 -168 184q-72 0 -120 -50
t-48 -150v-1178h-401z" />
    <glyph glyph-name="agrave" unicode="&#xe0;" horiz-adv-x="1230" 
d="M680 1614l100 -369h-307l-180 369h387zM1106 674v-348q0 -33 18 -46t64 -14v-266h-154q-125 0 -186 25t-92 106h-6q-122 -141 -312 -141t-295 89q-104 89 -104 247q0 188 168 276q91 51 293 68q59 4 217 10v65q0 139 -125 140q-123 0 -129 -119h-383q10 174 145 270
t363 97q290 0 404 -113t114 -346zM562 225q64 1 112 61q47 60 47 163v38q-185 -10 -237 -45t-52 -92t33 -91t97 -34z" />
    <glyph glyph-name="aacute" unicode="&#xe1;" horiz-adv-x="1230" 
d="M432 1245l100 369h388l-181 -369h-307zM1106 674v-348q0 -33 18 -46t64 -14v-266h-154q-125 0 -186 25t-92 106h-6q-122 -141 -312 -141t-295 89q-104 89 -104 247q0 188 168 276q91 51 293 68q59 4 217 10v65q0 139 -125 140q-123 0 -129 -119h-383q10 174 145 270
t363 97q290 0 404 -113t114 -346zM562 225q64 1 112 61q47 60 47 163v38q-185 -10 -237 -45t-52 -92t33 -91t97 -34z" />
    <glyph glyph-name="acircumflex" unicode="&#xe2;" horiz-adv-x="1230" 
d="M766 1614l229 -369h-256l-129 131h-2l-123 -131h-239l229 369h291zM1106 674v-348q0 -33 18 -46t64 -14v-266h-154q-125 0 -186 25t-92 106h-6q-122 -141 -312 -141t-295 89q-104 89 -104 247q0 188 168 276q91 51 293 68q59 4 217 10v65q0 139 -125 140
q-123 0 -129 -119h-383q10 174 145 270t363 97q290 0 404 -113t114 -346zM562 225q64 1 112 61q47 60 47 163v38q-185 -10 -237 -45t-52 -92t33 -91t97 -34z" />
    <glyph glyph-name="atilde" unicode="&#xe3;" horiz-adv-x="1230" 
d="M209 1245q0 369 256 369q68 0 155 -46t125 -46q76 0 107 92h162q0 -369 -256 -369q-68 0 -155 46t-126 46q-76 0 -102 -92h-166zM1106 674v-348q0 -33 18 -46t64 -14v-266h-154q-125 0 -186 25t-92 106h-6q-122 -141 -312 -141t-295 89q-104 89 -104 247q0 188 168 276
q91 51 293 68q59 4 217 10v65q0 139 -125 140q-123 0 -129 -119h-383q10 174 145 270t363 97q290 0 404 -113t114 -346zM562 225q64 1 112 61q47 60 47 163v38q-185 -10 -237 -45t-52 -92t33 -91t97 -34z" />
    <glyph glyph-name="adieresis" unicode="&#xe4;" horiz-adv-x="1230" 
d="M227 1292v322h328v-322h-328zM668 1292v322h327v-322h-327zM1106 674v-348q0 -33 18 -46t64 -14v-266h-154q-125 0 -186 25t-92 106h-6q-122 -141 -312 -141t-295 89q-104 89 -104 247q0 188 168 276q91 51 293 68q59 4 217 10v65q0 139 -125 140q-123 0 -129 -119h-383
q10 174 145 270t363 97q290 0 404 -113t114 -346zM562 225q64 1 112 61q47 60 47 163v38q-185 -10 -237 -45t-52 -92t33 -91t97 -34z" />
    <glyph glyph-name="aring" unicode="&#xe5;" horiz-adv-x="1230" 
d="M610 1599q-51 1 -80 -33q-28 -34 -28 -90t29 -91q30 -33 80 -33t79 34t29 90t-29 90t-80 33zM608 1208q-133 0 -212 74t-79 194t82 196t216 75q134 0 212 -74q78 -73 78 -195t-82 -196t-215 -74zM1106 674v-348q0 -33 18 -46t64 -14v-266h-154q-125 0 -186 25t-92 106h-6
q-122 -141 -312 -141t-295 89q-104 89 -104 247q0 188 168 276q91 51 293 68q59 4 217 10v65q0 139 -125 140q-123 0 -129 -119h-383q10 174 145 270t363 97q290 0 404 -113t114 -346zM562 225q64 1 112 61q47 60 47 163v38q-185 -10 -237 -45t-52 -92t33 -91t97 -34z" />
    <glyph glyph-name="ae" unicode="&#xe6;" horiz-adv-x="1916" 
d="M426 -10q-178 0 -283 89q-104 89 -104 247q0 188 168 276q83 43 195 56t315 18v69q0 139 -125 140q-123 0 -129 -119h-383q10 174 144 270t367 96t335 -116h4q115 119 338 119q293 0 435 -158t142 -432v-80h-745q8 -129 53 -181t129 -53q127 0 160 109h397
q-23 -180 -166 -274t-391 -95q-322 0 -444 189h-4q-137 -170 -408 -170zM564 225q64 1 110 61q47 60 47 163v32q-176 0 -240 -41q-49 -33 -49 -91t34 -91t98 -33zM1267 897q-151 0 -169 -225h340l-2 14q-18 211 -169 211z" />
    <glyph glyph-name="ccedilla" unicode="&#xe7;" horiz-adv-x="1284" 
d="M666 -496q-120 0 -184 52t-68 122h180q18 -41 65 -40q66 0 66 59t-66 59q-37 0 -57 -26h-143l106 245q-237 27 -367 178t-130 415t158 415q158 152 424 152t413 -121t149 -336h-395q-14 199 -158 199q-180 1 -180 -319t180 -320q158 0 164 198h394q-1 -219 -149 -340
t-388 -125l-37 -84h4q27 19 97 19t123 -53q55 -53 55 -141t-68 -148t-188 -60z" />
    <glyph glyph-name="egrave" unicode="&#xe8;" horiz-adv-x="1288" 
d="M711 1614l100 -369h-307l-180 369h387zM68 551q0 270 153 427q155 157 433 157t420 -158t143 -432v-80h-746q8 -129 53 -181t129 -53q127 0 160 109h397q-23 -180 -168 -274t-411 -94t-415 154q-148 155 -148 425zM638 897q-151 0 -169 -225h340l-2 14q-18 211 -169 211z
" />
    <glyph glyph-name="eacute" unicode="&#xe9;" horiz-adv-x="1288" 
d="M463 1245l100 369h387l-180 -369h-307zM68 551q0 270 153 427q155 157 433 157t420 -158t143 -432v-80h-746q8 -129 53 -181t129 -53q127 0 160 109h397q-23 -180 -168 -274t-411 -94t-415 154q-148 155 -148 425zM638 897q-151 0 -169 -225h340l-2 14q-18 211 -169 211z
" />
    <glyph glyph-name="ecircumflex" unicode="&#xea;" horiz-adv-x="1288" 
d="M797 1614l229 -369h-256l-129 131h-2l-123 -131h-240l230 369h291zM68 551q0 270 153 427q155 157 433 157t420 -158t143 -432v-80h-746q8 -129 53 -181t129 -53q127 0 160 109h397q-23 -180 -168 -274t-411 -94t-415 154q-148 155 -148 425zM638 897q-151 0 -169 -225
h340l-2 14q-18 211 -169 211z" />
    <glyph glyph-name="edieresis" unicode="&#xeb;" horiz-adv-x="1288" 
d="M258 1292v322h328v-322h-328zM698 1292v322h328v-322h-328zM68 551q0 270 153 427q155 157 433 157t420 -158t143 -432v-80h-746q8 -129 53 -181t129 -53q127 0 160 109h397q-23 -180 -168 -274t-411 -94t-415 154q-148 155 -148 425zM638 897q-151 0 -169 -225h340
l-2 14q-18 211 -169 211z" />
    <glyph glyph-name="igrave" unicode="&#xec;" horiz-adv-x="622" 
d="M381 1614l100 -369h-307l-180 369h387zM111 0v1108h401v-1108h-401z" />
    <glyph glyph-name="iacute" unicode="&#xed;" horiz-adv-x="622" 
d="M133 1245l100 369h388l-181 -369h-307zM111 0v1108h401v-1108h-401z" />
    <glyph glyph-name="icircumflex" unicode="&#xee;" horiz-adv-x="622" 
d="M444 1614l207 -369h-229l-117 131h-2l-110 -131h-216l207 369h260zM111 0v1108h401v-1108h-401z" />
    <glyph glyph-name="idieresis" unicode="&#xef;" horiz-adv-x="622" 
d="M-35 1292v322h295v-322h-295zM362 1292v322h295v-322h-295zM111 0v1108h401v-1108h-401z" />
    <glyph glyph-name="eth" unicode="&#xf0;" horiz-adv-x="1331" 
d="M662 881q-102 0 -140 -84t-39 -254q0 -311 176 -312q100 0 140 83q39 83 39 231q0 336 -176 336zM1253 610q0 -328 -160 -484t-435 -155t-433 147q-157 146 -157 418t133 430q133 157 350 156q78 0 124 -22t95 -70h4q-66 123 -213 230l-268 -109l-55 139l174 72
q-63 39 -228 129l283 141q152 -51 287 -131l217 88l55 -139l-129 -53q356 -297 356 -787z" />
    <glyph glyph-name="ntilde" unicode="&#xf1;" horiz-adv-x="1349" 
d="M287 1245q0 369 256 369q69 0 155 -46t125 -46q76 0 107 92h162q0 -369 -256 -369q-68 0 -155 46t-126 46q-76 0 -102 -92h-166zM850 0v629q0 119 -34 170t-122 51q-182 0 -182 -221v-629h-401v1108h387v-180h4q119 201 362 200q213 0 300 -108t87 -328v-692h-401z" />
    <glyph glyph-name="ograve" unicode="&#xf2;" horiz-adv-x="1325" 
d="M731 1614l100 -369h-307l-180 369h387zM663 874q-179 0 -179 -322t178 -321q180 -1 180 321t-179 322zM659 -29q-269 0 -431 154q-160 155 -160 431t158 428t430 151q272 0 437 -153t165 -426t-166 -429q-164 -156 -433 -156z" />
    <glyph glyph-name="oacute" unicode="&#xf3;" horiz-adv-x="1325" 
d="M483 1245l101 369h387l-180 -369h-308zM663 874q-179 0 -179 -322t178 -321q180 -1 180 321t-179 322zM659 -29q-269 0 -431 154q-160 155 -160 431t158 428t430 151q272 0 437 -153t165 -426t-166 -429q-164 -156 -433 -156z" />
    <glyph glyph-name="ocircumflex" unicode="&#xf4;" horiz-adv-x="1325" 
d="M817 1614l230 -369h-256l-129 131h-3l-122 -131h-240l229 369h291zM663 874q-179 0 -179 -322t178 -321q180 -1 180 321t-179 322zM659 -29q-269 0 -431 154q-160 155 -160 431t158 428t430 151q272 0 437 -153t165 -426t-166 -429q-164 -156 -433 -156z" />
    <glyph glyph-name="otilde" unicode="&#xf5;" horiz-adv-x="1325" 
d="M260 1245q0 369 256 369q68 0 155 -46t126 -46q76 0 106 92h162q0 -369 -256 -369q-68 0 -155 46t-126 46q-76 0 -102 -92h-166zM663 874q-179 0 -179 -322t178 -321q180 -1 180 321t-179 322zM659 -29q-269 0 -431 154q-160 155 -160 431t158 428t430 151
q272 0 437 -153t165 -426t-166 -429q-164 -156 -433 -156z" />
    <glyph glyph-name="odieresis" unicode="&#xf6;" horiz-adv-x="1325" 
d="M279 1292v322h327v-322h-327zM719 1292v322h328v-322h-328zM663 874q-179 0 -179 -322t178 -321q180 -1 180 321t-179 322zM659 -29q-269 0 -431 154q-160 155 -160 431t158 428t430 151q272 0 437 -153t165 -426t-166 -429q-164 -156 -433 -156z" />
    <glyph glyph-name="divide" unicode="&#xf7;" horiz-adv-x="1296" 
d="M836 115h-377v346h377v-346zM145 594v278h1004v-278h-1004zM459 999v347h377v-347h-377z" />
    <glyph glyph-name="oslash" unicode="&#xf8;" horiz-adv-x="1325" 
d="M1257 545q-1 -262 -165 -418t-428 -156q-182 0 -318 70l-108 -131h-215l190 229q-145 153 -145 423t158 422t438 151q180 0 313 -72l110 133h216l-193 -231q147 -158 147 -420zM664 223q197 0 196 330q0 53 -6 102l-315 -381q47 -51 125 -51zM664 883q-199 0 -199 -330
q0 -53 6 -102l315 383q-44 49 -122 49z" />
    <glyph glyph-name="ugrave" unicode="&#xf9;" horiz-adv-x="1337" 
d="M731 1614l100 -369h-307l-180 369h387zM500 1108v-631q0 -111 34 -164t121 -53q170 0 170 238v610h402v-1108h-387v174h-4q-109 -192 -333 -192t-315 100q-90 100 -90 305v721h402z" />
    <glyph glyph-name="uacute" unicode="&#xfa;" horiz-adv-x="1337" 
d="M483 1245l101 369h387l-180 -369h-308zM500 1108v-631q0 -111 34 -164t121 -53q170 0 170 238v610h402v-1108h-387v174h-4q-109 -192 -333 -192t-315 100q-90 100 -90 305v721h402z" />
    <glyph glyph-name="ucircumflex" unicode="&#xfb;" horiz-adv-x="1337" 
d="M817 1614l230 -369h-256l-129 131h-3l-122 -131h-240l229 369h291zM500 1108v-631q0 -111 34 -164t121 -53q170 0 170 238v610h402v-1108h-387v174h-4q-109 -192 -333 -192t-315 100q-90 100 -90 305v721h402z" />
    <glyph glyph-name="udieresis" unicode="&#xfc;" horiz-adv-x="1337" 
d="M285 1292v322h327v-322h-327zM725 1292v322h328v-322h-328zM500 1108v-631q0 -111 34 -164t121 -53q170 0 170 238v610h402v-1108h-387v174h-4q-109 -192 -333 -192t-315 100q-90 100 -90 305v721h402z" />
    <glyph glyph-name="yacute" unicode="&#xfd;" horiz-adv-x="1226" 
d="M459 1245l100 369h387l-180 -369h-307zM238 -119q166 0 198 99l4 12l-428 1116h416l156 -526q27 -92 45 -205l4 -33h4q10 113 45 238l143 526h389l-383 -1124q-73 -207 -187 -299t-339 -93q-160 0 -188 17v282q41 -10 121 -10z" />
    <glyph glyph-name="thorn" unicode="&#xfe;" horiz-adv-x="1361" 
d="M111 -385v1999h401v-664h6q45 78 129 129t201 51q209 0 326 -142q116 -142 116 -422t-128 -437q-128 -156 -340 -156t-304 152h-6v-510h-401zM508 483q0 -117 46 -185t135 -69q89 0 141 82t53 236q0 319 -195 319q-78 0 -129 -66t-51 -194v-123z" />
    <glyph glyph-name="ydieresis" unicode="&#xff;" horiz-adv-x="1226" 
d="M254 1292v322h328v-322h-328zM694 1292v322h328v-322h-328zM238 -119q166 0 198 99l4 12l-428 1116h416l156 -526q27 -92 45 -205l4 -33h4q10 113 45 238l143 526h389l-383 -1124q-73 -207 -187 -299t-339 -93q-160 0 -188 17v282q41 -10 121 -10z" />
    <glyph glyph-name="Amacron" unicode="&#x100;" horiz-adv-x="1587" 
d="M412 1702v246h755v-246h-755zM1137 0l-90 283h-545l-92 -283h-392l543 1567h459l549 -1567h-432zM774 1225q0 -35 -59 -246l-119 -399h356l-116 397q-39 141 -54 221l-4 27h-4z" />
    <glyph glyph-name="amacron" unicode="&#x101;" horiz-adv-x="1230" 
d="M233 1292v246h756v-246h-756zM1106 674v-348q0 -33 18 -46t64 -14v-266h-154q-125 0 -186 25t-92 106h-6q-122 -141 -312 -141t-295 89q-104 89 -104 247q0 188 168 276q91 51 293 68q59 4 217 10v65q0 139 -125 140q-123 0 -129 -119h-383q10 174 145 270t363 97
q290 0 404 -113t114 -346zM562 225q64 1 112 61q47 60 47 163v38q-185 -10 -237 -45t-52 -92t33 -91t97 -34z" />
    <glyph glyph-name="Abreve" unicode="&#x102;" horiz-adv-x="1587" 
d="M1149 1993q1 -174 -99 -257t-261 -83t-260 83t-99 257h248q2 -51 35 -82t82 -31t83 31t35 82h236zM1137 0l-90 283h-545l-92 -283h-392l543 1567h459l549 -1567h-432zM774 1225q0 -35 -59 -246l-119 -399h356l-116 397q-39 141 -54 221l-4 27h-4z" />
    <glyph glyph-name="abreve" unicode="&#x103;" horiz-adv-x="1230" 
d="M610 1235q-160 0 -259 94t-99 285h254q0 -61 30 -94t80 -33t81 33q30 33 30 94h244q-1 -190 -101 -284t-260 -95zM1106 674v-348q0 -33 18 -46t64 -14v-266h-154q-125 0 -186 25t-92 106h-6q-122 -141 -312 -141t-295 89q-104 89 -104 247q0 188 168 276q91 51 293 68
q59 4 217 10v65q0 139 -125 140q-123 0 -129 -119h-383q10 174 145 270t363 97q290 0 404 -113t114 -346zM562 225q64 1 112 61q47 60 47 163v38q-185 -10 -237 -45t-52 -92t33 -91t97 -34z" />
    <glyph glyph-name="Aogonek" unicode="&#x104;" horiz-adv-x="1587" 
d="M596 580h356l-116 397q-39 141 -54 221l-4 27h-4q-12 -88 -59 -246zM1440 -113q0 -59 90 -59v-213h-72q-172 0 -240 48t-67 134q0 133 168 203h-182l-90 283h-547l-90 -283h-392l543 1567h459l543 -1551q-123 -63 -123 -129z" />
    <glyph glyph-name="aogonek" unicode="&#x105;" horiz-adv-x="1230" 
d="M562 225q64 1 112 61q47 60 47 163v38q-185 -10 -237 -45t-52 -92t33 -91t97 -34zM1106 674v-348q0 -33 18 -46t64 -14v-266q-90 -60 -90 -116t90 -56v-213h-72q-172 0 -240 48t-67 134q0 139 174 197v6q-65 4 -101 12q-88 20 -126 119h-6q-122 -141 -312 -141t-295 89
q-104 89 -104 247q0 188 168 276q91 51 293 68q59 4 217 10v65q0 139 -125 140q-123 0 -129 -119h-383q10 174 145 270t363 97q290 0 404 -113t114 -346z" />
    <glyph glyph-name="Cacute" unicode="&#x106;" horiz-adv-x="1566" 
d="M678 1694l135 272h383l-221 -272h-297zM810 1288q-112 0 -196 -130t-84 -381t78 -380t213 -129q104 0 171 70t79 217h422q-10 -272 -186 -430t-476 -158q-383 0 -566 208t-183 590t191 603t531 221q340 -1 511 -157q170 -156 180 -431h-424q-8 141 -78 214
q-71 73 -183 73z" />
    <glyph glyph-name="cacute" unicode="&#x107;" horiz-adv-x="1284" 
d="M492 1245l100 369h387l-180 -369h-307zM659 877q-180 1 -180 -319t180 -320q158 0 164 198h394q0 -223 -155 -344q-154 -121 -420 -121t-420 155t-154 430t158 427t424 152t413 -121t149 -336h-395q-14 199 -158 199z" />
    <glyph glyph-name="Ccircumflex" unicode="&#x108;" horiz-adv-x="1566" 
d="M1006 1966l223 -272h-271l-124 92h-3l-118 -92h-254l223 272h324zM810 1288q-112 0 -196 -130t-84 -381t78 -380t213 -129q104 0 171 70t79 217h422q-10 -272 -186 -430t-476 -158q-383 0 -566 208t-183 590t191 603t531 221q340 -1 511 -157q170 -156 180 -431h-424
q-8 141 -78 214q-71 73 -183 73z" />
    <glyph glyph-name="ccircumflex" unicode="&#x109;" horiz-adv-x="1284" 
d="M825 1614l230 -369h-256l-129 131h-2l-123 -131h-240l230 369h290zM659 877q-180 1 -180 -319t180 -320q158 0 164 198h394q0 -223 -155 -344q-154 -121 -420 -121t-420 155t-154 430t158 427t424 152t413 -121t149 -336h-395q-14 199 -158 199z" />
    <glyph glyph-name="Cdotaccent" unicode="&#x10a;" horiz-adv-x="1566" 
d="M672 1702v321h327v-321h-327zM810 1288q-112 0 -196 -130t-84 -381t78 -380t213 -129q104 0 171 70t79 217h422q-10 -272 -186 -430t-476 -158q-383 0 -566 208t-183 590t191 603t531 221q340 -1 511 -157q170 -156 180 -431h-424q-8 141 -78 214q-71 73 -183 73z" />
    <glyph glyph-name="cdotaccent" unicode="&#x10b;" horiz-adv-x="1284" 
d="M506 1292v322h328v-322h-328zM659 877q-180 1 -180 -319t180 -320q158 0 164 198h394q0 -223 -155 -344q-154 -121 -420 -121t-420 155t-154 430t158 427t424 152t413 -121t149 -336h-395q-14 199 -158 199z" />
    <glyph glyph-name="Ccaron" unicode="&#x10c;" horiz-adv-x="1566" 
d="M662 1694l-224 272h271l125 -92h2l118 92h254l-223 -272h-323zM810 1288q-112 0 -196 -130t-84 -381t78 -380t213 -129q104 0 171 70t79 217h422q-10 -272 -186 -430t-476 -158q-383 0 -566 208t-183 590t191 603t531 221q340 -1 511 -157q170 -156 180 -431h-424
q-8 141 -78 214q-71 73 -183 73z" />
    <glyph glyph-name="ccaron" unicode="&#x10d;" horiz-adv-x="1284" 
d="M512 1245l-229 369h256l129 -131h2l123 131h239l-229 -369h-291zM659 877q-180 1 -180 -319t180 -320q158 0 164 198h394q0 -223 -155 -344q-154 -121 -420 -121t-420 155t-154 430t158 427t424 152t413 -121t149 -336h-395q-14 199 -158 199z" />
    <glyph glyph-name="Dcaron" unicode="&#x10e;" horiz-adv-x="1570" 
d="M551 1694l-223 272h270l125 -92h2l119 92h254l-224 -272h-323zM543 301h123q188 0 285 112t97 375q0 262 -94 372q-96 110 -278 110h-133v-969zM127 0v1567h565q373 -1 585 -191t212 -576t-215 -593t-582 -207h-565z" />
    <glyph glyph-name="dcaron" unicode="&#x10f;" horiz-adv-x="1372" 
d="M1395 1204v410h299l-123 -410h-176zM551 -29q-481 0 -479 570q0 281 136 435t348 152q212 0 300 -155h4v641h402v-1614h-385v152h-5q-111 -180 -321 -181zM864 467v139q0 127 -48 194q-48 66 -137 66t-144 -78t-56 -241q0 -317 197 -318q92 0 140 66t48 172z" />
    <glyph glyph-name="Dcroat" unicode="&#x110;" horiz-adv-x="1624" 
d="M596 301h123q188 0 286 112q97 112 97 375q0 262 -95 372t-278 110h-133v-355h283v-264h-283v-350zM745 0h-565v651h-143v264h143v652h565q373 -1 585 -191t212 -576t-215 -593t-582 -207z" />
    <glyph glyph-name="dcroat" unicode="&#x111;" horiz-adv-x="1372" 
d="M551 -29q-481 0 -479 570q0 281 136 435t348 152q212 0 300 -155h4v252h-297v223h297v166h402v-166h163v-223h-163v-1225h-385v152h-5q-111 -180 -321 -181zM864 467v139q0 127 -48 194q-48 66 -137 66t-144 -78t-56 -241q0 -317 197 -318q92 0 140 66t48 172z" />
    <glyph glyph-name="Emacron" unicode="&#x112;" horiz-adv-x="1296" 
d="M285 1702v246h755v-246h-755zM127 0v1567h1049v-303h-633v-338h612v-295h-612v-332h655v-299h-1071z" />
    <glyph glyph-name="emacron" unicode="&#x113;" horiz-adv-x="1288" 
d="M264 1292v246h756v-246h-756zM68 551q0 270 153 427q155 157 433 157t420 -158t143 -432v-80h-746q8 -129 53 -181t129 -53q127 0 160 109h397q-23 -180 -168 -274t-411 -94t-415 154q-148 155 -148 425zM638 897q-151 0 -169 -225h340l-2 14q-18 211 -169 211z" />
    <glyph glyph-name="Ebreve" unicode="&#x114;" horiz-adv-x="1296" 
d="M663 1653q-161 0 -261 83q-99 83 -99 257h248q2 -51 35 -82t82 -31t83 31t35 82h236q0 -174 -99 -257t-260 -83zM127 0v1567h1049v-303h-633v-338h612v-295h-612v-332h655v-299h-1071z" />
    <glyph glyph-name="ebreve" unicode="&#x115;" horiz-adv-x="1288" 
d="M641 1235q-160 0 -259 94t-99 285h254q-1 -61 29 -94t81 -33t81 33t30 94h243q0 -190 -100 -284t-260 -95zM68 551q0 270 153 427q155 157 433 157t420 -158t143 -432v-80h-746q8 -129 53 -181t129 -53q127 0 160 109h397q-23 -180 -168 -274t-411 -94t-415 154
q-148 155 -148 425zM638 897q-151 0 -169 -225h340l-2 14q-18 211 -169 211z" />
    <glyph glyph-name="Edotaccent" unicode="&#x116;" horiz-adv-x="1296" 
d="M498 1702v321h327v-321h-327zM127 0v1567h1049v-303h-633v-338h612v-295h-612v-332h655v-299h-1071z" />
    <glyph glyph-name="edotaccent" unicode="&#x117;" horiz-adv-x="1288" 
d="M477 1292v322h328v-322h-328zM68 551q0 270 153 427q155 157 433 157t420 -158t143 -432v-80h-746q8 -129 53 -181t129 -53q127 0 160 109h397q-23 -180 -168 -274t-411 -94t-415 154q-148 155 -148 425zM638 897q-151 0 -169 -225h340l-2 14q-18 211 -169 211z" />
    <glyph glyph-name="Eogonek" unicode="&#x118;" horiz-adv-x="1296" 
d="M1198 -172v-213h-72q-172 0 -240 48t-67 134q0 133 168 203h-860v1567h1049v-303h-633v-338h612v-295h-612v-332h655v-299q-90 -60 -90 -116t90 -56z" />
    <glyph glyph-name="eogonek" unicode="&#x119;" horiz-adv-x="1288" 
d="M639 897q-156 0 -170 -225h340q-14 225 -170 225zM897 -113q0 -59 90 -59v-213h-72q-307 0 -307 180q0 66 45 109t156 82v4q-115 -18 -170 -19q-274 0 -423 155q-148 155 -148 425t153 427q155 157 433 157t420 -158t143 -432v-80h-746q8 -129 53 -181t129 -53
q127 0 160 109h397q-23 -162 -143 -258q-88 -70 -129 -114t-41 -81z" />
    <glyph glyph-name="Ecaron" unicode="&#x11a;" horiz-adv-x="1296" 
d="M487 1694l-223 272h271l124 -92h3l118 92h254l-223 -272h-324zM127 0v1567h1049v-303h-633v-338h612v-295h-612v-332h655v-299h-1071z" />
    <glyph glyph-name="ecaron" unicode="&#x11b;" horiz-adv-x="1288" 
d="M483 1245l-229 369h256l129 -131h2l123 131h240l-230 -369h-291zM68 551q0 270 153 427q155 157 433 157t420 -158t143 -432v-80h-746q8 -129 53 -181t129 -53q127 0 160 109h397q-23 -180 -168 -274t-411 -94t-415 154q-148 155 -148 425zM638 897q-151 0 -169 -225h340
l-2 14q-18 211 -169 211z" />
    <glyph glyph-name="Gcircumflex" unicode="&#x11c;" horiz-adv-x="1638" 
d="M975 1966l223 -272h-270l-125 92h-2l-119 -92h-254l223 272h324zM840 1298q-150 0 -233 -129t-83 -401t84 -392q84 -118 226 -118t216 76q75 76 91 213l4 33h-326v280h709v-860h-322v205h-6q-127 -238 -438 -238q-340 0 -510 215t-170 583t205 596t553 228
q301 0 470 -136t195 -392h-418q-14 106 -78 172q-65 65 -169 65z" />
    <glyph glyph-name="gcircumflex" unicode="&#x11d;" horiz-adv-x="1363" 
d="M780 1614l230 -369h-256l-129 131h-2l-123 -131h-240l229 369h291zM670 -408q-541 0 -559 367h387q14 -61 52 -90t132 -29t141 58t47 184v151h-6q-82 -188 -307 -188q-485 0 -485 533q0 260 138 405t347 145q117 0 194 -45t113 -114h4v139h385v-987q0 -265 -139 -397
t-444 -132zM870 504v127q0 113 -51 174t-137 61t-143 -70t-57 -215t52 -219t141 -74t142 62q53 60 53 154z" />
    <glyph glyph-name="Gbreve" unicode="&#x11e;" horiz-adv-x="1638" 
d="M1178 1993q0 -174 -100 -257t-260 -83q-161 0 -260 83t-99 257h248q3 -51 35 -82t81 -31t83 31t36 82h236zM840 1298q-150 0 -233 -129t-83 -401t84 -392q84 -118 226 -118t216 76q75 76 91 213l4 33h-326v280h709v-860h-322v205h-6q-127 -238 -438 -238q-340 0 -510 215
t-170 583t205 596t553 228q301 0 470 -136t195 -392h-418q-14 106 -78 172q-65 65 -169 65z" />
    <glyph glyph-name="gbreve" unicode="&#x11f;" horiz-adv-x="1363" 
d="M625 1235q-160 0 -259 94t-100 285h254q0 -61 30 -94t81 -33t81 33t29 94h244q0 -190 -100 -284t-260 -95zM670 -408q-541 0 -559 367h387q14 -61 52 -90t132 -29t141 58t47 184v151h-6q-82 -188 -307 -188q-485 0 -485 533q0 260 138 405t347 145q117 0 194 -45
t113 -114h4v139h385v-987q0 -265 -139 -397t-444 -132zM870 504v127q0 113 -51 174t-137 61t-143 -70t-57 -215t52 -219t141 -74t142 62q53 60 53 154z" />
    <glyph glyph-name="Gdotaccent" unicode="&#x120;" horiz-adv-x="1638" 
d="M655 1702v321h328v-321h-328zM840 1298q-150 0 -233 -129t-83 -401t84 -392q84 -118 226 -118t216 76q75 76 91 213l4 33h-326v280h709v-860h-322v205h-6q-127 -238 -438 -238q-340 0 -510 215t-170 583t205 596t553 228q301 0 470 -136t195 -392h-418q-14 106 -78 172
q-65 65 -169 65z" />
    <glyph glyph-name="gdotaccent" unicode="&#x121;" horiz-adv-x="1363" 
d="M461 1292v322h327v-322h-327zM670 -408q-541 0 -559 367h387q14 -61 52 -90t132 -29t141 58t47 184v151h-6q-82 -188 -307 -188q-485 0 -485 533q0 260 138 405t347 145q117 0 194 -45t113 -114h4v139h385v-987q0 -265 -139 -397t-444 -132zM870 504v127q0 113 -51 174
t-137 61t-143 -70t-57 -215t52 -219t141 -74t142 62q53 60 53 154z" />
    <glyph glyph-name="Gcommaaccent" unicode="&#x122;" horiz-adv-x="1638" 
d="M563 -467l53 340h379l-161 -340h-271zM840 1298q-150 0 -233 -129t-83 -401t84 -392q84 -118 226 -118t216 76q75 76 91 213l4 33h-326v280h709v-860h-322v205h-6q-127 -238 -438 -238q-340 0 -510 215t-170 583t205 596t553 228q301 0 470 -136t195 -392h-418
q-14 106 -78 172q-65 65 -169 65z" />
    <glyph glyph-name="gcommaaccent" unicode="&#x123;" horiz-adv-x="1363" 
d="M852 1614l-59 -369h-387l180 369h266zM670 -408q-541 0 -559 367h387q14 -61 52 -90t132 -29t141 58t47 184v151h-6q-82 -188 -307 -188q-485 0 -485 533q0 260 138 405t347 145q117 0 194 -45t113 -114h4v139h385v-987q0 -265 -139 -397t-444 -132zM870 504v127
q0 113 -51 174t-137 61t-143 -70t-57 -215t52 -219t141 -74t142 62q53 60 53 154z" />
    <glyph glyph-name="Hcircumflex" unicode="&#x124;" horiz-adv-x="1617" 
d="M979 1966l223 -272h-270l-125 92h-2l-119 -92h-254l223 272h324zM543 623v-623h-416v1567h416v-635h528v635h420v-1567h-420v623h-528z" />
    <glyph glyph-name="hcircumflex" unicode="&#x125;" horiz-adv-x="1349" 
d="M850 1966l223 -272h-270l-125 92h-2l-119 -92h-254l223 272h324zM850 0v629q0 119 -34 170t-122 51q-182 0 -182 -221v-629h-401v1614h401v-680h4q41 82 130 138t218 56q213 0 300 -108t87 -328v-692h-401z" />
    <glyph glyph-name="Hbar" unicode="&#x126;" horiz-adv-x="1617" 
d="M543 623v-623h-416v1147h-145v225h145v195h416v-195h528v195h420v-195h145v-225h-145v-1147h-420v623h-528zM1071 932v215h-528v-215h528z" />
    <glyph glyph-name="hbar" unicode="&#x127;" horiz-adv-x="1349" 
d="M512 629v-629h-401v1225h-164v223h164v166h401v-166h297v-223h-297v-291h4q41 82 130 138t218 56q213 0 300 -108t87 -328v-692h-401v629q0 119 -34 170t-122 51q-182 0 -182 -221z" />
    <glyph glyph-name="Itilde" unicode="&#x128;" horiz-adv-x="669" 
d="M184 2009q68 0 159 -48t130 -48q68 0 102 96h162q-6 -162 -61 -251t-191 -89q-69 0 -159 47t-129 47q-68 0 -99 -94h-166q6 160 62 250t190 90zM127 0v1567h416v-1567h-416z" />
    <glyph glyph-name="itilde" unicode="&#x129;" horiz-adv-x="622" 
d="M-31 1245q0 369 217 369q57 0 132 -46t108 -46q63 0 90 92h137q0 -369 -217 -369q-57 0 -132 46t-107 46q-63 0 -86 -92h-142zM111 0v1108h401v-1108h-401z" />
    <glyph glyph-name="Imacron" unicode="&#x12a;" horiz-adv-x="669" 
d="M-43 1702v246h756v-246h-756zM127 0v1567h416v-1567h-416z" />
    <glyph glyph-name="imacron" unicode="&#x12b;" horiz-adv-x="622" 
d="M10 1292v246h604v-246h-604zM111 0v1108h401v-1108h-401z" />
    <glyph glyph-name="Ibreve" unicode="&#x12c;" horiz-adv-x="669" 
d="M335 1653q-161 0 -260 83t-100 257h248q2 -51 35 -82t82 -31t83 31t36 82h235q0 -174 -99 -257t-260 -83zM127 0v1567h416v-1567h-416z" />
    <glyph glyph-name="ibreve" unicode="&#x12d;" horiz-adv-x="622" 
d="M311 1235q-143 0 -233 94t-90 285h229q0 -127 98 -127q45 0 73 33t28 94h219q0 -190 -90 -285q-91 -94 -234 -94zM111 0v1108h401v-1108h-401z" />
    <glyph glyph-name="Iogonek" unicode="&#x12e;" horiz-adv-x="669" 
d="M127 0v1567h416v-1538q-131 -81 -131 -141t90 -60v-213h-72q-172 0 -240 48t-67 134q0 133 168 203h-164z" />
    <glyph glyph-name="iogonek" unicode="&#x12f;" horiz-adv-x="622" 
d="M111 0v1108h401v-1092q-121 -63 -121 -129q0 -59 90 -59v-213h-71q-172 0 -240 48t-68 134q0 133 172 203h-163zM111 1268v346h401v-346h-401z" />
    <glyph glyph-name="Idotaccent" unicode="&#x130;" horiz-adv-x="669" 
d="M170 1702v321h328v-321h-328zM127 0v1567h416v-1567h-416z" />
    <glyph glyph-name="dotlessi" unicode="&#x131;" horiz-adv-x="622" 
d="M111 0v1108h401v-1108h-401z" />
    <glyph glyph-name="IJ" unicode="&#x132;" horiz-adv-x="1613" 
d="M127 0v1567h416v-1567h-416zM897 -6h-131v323h72q156 1 204 63t50 200v987h409v-1041q-1 -296 -153 -414t-451 -118z" />
    <glyph glyph-name="ij" unicode="&#x133;" horiz-adv-x="1257" 
d="M713 -430q-112 0 -178 22v265q27 -11 86 -11q126 -1 124 160v1102h402v-1100q-1 -242 -115 -340t-319 -98zM745 1268v346h402v-346h-402zM111 0v1108h401v-1108h-401zM111 1268v346h401v-346h-401z" />
    <glyph glyph-name="Jcircumflex" unicode="&#x134;" horiz-adv-x="944" 
d="M799 1966l223 -272h-270l-125 92h-2l-119 -92h-254l223 272h324zM227 -6h-151v323h92q156 1 205 63t49 200v987h409v-1041q-1 -296 -153 -414t-451 -118z" />
    <glyph glyph-name="jcircumflex" unicode="&#x135;" horiz-adv-x="634" 
d="M449 1614l206 -369h-229l-117 131h-2l-110 -131h-215l206 369h261zM90 -430q-112 0 -178 22v265q26 -11 86 -11q124 -1 125 160v1102h401v-1100q0 -242 -114 -340t-320 -98z" />
    <glyph glyph-name="Kcommaaccent" unicode="&#x136;" horiz-adv-x="1529" 
d="M553 -467l53 340h379l-162 -340h-270zM543 0h-416v1567h416v-623l483 623h453l-543 -652l559 -915h-471l-365 598l-116 -141v-457z" />
    <glyph glyph-name="kcommaaccent" unicode="&#x137;" horiz-adv-x="1269" 
d="M440 -467l54 340h378l-161 -340h-271zM504 0h-393v1614h393v-920l334 414h413l-370 -444l372 -664h-424l-217 399l-108 -137v-262z" />
    <glyph glyph-name="kgreenlandic" unicode="&#x138;" horiz-adv-x="1269" 
d="M504 0h-393v1108h393v-414l334 414h413l-370 -444l372 -664h-424l-217 399l-108 -137v-262z" />
    <glyph glyph-name="Lacute" unicode="&#x139;" horiz-adv-x="1255" 
d="M186 1694l136 272h383l-222 -272h-297zM127 0v1567h416v-1256h620v-311h-1036z" />
    <glyph glyph-name="lacute" unicode="&#x13a;" horiz-adv-x="622" 
d="M139 1694l135 272h383l-221 -272h-297zM111 0v1614h401v-1614h-401z" />
    <glyph glyph-name="Lcommaaccent" unicode="&#x13b;" horiz-adv-x="1255" 
d="M403 -467l54 340h379l-162 -340h-271zM127 0v1567h416v-1256h620v-311h-1036z" />
    <glyph glyph-name="lcommaaccent" unicode="&#x13c;" horiz-adv-x="622" 
d="M70 -467l53 340h379l-162 -340h-270zM111 0v1614h401v-1614h-401z" />
    <glyph glyph-name="Lcaron" unicode="&#x13d;" horiz-adv-x="1255" 
d="M127 0v1567h416v-1256h620v-311h-1036zM721 1163l20 451h299l-143 -451h-176z" />
    <glyph glyph-name="lcaron" unicode="&#x13e;" horiz-adv-x="622" 
d="M645 1204v410h299l-123 -410h-176zM111 0v1614h401v-1614h-401z" />
    <glyph glyph-name="Ldot" unicode="&#x13f;" horiz-adv-x="1255" 
d="M758 702v367h399v-367h-399zM127 0v1567h416v-1256h620v-311h-1036z" />
    <glyph glyph-name="ldot" unicode="&#x140;" horiz-adv-x="1218" 
d="M721 645v367h399v-367h-399zM111 0v1614h401v-1614h-401z" />
    <glyph glyph-name="Lslash" unicode="&#x141;" horiz-adv-x="1255" 
d="M127 0v508l-160 -55v284l160 56v774h416v-627l426 150v-285l-426 -150v-344h620v-311h-1036z" />
    <glyph glyph-name="lslash" unicode="&#x142;" horiz-adv-x="622" 
d="M512 0h-401v571l-144 -77v284l144 78v758h401v-541l143 78v-285l-143 -78v-788z" />
    <glyph glyph-name="Nacute" unicode="&#x143;" horiz-adv-x="1607" 
d="M645 1694l135 272h383l-221 -272h-297zM127 0v1567h440l404 -678q77 -135 119 -242l12 -33h6v953h373v-1567h-414l-424 702q-75 123 -127 248l-14 37h-6v-987h-369z" />
    <glyph glyph-name="nacute" unicode="&#x144;" horiz-adv-x="1349" 
d="M563 1245l101 369h387l-181 -369h-307zM850 0v629q0 119 -34 170t-122 51q-182 0 -182 -221v-629h-401v1108h387v-180h4q119 201 362 200q213 0 300 -108t87 -328v-692h-401z" />
    <glyph glyph-name="Ncommaaccent" unicode="&#x145;" horiz-adv-x="1607" 
d="M561 -467l53 340h379l-162 -340h-270zM127 0v1567h440l404 -678q77 -135 119 -242l12 -33h6v953h373v-1567h-414l-424 702q-75 123 -127 248l-14 37h-6v-987h-369z" />
    <glyph glyph-name="ncommaaccent" unicode="&#x146;" horiz-adv-x="1349" 
d="M436 -467l53 340h379l-161 -340h-271zM850 0v629q0 119 -34 170t-122 51q-182 0 -182 -221v-629h-401v1108h387v-180h4q119 201 362 200q213 0 300 -108t87 -328v-692h-401z" />
    <glyph glyph-name="Ncaron" unicode="&#x147;" horiz-adv-x="1607" 
d="M629 1694l-223 272h270l125 -92h2l119 92h254l-224 -272h-323zM127 0v1567h440l404 -678q77 -135 119 -242l12 -33h6v953h373v-1567h-414l-424 702q-75 123 -127 248l-14 37h-6v-987h-369z" />
    <glyph glyph-name="ncaron" unicode="&#x148;" horiz-adv-x="1349" 
d="M584 1245l-230 369h256l129 -131h2l123 131h240l-230 -369h-290zM850 0v629q0 119 -34 170t-122 51q-182 0 -182 -221v-629h-401v1108h387v-180h4q119 201 362 200q213 0 300 -108t87 -328v-692h-401z" />
    <glyph glyph-name="napostrophe" unicode="&#x149;" horiz-adv-x="1349" 
d="M0 1274l53 340h379l-162 -340h-270zM850 0v629q0 119 -34 170t-122 51q-182 0 -182 -221v-629h-401v1108h387v-180h4q119 201 362 200q213 0 300 -108t87 -328v-692h-401z" />
    <glyph glyph-name="Eng" unicode="&#x14a;" horiz-adv-x="1607" 
d="M877 -385h-152v303h92q180 0 244 94l-418 690q-75 123 -127 248l-14 37h-6v-987h-369v1567h440l404 -678q77 -135 119 -242l12 -33h6v953h373v-1420q-1 -297 -153 -415t-451 -117z" />
    <glyph glyph-name="eng" unicode="&#x14b;" horiz-adv-x="1349" 
d="M817 -430q-112 0 -178 22v265q27 -11 87 -11q124 -1 124 160v623q0 119 -34 170t-122 51q-182 0 -182 -221v-629h-401v1108h387v-180h4q119 201 362 200q213 0 300 -108t87 -328v-684q-1 -242 -115 -340t-319 -98z" />
    <glyph glyph-name="Omacron" unicode="&#x14c;" horiz-adv-x="1681" 
d="M463 1702v246h756v-246h-756zM842 262q307 0 307 516q0 252 -84 386t-223 134q-307 0 -307 -520q1 -264 73 -390t234 -126zM82 772q0 377 204 597t566 220t554 -214q194 -214 194 -593t-200 -597t-566 -218t-560 214q-192 214 -192 591z" />
    <glyph glyph-name="omacron" unicode="&#x14d;" horiz-adv-x="1325" 
d="M285 1292v246h755v-246h-755zM663 874q-179 0 -179 -322t178 -321q180 -1 180 321t-179 322zM659 -29q-269 0 -431 154q-160 155 -160 431t158 428t430 151q272 0 437 -153t165 -426t-166 -429q-164 -156 -433 -156z" />
    <glyph glyph-name="Obreve" unicode="&#x14e;" horiz-adv-x="1681" 
d="M841 1653q-161 0 -260 83t-100 257h248q2 -51 35 -82t82 -31t83 31t36 82h235q0 -174 -99 -257t-260 -83zM842 262q307 0 307 516q0 252 -84 386t-223 134q-307 0 -307 -520q1 -264 73 -390t234 -126zM82 772q0 377 204 597t566 220t554 -214q194 -214 194 -593
t-200 -597t-566 -218t-560 214q-192 214 -192 591z" />
    <glyph glyph-name="obreve" unicode="&#x14f;" horiz-adv-x="1325" 
d="M662 1235q-160 0 -260 94q-99 94 -99 285h254q0 -61 30 -94t81 -33t81 33t29 94h244q0 -190 -100 -284t-260 -95zM663 874q-179 0 -179 -322t178 -321q180 -1 180 321t-179 322zM659 -29q-269 0 -431 154q-160 155 -160 431t158 428t430 151q272 0 437 -153t165 -426
t-166 -429q-164 -156 -433 -156z" />
    <glyph glyph-name="Ohungarumlaut" unicode="&#x150;" horiz-adv-x="1681" 
d="M526 1694l33 272h295l-102 -272h-226zM893 1694l74 272h295l-144 -272h-225zM842 262q307 0 307 516q0 252 -84 386t-223 134q-307 0 -307 -520q1 -264 73 -390t234 -126zM82 772q0 377 204 597t566 220t554 -214q194 -214 194 -593t-200 -597t-566 -218t-560 214
q-192 214 -192 591z" />
    <glyph glyph-name="ohungarumlaut" unicode="&#x151;" horiz-adv-x="1325" 
d="M352 1245l64 369h301l-133 -369h-232zM713 1245l104 369h301l-174 -369h-231zM663 874q-179 0 -179 -322t178 -321q180 -1 180 321t-179 322zM659 -29q-269 0 -431 154q-160 155 -160 431t158 428t430 151q272 0 437 -153t165 -426t-166 -429q-164 -156 -433 -156z" />
    <glyph glyph-name="OE" unicode="&#x152;" horiz-adv-x="2310" 
d="M750 -29q-313 0 -492 209q-178 209 -178 597t193 600q194 212 503 212q250 0 361 -176h4v154h1048v-303h-633v-338h613v-295h-613v-332h656v-299h-1071v133h-4q-121 -162 -387 -162zM1141 649v225q0 209 -76 317q-76 107 -217 107t-227 -126t-86 -394q0 -516 307 -516
q145 0 222 106t77 281z" />
    <glyph glyph-name="oe" unicode="&#x153;" horiz-adv-x="2037" 
d="M664 -29q-274 0 -436 154q-160 155 -160 431t158 428t438 151q236 0 366 -127q127 127 359 127q293 0 435 -158t142 -432v-80h-745q8 -129 53 -181t129 -53q127 0 160 109h397q-23 -180 -168 -274t-393 -94t-373 124q-131 -125 -362 -125zM663 874q-179 0 -179 -322
t178 -321q180 -1 180 321t-179 322zM1388 897q-150 0 -169 -225h340l-3 14q-18 211 -168 211z" />
    <glyph glyph-name="Racute" unicode="&#x154;" horiz-adv-x="1486" 
d="M588 1694l135 272h383l-221 -272h-297zM543 559v-559h-416v1567h637q195 0 321 -51q293 -117 293 -420q0 -156 -81 -265t-205 -165v-4l354 -662h-440l-281 559h-182zM543 842h164q109 0 179 54t70 180t-89 175q-71 41 -156 41h-168v-450z" />
    <glyph glyph-name="racute" unicode="&#x155;" horiz-adv-x="915" 
d="M319 1245l101 369h387l-180 -369h-308zM111 0v1108h378v-248h5q47 136 150 200t222 64h19v-348h-70q-163 0 -235 -53t-72 -205v-518h-397z" />
    <glyph glyph-name="Rcommaaccent" unicode="&#x156;" horiz-adv-x="1486" 
d="M504 -467l53 340h379l-162 -340h-270zM543 559v-559h-416v1567h637q195 0 321 -51q293 -117 293 -420q0 -156 -81 -265t-205 -165v-4l354 -662h-440l-281 559h-182zM543 842h164q109 0 179 54t70 180t-89 175q-71 41 -156 41h-168v-450z" />
    <glyph glyph-name="rcommaaccent" unicode="&#x157;" horiz-adv-x="915" 
d="M61 -467l54 340h379l-162 -340h-271zM111 0v1108h378v-248h5q47 136 150 200t222 64h19v-348h-70q-163 0 -235 -53t-72 -205v-518h-397z" />
    <glyph glyph-name="Rcaron" unicode="&#x158;" horiz-adv-x="1486" 
d="M571 1694l-223 272h270l125 -92h2l119 92h254l-223 -272h-324zM543 559v-559h-416v1567h637q195 0 321 -51q293 -117 293 -420q0 -156 -81 -265t-205 -165v-4l354 -662h-440l-281 559h-182zM543 842h164q109 0 179 54t70 180t-89 175q-71 41 -156 41h-168v-450z" />
    <glyph glyph-name="rcaron" unicode="&#x159;" horiz-adv-x="915" 
d="M340 1245l-229 369h256l129 -131h2l123 131h239l-229 -369h-291zM111 0v1108h378v-248h5q47 136 150 200t222 64h19v-348h-70q-163 0 -235 -53t-72 -205v-518h-397z" />
    <glyph glyph-name="Sacute" unicode="&#x15a;" horiz-adv-x="1415" 
d="M551 1694l135 272h383l-221 -272h-297zM713 1294q-84 0 -135 -38q-52 -38 -52 -104t40 -104q40 -36 139 -55l245 -45q201 -38 307 -148t107 -286q0 -268 -173 -408t-489 -139q-623 0 -647 486h432q11 -91 69 -141t158 -50t159 46q58 46 59 118q0 72 -44 108t-155 56
l-241 47q-170 35 -283 147t-113 303q0 223 161 363t464 139q303 1 449 -121t151 -329h-424q-4 63 -52 109t-132 46z" />
    <glyph glyph-name="sacute" unicode="&#x15b;" horiz-adv-x="1132" 
d="M383 1245l100 369h387l-180 -369h-307zM565 891q-121 0 -121 -84q0 -37 24 -59t85 -29l197 -27q150 -18 236 -99t85 -228q0 -189 -139 -293t-367 -105q-489 0 -514 359h363q6 -115 149 -115t144 92q0 39 -27 58t-86 28l-180 23q-336 43 -336 344q0 158 123 268t360 111
t353 -95t126 -258h-348q-4 45 -36 77t-91 32z" />
    <glyph glyph-name="Scircumflex" unicode="&#x15c;" horiz-adv-x="1415" 
d="M879 1966l223 -272h-271l-124 92h-2l-119 -92h-254l223 272h324zM713 1294q-84 0 -135 -38q-52 -38 -52 -104t40 -104q40 -36 139 -55l245 -45q201 -38 307 -148t107 -286q0 -268 -173 -408t-489 -139q-623 0 -647 486h432q11 -91 69 -141t158 -50t159 46q58 46 59 118
q0 72 -44 108t-155 56l-241 47q-170 35 -283 147t-113 303q0 223 161 363t464 139q303 1 449 -121t151 -329h-424q-4 63 -52 109t-132 46z" />
    <glyph glyph-name="scircumflex" unicode="&#x15d;" horiz-adv-x="1132" 
d="M717 1614l229 -369h-256l-129 131h-2l-123 -131h-239l229 369h291zM565 891q-121 0 -121 -84q0 -37 24 -59t85 -29l197 -27q150 -18 236 -99t85 -228q0 -189 -139 -293t-367 -105q-489 0 -514 359h363q6 -115 149 -115t144 92q0 39 -27 58t-86 28l-180 23
q-336 43 -336 344q0 158 123 268t360 111t353 -95t126 -258h-348q-4 45 -36 77t-91 32z" />
    <glyph glyph-name="Scedilla" unicode="&#x15e;" horiz-adv-x="1415" 
d="M979 -288q1 -88 -67 -148t-188 -60t-184 52t-69 122h180q18 -41 66 -40q66 0 65 59q0 59 -65 59q-37 0 -58 -26h-143l105 239q-545 33 -566 484h432q11 -91 69 -141t158 -50t159 46q58 46 59 118q0 72 -44 108t-155 56l-241 47q-170 35 -283 147t-113 303q0 223 161 363
t464 139q303 0 448 -122t152 -328h-424q-4 63 -52 109t-132 46t-135 -38q-52 -38 -52 -104t40 -104q40 -36 139 -55l245 -45q201 -38 307 -148t107 -286q0 -260 -164 -399t-465 -148l-35 -80h5q29 19 97 19t123 -53q54 -53 54 -141z" />
    <glyph glyph-name="scedilla" unicode="&#x15f;" horiz-adv-x="1132" 
d="M817 -288q1 -88 -67 -148t-188 -60t-184 52t-69 122h180q18 -41 66 -40q66 0 66 59t-66 59q-37 0 -57 -26h-144l105 241q-387 35 -408 355h363q6 -115 149 -115t144 92q0 39 -27 58t-86 28l-180 23q-336 43 -336 344q0 158 123 268t360 111t353 -95t126 -258h-348
q-4 45 -36 77t-91 32q-121 0 -121 -84q0 -37 24 -59t85 -29l197 -27q150 -18 236 -99t85 -228q0 -189 -138 -293t-360 -105l-34 -80h4q27 19 97 19t123 -53q54 -53 54 -141z" />
    <glyph glyph-name="Scaron" unicode="&#x160;" horiz-adv-x="1415" 
d="M535 1694l-224 272h271l125 -92h2l118 92h254l-223 -272h-323zM713 1294q-84 0 -135 -38q-52 -38 -52 -104t40 -104q40 -36 139 -55l245 -45q201 -38 307 -148t107 -286q0 -268 -173 -408t-489 -139q-623 0 -647 486h432q11 -91 69 -141t158 -50t159 46q58 46 59 118
q0 72 -44 108t-155 56l-241 47q-170 35 -283 147t-113 303q0 223 161 363t464 139q303 1 449 -121t151 -329h-424q-4 63 -52 109t-132 46z" />
    <glyph glyph-name="scaron" unicode="&#x161;" horiz-adv-x="1132" 
d="M403 1245l-229 369h256l129 -131h2l123 131h240l-230 -369h-291zM565 891q-121 0 -121 -84q0 -37 24 -59t85 -29l197 -27q150 -18 236 -99t85 -228q0 -189 -139 -293t-367 -105q-489 0 -514 359h363q6 -115 149 -115t144 92q0 39 -27 58t-86 28l-180 23q-336 43 -336 344
q0 158 123 268t360 111t353 -95t126 -258h-348q-4 45 -36 77t-91 32z" />
    <glyph glyph-name="Tcommaaccent" unicode="&#x162;" horiz-adv-x="1366" 
d="M440 -467l54 340h378l-161 -340h-271zM1311 1567v-318h-420v-1249h-416v1249h-420v318h1256z" />
    <glyph glyph-name="tcommaaccent" unicode="&#x163;" horiz-adv-x="862" 
d="M279 -467l53 340h379l-162 -340h-270zM240 1413h338v-305h233v-272h-227v-402q0 -84 32 -122t111 -38l78 7v-281q-111 -14 -240 -14q-377 0 -377 370v480h-145v272h41q102 0 129 38t27 181v86z" />
    <glyph glyph-name="Tcaron" unicode="&#x164;" horiz-adv-x="1366" 
d="M526 1694l-223 272h270l125 -92h2l119 92h254l-223 -272h-324zM1311 1567v-318h-420v-1249h-416v1249h-420v318h1256z" />
    <glyph glyph-name="tcaron" unicode="&#x165;" horiz-adv-x="862" 
d="M752 1204v410h299l-123 -410h-176zM240 1413h338v-305h233v-272h-227v-402q0 -84 32 -122t111 -38l78 7v-281q-111 -14 -240 -14q-377 0 -377 370v480h-145v272h41q102 0 129 38t27 181v86z" />
    <glyph glyph-name="Tbar" unicode="&#x166;" horiz-adv-x="1366" 
d="M891 702v-702h-416v702h-338v240h338v307h-420v318h1256v-318h-420v-307h338v-240h-338z" />
    <glyph glyph-name="tbar" unicode="&#x167;" horiz-adv-x="862" 
d="M565 -14q-377 0 -377 370v93h-145v231h145v172h-145v256h41q102 0 129 38t27 181v86h338v-305h233v-256h-227v-172h227v-231h-227v-15q0 -84 32 -122t111 -38l78 7v-281q-111 -14 -240 -14z" />
    <glyph glyph-name="Utilde" unicode="&#x168;" horiz-adv-x="1554" 
d="M627 2009q69 0 159 -48t129 -48q68 0 103 96h162q-6 -162 -62 -251t-190 -89q-68 0 -159 47t-130 47q-68 0 -98 -94h-166q6 160 61 250t191 90zM115 561v1006h415l-2 -922q0 -201 50 -266q70 -88 217 -88t206 109q23 42 25 81t3 47t1 30v1009h410v-1006q0 -291 -179 -443
t-487 -151q-308 -1 -483 151q-176 152 -176 443z" />
    <glyph glyph-name="utilde" unicode="&#x169;" horiz-adv-x="1337" 
d="M260 1245q0 369 256 369q68 0 155 -46t126 -46q76 0 106 92h162q0 -369 -256 -369q-68 0 -155 46t-126 46q-76 0 -102 -92h-166zM500 1108v-631q0 -111 34 -164t121 -53q170 0 170 238v610h402v-1108h-387v174h-4q-109 -192 -333 -192t-315 100q-90 100 -90 305v721h402z
" />
    <glyph glyph-name="Umacron" unicode="&#x16a;" horiz-adv-x="1554" 
d="M399 1702v246h756v-246h-756zM115 561v1006h415l-2 -922q0 -201 50 -266q70 -88 217 -88t206 109q23 42 25 81t3 47t1 30v1009h410v-1006q0 -291 -179 -443t-487 -151q-308 -1 -483 151q-176 152 -176 443z" />
    <glyph glyph-name="umacron" unicode="&#x16b;" horiz-adv-x="1337" 
d="M285 1292v246h755v-246h-755zM500 1108v-631q0 -111 34 -164t121 -53q170 0 170 238v610h402v-1108h-387v174h-4q-109 -192 -333 -192t-315 100q-90 100 -90 305v721h402z" />
    <glyph glyph-name="Ubreve" unicode="&#x16c;" horiz-adv-x="1554" 
d="M1137 1993q1 -174 -99 -257t-261 -83t-260 83t-99 257h248q2 -51 34 -82t82 -31q49 0 83 31t36 82h236zM115 561v1006h415l-2 -922q0 -201 50 -266q70 -88 217 -88t206 109q23 42 25 81t3 47t1 30v1009h410v-1006q0 -291 -179 -443t-487 -151q-308 -1 -483 151
q-176 152 -176 443z" />
    <glyph glyph-name="ubreve" unicode="&#x16d;" horiz-adv-x="1337" 
d="M662 1235q-160 0 -260 94q-99 94 -99 285h254q0 -61 30 -94t81 -33t81 33t29 94h244q0 -190 -100 -284t-260 -95zM500 1108v-631q0 -111 34 -164t121 -53q170 0 170 238v610h402v-1108h-387v174h-4q-109 -192 -333 -192t-315 100q-90 100 -90 305v721h402z" />
    <glyph glyph-name="Uring" unicode="&#x16e;" horiz-adv-x="1554" 
d="M776 2009q-51 0 -80 -34q-28 -34 -28 -90t30 -90t79 -34q50 0 79 34t29 90t-29 90t-80 34zM1071 1887q0 -121 -82 -195t-215 -74t-212 74t-79 194t82 195q82 76 216 76t212 -74t78 -196zM115 561v1006h415l-2 -922q0 -201 50 -266q70 -88 217 -88t206 109q23 42 25 81
t3 47t1 30v1009h410v-1006q0 -291 -179 -443t-487 -151q-308 -1 -483 151q-176 152 -176 443z" />
    <glyph glyph-name="uring" unicode="&#x16f;" horiz-adv-x="1337" 
d="M662 1599q-51 1 -80 -33t-29 -90t30 -90t80 -34q51 0 79 34t28 90t-28 90t-80 33zM660 1208q-133 0 -213 74q-79 74 -79 194t83 196q82 76 216 75q134 0 212 -74q77 -73 77 -195t-82 -196t-214 -74zM500 1108v-631q0 -111 34 -164t121 -53q170 0 170 238v610h402v-1108
h-387v174h-4q-109 -192 -333 -192t-315 100q-90 100 -90 305v721h402z" />
    <glyph glyph-name="Uhungarumlaut" unicode="&#x170;" horiz-adv-x="1554" 
d="M463 1694l33 272h295l-103 -272h-225zM829 1694l74 272h295l-143 -272h-226zM115 561v1006h415l-2 -922q0 -201 50 -266q70 -88 217 -88t206 109q23 42 25 81t3 47t1 30v1009h410v-1006q0 -291 -179 -443t-487 -151q-308 -1 -483 151q-176 152 -176 443z" />
    <glyph glyph-name="uhungarumlaut" unicode="&#x171;" horiz-adv-x="1337" 
d="M352 1245l64 369h301l-133 -369h-232zM713 1245l104 369h301l-174 -369h-231zM500 1108v-631q0 -111 34 -164t121 -53q170 0 170 238v610h402v-1108h-387v174h-4q-109 -192 -333 -192t-315 100q-90 100 -90 305v721h402z" />
    <glyph glyph-name="Uogonek" unicode="&#x172;" horiz-adv-x="1554" 
d="M115 561v1006h415l-2 -922q0 -203 50 -266q68 -88 206 -88t205 88q22 26 27 56q6 30 9 44q5 23 5 82v1006h410v-1006q0 -242 -125 -387t-307 -176t-183 -111q0 -59 90 -59v-213h-71q-172 0 -240 48t-67 134q0 121 153 178q-272 18 -424 166q-151 148 -151 420z" />
    <glyph glyph-name="uogonek" unicode="&#x173;" horiz-adv-x="1337" 
d="M840 0v174h-4q-109 -192 -333 -192t-315 100q-90 100 -90 305v721h402v-631q0 -111 34 -164t121 -53q170 0 170 238v610h402v-1092q-121 -63 -121 -129q0 -59 90 -59v-213h-72q-172 0 -240 48t-67 134q0 133 172 203h-149z" />
    <glyph glyph-name="Wcircumflex" unicode="&#x174;" horiz-adv-x="2179" 
d="M1292 1966l224 -272h-271l-125 92h-2l-119 -92h-254l224 272h323zM827 0h-405l-397 1567h430l170 -774q28 -124 39 -238l4 -33h4q10 113 53 269l213 776h352l217 -774q26 -103 56 -238l6 -33h2q10 113 43 269l166 776h374l-395 -1567h-393l-221 836q-38 146 -43 219
l-4 26h-4q-6 -88 -47 -243z" />
    <glyph glyph-name="wcircumflex" unicode="&#x175;" horiz-adv-x="1792" 
d="M1067 1614l229 -369h-256l-129 131h-2l-123 -131h-239l229 369h291zM336 0l-311 1108h378l111 -461q33 -138 43 -241l4 -39h6q23 145 62 280l129 461h305l131 -461q29 -109 55 -241l6 -39h9q25 145 55 280l106 461h342l-309 -1108h-379l-98 328q-33 111 -70 325l-10 64
h-4q-47 -240 -92 -387l-100 -330h-369z" />
    <glyph glyph-name="Ycircumflex" unicode="&#x176;" horiz-adv-x="1474" 
d="M928 1966l223 -272h-270l-125 92h-2l-119 -92h-254l223 272h324zM530 0v653l-507 914h450l281 -559h4l274 559h420l-506 -910v-657h-416z" />
    <glyph glyph-name="ycircumflex" unicode="&#x177;" horiz-adv-x="1226" 
d="M793 1614l229 -369h-256l-129 131h-2l-123 -131h-240l230 369h291zM238 -119q166 0 198 99l4 12l-428 1116h416l156 -526q27 -92 45 -205l4 -33h4q10 113 45 238l143 526h389l-383 -1124q-73 -207 -187 -299t-339 -93q-160 0 -188 17v282q41 -10 121 -10z" />
    <glyph glyph-name="Ydieresis" unicode="&#x178;" horiz-adv-x="1474" 
d="M375 1702v321h327v-321h-327zM815 1702v321h328v-321h-328zM530 0v653l-507 914h450l281 -559h4l274 559h420l-506 -910v-657h-416z" />
    <glyph glyph-name="Zacute" unicode="&#x179;" horiz-adv-x="1351" 
d="M532 1694l136 272h383l-222 -272h-297zM98 1255v312h1174v-277l-729 -977h737v-313h-1219v276l732 979h-695z" />
    <glyph glyph-name="zacute" unicode="&#x17a;" horiz-adv-x="1144" 
d="M401 1245l101 369h387l-180 -369h-308zM98 825v283h973v-238l-504 -583h512v-287h-999v240l508 585h-490z" />
    <glyph glyph-name="Zdotaccent" unicode="&#x17b;" horiz-adv-x="1351" 
d="M526 1702v321h328v-321h-328zM98 1255v312h1174v-277l-729 -977h737v-313h-1219v276l732 979h-695z" />
    <glyph glyph-name="zdotaccent" unicode="&#x17c;" horiz-adv-x="1144" 
d="M416 1292v322h327v-322h-327zM98 825v283h973v-238l-504 -583h512v-287h-999v240l508 585h-490z" />
    <glyph glyph-name="Zcaron" unicode="&#x17d;" horiz-adv-x="1351" 
d="M516 1694l-223 272h270l125 -92h2l119 92h254l-223 -272h-324zM98 1255v312h1174v-277l-729 -977h737v-313h-1219v276l732 979h-695z" />
    <glyph glyph-name="zcaron" unicode="&#x17e;" horiz-adv-x="1144" 
d="M422 1245l-229 369h256l129 -131h2l122 131h240l-229 -369h-291zM98 825v283h973v-238l-504 -583h512v-287h-999v240l508 585h-490z" />
    <glyph glyph-name="florin" unicode="&#x192;" horiz-adv-x="1040" 
d="M72 692v273h239l19 155q35 289 158 399q124 110 327 109l174 -12v-283q-27 6 -93 6t-111 -43q-46 -43 -62 -176l-21 -155h230v-273h-264l-142 -1079h-383l133 1079h-204z" />
    <glyph glyph-name="Aringacute" unicode="&#x1fa;" horiz-adv-x="1587" 
d="M631 2208l135 272h383l-221 -272h-297zM788 2009q-52 0 -80 -34t-28 -90t30 -90t80 -34t78 34t29 90q0 56 -29 90t-80 34zM786 1618q-133 0 -212 74q-78 74 -78 194t82 195q82 76 216 76t212 -74t78 -196q0 -121 -83 -195q-82 -74 -215 -74zM1137 0l-90 283h-545
l-92 -283h-392l543 1567h459l549 -1567h-432zM774 1225q0 -35 -59 -246l-119 -399h356l-116 397q-39 141 -54 221l-4 27h-4z" />
    <glyph glyph-name="aringacute" unicode="&#x1fb;" horiz-adv-x="1230" 
d="M485 1794l136 272h383l-222 -272h-297zM625 1585q-51 0 -80 -34t-29 -90t30 -90t80 -34t79 34t29 90t-29 90t-80 34zM920 1463q0 -121 -82 -195t-215 -74t-212 74t-79 194t82 195q82 76 216 76t212 -74t78 -196zM1106 674v-348q0 -33 18 -46t64 -14v-266h-154
q-125 0 -186 25t-92 106h-6q-122 -141 -312 -141t-295 89q-104 89 -104 247q0 188 168 276q91 51 293 68q59 4 217 10v65q0 139 -125 140q-123 0 -129 -119h-383q10 174 145 270t363 97q290 0 404 -113t114 -346zM562 225q64 1 112 61q47 60 47 163v38q-185 -10 -237 -45
t-52 -92t33 -91t97 -34z" />
    <glyph glyph-name="AEacute" unicode="&#x1fc;" horiz-adv-x="2252" 
d="M1149 1694l135 272h383l-221 -272h-297zM2132 1567v-303h-633v-338h612v-295h-612v-332h655v-299h-1071v324h-499l-152 -324h-430l784 1567h1346zM1083 621v643h-59l-301 -643h360z" />
    <glyph glyph-name="aeacute" unicode="&#x1fd;" horiz-adv-x="1916" 
d="M764 1245l100 369h387l-180 -369h-307zM426 -10q-178 0 -283 89q-104 89 -104 247q0 188 168 276q83 43 195 56t315 18v69q0 139 -125 140q-123 0 -129 -119h-383q10 174 144 270t367 96t335 -116h4q115 119 338 119q293 0 435 -158t142 -432v-80h-745q8 -129 53 -181
t129 -53q127 0 160 109h397q-23 -180 -166 -274t-391 -95q-322 0 -444 189h-4q-137 -170 -408 -170zM564 225q64 1 110 61q47 60 47 163v32q-176 0 -240 -41q-49 -33 -49 -91t34 -91t98 -33zM1267 897q-151 0 -169 -225h340l-2 14q-18 211 -169 211z" />
    <glyph glyph-name="Oslashacute" unicode="&#x1fe;" horiz-adv-x="1681" 
d="M680 1694l135 272h383l-221 -272h-297zM1599 773q1 -370 -199 -588t-556 -218q-274 0 -457 117l-111 -135h-243l215 262q-166 209 -166 573t204 585q204 220 558 220q262 0 438 -110l119 145h244l-222 -270q176 -211 176 -581zM842 254q319 0 319 524q0 123 -20 230
l-531 -652q76 -102 232 -102zM842 1307q-319 0 -320 -529q0 -133 13 -215l524 641q-80 103 -217 103z" />
    <glyph glyph-name="oslashacute" unicode="&#x1ff;" horiz-adv-x="1325" 
d="M494 1245l100 369h387l-180 -369h-307zM1257 545q-1 -262 -165 -418t-428 -156q-182 0 -318 70l-108 -131h-215l190 229q-145 153 -145 423t158 422t438 151q180 0 313 -72l110 133h216l-193 -231q147 -158 147 -420zM664 223q197 0 196 330q0 53 -6 102l-315 -381
q47 -51 125 -51zM664 883q-199 0 -199 -330q0 -53 6 -102l315 383q-44 49 -122 49z" />
    <glyph glyph-name="Scommaaccent" unicode="&#x218;" horiz-adv-x="1415" 
d="M467 -467l53 340h379l-162 -340h-270zM713 1294q-84 0 -135 -38q-52 -38 -52 -104t40 -104q40 -36 139 -55l245 -45q201 -38 307 -148t107 -286q0 -268 -173 -408t-489 -139q-623 0 -647 486h432q11 -91 69 -141t158 -50t159 46q58 46 59 118q0 72 -44 108t-155 56
l-241 47q-170 35 -283 147t-113 303q0 223 161 363t464 139q303 1 449 -121t151 -329h-424q-4 63 -52 109t-132 46z" />
    <glyph glyph-name="scommaaccent" unicode="&#x219;" horiz-adv-x="1132" 
d="M319 -467l54 340h379l-162 -340h-271zM565 891q-121 0 -121 -84q0 -37 24 -59t85 -29l197 -27q150 -18 236 -99t85 -228q0 -189 -139 -293t-367 -105q-489 0 -514 359h363q6 -115 149 -115t144 92q0 39 -27 58t-86 28l-180 23q-336 43 -336 344q0 158 123 268t360 111
t353 -95t126 -258h-348q-4 45 -36 77t-91 32z" />
    <glyph glyph-name="uni021A" unicode="&#x21a;" horiz-adv-x="1366" 
d="M440 -467l54 340h378l-161 -340h-271zM1311 1567v-318h-420v-1249h-416v1249h-420v318h1256z" />
    <glyph glyph-name="uni021B" unicode="&#x21b;" horiz-adv-x="862" 
d="M279 -467l53 340h379l-162 -340h-270zM240 1413h338v-305h233v-272h-227v-402q0 -84 32 -122t111 -38l78 7v-281q-111 -14 -240 -14q-377 0 -377 370v480h-145v272h41q102 0 129 38t27 181v86z" />
    <glyph glyph-name="uni0237" unicode="&#x237;" horiz-adv-x="634" 
d="M90 -430q-112 0 -178 22v265q26 -11 86 -11q124 -1 125 160v1102h401v-1100q0 -242 -114 -340t-320 -98z" />
    <glyph glyph-name="circumflex" unicode="&#x2c6;" horiz-adv-x="755" 
d="M524 1614l230 -369h-256l-129 131h-2l-123 -131h-240l229 369h291z" />
    <glyph glyph-name="caron" unicode="&#x2c7;" horiz-adv-x="755" 
d="M233 1245l-229 369h256l129 -131h2l123 131h240l-230 -369h-291z" />
    <glyph glyph-name="breve" unicode="&#x2d8;" horiz-adv-x="755" 
d="M377 1235q-160 0 -259 94t-100 285h254q0 -61 30 -94t81 -33t81 33t30 94h243q0 -190 -100 -284t-260 -95z" />
    <glyph glyph-name="dotaccent" unicode="&#x2d9;" horiz-adv-x="755" 
d="M215 1292v322h328v-322h-328z" />
    <glyph glyph-name="ring" unicode="&#x2da;" horiz-adv-x="755" 
d="M385 1599q-51 1 -80 -33t-29 -90t30 -90t80 -34t79 34t29 90t-29 90t-80 33zM383 1208q-133 0 -212 74t-79 194t82 196t216 75q134 0 212 -74q78 -73 78 -195t-82 -196t-215 -74z" />
    <glyph glyph-name="ogonek" unicode="&#x2db;" horiz-adv-x="755" 
d="M463 -385q-309 0 -307 175q0 80 60 142t198 97l121 -29q-91 -60 -91 -116t91 -56v-213h-72z" />
    <glyph glyph-name="tilde" unicode="&#x2dc;" horiz-adv-x="755" 
d="M-25 1245q0 369 256 369q68 0 155 -46t126 -46q76 0 106 92h162q0 -369 -256 -369q-68 0 -154 46t-126 46q-76 0 -103 -92h-166z" />
    <glyph glyph-name="hungarumlaut" unicode="&#x2dd;" horiz-adv-x="894" 
d="M88 1245l64 369h301l-134 -369h-231zM449 1245l104 369h301l-174 -369h-231z" />
    <glyph glyph-name="Wgrave" unicode="&#x1e80;" horiz-adv-x="2179" 
d="M1133 1966l135 -272h-297l-221 272h383zM827 0h-405l-397 1567h430l170 -774q28 -124 39 -238l4 -33h4q10 113 53 269l213 776h352l217 -774q26 -103 56 -238l6 -33h2q10 113 43 269l166 776h374l-395 -1567h-393l-221 836q-38 146 -43 219l-4 26h-4q-6 -88 -47 -243z
" />
    <glyph glyph-name="wgrave" unicode="&#x1e81;" horiz-adv-x="1792" 
d="M981 1614l100 -369h-307l-180 369h387zM336 0l-311 1108h378l111 -461q33 -138 43 -241l4 -39h6q23 145 62 280l129 461h305l131 -461q29 -109 55 -241l6 -39h9q25 145 55 280l106 461h342l-309 -1108h-379l-98 328q-33 111 -70 325l-10 64h-4q-47 -240 -92 -387
l-100 -330h-369z" />
    <glyph glyph-name="Wacute" unicode="&#x1e82;" horiz-adv-x="2179" 
d="M965 1694l135 272h383l-221 -272h-297zM827 0h-405l-397 1567h430l170 -774q28 -124 39 -238l4 -33h4q10 113 53 269l213 776h352l217 -774q26 -103 56 -238l6 -33h2q10 113 43 269l166 776h374l-395 -1567h-393l-221 836q-38 146 -43 219l-4 26h-4q-6 -88 -47 -243z" />
    <glyph glyph-name="wacute" unicode="&#x1e83;" horiz-adv-x="1792" 
d="M733 1245l101 369h387l-181 -369h-307zM336 0l-311 1108h378l111 -461q33 -138 43 -241l4 -39h6q23 145 62 280l129 461h305l131 -461q29 -109 55 -241l6 -39h9q25 145 55 280l106 461h342l-309 -1108h-379l-98 328q-33 111 -70 325l-10 64h-4q-47 -240 -92 -387
l-100 -330h-369z" />
    <glyph glyph-name="Wdieresis" unicode="&#x1e84;" horiz-adv-x="2179" 
d="M739 1702v321h328v-321h-328zM1180 1702v321h327v-321h-327zM827 0h-405l-397 1567h430l170 -774q28 -124 39 -238l4 -33h4q10 113 53 269l213 776h352l217 -774q26 -103 56 -238l6 -33h2q10 113 43 269l166 776h374l-395 -1567h-393l-221 836q-38 146 -43 219l-4 26h-4
q-6 -88 -47 -243z" />
    <glyph glyph-name="wdieresis" unicode="&#x1e85;" horiz-adv-x="1792" 
d="M528 1292v322h328v-322h-328zM969 1292v322h327v-322h-327zM336 0l-311 1108h378l111 -461q33 -138 43 -241l4 -39h6q23 145 62 280l129 461h305l131 -461q29 -109 55 -241l6 -39h9q25 145 55 280l106 461h342l-309 -1108h-379l-98 328q-33 111 -70 325l-10 64h-4
q-47 -240 -92 -387l-100 -330h-369z" />
    <glyph glyph-name="Ygrave" unicode="&#x1ef2;" horiz-adv-x="1474" 
d="M768 1966l135 -272h-297l-221 272h383zM530 0v653l-507 914h450l281 -559h4l274 559h420l-506 -910v-657h-416z" />
    <glyph glyph-name="ygrave" unicode="&#x1ef3;" horiz-adv-x="1226" 
d="M707 1614l100 -369h-307l-181 369h388zM238 -119q166 0 198 99l4 12l-428 1116h416l156 -526q27 -92 45 -205l4 -33h4q10 113 45 238l143 526h389l-383 -1124q-73 -207 -187 -299t-339 -93q-160 0 -188 17v282q41 -10 121 -10z" />
    <glyph glyph-name="uni2009" unicode="&#x2009;" horiz-adv-x="40" 
 />
    <glyph glyph-name="endash" unicode="&#x2013;" horiz-adv-x="1044" 
d="M113 485v277h819v-277h-819z" />
    <glyph glyph-name="emdash" unicode="&#x2014;" horiz-adv-x="1822" 
d="M113 492v264h1597v-264h-1597z" />
    <glyph glyph-name="quoteleft" unicode="&#x2018;" horiz-adv-x="659" 
d="M588 1567l-139 -580h-388l279 580h248z" />
    <glyph glyph-name="quoteright" unicode="&#x2019;" horiz-adv-x="659" 
d="M72 987l139 580h387l-279 -580h-247z" />
    <glyph glyph-name="quotesinglbase" unicode="&#x201a;" horiz-adv-x="659" 
d="M72 -231l139 579h387l-279 -579h-247z" />
    <glyph glyph-name="quotedblleft" unicode="&#x201c;" horiz-adv-x="1126" 
d="M582 1567l-140 -580h-376l268 580h248zM1053 1567l-140 -580h-376l268 580h248z" />
    <glyph glyph-name="quotedblright" unicode="&#x201d;" horiz-adv-x="1126" 
d="M82 987l139 580h377l-268 -580h-248zM553 987l139 580h377l-268 -580h-248z" />
    <glyph glyph-name="quotedblbase" unicode="&#x201e;" horiz-adv-x="1120" 
d="M72 -231l139 579h377l-269 -579h-247zM543 -231l139 579h377l-268 -579h-248z" />
    <glyph glyph-name="dagger" unicode="&#x2020;" horiz-adv-x="694" 
d="M481 1100v-506h-268v506h-172v258h172v209h268v-209h172v-258h-172z" />
    <glyph glyph-name="daggerdbl" unicode="&#x2021;" horiz-adv-x="694" 
d="M481 803v-209h-268v209h-172v221h172v113h-172v221h172v209h268v-209h172v-221h-172v-113h172v-221h-172z" />
    <glyph glyph-name="bullet" unicode="&#x2022;" horiz-adv-x="708" 
d="M351 365q-115 1 -187 73t-72 190t77 194t189 75q112 0 186 -75q72 -74 72 -192t-75 -192q-76 -73 -190 -73z" />
    <glyph glyph-name="ellipsis" unicode="&#x2026;" horiz-adv-x="1959" 
d="M127 0v367h399v-367h-399zM780 0v367h400v-367h-400zM1434 0v367h399v-367h-399z" />
    <glyph glyph-name="perthousand" unicode="&#x2030;" horiz-adv-x="2736" 
d="M1413 184q55 0 87 44t32 128t-32 129t-87 45q-117 0 -117 -173t117 -173zM2261 184q55 0 87 44t32 128t-32 129t-87 45q-117 0 -117 -173t117 -173zM1414 -14q-157 0 -260 97t-103 273t104 272t261 97q157 0 261 -95q105 -94 105 -272t-106 -275t-262 -97zM2262 -14
q-157 0 -260 97t-104 273q0 176 104 272t262 97q157 0 261 -95q105 -94 105 -272t-106 -275t-262 -97zM467 979q117 0 117 173t-117 173t-117 -173t117 -173zM466 780q-157 0 -260 98t-104 273q0 176 106 272q106 97 261 97q156 0 261 -96q106 -96 106 -273
q0 -175 -106 -273t-264 -98zM276 -82l1080 1681h266l-1079 -1681h-267z" />
    <glyph glyph-name="uni2032" unicode="&#x2032;" horiz-adv-x="659" 
d="M113 987l57 580h387l-197 -580h-247z" />
    <glyph glyph-name="uni2033" unicode="&#x2033;" horiz-adv-x="1126" 
d="M123 987l57 580h377l-186 -580h-248zM594 987l57 580h377l-186 -580h-248z" />
    <glyph glyph-name="guilsinglleft" unicode="&#x2039;" horiz-adv-x="612" 
d="M264 950h275l-193 -422l197 -411h-277l-213 418z" />
    <glyph glyph-name="guilsinglright" unicode="&#x203a;" horiz-adv-x="610" 
d="M346 117h-274l192 422l-194 411h274l213 -415z" />
    <glyph glyph-name="fraction" unicode="&#x2044;" horiz-adv-x="481" 
d="M-451 -82l1121 1681h262l-1120 -1681h-263z" />
    <glyph glyph-name="Euro" unicode="&#x20ac;" horiz-adv-x="1521" 
d="M834 -29q-537 0 -623 541h-156v164h140q-2 25 -2 77t2 76h-144v164h162q47 267 211 405t440 138t422 -138q145 -138 158 -351h-416q-18 219 -188 219q-94 0 -148 -62t-74 -211h306v-164h-320v-73q0 -55 2 -80h322v-164h-312q20 -150 74 -206t150 -56q170 0 188 201h402
q-4 -211 -159 -345t-437 -135z" />
    <glyph glyph-name="trademark" unicode="&#x2122;" horiz-adv-x="1476" 
d="M616 940v627h287l90 -297l23 -101h6q8 45 25 101l88 297h284v-627h-172v444h-6q-14 -55 -39 -127l-106 -317h-160l-109 315l-36 129h-7v-444h-168zM563 1567v-154h-184v-473h-174v473h-185v154h543z" />
    <glyph glyph-name="onethird" unicode="&#x2153;" horiz-adv-x="1931" 
d="M1468 369h-112v157h86q47 0 78 24q30 24 30 68t-26 67q-27 24 -72 24t-69 -28t-25 -63h-273q7 115 97 199t278 84q188 -1 280 -69q93 -68 93 -170q0 -164 -182 -199v-4q205 -31 204 -209q0 -113 -101 -191q-101 -77 -296 -77q-194 0 -284 80t-93 202h281q2 -42 30 -64
t76 -22t78 28q29 28 29 70t-29 67q-29 26 -78 26zM145 -82l1121 1681h262l-1120 -1681h-263zM240 684v549h-197v186h31q86 0 137 33t51 115h260v-883h-282z" />
    <glyph glyph-name="twothirds" unicode="&#x2154;" horiz-adv-x="2142" 
d="M1679 369h-112v157h86q47 0 78 24t31 68t-27 67q-27 24 -72 24t-69 -28t-25 -63h-273q8 115 98 199t276 84q188 -1 281 -69t93 -170q0 -164 -182 -199v-4q205 -31 204 -209q0 -113 -101 -191q-101 -77 -296 -77t-285 80t-92 202h281q2 -42 30 -64q29 -22 77 -22t77 28
t29 70t-29 67q-29 26 -78 26zM397 -82l1121 1681h262l-1121 -1681h-262zM458 1581q190 0 281 -73q92 -73 92 -181t-51 -177t-166 -157l-131 -100v-6h351v-203h-773v137l377 318q63 53 86 86t23 73q0 90 -86 91q-119 -1 -121 -144h-270q4 158 101 247t287 89z" />
    <glyph glyph-name="oneeighth" unicode="&#x215b;" horiz-adv-x="1912" 
d="M1453 147q54 0 89 32t35 87t-33 85t-90 30q-125 0 -125 -117q0 -53 35 -85t89 -32zM1454 733q-102 0 -102 -100q0 -49 28 -76t74 -27q47 0 75 27t27 76q0 100 -102 100zM1087 653q-1 115 93 180t274 65t272 -67t92 -191t-130 -177v-4q168 -45 167 -205q0 -123 -104 -198
t-297 -74q-401 0 -401 272q0 154 166 205v4q-132 49 -132 190zM139 -82l1121 1681h262l-1121 -1681h-262zM240 684v549h-197v186h31q86 0 137 33t51 115h260v-883h-282z" />
    <glyph glyph-name="threeeighths" unicode="&#x215c;" horiz-adv-x="2064" 
d="M1605 147q54 0 89 32t35 87t-33 85t-90 30q-125 0 -125 -117q0 -53 35 -85t89 -32zM1606 733q-102 0 -103 -100q0 -49 28 -76t75 -27q46 0 74 27t28 76q0 100 -102 100zM1239 653q0 115 93 180q94 65 274 65t272 -67t92 -191t-131 -177v-4q168 -45 168 -205
q0 -123 -104 -198t-297 -74q-401 0 -402 272q0 154 166 205v4q-131 49 -131 190zM332 -82l1120 1681h262l-1120 -1681h-262zM459 1053h-113v157h86q47 0 78 24t31 68t-27 68t-72 23q-44 0 -68 -28t-26 -62h-272q8 115 97 199t277 83t280 -69q93 -68 93 -170
q0 -164 -182 -199v-4q205 -31 205 -209q0 -113 -102 -191q-102 -77 -296 -77t-284 80t-92 202h280q2 -42 30 -64t77 -22t78 28t29 70t-30 68q-28 26 -77 25z" />
    <glyph glyph-name="fiveeighths" unicode="&#x215d;" horiz-adv-x="2058" 
d="M1598 147q54 0 90 32q34 32 34 87t-32 85q-33 30 -91 30q-125 0 -124 -117q1 -53 35 -85t88 -32zM1599 733q-102 0 -102 -100q0 -49 28 -76q29 -27 75 -27t74 27t28 76q-1 100 -103 100zM1233 653q0 115 93 180t273 65q181 0 273 -67t92 -191t-131 -177v-4
q168 -45 168 -205q-1 -123 -105 -198t-297 -74q-401 0 -401 272q0 154 166 205v4q-131 49 -131 190zM313 -82l1121 1681h262l-1121 -1681h-262zM565 971q0 49 -30 81q-31 32 -89 32t-102 -52h-246l39 535h639v-207h-428l-16 -199h4q66 101 208 101t218 -71t76 -207t-96 -227
t-293 -91q-365 0 -381 282h278q2 -40 33 -64t78 -24t78 31q30 31 30 80z" />
    <glyph glyph-name="seveneighths" unicode="&#x215e;" horiz-adv-x="1918" 
d="M1459 147q54 0 89 32t35 87t-33 85t-90 30q-125 0 -125 -117q0 -53 35 -85t89 -32zM1460 733q-102 0 -102 -100q0 -49 28 -76t74 -27q47 0 75 27t28 76q-1 100 -103 100zM1094 653q0 115 93 180t273 65t272 -67t93 -191q0 -124 -131 -177v-4q168 -45 168 -205
q0 -123 -104 -198t-298 -74q-401 0 -401 272q0 154 166 205v4q-131 49 -131 190zM133 -82l1120 1681h263l-1121 -1681h-262zM59 1360v207h723v-144l-366 -739h-295l334 676h-396z" />
    <glyph glyph-name="minus" unicode="&#x2212;" horiz-adv-x="1296" 
d="M145 594v278h1004v-278h-1004z" />
    <glyph glyph-name="approxequal" unicode="&#x2248;" horiz-adv-x="1296" 
d="M133 336q0 162 79 270t222 107q70 0 222 -40t194 -40q82 0 88 90h223q-1 -168 -69 -272t-211 -105q-70 0 -222 40t-192 40q-80 0 -86 -90h-248zM133 782q0 162 79 270t222 107q70 0 222 -40t194 -40q82 0 88 90h223q-1 -168 -69 -272t-211 -104q-70 0 -222 40t-192 39
q-80 0 -86 -90h-248z" />
    <glyph glyph-name="notequal" unicode="&#x2260;" horiz-adv-x="1296" 
d="M145 362v279h369l76 168h-445v278h568l94 216h207l-94 -216h229v-278h-352l-76 -168h428v-279h-551l-88 -200h-207l88 200h-246z" />
    <glyph glyph-name="lessequal" unicode="&#x2264;" horiz-adv-x="1296" 
d="M1161 0h-1048v279h1048v-279zM1161 381l-1048 485v185l1048 487v-301l-608 -268l608 -275v-313z" />
    <glyph glyph-name="greaterequal" unicode="&#x2265;" horiz-adv-x="1296" 
d="M1184 0h-1049v279h1049v-279zM135 1538l1049 -485v-185l-1049 -487v301l608 268l-608 275v313z" />
    <glyph glyph-name="uni24C5" unicode="&#x24c5;" horiz-adv-x="1841" 
d="M834 782h102q156 0 156 127t-154 127h-104v-254zM834 344h-256v879h395q168 0 264 -81t96 -232q0 -150 -96 -232t-264 -82h-139v-252zM920 84q288 0 482 200t194 494t-194 496q-194 201 -482 201t-482 -200q-192 -200 -192 -496q0 -295 192 -495t482 -200zM113 778
q0 346 230 580q231 234 577 233q346 0 577 -233q231 -232 231 -578t-230 -579q-232 -233 -578 -233t-576 232t-231 578z" />
    <glyph glyph-name="quotedblright.sc" horiz-adv-x="1126" 
d="M82 739l139 580h377l-268 -580h-248zM553 739l139 580h377l-268 -580h-248z" />
    <glyph glyph-name="Ibreve.sc" horiz-adv-x="663" 
d="M332 1419q-160 0 -259 94t-100 285h254q0 -61 30 -94t81 -33t81 33t30 94h243q0 -190 -100 -284t-260 -95zM131 0v1319h401v-1319h-401z" />
    <glyph glyph-name="exclamdown.uc" horiz-adv-x="731" 
d="M156 1567h422v-348h-422v348zM510 1063l88 -1110h-465l90 1110h287z" />
    <glyph glyph-name="hyphen.uc" horiz-adv-x="901" 
d="M113 578v294h675v-294h-675z" />
    <glyph glyph-name="endash.uc" horiz-adv-x="1044" 
d="M113 578v276h819v-276h-819z" />
    <glyph glyph-name="emdash.uc" horiz-adv-x="1822" 
d="M113 584v264h1597v-264h-1597z" />
    <glyph glyph-name="guilsinglleft.uc" horiz-adv-x="612" 
d="M264 1073h275l-193 -422l197 -411h-277l-213 417z" />
    <glyph glyph-name="guilsinglright.uc" horiz-adv-x="610" 
d="M346 240h-274l192 422l-194 411h274l213 -416z" />
    <glyph glyph-name="guillemotleft.uc" horiz-adv-x="1073" 
d="M264 1073h275l-193 -422l197 -411h-277l-213 417zM727 1073h274l-192 -422l195 -411h-275l-213 417z" />
    <glyph glyph-name="guillemotright.uc" horiz-adv-x="1114" 
d="M850 240h-275l193 422l-195 411h275l213 -416zM369 240h-277l195 422l-197 411h277l211 -416z" />
    <glyph glyph-name="parenleft.uc" horiz-adv-x="761" 
d="M111 735q0 520 360 940h285q-297 -477 -297 -938t297 -942h-285q-360 420 -360 940z" />
    <glyph glyph-name="parenright.uc" horiz-adv-x="733" 
d="M303 737q0 461 -297 938h283q360 -414 360 -940t-360 -940h-283q297 481 297 942z" />
    <glyph glyph-name="space_uni0326" horiz-adv-x="755" 
d="M184 -426l54 340h378l-161 -340h-271z" />
    <glyph glyph-name="grave.uc" horiz-adv-x="755" 
d="M428 1966l135 -272h-297l-221 272h383z" />
    <glyph glyph-name="bracketleft.uc" horiz-adv-x="827" 
d="M184 -205v1880h592v-229h-270v-1421h270v-230h-592z" />
    <glyph glyph-name="bracketright.uc" horiz-adv-x="827" 
d="M643 1675v-1880h-592v230h271v1421h-271v229h592z" />
    <glyph glyph-name="braceleft.uc" horiz-adv-x="913" 
d="M170 600h-68v262h68q59 0 82 30t22 101v258q0 248 138 340t450 92v-221q-162 0 -220 -50t-58 -179v-223q0 -233 -170 -271v-8q170 -39 170 -282v-211q0 -130 58 -180t220 -50v-221q-313 0 -450 88t-138 318v276q0 71 -22 101t-82 30z" />
    <glyph glyph-name="braceright.uc" horiz-adv-x="913" 
d="M811 870v-262h-68q-59 0 -81 -30t-23 -101v-258q0 -248 -137 -340t-451 -92v221q162 0 220 50t59 180v223q0 233 170 270v8q-170 39 -170 283v211q0 129 -58 179t-221 50v221q313 0 451 -88t137 -317v-277q0 -71 23 -101t81 -30h68z" />
    <glyph glyph-name="slash.uc" horiz-adv-x="1171" 
d="M-49 -205l930 1880h288l-929 -1880h-289z" />
    <glyph glyph-name="backslash.uc" horiz-adv-x="1171" 
d="M932 -205l-930 1880h289l930 -1880h-289z" />
    <glyph glyph-name="bar.uc" horiz-adv-x="591" 
d="M162 -205v1880h260v-1880h-260z" />
    <glyph glyph-name="acute.uc" horiz-adv-x="755" 
d="M190 1694l136 272h383l-222 -272h-297z" />
    <glyph glyph-name="at.uc" horiz-adv-x="2107" 
d="M969 473q61 0 113 59t71 158l18 92q16 90 -13 148q-30 57 -91 57q-98 0 -154 -111q-55 -112 -55 -237q0 -166 111 -166zM1462 254q-118 0 -198 54t-93 153h-6q-106 -199 -317 -199q-146 0 -232 102t-86 275q0 221 130 388t331 167q93 0 151 -40t81 -99h4l22 106h320
l-127 -579q-16 -80 12 -122t92 -42q106 0 179 110t73 320q0 292 -205 486t-531 194t-560 -243q-236 -243 -236 -597t213 -569t533 -215t534 172l90 -94q-254 -213 -638 -213t-636 255q-252 254 -252 668t280 692q278 278 675 279q397 0 648 -224t251 -579q0 -302 -140 -454
t-362 -152z" />
    <glyph glyph-name="f.short" horiz-adv-x="774" 
d="M565 836v-836h-391v836h-135v272h135v96q0 232 112 328t320 96q107 0 164 -10l23 -2v-268q-35 6 -97 6q-132 0 -131 -162v-84h191v-272h-191z" />
    <glyph glyph-name="f_f.short" horiz-adv-x="1548" 
d="M565 836v-836h-391v836h-135v272h135v80q0 232 112 328t320 96q107 0 164 -10l23 -3v-268q-35 6 -97 6q-132 0 -131 -161v-68h383v96q0 232 112 328t320 96q109 0 164 -10l23 -2v-268q-35 6 -97 6q-132 0 -131 -162v-84h191v-272h-191v-836h-391v836h-383z" />
    <glyph glyph-name="macron.uc" horiz-adv-x="755" 
d="M0 1702v246h756v-246h-756z" />
    <glyph glyph-name="circumflex.uc" horiz-adv-x="755" 
d="M541 1966l223 -272h-270l-125 92h-2l-119 -92h-254l223 272h324z" />
    <glyph glyph-name="caron.uc" horiz-adv-x="755" 
d="M217 1694l-223 272h270l125 -92h2l119 92h254l-223 -272h-324z" />
    <glyph glyph-name="breve.uc" horiz-adv-x="755" 
d="M378 1653q-161 0 -260 83t-100 257h248q2 -51 35 -82t82 -31t83 31t36 82h235q0 -174 -99 -257t-260 -83z" />
    <glyph glyph-name="caron.alt" horiz-adv-x="755" 
d="M258 1204v410h299l-123 -410h-176z" />
    <glyph glyph-name="dotaccent.uc" horiz-adv-x="755" 
d="M215 1702v321h328v-321h-328z" />
    <glyph glyph-name="ring.uc" horiz-adv-x="755" 
d="M385 2009q-51 0 -80 -34t-29 -90t30 -90t80 -34t79 34t29 90t-29 90t-80 34zM680 1887q0 -121 -82 -195t-215 -74t-212 74t-79 194t82 195q82 76 216 76t212 -74t78 -196z" />
    <glyph glyph-name="sterling.tab" 
d="M1165 309v-309h-1089v215l92 64q170 117 115 325h-217v225h133l-19 48q-116 297 30 480t436 183t406 -119t124 -338h-373q-6 199 -139 199q-76 0 -111 -49q-64 -90 -6 -279l37 -125h311v-225h-258q10 -164 -139 -278l-17 -13v-4h684z" />
    <glyph glyph-name="tilde.uc" horiz-adv-x="755" 
d="M227 2009q68 0 159 -48t130 -48q68 0 102 96h162q-6 -162 -61 -251t-191 -89q-68 0 -158 47t-130 47q-68 0 -99 -94h-166q5 160 61 250t191 90z" />
    <glyph glyph-name="cent.tab" 
d="M1163 436q0 -208 -123 -326t-338 -135v-213h-147v211q-246 20 -373 172t-127 410q0 259 130 407t370 171v167h147v-167q217 -19 335 -137t122 -318h-348q-14 162 -109 203v-650q109 43 115 205h346zM420 556q0 -274 135 -325v652q-135 -53 -135 -327z" />
    <glyph glyph-name="plus.tab" 
d="M766 594v-406h-305v406h-389v278h389v402h305v-402h391v-278h-391z" />
    <glyph glyph-name="minus.tab" 
d="M113 594v278h1003v-278h-1003z" />
    <glyph glyph-name="multiply.tab" 
d="M276 166l-208 209l342 338l-342 338l208 209l338 -342l336 342l209 -209l-340 -338l342 -338l-209 -209l-338 342z" />
    <glyph glyph-name="divide.tab" 
d="M803 115h-377v346h377v-346zM113 594v278h1003v-278h-1003zM426 999v347h377v-347h-377z" />
    <glyph glyph-name="equal.tab" 
d="M1116 362h-1003v279h1003v-279zM113 809v278h1003v-278h-1003z" />
    <glyph glyph-name="less.tab" 
d="M1139 63l-1049 541v158l1049 543v-314l-600 -299l600 -303v-326z" />
    <glyph glyph-name="greater.tab" 
d="M90 1305l1049 -541v-158l-1049 -543v314l600 299l-600 303v326z" />
    <glyph glyph-name="florin.tab" 
d="M184 692v273h240l18 155q35 289 159 399t327 109l174 -12v-283q-26 6 -92 6t-112 -43t-62 -176l-21 -155h229v-273h-264l-141 -1079h-383l133 1079h-205z" />
    <glyph glyph-name="plusminus.tab" 
d="M72 0v279h1085v-279h-1085zM766 778v-323h-305v323h-389v279h389v319h305v-319h391v-279h-391z" />
    <glyph glyph-name="notequal.tab" 
d="M113 362v279h368l76 168h-444v278h567l94 216h207l-94 -216h229v-278h-352l-76 -168h428v-279h-551l-88 -200h-207l88 200h-245z" />
    <glyph glyph-name="approxequal.tab" 
d="M100 336q0 162 79 270t222 107q70 0 222 -40t194 -40q82 0 88 90h223q0 -168 -68 -272t-212 -105q-70 0 -222 40t-192 40q-80 0 -86 -90h-248zM100 782q0 162 79 270t222 107q70 0 222 -40t194 -40q82 0 88 90h223q0 -168 -68 -272t-212 -104q-70 0 -222 40t-192 39
q-80 0 -86 -90h-248z" />
    <glyph glyph-name="lessequal.tab" 
d="M1139 0h-1049v279h1049v-279zM1139 381l-1049 485v185l1049 487v-301l-609 -268l609 -275v-313z" />
    <glyph glyph-name="greaterequal.tab" 
d="M1139 0h-1049v279h1049v-279zM90 1538l1049 -485v-185l-1049 -487v301l608 268l-608 275v313z" />
    <glyph glyph-name="period.tab" horiz-adv-x="614" 
d="M106 0v367h400v-367h-400z" />
    <glyph glyph-name="comma.tab" horiz-adv-x="614" 
d="M37 -240l127 607h393l-258 -607h-262z" />
    <glyph glyph-name="colon.tab" horiz-adv-x="614" 
d="M502 0h-391v367h391v-367zM111 713v366h391v-366h-391z" />
    <glyph glyph-name="semicolon.tab" horiz-adv-x="614" 
d="M279 -240h-263l127 607h394zM145 713v366h392v-366h-392z" />
    <glyph glyph-name="hungarumlaut.uc" horiz-adv-x="894" 
d="M100 1694l33 272h295l-102 -272h-226zM467 1694l74 272h295l-144 -272h-225z" />
    <glyph glyph-name="currency.tab" 
d="M455 713q1 -74 43 -120t113 -46t114 46t43 120t-43 121t-114 47t-113 -47t-43 -121zM225 712q0 83 29 156l-219 215l209 209l215 -221q69 29 149 29t158 -31l217 223l209 -209l-223 -219q29 -70 29 -152t-29 -151l225 -219l-209 -209l-219 223q-149 -58 -307 -2
l-215 -221l-209 209l219 213q-29 74 -29 157z" />
    <glyph glyph-name="percent.tab" horiz-adv-x="1843" 
d="M1393 184q104 0 104 173t-104 173t-104 -173t104 -173zM1392 -14q-148 0 -246 97q-97 97 -97 273t99 272q100 96 246 97q146 0 246 -96q100 -97 100 -273t-100 -273t-248 -97zM444 1325q-102 0 -102 -173t104 -173t104 173t-106 173zM444 780q-148 0 -244 98t-98 273
q0 176 100 272q100 97 245 97q147 0 247 -96t100 -273q0 -175 -100 -273q-102 -98 -250 -98zM254 -82l1079 1681h266l-1079 -1681h-266z" />
    <glyph glyph-name="perthousand.tab" horiz-adv-x="2457" 
d="M1266 184q44 0 72 44t28 128t-28 129t-72 45q-98 0 -98 -173t98 -173zM2028 184q44 0 72 44t28 128t-28 129t-72 45q-98 0 -98 -173t98 -173zM1267 -14q-140 0 -232 97q-91 97 -91 274t92 273t232 95q140 0 232 -95q93 -94 93 -272t-93 -275t-233 -97zM2029 -14
q-140 0 -232 97q-91 97 -91 273t93 272t231 97q138 0 232 -95q93 -94 93 -272t-93 -275t-233 -97zM426 979q98 0 98 173t-98 173t-98 -173t98 -173zM102 1151q0 176 94 272q94 97 231 97q138 0 232 -96q95 -96 95 -273q0 -176 -94 -273q-94 -98 -235 -98q-139 0 -231 98
t-92 273zM178 -82l1079 1681h267l-1080 -1681h-266z" />
    <glyph glyph-name="idotaccent" horiz-adv-x="622" 
d="M111 0v1108h401v-1108h-401zM111 1268v346h401v-346h-401z" />
    <glyph glyph-name="A.sc" horiz-adv-x="1441" 
d="M1008 0l-74 219h-469l-76 -219h-379l490 1319h440l492 -1319h-424zM702 1010q0 -39 -67 -260l-86 -277h301l-84 279q-39 129 -57 235l-2 23h-5z" />
    <glyph glyph-name="AE.sc" horiz-adv-x="2009" 
d="M1884 1319v-268h-534v-263h516v-262h-516v-262h557v-264h-946v276h-426l-134 -276h-391l690 1319h1184zM961 518v533h-50l-258 -533h308z" />
    <glyph glyph-name="B.sc" horiz-adv-x="1363" 
d="M532 250h203q174 0 174 156q0 68 -46 106t-126 39h-205v-301zM532 784h146q174 0 174 148q0 70 -47 108t-131 37h-142v-293zM766 0h-635v1319h612q252 0 370 -81t118 -251q0 -111 -68 -179t-157 -97v-6q131 -21 214 -103t83 -215q-1 -179 -143 -283t-394 -104z" />
    <glyph glyph-name="C.sc" horiz-adv-x="1427" 
d="M750 1073q-100 0 -162 -101t-62 -317q0 -416 215 -415q174 0 189 233h409q-7 -244 -165 -373t-429 -129q-335 0 -491 175t-156 495t171 508t483 188q578 0 589 -503h-411q-8 239 -180 239z" />
    <glyph glyph-name="D.sc" horiz-adv-x="1454" 
d="M532 266h113q139 0 215 92t76 312q0 387 -285 387h-119v-791zM131 0v1319h524q331 0 519 -162q188 -163 188 -485t-194 -497t-517 -175h-520z" />
    <glyph glyph-name="Dcroat.sc" horiz-adv-x="1503" 
d="M582 266h112q139 0 215 92t76 312q0 387 -285 387h-118v-283h215v-231h-215v-277zM700 0h-520v543h-117v231h117v545h525q330 0 518 -162q188 -163 188 -485q1 -322 -193 -497t-518 -175z" />
    <glyph glyph-name="E.sc" horiz-adv-x="1196" 
d="M131 0v1319h940v-268h-539v-263h521v-262h-521v-262h562v-264h-963z" />
    <glyph glyph-name="Eng.sc" horiz-adv-x="1460" 
d="M786 -344h-122v268h96q154 0 196 84l-333 537q-89 144 -119 221l-15 33h-6v-799h-352v1319h416l297 -524q84 -136 110 -211l13 -29h4v764h358v-1204q0 -258 -136 -359q-137 -100 -407 -100z" />
    <glyph glyph-name="Eth.sc" horiz-adv-x="1503" 
d="M582 266h112q139 0 215 92t76 312q0 387 -285 387h-118v-283h215v-231h-215v-277zM700 0h-520v543h-117v231h117v545h525q330 0 518 -162q188 -163 188 -485q1 -322 -193 -497t-518 -175z" />
    <glyph glyph-name="F.sc" horiz-adv-x="1153" 
d="M532 459v-459h-401v1319h936v-277h-535v-313h508v-270h-508z" />
    <glyph glyph-name="G.sc" horiz-adv-x="1486" 
d="M768 1079q-250 0 -250 -424t250 -424q216 0 240 244h-248v248h604v-723h-285v170h-6q-109 -197 -371 -197q-311 1 -457 181q-147 180 -147 488t180 502t492 193q559 0 590 -452h-404q-10 92 -58 143t-130 51z" />
    <glyph glyph-name="H.sc" horiz-adv-x="1470" 
d="M532 512v-512h-401v1319h401v-524h404v524h403v-1319h-403v512h-404z" />
    <glyph glyph-name="I.sc" horiz-adv-x="663" 
d="M131 0v1319h401v-1319h-401z" />
    <glyph glyph-name="IJ.sc" horiz-adv-x="1509" 
d="M131 0v1319h401v-1319h-401zM850 -6h-127v289h72q125 0 163 52t39 165v819h396v-868q-1 -253 -139 -355t-404 -102z" />
    <glyph glyph-name="J.sc" horiz-adv-x="878" 
d="M225 -6h-143v289h80q127 0 166 52t39 165v819h395v-868q0 -254 -136 -356q-137 -101 -401 -101z" />
    <glyph glyph-name="K.sc" horiz-adv-x="1409" 
d="M532 0h-401v1319h401v-526l426 526h404l-461 -559l471 -760h-448l-291 489l-101 -118v-371z" />
    <glyph glyph-name="L.sc" horiz-adv-x="1163" 
d="M131 0v1319h401v-1032h508v-287h-909z" />
    <glyph glyph-name="M.sc" horiz-adv-x="1824" 
d="M131 0v1319h561l164 -551q38 -127 45 -182l6 -29h6q18 106 52 213l155 549h574v-1319h-385v981h-4q-39 -160 -91 -332l-184 -649h-264l-193 651q-49 154 -73 287l-11 43h-6v-981h-352z" />
    <glyph glyph-name="N.sc" horiz-adv-x="1460" 
d="M131 0v1319h416l297 -522q83 -133 110 -213l13 -29h4v764h358v-1319h-389l-317 545q-84 125 -119 221l-15 33h-6v-799h-352z" />
    <glyph glyph-name="O.sc" horiz-adv-x="1527" 
d="M760 236q127 0 184 103t57 312t-65 319q-66 110 -182 110t-170 -105q-56 -103 -56 -321t52 -318t180 -100zM1430 660q0 -318 -174 -502t-502 -184q-330 0 -493 178t-163 496t174 504t499 185q325 0 492 -180q167 -179 167 -497z" />
    <glyph glyph-name="OE.sc" horiz-adv-x="2058" 
d="M680 -25q-274 -1 -428 177t-154 502t169 504q169 179 440 179q98 0 183 -41t120 -112h4v135h919v-268h-534v-263h516v-262h-516v-262h557v-264h-942v119h-6q-37 -61 -120 -103t-208 -41zM1014 526v242q0 137 -62 224t-167 87q-107 0 -179 -100q-72 -101 -72 -315t66 -322
q64 -108 178 -106q114 0 176 78q60 78 60 212z" />
    <glyph glyph-name="Oslash.sc" horiz-adv-x="1527" 
d="M1430 651q0 -309 -174 -493t-492 -185q-231 0 -391 97l-97 -113h-215l187 221q-150 174 -150 481t174 493t492 185q231 0 387 -96l106 127h216l-197 -233q154 -175 154 -484zM764 227q131 -1 193 105t63 323q0 92 -12 166l-433 -512q58 -82 189 -82zM757 1087
q-247 0 -247 -432q0 -100 8 -159l426 501q-63 90 -187 90z" />
    <glyph glyph-name="P.sc" horiz-adv-x="1290" 
d="M532 680h123q96 0 150 50q53 50 53 149q0 184 -203 184h-123v-383zM645 410h-113v-410h-401v1319h553q256 -1 403 -107t147 -344t-152 -348t-437 -110z" />
    <glyph glyph-name="Q.sc" horiz-adv-x="1527" 
d="M1001 646q0 214 -63 324t-182 109q-119 0 -173 -105q-55 -106 -55 -324t54 -319t182 -101q127 0 182 100q55 102 55 316zM784 -23h-22q-662 0 -662 678q0 313 173 499t497 184q324 -1 492 -182t168 -501q0 -190 -68 -332t-197 -208v-11q99 -18 155 -66t95 -142l-332 -166
q-70 137 -132 192t-167 55z" />
    <glyph glyph-name="R.sc" horiz-adv-x="1380" 
d="M532 481v-481h-401v1319h576q163 0 277 -32t201 -127t87 -240q0 -260 -252 -361v-4l307 -555h-420l-245 481h-130zM532 711h121q88 0 149 43q60 43 60 136t-59 139t-146 46h-125v-364z" />
    <glyph glyph-name="S.sc" horiz-adv-x="1282" 
d="M637 1079q-63 1 -103 -29t-40 -83q0 -96 139 -121l227 -41q166 -29 257 -126t91 -247q0 -227 -160 -344t-420 -117q-261 0 -412 108t-150 304h397q2 -72 51 -112t130 -40t124 35t43 92q0 100 -149 127l-228 41q-143 25 -238 124q-96 99 -96 273q0 175 142 295t406 120
q265 0 387 -100q122 -98 134 -280h-395q-2 51 -38 86t-99 35z" />
    <glyph glyph-name="T.sc" horiz-adv-x="1204" 
d="M1155 1319v-293h-352v-1026h-402v1026h-352v293h1106z" />
    <glyph glyph-name="Tbar.sc" horiz-adv-x="1204" 
d="M1155 1319v-293h-352v-240h276v-213h-276v-573h-402v573h-280v213h280v240h-352v293h1106z" />
    <glyph glyph-name="Thorn.sc" horiz-adv-x="1282" 
d="M705 264h-173v-264h-401v1319h401v-240h195q229 0 361 -95t133 -302q0 -418 -516 -418zM532 512h138q82 4 128 46t46 120q0 160 -185 160h-127v-326z" />
    <glyph glyph-name="U.sc" horiz-adv-x="1411" 
d="M123 477v842h397v-827q0 -106 35 -160q43 -70 157 -70t154 74q33 57 33 156v827h389v-842q0 -248 -154 -377t-430 -129q-278 0 -430 125q-151 125 -151 381z" />
    <glyph glyph-name="V.sc" horiz-adv-x="1351" 
d="M451 0l-441 1319h420l205 -725q38 -141 49 -223l4 -31h4q16 106 60 256l209 723h380l-436 -1319h-454z" />
    <glyph glyph-name="W.sc" horiz-adv-x="1890" 
d="M737 0h-387l-334 1319h418l115 -580q12 -57 20 -125t13 -106l2 -37h4q12 119 49 250l164 598h340l166 -598q19 -69 49 -217l4 -33h4q12 133 37 264l110 584h363l-332 -1319h-373l-172 639q-30 109 -39 213l-4 31h-4q-8 -113 -43 -244z" />
    <glyph glyph-name="X.sc" horiz-adv-x="1392" 
d="M16 0l453 674l-408 645h443l209 -373h2l215 373h405l-420 -631l447 -688h-465l-225 399h-4l-240 -399h-412z" />
    <glyph glyph-name="Y.sc" horiz-adv-x="1275" 
d="M438 0v557l-430 762h424l223 -465h4l213 465h396l-428 -760v-559h-402z" />
    <glyph glyph-name="Z.sc" horiz-adv-x="1230" 
d="M111 1038v281h1028v-250l-598 -786h604v-283h-1067v250l598 788h-565z" />
    <glyph glyph-name="ampersand.sc" horiz-adv-x="1470" 
d="M1370 0h-80q-126 0 -190 20t-139 91q-156 -137 -383 -137q-228 0 -362 104t-134 282q0 203 270 379q-127 121 -127 267t119 238q119 93 323 93q203 0 315 -84t110 -211q0 -74 -37 -135t-83 -100t-96 -75t-59 -42l135 -135l101 180h346l-240 -389q49 -49 88 -59t123 -11
v-276zM432 412q0 -80 53 -130t136 -50t153 63l-270 270q-72 -73 -72 -153zM557 1009q0 -48 17 -80t77 -91q66 49 98 90t31 92q0 51 -30 78q-31 26 -81 26t-81 -34t-31 -81z" />
    <glyph glyph-name="uni0237.sc" horiz-adv-x="878" 
d="M225 -6h-143v289h80q127 0 166 52t39 165v819h395v-868q0 -254 -136 -356q-137 -101 -401 -101z" />
    <glyph glyph-name="exclam.sc" horiz-adv-x="735" 
d="M555 0h-375v303h375v-303zM231 426l-79 893h432l-82 -893h-271z" />
    <glyph glyph-name="exclamdown.sc" horiz-adv-x="735" 
d="M504 893l80 -893h-432l81 893h271zM555 1319v-303h-375v303h375z" />
    <glyph glyph-name="germandbls.sc" horiz-adv-x="2564" 
d="M1919 1079q-63 1 -103 -29t-40 -83q0 -96 139 -121l227 -41q166 -29 257 -126t91 -247q0 -227 -160 -344t-420 -117q-261 0 -412 108t-150 304h397q2 -72 51 -112t130 -40t124 35t43 92q0 100 -149 127l-228 41q-143 25 -238 124q-96 99 -96 273q0 175 142 295t406 120
q265 0 387 -100q122 -98 134 -280h-395q-2 51 -38 86t-99 35zM637 1079q-63 1 -103 -29t-40 -83q0 -96 139 -121l227 -41q166 -29 257 -126t91 -247q0 -227 -160 -344t-420 -117q-261 0 -412 108t-150 304h397q2 -72 51 -112t130 -40t124 35t43 92q0 100 -149 127l-228 41
q-143 25 -238 124q-96 99 -96 273q0 175 142 295t406 120q265 0 387 -100q122 -98 134 -280h-395q-2 51 -38 86t-99 35z" />
    <glyph glyph-name="question.sc" horiz-adv-x="1161" 
d="M387 0v303h375v-303h-375zM739 428h-319v100q0 113 88 183l125 98q55 43 70 74t15 81t-36 85q-37 35 -104 34q-172 0 -172 -194h-345q-1 197 133 323t382 125q248 0 380 -100t134 -268q0 -111 -44 -190t-137 -150l-139 -107q-20 -16 -26 -28t-5 -43v-23z" />
    <glyph glyph-name="questiondown.sc" horiz-adv-x="1161" 
d="M1100 430q0 -196 -133 -322t-381 -126t-381 100t-133 268q0 111 44 190t136 150l139 107q20 16 26 28q5 12 5 43v23h319v-100q0 -113 -88 -183l-125 -98q-55 -43 -70 -74q-16 -31 -16 -81t37 -85t105 -34q172 0 172 194h344zM774 1319v-303h-375v303h375z" />
    <glyph glyph-name="quotedblleft.sc" horiz-adv-x="1126" 
d="M582 1319l-140 -580h-376l268 580h248zM1053 1319l-140 -580h-376l268 580h248z" />
    <glyph glyph-name="space.tab" horiz-adv-x="614" 
 />
    <glyph glyph-name="quoteleft.sc" horiz-adv-x="659" 
d="M588 1319l-139 -580h-388l279 580h248z" />
    <glyph glyph-name="quoteright.sc" horiz-adv-x="659" 
d="M72 739l139 580h387l-279 -580h-247z" />
    <glyph glyph-name="Lslash.sc" horiz-adv-x="1163" 
d="M131 0v418l-137 -45v252l137 45v649h401v-514l353 117v-250l-353 -119v-266h508v-287h-909z" />
    <glyph glyph-name="AEacute.sc" horiz-adv-x="2009" 
d="M1065 1430l100 368h387l-180 -368h-307zM1884 1319v-268h-534v-263h516v-262h-516v-262h557v-264h-946v276h-426l-134 -276h-391l690 1319h1184zM961 518v533h-50l-258 -533h308z" />
    <glyph glyph-name="Aacute.sc" horiz-adv-x="1441" 
d="M571 1430l101 368h387l-180 -368h-308zM1008 0l-74 219h-469l-76 -219h-379l490 1319h440l492 -1319h-424zM702 1010q0 -39 -67 -260l-86 -277h301l-84 279q-39 129 -57 235l-2 23h-5z" />
    <glyph glyph-name="Abreve.sc" horiz-adv-x="1441" 
d="M721 1419q-160 0 -259 94t-100 285h254q0 -61 30 -94t81 -33t81 33t30 94h243q0 -190 -100 -284t-260 -95zM1008 0l-74 219h-469l-76 -219h-379l490 1319h440l492 -1319h-424zM702 1010q0 -39 -67 -260l-86 -277h301l-84 279q-39 129 -57 235l-2 23h-5z" />
    <glyph glyph-name="Acircumflex.sc" horiz-adv-x="1441" 
d="M877 1798l229 -368h-256l-129 131h-2l-123 -131h-240l230 368h291zM1008 0l-74 219h-469l-76 -219h-379l490 1319h440l492 -1319h-424zM702 1010q0 -39 -67 -260l-86 -277h301l-84 279q-39 129 -57 235l-2 23h-5z" />
    <glyph glyph-name="Adieresis.sc" horiz-adv-x="1441" 
d="M338 1477v321h328v-321h-328zM778 1477v321h328v-321h-328zM1008 0l-74 219h-469l-76 -219h-379l490 1319h440l492 -1319h-424zM702 1010q0 -39 -67 -260l-86 -277h301l-84 279q-39 129 -57 235l-2 23h-5z" />
    <glyph glyph-name="Agrave.sc" horiz-adv-x="1441" 
d="M791 1798l100 -368h-307l-181 368h388zM1008 0l-74 219h-469l-76 -219h-379l490 1319h440l492 -1319h-424zM702 1010q0 -39 -67 -260l-86 -277h301l-84 279q-39 129 -57 235l-2 23h-5z" />
    <glyph glyph-name="Amacron.sc" horiz-adv-x="1441" 
d="M344 1477v245h756v-245h-756zM1008 0l-74 219h-469l-76 -219h-379l490 1319h440l492 -1319h-424zM702 1010q0 -39 -67 -260l-86 -277h301l-84 279q-39 129 -57 235l-2 23h-5z" />
    <glyph glyph-name="Aogonek.sc" horiz-adv-x="1441" 
d="M702 1010q0 -39 -67 -260l-86 -277h301l-84 279q-39 129 -57 235l-2 23h-5zM1432 -385h-72q-172 0 -240 48t-67 134q0 119 147 203h-192l-74 219h-469l-76 -219h-379l490 1319h440l487 -1311q-88 -63 -88 -117q0 -63 93 -63v-213z" />
    <glyph glyph-name="Aring.sc" horiz-adv-x="1441" 
d="M721 1784q-51 0 -80 -34t-29 -90t30 -90t80 -34t79 34t29 90t-29 90t-80 34zM719 1393q-133 -1 -212 73t-79 194t82 196t216 75q134 1 212 -73t78 -196t-82 -196t-215 -73zM1008 0l-74 219h-469l-76 -219h-379l490 1319h440l492 -1319h-424zM702 1010q0 -39 -67 -260
l-86 -277h301l-84 279q-39 129 -57 235l-2 23h-5z" />
    <glyph glyph-name="uni01FA.sc" horiz-adv-x="1441" 
d="M563 2013l135 273h383l-221 -273h-297zM721 1784q-51 0 -80 -34t-29 -90t30 -90t80 -34t79 34t29 90t-29 90t-80 34zM719 1393q-133 -1 -212 73t-79 194t82 196t216 75q134 1 212 -73t78 -196t-82 -196t-215 -73zM1008 0l-74 219h-469l-76 -219h-379l490 1319h440
l492 -1319h-424zM702 1010q0 -39 -67 -260l-86 -277h301l-84 279q-39 129 -57 235l-2 23h-5z" />
    <glyph glyph-name="Atilde.sc" horiz-adv-x="1441" 
d="M319 1430q0 369 256 368q68 0 155 -46t126 -46q76 0 107 92h161q0 -369 -256 -368q-68 0 -154 46t-126 46q-76 0 -103 -92h-166zM1008 0l-74 219h-469l-76 -219h-379l490 1319h440l492 -1319h-424zM702 1010q0 -39 -67 -260l-86 -277h301l-84 279q-39 129 -57 235l-2 23
h-5z" />
    <glyph glyph-name="Cacute.sc" horiz-adv-x="1427" 
d="M594 1430l100 368h387l-180 -368h-307zM750 1073q-100 0 -162 -101t-62 -317q0 -416 215 -415q174 0 189 233h409q-7 -244 -165 -373t-429 -129q-335 0 -491 175t-156 495t171 508t483 188q578 0 589 -503h-411q-8 239 -180 239z" />
    <glyph glyph-name="Ccaron.sc" horiz-adv-x="1427" 
d="M586 1430l-230 368h256l129 -131h2l123 131h240l-229 -368h-291zM750 1073q-100 0 -162 -101t-62 -317q0 -416 215 -415q174 0 189 233h409q-7 -244 -165 -373t-429 -129q-335 0 -491 175t-156 495t171 508t483 188q578 0 589 -503h-411q-8 239 -180 239z" />
    <glyph glyph-name="Ccedilla.sc" horiz-adv-x="1427" 
d="M759 -496q-120 0 -185 52t-68 122h180q18 -41 66 -40q66 0 65 59q0 59 -65 59q-37 0 -58 -26h-143l106 245q-559 43 -559 656q0 330 171 518t483 188q578 0 589 -503h-411q-8 240 -180 239q-100 0 -162 -101t-62 -317q0 -416 215 -415q174 0 189 233h409
q-9 -238 -159 -367t-408 -135l-37 -84h4q27 19 97 19t123 -53q55 -53 55 -141t-68 -148t-187 -60z" />
    <glyph glyph-name="Ccircumflex.sc" horiz-adv-x="1427" 
d="M899 1798l229 -368h-256l-129 131h-2l-123 -131h-239l229 368h291zM750 1073q-100 0 -162 -101t-62 -317q0 -416 215 -415q174 0 189 233h409q-7 -244 -165 -373t-429 -129q-335 0 -491 175t-156 495t171 508t483 188q578 0 589 -503h-411q-8 239 -180 239z" />
    <glyph glyph-name="Cdotaccent.sc" horiz-adv-x="1427" 
d="M580 1477v321h327v-321h-327zM750 1073q-100 0 -162 -101t-62 -317q0 -416 215 -415q174 0 189 233h409q-7 -244 -165 -373t-429 -129q-335 0 -491 175t-156 495t171 508t483 188q578 0 589 -503h-411q-8 239 -180 239z" />
    <glyph glyph-name="Dcaron.sc" horiz-adv-x="1454" 
d="M539 1430l-230 368h256l129 -131h2l123 131h240l-230 -368h-290zM532 266h113q139 0 215 92t76 312q0 387 -285 387h-119v-791zM131 0v1319h524q331 0 519 -162q188 -163 188 -485t-194 -497t-517 -175h-520z" />
    <glyph glyph-name="Eacute.sc" horiz-adv-x="1196" 
d="M463 1430l100 368h387l-180 -368h-307zM131 0v1319h940v-268h-539v-263h521v-262h-521v-262h562v-264h-963z" />
    <glyph glyph-name="Ecaron.sc" horiz-adv-x="1196" 
d="M455 1430l-230 368h256l129 -131h2l123 131h240l-230 -368h-290zM131 0v1319h940v-268h-539v-263h521v-262h-521v-262h562v-264h-963z" />
    <glyph glyph-name="Ecircumflex.sc" horiz-adv-x="1196" 
d="M768 1798l229 -368h-256l-129 131h-2l-123 -131h-239l229 368h291zM131 0v1319h940v-268h-539v-263h521v-262h-521v-262h562v-264h-963z" />
    <glyph glyph-name="Edieresis.sc" horiz-adv-x="1196" 
d="M229 1477v321h328v-321h-328zM670 1477v321h327v-321h-327zM131 0v1319h940v-268h-539v-263h521v-262h-521v-262h562v-264h-963z" />
    <glyph glyph-name="Edotaccent.sc" horiz-adv-x="1196" 
d="M449 1477v321h327v-321h-327zM131 0v1319h940v-268h-539v-263h521v-262h-521v-262h562v-264h-963z" />
    <glyph glyph-name="Egrave.sc" horiz-adv-x="1196" 
d="M682 1798l100 -368h-307l-180 368h387zM131 0v1319h940v-268h-539v-263h521v-262h-521v-262h562v-264h-963z" />
    <glyph glyph-name="Emacron.sc" horiz-adv-x="1196" 
d="M236 1477v245h755v-245h-755zM131 0v1319h940v-268h-539v-263h521v-262h-521v-262h562v-264h-963z" />
    <glyph glyph-name="Eogonek.sc" horiz-adv-x="1196" 
d="M1090 -172v-213h-72q-172 0 -240 48t-67 134q0 133 168 203h-748v1319h940v-268h-539v-263h521v-262h-521v-262h562l-2 -264q-92 -57 -93 -113q1 -59 91 -59z" />
    <glyph glyph-name="Gbreve.sc" horiz-adv-x="1486" 
d="M731 1419q-160 0 -259 94t-99 285h254q-1 -61 29 -94t81 -33t81 33t30 94h244q0 -190 -100 -284t-261 -95zM768 1079q-250 0 -250 -424t250 -424q216 0 240 244h-248v248h604v-723h-285v170h-6q-109 -197 -371 -197q-311 1 -457 181q-147 180 -147 488t180 502t492 193
q559 0 590 -452h-404q-10 92 -58 143t-130 51z" />
    <glyph glyph-name="Gcircumflex.sc" horiz-adv-x="1486" 
d="M887 1798l229 -368h-256l-129 131h-2l-123 -131h-239l229 368h291zM768 1079q-250 0 -250 -424t250 -424q216 0 240 244h-248v248h604v-723h-285v170h-6q-109 -197 -371 -197q-311 1 -457 181q-147 180 -147 488t180 502t492 193q559 0 590 -452h-404q-10 92 -58 143
t-130 51z" />
    <glyph glyph-name="Gcommaaccent.sc" horiz-adv-x="1486" 
d="M489 -467l54 340h379l-162 -340h-271zM768 1079q-250 0 -250 -424t250 -424q216 0 240 244h-248v248h604v-723h-285v170h-6q-109 -197 -371 -197q-311 1 -457 181q-147 180 -147 488t180 502t492 193q559 0 590 -452h-404q-10 92 -58 143t-130 51z" />
    <glyph glyph-name="Gdotaccent.sc" horiz-adv-x="1486" 
d="M567 1477v321h328v-321h-328zM768 1079q-250 0 -250 -424t250 -424q216 0 240 244h-248v248h604v-723h-285v170h-6q-109 -197 -371 -197q-311 1 -457 181q-147 180 -147 488t180 502t492 193q559 0 590 -452h-404q-10 92 -58 143t-130 51z" />
    <glyph glyph-name="Hcircumflex.sc" horiz-adv-x="1470" 
d="M891 1798l229 -368h-256l-129 131h-2l-123 -131h-239l229 368h291zM532 512v-512h-401v1319h401v-524h404v524h403v-1319h-403v512h-404z" />
    <glyph glyph-name="Iacute.sc" horiz-adv-x="663" 
d="M182 1430l101 368h387l-181 -368h-307zM131 0v1319h401v-1319h-401z" />
    <glyph glyph-name="questiondown.uc" horiz-adv-x="1271" 
d="M428 1567h422v-348h-422v348zM457 389q0 -147 170 -147q199 0 200 252h387q2 -252 -152 -405t-442 -153q-290 0 -424 118t-135 321q0 127 49 215q48 88 158 178l172 141q29 23 29 74v80h342v-131q0 -96 -17 -139t-94 -105l-125 -100q-45 -42 -64 -60t-37 -56t-17 -83z
" />
    <glyph glyph-name="Icircumflex.sc" horiz-adv-x="663" 
d="M487 1798l230 -368h-256l-129 131h-2l-123 -131h-240l230 368h290zM131 0v1319h401v-1319h-401z" />
    <glyph glyph-name="Idieresis.sc" horiz-adv-x="663" 
d="M-51 1477v321h327v-321h-327zM389 1477v321h328v-321h-328zM131 0v1319h401v-1319h-401z" />
    <glyph glyph-name="Igrave.sc" horiz-adv-x="663" 
d="M401 1798l101 -368h-307l-181 368h387zM131 0v1319h401v-1319h-401z" />
    <glyph glyph-name="Imacron.sc" horiz-adv-x="663" 
d="M-45 1477v245h756v-245h-756zM131 0v1319h401v-1319h-401z" />
    <glyph glyph-name="Iogonek.sc" horiz-adv-x="663" 
d="M535 -385h-72q-172 0 -240 48t-67 134q0 133 168 203h-193v1319h401v-1319q-88 -60 -88 -116t91 -56v-213z" />
    <glyph glyph-name="Itilde.sc" horiz-adv-x="663" 
d="M-70 1430q0 369 256 368q68 0 155 -46t126 -46q76 0 106 92h162q0 -369 -256 -368q-69 0 -155 46t-125 46q-76 0 -103 -92h-166zM131 0v1319h401v-1319h-401z" />
    <glyph glyph-name="Jcircumflex.sc" horiz-adv-x="878" 
d="M721 1798l229 -368h-256l-129 131h-2l-123 -131h-239l229 368h291zM225 -6h-143v289h80q127 0 166 52t39 165v819h395v-868q0 -254 -136 -356q-137 -101 -401 -101z" />
    <glyph glyph-name="Kcommaaccent.sc" horiz-adv-x="1409" 
d="M510 -467l53 340h379l-162 -340h-270zM532 0h-401v1319h401v-526l426 526h404l-461 -559l471 -760h-448l-291 489l-101 -118v-371z" />
    <glyph glyph-name="Lacute.sc" horiz-adv-x="1163" 
d="M186 1430l101 368h387l-180 -368h-308zM131 0v1319h401v-1032h508v-287h-909z" />
    <glyph glyph-name="Lcaron.sc" horiz-adv-x="1163" 
d="M684 909v410h299l-123 -410h-176zM131 0v1319h401v-1032h508v-287h-909z" />
    <glyph glyph-name="Lcommaaccent.sc" horiz-adv-x="1163" 
d="M344 -467l53 340h379l-162 -340h-270zM131 0v1319h401v-1032h508v-287h-909z" />
    <glyph glyph-name="Nacute.sc" horiz-adv-x="1460" 
d="M580 1430l100 368h387l-180 -368h-307zM131 0v1319h416l297 -522q83 -133 110 -213l13 -29h4v764h358v-1319h-389l-317 545q-84 125 -119 221l-15 33h-6v-799h-352z" />
    <glyph glyph-name="Ncaron.sc" horiz-adv-x="1460" 
d="M571 1430l-229 368h256l129 -131h2l123 131h240l-230 -368h-291zM131 0v1319h416l297 -522q83 -133 110 -213l13 -29h4v764h358v-1319h-389l-317 545q-84 125 -119 221l-15 33h-6v-799h-352z" />
    <glyph glyph-name="Ncommaaccent.sc" horiz-adv-x="1460" 
d="M487 -467l54 340h379l-162 -340h-271zM131 0v1319h416l297 -522q83 -133 110 -213l13 -29h4v764h358v-1319h-389l-317 545q-84 125 -119 221l-15 33h-6v-799h-352z" />
    <glyph glyph-name="Ntilde.sc" horiz-adv-x="1460" 
d="M328 1430q0 369 256 368q68 0 154 -46t126 -46q76 0 107 92h162q0 -369 -256 -368q-68 0 -155 46t-126 46q-76 0 -102 -92h-166zM131 0v1319h416l297 -522q83 -133 110 -213l13 -29h4v764h358v-1319h-389l-317 545q-84 125 -119 221l-15 33h-6v-799h-352z" />
    <glyph glyph-name="Oacute.sc" horiz-adv-x="1527" 
d="M614 1430l101 368h387l-180 -368h-308zM760 236q127 0 184 103t57 312t-65 319q-66 110 -182 110t-170 -105q-56 -103 -56 -321t52 -318t180 -100zM1430 660q0 -318 -174 -502t-502 -184q-330 0 -493 178t-163 496t174 504t499 185q325 0 492 -180q167 -179 167 -497z
" />
    <glyph glyph-name="Obreve.sc" horiz-adv-x="1527" 
d="M764 1419q-160 0 -259 94t-99 285h253q0 -61 30 -94t81 -33t81 33t30 94h243q0 -190 -100 -284t-260 -95zM760 236q127 0 184 103t57 312t-65 319q-66 110 -182 110t-170 -105q-56 -103 -56 -321t52 -318t180 -100zM1430 660q0 -318 -174 -502t-502 -184q-330 0 -493 178
t-163 496t174 504t499 185q325 0 492 -180q167 -179 167 -497z" />
    <glyph glyph-name="Ocircumflex.sc" horiz-adv-x="1527" 
d="M920 1798l229 -368h-256l-129 131h-2l-123 -131h-240l230 368h291zM760 236q127 0 184 103t57 312t-65 319q-66 110 -182 110t-170 -105q-56 -103 -56 -321t52 -318t180 -100zM1430 660q0 -318 -174 -502t-502 -184q-330 0 -493 178t-163 496t174 504t499 185
q325 0 492 -180q167 -179 167 -497z" />
    <glyph glyph-name="Odieresis.sc" horiz-adv-x="1527" 
d="M381 1477v321h328v-321h-328zM821 1477v321h328v-321h-328zM760 236q127 0 184 103t57 312t-65 319q-66 110 -182 110t-170 -105q-56 -103 -56 -321t52 -318t180 -100zM1430 660q0 -318 -174 -502t-502 -184q-330 0 -493 178t-163 496t174 504t499 185q325 0 492 -180
q167 -179 167 -497z" />
    <glyph glyph-name="Ograve.sc" horiz-adv-x="1527" 
d="M834 1798l100 -368h-307l-181 368h388zM760 236q127 0 184 103t57 312t-65 319q-66 110 -182 110t-170 -105q-56 -103 -56 -321t52 -318t180 -100zM1430 660q0 -318 -174 -502t-502 -184q-330 0 -493 178t-163 496t174 504t499 185q325 0 492 -180q167 -179 167 -497z
" />
    <glyph glyph-name="Ohungarumlaut.sc" horiz-adv-x="1527" 
d="M455 1430l63 368h301l-133 -368h-231zM815 1430l105 368h301l-174 -368h-232zM760 236q127 0 184 103t57 312t-65 319q-66 110 -182 110t-170 -105q-56 -103 -56 -321t52 -318t180 -100zM1430 660q0 -318 -174 -502t-502 -184q-330 0 -493 178t-163 496t174 504t499 185
q325 0 492 -180q167 -179 167 -497z" />
    <glyph glyph-name="Omacron.sc" horiz-adv-x="1527" 
d="M387 1477v245h756v-245h-756zM760 236q127 0 184 103t57 312t-65 319q-66 110 -182 110t-170 -105q-56 -103 -56 -321t52 -318t180 -100zM1430 660q0 -318 -174 -502t-502 -184q-330 0 -493 178t-163 496t174 504t499 185q325 0 492 -180q167 -179 167 -497z" />
    <glyph glyph-name="Oslashacute.sc" horiz-adv-x="1527" 
d="M616 1430l101 368h387l-180 -368h-308zM1430 651q0 -309 -174 -493t-492 -185q-231 0 -391 97l-97 -113h-215l187 221q-150 174 -150 481t174 493t492 185q231 0 387 -96l106 127h216l-197 -233q154 -175 154 -484zM764 227q131 -1 193 105t63 323q0 92 -12 166
l-433 -512q58 -82 189 -82zM757 1087q-247 0 -247 -432q0 -100 8 -159l426 501q-63 90 -187 90z" />
    <glyph glyph-name="Otilde.sc" horiz-adv-x="1527" 
d="M362 1430q0 369 256 368q68 0 155 -46t126 -46q76 0 107 92h161q0 -369 -256 -368q-69 0 -155 46t-125 46q-76 0 -103 -92h-166zM760 236q127 0 184 103t57 312t-65 319q-66 110 -182 110t-170 -105q-56 -103 -56 -321t52 -318t180 -100zM1430 660q0 -318 -174 -502
t-502 -184q-330 0 -493 178t-163 496t174 504t499 185q325 0 492 -180q167 -179 167 -497z" />
    <glyph glyph-name="Racute.sc" horiz-adv-x="1380" 
d="M500 1430l100 368h387l-180 -368h-307zM532 481v-481h-401v1319h576q163 0 277 -32t201 -127t87 -240q0 -260 -252 -361v-4l307 -555h-420l-245 481h-130zM532 711h121q88 0 149 43q60 43 60 136t-59 139t-146 46h-125v-364z" />
    <glyph glyph-name="Rcaron.sc" horiz-adv-x="1380" 
d="M492 1430l-230 368h256l129 -131h2l123 131h240l-230 -368h-290zM532 481v-481h-401v1319h576q163 0 277 -32t201 -127t87 -240q0 -260 -252 -361v-4l307 -555h-420l-245 481h-130zM532 711h121q88 0 149 43q60 43 60 136t-59 139t-146 46h-125v-364z" />
    <glyph glyph-name="Rcommaaccent.sc" horiz-adv-x="1359" 
d="M469 -426l53 340h379l-162 -340h-270zM532 481v-481h-401v1319h576q163 0 277 -32t201 -127t87 -240q0 -260 -252 -361v-4l307 -555h-420l-245 481h-130zM532 711h121q88 0 149 43q60 43 60 136t-59 139t-146 46h-125v-364z" />
    <glyph glyph-name="Sacute.sc" horiz-adv-x="1282" 
d="M487 1430l101 368h387l-180 -368h-308zM637 1079q-63 1 -103 -29t-40 -83q0 -96 139 -121l227 -41q166 -29 257 -126t91 -247q0 -227 -160 -344t-420 -117q-261 0 -412 108t-150 304h397q2 -72 51 -112t130 -40t124 35t43 92q0 100 -149 127l-228 41q-143 25 -238 124
q-96 99 -96 273q0 175 142 295t406 120q265 0 387 -100q122 -98 134 -280h-395q-2 51 -38 86t-99 35z" />
    <glyph glyph-name="Scaron.sc" horiz-adv-x="1282" 
d="M479 1430l-229 368h256l129 -131h2l123 131h239l-229 -368h-291zM637 1079q-63 1 -103 -29t-40 -83q0 -96 139 -121l227 -41q166 -29 257 -126t91 -247q0 -227 -160 -344t-420 -117q-261 0 -412 108t-150 304h397q2 -72 51 -112t130 -40t124 35t43 92q0 100 -149 127
l-228 41q-143 25 -238 124q-96 99 -96 273q0 175 142 295t406 120q265 0 387 -100q122 -98 134 -280h-395q-2 51 -38 86t-99 35z" />
    <glyph glyph-name="Scedilla.sc" horiz-adv-x="1282" 
d="M907 -288q1 -88 -67 -148t-188 -60t-184 52t-69 122h181q18 -41 65 -40q66 0 66 59t-66 59q-37 0 -57 -26h-144l107 243q-227 15 -356 121t-129 289h397q2 -72 51 -112t130 -40t124 35t43 92q0 100 -149 127l-228 41q-143 25 -238 124q-96 99 -96 273q0 175 142 295
t406 120q265 0 387 -99q122 -98 134 -281h-395q-2 51 -38 86t-99 35q-63 1 -103 -29t-40 -83q0 -96 139 -121l227 -41q166 -29 257 -126t91 -247q0 -217 -148 -334t-394 -127l-37 -84h4q27 19 97 19t123 -53q54 -53 54 -141z" />
    <glyph glyph-name="Scircumflex.sc" horiz-adv-x="1282" 
d="M793 1798l229 -368h-256l-129 131h-2l-123 -131h-240l230 368h291zM637 1079q-63 1 -103 -29t-40 -83q0 -96 139 -121l227 -41q166 -29 257 -126t91 -247q0 -227 -160 -344t-420 -117q-261 0 -412 108t-150 304h397q2 -72 51 -112t130 -40t124 35t43 92q0 100 -149 127
l-228 41q-143 25 -238 124q-96 99 -96 273q0 175 142 295t406 120q265 0 387 -100q122 -98 134 -280h-395q-2 51 -38 86t-99 35z" />
    <glyph glyph-name="Scommaaccent.sc" horiz-adv-x="1282" 
d="M395 -467l54 340h378l-161 -340h-271zM637 1079q-63 1 -103 -29t-40 -83q0 -96 139 -121l227 -41q166 -29 257 -126t91 -247q0 -227 -160 -344t-420 -117q-261 0 -412 108t-150 304h397q2 -72 51 -112t130 -40t124 35t43 92q0 100 -149 127l-228 41q-143 25 -238 124
q-96 99 -96 273q0 175 142 295t406 120q265 0 387 -100q122 -98 134 -280h-395q-2 51 -38 86t-99 35z" />
    <glyph glyph-name="Tcaron.sc" horiz-adv-x="1204" 
d="M444 1430l-229 368h256l129 -131h2l123 131h240l-230 -368h-291zM1155 1319v-293h-352v-1026h-402v1026h-352v293h1106z" />
    <glyph glyph-name="Tcommaaccent.sc" horiz-adv-x="1204" 
d="M360 -467l54 340h379l-162 -340h-271zM1155 1319v-293h-352v-1026h-402v1026h-352v293h1106z" />
    <glyph glyph-name="Uacute.sc" horiz-adv-x="1411" 
d="M555 1430l100 368h387l-180 -368h-307zM123 477v842h397v-827q0 -106 35 -160q43 -70 157 -70t154 74q33 57 33 156v827h389v-842q0 -248 -154 -377t-430 -129q-278 0 -430 125q-151 125 -151 381z" />
    <glyph glyph-name="Ubreve.sc" horiz-adv-x="1411" 
d="M705 1419q-160 0 -260 94q-99 94 -99 285h254q0 -61 30 -94t81 -33t81 33t29 94h244q0 -190 -100 -284t-260 -95zM123 477v842h397v-827q0 -106 35 -160q43 -70 157 -70t154 74q33 57 33 156v827h389v-842q0 -248 -154 -377t-430 -129q-278 0 -430 125q-151 125 -151 381
z" />
    <glyph glyph-name="Ucircumflex.sc" horiz-adv-x="1411" 
d="M860 1798l230 -368h-256l-129 131h-3l-122 -131h-240l229 368h291zM123 477v842h397v-827q0 -106 35 -160q43 -70 157 -70t154 74q33 57 33 156v827h389v-842q0 -248 -154 -377t-430 -129q-278 0 -430 125q-151 125 -151 381z" />
    <glyph glyph-name="Udieresis.sc" horiz-adv-x="1411" 
d="M322 1477v321h327v-321h-327zM762 1477v321h328v-321h-328zM123 477v842h397v-827q0 -106 35 -160q43 -70 157 -70t154 74q33 57 33 156v827h389v-842q0 -248 -154 -377t-430 -129q-278 0 -430 125q-151 125 -151 381z" />
    <glyph glyph-name="Ugrave.sc" horiz-adv-x="1411" 
d="M774 1798l100 -368h-307l-180 368h387zM123 477v842h397v-827q0 -106 35 -160q43 -70 157 -70t154 74q33 57 33 156v827h389v-842q0 -248 -154 -377t-430 -129q-278 0 -430 125q-151 125 -151 381z" />
    <glyph glyph-name="Uhungarumlaut.sc" horiz-adv-x="1411" 
d="M395 1430l64 368h301l-133 -368h-232zM756 1430l104 368h301l-174 -368h-231zM123 477v842h397v-827q0 -106 35 -160q43 -70 157 -70t154 74q33 57 33 156v827h389v-842q0 -248 -154 -377t-430 -129q-278 0 -430 125q-151 125 -151 381z" />
    <glyph glyph-name="Umacron.sc" horiz-adv-x="1411" 
d="M328 1477v245h755v-245h-755zM123 477v842h397v-827q0 -106 35 -160q43 -70 157 -70t154 74q33 57 33 156v827h389v-842q0 -248 -154 -377t-430 -129q-278 0 -430 125q-151 125 -151 381z" />
    <glyph glyph-name="Uogonek.sc" horiz-adv-x="1411" 
d="M123 477v842h397v-827q0 -106 35 -160q43 -70 157 -70t154 74q33 57 33 156v827h389v-842q0 -209 -102 -325t-268 -156q-106 -27 -145 -57q-38 -31 -38 -74q0 -59 92 -60v-213h-71q-172 0 -240 48t-67 135q0 131 163 198v2q-489 43 -489 502z" />
    <glyph glyph-name="Uring.sc" horiz-adv-x="1411" 
d="M705 1784q-51 0 -80 -34t-29 -90t30 -90t80 -34t78 34t29 90q-1 56 -29 90t-79 34zM703 1393q-133 0 -213 73q-78 74 -78 194t82 196t216 75q134 1 212 -73t78 -196t-82 -196q-82 -73 -215 -73zM123 477v842h397v-827q0 -106 35 -160q43 -70 157 -70t154 74q33 57 33 156
v827h389v-842q0 -248 -154 -377t-430 -129q-278 0 -430 125q-151 125 -151 381z" />
    <glyph glyph-name="Utilde.sc" horiz-adv-x="1411" 
d="M303 1430q0 369 256 368q68 0 155 -46t126 -46q76 0 106 92h162q0 -369 -256 -368q-68 0 -155 46t-126 46q-76 0 -102 -92h-166zM123 477v842h397v-827q0 -106 35 -160q43 -70 157 -70t154 74q33 57 33 156v827h389v-842q0 -248 -154 -377t-430 -129q-278 0 -430 125
q-151 125 -151 381z" />
    <glyph glyph-name="Wacute.sc" horiz-adv-x="1890" 
d="M823 1430l101 368h387l-181 -368h-307zM737 0h-387l-334 1319h418l115 -580q12 -57 20 -125t13 -106l2 -37h4q12 119 49 250l164 598h340l166 -598q19 -69 49 -217l4 -33h4q12 133 37 264l110 584h363l-332 -1319h-373l-172 639q-30 109 -39 213l-4 31h-4
q-8 -113 -43 -244z" />
    <glyph glyph-name="Wcircumflex.sc" horiz-adv-x="1890" 
d="M1100 1798l229 -368h-256l-129 131h-2l-123 -131h-239l229 368h291zM737 0h-387l-334 1319h418l115 -580q12 -57 20 -125t13 -106l2 -37h4q12 119 49 250l164 598h340l166 -598q19 -69 49 -217l4 -33h4q12 133 37 264l110 584h363l-332 -1319h-373l-172 639
q-30 109 -39 213l-4 31h-4q-8 -113 -43 -244z" />
    <glyph glyph-name="Wdieresis.sc" horiz-adv-x="1890" 
d="M561 1477v321h328v-321h-328zM1001 1477v321h328v-321h-328zM737 0h-387l-334 1319h418l115 -580q12 -57 20 -125t13 -106l2 -37h4q12 119 49 250l164 598h340l166 -598q19 -69 49 -217l4 -33h4q12 133 37 264l110 584h363l-332 -1319h-373l-172 639q-30 109 -39 213
l-4 31h-4q-8 -113 -43 -244z" />
    <glyph glyph-name="Wgrave.sc" horiz-adv-x="1890" 
d="M1014 1798l100 -368h-307l-180 368h387zM737 0h-387l-334 1319h418l115 -580q12 -57 20 -125t13 -106l2 -37h4q12 119 49 250l164 598h340l166 -598q19 -69 49 -217l4 -33h4q12 133 37 264l110 584h363l-332 -1319h-373l-172 639q-30 109 -39 213l-4 31h-4
q-8 -113 -43 -244z" />
    <glyph glyph-name="Yacute.sc" horiz-adv-x="1275" 
d="M487 1430l101 368h387l-180 -368h-308zM438 0v557l-430 762h424l223 -465h4l213 465h396l-428 -760v-559h-402z" />
    <glyph glyph-name="Ycircumflex.sc" horiz-adv-x="1275" 
d="M793 1798l229 -368h-256l-129 131h-2l-123 -131h-240l230 368h291zM438 0v557l-430 762h424l223 -465h4l213 465h396l-428 -760v-559h-402z" />
    <glyph glyph-name="Ydieresis.sc" horiz-adv-x="1275" 
d="M254 1477v321h328v-321h-328zM694 1477v321h328v-321h-328zM438 0v557l-430 762h424l223 -465h4l213 465h396l-428 -760v-559h-402z" />
    <glyph glyph-name="Ygrave.sc" horiz-adv-x="1275" 
d="M707 1798l100 -368h-307l-181 368h388zM438 0v557l-430 762h424l223 -465h4l213 465h396l-428 -760v-559h-402z" />
    <glyph glyph-name="Zacute.sc" horiz-adv-x="1230" 
d="M461 1430l100 368h387l-180 -368h-307zM111 1038v281h1028v-250l-598 -786h604v-283h-1067v250l598 788h-565z" />
    <glyph glyph-name="Zcaron.sc" horiz-adv-x="1230" 
d="M453 1430l-230 368h256l129 -131h2l123 131h240l-230 -368h-290zM111 1038v281h1028v-250l-598 -786h604v-283h-1067v250l598 788h-565z" />
    <glyph glyph-name="Zdotaccent.sc" horiz-adv-x="1230" 
d="M446 1477v321h328v-321h-328zM111 1038v281h1028v-250l-598 -786h604v-283h-1067v250l598 788h-565z" />
    <glyph glyph-name="Ldot.sc" horiz-adv-x="1163" 
d="M131 0v1319h401v-1032h508v-287h-909zM760 625v299h307v-299h-307z" />
    <glyph glyph-name="napostrophe.sc" horiz-adv-x="1460" 
d="M131 0v1319h416l297 -522q83 -133 110 -213l13 -29h4v764h358v-1319h-389l-317 545q-84 125 -119 221l-15 33h-6v-799h-352z" />
    <glyph glyph-name="Hbar.sc" horiz-adv-x="1470" 
d="M532 512v-512h-401v965h-119v196h119v158h401v-158h404v158h403v-158h121v-196h-121v-965h-403v512h-404zM936 791v174h-404v-174h404z" />
    <glyph glyph-name="Idotaccent.sc" horiz-adv-x="663" 
d="M166 1477v321h328v-321h-328zM131 0v1319h401v-1319h-401z" />
    <glyph glyph-name="Ebreve.sc" horiz-adv-x="1196" 
d="M598 1419q-160 0 -259 94t-99 285h254q0 -61 30 -94t80 -33q51 0 81 33t30 94h243q0 -190 -100 -284t-260 -95zM131 0v1319h940v-268h-539v-263h521v-262h-521v-262h562v-264h-963z" />
    <glyph glyph-name="yen.tab" 
d="M418 0v266h-363v164h363v154h-367v164h361l-402 770h439l182 -433h4l182 433h402l-402 -770h361v-164h-365v-154h369v-164h-369v-266h-395z" />
    <glyph glyph-name="eight.den" horiz-adv-x="917" 
d="M458 147q54 0 89 32t35 87t-33 85t-90 30q-125 0 -125 -117q0 -53 35 -85t89 -32zM459 733q-102 0 -103 -100q0 -49 28 -76t75 -27t75 27t27 76q0 100 -102 100zM92 653q0 115 93 180t273 65t273 -67q92 -67 92 -191t-131 -177v-4q168 -45 168 -205q0 -123 -104 -198
t-297 -74q-401 0 -402 272q0 154 166 205v4q-131 49 -131 190z" />
    <glyph glyph-name="five.den" horiz-adv-x="913" 
d="M565 287q0 49 -30 81q-31 32 -89 32t-102 -52h-246l39 535h639v-207h-428l-16 -199h4q66 101 208 101t218 -71t76 -207t-96 -227t-293 -91q-365 0 -381 282h278q2 -40 33 -64t78 -24t78 31q30 31 30 80z" />
    <glyph glyph-name="four.den" horiz-adv-x="954" 
d="M897 174h-113v-174h-256v174h-471v180l394 529h333v-508h113v-201zM537 360v361h-7q-27 -78 -77 -150l-152 -211h236z" />
    <glyph glyph-name="nine.den" horiz-adv-x="954" 
d="M596 387h-6q-58 -90 -200 -90t-228 71t-86 207t103 227t297 91t302 -116q108 -115 109 -331q0 -216 -119 -340t-328 -124q-164 0 -261 70t-101 173l282 2q16 -68 97 -67q139 0 139 227zM466 711q-46 0 -83 -31t-37 -91t35 -93t86 -33t84 32t33 92t-36 92t-82 32z" />
    <glyph glyph-name="one.den" horiz-adv-x="649" 
d="M240 0v549h-197v186h31q86 0 137 33t51 115h260v-883h-282z" />
    <glyph glyph-name="seven.den" horiz-adv-x="829" 
d="M59 676v207h723v-144l-366 -739h-295l334 676h-396z" />
    <glyph glyph-name="six.den" horiz-adv-x="958" 
d="M379 295q0 -65 35 -99t85 -34t85 34q34 34 34 97t-32 98q-33 35 -86 35q-121 0 -121 -131zM887 308q-1 -136 -101 -231t-294 -95t-306 110q-110 110 -110 334q0 223 120 345t304 122q184 -1 266 -63t98 -173h-272q-14 57 -86 58q-133 0 -144 -228h5q80 105 219 105
t220 -74t81 -210z" />
    <glyph glyph-name="three.den" horiz-adv-x="921" 
d="M459 369h-113v157h86q47 0 78 24t31 68t-27 67q-27 24 -72 24q-44 0 -68 -28t-26 -63h-272q8 115 97 199t277 84q188 -1 280 -69q93 -68 93 -170q0 -164 -182 -199v-4q205 -31 205 -209q0 -113 -102 -191q-102 -77 -296 -77t-284 80t-92 202h280q2 -42 30 -64t77 -22
t78 28t29 70t-29 67q-29 26 -78 26z" />
    <glyph glyph-name="two.den" horiz-adv-x="909" 
d="M458 897q190 0 281 -73q92 -73 92 -181t-51 -177t-166 -157l-131 -100v-6h351v-203h-773v137l377 318q63 53 86 86t23 73q0 90 -86 91q-119 -1 -121 -144h-270q4 158 101 247t287 89z" />
    <glyph glyph-name="zero.den" horiz-adv-x="1009" 
d="M502 180q119 0 119 262t-119 263q-117 0 -117 -265q0 -156 30 -208t87 -52zM76 436q0 227 114 345q115 118 312 118q432 0 432 -463q0 -227 -113 -343t-319 -116q-426 0 -426 459z" />
    <glyph glyph-name="zero.num" horiz-adv-x="1009" 
d="M502 864q119 0 119 262t-119 263q-117 0 -117 -265q0 -156 30 -208t87 -52zM76 1120q0 227 114 345q115 118 312 118q432 0 432 -463q0 -227 -113 -343t-319 -115q-426 -1 -426 458z" />
    <glyph glyph-name="one.num" horiz-adv-x="649" 
d="M240 684v549h-197v186h31q86 0 137 33t51 115h260v-883h-282z" />
    <glyph glyph-name="two.num" horiz-adv-x="909" 
d="M458 1581q190 0 281 -73q92 -73 92 -181t-51 -177t-166 -157l-131 -100v-6h351v-203h-773v137l377 318q63 53 86 86t23 73q0 90 -86 91q-119 -1 -121 -144h-270q4 158 101 247t287 89z" />
    <glyph glyph-name="three.num" horiz-adv-x="921" 
d="M459 1053h-113v157h86q47 0 78 24t31 68t-27 68t-72 23q-44 0 -68 -28t-26 -62h-272q8 115 97 199t277 83t280 -69q93 -68 93 -170q0 -164 -182 -199v-4q205 -31 205 -209q0 -113 -102 -191q-102 -77 -296 -77t-284 80t-92 202h280q2 -42 30 -64t77 -22t78 28t29 70
t-30 68q-28 26 -77 25z" />
    <glyph glyph-name="four.num" horiz-adv-x="954" 
d="M897 858h-113v-174h-256v174h-471v180l394 529h333v-508h113v-201zM537 1044v361h-7q-27 -78 -77 -150l-152 -211h236z" />
    <glyph glyph-name="five.num" horiz-adv-x="913" 
d="M565 971q0 49 -30 81q-31 32 -89 32t-102 -52h-246l39 535h639v-207h-428l-16 -199h4q66 101 208 101t218 -71t76 -207t-96 -227t-293 -91q-365 0 -381 282h278q2 -40 33 -64t78 -24t78 31q30 31 30 80z" />
    <glyph glyph-name="six.num" horiz-adv-x="958" 
d="M379 979q0 -65 35 -99t85 -34t85 34q34 34 34 97t-32 98q-33 35 -86 35q-121 0 -121 -131zM887 992q-1 -136 -101 -231t-294 -95t-306 110q-110 110 -110 334q0 223 120 345t304 122q184 -1 266 -63t98 -173h-272q-14 57 -86 58q-133 0 -144 -228h5q80 105 219 105
t220 -74t81 -210z" />
    <glyph glyph-name="seven.num" horiz-adv-x="829" 
d="M59 1360v207h723v-144l-366 -739h-295l334 676h-396z" />
    <glyph glyph-name="eight.num" horiz-adv-x="917" 
d="M458 831q54 0 89 32t35 87t-33 85t-90 30q-125 0 -125 -117q0 -53 35 -85t89 -32zM459 1417q-102 0 -103 -100q0 -49 28 -76t75 -27t75 27t27 76q0 100 -102 100zM92 1337q0 115 93 180t273 65t273 -66q92 -66 92 -191t-131 -178v-4q168 -45 168 -205q0 -123 -104 -198
t-297 -74q-401 0 -402 272q0 154 166 205v4q-131 49 -131 190z" />
    <glyph glyph-name="nine.num" horiz-adv-x="954" 
d="M596 1071h-6q-58 -90 -200 -90t-228 71t-86 207t103 227t297 91t302 -116q108 -115 109 -331q0 -216 -119 -340t-328 -124q-164 0 -261 70t-101 173l282 2q16 -68 97 -67q139 0 139 227zM466 1395q-46 0 -83 -31t-37 -91t35 -93t86 -33t84 32t33 92t-36 92t-82 32z" />
    <glyph glyph-name="minus.den" horiz-adv-x="872" 
d="M117 336v182h637v-182h-637z" />
    <glyph glyph-name="plus.den" horiz-adv-x="872" 
d="M543 336v-240h-217v240h-242v182h242v236h217v-236h243v-182h-243z" />
    <glyph glyph-name="parenleft.tab" horiz-adv-x="614" 
d="M109 675q0 295 90 535t225 404h285q-291 -485 -291 -938t291 -942h-285q-135 162 -225 404t-90 537z" />
    <glyph glyph-name="parenright.tab" horiz-adv-x="614" 
d="M197 672q0 453 -291 942h284q136 -162 226 -405t90 -537t-90 -534q-90 -241 -226 -404h-284q291 485 291 938z" />
    <glyph glyph-name="bracketleft.tab" horiz-adv-x="614" 
d="M119 -266v1880h530v-230h-229v-1421h229v-229h-530z" />
    <glyph glyph-name="bracketright.tab" horiz-adv-x="614" 
d="M496 1614v-1880h-531v229h230v1421h-230v230h531z" />
    <glyph glyph-name="braceleft.tab" horiz-adv-x="614" 
d="M74 539h-47v262h47q59 -1 84 29t20 102l-12 258q-12 256 86 344t399 88v-221q-106 0 -150 -22q-44 -23 -48 -73t2 -135l12 -223q4 -102 -40 -176t-140 -94v-8q96 -23 141 -98t39 -185l-12 -211q-6 -84 -2 -135t48 -73t150 -21v-221q-299 0 -397 84t-88 321l12 277
q4 72 -20 102t-84 29z" />
    <glyph glyph-name="braceright.tab" horiz-adv-x="614" 
d="M588 809v-262h-47q-59 0 -84 -30t-21 -101l13 -258q11 -256 -87 -344t-399 -88v221q106 0 151 21q44 22 48 73t-2 135l-13 223q-4 102 40 176t141 95v8q-96 23 -142 97q-45 75 -39 186l13 210q6 83 2 135t-48 74t-151 21v221q299 0 397 -84t89 -321l-13 -277
q-4 -72 21 -102t84 -29h47z" />
    <glyph glyph-name="eight.sub" horiz-adv-x="917" 
d="M334 141q0 -53 35 -85t89 -31q54 -1 89 31t35 87t-33 85t-90 30q-125 0 -125 -117zM459 610q-102 0 -103 -100q0 -49 28 -76q28 -26 75 -26t75 26t27 76q0 100 -102 100zM92 530q0 115 93 180q93 64 273 64t273 -66q92 -66 92 -190q0 -125 -131 -178v-4q168 -45 168 -205
q0 -123 -104 -198t-297 -74q-401 0 -402 272q0 154 166 205v4q-131 49 -131 190z" />
    <glyph glyph-name="eight.sup" horiz-adv-x="917" 
d="M458 934q54 0 89 32t35 87t-33 85t-90 29q-125 0 -125 -116q0 -53 35 -85t89 -32zM459 1520q-102 0 -103 -101q0 -49 28 -76t75 -27t75 28q28 26 27 75q0 101 -102 101zM92 1440q0 116 93 180t273 64t273 -66q92 -66 92 -190t-131 -179v-4q168 -45 168 -205
q0 -124 -104 -198t-297 -74q-401 0 -402 272q0 154 166 205v4q-131 50 -131 191z" />
    <glyph glyph-name="five.sub" horiz-adv-x="913" 
d="M565 164q0 49 -30 81q-31 31 -89 31t-102 -51h-246l39 535h639v-207h-428l-16 -199h4q66 100 208 100t218 -70q76 -71 76 -207t-96 -227t-293 -91q-365 0 -381 282h278q2 -41 33 -65t78 -23q47 0 78 31q30 31 30 80z" />
    <glyph glyph-name="five.sup" horiz-adv-x="913" 
d="M565 1073q0 49 -30 81q-31 32 -89 32t-102 -51h-246l39 534h639v-207h-428l-16 -198h4q66 100 208 100t218 -71t76 -207t-96 -226q-96 -92 -293 -92q-365 0 -381 283h278q2 -41 33 -65t78 -24t78 31q30 31 30 80z" />
    <glyph glyph-name="four.sub" horiz-adv-x="954" 
d="M897 51h-113v-174h-256v174h-471v180l394 529h333v-508h113v-201zM537 238v360h-7q-27 -78 -77 -149l-152 -211h236z" />
    <glyph glyph-name="four.sup" horiz-adv-x="954" 
d="M897 961h-113v-175h-256v175h-471v180l394 528h333v-508h113v-200zM537 1147v360h-7q-27 -78 -77 -149l-152 -211h236z" />
    <glyph glyph-name="minus.sub" horiz-adv-x="872" 
d="M117 213v182h637v-182h-637z" />
    <glyph glyph-name="minus.sup" horiz-adv-x="872" 
d="M117 1122v183h637v-183h-637z" />
    <glyph glyph-name="nine.sub" horiz-adv-x="954" 
d="M596 264h-6q-58 -90 -200 -90t-228 71t-86 207t103 227t297 91t302 -116t109 -332q0 -216 -119 -339q-119 -124 -328 -124q-164 1 -261 71t-101 172l282 2q16 -68 97 -67q139 0 139 227zM466 588q-46 0 -83 -31t-37 -91t35 -93t86 -33t84 32t33 92t-36 92t-82 32z" />
    <glyph glyph-name="nine.sup" horiz-adv-x="954" 
d="M457 946q139 0 139 228h-6q-58 -90 -200 -90t-228 70q-86 71 -86 207t103 227t297 91q194 1 302 -115t109 -332q0 -216 -119 -340t-328 -124q-164 0 -261 71t-101 173l282 2q16 -68 97 -68zM466 1497q-46 0 -83 -31t-37 -91t35 -93t86 -33t84 32t33 92t-36 92t-82 32z
" />
    <glyph glyph-name="one.sub" horiz-adv-x="649" 
d="M240 -123v549h-197v186h31q86 0 137 33t51 115h260v-883h-282z" />
    <glyph glyph-name="one.sup" horiz-adv-x="649" 
d="M240 786v549h-197v187h31q86 0 137 30q51 35 51 117h260v-883h-282z" />
    <glyph glyph-name="plus.sub" horiz-adv-x="872" 
d="M543 213v-240h-217v240h-242v182h242v236h217v-236h243v-182h-243z" />
    <glyph glyph-name="plus.sup" horiz-adv-x="872" 
d="M543 1122v-239h-217v239h-242v183h242v235h217v-235h243v-183h-243z" />
    <glyph glyph-name="seven.sub" horiz-adv-x="829" 
d="M59 553v207h723v-144l-366 -739h-295l334 676h-396z" />
    <glyph glyph-name="seven.sup" horiz-adv-x="829" 
d="M59 1462v207h723v-143l-366 -740h-295l334 676h-396z" />
    <glyph glyph-name="six.sub" horiz-adv-x="958" 
d="M379 172q0 -66 35 -100t85 -33q50 0 85 34q34 34 34 97t-32 98q-33 35 -86 35q-121 0 -121 -131zM506 592q-133 0 -144 -227h5q80 104 219 104t220 -74t81 -210q-1 -136 -101 -231t-294 -95q-194 1 -306 111q-110 110 -110 333t120 345t304 122t266 -62t98 -173h-272
q-14 57 -86 57z" />
    <glyph glyph-name="six.sup" horiz-adv-x="958" 
d="M379 1081q0 -65 35 -99t85 -34t85 34q34 34 34 97t-32 99q-33 35 -86 34q-121 0 -121 -131zM506 1501q-133 0 -144 -227h5q80 104 219 104t220 -74t81 -209q-1 -135 -101 -231t-294 -96t-306 111q-110 111 -110 333t120 346q120 122 304 122t266 -63q82 -62 98 -173h-272
q-14 57 -86 57z" />
    <glyph glyph-name="three.sub" horiz-adv-x="921" 
d="M459 246h-113v157h86q47 0 78 24t31 68q0 43 -27 67t-72 24q-44 0 -68 -28t-26 -62h-272q8 114 97 198t277 84t280 -68q93 -68 93 -171q0 -164 -182 -199v-4q205 -31 205 -209q0 -113 -102 -191t-296 -77q-194 0 -284 81t-92 201h280q2 -41 30 -63t77 -23q49 0 78 28
t29 70q0 41 -30 67q-28 26 -77 26z" />
    <glyph glyph-name="three.sup" horiz-adv-x="921" 
d="M459 1155h-113v158h86q47 -1 78 23t31 68t-27 68t-72 23q-44 0 -68 -28t-26 -62h-272q8 115 97 199t277 84t280 -69q93 -69 93 -171q0 -164 -182 -199v-4q205 -31 205 -209q0 -112 -102 -190t-296 -78t-284 81t-92 202h280q2 -41 30 -64t77 -23t78 28t29 70t-30 68
q-28 26 -77 25z" />
    <glyph glyph-name="two.sub" horiz-adv-x="909" 
d="M458 774q190 0 281 -73q92 -73 92 -181t-51 -177t-166 -157l-131 -100v-6h351v-203h-773v137l377 318q63 53 86 86t23 74q0 90 -86 90q-119 -1 -121 -144h-270q4 158 101 247t287 89z" />
    <glyph glyph-name="two.sup" horiz-adv-x="909" 
d="M458 1683q190 -1 281 -73q92 -72 92 -180t-51 -178q-51 -69 -166 -156l-131 -101v-6h351v-203h-773v138l377 317q63 53 86 86t23 74q0 90 -86 90q-119 0 -121 -143h-270q4 158 101 246t287 89z" />
    <glyph glyph-name="zero.sub" horiz-adv-x="1009" 
d="M502 57q119 0 119 262t-119 263q-117 0 -117 -265q0 -156 30 -208t87 -52zM76 313q0 227 114 345q115 118 312 118q432 0 432 -463q0 -227 -113 -343t-319 -115q-426 -1 -426 458z" />
    <glyph glyph-name="zero.sup" horiz-adv-x="1009" 
d="M502 967q119 0 119 262t-118 262t-118 -264q0 -156 30 -208t87 -52zM76 1223q0 227 114 345q115 118 312 118q432 0 432 -463q0 -227 -113 -343t-319 -116q-426 0 -426 459z" />
    <glyph glyph-name="Q.old" horiz-adv-x="1681" 
d="M1149 772q0 258 -84 392t-223 134q-307 0 -307 -520q-1 -260 69 -390t223 -136l-102 127l238 174l127 -160q59 121 59 379zM844 -33q-377 0 -570 214q-192 214 -192 591t204 597t566 220t554 -214q194 -214 193 -597q0 -461 -286 -661l112 -142l-235 -172l-152 189
q-84 -25 -194 -25z" />
    <glyph glyph-name="Q.scold" horiz-adv-x="1527" 
d="M522 647q0 -221 54 -324t188 -104h10l-108 141l202 138l103 -133q37 101 37 297t-67 307t-185 111t-176 -106t-58 -327zM764 -27q-340 -1 -503 179t-163 497t174 503t499 185q325 0 492 -180t167 -502q0 -362 -259 -549l107 -139l-203 -141l-131 170q-84 -23 -180 -23z
" />
    <glyph glyph-name="Euro.tab" 
d="M679 -29q-241 1 -366 137t-157 404h-127v164h116q-2 25 -2 77t2 76h-116v164h129q78 545 553 545q233 0 347 -137t126 -354h-312q-23 100 -60 149q-38 49 -109 49t-111 -59t-60 -193h254v-164h-266v-73q0 -55 2 -80h264v-164h-251q37 -242 172 -242q67 0 105 45t56 136
h316q-4 -211 -134 -345t-371 -135z" />
    <glyph glyph-name="dollar.tab" 
d="M672 -238h-135v211q-233 16 -363 133q-129 117 -139 336h356q14 -164 156 -194v346l-53 12q-219 48 -329 154t-110 303t124 323t362 142v168h135v-168q238 -14 350 -128t129 -310h-360q-12 152 -129 180v-332l34 -8q250 -54 363 -160t113 -314t-128 -338t-376 -145v-211z
M672 244h2q76 14 114 60t39 110q0 64 -39 100t-116 53v-323zM400 1120q0 -124 141 -155v305q-141 -26 -141 -150z" />
    <glyph glyph-name="dieresis.uc" horiz-adv-x="755" 
d="M-6 1702v321h328v-321h-328zM434 1702v321h328v-321h-328z" />
    <glyph glyph-name="zero.tab" 
d="M612 279q174 0 174 475q0 258 -42 366t-130 109q-174 0 -174 -475q0 -262 42 -368t130 -107zM55 754q-1 376 147 580t418 204t410 -200q141 -200 141 -582t-144 -584q-144 -203 -417 -203q-555 1 -555 785z" />
    <glyph glyph-name="one.tab" 
d="M1149 0h-1004v301h322v698h-315v250h22q162 1 247 59t85 210h352v-1217h291v-301z" />
    <glyph glyph-name="nine.tab" 
d="M582 262q195 0 211 404h-5q-100 -138 -294 -138t-320 128q-127 128 -127 354q1 226 149 378t420 152t416 -189t144 -566t-159 -597t-435 -219q-244 0 -365 114t-141 304h348q43 -125 158 -125zM596 1243q-70 0 -116 -55t-46 -169t45 -173q45 -60 119 -60t117 58t43 171
q0 114 -46 171t-116 57z" />
    <glyph glyph-name="eight.tab" 
d="M614 229q82 -1 136 57t55 150q0 92 -53 148q-52 56 -138 55q-86 0 -138 -54q-52 -53 -52 -147t54 -152t136 -57zM776 1088q0 86 -44 134t-117 48t-117 -48t-45 -134q0 -86 46 -136q45 -51 117 -51t116 50t44 137zM88 1126q0 182 136 298t390 116t390 -116t137 -298
q0 -248 -217 -329v-9q268 -74 268 -368q0 -197 -161 -325t-424 -128t-417 124t-153 325q0 299 268 372v9q-100 35 -159 119q-58 85 -58 210z" />
    <glyph glyph-name="seven.tab" 
d="M55 1206v312h1112v-218l-596 -1300h-409l551 1206h-658z" />
    <glyph glyph-name="six.tab" 
d="M471 491q0 -115 43 -173t117 -58t119 58t45 170t-45 174q-45 61 -119 61t-117 -59t-43 -173zM1178 508q0 -230 -138 -384t-412 -155q-272 1 -420 183t-149 542q0 414 157 630t443 216q221 0 351 -118t145 -287h-369q-14 53 -53 85t-88 31q-92 0 -145 -92t-66 -315h4
q112 156 310 156t314 -132q116 -130 116 -360z" />
    <glyph glyph-name="five.tab" 
d="M617 260q83 0 135 62t53 173q0 112 -51 174t-136 62q-119 0 -182 -108h-336l47 895h945v-312h-627l-16 -315h4q109 117 298 117t308 -134t119 -362q0 -230 -138 -386t-432 -157q-293 0 -418 142t-137 333h377q16 -184 187 -184z" />
    <glyph glyph-name="space_uni0326.alt" horiz-adv-x="755" 
d="M614 1614l-59 -369h-387l180 369h266z" />
    <glyph glyph-name="four.tab" 
d="M1204 319h-162v-319h-362v319h-645v269l567 930h440v-902h162v-297zM692 612v590h-4q-27 -84 -90 -196l-223 -394h317z" />
    <glyph glyph-name="three.tab" 
d="M592 637h-131v262h104q88 0 140 46q51 46 51 127t-41 127t-122 46t-128 -50t-51 -128h-359q8 184 128 321q62 70 173 112t254 42q252 0 387 -118t136 -304q1 -116 -59 -202t-177 -125v-7q274 -78 274 -354q0 -199 -146 -331t-432 -132t-413 142q-126 142 -137 331h381
q8 -84 58 -129t131 -45t135 51q53 51 53 137t-53 133q-54 48 -156 48z" />
    <glyph glyph-name="uni021A.sc" horiz-adv-x="1204" 
d="M360 -467l54 340h379l-162 -340h-271zM1155 1319v-293h-352v-1026h-402v1026h-352v293h1106z" />
    <glyph glyph-name="two.tab" 
d="M451 999h-375q4 257 149 399t411 142t398 -122q131 -122 131 -302q1 -180 -71 -300t-242 -275l-246 -226v-4h553v-311h-1108v215l512 506q119 119 165 198t46 156q0 170 -147 170q-176 0 -176 -246z" />
    </font>
</defs>
</svg>
