<?xml version="1.0" standalone="no"?>
<!DOCTYPE svg PUBLIC "-//W3C//DTD SVG 1.1//EN" "http://www.w3.org/Graphics/SVG/1.1/DTD/svg11.dtd" >
<svg xmlns="http://www.w3.org/2000/svg">
<metadata>
Created by FontPrep 20130207 at Wed Mar 25 23:46:26 2015
 By Callum Flack
(c)2012 Kai Bernau and Susana Carvalho with Christian Schwartz under exclusive license to Schwartzco Inc./Commercial Type. All rights reserved.
</metadata>
<defs>
<font id="97ca10f1b212e3369ee0c5a54f5f70a0" horiz-adv-x='1024' >
  <font-face 
    font-family="AtlasGrotesk-MediumItalic"
    font-weight="500"
    font-style="italic"
    font-stretch="normal"
    units-per-em="2048"
    panose-1="0 0 0 0 0 0 0 0 0 0"
    ascent="1663"
    descent="-385"
    x-height="1092"
    cap-height="1567"
    bbox="-489 -451.018 2470 2433"
    underline-thickness="102"
    underline-position="-102"
    slope="-11"
    unicode-range="U+0020-FB02"
  />
<missing-glyph horiz-adv-x="1024" 
 />
    <glyph glyph-name="f_f" unicode="ff" horiz-adv-x="1427" 
d="M766 1602q98 0 141 -15l-39 -196q-30 4 -94 4q-137 0 -164 -148l-30 -155h430l37 192q37 186 141 263t276 77q98 0 148 -16l-39 -197q-43 6 -103 6q-134 0 -161 -147l-35 -178h223l-39 -197h-221l-174 -895h-266l174 895h-428l-174 -895h-265l172 895h-161l39 197h161
l33 170q37 186 141 263t277 77z" />
    <glyph glyph-name="fi" unicode="fi" horiz-adv-x="1325" 
d="M766 1624q92 0 141 -16l-37 -197q-42 6 -100 6q-128 0 -156 -147l-34 -178h223l-39 -197h-221l-174 -895h-265l172 895h-161l39 197h161l37 192q36 186 140 263t274 77zM797 0l211 1092h270l-211 -1092h-270zM1047 1300l51 261h274l-51 -261h-274z" />
    <glyph glyph-name="fl" unicode="fl" horiz-adv-x="1323" 
d="M766 1624q92 0 141 -16l-37 -197q-42 6 -100 6q-128 0 -156 -147l-34 -178h223l-39 -197h-221l-174 -895h-265l172 895h-161l39 197h161l37 192q36 186 140 263t274 77zM797 0l313 1614h270l-313 -1614h-270z" />
    <glyph glyph-name=".notdef" horiz-adv-x="1024" 
 />
    <glyph glyph-name=".null" horiz-adv-x="0" 
 />
    <glyph glyph-name="nonmarkingreturn" horiz-adv-x="681" 
 />
    <glyph glyph-name="space" unicode=" " horiz-adv-x="489" 
 />
    <glyph glyph-name="exclam" unicode="!" horiz-adv-x="604" 
d="M358 0h-311l55 287h312zM190 494l175 1120h311l-279 -1120h-207z" />
    <glyph glyph-name="quotedbl" unicode="&#x22;" horiz-adv-x="874" 
d="M250 1061l57 506h262l-149 -506h-170zM633 1061l57 506h264l-151 -506h-170z" />
    <glyph glyph-name="numbersign" unicode="#" horiz-adv-x="1361" 
d="M205 203l129 381h-219l35 180h245l97 291h-226l35 180h252l111 332h190l-111 -332h240l113 332h192l-114 -332h227l-35 -180h-252l-96 -291h229l-35 -180h-258l-125 -381h-192l127 381h-242l-127 -381h-190zM584 764h243l99 291h-244z" />
    <glyph glyph-name="dollar" unicode="$" horiz-adv-x="1304" 
d="M225 1065q0 211 154 337t397 130l33 164h137l-33 -172q184 -25 288 -132q103 -108 91 -300h-264q16 184 -154 231l-83 -430l59 -19q198 -59 278 -154t80 -253q0 -213 -167 -348t-429 -142l-41 -215h-137l43 222q-209 24 -323 138t-99 324h275q-6 -221 188 -253l92 479
l-59 18q-326 90 -326 375zM928 432q0 74 -43 121t-146 80l-86 -447q115 12 195 77t80 169zM662 930l77 403q-102 -8 -170 -65q-67 -56 -67 -142t38 -126t122 -70z" />
    <glyph glyph-name="percent" unicode="%" horiz-adv-x="1742" 
d="M1257 143q94 0 141 88q46 88 48 173q4 165 -123 165q-92 0 -140 -87t-50 -201q-1 -138 124 -138zM1249 -14q-147 0 -230 80t-83 213q0 188 108 317q109 129 289 129q147 0 229 -81t83 -214q0 -186 -108 -315t-288 -129zM506 936q96 0 142 90t46 199q0 137 -123 137
q-88 0 -137 -88t-53 -201q0 -137 125 -137zM186 1071q0 186 109 315q109 130 273 130t246 -80t81 -213q0 -185 -108 -315t-287 -130q-147 0 -231 80q-83 80 -83 213zM127 -82l1376 1681h223l-1378 -1681h-221z" />
    <glyph glyph-name="ampersand" unicode="&#x26;" horiz-adv-x="1497" 
d="M1305 -2q-121 0 -197 29t-139 96q-189 -156 -413 -156t-352 109t-128 291t104 300t299 212q-94 153 -94 327t129 288t308 115q178 1 284 -89t106 -249t-121 -263t-280 -191l213 -334q78 129 164 338h233q-150 -338 -278 -512q43 -49 96 -69t150 -25l-41 -217h-43z
M344 412q0 -109 64 -172q64 -64 192 -64q129 0 254 105q-16 29 -27 43l-256 399l-12 -6q-215 -123 -215 -305zM631 1202q0 -102 82 -231q127 65 195 131t68 151q-1 85 -42 131t-117 46t-131 -63t-55 -165z" />
    <glyph glyph-name="quotesingle" unicode="'" horiz-adv-x="491" 
d="M250 1061l57 506h262l-149 -506h-170z" />
    <glyph glyph-name="parenleft" unicode="(" horiz-adv-x="700" 
d="M508 -266h-193q-160 336 -159 676q0 621 506 1204h212q-229 -305 -352 -601t-126 -633t112 -646z" />
    <glyph glyph-name="parenright" unicode=")" horiz-adv-x="700" 
d="M258 1614h193q160 -336 159 -676q0 -623 -508 -1204h-213q231 305 355 601q123 296 125 631t-111 648z" />
    <glyph glyph-name="asterisk" unicode="*" horiz-adv-x="897" 
d="M569 1124h-6l-190 -270l-154 133l254 207l2 6l-276 57l108 199l230 -145l4 4l8 299h213l-109 -301l4 -6l281 137l31 -209l-295 -41l-2 -6l172 -217l-191 -117z" />
    <glyph glyph-name="plus" unicode="+" horiz-adv-x="1255" 
d="M758 629l-78 -400h-231l77 400h-372l39 209h374l76 395h234l-78 -395h375l-39 -209h-377z" />
    <glyph glyph-name="comma" unicode="," horiz-adv-x="534" 
d="M-53 -240l170 541h299l-287 -541h-182z" />
    <glyph glyph-name="hyphen" unicode="-" horiz-adv-x="827" 
d="M121 541l43 221h606l-43 -221h-606z" />
    <glyph glyph-name="period" unicode="." horiz-adv-x="546" 
d="M23 0l55 299h307l-57 -299h-305z" />
    <glyph glyph-name="slash" unicode="/" horiz-adv-x="1150" 
d="M-178 -266l1270 1880h229l-1264 -1880h-235z" />
    <glyph glyph-name="zero" unicode="0" horiz-adv-x="1386" 
d="M647 180q127 0 222 142t138 325q42 182 42 357q0 324 -224 323q-98 0 -179 -87q-135 -145 -195 -488q-25 -137 -25 -256q0 -316 221 -316zM842 1538q240 0 370 -150q180 -208 101 -677q-23 -131 -75 -267t-129 -240q-77 -103 -198 -169t-270 -66q-240 1 -371 143
t-132 407t95 521q53 139 131 249q78 109 202 179t276 70z" />
    <glyph glyph-name="one" unicode="1" horiz-adv-x="866" 
d="M256 1249q150 0 231 68q84 63 117 205h234l-295 -1522h-271l207 1069h-297l35 180h39z" />
    <glyph glyph-name="two" unicode="2" horiz-adv-x="1265" 
d="M784 1540q218 0 344 -99t125 -279q-2 -180 -108 -313q-106 -134 -320 -302l-399 -318v-4h670l-43 -225h-1061l33 172l620 514q84 70 124 106q140 126 179 221q25 60 25 137t-50 129t-141 50q-241 0 -286 -303h-273q39 250 191 382t370 132z" />
    <glyph glyph-name="three" unicode="3" horiz-adv-x="1288" 
d="M684 668h-123l41 206h94q125 4 199 71t74 172q-1 105 -59 157t-160 53q-102 0 -172 -62t-89 -188h-268q23 203 170 333t369 130t350 -99q129 -99 129 -286q0 -145 -83 -245t-216 -136v-6q104 -31 166 -113t61 -209q-1 -219 -163 -348t-409 -129t-387 123t-126 344h272
q-2 -122 63 -186t193 -64t207 77q78 77 78 183q1 106 -53 164t-158 58z" />
    <glyph glyph-name="four" unicode="4" horiz-adv-x="1308" 
d="M1194 350h-186l-68 -350h-264l67 350h-700l37 197l840 971h315l-184 -953h186zM352 563h439l135 694h-4q-47 -80 -121 -167z" />
    <glyph glyph-name="five" unicode="5" horiz-adv-x="1277" 
d="M893 557q0 109 -53 170t-158 64q-170 2 -266 -119h-230l228 846h837l-45 -224h-624l-111 -415h4q121 125 304 125t289 -114t106 -300q0 -270 -176 -446t-443 -175q-231 0 -365 120q-133 120 -108 327h266q-6 -113 51 -171t168 -59q150 0 238 110t88 261z" />
    <glyph glyph-name="six" unicode="6" horiz-adv-x="1314" 
d="M635 182q137 0 218 110t81 234t-60 188t-163 64q-133 0 -216 -105t-83 -233t60 -192q60 -66 163 -66zM866 1339q-145 0 -256 -146t-168 -396h9q129 193 366 192q180 0 288 -115t107 -299q2 -262 -166 -434t-420 -172q-251 -1 -373 145t-122 389t86 477t264 397t410 163
q400 0 412 -371h-254q-16 170 -183 170z" />
    <glyph glyph-name="seven" unicode="7" horiz-adv-x="1120" 
d="M92 0l805 1290h-690l45 228h1008l-33 -162l-846 -1356h-289z" />
    <glyph glyph-name="eight" unicode="8" horiz-adv-x="1298" 
d="M356 395q0 -231 265 -231q126 0 207 81t81 198q-1 117 -73 173t-194 56t-204 -79t-82 -198zM762 1341q-108 1 -178 -79t-70 -186t60 -160q60 -52 165 -52t180 75t75 183t-62 164q-62 55 -170 55zM252 1083q0 199 154 328t367 129q212 0 348 -103t136 -286
q0 -145 -83 -246q-84 -100 -213 -139v-6q96 -35 159 -115t64 -199q0 -215 -166 -347t-411 -132t-387 108t-142 282q0 173 99 283t255 148v7q-80 37 -130 113t-50 175z" />
    <glyph glyph-name="nine" unicode="9" horiz-adv-x="1314" 
d="M547 -31q-209 1 -331 101t-107 288h256q0 -184 190 -184q317 0 424 553h-8q-125 -184 -365 -184q-182 1 -291 111t-110 294q-2 256 168 424t421 168q252 0 370 -143t118 -367q0 -331 -115 -598q-59 -137 -143 -239t-208 -163t-269 -61zM780 1323q-139 0 -220 -102
t-81 -242q3 -107 61 -167t162 -60q141 0 225 98q83 98 83 237q-2 106 -63 171t-167 65z" />
    <glyph glyph-name="colon" unicode=":" horiz-adv-x="571" 
d="M346 0h-305l57 301h305zM193 778l57 301h305l-59 -301h-303z" />
    <glyph glyph-name="semicolon" unicode=";" horiz-adv-x="591" 
d="M135 -240h-182l170 541h299zM217 778l59 301h306l-60 -301h-305z" />
    <glyph glyph-name="less" unicode="&#x3c;" horiz-adv-x="1210" 
d="M989 123l-883 493l29 140l1071 487l-45 -252l-731 -319l602 -328z" />
    <glyph glyph-name="equal" unicode="=" horiz-adv-x="1302" 
d="M1106 424h-952l41 207h952zM231 827l41 207h953l-41 -207h-953z" />
    <glyph glyph-name="greater" unicode="&#x3e;" horiz-adv-x="1210" 
d="M289 1243l882 -489l-28 -142l-1069 -485l45 250l729 321l-602 328z" />
    <glyph glyph-name="question" unicode="?" horiz-adv-x="1171" 
d="M346 0l55 287h312l-56 -287h-311zM969 1219q1 90 -57 143t-160 53q-266 0 -287 -321h-260q10 248 156 392t407 144q211 0 340 -108t129 -269q0 -162 -70 -262t-200 -190l-125 -86q-60 -43 -80 -71t-35 -89l-14 -74h-244l25 121q20 104 55 154t137 121l123 81
q160 104 160 261z" />
    <glyph glyph-name="at" unicode="@" horiz-adv-x="2056" 
d="M946 281q86 -1 154 69t90 180l18 91q23 102 -16 181t-135 79q-125 0 -194 -127t-68 -281q-1 -192 151 -192zM1520 256q96 0 188 112t94 361q2 289 -188 472t-502 183q-225 0 -420 -116q-196 -116 -312 -323q-116 -206 -118 -451q-2 -338 194 -540t515 -202t538 172
l78 -98q-256 -205 -637 -205q-380 0 -616 241t-234 632q2 290 142 526t370 366q231 130 504 130q380 0 614 -211t234 -560q0 -169 -44 -295t-118 -197q-144 -138 -325 -138q-254 0 -279 192h-6q-113 -193 -318 -192q-147 0 -231 97t-88 261q-4 221 126 397t339 177
q98 -1 160 -45t86 -113h4l24 125h224l-115 -557q-43 -201 117 -201z" />
    <glyph glyph-name="A" unicode="A" horiz-adv-x="1511" 
d="M1073 0l-61 393h-580l-199 -393h-276l815 1567h315l267 -1567h-281zM885 1319h-4q-12 -49 -107 -238l-237 -479h442l-70 475q-16 106 -24 213v29z" />
    <glyph glyph-name="B" unicode="B" horiz-adv-x="1452" 
d="M727 207q154 0 251 73t97 222q0 215 -276 215h-307l-101 -510h336zM827 915q301 0 301 259q0 188 -231 188h-281l-88 -447h299zM729 0h-655l303 1567h553q217 0 344 -92t127 -269q0 -303 -316 -379v-6q121 -27 191 -113t70 -214q0 -244 -170 -369t-447 -125z" />
    <glyph glyph-name="C" unicode="C" horiz-adv-x="1552" 
d="M444 560q0 -154 80 -267t245 -113q315 0 398 336h283q-49 -258 -230 -403t-464 -145t-445 165q-162 166 -161 483q0 374 203 661q99 140 261 226t363 86q253 0 405 -132t154 -398h-287q-4 153 -78 235q-75 82 -211 81t-242 -77t-162 -197q-112 -245 -112 -541z" />
    <glyph glyph-name="D" unicode="D" horiz-adv-x="1550" 
d="M649 221q160 0 277 72q117 73 175 189q111 223 109 476q0 389 -385 390h-213l-219 -1127h256zM850 1567q301 0 477 -159t176 -464q0 -399 -214 -663q-105 -131 -276 -206t-390 -75h-549l301 1567h475z" />
    <glyph glyph-name="E" unicode="E" horiz-adv-x="1318" 
d="M74 0l303 1567h989l-43 -226h-711l-86 -446h668l-43 -219h-668l-88 -453h733l-43 -223h-1011z" />
    <glyph glyph-name="F" unicode="F" horiz-adv-x="1218" 
d="M473 627l-121 -627h-278l303 1567h946l-43 -226h-668l-96 -495h623l-41 -219h-625z" />
    <glyph glyph-name="G" unicode="G" horiz-adv-x="1632" 
d="M1544 1114h-284q2 125 -71 195q-73 69 -200 69t-224 -56t-157 -142t-98 -198q-68 -195 -70 -411q0 -169 80 -281t259 -112t288 109t145 288l7 31h-379l43 213h655l-160 -819h-225l45 233h-6q-57 -119 -180 -191t-289 -73q-279 0 -427 168t-148 458t128 544
q68 131 165 231t241 160t317 59q249 -1 397 -119t148 -356z" />
    <glyph glyph-name="H" unicode="H" horiz-adv-x="1579" 
d="M477 672l-129 -672h-278l303 1567h278l-129 -668h676l129 668h281l-303 -1567h-281l129 672h-676z" />
    <glyph glyph-name="I" unicode="I" horiz-adv-x="626" 
d="M76 0l303 1567h278l-303 -1567h-278z" />
    <glyph glyph-name="J" unicode="J" horiz-adv-x="878" 
d="M119 -6h-160l45 229h113q162 -1 224 59t91 203l211 1082h279l-217 -1114q-47 -247 -177 -353t-409 -106z" />
    <glyph glyph-name="K" unicode="K" horiz-adv-x="1460" 
d="M444 477l-92 -477h-278l303 1567h278l-143 -746l743 746h330l-694 -676l424 -891h-301l-334 702z" />
    <glyph glyph-name="L" unicode="L" horiz-adv-x="1216" 
d="M74 0l303 1567h278l-260 -1340h699l-45 -227h-975z" />
    <glyph glyph-name="M" unicode="M" horiz-adv-x="1910" 
d="M74 0l301 1567h399l123 -912l25 -262h4q61 139 123 256l477 918h413l-303 -1567h-270l248 1272h-6q-70 -150 -144 -291l-514 -981h-215l-127 981l-26 291h-7l-247 -1272h-254z" />
    <glyph glyph-name="N" unicode="N" horiz-adv-x="1576" 
d="M74 0l303 1567h307l371 -983q31 -82 55 -178l4 -25h6l230 1186h254l-304 -1567h-288l-381 991q-33 83 -62 185l-4 22h-6l-231 -1198h-254z" />
    <glyph glyph-name="O" unicode="O" horiz-adv-x="1644" 
d="M1298 1004q0 150 -80 262q-81 113 -255 112q-137 0 -243 -80t-164 -206q-116 -252 -116 -521q0 -167 82 -279t262 -112q131 0 236 80q104 80 162 205q116 255 116 539zM992 1589q262 0 432 -170q170 -171 168 -447q-1 -276 -91 -495t-280 -364t-459 -145t-441 164
q-172 166 -173 452q-2 286 100 512t292 360q190 133 452 133z" />
    <glyph glyph-name="P" unicode="P" horiz-adv-x="1316" 
d="M731 772q162 0 253 90t91 260q0 233 -262 234h-197l-114 -584h229zM713 559h-254l-107 -559h-278l303 1567h465q236 0 372 -110t138 -324q0 -279 -176 -427t-463 -147z" />
    <glyph glyph-name="Q" unicode="Q" horiz-adv-x="1644" 
d="M788 178q133 0 237 78q177 134 246 460q27 132 27 284t-80 266q-81 113 -255 112q-137 0 -243 -80t-164 -206q-116 -252 -116 -521q0 -169 83 -281t265 -112zM147 584q-1 284 99 510t290 360q190 135 454 135t434 -170t169 -461q1 -290 -107 -504t-282 -329v-10
q113 -15 184 -65t128 -150l-248 -146q-76 131 -147 180t-185 50l-172 -11q-279 0 -448 164q-169 163 -169 447z" />
    <glyph glyph-name="R" unicode="R" horiz-adv-x="1417" 
d="M883 1567q188 0 315 -72q193 -109 193 -348q1 -176 -91 -303t-276 -178v-7l254 -659h-291l-229 621h-285l-123 -621h-276l301 1567h508zM799 829q145 0 227 80t82 232q0 221 -256 221h-238l-104 -533h289z" />
    <glyph glyph-name="S" unicode="S" horiz-adv-x="1374" 
d="M975 440q0 76 -47 124t-152 81l-188 60q-182 57 -265 155t-83 246q0 223 166 354t408 129t386 -119q143 -117 131 -337h-280q6 113 -59 179q-66 66 -186 66t-200 -60t-80 -150t44 -136q44 -47 151 -80l188 -59q189 -59 271 -155t82 -246q0 -236 -171 -379t-441 -143
t-430 124q-160 125 -146 363h291q-6 -272 294 -273q131 0 224 68q92 68 92 188z" />
    <glyph glyph-name="T" unicode="T" horiz-adv-x="1304" 
d="M950 1339l-260 -1339h-280l260 1339h-473l45 228h1222l-43 -228h-471z" />
    <glyph glyph-name="U" unicode="U" horiz-adv-x="1523" 
d="M474 294q64 -99 255 -99q192 0 292 129q9 12 18 29t15 27t13 34q6 24 10 32q5 8 13 48t13 68t7 34l186 971h277l-203 -1051q-104 -547 -655 -547q-313 0 -460 158q-146 158 -85 475l186 965h281l-180 -922q-47 -252 17 -351z" />
    <glyph glyph-name="V" unicode="V" horiz-adv-x="1478" 
d="M682 291v-27h4q27 88 102 236l555 1067h283l-831 -1567h-322l-217 1567h285l125 -1043q16 -148 16 -233z" />
    <glyph glyph-name="W" unicode="W" horiz-adv-x="2121" 
d="M1466 336h4q27 104 95 256l432 975h264l-715 -1567h-280l-64 975q-12 159 -6 244v28h-4q-29 -94 -98 -246l-453 -1001h-285l-108 1567h276l51 -949q8 -170 3 -249l-5 -33h5q33 104 102 256l444 975h269l67 -951q12 -157 6 -249v-31z" />
    <glyph glyph-name="X" unicode="X" horiz-adv-x="1488" 
d="M-33 0l668 821l-326 746h303l226 -545h4l434 545h303l-621 -756l363 -811h-313l-252 608h-2l-486 -608h-301z" />
    <glyph glyph-name="Y" unicode="Y" horiz-adv-x="1368" 
d="M440 0l133 680l-348 887h299l234 -654h4l489 654h297l-704 -922l-125 -645h-279z" />
    <glyph glyph-name="Z" unicode="Z" horiz-adv-x="1312" 
d="M272 1339l45 228h1102l-39 -199l-1011 -1141h802l-43 -227h-1148l36 199l1012 1140h-756z" />
    <glyph glyph-name="bracketleft" unicode="[" horiz-adv-x="751" 
d="M37 -266l366 1880h496l-33 -176h-268l-297 -1528h266l-35 -176h-495z" />
    <glyph glyph-name="backslash" unicode="\" horiz-adv-x="1105" 
d="M782 -266l-551 1880h209l555 -1880h-213z" />
    <glyph glyph-name="bracketright" unicode="]" horiz-adv-x="780" 
d="M778 1614l-366 -1880h-496l33 176h268l299 1528h-268l35 176h495z" />
    <glyph glyph-name="asciicircum" unicode="^" horiz-adv-x="837" 
d="M723 1614l195 -592h-189l-139 367h-2l-281 -367h-201l429 592h188z" />
    <glyph glyph-name="underscore" unicode="_" horiz-adv-x="811" 
d="M-141 -389l32 180h793l-33 -180h-792z" />
    <glyph glyph-name="grave" unicode="`" horiz-adv-x="575" 
d="M410 1614l100 -348h-201l-170 348h271z" />
    <glyph glyph-name="a" unicode="a" horiz-adv-x="1155" 
d="M654 1116q222 0 320 -123q97 -123 56 -331l-69 -357q-12 -61 7 -87t70 -23l-39 -199h-65q-197 0 -219 156h-6q-68 -84 -143 -125q-76 -41 -206 -41t-226 80q-95 80 -95 229q0 260 301 332q115 29 428 32l10 54q20 104 -20 160q-41 56 -137 57q-175 0 -191 -154h-264
q18 162 142 251t346 89zM309 314q0 -68 41 -106t125 -38t156 80t100 221l6 31q-195 -4 -267 -20t-117 -58q-44 -43 -44 -110z" />
    <glyph glyph-name="b" unicode="b" horiz-adv-x="1271" 
d="M623 164q82 0 145 54t96 137q62 155 64 327q0 238 -185 238q-111 0 -195 -83t-106 -208l-26 -129q-29 -143 20 -240q50 -96 187 -96zM852 1116q172 0 261 -115t89 -313q0 -253 -123 -471q-61 -109 -169 -177t-230 -67t-209 51q-86 50 -121 152h-4l-33 -176h-260l314 1614
h272l-137 -699h4q123 201 346 201z" />
    <glyph glyph-name="c" unicode="c" horiz-adv-x="1161" 
d="M354 422q0 -116 52 -186t157 -71q106 -1 168 63q61 65 78 159h262q-29 -199 -173 -307t-354 -109q-210 0 -337 119t-127 340q0 284 161 486t445 202q203 0 318 -103q114 -104 110 -294h-266q4 92 -40 149t-136 60q-152 0 -235 -159t-83 -349z" />
    <glyph glyph-name="d" unicode="d" horiz-adv-x="1277" 
d="M457 -27q-182 0 -279 116q-96 116 -96 314q0 259 135 479q65 105 173 170t239 64q227 0 301 -186h2l133 684h270l-313 -1614h-260l33 168h-4q-127 -195 -334 -195zM676 922q-104 0 -180 -84q-140 -155 -140 -437q0 -236 185 -235q115 0 197 82t106 211l24 125
q31 146 -14 242t-178 96z" />
    <glyph glyph-name="e" unicode="e" horiz-adv-x="1169" 
d="M530 -29q-206 0 -330 123q-124 122 -124 316q0 410 273 607q139 101 319 101t284 -81q199 -155 133 -482l-14 -76h-721q-2 -20 -2 -63q0 -113 50 -183t159 -69q172 0 209 143h266q-37 -162 -166 -249q-130 -87 -336 -87zM660 938q-108 0 -180 -79q-71 -79 -103 -210h454
l3 13q18 128 -24 202t-150 74z" />
    <glyph glyph-name="f" unicode="f" horiz-adv-x="733" 
d="M770 1624q104 0 148 -16l-37 -197q-43 6 -105 6q-131 0 -162 -147l-34 -178h223l-39 -197h-221l-174 -895h-265l172 895h-161l39 197h161l37 192q38 186 142 263t276 77z" />
    <glyph glyph-name="g" unicode="g" horiz-adv-x="1269" 
d="M18 -76h258q2 -72 54 -110t139 -37q238 0 295 289l24 127h-4q-125 -177 -316 -177q-190 0 -288 104t-98 286q0 395 253 603q130 108 300 107q233 0 303 -194h2l35 170h258l-201 -1026q-92 -474 -562 -474q-226 0 -339 87t-113 245zM553 201q111 -1 191 81t104 203l20 113
q29 139 -14 231q-44 93 -188 93t-227 -157t-83 -345q4 -219 197 -219z" />
    <glyph glyph-name="h" unicode="h" horiz-adv-x="1261" 
d="M732 909q-114 0 -190 -87t-106 -244l-110 -578h-273l314 1614h270l-137 -703h4q123 205 356 205q176 0 252 -116t33 -334l-127 -666h-270l122 635q27 129 0 184q-24 90 -138 90z" />
    <glyph glyph-name="i" unicode="i" horiz-adv-x="581" 
d="M53 0l211 1092h271l-211 -1092h-271zM303 1300l51 261h275l-51 -261h-275z" />
    <glyph glyph-name="j" unicode="j" horiz-adv-x="585" 
d="M-86 -418q-88 0 -154 25l39 196q43 -12 86 -12q133 0 158 139l227 1162h271l-232 -1182q-61 -328 -395 -328zM307 1300l51 261h277l-51 -261h-277z" />
    <glyph glyph-name="k" unicode="k" horiz-adv-x="1175" 
d="M379 303l-60 -303h-266l314 1614h266l-195 -1000l475 478h304l-461 -445l282 -647h-284l-207 473z" />
    <glyph glyph-name="l" unicode="l" horiz-adv-x="579" 
d="M53 0l314 1614h270l-313 -1614h-271z" />
    <glyph glyph-name="m" unicode="m" horiz-adv-x="1925" 
d="M1544 756q0 154 -149 153q-105 0 -181 -87t-104 -244l-111 -578h-268l121 627q14 82 14 129q0 154 -147 153q-104 0 -179 -87t-106 -244l-108 -578h-273l211 1092h260l-37 -189h5q133 213 356 213q124 0 192 -64t82 -173h4q147 238 396 237q174 0 250 -117t32 -333
l-129 -666h-268l121 627q16 78 16 129z" />
    <glyph glyph-name="n" unicode="n" horiz-adv-x="1267" 
d="M860 1116q174 0 251 -116t34 -332l-127 -668h-270l120 627q16 76 17 129q0 154 -152 153q-115 0 -193 -87t-106 -244l-108 -578h-273l211 1092h260l-37 -189h5q59 97 154 155t214 58z" />
    <glyph glyph-name="o" unicode="o" horiz-adv-x="1204" 
d="M862 700q0 90 -45 160t-153 70t-183 -91q-129 -159 -129 -431q0 -246 201 -246q88 0 153 55t96 142q60 163 60 341zM543 -29q-217 0 -341 120q-124 121 -124 315q0 407 267 608q138 104 341 104t327 -122t124 -326q0 -289 -160 -494t-434 -205z" />
    <glyph glyph-name="p" unicode="p" horiz-adv-x="1271" 
d="M852 1116q172 0 261 -115t89 -313q0 -256 -123 -472q-61 -108 -170 -176t-230 -67t-205 51t-116 138h-4l-104 -547h-273l287 1477h262l-34 -181h2q55 93 148 149t210 56zM625 164q102 0 174 86q129 154 129 432q0 238 -185 238q-111 0 -195 -83t-106 -208l-26 -127
q-29 -141 21 -240q51 -98 188 -98z" />
    <glyph glyph-name="q" unicode="q" horiz-adv-x="1275" 
d="M539 166q115 0 197 82t108 211l24 125q31 147 -14 242q-46 96 -164 96t-194 -84q-140 -155 -140 -437q1 -235 183 -235zM82 392q0 399 243 612q128 113 304 112q231 0 305 -188h4l33 164h262l-287 -1477h-270l102 535h-4q-121 -176 -311 -176t-286 117q-95 118 -95 301z
" />
    <glyph glyph-name="r" unicode="r" horiz-adv-x="833" 
d="M809 846q-164 0 -258 -75t-129 -247l-100 -524h-269l211 1092h256l-45 -226h6q63 115 163 180t222 64h13l-50 -264h-20z" />
    <glyph glyph-name="s" unicode="s" horiz-adv-x="1052" 
d="M571 936q-76 0 -128 -37t-52 -93t30 -86t101 -46l131 -31q151 -35 217 -109t66 -188q0 -176 -128 -275t-326 -99t-326 83q-127 84 -121 271h250q-4 -84 48 -128t144 -44t150 36q57 37 57 113q0 94 -139 127l-127 31q-143 35 -211 105t-68 194q0 170 127 264
q126 94 314 94t300 -83t103 -247h-244q4 72 -44 110t-124 38z" />
    <glyph glyph-name="t" unicode="t" horiz-adv-x="778" 
d="M471 -16q-365 0 -295 358l107 553h-166l39 192h28q102 1 146 45t71 189l17 80h229l-61 -309h245l-38 -197h-244l-105 -533q-20 -98 6 -134t111 -35l94 10l-41 -205q-129 -14 -143 -14z" />
    <glyph glyph-name="u" unicode="u" horiz-adv-x="1253" 
d="M535 182q111 0 185 89t107 253l111 568h270l-213 -1092h-258l37 186h-4q-131 -209 -350 -209q-184 0 -262 114t-35 331l129 670h270l-121 -631q-14 -80 -14 -123q-4 -156 148 -156z" />
    <glyph glyph-name="v" unicode="v" horiz-adv-x="1105" 
d="M319 0l-174 1092h265l77 -588l21 -238h4q47 121 100 228l303 598h267l-582 -1092h-281z" />
    <glyph glyph-name="w" unicode="w" horiz-adv-x="1669" 
d="M246 0l-109 1092h252l41 -590l4 -232h4q45 125 90 219l291 603h236l61 -598l12 -226h5q39 127 79 217l271 607h246l-508 -1092h-265l-55 547l-14 264h-4q-57 -145 -107 -250l-266 -561h-264z" />
    <glyph glyph-name="x" unicode="x" horiz-adv-x="1099" 
d="M-76 0l475 584l-233 508h280l146 -351h4l262 351h289l-434 -533l260 -559h-289l-164 399h-4l-301 -399h-291z" />
    <glyph glyph-name="y" unicode="y" horiz-adv-x="1110" 
d="M334 2l-180 1090h270l80 -613l14 -207h4q37 94 84 193l301 627h271l-613 -1166q-96 -184 -196 -258t-279 -76q-104 0 -156 21l41 203q41 -12 115 -12t125 34q51 35 96 121z" />
    <glyph glyph-name="z" unicode="z" horiz-adv-x="1079" 
d="M190 885l41 207h861l-37 -197l-695 -686h570l-41 -209h-893l37 197l692 688h-535z" />
    <glyph glyph-name="braceleft" unicode="{" horiz-adv-x="813" 
d="M170 588h-57l41 196h55q79 0 111 30t49 114l69 366q37 199 165 275t368 53l-33 -166q-148 8 -208 -41t-83 -172l-61 -328q-18 -100 -60 -152t-143 -69v-8q154 -43 104 -266l-59 -299q-26 -125 20 -171t193 -59l-35 -165q-238 8 -337 99t-58 302l59 309q16 80 -8 116
t-92 36z" />
    <glyph glyph-name="bar" unicode="|" horiz-adv-x="571" 
d="M39 -266l367 1880h192l-367 -1880h-192z" />
    <glyph glyph-name="braceright" unicode="}" horiz-adv-x="833" 
d="M711 766h57l-39 -199h-57q-78 1 -110 -29t-48 -112l-72 -369q-36 -199 -164 -275t-368 -52l33 168q145 -8 207 41q61 49 83 170l56 301q23 110 67 174t142 73v9q-154 43 -105 266l60 299q25 125 -19 171t-192 58l32 166q240 -8 338 -100t58 -309l-60 -302q-16 -77 8 -113
t93 -36z" />
    <glyph glyph-name="asciitilde" unicode="~" horiz-adv-x="917" 
d="M350 870q72 0 157 -55t116 -55q82 0 104 112h184q-20 -156 -93 -238t-195 -83q-72 0 -162 55q-90 56 -125 56t-64 -29t-36 -84h-183q23 147 97 234t200 87z" />
    <glyph glyph-name="uni00A0" unicode="&#xa0;" horiz-adv-x="419" 
 />
    <glyph glyph-name="exclamdown" unicode="&#xa1;" horiz-adv-x="608" 
d="M324 1376h311l-55 -286h-312zM492 883l-175 -1121h-311l279 1121h207z" />
    <glyph glyph-name="cent" unicode="&#xa2;" horiz-adv-x="1161" 
d="M80 430q0 270 148 470t415 216l35 184h145l-37 -190q160 -23 246 -123t82 -266h-258q6 164 -104 207l-152 -774q92 12 146 78t69 155h256q-29 -197 -169 -305t-337 -111l-41 -209h-145l43 222q-162 32 -252 146t-90 300zM346 424q0 -193 113 -250l147 758
q-86 -25 -147 -111q-113 -159 -113 -397z" />
    <glyph glyph-name="sterling" unicode="&#xa3;" horiz-adv-x="1284" 
d="M866 1540q244 0 360 -126t79 -331h-267q18 123 -30 192q-49 69 -162 68q-142 0 -206 -106t-40 -283l18 -145h420l-34 -180h-365q4 -125 -42 -212t-161 -167l-28 -21v-4h725l-43 -225h-1041l33 172l74 49q94 63 139 107q108 106 84 301h-225l34 180h162l-14 92
q-45 289 94 464t436 175z" />
    <glyph glyph-name="currency" unicode="&#xa4;" horiz-adv-x="1292" 
d="M268 711q0 98 43 180l-186 184l156 156l184 -187q82 43 178 43t184 -47l189 195l153 -154l-194 -190q45 -84 45 -181t-45 -178l190 -186l-153 -156l-189 191q-80 -43 -180 -43t-178 41l-186 -191l-154 154l188 186q-45 85 -45 183zM446 712q0 -92 54 -152t144 -60
q89 0 143 59q55 59 55 153t-54 153q-54 61 -144 61t-144 -60t-54 -154z" />
    <glyph glyph-name="yen" unicode="&#xa5;" horiz-adv-x="1271" 
d="M393 0l64 326h-396l31 151h393l35 174h-399l29 152h366l-285 715h285l193 -535h4l399 535h301l-563 -715h364l-28 -152h-402l-32 -174h403l-29 -151h-403l-64 -326h-266z" />
    <glyph glyph-name="brokenbar" unicode="&#xa6;" horiz-adv-x="583" 
d="M225 -266h-190l168 868h192zM592 1614l-160 -826h-192l161 826h191z" />
    <glyph glyph-name="section" unicode="&#xa7;" horiz-adv-x="1243" 
d="M129 682q0 238 266 313v2q-70 88 -69 195q0 170 123 269t316 99t309 -96q116 -98 102 -247h-248q6 73 -36 117t-125 44t-132 -39t-49 -101t26 -94t88 -67l236 -131q111 -61 163 -131t52 -168q2 -246 -262 -321v-2q59 -66 63 -179q0 -180 -132 -279t-335 -99t-317 96
t-100 264h241q-6 -82 41 -130q46 -48 136 -48t148 39q58 40 58 118t-92 132l-242 137q-119 67 -174 135t-55 172zM375 746q-1 -56 23 -88t81 -64l266 -154q70 6 114 45t44 107q0 86 -119 151l-200 113q-35 21 -47 31q-68 -6 -115 -45q-47 -40 -47 -96z" />
    <glyph glyph-name="dieresis" unicode="&#xa8;" horiz-adv-x="741" 
d="M199 1311l49 252h241l-49 -252h-241zM608 1311l49 252h242l-49 -252h-242z" />
    <glyph glyph-name="copyright" unicode="&#xa9;" horiz-adv-x="1843" 
d="M894 346q-160 0 -254 90q-95 90 -95 256q0 217 124 376t341 159q160 0 242 -79t79 -226h-194q6 152 -138 151q-84 0 -144 -61q-110 -112 -110 -312q0 -201 164 -200q80 0 132 48t65 118h190q-26 -154 -134 -237t-268 -83zM956 84q289 0 483 200q193 200 193 494t-193 496
q-194 201 -483 201q-290 0 -482 -200t-192 -496q0 -295 193 -495q192 -200 481 -200zM150 778q0 346 230 580t576 233q346 0 578 -233q232 -232 231 -578q0 -346 -231 -579q-232 -233 -578 -233t-576 232t-230 578z" />
    <glyph glyph-name="ordfeminine" unicode="&#xaa;" horiz-adv-x="993" 
d="M696 780q-90 -139 -284 -139q-100 0 -170 61q-68 61 -68 166q0 178 166 252q117 51 414 58l8 36q16 86 -11 125q-28 39 -104 39q-125 1 -141 -114h-227q18 126 118 200q99 74 277 74t261 -90t50 -254l-57 -291q-8 -47 3 -65t50 -19l-35 -168h-45q-104 0 -146 27t-55 102
h-4zM516 797q66 0 129 56t82 169l4 27q-205 0 -270 -50q-53 -33 -53 -106q-1 -96 108 -96z" />
    <glyph glyph-name="guillemotleft" unicode="&#xab;" horiz-adv-x="1091" 
d="M416 950h215l-293 -422l125 -411h-213l-137 424zM846 950h215l-293 -422l123 -411h-209l-137 424z" />
    <glyph glyph-name="logicalnot" unicode="&#xac;" horiz-adv-x="1259" 
d="M143 627l41 211h985l-118 -609h-228l76 398h-756z" />
    <glyph glyph-name="registered" unicode="&#xae;" horiz-adv-x="1005" 
d="M680 1386q66 0 106 -36t35 -93q-2 -104 -112 -135l69 -196h-112l-58 178h-55l-29 -178h-106l74 460h188zM633 1184q82 0 84 71q1 29 -17 43t-53 15h-61l-19 -129h66zM598 772q152 0 258 106t117 263q8 158 -88 264t-248 106t-257 -106q-104 -106 -114 -264
q-10 -157 85 -263t247 -106zM640 1589q190 0 312 -129q121 -129 111 -319q-10 -191 -144 -319q-135 -128 -325 -128t-309 128t-109 319q10 190 142 319t322 129z" />
    <glyph glyph-name="macron" unicode="&#xaf;" horiz-adv-x="655" 
d="M141 1311l37 188h651l-36 -188h-652z" />
    <glyph glyph-name="degree" unicode="&#xb0;" horiz-adv-x="884" 
d="M568 1018q83 0 135 56q51 56 53 144t-49 143q-51 56 -135 56t-135 -56q-52 -56 -53 -143q-1 -88 50 -144t134 -56zM566 877q-148 -1 -244 97t-93 244q1 146 99 243t245 97t245 -96q98 -98 95 -246q-2 -148 -100 -244q-99 -95 -247 -95z" />
    <glyph glyph-name="plusminus" unicode="&#xb1;" horiz-adv-x="1290" 
d="M51 0l39 209h983l-39 -209h-983zM799 741l-70 -364h-229l71 364h-376l41 209h376l70 361h227l-69 -361h377l-41 -209h-377z" />
    <glyph glyph-name="twosuperior" unicode="&#xb2;" horiz-adv-x="831" 
d="M446 942h388l-29 -154h-694l22 115l391 307q10 8 38 30t36 29t30 23t28 24t19 21t18 23t13 27t9 57q0 40 -31 66t-84 26q-138 0 -156 -154h-194q12 140 111 220t246 80t227 -58q80 -56 80 -164t-62 -185q-61 -77 -178 -161l-228 -170v-2z" />
    <glyph glyph-name="threesuperior" unicode="&#xb3;" horiz-adv-x="847" 
d="M561 1169h-106l26 129h99q68 0 110 38t43 92q0 54 -33 82q-33 26 -86 26q-131 0 -151 -127h-197q12 117 106 195t246 78q150 0 232 -59t82 -155t-54 -153t-141 -78v-4q145 -43 145 -179t-104 -210t-268 -74t-251 71t-77 203h195q0 -127 141 -126q74 0 118 40t44 101
q0 110 -119 110z" />
    <glyph glyph-name="acute" unicode="&#xb4;" horiz-adv-x="741" 
d="M354 1266l166 348h281l-244 -348h-203z" />
    <glyph glyph-name="paragraph" unicode="&#xb6;" horiz-adv-x="1138" 
d="M172 1133q0 201 137 317t344 117h199l-303 -1567h-184l151 786q-156 4 -250 98t-94 249zM1014 1567h184l-303 -1567h-184z" />
    <glyph glyph-name="periodcentered" unicode="&#xb7;" horiz-adv-x="686" 
d="M176 537l57 299h308l-58 -299h-307z" />
    <glyph glyph-name="cedilla" unicode="&#xb8;" horiz-adv-x="1013" 
d="M590 -263q0 -77 -65 -132t-162 -55t-152 36q-55 37 -51 115h141q6 -45 57 -45q76 0 76 74q0 61 -55 61q-39 0 -60 -24h-124l153 280h107l-97 -180h4q34 25 92 25t97 -40q39 -38 39 -115z" />
    <glyph glyph-name="onesuperior" unicode="&#xb9;" horiz-adv-x="587" 
d="M276 1520q82 0 140 34q51 37 69 117h183l-185 -883h-200l123 588h-189l29 144h30z" />
    <glyph glyph-name="ordmasculine" unicode="&#xba;" horiz-adv-x="960" 
d="M780 1200q0 66 -36 117t-108 51q-185 0 -233 -258q-12 -63 -12 -125q0 -182 154 -182q68 0 117 41t73 104q45 113 45 252zM516 635q-166 0 -267 95t-102 261q0 219 129 384t357 165q178 -2 280 -98q103 -96 105 -250t-53 -278t-169 -202t-280 -77z" />
    <glyph glyph-name="guillemotright" unicode="&#xbb;" horiz-adv-x="1091" 
d="M692 117h-217l295 422l-123 411h211l135 -422zM254 117h-217l295 422l-123 411h211l135 -422z" />
    <glyph glyph-name="onequarter" unicode="&#xbc;" horiz-adv-x="1738" 
d="M1606 193h-115l-41 -193h-186l41 193h-449l29 139l514 549h237l-112 -535h114zM1083 336h256l86 397h-6q-33 -72 -110 -153zM49 -82l1421 1681h203l-1421 -1681h-203zM256 1417q88 0 139 34t70 116h182l-184 -883h-201l123 588h-188l28 145h31z" />
    <glyph glyph-name="onehalf" unicode="&#xbd;" horiz-adv-x="1835" 
d="M1448 895q148 0 227 -58q80 -59 80 -165t-60 -182t-179 -164l-230 -168v-4h389l-30 -154h-695l23 115l393 307q129 102 156 133q32 45 32 93t-30 75q-31 27 -82 27q-138 0 -156 -156h-196q14 143 112 222t246 79zM256 1417q88 0 139 34t70 116h182l-184 -883h-201
l123 588h-188l28 145h31zM35 -82l1421 1681h203l-1421 -1681h-203z" />
    <glyph glyph-name="threequarters" unicode="&#xbe;" horiz-adv-x="1931" 
d="M1798 193h-115l-41 -193h-186l41 193h-448l28 139l514 549h238l-113 -535h115zM1276 336h256l86 397h-6q-33 -72 -111 -153zM270 -82l1422 1681h202l-1421 -1681h-203zM541 1065h-107l27 129h98q66 0 110 39t44 92t-33 81t-86 28q-131 0 -152 -127h-196q12 117 106 195
t244 77q150 0 233 -58q82 -59 82 -155t-54 -154t-140 -79v-5q145 -41 145 -177t-104 -211q-104 -74 -268 -74t-252 72q-86 72 -76 204h194q0 -127 142 -127q74 0 118 40t43 99q1 111 -118 111z" />
    <glyph glyph-name="questiondown" unicode="&#xbf;" horiz-adv-x="1171" 
d="M879 1376l-56 -286h-311l55 286h312zM256 158q0 -90 57 -144t160 -53q266 0 287 322h260q-10 -249 -156 -393t-407 -144q-211 0 -340 108t-129 270t69 261q70 100 201 190l125 87q61 43 81 70q19 28 34 89l14 74h244l-25 -121q-20 -104 -55 -154t-137 -120l-123 -82
q-160 -104 -160 -260z" />
    <glyph glyph-name="Agrave" unicode="&#xc0;" horiz-adv-x="1511" 
d="M981 1966l86 -272h-199l-149 272h262zM1073 0l-61 393h-580l-199 -393h-276l815 1567h315l267 -1567h-281zM885 1319h-4q-12 -49 -107 -238l-237 -479h442l-70 475q-16 106 -24 213v29z" />
    <glyph glyph-name="Aacute" unicode="&#xc1;" horiz-adv-x="1511" 
d="M840 1694l168 272h278l-246 -272h-200zM1073 0l-61 393h-580l-199 -393h-276l815 1567h315l267 -1567h-281zM885 1319h-4q-12 -49 -107 -238l-237 -479h442l-70 475q-16 106 -24 213v29z" />
    <glyph glyph-name="Acircumflex" unicode="&#xc2;" horiz-adv-x="1511" 
d="M1106 1966l160 -272h-197l-102 129h-2l-148 -129h-203l248 272h244zM1073 0l-61 393h-580l-199 -393h-276l815 1567h315l267 -1567h-281zM885 1319h-4q-12 -49 -107 -238l-237 -479h442l-70 475q-16 106 -24 213v29z" />
    <glyph glyph-name="Atilde" unicode="&#xc3;" horiz-adv-x="1511" 
d="M1132 1876q38 0 64 26q25 26 45 87h150q-16 -131 -88 -216t-189 -85q-78 0 -159 54t-113 54q-70 0 -113 -113h-147q16 125 91 214t197 90q70 1 147 -55t115 -56zM1073 0l-61 393h-580l-199 -393h-276l815 1567h315l267 -1567h-281zM885 1319h-4q-12 -49 -107 -238
l-237 -479h442l-70 475q-16 106 -24 213v29z" />
    <glyph glyph-name="Adieresis" unicode="&#xc4;" horiz-adv-x="1511" 
d="M618 1692l50 252h241l-49 -252h-242zM1051 1692l49 252h241l-49 -252h-241zM1073 0l-61 393h-580l-199 -393h-276l815 1567h315l267 -1567h-281zM885 1319h-4q-12 -49 -107 -238l-237 -479h442l-70 475q-16 106 -24 213v29z" />
    <glyph glyph-name="Aring" unicode="&#xc5;" horiz-adv-x="1511" 
d="M866 1871q0 -116 102 -116q50 0 82 38t31 101q0 109 -100 109q-51 0 -83 -38t-32 -94zM982 2120q116 0 180 -60t65 -170q1 -108 -73 -180t-193 -72q-109 4 -176 62t-67 166q0 110 75 182q73 72 189 72zM1073 0l-61 393h-580l-199 -393h-276l815 1567h315l267 -1567h-281z
M885 1319h-4q-12 -49 -107 -238l-237 -479h442l-70 475q-16 106 -24 213v29z" />
    <glyph glyph-name="AE" unicode="&#xc6;" horiz-adv-x="2121" 
d="M874 0l78 408h-503l-248 -408h-301l968 1567h1301l-43 -226h-713l-86 -446h670l-43 -219h-670l-88 -453h733l-43 -223h-1012zM993 618l140 723h-129q-76 -145 -136 -241l-293 -482h418z" />
    <glyph glyph-name="Ccedilla" unicode="&#xc7;" horiz-adv-x="1552" 
d="M895 -263q-1 -77 -65 -133t-162 -55q-211 0 -203 152h141q6 -45 58 -45q76 0 75 74q0 61 -55 61q-37 0 -59 -24h-125l116 213q-225 40 -346 202t-120 434q0 374 203 661q99 140 261 226t363 86q253 0 405 -132t154 -398h-287q-4 153 -78 235q-75 82 -211 81t-242 -77
t-162 -198q-112 -242 -112 -522q0 -172 80 -285t245 -113q315 0 398 336h283q-49 -258 -230 -403t-450 -146q-35 0 -51 2l-55 -102h4q35 25 92 25t96 -40q39 -38 39 -115z" />
    <glyph glyph-name="Egrave" unicode="&#xc8;" horiz-adv-x="1318" 
d="M74 0l303 1567h989l-43 -226h-711l-86 -446h668l-43 -219h-668l-88 -453h733l-43 -223h-1011zM926 1966l86 -272h-199l-149 272h262z" />
    <glyph glyph-name="Eacute" unicode="&#xc9;" horiz-adv-x="1318" 
d="M74 0l303 1567h989l-43 -226h-711l-86 -446h668l-43 -219h-668l-88 -453h733l-43 -223h-1011zM784 1694l168 272h279l-246 -272h-201z" />
    <glyph glyph-name="Ecircumflex" unicode="&#xca;" horiz-adv-x="1318" 
d="M74 0l303 1567h989l-43 -226h-711l-86 -446h668l-43 -219h-668l-88 -453h733l-43 -223h-1011zM1067 1966l160 -272h-197l-102 129h-2l-148 -129h-203l248 272h244z" />
    <glyph glyph-name="Edieresis" unicode="&#xcb;" horiz-adv-x="1318" 
d="M563 1692l49 252h242l-49 -252h-242zM995 1692l49 252h242l-49 -252h-242zM74 0l303 1567h989l-43 -226h-711l-86 -446h668l-43 -219h-668l-88 -453h733l-43 -223h-1011z" />
    <glyph glyph-name="Igrave" unicode="&#xcc;" horiz-adv-x="626" 
d="M567 1966l86 -272h-198l-150 272h262zM76 0l303 1567h278l-303 -1567h-278z" />
    <glyph glyph-name="Iacute" unicode="&#xcd;" horiz-adv-x="626" 
d="M426 1694l168 272h278l-245 -272h-201zM76 0l303 1567h278l-303 -1567h-278z" />
    <glyph glyph-name="Icircumflex" unicode="&#xce;" horiz-adv-x="626" 
d="M709 1966l159 -272h-196l-103 129h-2l-147 -129h-203l248 272h244zM76 0l303 1567h278l-303 -1567h-278z" />
    <glyph glyph-name="Idieresis" unicode="&#xcf;" horiz-adv-x="626" 
d="M205 1692l49 252h242l-50 -252h-241zM637 1692l49 252h242l-49 -252h-242zM76 0l303 1567h278l-303 -1567h-278z" />
    <glyph glyph-name="Eth" unicode="&#xd0;" horiz-adv-x="1570" 
d="M670 221q129 0 231 49t163 125q169 214 169 563q0 389 -387 390h-213l-88 -457h368l-39 -205h-370l-90 -465h256zM645 0h-551l131 686h-157l38 205h160l129 676h477q302 0 478 -159t176 -464q0 -396 -214 -663q-104 -131 -276 -206t-391 -75z" />
    <glyph glyph-name="Ntilde" unicode="&#xd1;" horiz-adv-x="1576" 
d="M74 0l303 1567h307l371 -983q31 -82 55 -178l4 -25h6l230 1186h254l-304 -1567h-288l-381 991q-33 83 -62 185l-4 22h-6l-231 -1198h-254zM1190 1876q40 0 64 26t44 87h150q-16 -131 -88 -216t-189 -85q-79 0 -159 54t-113 54q-70 0 -113 -113h-147q16 125 91 214t198 90
q70 1 146 -55t116 -56z" />
    <glyph glyph-name="Ograve" unicode="&#xd2;" horiz-adv-x="1644" 
d="M1298 1004q0 150 -80 262q-81 113 -255 112q-137 0 -243 -80t-164 -206q-116 -252 -116 -521q0 -167 82 -279t262 -112q131 0 236 80q104 80 162 205q116 255 116 539zM992 1589q262 0 432 -170q170 -171 168 -447q-1 -276 -91 -495t-280 -364t-459 -145t-441 164
q-172 166 -173 452q-2 286 100 512t292 360q190 133 452 133zM1067 1966l86 -272h-199l-149 272h262z" />
    <glyph glyph-name="Oacute" unicode="&#xd3;" horiz-adv-x="1644" 
d="M1298 1004q0 150 -80 262q-81 113 -255 112q-137 0 -243 -80t-164 -206q-116 -252 -116 -521q0 -167 82 -279t262 -112q131 0 236 80q104 80 162 205q116 255 116 539zM992 1589q262 0 432 -170q170 -171 168 -447q-1 -276 -91 -495t-280 -364t-459 -145t-441 164
q-172 166 -173 452q-2 286 100 512t292 360q190 133 452 133zM928 1694l168 272h278l-246 -272h-200z" />
    <glyph glyph-name="Ocircumflex" unicode="&#xd4;" horiz-adv-x="1644" 
d="M1298 1004q0 150 -80 262q-81 113 -255 112q-137 0 -243 -80t-164 -206q-116 -252 -116 -521q0 -167 82 -279t262 -112q131 0 236 80q104 80 162 205q116 255 116 539zM992 1589q262 0 432 -170q170 -171 168 -447q-1 -276 -91 -495t-280 -364t-459 -145t-441 164
q-172 166 -173 452q-2 286 100 512t292 360q190 133 452 133zM1208 1966l160 -272h-197l-102 129h-2l-147 -129h-203l248 272h243z" />
    <glyph glyph-name="Otilde" unicode="&#xd5;" horiz-adv-x="1644" 
d="M1298 1004q0 150 -80 262q-81 113 -255 112q-137 0 -243 -80t-164 -206q-116 -252 -116 -521q0 -167 82 -279t262 -112q131 0 236 80q104 80 162 205q116 255 116 539zM992 1589q262 0 432 -170q170 -171 168 -447q-1 -276 -91 -495t-280 -364t-459 -145t-441 164
q-172 166 -173 452q-2 286 100 512t292 360q190 133 452 133zM1212 1876q38 0 64 26q25 26 45 87h149q-16 -131 -88 -216t-188 -85q-78 0 -159 54t-113 54q-70 0 -113 -113h-147q16 125 91 214t197 90q70 1 147 -55t115 -56z" />
    <glyph glyph-name="Odieresis" unicode="&#xd6;" horiz-adv-x="1644" 
d="M1298 1004q0 150 -80 262q-81 113 -255 112q-137 0 -243 -80t-164 -206q-116 -252 -116 -521q0 -167 82 -279t262 -112q131 0 236 80q104 80 162 205q116 255 116 539zM992 1589q262 0 432 -170q170 -171 168 -447q-1 -276 -91 -495t-280 -364t-459 -145t-441 164
q-172 166 -173 452q-2 286 100 512t292 360q190 133 452 133zM707 1692l49 252h241l-49 -252h-241zM1139 1692l49 252h242l-50 -252h-241z" />
    <glyph glyph-name="multiply" unicode="&#xd7;" horiz-adv-x="1306" 
d="M283 217l-133 174l387 330l-271 340l180 153l267 -342l383 338l139 -174l-391 -329l274 -349l-182 -151l-264 348z" />
    <glyph glyph-name="Oslash" unicode="&#xd8;" horiz-adv-x="1644" 
d="M147 596q-1 274 101 500t292 360q190 133 441 133q252 0 416 -145l170 174h211l-283 -291q98 -155 97 -393t-91 -457t-280 -364t-458 -145t-435 157l-172 -178h-209l286 297q-86 147 -86 352zM784 178q109 0 199 55q157 96 239 314t85 432q0 74 -13 141l-794 -819
q85 -123 284 -123zM963 1380q-139 0 -248 -82t-167 -210q-116 -255 -116 -517q0 -53 10 -114l787 813q-84 110 -266 110z" />
    <glyph glyph-name="Ugrave" unicode="&#xd9;" horiz-adv-x="1523" 
d="M474 294q64 -99 255 -99q192 0 292 129q9 12 18 29t15 27t13 34q6 24 10 32q5 8 13 48t13 68t7 34l186 971h277l-203 -1051q-104 -547 -655 -547q-313 0 -460 158q-146 158 -85 475l186 965h281l-180 -922q-47 -252 17 -351zM1004 1966l86 -272h-199l-150 272h263z" />
    <glyph glyph-name="Uacute" unicode="&#xda;" horiz-adv-x="1523" 
d="M474 294q64 -99 255 -99q192 0 292 129q9 12 18 29t15 27t13 34q6 24 10 32q5 8 13 48t13 68t7 34l186 971h277l-203 -1051q-104 -547 -655 -547q-313 0 -460 158q-146 158 -85 475l186 965h281l-180 -922q-47 -252 17 -351zM862 1694l168 272h279l-246 -272h-201z" />
    <glyph glyph-name="Ucircumflex" unicode="&#xdb;" horiz-adv-x="1523" 
d="M474 294q64 -99 255 -99q192 0 292 129q9 12 18 29t15 27t13 34q6 24 10 32q5 8 13 48t13 68t7 34l186 971h277l-203 -1051q-104 -547 -655 -547q-313 0 -460 158q-146 158 -85 475l186 965h281l-180 -922q-47 -252 17 -351zM1143 1966l160 -272h-197l-102 129h-3
l-147 -129h-203l248 272h244z" />
    <glyph glyph-name="Udieresis" unicode="&#xdc;" horiz-adv-x="1523" 
d="M641 1692l49 252h242l-49 -252h-242zM1073 1692l49 252h242l-49 -252h-242zM474 294q64 -99 255 -99q192 0 292 129q9 12 18 29t15 27t13 34q6 24 10 32q5 8 13 48t13 68t7 34l186 971h277l-203 -1051q-104 -547 -655 -547q-313 0 -460 158q-146 158 -85 475l186 965h281
l-180 -922q-47 -252 17 -351z" />
    <glyph glyph-name="Yacute" unicode="&#xdd;" horiz-adv-x="1368" 
d="M797 1694l168 272h278l-246 -272h-200zM440 0l133 680l-348 887h299l234 -654h4l489 654h297l-704 -922l-125 -645h-279z" />
    <glyph glyph-name="Thorn" unicode="&#xde;" horiz-adv-x="1304" 
d="M702 330h-286l-64 -330h-278l303 1567h280l-57 -295h195q233 0 369 -106t132 -322q-2 -254 -166 -384t-428 -130zM748 1069h-187l-104 -532h252q143 3 227 79t86 208t-69 189q-71 56 -205 56z" />
    <glyph glyph-name="germandbls" unicode="&#xdf;" horiz-adv-x="1271" 
d="M781 1616q202 0 318 -99t113 -276q0 -143 -75 -246q-76 -102 -211 -143v-6q110 -29 178 -119t67 -223q0 -233 -160 -369q-161 -135 -433 -135h-113l39 209h76q143 0 230 79t87 204q0 126 -61 192t-170 66h-27l39 202h29q123 0 189 75t65 183q1 108 -49 161
q-50 54 -134 54q-190 0 -241 -256l-226 -1169h-268l223 1171q41 215 177 330t338 115z" />
    <glyph glyph-name="agrave" unicode="&#xe0;" horiz-adv-x="1155" 
d="M698 1614l101 -348h-201l-170 348h270zM654 1116q222 0 320 -123q97 -123 56 -331l-69 -357q-12 -61 7 -87t70 -23l-39 -199h-65q-197 0 -219 156h-6q-68 -84 -143 -125q-76 -41 -206 -41t-226 80q-95 80 -95 229q0 260 301 332q115 29 428 32l10 54q20 104 -20 160
q-41 56 -137 57q-175 0 -191 -154h-264q18 162 142 251t346 89zM309 314q0 -68 41 -106t125 -38t156 80t100 221l6 31q-195 -4 -267 -20t-117 -58q-44 -43 -44 -110z" />
    <glyph glyph-name="aacute" unicode="&#xe1;" horiz-adv-x="1155" 
d="M575 1266l166 348h281l-244 -348h-203zM654 1116q222 0 320 -123q97 -123 56 -331l-69 -357q-12 -61 7 -87t70 -23l-39 -199h-65q-197 0 -219 156h-6q-68 -84 -143 -125q-76 -41 -206 -41t-226 80q-95 80 -95 229q0 260 301 332q115 29 428 32l10 54q20 104 -20 160
q-41 56 -137 57q-175 0 -191 -154h-264q18 162 142 251t346 89zM309 314q0 -68 41 -106t125 -38t156 80t100 221l6 31q-195 -4 -267 -20t-117 -58q-44 -43 -44 -110z" />
    <glyph glyph-name="acircumflex" unicode="&#xe2;" horiz-adv-x="1155" 
d="M868 1614l144 -348h-193l-96 176l-154 -176h-202l272 348h229zM654 1116q222 0 320 -123q97 -123 56 -331l-69 -357q-12 -61 7 -87t70 -23l-39 -199h-65q-197 0 -219 156h-6q-68 -84 -143 -125q-76 -41 -206 -41t-226 80q-95 80 -95 229q0 260 301 332q115 29 428 32
l10 54q20 104 -20 160q-41 56 -137 57q-175 0 -191 -154h-264q18 162 142 251t346 89zM309 314q0 -68 41 -106t125 -38t156 80t100 221l6 31q-195 -4 -267 -20t-117 -58q-44 -43 -44 -110z" />
    <glyph glyph-name="atilde" unicode="&#xe3;" horiz-adv-x="1155" 
d="M602 1579q66 0 147 -55t113 -56q74 0 107 113h145q-14 -137 -83 -226t-193 -89q-66 0 -150 56t-117 56q-72 0 -102 -114h-145q12 137 83 226t195 89zM654 1116q222 0 320 -123q97 -123 56 -331l-69 -357q-12 -61 7 -87t70 -23l-39 -199h-65q-197 0 -219 156h-6
q-68 -84 -143 -125q-76 -41 -206 -41t-226 80q-95 80 -95 229q0 260 301 332q115 29 428 32l10 54q20 104 -20 160q-41 56 -137 57q-175 0 -191 -154h-264q18 162 142 251t346 89zM309 314q0 -68 41 -106t125 -38t156 80t100 221l6 31q-195 -4 -267 -20t-117 -58
q-44 -43 -44 -110z" />
    <glyph glyph-name="adieresis" unicode="&#xe4;" horiz-adv-x="1155" 
d="M371 1311l49 252h242l-50 -252h-241zM780 1311l49 252h242l-49 -252h-242zM654 1116q222 0 320 -123q97 -123 56 -331l-69 -357q-12 -61 7 -87t70 -23l-39 -199h-65q-197 0 -219 156h-6q-68 -84 -143 -125q-76 -41 -206 -41t-226 80q-95 80 -95 229q0 260 301 332
q115 29 428 32l10 54q20 104 -20 160q-41 56 -137 57q-175 0 -191 -154h-264q18 162 142 251t346 89zM309 314q0 -68 41 -106t125 -38t156 80t100 221l6 31q-195 -4 -267 -20t-117 -58q-44 -43 -44 -110z" />
    <glyph glyph-name="aring" unicode="&#xe5;" horiz-adv-x="1155" 
d="M838 1496q0 116 -101 116q-51 0 -83 -38t-32 -94q1 -116 99 -116q53 0 85 38t32 94zM738 1729q116 -1 181 -61t65 -169t-74 -179t-186 -70t-181 58q-68 58 -68 166t74 182q73 73 189 73zM654 1116q222 0 320 -123q97 -123 56 -331l-69 -357q-12 -61 7 -87t70 -23
l-39 -199h-65q-197 0 -219 156h-6q-68 -84 -143 -125q-76 -41 -206 -41t-226 80q-95 80 -95 229q0 260 301 332q115 29 428 32l10 54q20 104 -20 160q-41 56 -137 57q-175 0 -191 -154h-264q18 162 142 251t346 89zM309 314q0 -68 41 -106t125 -38t156 80t100 221l6 31
q-195 -4 -267 -20t-117 -58q-44 -43 -44 -110z" />
    <glyph glyph-name="ae" unicode="&#xe6;" horiz-adv-x="1824" 
d="M378 -12q-150 0 -245 78q-94 78 -94 225q0 264 297 336q119 29 432 32l10 54q20 104 -21 160q-42 56 -139 57q-170 0 -190 -154h-262q16 162 141 251t332 89q238 0 326 -176h2q141 178 383 178t338 -162q98 -162 53 -401l-15 -76h-718q-2 -20 -2 -63q0 -254 208 -254
q170 0 211 145h263q-37 -162 -163 -245t-321 -82q-293 0 -399 215h-4q-84 -99 -179 -153q-94 -54 -244 -54zM309 315q0 -145 166 -145q86 0 156 77t100 224l6 31q-195 -4 -269 -20q-158 -32 -159 -167zM1323 938q-102 0 -175 -80t-110 -209h453l2 13q43 276 -170 276z" />
    <glyph glyph-name="ccedilla" unicode="&#xe7;" horiz-adv-x="1161" 
d="M676 -263q0 -77 -64 -133t-162 -55q-211 0 -204 152h141q6 -45 57 -45q76 0 76 74q0 61 -55 61q-39 0 -59 -24h-125l120 221q-153 38 -237 150t-84 292q0 284 161 486t445 202q203 0 318 -103t110 -294h-266q4 92 -40 149t-136 60q-152 0 -235 -159t-83 -349
q0 -116 52 -186t157 -71q106 -1 168 63q61 65 78 159h262q-29 -199 -173 -307t-345 -109q-35 0 -51 2l-58 -106h5q35 25 92 25t96 -40q39 -38 39 -115z" />
    <glyph glyph-name="egrave" unicode="&#xe8;" horiz-adv-x="1169" 
d="M739 1614l101 -348h-201l-170 348h270zM530 -29q-206 0 -330 123q-124 122 -124 316q0 410 273 607q139 101 319 101t284 -81q199 -155 133 -482l-14 -76h-721q-2 -20 -2 -63q0 -113 50 -183t159 -69q172 0 209 143h266q-37 -162 -166 -249q-130 -87 -336 -87zM660 938
q-108 0 -180 -79q-71 -79 -103 -210h454l3 13q18 128 -24 202t-150 74z" />
    <glyph glyph-name="eacute" unicode="&#xe9;" horiz-adv-x="1169" 
d="M530 -29q-206 0 -330 123q-124 122 -124 316q0 410 273 607q139 101 319 101t284 -81q199 -155 133 -482l-14 -76h-721q-2 -20 -2 -63q0 -113 50 -183t159 -69q172 0 209 143h266q-37 -162 -166 -249q-130 -87 -336 -87zM660 938q-108 0 -180 -79q-71 -79 -103 -210h454
l3 13q18 128 -24 202t-150 74zM616 1266l166 348h281l-244 -348h-203z" />
    <glyph glyph-name="ecircumflex" unicode="&#xea;" horiz-adv-x="1169" 
d="M530 -29q-206 0 -330 123q-124 122 -124 316q0 410 273 607q139 101 319 101t284 -81q199 -155 133 -482l-14 -76h-721q-2 -20 -2 -63q0 -113 50 -183t159 -69q172 0 209 143h266q-37 -162 -166 -249q-130 -87 -336 -87zM660 938q-108 0 -180 -79q-71 -79 -103 -210h454
l3 13q18 128 -24 202t-150 74zM909 1614l144 -348h-193l-96 176l-154 -176h-202l272 348h229z" />
    <glyph glyph-name="edieresis" unicode="&#xeb;" horiz-adv-x="1169" 
d="M530 -29q-206 0 -330 123q-124 122 -124 316q0 410 273 607q139 101 319 101t284 -81q199 -155 133 -482l-14 -76h-721q-2 -20 -2 -63q0 -113 50 -183t159 -69q172 0 209 143h266q-37 -162 -166 -249q-130 -87 -336 -87zM660 938q-108 0 -180 -79q-71 -79 -103 -210h454
l3 13q18 128 -24 202t-150 74zM414 1311l49 252h242l-50 -252h-241zM823 1311l49 252h242l-49 -252h-242z" />
    <glyph glyph-name="igrave" unicode="&#xec;" horiz-adv-x="581" 
d="M442 1614l101 -348h-201l-170 348h270zM53 0l211 1092h271l-211 -1092h-271z" />
    <glyph glyph-name="iacute" unicode="&#xed;" horiz-adv-x="581" 
d="M53 0l211 1092h271l-211 -1092h-271zM319 1266l166 348h281l-244 -348h-203z" />
    <glyph glyph-name="icircumflex" unicode="&#xee;" horiz-adv-x="581" 
d="M53 0l211 1092h271l-211 -1092h-271zM612 1614l119 -348h-186l-76 176l-135 -176h-201l250 348h229z" />
    <glyph glyph-name="idieresis" unicode="&#xef;" horiz-adv-x="581" 
d="M53 0l211 1092h271l-211 -1092h-271zM162 1311l49 252h209l-49 -252h-209zM514 1311l49 252h209l-49 -252h-209z" />
    <glyph glyph-name="eth" unicode="&#xf0;" horiz-adv-x="1210" 
d="M862 688q0 244 -194 244q-84 0 -149 -52q-105 -84 -151 -316q-46 -231 34 -337q50 -65 144 -65t158 54t97 140q61 159 61 332zM543 -27q-219 0 -342 119t-123 332q0 256 138 465q66 99 176 161t256 62t212 -94h4q-47 158 -162 278l-311 -110l-35 117l244 88
q-96 76 -217 143l219 94q137 -66 238 -151l227 82l41 -117l-172 -62q209 -242 209 -583q0 -403 -164 -613t-438 -211z" />
    <glyph glyph-name="ntilde" unicode="&#xf1;" horiz-adv-x="1267" 
d="M690 1579q66 0 147 -55t113 -56q74 0 107 113h145q-14 -137 -83 -226t-193 -89q-66 0 -150 56t-117 56q-72 0 -102 -114h-145q12 137 83 226t195 89zM860 1116q174 0 251 -116t34 -332l-127 -668h-270l120 627q16 76 17 129q0 154 -152 153q-115 0 -193 -87t-106 -244
l-108 -578h-273l211 1092h260l-37 -189h5q59 97 154 155t214 58z" />
    <glyph glyph-name="ograve" unicode="&#xf2;" horiz-adv-x="1204" 
d="M743 1614l101 -348h-201l-170 348h270zM862 700q0 90 -45 160t-153 70t-183 -91q-129 -159 -129 -431q0 -246 201 -246q88 0 153 55t96 142q60 163 60 341zM543 -29q-217 0 -341 120q-124 121 -124 315q0 407 267 608q138 104 341 104t327 -122t124 -326
q0 -289 -160 -494t-434 -205z" />
    <glyph glyph-name="oacute" unicode="&#xf3;" horiz-adv-x="1204" 
d="M862 700q0 90 -45 160t-153 70t-183 -91q-129 -159 -129 -431q0 -246 201 -246q88 0 153 55t96 142q60 163 60 341zM543 -29q-217 0 -341 120q-124 121 -124 315q0 407 267 608q138 104 341 104t327 -122t124 -326q0 -289 -160 -494t-434 -205zM621 1266l165 348h281
l-244 -348h-202z" />
    <glyph glyph-name="ocircumflex" unicode="&#xf4;" horiz-adv-x="1204" 
d="M862 700q0 90 -45 160t-153 70t-183 -91q-129 -159 -129 -431q0 -246 201 -246q88 0 153 55t96 142q60 163 60 341zM543 -29q-217 0 -341 120q-124 121 -124 315q0 407 267 608q138 104 341 104t327 -122t124 -326q0 -289 -160 -494t-434 -205zM913 1614l144 -348h-193
l-96 176l-154 -176h-202l272 348h229z" />
    <glyph glyph-name="otilde" unicode="&#xf5;" horiz-adv-x="1204" 
d="M645 1579q66 0 147 -55t113 -56q74 0 107 113h145q-14 -137 -83 -226t-193 -89q-66 0 -150 56t-117 56q-72 0 -102 -114h-145q12 137 83 226t195 89zM862 700q0 90 -45 160t-153 70t-183 -91q-129 -159 -129 -431q0 -246 201 -246q88 0 153 55t96 142q60 163 60 341z
M543 -29q-217 0 -341 120q-124 121 -124 315q0 407 267 608q138 104 341 104t327 -122t124 -326q0 -289 -160 -494t-434 -205z" />
    <glyph glyph-name="odieresis" unicode="&#xf6;" horiz-adv-x="1204" 
d="M862 700q0 90 -45 160t-153 70t-183 -91q-129 -159 -129 -431q0 -246 201 -246q88 0 153 55t96 142q60 163 60 341zM543 -29q-217 0 -341 120q-124 121 -124 315q0 407 267 608q138 104 341 104t327 -122t124 -326q0 -289 -160 -494t-434 -205zM418 1311l49 252h242
l-50 -252h-241zM827 1311l50 252h241l-49 -252h-242z" />
    <glyph glyph-name="divide" unicode="&#xf7;" horiz-adv-x="1261" 
d="M694 190h-264l51 261h264zM172 627l43 211h952l-43 -211h-952zM588 1012l51 260h266l-51 -260h-266z" />
    <glyph glyph-name="oslash" unicode="&#xf8;" horiz-adv-x="1204" 
d="M1137 670q0 -289 -160 -494t-434 -205q-193 0 -312 95l-131 -136h-176l223 228q-69 110 -69 276t64 321q65 155 203 259t330 104t312 -98l133 135h178l-227 -231q66 -107 66 -254zM540 158q102 0 168 56q107 89 147 314q15 84 15 162v27l-481 -492q49 -67 151 -67z
M664 934q-84 0 -149 -52q-108 -87 -154 -305q-17 -87 -17 -143t2 -72l483 496q-48 76 -165 76z" />
    <glyph glyph-name="ugrave" unicode="&#xf9;" horiz-adv-x="1253" 
d="M774 1614l100 -348h-200l-170 348h270zM535 182q111 0 185 89t107 253l111 568h270l-213 -1092h-258l37 186h-4q-131 -209 -350 -209q-184 0 -262 114t-35 331l129 670h270l-121 -631q-14 -80 -14 -123q-4 -156 148 -156z" />
    <glyph glyph-name="uacute" unicode="&#xfa;" horiz-adv-x="1253" 
d="M535 182q111 0 185 89t107 253l111 568h270l-213 -1092h-258l37 186h-4q-131 -209 -350 -209q-184 0 -262 114t-35 331l129 670h270l-121 -631q-14 -80 -14 -123q-4 -156 148 -156zM651 1266l166 348h281l-244 -348h-203z" />
    <glyph glyph-name="ucircumflex" unicode="&#xfb;" horiz-adv-x="1253" 
d="M535 182q111 0 185 89t107 253l111 568h270l-213 -1092h-258l37 186h-4q-131 -209 -350 -209q-184 0 -262 114t-35 331l129 670h270l-121 -631q-14 -80 -14 -123q-4 -156 148 -156zM942 1614l143 -348h-192l-96 176l-154 -176h-203l273 348h229z" />
    <glyph glyph-name="udieresis" unicode="&#xfc;" horiz-adv-x="1253" 
d="M535 182q111 0 185 89t107 253l111 568h270l-213 -1092h-258l37 186h-4q-131 -209 -350 -209q-184 0 -262 114t-35 331l129 670h270l-121 -631q-14 -80 -14 -123q-4 -156 148 -156zM446 1311l50 252h241l-49 -252h-242zM856 1311l49 252h242l-49 -252h-242z" />
    <glyph glyph-name="yacute" unicode="&#xfd;" horiz-adv-x="1110" 
d="M598 1266l166 348h280l-243 -348h-203zM334 2l-180 1090h270l80 -613l14 -207h4q37 94 84 193l301 627h271l-613 -1166q-96 -184 -196 -258t-279 -76q-104 0 -156 21l41 203q41 -12 115 -12t125 34q51 35 96 121z" />
    <glyph glyph-name="thorn" unicode="&#xfe;" horiz-adv-x="1271" 
d="M850 1116q172 0 262 -115t90 -313q0 -256 -123 -472q-61 -108 -170 -176t-230 -67t-205 51t-116 138h-4l-104 -547h-273l390 1999h270l-135 -699h4q123 201 344 201zM625 164q102 0 174 86q129 154 129 432q0 238 -185 238q-111 0 -195 -83t-106 -208l-26 -127
q-29 -141 21 -240q51 -98 188 -98z" />
    <glyph glyph-name="ydieresis" unicode="&#xff;" horiz-adv-x="1110" 
d="M395 1311l49 252h242l-49 -252h-242zM805 1311l49 252h242l-49 -252h-242zM334 2l-180 1090h270l80 -613l14 -207h4q37 94 84 193l301 627h271l-613 -1166q-96 -184 -196 -258t-279 -76q-104 0 -156 21l41 203q41 -12 115 -12t125 34q51 35 96 121z" />
    <glyph glyph-name="Amacron" unicode="&#x100;" horiz-adv-x="1511" 
d="M639 1726l37 191h651l-37 -191h-651zM1073 0l-61 393h-580l-199 -393h-276l815 1567h315l267 -1567h-281zM885 1319h-4q-12 -49 -107 -238l-237 -479h442l-70 475q-16 106 -24 213v29z" />
    <glyph glyph-name="amacron" unicode="&#x101;" horiz-adv-x="1155" 
d="M371 1311l37 188h651l-37 -188h-651zM654 1116q222 0 320 -123q97 -123 56 -331l-69 -357q-12 -61 7 -87t70 -23l-39 -199h-65q-197 0 -219 156h-6q-68 -84 -143 -125q-76 -41 -206 -41t-226 80q-95 80 -95 229q0 260 301 332q115 29 428 32l10 54q20 104 -20 160
q-41 56 -137 57q-175 0 -191 -154h-264q18 162 142 251t346 89zM309 314q0 -68 41 -106t125 -38t156 80t100 221l6 31q-195 -4 -267 -20t-117 -58q-44 -43 -44 -110z" />
    <glyph glyph-name="Abreve" unicode="&#x102;" horiz-adv-x="1511" 
d="M971 1835q129 0 174 137h180q-33 -160 -133 -234t-238 -75t-217 79q-80 80 -57 230h172q-4 -63 28 -100t91 -37zM1073 0l-61 393h-580l-199 -393h-276l815 1567h315l267 -1567h-281zM885 1319h-4q-12 -49 -107 -238l-237 -479h442l-70 475q-16 106 -24 213v29z" />
    <glyph glyph-name="abreve" unicode="&#x103;" horiz-adv-x="1155" 
d="M704 1266q-144 0 -224 89q-79 89 -44 259h176q-14 -80 16 -122t95 -42q139 0 174 164h184q-27 -176 -130 -262t-247 -86zM654 1116q222 0 320 -123q97 -123 56 -331l-69 -357q-12 -61 7 -87t70 -23l-39 -199h-65q-197 0 -219 156h-6q-68 -84 -143 -125q-76 -41 -206 -41
t-226 80q-95 80 -95 229q0 260 301 332q115 29 428 32l10 54q20 104 -20 160q-41 56 -137 57q-175 0 -191 -154h-264q18 162 142 251t346 89zM309 314q0 -68 41 -106t125 -38t156 80t100 221l6 31q-195 -4 -267 -20t-117 -58q-44 -43 -44 -110z" />
    <glyph glyph-name="Aogonek" unicode="&#x104;" horiz-adv-x="1511" 
d="M885 1319h-4q-12 -49 -107 -238l-237 -479h442l-70 475q-16 106 -24 213v29zM1227 -385q-252 0 -252 154q0 141 188 231h-90l-61 393h-580l-199 -393h-276l815 1567h315l265 -1561q-147 -88 -148 -166q0 -61 103 -61l-33 -164h-47z" />
    <glyph glyph-name="aogonek" unicode="&#x105;" horiz-adv-x="1155" 
d="M309 314q0 -68 41 -106t125 -38t157 80t99 219l6 33q-195 -4 -267 -20t-117 -58q-44 -43 -44 -110zM872 -385q-247 0 -247 158q0 80 61 136q62 56 162 89v6q-66 20 -94 54t-39 94h-6q-68 -84 -143 -125q-76 -41 -206 -41t-226 80q-95 80 -95 229q0 260 301 332
q115 29 428 32l10 54q20 104 -20 160q-41 56 -137 57q-174 0 -191 -154h-264q18 162 142 251t348 89t318 -124q95 -124 54 -339l-67 -348q-12 -63 6 -88t71 -22l-37 -191q-79 -47 -113 -84t-34 -82q0 -59 102 -59l-32 -164h-52z" />
    <glyph glyph-name="Cacute" unicode="&#x106;" horiz-adv-x="1552" 
d="M905 1694l168 272h279l-246 -272h-201zM444 560q0 -154 80 -267t245 -113q315 0 398 336h283q-49 -258 -230 -403t-464 -145t-445 165q-162 166 -161 483q0 374 203 661q99 140 261 226t363 86q253 0 405 -132t154 -398h-287q-4 153 -78 235q-75 82 -211 81t-242 -77
t-162 -197q-112 -245 -112 -541z" />
    <glyph glyph-name="cacute" unicode="&#x107;" horiz-adv-x="1161" 
d="M354 422q0 -116 52 -186t157 -71q106 -1 168 63q61 65 78 159h262q-29 -199 -173 -307t-354 -109q-210 0 -337 119t-127 340q0 284 161 486t445 202q203 0 318 -103q114 -104 110 -294h-266q4 92 -40 149t-136 60q-152 0 -235 -159t-83 -349zM623 1266l165 348h281
l-244 -348h-202z" />
    <glyph glyph-name="Ccircumflex" unicode="&#x108;" horiz-adv-x="1552" 
d="M444 560q0 -154 80 -267t245 -113q315 0 398 336h283q-49 -258 -230 -403t-464 -145t-445 165q-162 166 -161 483q0 374 203 661q99 140 261 226t363 86q253 0 405 -132t154 -398h-287q-4 153 -78 235q-75 82 -211 81t-242 -77t-162 -197q-112 -245 -112 -541zM1174 1966
l159 -272h-196l-103 129h-2l-147 -129h-203l248 272h244z" />
    <glyph glyph-name="ccircumflex" unicode="&#x109;" horiz-adv-x="1161" 
d="M354 422q0 -116 52 -186t157 -71q106 -1 168 63q61 65 78 159h262q-29 -199 -173 -307t-354 -109q-210 0 -337 119t-127 340q0 284 161 486t445 202q203 0 318 -103q114 -104 110 -294h-266q4 92 -40 149t-136 60q-152 0 -235 -159t-83 -349zM915 1614l144 -348h-193
l-96 176l-154 -176h-202l272 348h229z" />
    <glyph glyph-name="Cdotaccent" unicode="&#x10a;" horiz-adv-x="1552" 
d="M911 1708l50 254h245l-49 -254h-246zM444 560q0 -154 80 -267t245 -113q315 0 398 336h283q-49 -258 -230 -403t-464 -145t-445 165q-162 166 -161 483q0 374 203 661q99 140 261 226t363 86q253 0 405 -132t154 -398h-287q-4 153 -78 235q-75 82 -211 81t-242 -77
t-162 -197q-112 -245 -112 -541z" />
    <glyph glyph-name="cdotaccent" unicode="&#x10b;" horiz-adv-x="1161" 
d="M625 1311l49 252h246l-50 -252h-245zM354 422q0 -116 52 -186t157 -71q106 -1 168 63q61 65 78 159h262q-29 -199 -173 -307t-354 -109q-210 0 -337 119t-127 340q0 284 161 486t445 202q203 0 318 -103q114 -104 110 -294h-266q4 92 -40 149t-136 60q-152 0 -235 -159
t-83 -349z" />
    <glyph glyph-name="Ccaron" unicode="&#x10c;" horiz-adv-x="1552" 
d="M444 560q0 -154 80 -267t245 -113q315 0 398 336h283q-49 -258 -230 -403t-464 -145t-445 165q-162 166 -161 483q0 374 203 661q99 140 261 226t363 86q253 0 405 -132t154 -398h-287q-4 153 -78 235q-75 82 -211 81t-242 -77t-162 -197q-112 -245 -112 -541zM877 1694
l-166 272h200l107 -129h2l149 129h213l-264 -272h-241z" />
    <glyph glyph-name="ccaron" unicode="&#x10d;" horiz-adv-x="1161" 
d="M354 422q0 -116 52 -186t157 -71q106 -1 168 63q61 65 78 159h262q-29 -199 -173 -307t-354 -109q-210 0 -337 119t-127 340q0 284 161 486t445 202q203 0 318 -103q114 -104 110 -294h-266q4 92 -40 149t-136 60q-152 0 -235 -159t-83 -349zM623 1266l-144 348h193
l92 -176l158 176h202l-272 -348h-229z" />
    <glyph glyph-name="Dcaron" unicode="&#x10e;" horiz-adv-x="1550" 
d="M649 221q160 0 277 72q117 73 175 189q111 223 109 476q0 389 -385 390h-213l-219 -1127h256zM850 1567q301 0 477 -159t176 -464q0 -399 -214 -663q-105 -131 -276 -206t-390 -75h-549l301 1567h475zM778 1694l-166 272h201l107 -129h2l149 129h213l-264 -272h-242z" />
    <glyph glyph-name="dcaron" unicode="&#x10f;" horiz-adv-x="1277" 
d="M457 -27q-182 0 -279 116q-96 116 -96 314q0 259 135 479q65 105 173 170t239 64q227 0 301 -186h2l133 684h270l-313 -1614h-260l33 168h-4q-127 -195 -334 -195zM676 922q-104 0 -180 -84q-140 -155 -140 -437q0 -236 185 -235q115 0 197 82t106 211l24 125
q31 146 -14 242t-178 96zM1386 1249l91 365h223l-176 -365h-138z" />
    <glyph glyph-name="Dcroat" unicode="&#x110;" horiz-adv-x="1570" 
d="M670 221q129 0 231 49t163 125q169 214 169 563q0 389 -387 390h-213l-88 -457h368l-39 -205h-370l-90 -465h256zM645 0h-551l131 686h-157l38 205h160l129 676h477q302 0 478 -159t176 -464q0 -396 -214 -663q-104 -131 -276 -206t-391 -75z" />
    <glyph glyph-name="dcroat" unicode="&#x111;" horiz-adv-x="1277" 
d="M457 -27q-182 0 -279 116q-96 116 -96 314q0 259 135 479q65 105 173 170t239 64q227 0 301 -186h2l63 325h-307l31 168h309l37 191h270l-37 -191h154l-31 -168h-155l-244 -1255h-260l33 168h-4q-127 -195 -334 -195zM676 922q-104 0 -180 -84q-140 -155 -140 -437
q0 -236 185 -235q115 0 197 82t106 211l24 125q31 146 -14 242t-178 96z" />
    <glyph glyph-name="Emacron" unicode="&#x112;" horiz-adv-x="1318" 
d="M584 1726l37 191h651l-37 -191h-651zM74 0l303 1567h989l-43 -226h-711l-86 -446h668l-43 -219h-668l-88 -453h733l-43 -223h-1011z" />
    <glyph glyph-name="emacron" unicode="&#x113;" horiz-adv-x="1169" 
d="M412 1311l37 188h651l-37 -188h-651zM530 -29q-206 0 -330 123q-124 122 -124 316q0 410 273 607q139 101 319 101t284 -81q199 -155 133 -482l-14 -76h-721q-2 -20 -2 -63q0 -113 50 -183t159 -69q172 0 209 143h266q-37 -162 -166 -249q-130 -87 -336 -87zM660 938
q-108 0 -180 -79q-71 -79 -103 -210h454l3 13q18 128 -24 202t-150 74z" />
    <glyph glyph-name="Ebreve" unicode="&#x114;" horiz-adv-x="1318" 
d="M913 1851q129 0 174 138h181q-33 -160 -133 -235q-99 -75 -237 -75t-218 80t-57 230h172q-4 -63 27 -101q32 -37 91 -37zM74 0l303 1567h989l-43 -226h-711l-86 -446h668l-43 -219h-668l-88 -453h733l-43 -223h-1011z" />
    <glyph glyph-name="ebreve" unicode="&#x115;" horiz-adv-x="1169" 
d="M744 1266q-144 0 -223 89t-44 259h176q-14 -80 16 -122t95 -42q139 0 174 164h184q-27 -176 -130 -262q-104 -86 -248 -86zM530 -29q-206 0 -330 123q-124 122 -124 316q0 410 273 607q139 101 319 101t284 -81q199 -155 133 -482l-14 -76h-721q-2 -20 -2 -63
q0 -113 50 -183t159 -69q172 0 209 143h266q-37 -162 -166 -249q-130 -87 -336 -87zM660 938q-108 0 -180 -79q-71 -79 -103 -210h454l3 13q18 128 -24 202t-150 74z" />
    <glyph glyph-name="Edotaccent" unicode="&#x116;" horiz-adv-x="1318" 
d="M74 0l303 1567h989l-43 -226h-711l-86 -446h668l-43 -219h-668l-88 -453h733l-43 -223h-1011zM780 1708l49 254h246l-49 -254h-246z" />
    <glyph glyph-name="edotaccent" unicode="&#x117;" horiz-adv-x="1169" 
d="M616 1311l50 252h245l-49 -252h-246zM530 -29q-206 0 -330 123q-124 122 -124 316q0 410 273 607q139 101 319 101t284 -81q199 -155 133 -482l-14 -76h-721q-2 -20 -2 -63q0 -113 50 -183t159 -69q172 0 209 143h266q-37 -162 -166 -249q-130 -87 -336 -87zM660 938
q-108 0 -180 -79q-71 -79 -103 -210h454l3 13q18 128 -24 202t-150 74z" />
    <glyph glyph-name="Eogonek" unicode="&#x118;" horiz-adv-x="1318" 
d="M958 -385q-129 0 -188 37t-59 114t55 138t152 96h-844l303 1567h989l-43 -226h-711l-86 -446h668l-43 -219h-668l-88 -453h733l-43 -223q-145 -88 -145 -164q0 -59 98 -59l-28 -162h-52z" />
    <glyph glyph-name="eogonek" unicode="&#x119;" horiz-adv-x="1169" 
d="M674 -385q-250 0 -250 156q0 131 170 204v5q-29 -6 -64 -7q-202 -2 -328 117t-126 332q0 284 162 490t438 206q133 0 226 -46t136 -125q98 -181 47 -392l-14 -76h-721q-2 -20 -2 -63q0 -113 50 -183t159 -69q172 0 209 143h266q-41 -193 -231 -291q-150 -76 -150 -172
q1 -65 105 -65l-31 -164h-51zM657 938q-104 0 -174 -79t-104 -210h452l3 13q41 276 -177 276z" />
    <glyph glyph-name="Ecaron" unicode="&#x11a;" horiz-adv-x="1318" 
d="M74 0l303 1567h989l-43 -226h-711l-86 -446h668l-43 -219h-668l-88 -453h733l-43 -223h-1011zM780 1694l-166 272h201l107 -129h2l149 129h213l-264 -272h-242z" />
    <glyph glyph-name="ecaron" unicode="&#x11b;" horiz-adv-x="1169" 
d="M530 -29q-206 0 -330 123q-124 122 -124 316q0 410 273 607q139 101 319 101t284 -81q199 -155 133 -482l-14 -76h-721q-2 -20 -2 -63q0 -113 50 -183t159 -69q172 0 209 143h266q-37 -162 -166 -249q-130 -87 -336 -87zM660 938q-108 0 -180 -79q-71 -79 -103 -210h454
l3 13q18 128 -24 202t-150 74zM614 1266l-143 348h193l92 -176l157 176h203l-272 -348h-230z" />
    <glyph glyph-name="Gcircumflex" unicode="&#x11c;" horiz-adv-x="1632" 
d="M1544 1114h-284q2 125 -71 195q-73 69 -200 69t-224 -56t-157 -142t-98 -198q-68 -195 -70 -411q0 -169 80 -281t259 -112t288 109t145 288l7 31h-379l43 213h655l-160 -819h-225l45 233h-6q-57 -119 -180 -191t-289 -73q-279 0 -427 168t-148 458t128 544
q68 131 165 231t241 160t317 59q249 -1 397 -119t148 -356zM1208 1966l160 -272h-197l-102 129h-2l-147 -129h-203l248 272h243z" />
    <glyph glyph-name="gcircumflex" unicode="&#x11d;" horiz-adv-x="1269" 
d="M18 -76h258q2 -72 54 -110t139 -37q238 0 295 289l24 127h-4q-125 -177 -316 -177q-190 0 -288 104t-98 286q0 395 253 603q130 108 300 107q233 0 303 -194h2l35 170h258l-201 -1026q-92 -474 -562 -474q-226 0 -339 87t-113 245zM553 201q111 -1 191 81t104 203l20 113
q29 139 -14 231q-44 93 -188 93t-227 -157t-83 -345q4 -219 197 -219zM934 1614l143 -348h-192l-97 176l-153 -176h-203l273 348h229z" />
    <glyph glyph-name="Gbreve" unicode="&#x11e;" horiz-adv-x="1632" 
d="M1544 1114h-284q2 125 -71 195q-73 69 -200 69t-224 -56t-157 -142t-98 -198q-68 -195 -70 -411q0 -169 80 -281t259 -112t288 109t145 288l7 31h-379l43 213h655l-160 -819h-225l45 233h-6q-57 -119 -180 -191t-289 -73q-279 0 -427 168t-148 458t128 544
q68 131 165 231t241 160t317 59q249 -1 397 -119t148 -356zM1055 1851q129 0 174 138h180q-33 -160 -133 -235t-238 -75t-217 80q-80 80 -57 230h172q-4 -63 28 -101t91 -37z" />
    <glyph glyph-name="gbreve" unicode="&#x11f;" horiz-adv-x="1269" 
d="M768 1266q-144 0 -222 89t-44 259h176q-14 -80 16 -122t94 -42q139 0 175 164h184q-27 -176 -131 -262t-248 -86zM18 -76h258q2 -72 54 -110t139 -37q238 0 295 289l24 127h-4q-125 -177 -316 -177q-190 0 -288 104t-98 286q0 395 253 603q130 108 300 107
q233 0 303 -194h2l35 170h258l-201 -1026q-92 -474 -562 -474q-226 0 -339 87t-113 245zM553 201q111 -1 191 81t104 203l20 113q29 139 -14 231q-44 93 -188 93t-227 -157t-83 -345q4 -219 197 -219z" />
    <glyph glyph-name="Gdotaccent" unicode="&#x120;" horiz-adv-x="1632" 
d="M1544 1114h-284q2 125 -71 195q-73 69 -200 69t-224 -56t-157 -142t-98 -198q-68 -195 -70 -411q0 -169 80 -281t259 -112t288 109t145 288l7 31h-379l43 213h655l-160 -819h-225l45 233h-6q-57 -119 -180 -191t-289 -73q-279 0 -427 168t-148 458t128 544
q68 131 165 231t241 160t317 59q249 -1 397 -119t148 -356zM922 1708l49 254h246l-50 -254h-245z" />
    <glyph glyph-name="gdotaccent" unicode="&#x121;" horiz-adv-x="1269" 
d="M641 1311l49 252h246l-49 -252h-246zM18 -76h258q2 -72 54 -110t139 -37q238 0 295 289l24 127h-4q-125 -177 -316 -177q-190 0 -288 104t-98 286q0 395 253 603q130 108 300 107q233 0 303 -194h2l35 170h258l-201 -1026q-92 -474 -562 -474q-226 0 -339 87t-113 245z
M553 201q111 -1 191 81t104 203l20 113q29 139 -14 231q-44 93 -188 93t-227 -157t-83 -345q4 -219 197 -219z" />
    <glyph glyph-name="Gcommaaccent" unicode="&#x122;" horiz-adv-x="1632" 
d="M1544 1114h-284q2 125 -71 195q-73 69 -200 69t-224 -56t-157 -142t-98 -198q-68 -195 -70 -411q0 -169 80 -281t259 -112t288 109t145 288l7 31h-379l43 213h655l-160 -819h-225l45 233h-6q-57 -119 -180 -191t-289 -73q-279 0 -427 168t-148 458t128 544
q68 131 165 231t241 160t317 59q249 -1 397 -119t148 -356zM453 -440l108 305h268l-198 -305h-178z" />
    <glyph glyph-name="gcommaaccent" unicode="&#x123;" horiz-adv-x="1269" 
d="M18 -76h258q2 -72 54 -110t139 -37q238 0 295 289l24 127h-4q-125 -177 -316 -177q-190 0 -288 104t-98 286q0 395 253 603q130 108 300 107q233 0 303 -194h2l35 170h258l-201 -1026q-92 -474 -562 -474q-226 0 -339 87t-113 245zM553 201q111 -1 191 81t104 203l20 113
q29 139 -14 231q-44 93 -188 93t-227 -157t-83 -345q4 -219 197 -219zM985 1593l-113 -317h-272l209 317h176z" />
    <glyph glyph-name="Hcircumflex" unicode="&#x124;" horiz-adv-x="1579" 
d="M1171 1966l160 -272h-196l-103 129h-2l-147 -129h-203l248 272h243zM481 672l-129 -672h-278l303 1567h278l-129 -668h676l129 668h281l-303 -1567h-281l129 672h-676z" />
    <glyph glyph-name="hcircumflex" unicode="&#x125;" horiz-adv-x="1261" 
d="M1034 1966l160 -272h-197l-102 129h-2l-148 -129h-202l248 272h243zM732 909q-114 0 -190 -87t-106 -244l-110 -578h-273l314 1614h270l-137 -703h4q123 205 356 205q176 0 252 -116t33 -334l-127 -666h-270l122 635q27 129 0 184q-24 90 -138 90z" />
    <glyph glyph-name="Hbar" unicode="&#x126;" horiz-adv-x="1579" 
d="M481 672l-129 -672h-278l225 1159h-172l35 174h170l45 234h278l-45 -234h676l45 234h281l-45 -234h164l-35 -174h-162l-225 -1159h-281l129 672h-676zM526 899h676l51 260h-675z" />
    <glyph glyph-name="hbar" unicode="&#x127;" horiz-adv-x="1261" 
d="M860 1116q176 0 252 -116t33 -334l-127 -666h-270l122 635q27 129 0 184q-24 90 -138 90q-114 -1 -190 -87t-106 -244l-110 -578h-273l244 1255h-154l33 168h154l37 191h270l-37 -191h309l-32 -168h-310l-67 -344h4q123 205 356 205z" />
    <glyph glyph-name="Itilde" unicode="&#x128;" horiz-adv-x="626" 
d="M719 1876q39 0 63 26t45 87h150q-16 -131 -88 -216t-189 -85q-78 0 -158 54t-114 54q-70 0 -113 -113h-147q16 125 91 214t198 90q71 1 147 -55t115 -56zM76 0l303 1567h278l-303 -1567h-278z" />
    <glyph glyph-name="itilde" unicode="&#x129;" horiz-adv-x="581" 
d="M53 0l211 1092h271l-211 -1092h-271zM371 1579q57 0 126 -55t99 -56q63 0 100 113h129q-53 -315 -254 -315q-57 0 -132 56t-105 56q-61 0 -96 -114h-127q20 139 85 227t175 88z" />
    <glyph glyph-name="Imacron" unicode="&#x12a;" horiz-adv-x="626" 
d="M225 1726l37 191h651l-36 -191h-652zM76 0l303 1567h278l-303 -1567h-278z" />
    <glyph glyph-name="imacron" unicode="&#x12b;" horiz-adv-x="581" 
d="M53 0l211 1092h271l-211 -1092h-271zM172 1311l39 188h537l-37 -188h-539z" />
    <glyph glyph-name="Ibreve" unicode="&#x12c;" horiz-adv-x="626" 
d="M571 1851q129 0 174 138h181q-33 -160 -133 -235q-99 -75 -237 -75t-218 80t-57 230h172q-4 -63 27 -101q32 -37 91 -37zM76 0l303 1567h278l-303 -1567h-278z" />
    <glyph glyph-name="ibreve" unicode="&#x12d;" horiz-adv-x="581" 
d="M53 0l211 1092h271l-211 -1092h-271zM442 1266q-132 0 -198 90t-25 258h158q-17 -80 7 -122t83 -42q125 0 168 164h166q-35 -178 -131 -263t-228 -85z" />
    <glyph glyph-name="Iogonek" unicode="&#x12e;" horiz-adv-x="626" 
d="M207 -162q0 -59 102 -59l-30 -164h-54q-248 0 -248 156q1 70 51 130t142 99h-94l303 1567h278l-303 -1567q-147 -78 -147 -162z" />
    <glyph glyph-name="iogonek" unicode="&#x12f;" horiz-adv-x="581" 
d="M195 -385q-248 0 -248 156q0 70 50 130t142 99h-86l211 1092h271l-213 -1092q-145 -74 -146 -162q0 -59 103 -59l-31 -164h-53zM303 1300l51 261h275l-51 -261h-275z" />
    <glyph glyph-name="Idotaccent" unicode="&#x130;" horiz-adv-x="626" 
d="M422 1708l49 254h246l-49 -254h-246zM76 0l303 1567h278l-303 -1567h-278z" />
    <glyph glyph-name="dotlessi" unicode="&#x131;" horiz-adv-x="581" 
d="M53 0l211 1092h271l-211 -1092h-271z" />
    <glyph glyph-name="IJ" unicode="&#x132;" horiz-adv-x="1415" 
d="M655 -6h-94l45 229h47q159 1 223 61t91 201l213 1082h276l-217 -1114q-47 -247 -176 -353t-408 -106zM76 0l303 1567h278l-303 -1567h-278z" />
    <glyph glyph-name="ij" unicode="&#x133;" horiz-adv-x="1167" 
d="M496 -418q-88 0 -154 25l39 196q43 -12 86 -12q133 0 158 139l227 1162h270l-231 -1182q-61 -328 -395 -328zM889 1300l51 261h277l-52 -261h-276zM53 0l211 1092h271l-211 -1092h-271zM303 1300l51 261h275l-51 -261h-275z" />
    <glyph glyph-name="Jcircumflex" unicode="&#x134;" horiz-adv-x="878" 
d="M113 -6h-160l45 229h113q162 -1 224 59t91 203l211 1082h278l-217 -1114q-46 -247 -176 -353t-409 -106zM969 1966l159 -272h-196l-103 129h-2l-147 -129h-203l248 272h244z" />
    <glyph glyph-name="jcircumflex" unicode="&#x135;" horiz-adv-x="585" 
d="M-115 -209q133 0 158 139l227 1162h271l-232 -1182q-61 -328 -395 -328q-88 0 -154 25l39 196q43 -12 86 -12zM618 1614l119 -348h-186l-78 176l-133 -176h-203l250 348h231z" />
    <glyph glyph-name="Kcommaaccent" unicode="&#x136;" horiz-adv-x="1460" 
d="M444 477l-92 -477h-278l303 1567h278l-143 -746l743 746h330l-694 -676l424 -891h-301l-334 702zM401 -440l109 305h268l-198 -305h-179z" />
    <glyph glyph-name="kcommaaccent" unicode="&#x137;" horiz-adv-x="1175" 
d="M379 303l-60 -303h-266l314 1614h266l-195 -1000l475 478h304l-461 -445l282 -647h-284l-207 473zM264 -440l109 305h268l-199 -305h-178z" />
    <glyph glyph-name="kgreenlandic" unicode="&#x138;" horiz-adv-x="1185" 
d="M379 303l-60 -303h-266l211 1092h266l-92 -480l475 480h304l-461 -445l282 -647h-284l-207 473z" />
    <glyph glyph-name="Lacute" unicode="&#x139;" horiz-adv-x="1216" 
d="M74 0l303 1567h278l-260 -1340h699l-45 -227h-975zM440 1694l168 272h279l-246 -272h-201z" />
    <glyph glyph-name="lacute" unicode="&#x13a;" horiz-adv-x="579" 
d="M53 0l314 1614h270l-313 -1614h-271zM401 1694l168 272h279l-246 -272h-201z" />
    <glyph glyph-name="Lcommaaccent" unicode="&#x13b;" horiz-adv-x="1216" 
d="M74 0l303 1567h278l-260 -1340h699l-45 -227h-975zM301 -440l109 305h268l-199 -305h-178z" />
    <glyph glyph-name="lcommaaccent" unicode="&#x13c;" horiz-adv-x="579" 
d="M53 0l314 1614h270l-313 -1614h-271zM-72 -440l109 305h268l-199 -305h-178z" />
    <glyph glyph-name="Lcaron" unicode="&#x13d;" horiz-adv-x="1216" 
d="M74 0l303 1567h278l-260 -1340h699l-45 -227h-975zM770 1194l129 420h236l-215 -420h-150z" />
    <glyph glyph-name="lcaron" unicode="&#x13e;" horiz-adv-x="579" 
d="M53 0l314 1614h270l-313 -1614h-271zM690 1249l90 365h224l-177 -365h-137z" />
    <glyph glyph-name="Ldot" unicode="&#x13f;" horiz-adv-x="1216" 
d="M809 700l55 289h297l-55 -289h-297zM74 0l303 1567h278l-260 -1340h699l-45 -227h-975z" />
    <glyph glyph-name="ldot" unicode="&#x140;" horiz-adv-x="849" 
d="M608 680l51 270h279l-51 -270h-279zM53 0l314 1614h270l-313 -1614h-271z" />
    <glyph glyph-name="Lslash" unicode="&#x141;" horiz-adv-x="1218" 
d="M76 0l108 563l-172 -57l43 223l172 57l152 781h278l-131 -680l494 164l-43 -224l-494 -163l-86 -437h699l-43 -227h-977z" />
    <glyph glyph-name="lslash" unicode="&#x142;" horiz-adv-x="587" 
d="M324 0h-271l121 623l-176 -99l45 224l174 96l150 770h270l-117 -600l178 98l-43 -221l-178 -98z" />
    <glyph glyph-name="Nacute" unicode="&#x143;" horiz-adv-x="1576" 
d="M74 0l303 1567h307l371 -983q31 -82 55 -178l4 -25h6l230 1186h254l-304 -1567h-288l-381 991q-33 83 -62 185l-4 22h-6l-231 -1198h-254zM899 1694l168 272h279l-246 -272h-201z" />
    <glyph glyph-name="nacute" unicode="&#x144;" horiz-adv-x="1267" 
d="M860 1116q174 0 251 -116t34 -332l-127 -668h-270l120 627q16 76 17 129q0 154 -152 153q-115 0 -193 -87t-106 -244l-108 -578h-273l211 1092h260l-37 -189h5q59 97 154 155t214 58zM664 1266l165 348h281l-244 -348h-202z" />
    <glyph glyph-name="Ncommaaccent" unicode="&#x145;" horiz-adv-x="1576" 
d="M74 0l303 1567h307l371 -983q31 -82 55 -178l4 -25h6l230 1186h254l-304 -1567h-288l-381 991q-33 83 -62 185l-4 22h-6l-231 -1198h-254zM426 -440l109 305h268l-199 -305h-178z" />
    <glyph glyph-name="ncommaaccent" unicode="&#x146;" horiz-adv-x="1267" 
d="M860 1116q174 0 251 -116t34 -332l-127 -668h-270l120 627q16 76 17 129q0 154 -152 153q-115 0 -193 -87t-106 -244l-108 -578h-273l211 1092h260l-37 -189h5q59 97 154 155t214 58zM272 -440l109 305h268l-198 -305h-179z" />
    <glyph glyph-name="Ncaron" unicode="&#x147;" horiz-adv-x="1576" 
d="M74 0l303 1567h307l371 -983q31 -82 55 -178l4 -25h6l230 1186h254l-304 -1567h-288l-381 991q-33 83 -62 185l-4 22h-6l-231 -1198h-254zM895 1694l-166 272h201l106 -129h2l150 129h213l-264 -272h-242z" />
    <glyph glyph-name="ncaron" unicode="&#x148;" horiz-adv-x="1267" 
d="M860 1116q174 0 251 -116t34 -332l-127 -668h-270l120 627q16 76 17 129q0 154 -152 153q-115 0 -193 -87t-106 -244l-108 -578h-273l211 1092h260l-37 -189h5q59 97 154 155t214 58zM649 1266l-143 348h192l93 -176l157 176h203l-272 -348h-230z" />
    <glyph glyph-name="napostrophe" unicode="&#x149;" horiz-adv-x="1267" 
d="M860 1116q174 0 251 -116t34 -332l-127 -668h-270l120 627q16 76 17 129q0 154 -152 153q-115 0 -193 -87t-106 -244l-108 -578h-273l211 1092h260l-37 -189h5q59 97 154 155t214 58zM188 1292l109 305h268l-198 -305h-179z" />
    <glyph glyph-name="Eng" unicode="&#x14a;" horiz-adv-x="1576" 
d="M731 -375h-133l45 215h86q127 0 193 31t100 104l-391 1016q-33 83 -62 185l-4 22h-6l-231 -1198h-254l303 1567h307l371 -983q45 -120 55 -178l4 -25h6l230 1186h254l-263 -1360l-2 -2l-22 -121q-47 -248 -176 -354t-410 -105z" />
    <glyph glyph-name="eng" unicode="&#x14b;" horiz-adv-x="1267" 
d="M604 -416q-88 0 -153 25l38 194q43 -12 89 -12q127 0 155 139l135 697q18 96 11 155q-10 127 -148 127q-115 0 -191 -87t-106 -244l-108 -578h-273l211 1092h260l-37 -189h5q59 97 154 155t214 58q176 0 252 -116t33 -332l-144 -758q-65 -326 -397 -326z" />
    <glyph glyph-name="Omacron" unicode="&#x14c;" horiz-adv-x="1644" 
d="M1298 1004q0 150 -80 262q-81 113 -255 112q-137 0 -243 -80t-164 -206q-116 -252 -116 -521q0 -167 82 -279t262 -112q131 0 236 80q104 80 162 205q116 255 116 539zM992 1589q262 0 432 -170q170 -171 168 -447q-1 -276 -91 -495t-280 -364t-459 -145t-441 164
q-172 166 -173 452q-2 286 100 512t292 360q190 133 452 133zM725 1726l37 191h651l-37 -191h-651z" />
    <glyph glyph-name="omacron" unicode="&#x14d;" horiz-adv-x="1204" 
d="M862 700q0 90 -45 160t-153 70t-183 -91q-129 -159 -129 -431q0 -246 201 -246q88 0 153 55t96 142q60 163 60 341zM543 -29q-217 0 -341 120q-124 121 -124 315q0 407 267 608q138 104 341 104t327 -122t124 -326q0 -289 -160 -494t-434 -205zM416 1311l37 188h651
l-37 -188h-651z" />
    <glyph glyph-name="Obreve" unicode="&#x14e;" horiz-adv-x="1644" 
d="M1298 1004q0 150 -80 262q-81 113 -255 112q-137 0 -243 -80t-164 -206q-116 -252 -116 -521q0 -167 82 -279t262 -112q131 0 236 80q104 80 162 205q116 255 116 539zM992 1589q262 0 432 -170q170 -171 168 -447q-1 -276 -91 -495t-280 -364t-459 -145t-441 164
q-172 166 -173 452q-2 286 100 512t292 360q190 133 452 133zM1071 1851q129 0 174 138h180q-33 -160 -133 -235t-237 -75t-217 80t-58 230h172q-4 -63 28 -101t91 -37z" />
    <glyph glyph-name="obreve" unicode="&#x14f;" horiz-adv-x="1204" 
d="M748 1266q-144 0 -223 89t-44 259h176q-14 -80 16 -122t95 -42q139 0 174 164h184q-27 -176 -130 -262q-104 -86 -248 -86zM862 700q0 90 -45 160t-153 70t-183 -91q-129 -159 -129 -431q0 -246 201 -246q88 0 153 55t96 142q60 163 60 341zM543 -29q-217 0 -341 120
q-124 121 -124 315q0 407 267 608q138 104 341 104t327 -122t124 -326q0 -289 -160 -494t-434 -205z" />
    <glyph glyph-name="Ohungarumlaut" unicode="&#x150;" horiz-adv-x="1644" 
d="M1298 1004q0 150 -80 262q-81 113 -255 112q-137 0 -243 -80t-164 -206q-116 -252 -116 -521q0 -167 82 -279t262 -112q131 0 236 80q104 80 162 205q116 255 116 539zM992 1589q262 0 432 -170q170 -171 168 -447q-1 -276 -91 -495t-280 -364t-459 -145t-441 164
q-172 166 -173 452q-2 286 100 512t292 360q190 133 452 133zM795 1706l104 272h227l-172 -272h-159zM1108 1706l121 272h227l-188 -272h-160z" />
    <glyph glyph-name="ohungarumlaut" unicode="&#x151;" horiz-adv-x="1204" 
d="M862 700q0 90 -45 160t-153 70t-183 -91q-129 -159 -129 -431q0 -246 201 -246q88 0 153 55t96 142q60 163 60 341zM543 -29q-217 0 -341 120q-124 121 -124 315q0 407 267 608q138 104 341 104t327 -122t124 -326q0 -289 -160 -494t-434 -205zM471 1266l156 348h229
l-223 -348h-162zM782 1266l172 348h230l-242 -348h-160z" />
    <glyph glyph-name="OE" unicode="&#x152;" horiz-adv-x="2373" 
d="M735 -33q-262 0 -425 163t-163 464q3 430 229 712t582 281q156 0 266 -62t160 -173h5l43 215h989l-43 -226h-711l-86 -446h668l-43 -219h-668l-88 -453h733l-43 -223h-1012l33 176h-6q-158 -209 -420 -209zM442 554q0 -150 82 -262t257 -112t302 130t170 347l43 215
q23 84 14 174t-41 164t-111 121q-78 47 -204 47t-232 -80t-165 -205q-115 -254 -115 -539z" />
    <glyph glyph-name="oe" unicode="&#x153;" horiz-adv-x="1933" 
d="M1305 -29q-274 0 -373 197q-143 -197 -400 -197q-214 0 -334 120q-120 121 -120 315q0 407 267 608q138 104 325 104q279 0 362 -211q156 211 412 211q172 0 275 -81q196 -154 130 -482l-14 -76h-721q-2 -20 -2 -63q0 -115 50 -185t159 -69q172 0 209 145h266
q-37 -162 -166 -249t-325 -87zM862 700q0 90 -45 160t-153 70t-183 -91q-129 -159 -129 -431q0 -246 201 -246q88 0 153 55t96 142q60 163 60 341zM1427 938q-102 0 -174 -80t-108 -209h450l2 13q43 276 -170 276z" />
    <glyph glyph-name="Racute" unicode="&#x154;" horiz-adv-x="1417" 
d="M883 1567q188 0 315 -72q193 -109 193 -348q1 -176 -91 -303t-276 -178v-7l254 -659h-291l-229 621h-285l-123 -621h-276l301 1567h508zM799 829q145 0 227 80t82 232q0 221 -256 221h-238l-104 -533h289zM784 1694l168 272h279l-246 -272h-201z" />
    <glyph glyph-name="racute" unicode="&#x155;" horiz-adv-x="833" 
d="M809 846q-164 0 -258 -75t-129 -247l-100 -524h-269l211 1092h256l-45 -226h6q63 115 163 180t222 64h13l-50 -264h-20zM489 1266l166 348h281l-244 -348h-203z" />
    <glyph glyph-name="Rcommaaccent" unicode="&#x156;" horiz-adv-x="1417" 
d="M883 1567q188 0 315 -72q193 -109 193 -348q1 -176 -91 -303t-276 -178v-7l254 -659h-291l-229 621h-285l-123 -621h-276l301 1567h508zM799 829q145 0 227 80t82 232q0 221 -256 221h-238l-104 -533h289zM403 -440l109 305h268l-198 -305h-179z" />
    <glyph glyph-name="rcommaaccent" unicode="&#x157;" horiz-adv-x="833" 
d="M809 846q-164 0 -258 -75t-129 -247l-100 -524h-269l211 1092h256l-45 -226h6q63 115 163 180t222 64h13l-50 -264h-20zM-80 -440l109 305h268l-199 -305h-178z" />
    <glyph glyph-name="Rcaron" unicode="&#x158;" horiz-adv-x="1417" 
d="M883 1567q188 0 315 -72q193 -109 193 -348q1 -176 -91 -303t-276 -178v-7l254 -659h-291l-229 621h-285l-123 -621h-276l301 1567h508zM799 829q145 0 227 80t82 232q0 221 -256 221h-238l-104 -533h289zM750 1694l-166 272h200l107 -129h2l149 129h213l-264 -272h-241z
" />
    <glyph glyph-name="rcaron" unicode="&#x159;" horiz-adv-x="833" 
d="M809 846q-164 0 -258 -75t-129 -247l-100 -524h-269l211 1092h256l-45 -226h6q63 115 163 180t222 64h13l-50 -264h-20zM489 1266l-143 348h193l92 -176l157 176h203l-272 -348h-230z" />
    <glyph glyph-name="Sacute" unicode="&#x15a;" horiz-adv-x="1374" 
d="M758 1694l168 272h278l-246 -272h-200zM975 440q0 76 -47 124t-152 81l-188 60q-182 57 -265 155t-83 246q0 223 166 354t408 129t386 -119q143 -117 131 -337h-280q6 113 -59 179q-66 66 -186 66t-200 -60t-80 -150t44 -136q44 -47 151 -80l188 -59q189 -59 271 -155
t82 -246q0 -236 -171 -379t-441 -143t-430 124q-160 125 -146 363h291q-6 -272 294 -273q131 0 224 68q92 68 92 188z" />
    <glyph glyph-name="sacute" unicode="&#x15b;" horiz-adv-x="1052" 
d="M571 936q-76 0 -128 -37t-52 -93t30 -86t101 -46l131 -31q151 -35 217 -109t66 -188q0 -176 -128 -275t-326 -99t-326 83q-127 84 -121 271h250q-4 -84 48 -128t144 -44t150 36q57 37 57 113q0 94 -139 127l-127 31q-143 35 -211 105t-68 194q0 170 127 264
q126 94 314 94t300 -83t103 -247h-244q4 72 -44 110t-124 38zM520 1266l166 348h281l-244 -348h-203z" />
    <glyph glyph-name="Scircumflex" unicode="&#x15c;" horiz-adv-x="1374" 
d="M975 440q0 76 -47 124t-152 81l-188 60q-182 57 -265 155t-83 246q0 223 166 354t408 129t386 -119q143 -117 131 -337h-280q6 113 -59 179q-66 66 -186 66t-200 -60t-80 -150t44 -136q44 -47 151 -80l188 -59q189 -59 271 -155t82 -246q0 -236 -171 -379t-441 -143
t-430 124q-160 125 -146 363h291q-6 -272 294 -273q131 0 224 68q92 68 92 188zM1026 1966l160 -272h-197l-102 129h-2l-148 -129h-202l247 272h244z" />
    <glyph glyph-name="scircumflex" unicode="&#x15d;" horiz-adv-x="1052" 
d="M571 936q-76 0 -128 -37t-52 -93t30 -86t101 -46l131 -31q151 -35 217 -109t66 -188q0 -176 -128 -275t-326 -99t-326 83q-127 84 -121 271h250q-4 -84 48 -128t144 -44t150 36q57 37 57 113q0 94 -139 127l-127 31q-143 35 -211 105t-68 194q0 170 127 264
q126 94 314 94t300 -83t103 -247h-244q4 72 -44 110t-124 38zM811 1614l143 -348h-192l-96 176l-154 -176h-203l273 348h229z" />
    <glyph glyph-name="Scedilla" unicode="&#x15e;" horiz-adv-x="1374" 
d="M776 -263q0 -77 -64 -133t-162 -55q-212 0 -204 152h141q6 -45 58 -45q76 0 76 74q0 61 -56 61q-37 0 -59 -24h-125l117 215q-205 34 -321 154t-103 321h291q-6 -272 294 -273q131 0 224 68q92 68 92 188q0 76 -47 124t-152 81l-188 60q-182 57 -265 155t-83 246
q0 223 166 354t408 129t386 -119q143 -117 131 -337h-280q6 113 -59 179q-66 66 -186 66t-200 -60t-80 -150t44 -136q44 -47 151 -80l188 -59q189 -59 271 -155t82 -246q0 -236 -171 -379t-442 -144q-33 0 -49 2l-55 -104h4q35 25 92 25t96 -40q39 -38 39 -115z" />
    <glyph glyph-name="scedilla" unicode="&#x15f;" horiz-adv-x="1052" 
d="M610 -263q0 -77 -64 -133t-162 -55q-212 0 -204 152h142q6 -45 57 -45q76 0 76 74q0 61 -56 61q-39 0 -59 -24h-125l119 217q-139 24 -222 108t-77 234h250q-4 -84 48 -128t144 -44t150 36q57 37 57 113q0 94 -139 127l-127 31q-143 35 -211 105t-68 194q0 170 127 264
q126 94 314 94t301 -83t102 -247h-244q4 72 -44 110t-124 38t-128 -37t-52 -93t30 -86t101 -46l131 -31q151 -35 217 -109t66 -188q0 -176 -128 -275t-335 -100h-39l-55 -104h4q35 25 92 25t96 -40q39 -38 39 -115z" />
    <glyph glyph-name="Scaron" unicode="&#x160;" horiz-adv-x="1374" 
d="M975 440q0 76 -47 124t-152 81l-188 60q-182 57 -265 155t-83 246q0 223 166 354t408 129t386 -119q143 -117 131 -337h-280q6 113 -59 179q-66 66 -186 66t-200 -60t-80 -150t44 -136q44 -47 151 -80l188 -59q189 -59 271 -155t82 -246q0 -236 -171 -379t-441 -143
t-430 124q-160 125 -146 363h291q-6 -272 294 -273q131 0 224 68q92 68 92 188zM741 1694l-166 272h201l107 -129h2l149 129h213l-264 -272h-242z" />
    <glyph glyph-name="scaron" unicode="&#x161;" horiz-adv-x="1052" 
d="M571 936q-76 0 -128 -37t-52 -93t30 -86t101 -46l131 -31q151 -35 217 -109t66 -188q0 -176 -128 -275t-326 -99t-326 83q-127 84 -121 271h250q-4 -84 48 -128t144 -44t150 36q57 37 57 113q0 94 -139 127l-127 31q-143 35 -211 105t-68 194q0 170 127 264
q126 94 314 94t300 -83t103 -247h-244q4 72 -44 110t-124 38zM504 1266l-144 348h193l92 -176l158 176h203l-273 -348h-229z" />
    <glyph glyph-name="Tcommaaccent" unicode="&#x162;" horiz-adv-x="1304" 
d="M950 1339l-260 -1339h-280l260 1339h-473l45 228h1222l-43 -228h-471zM293 -440l108 305h269l-199 -305h-178z" />
    <glyph glyph-name="tcommaaccent" unicode="&#x163;" horiz-adv-x="778" 
d="M471 -16q-365 0 -295 358l107 553h-166l39 192h28q102 1 146 45t71 189l17 80h229l-61 -309h245l-38 -197h-244l-105 -533q-20 -98 6 -134t111 -35l94 10l-41 -205q-129 -14 -143 -14zM102 -440l109 305h268l-198 -305h-179z" />
    <glyph glyph-name="Tcaron" unicode="&#x164;" horiz-adv-x="1304" 
d="M950 1339l-260 -1339h-280l260 1339h-473l45 228h1222l-43 -228h-471zM762 1694l-166 272h201l106 -129h2l150 129h213l-264 -272h-242z" />
    <glyph glyph-name="tcaron" unicode="&#x165;" horiz-adv-x="778" 
d="M471 -16q-365 0 -295 358l107 553h-166l39 192h28q102 1 146 45t71 189l17 80h229l-61 -309h245l-38 -197h-244l-105 -533q-20 -98 6 -134t111 -35l94 10l-41 -205q-129 -14 -143 -14zM764 1249l90 365h223l-176 -365h-137z" />
    <glyph glyph-name="Tbar" unicode="&#x166;" horiz-adv-x="1304" 
d="M846 801l-156 -801h-280l155 801h-366l34 180h367l70 358h-473l45 228h1222l-43 -228h-471l-69 -358h370l-34 -180h-371z" />
    <glyph glyph-name="tbar" unicode="&#x167;" horiz-adv-x="778" 
d="M471 -16q-365 0 -295 358l29 145h-172l35 179h170l45 229h-166l39 192h28q102 1 146 45t71 189l17 80h229l-61 -309h245l-38 -197h-244l-45 -229h246l-35 -179h-246l-25 -125q-20 -98 6 -134t111 -35l94 10l-41 -205q-129 -14 -143 -14z" />
    <glyph glyph-name="Utilde" unicode="&#x168;" horiz-adv-x="1523" 
d="M1155 1876q39 0 64 26t45 87h149q-16 -131 -88 -216t-188 -85q-78 0 -159 54t-114 54q-70 0 -112 -113h-148q16 125 91 214t198 90q71 1 147 -55t115 -56zM474 294q64 -99 255 -99q192 0 292 129q9 12 18 29t15 27t13 34q6 24 10 32q5 8 13 48t13 68t7 34l186 971h277
l-203 -1051q-104 -547 -655 -547q-313 0 -460 158q-146 158 -85 475l186 965h281l-180 -922q-47 -252 17 -351z" />
    <glyph glyph-name="utilde" unicode="&#x169;" horiz-adv-x="1253" 
d="M676 1579q66 0 146 -55t114 -56q74 0 106 113h146q-14 -137 -83 -226t-194 -89q-65 0 -149 56t-117 56q-72 0 -102 -114h-146q12 137 83 226t196 89zM535 182q111 0 185 89t107 253l111 568h270l-213 -1092h-258l37 186h-4q-131 -209 -350 -209q-184 0 -262 114t-35 331
l129 670h270l-121 -631q-14 -80 -14 -123q-4 -156 148 -156z" />
    <glyph glyph-name="Umacron" unicode="&#x16a;" horiz-adv-x="1523" 
d="M659 1726l37 191h652l-37 -191h-652zM474 294q64 -99 255 -99q192 0 292 129q9 12 18 29t15 27t13 34q6 24 10 32q5 8 13 48t13 68t7 34l186 971h277l-203 -1051q-104 -547 -655 -547q-313 0 -460 158q-146 158 -85 475l186 965h281l-180 -922q-47 -252 17 -351z" />
    <glyph glyph-name="umacron" unicode="&#x16b;" horiz-adv-x="1253" 
d="M446 1311l37 188h652l-37 -188h-652zM535 182q111 0 185 89t107 253l111 568h270l-213 -1092h-258l37 186h-4q-131 -209 -350 -209q-184 0 -262 114t-35 331l129 670h270l-121 -631q-14 -80 -14 -123q-4 -156 148 -156z" />
    <glyph glyph-name="Ubreve" unicode="&#x16c;" horiz-adv-x="1523" 
d="M1006 1851q129 0 174 138h180q-33 -160 -133 -235q-99 -75 -237 -75t-218 80t-57 230h172q-4 -63 27 -101q32 -37 92 -37zM474 294q64 -99 255 -99q192 0 292 129q9 12 18 29t15 27t13 34q6 24 10 32q5 8 13 48t13 68t7 34l186 971h277l-203 -1051q-104 -547 -655 -547
q-313 0 -460 158q-146 158 -85 475l186 965h281l-180 -922q-47 -252 17 -351z" />
    <glyph glyph-name="ubreve" unicode="&#x16d;" horiz-adv-x="1253" 
d="M776 1266q-144 0 -222 89t-44 259h176q-14 -80 16 -122t95 -42q139 0 174 164h184q-27 -176 -131 -262t-248 -86zM535 182q111 0 185 89t107 253l111 568h270l-213 -1092h-258l37 186h-4q-131 -209 -350 -209q-184 0 -262 114t-35 331l129 670h270l-121 -631
q-14 -80 -14 -123q-4 -156 148 -156z" />
    <glyph glyph-name="Uring" unicode="&#x16e;" horiz-adv-x="1523" 
d="M907 1871q0 -116 102 -116q50 0 82 38t31 101q0 109 -100 109q-51 0 -83 -38t-32 -94zM1024 2120q116 0 180 -60t64 -170q0 -108 -74 -180t-193 -72q-109 4 -175 62t-66 166q0 110 74 182t190 72zM474 294q64 -99 255 -99q192 0 292 129q9 12 18 29t15 27t13 34
q6 24 10 32q5 8 13 48t13 68t7 34l186 971h277l-203 -1051q-104 -547 -655 -547q-313 0 -460 158q-146 158 -85 475l186 965h281l-180 -922q-47 -252 17 -351z" />
    <glyph glyph-name="uring" unicode="&#x16f;" horiz-adv-x="1253" 
d="M535 182q111 0 185 89t107 253l111 568h270l-213 -1092h-258l37 186h-4q-131 -209 -350 -209q-184 0 -262 114t-35 331l129 670h270l-121 -631q-14 -80 -14 -123q-4 -156 148 -156zM698 1480q0 -116 102 -116q50 0 82 38t31 101q0 109 -100 109q-51 0 -83 -38t-32 -94z
M814 1729q116 -1 180 -61t65 -169t-73 -179t-186 -70t-182 58q-68 58 -68 166t75 182q73 73 189 73z" />
    <glyph glyph-name="Uhungarumlaut" unicode="&#x170;" horiz-adv-x="1523" 
d="M474 294q64 -99 255 -99q192 0 292 129q9 12 18 29t15 27t13 34q6 24 10 32q5 8 13 48t13 68t7 34l186 971h277l-203 -1051q-104 -547 -655 -547q-313 0 -460 158q-146 158 -85 475l186 965h281l-180 -922q-47 -252 17 -351zM735 1706l105 272h227l-172 -272h-160z
M1049 1706l120 272h228l-189 -272h-159z" />
    <glyph glyph-name="uhungarumlaut" unicode="&#x171;" horiz-adv-x="1253" 
d="M500 1266l155 348h230l-223 -348h-162zM811 1266l172 348h229l-241 -348h-160zM535 182q111 0 185 89t107 253l111 568h270l-213 -1092h-258l37 186h-4q-131 -209 -350 -209q-184 0 -262 114t-35 331l129 670h270l-121 -631q-14 -80 -14 -123q-4 -156 148 -156z" />
    <glyph glyph-name="Uogonek" unicode="&#x172;" horiz-adv-x="1523" 
d="M719 195q248 0 334 185q25 54 32 91q8 37 25 125l186 971h277l-203 -1051q-51 -258 -179 -377q-127 -119 -323 -155t-196 -140q0 -66 100 -65l-31 -164h-51q-250 0 -250 156q0 127 146 204v5q-217 21 -343 163q-125 142 -73 459l186 965h281l-180 -922q-47 -248 14 -346
q70 -104 248 -104z" />
    <glyph glyph-name="uogonek" unicode="&#x173;" horiz-adv-x="1253" 
d="M420 -23q-184 0 -262 114t-35 331l129 670h270l-121 -631q-14 -63 -14 -123q-2 -156 148 -156q111 0 185 89t107 253l111 568h270l-211 -1092q-147 -74 -147 -162q0 -59 100 -59l-30 -164h-52q-250 0 -250 156q0 145 193 229h-74l37 186h-4q-131 -209 -350 -209z" />
    <glyph glyph-name="Wcircumflex" unicode="&#x174;" horiz-adv-x="2121" 
d="M1466 336h4q27 104 95 256l432 975h264l-715 -1567h-280l-64 975q-12 159 -6 244v28h-4q-29 -94 -98 -246l-453 -1001h-285l-108 1567h276l51 -949q8 -170 3 -249l-5 -33h5q33 104 102 256l444 975h269l67 -951q12 -157 6 -249v-31zM1448 1966l160 -272h-197l-102 129h-2
l-148 -129h-203l248 272h244z" />
    <glyph glyph-name="wcircumflex" unicode="&#x175;" horiz-adv-x="1669" 
d="M246 0l-109 1092h252l41 -590l4 -232h4q45 125 90 219l291 603h236l61 -598l12 -226h5q39 127 79 217l271 607h246l-508 -1092h-265l-55 547l-14 264h-4q-57 -145 -107 -250l-266 -561h-264zM1139 1614l143 -348h-192l-97 176l-153 -176h-203l272 348h230z" />
    <glyph glyph-name="Ycircumflex" unicode="&#x176;" horiz-adv-x="1368" 
d="M1069 1966l160 -272h-197l-102 129h-2l-148 -129h-202l247 272h244zM440 0l133 680l-348 887h299l234 -654h4l489 654h297l-704 -922l-125 -645h-279z" />
    <glyph glyph-name="ycircumflex" unicode="&#x177;" horiz-adv-x="1110" 
d="M891 1614l143 -348h-192l-97 176l-153 -176h-203l273 348h229zM334 2l-180 1090h270l80 -613l14 -207h4q37 94 84 193l301 627h271l-613 -1166q-96 -184 -196 -258t-279 -76q-104 0 -156 21l41 203q41 -12 115 -12t125 34q51 35 96 121z" />
    <glyph glyph-name="Ydieresis" unicode="&#x178;" horiz-adv-x="1368" 
d="M575 1692l50 252h241l-49 -252h-242zM1008 1692l49 252h241l-49 -252h-241zM440 0l133 680l-348 887h299l234 -654h4l489 654h297l-704 -922l-125 -645h-279z" />
    <glyph glyph-name="Zacute" unicode="&#x179;" horiz-adv-x="1312" 
d="M272 1339l45 228h1102l-39 -199l-1011 -1141h802l-43 -227h-1148l36 199l1012 1140h-756zM760 1694l168 272h278l-245 -272h-201z" />
    <glyph glyph-name="zacute" unicode="&#x17a;" horiz-adv-x="1079" 
d="M190 885l41 207h861l-37 -197l-695 -686h570l-41 -209h-893l37 197l692 688h-535zM569 1266l166 348h281l-244 -348h-203z" />
    <glyph glyph-name="Zdotaccent" unicode="&#x17b;" horiz-adv-x="1312" 
d="M756 1708l49 254h246l-50 -254h-245zM272 1339l45 228h1102l-39 -199l-1011 -1141h802l-43 -227h-1148l36 199l1012 1140h-756z" />
    <glyph glyph-name="zdotaccent" unicode="&#x17c;" horiz-adv-x="1079" 
d="M569 1311l49 252h246l-49 -252h-246zM190 885l41 207h861l-37 -197l-695 -686h570l-41 -209h-893l37 197l692 688h-535z" />
    <glyph glyph-name="Zcaron" unicode="&#x17d;" horiz-adv-x="1312" 
d="M272 1339l45 228h1102l-39 -199l-1011 -1141h802l-43 -227h-1148l36 199l1012 1140h-756zM756 1694l-166 272h201l106 -129h2l150 129h213l-265 -272h-241z" />
    <glyph glyph-name="zcaron" unicode="&#x17e;" horiz-adv-x="1079" 
d="M190 885l41 207h861l-37 -197l-695 -686h570l-41 -209h-893l37 197l692 688h-535zM569 1266l-143 348h192l93 -176l157 176h203l-272 -348h-230z" />
    <glyph glyph-name="florin" unicode="&#x192;" horiz-adv-x="882" 
d="M856 1616q104 0 141 -12l-30 -207q-29 8 -97 8t-115 -39q-46 -39 -71 -143l-72 -299h242l-37 -197h-252l-268 -1114h-260l264 1114h-225l37 197h233l76 317q47 207 157 291t277 84z" />
    <glyph glyph-name="Aringacute" unicode="&#x1fa;" horiz-adv-x="1511" 
d="M1092 1877q0 116 -101 116q-51 0 -83 -38q-32 -39 -32 -95q1 -116 99 -115q53 0 85 38t32 94zM729 1856q0 108 74 181q73 73 189 73t180 -61q64 -60 65 -169q1 -108 -73 -180t-193 -72q-109 4 -175 62t-67 166zM926 2161l168 272h278l-246 -272h-200zM1073 0l-61 393
h-580l-199 -393h-276l815 1567h315l267 -1567h-281zM885 1319h-4q-12 -49 -107 -238l-237 -479h442l-70 475q-16 106 -24 213v29z" />
    <glyph glyph-name="aringacute" unicode="&#x1fb;" horiz-adv-x="1155" 
d="M670 1753l168 272h278l-246 -272h-200zM616 1434q0 -116 102 -115q50 0 82 38t31 101q0 109 -100 109q-51 0 -83 -38q-32 -39 -32 -95zM977 1454q1 -110 -73 -180t-186 -69t-181 59q-68 58 -68 166t74 181q73 73 189 73t180 -61q64 -60 65 -169zM654 1116q222 0 320 -123
q97 -123 56 -331l-69 -357q-12 -61 7 -87t70 -23l-39 -199h-65q-197 0 -219 156h-6q-68 -84 -143 -125q-76 -41 -206 -41t-226 80q-95 80 -95 229q0 260 301 332q115 29 428 32l10 54q20 104 -20 160q-41 56 -137 57q-175 0 -191 -154h-264q18 162 142 251t346 89zM309 314
q0 -68 41 -106t125 -38t156 80t100 221l6 31q-195 -4 -267 -20t-117 -58q-44 -43 -44 -110z" />
    <glyph glyph-name="AEacute" unicode="&#x1fc;" horiz-adv-x="2121" 
d="M874 0l78 408h-503l-248 -408h-301l968 1567h1301l-43 -226h-713l-86 -446h670l-43 -219h-670l-88 -453h733l-43 -223h-1012zM993 618l140 723h-129q-76 -145 -136 -241l-293 -482h418zM1272 1694l168 272h278l-245 -272h-201z" />
    <glyph glyph-name="aeacute" unicode="&#x1fd;" horiz-adv-x="1824" 
d="M380 -12q-150 0 -245 78q-94 78 -94 225q0 264 297 336q119 29 432 32l10 54q20 104 -21 160q-42 56 -138 57q-170 0 -191 -154h-262q16 162 141 251t332 89q238 0 326 -176h2q141 178 383 178t338 -162q98 -162 53 -401l-14 -76h-719q-2 -20 -2 -63q0 -254 209 -254
q170 0 210 145h263q-37 -162 -163 -245t-321 -82q-293 0 -399 215h-4q-84 -99 -179 -153q-94 -54 -244 -54zM311 315q0 -145 166 -145q86 0 156 77t100 224l6 31q-195 -4 -269 -20q-158 -32 -159 -167zM1325 938q-102 0 -175 -80t-110 -209h453l2 13q43 276 -170 276z
M936 1266l166 348h280l-243 -348h-203z" />
    <glyph glyph-name="Oslashacute" unicode="&#x1fe;" horiz-adv-x="1644" 
d="M920 1694l167 272h279l-246 -272h-200zM147 596q-1 274 101 500t292 360q190 133 441 133q252 0 416 -145l170 174h211l-283 -291q98 -155 97 -393t-91 -457t-280 -364t-458 -145t-435 157l-172 -178h-209l286 297q-86 147 -86 352zM784 178q109 0 199 55q157 96 239 314
t85 432q0 74 -13 141l-794 -819q85 -123 284 -123zM963 1380q-139 0 -248 -82t-167 -210q-116 -255 -116 -517q0 -53 10 -114l787 813q-84 110 -266 110z" />
    <glyph glyph-name="oslashacute" unicode="&#x1ff;" horiz-adv-x="1204" 
d="M616 1266l166 348h281l-244 -348h-203zM1137 670q0 -289 -160 -494t-434 -205q-193 0 -312 95l-131 -136h-176l223 228q-69 110 -69 276t64 321q65 155 203 259t330 104t312 -98l133 135h178l-227 -231q66 -107 66 -254zM540 158q102 0 168 56q107 89 147 314
q15 84 15 162v27l-481 -492q49 -67 151 -67zM664 934q-84 0 -149 -52q-108 -87 -154 -305q-17 -87 -17 -143t2 -72l483 496q-48 76 -165 76z" />
    <glyph glyph-name="Scommaaccent" unicode="&#x218;" horiz-adv-x="1374" 
d="M975 440q0 76 -47 124t-152 81l-188 60q-182 57 -265 155t-83 246q0 223 166 354t408 129t386 -119q143 -117 131 -337h-280q6 113 -59 179q-66 66 -186 66t-200 -60t-80 -150t44 -136q44 -47 151 -80l188 -59q189 -59 271 -155t82 -246q0 -236 -171 -379t-441 -143
t-430 124q-160 125 -146 363h291q-6 -272 294 -273q131 0 224 68q92 68 92 188zM367 -440l108 305h268l-198 -305h-178z" />
    <glyph glyph-name="scommaaccent" unicode="&#x219;" horiz-adv-x="1052" 
d="M571 936q-76 0 -128 -37t-52 -93t30 -86t101 -46l131 -31q151 -35 217 -109t66 -188q0 -176 -128 -275t-326 -99t-326 83q-127 84 -121 271h250q-4 -84 48 -128t144 -44t150 36q57 37 57 113q0 94 -139 127l-127 31q-143 35 -211 105t-68 194q0 170 127 264
q126 94 314 94t300 -83t103 -247h-244q4 72 -44 110t-124 38zM184 -440l109 305h268l-199 -305h-178z" />
    <glyph glyph-name="uni021A" unicode="&#x21a;" horiz-adv-x="1304" 
d="M950 1339l-260 -1339h-280l260 1339h-473l45 228h1222l-43 -228h-471zM293 -440l108 305h269l-199 -305h-178z" />
    <glyph glyph-name="uni021B" unicode="&#x21b;" horiz-adv-x="778" 
d="M471 -16q-365 0 -295 358l107 553h-166l39 192h28q102 1 146 45t71 189l17 80h229l-61 -309h245l-38 -197h-244l-105 -533q-20 -98 6 -134t111 -35l94 10l-41 -205q-129 -14 -143 -14zM102 -440l109 305h268l-198 -305h-179z" />
    <glyph glyph-name="uni0237" unicode="&#x237;" horiz-adv-x="585" 
d="M-115 -209q133 0 158 139l227 1162h271l-232 -1182q-61 -328 -395 -328q-88 0 -154 25l39 196q43 -12 86 -12z" />
    <glyph glyph-name="circumflex" unicode="&#x2c6;" horiz-adv-x="741" 
d="M698 1614l144 -348h-193l-96 176l-154 -176h-202l272 348h229z" />
    <glyph glyph-name="caron" unicode="&#x2c7;" horiz-adv-x="700" 
d="M373 1266l-144 348h193l92 -176l158 176h202l-272 -348h-229z" />
    <glyph glyph-name="breve" unicode="&#x2d8;" horiz-adv-x="745" 
d="M520 1266q-144 0 -222 89t-44 259h176q-14 -80 16 -122t95 -42q139 0 174 164h184q-27 -176 -131 -262t-248 -86z" />
    <glyph glyph-name="dotaccent" unicode="&#x2d9;" horiz-adv-x="528" 
d="M299 1311l49 252h246l-49 -252h-246z" />
    <glyph glyph-name="ring" unicode="&#x2da;" horiz-adv-x="753" 
d="M444 1480q0 -116 102 -116q50 0 82 38t31 101q0 109 -100 109q-51 0 -83 -38t-32 -94zM560 1729q116 -1 180 -61t65 -169t-73 -179t-186 -70t-181 58q-68 58 -68 166t74 182q73 73 189 73z" />
    <glyph glyph-name="ogonek" unicode="&#x2db;" horiz-adv-x="759" 
d="M285 -162q0 -59 100 -59l-31 -164h-51q-250 0 -250 156q0 80 64 145t170 96l143 -8q-145 -86 -145 -166z" />
    <glyph glyph-name="tilde" unicode="&#x2dc;" horiz-adv-x="745" 
d="M418 1579q66 0 146 -55t114 -56q74 0 106 113h146q-14 -137 -83 -226t-194 -89q-65 0 -149 56t-117 56q-72 0 -102 -114h-146q12 137 83 226t196 89z" />
    <glyph glyph-name="hungarumlaut" unicode="&#x2dd;" horiz-adv-x="774" 
d="M209 1266l156 348h229l-223 -348h-162zM520 1266l172 348h230l-242 -348h-160z" />
    <glyph glyph-name="Wgrave" unicode="&#x1e80;" horiz-adv-x="2121" 
d="M1466 336h4q27 104 95 256l432 975h264l-715 -1567h-280l-64 975q-12 159 -6 244v28h-4q-29 -94 -98 -246l-453 -1001h-285l-108 1567h276l51 -949q8 -170 3 -249l-5 -33h5q33 104 102 256l444 975h269l67 -951q12 -157 6 -249v-31zM1307 1966l86 -272h-199l-150 272h263
z" />
    <glyph glyph-name="wgrave" unicode="&#x1e81;" horiz-adv-x="1669" 
d="M969 1614l100 -348h-201l-170 348h271zM246 0l-109 1092h252l41 -590l4 -232h4q45 125 90 219l291 603h236l61 -598l12 -226h5q39 127 79 217l271 607h246l-508 -1092h-265l-55 547l-14 264h-4q-57 -145 -107 -250l-266 -561h-264z" />
    <glyph glyph-name="Wacute" unicode="&#x1e82;" horiz-adv-x="2121" 
d="M1466 336h4q27 104 95 256l432 975h264l-715 -1567h-280l-64 975q-12 159 -6 244v28h-4q-29 -94 -98 -246l-453 -1001h-285l-108 1567h276l51 -949q8 -170 3 -249l-5 -33h5q33 104 102 256l444 975h269l67 -951q12 -157 6 -249v-31zM1167 1694l168 272h279l-246 -272
h-201z" />
    <glyph glyph-name="wacute" unicode="&#x1e83;" horiz-adv-x="1669" 
d="M246 0l-109 1092h252l41 -590l4 -232h4q45 125 90 219l291 603h236l61 -598l12 -226h5q39 127 79 217l271 607h246l-508 -1092h-265l-55 547l-14 264h-4q-57 -145 -107 -250l-266 -561h-264zM856 1266l166 348h281l-244 -348h-203z" />
    <glyph glyph-name="Wdieresis" unicode="&#x1e84;" horiz-adv-x="2121" 
d="M1466 336h4q27 104 95 256l432 975h264l-715 -1567h-280l-64 975q-12 159 -6 244v28h-4q-29 -94 -98 -246l-453 -1001h-285l-108 1567h276l51 -949q8 -170 3 -249l-5 -33h5q33 104 102 256l444 975h269l67 -951q12 -157 6 -249v-31zM946 1692l49 252h242l-49 -252h-242z
M1378 1692l49 252h242l-49 -252h-242z" />
    <glyph glyph-name="wdieresis" unicode="&#x1e85;" horiz-adv-x="1669" 
d="M246 0l-109 1092h252l41 -590l4 -232h4q45 125 90 219l291 603h236l61 -598l12 -226h5q39 127 79 217l271 607h246l-508 -1092h-265l-55 547l-14 264h-4q-57 -145 -107 -250l-266 -561h-264zM653 1311l49 252h242l-49 -252h-242zM1063 1311l49 252h242l-49 -252h-242z
" />
    <glyph glyph-name="Ygrave" unicode="&#x1ef2;" horiz-adv-x="1368" 
d="M936 1966l86 -272h-199l-149 272h262zM440 0l133 680l-348 887h299l234 -654h4l489 654h297l-704 -922l-125 -645h-279z" />
    <glyph glyph-name="ygrave" unicode="&#x1ef3;" horiz-adv-x="1110" 
d="M721 1614l100 -348h-200l-170 348h270zM334 2l-180 1090h270l80 -613l14 -207h4q37 94 84 193l301 627h271l-613 -1166q-96 -184 -196 -258t-279 -76q-104 0 -156 21l41 203q41 -12 115 -12t125 34q51 35 96 121z" />
    <glyph glyph-name="uni2009" unicode="&#x2009;" horiz-adv-x="59" 
 />
    <glyph glyph-name="endash" unicode="&#x2013;" horiz-adv-x="1060" 
d="M121 551l39 201h844l-39 -201h-844z" />
    <glyph glyph-name="emdash" unicode="&#x2014;" horiz-adv-x="1804" 
d="M123 553l37 197h1587l-39 -197h-1585z" />
    <glyph glyph-name="quoteleft" unicode="&#x2018;" horiz-adv-x="538" 
d="M631 1567l-166 -504h-289l281 504h174z" />
    <glyph glyph-name="quoteright" unicode="&#x2019;" horiz-adv-x="538" 
d="M211 1061l168 506h289l-279 -506h-178z" />
    <glyph glyph-name="quotesinglbase" unicode="&#x201a;" horiz-adv-x="538" 
d="M-39 -231l166 505h289l-277 -505h-178z" />
    <glyph glyph-name="quotedblleft" unicode="&#x201c;" horiz-adv-x="923" 
d="M629 1567l-166 -504h-285l275 504h176zM1016 1567l-166 -504h-285l275 504h176z" />
    <glyph glyph-name="quotedblright" unicode="&#x201d;" horiz-adv-x="933" 
d="M215 1061l168 506h285l-275 -506h-178zM602 1061l168 506h283l-275 -506h-176z" />
    <glyph glyph-name="quotedblbase" unicode="&#x201e;" horiz-adv-x="921" 
d="M-39 -231l166 505h285l-273 -505h-178zM348 -231l166 505h285l-275 -505h-176z" />
    <glyph glyph-name="dagger" unicode="&#x2020;" horiz-adv-x="630" 
d="M537 1171l-113 -577h-195l113 577h-180l35 187h180l41 209h194l-41 -209h179l-35 -187h-178z" />
    <glyph glyph-name="daggerdbl" unicode="&#x2021;" horiz-adv-x="632" 
d="M467 803l-41 -209h-195l41 209h-178l33 172h178l41 211h-178l33 172h178l41 209h194l-41 -209h181l-33 -172h-180l-41 -211h180l-33 -172h-180z" />
    <glyph glyph-name="bullet" unicode="&#x2022;" horiz-adv-x="819" 
d="M413 389q-103 0 -169 67t-66 173t69 175q69 68 172 68t169 -68t66 -173q0 -106 -70 -174q-68 -68 -171 -68z" />
    <glyph glyph-name="ellipsis" unicode="&#x2026;" horiz-adv-x="1636" 
d="M23 0l55 299h307l-57 -299h-305zM567 0l56 299h307l-58 -299h-305zM1112 0l57 299h306l-56 -299h-307z" />
    <glyph glyph-name="perthousand" unicode="&#x2030;" horiz-adv-x="2564" 
d="M1266 143q94 0 141 90t47 199q0 137 -123 137q-90 0 -139 -88t-51 -200q0 -138 125 -138zM2081 143q96 0 142 90t46 199q0 137 -123 137q-90 0 -138 -87t-52 -201q0 -138 125 -138zM1257 -14q-147 0 -229 80t-82 213q0 188 109 317t271 129t246 -81t83 -214
q0 -186 -108 -315t-290 -129zM2073 -14q-147 0 -230 80q-82 80 -82 213q0 188 109 317t273 129q163 0 245 -81t82 -214q0 -186 -108 -315t-289 -129zM514 936q96 0 142 90t46 199q0 137 -120 137q-92 0 -140 -87t-51 -202q0 -137 123 -137zM195 1071q0 186 108 315
q109 130 273 130t246 -80t81 -213q0 -186 -107 -316q-108 -129 -288 -129q-147 0 -230 80t-83 213zM131 -82l1378 1681h222l-1377 -1681h-223z" />
    <glyph glyph-name="uni2032" unicode="&#x2032;" horiz-adv-x="497" 
d="M182 1061l131 506h285l-240 -506h-176z" />
    <glyph glyph-name="uni2033" unicode="&#x2033;" horiz-adv-x="884" 
d="M182 1061l131 506h285l-240 -506h-176zM567 1061l133 506h283l-238 -506h-178z" />
    <glyph glyph-name="guilsinglleft" unicode="&#x2039;" horiz-adv-x="663" 
d="M416 950h215l-293 -422l125 -411h-213l-137 424z" />
    <glyph glyph-name="guilsinglright" unicode="&#x203a;" horiz-adv-x="653" 
d="M254 117h-217l293 422l-121 411h211l135 -422z" />
    <glyph glyph-name="fraction" unicode="&#x2044;" horiz-adv-x="583" 
d="M-489 -82l1421 1681h203l-1422 -1681h-202z" />
    <glyph glyph-name="Euro" unicode="&#x20ac;" horiz-adv-x="1333" 
d="M658 -31q-228 0 -357 137t-127 408h-174l31 152h153q16 119 29 174h-154l31 151h164q86 259 251 405t393 144t350 -128t98 -345h-265q14 125 -35 197q-50 72 -163 73q-240 0 -355 -346h400l-31 -151h-410q-14 -61 -28 -174h409l-30 -152h-396q-14 -340 240 -340
q108 0 188 74t107 186h266q-45 -209 -201 -337t-384 -128z" />
    <glyph glyph-name="trademark" unicode="&#x2122;" horiz-adv-x="1382" 
d="M901 1407l-92 -467h-131l121 627h213l41 -336l4 -96h6q12 41 41 96l172 336h231l-121 -627h-139l90 467h-6q-25 -57 -61 -127l-180 -340h-123l-49 338l-11 129h-6zM182 1444l23 123h186l-24 -123h-185zM391 1567h137l-120 -627h-138zM528 1567h187l-23 -123h-186z" />
    <glyph glyph-name="onethird" unicode="&#x2153;" horiz-adv-x="1830" 
d="M12 -82l1422 1681h202l-1421 -1681h-203zM256 1417q88 0 139 34t70 116h182l-184 -883h-201l123 588h-188l28 145h31zM1380 381h-106l26 129h99q65 0 109 39t44 92t-32 81q-33 28 -86 28q-131 0 -152 -127h-197q13 117 107 195t244 77q150 0 233 -58q82 -59 82 -155
t-54 -154t-141 -79v-5q146 -41 146 -177t-106 -211q-106 -74 -268 -74q-163 0 -250 72t-77 204h195q0 -127 141 -127q74 0 118 40t44 99q0 111 -119 111z" />
    <glyph glyph-name="twothirds" unicode="&#x2154;" horiz-adv-x="2037" 
d="M258 -82l1421 1681h203l-1421 -1681h-203zM586 1579q146 0 227 -58q80 -57 80 -165t-60 -184t-180 -162l-227 -168v-4h387l-29 -154h-694l23 115l391 307q64 51 94 74q31 24 37 31t29 32q30 34 30 86q0 51 -30 78q-31 27 -84 27q-138 0 -156 -156h-195q11 143 111 222
t246 79zM1589 381h-106l26 129h99q66 0 110 39t43 92q0 53 -32 81q-33 28 -87 28q-131 0 -151 -127h-197q12 117 106 195t246 77q150 0 232 -58q82 -59 82 -155t-54 -154t-141 -79v-5q145 -41 145 -177t-104 -211q-106 -74 -269 -74t-250 72t-77 204h195q0 -127 141 -127
q74 0 118 40t44 99q0 111 -119 111z" />
    <glyph glyph-name="oneeighth" unicode="&#x215b;" horiz-adv-x="1832" 
d="M25 -82l1421 1681h203l-1422 -1681h-202zM256 1417q88 0 139 34t70 116h182l-184 -883h-201l123 588h-188l28 145h31zM1507 262q1 123 -149 123q-70 0 -111 -43t-41 -111q1 -116 140 -116q74 0 118 42t43 105zM1559 644q-1 112 -125 112q-58 0 -94 -40t-35 -98
q0 -106 114 -106q63 0 102 38q38 38 38 94zM1108 629q0 117 95 191t241 75q146 0 228 -58q81 -58 81 -163q0 -170 -186 -223v-7q143 -45 143 -177t-98 -209t-279 -76q-334 0 -334 235q1 95 59 157t156 85v6q-106 47 -106 164z" />
    <glyph glyph-name="threeeighths" unicode="&#x215c;" horiz-adv-x="2009" 
d="M541 1065h-107l27 129h98q66 0 110 39t44 92t-33 81t-86 28q-131 0 -152 -127h-196q12 117 106 195t244 77q150 0 233 -58q82 -59 82 -155t-54 -154t-140 -79v-5q145 -41 145 -177t-104 -211q-104 -74 -268 -74t-252 72q-86 72 -76 204h194q0 -127 142 -127q74 0 118 40
t43 99q1 111 -118 111zM242 -82l1421 1681h203l-1422 -1681h-202zM1683 266q0 123 -149 123q-70 0 -111 -43t-41 -110q1 -117 140 -117q74 0 118 42t43 105zM1735 648q-1 112 -125 112q-58 0 -94 -40t-35 -97q0 -106 114 -107q63 0 102 38q38 38 38 94zM1620 899
q146 0 228 -58q81 -58 81 -163q0 -170 -186 -223v-6q143 -45 143 -177t-98 -210q-98 -77 -279 -76q-334 0 -333 235q0 95 58 157t157 85v6q-106 47 -107 164q0 117 95 191t241 75z" />
    <glyph glyph-name="fiveeighths" unicode="&#x215d;" horiz-adv-x="1996" 
d="M225 -82l1422 1681h202l-1421 -1681h-203zM666 1001q0 123 -125 125q-86 0 -150 -69h-172l143 508h562l-33 -160h-404l-63 -217h6q82 78 200 78t180 -65t62 -173q0 -166 -110 -264t-281 -98q-170 0 -249 66t-70 202h196q-2 -55 33 -87t105 -32t120 54t50 132zM1671 262
q1 123 -149 123q-70 0 -111 -43t-41 -111q0 -116 139 -116q74 0 118 42t44 105zM1598 756q-58 0 -94 -40t-36 -98q0 -106 115 -106q63 0 101 38t38 94q0 112 -124 112zM1272 629q0 117 95 191t241 75q146 0 228 -58q81 -58 81 -163q0 -170 -186 -223v-7q143 -45 143 -177
t-98 -209t-279 -76q-334 0 -334 235q1 95 59 157t156 85v6q-106 47 -106 164z" />
    <glyph glyph-name="seveneighths" unicode="&#x215e;" horiz-adv-x="1857" 
d="M31 -82l1421 1681h203l-1422 -1681h-202zM162 684l487 721h-422l35 160h660l-25 -113l-520 -768h-215zM1530 262q0 123 -150 123q-70 0 -110 -43q-41 -43 -41 -111q0 -116 139 -116q74 0 118 42t44 105zM1581 644q-1 112 -125 112q-58 0 -94 -40t-35 -98q0 -106 115 -106
q63 0 101 38t38 94zM1468 895q146 0 227 -58t81 -163q0 -170 -187 -223v-7q143 -45 143 -177t-98 -209t-278 -76q-334 0 -334 235q0 95 58 157t157 85v6q-106 47 -107 164q0 117 96 191t242 75z" />
    <glyph glyph-name="minus" unicode="&#x2212;" horiz-adv-x="1261" 
d="M172 627l43 211h952l-43 -211h-952z" />
    <glyph glyph-name="approxequal" unicode="&#x2248;" horiz-adv-x="1083" 
d="M389 707q73 1 187 -51t157 -52q88 0 117 109h174q-20 -143 -100 -227t-205 -85q-78 -1 -196 51t-161 52q-86 0 -116 -111h-176q20 141 102 227t217 87zM465 1087q73 0 187 -52t157 -52q88 0 117 111h174q-23 -146 -102 -230t-203 -84q-78 0 -197 52t-162 53
q-86 0 -114 -111h-177q17 141 101 227t219 86z" />
    <glyph glyph-name="notequal" unicode="&#x2260;" horiz-adv-x="1302" 
d="M565 424l-149 -227h-178l149 227h-233l41 207h327l127 196h-418l41 207h512l154 234h178l-153 -234h262l-41 -207h-357l-127 -196h447l-41 -207h-541z" />
    <glyph glyph-name="lessequal" unicode="&#x2264;" horiz-adv-x="1263" 
d="M1004 0h-971l41 209h970zM1061 299l-883 494l29 139l1071 487l-45 -252l-729 -319l600 -330z" />
    <glyph glyph-name="greaterequal" unicode="&#x2265;" horiz-adv-x="1263" 
d="M1030 0h-969l41 209h971zM330 1409l882 -491l-28 -142l-1069 -485l45 250l729 321l-602 328z" />
    <glyph glyph-name="uni24C5" unicode="&#x24c5;" horiz-adv-x="1835" 
d="M993 780q166 0 172 160q4 63 -32 98q-37 35 -107 35h-100l-58 -293h125zM1055 1212q139 0 222 -68t79 -192q-4 -158 -102 -236t-259 -79h-153l-54 -281h-186l162 856h291zM956 84q289 0 483 200q193 200 193 494t-193 496q-194 201 -483 201q-290 0 -482 -200t-192 -496
q0 -295 193 -495q192 -200 481 -200zM150 778q0 346 230 580t576 233q346 0 578 -233q232 -232 231 -578q0 -346 -231 -579q-232 -233 -578 -233t-576 232t-230 578z" />
    <glyph glyph-name="quotedblright.sc" horiz-adv-x="933" 
d="M166 813l168 506h284l-274 -506h-178zM553 813l168 506h283l-275 -506h-176z" />
    <glyph glyph-name="Ibreve.sc" horiz-adv-x="598" 
d="M502 1473q-144 0 -222 89t-44 259h176q-14 -80 16 -122t94 -42q139 0 174 164h185q-27 -176 -131 -262t-248 -86zM66 0l260 1319h268l-260 -1319h-268z" />
    <glyph glyph-name="exclamdown.uc" horiz-adv-x="579" 
d="M332 1567h311l-55 -287h-312zM500 1073l-174 -1120h-312l279 1120h207z" />
    <glyph glyph-name="hyphen.uc" horiz-adv-x="827" 
d="M139 633l43 221h606l-43 -221h-606z" />
    <glyph glyph-name="endash.uc" horiz-adv-x="1060" 
d="M139 643l39 201h844l-39 -201h-844z" />
    <glyph glyph-name="emdash.uc" horiz-adv-x="1804" 
d="M141 645l37 197h1587l-39 -197h-1585z" />
    <glyph glyph-name="guilsinglleft.uc" horiz-adv-x="657" 
d="M428 1073h217l-293 -422l123 -411h-211l-137 424z" />
    <glyph glyph-name="guilsinglright.uc" horiz-adv-x="647" 
d="M268 240h-217l293 422l-121 411h211l135 -422z" />
    <glyph glyph-name="guillemotleft.uc" horiz-adv-x="1087" 
d="M428 1073h217l-293 -422l123 -411h-211l-137 424zM858 1073h217l-293 -422l123 -411h-211l-137 424z" />
    <glyph glyph-name="guillemotright.uc" horiz-adv-x="1085" 
d="M709 240h-217l292 422l-122 411h210l136 -422zM268 240h-217l295 422l-123 411h211l135 -422z" />
    <glyph glyph-name="parenleft.uc" horiz-adv-x="700" 
d="M508 -205h-193q-160 336 -159 676q0 621 506 1204h212q-229 -305 -352 -601t-126 -633t112 -646z" />
    <glyph glyph-name="parenright.uc" horiz-adv-x="700" 
d="M604 999q0 -621 -506 -1204h-213q229 305 353 601q123 296 126 628t-112 651h192q160 -336 160 -676z" />
    <glyph glyph-name="space_uni0326" horiz-adv-x="749" 
d="M150 -440l108 305h268l-198 -305h-178z" />
    <glyph glyph-name="grave.uc" horiz-adv-x="747" 
d="M518 1966l86 -272h-198l-150 272h262z" />
    <glyph glyph-name="bracketleft.uc" horiz-adv-x="763" 
d="M49 -205l367 1880h497l-34 -176h-269l-297 -1528h269l-35 -176h-498z" />
    <glyph glyph-name="bracketright.uc" horiz-adv-x="800" 
d="M784 1675l-366 -1880h-496l35 176h266l299 1528h-268l35 176h495z" />
    <glyph glyph-name="braceleft.uc" horiz-adv-x="788" 
d="M150 649h-56l39 197h57q78 0 110 30t48 113l70 367q39 198 166 274t366 53l-30 -165q-148 8 -208 -41t-83 -172l-62 -328q-18 -101 -60 -153t-142 -68l-3 -8q88 -25 111 -101t-4 -166l-59 -299q-27 -123 19 -170t192 -59l-33 -166q-240 8 -339 99t-59 302l62 310
q14 80 -10 116t-92 35z" />
    <glyph glyph-name="braceright.uc" horiz-adv-x="833" 
d="M719 825h55l-39 -198h-55q-80 0 -112 -30t-48 -112l-69 -366q-39 -199 -166 -275t-367 -53l33 166q145 -8 206 41q60 49 83 172l57 299q21 106 67 172t140 78l2 8q-88 25 -111 101t4 165l60 297q27 125 -19 172t-192 58l33 168q240 -8 339 -102t56 -308l-60 -301
q-14 -80 10 -116t93 -36z" />
    <glyph glyph-name="slash.uc" horiz-adv-x="1150" 
d="M-154 -174l1231 1825h230l-1225 -1825h-236z" />
    <glyph glyph-name="backslash.uc" horiz-adv-x="1105" 
d="M772 -174l-534 1825h208l539 -1825h-213z" />
    <glyph glyph-name="bar.uc" horiz-adv-x="571" 
d="M39 -174l354 1825h193l-355 -1825h-192z" />
    <glyph glyph-name="acute.uc" horiz-adv-x="747" 
d="M274 1694l168 272h279l-246 -272h-201z" />
    <glyph glyph-name="at.uc" horiz-adv-x="2107" 
d="M866 621q0 -89 39 -141t119 -52t148 70t92 180l18 90q23 102 -16 181t-136 79q-124 0 -194 -128t-70 -279zM1548 262q-252 0 -278 193h-6q-109 -193 -318 -193q-147 0 -230 98t-87 261q-4 221 126 397t339 176q96 0 159 -44t84 -114h4l27 125h223l-116 -557
q-43 -201 116 -201q106 0 194 119q87 119 89 355q4 289 -186 472t-502 183q-225 0 -420 -117q-196 -117 -312 -323t-118 -451q-2 -338 194 -540q196 -201 514 -201q320 0 539 172l76 -99q-252 -205 -635 -205q-382 0 -618 240t-234 633q2 217 84 409q162 378 544 536
q185 77 390 77q378 0 614 -214t234 -556q-2 -168 -46 -295q-78 -224 -273 -302q-83 -34 -171 -34z" />
    <glyph glyph-name="f.short" horiz-adv-x="733" 
d="M770 1624q104 0 148 -16l-37 -197q-43 6 -105 6q-135 0 -162 -147l-34 -178h223l-39 -197h-221l-174 -895h-265l172 895h-161l39 197h161l37 192q38 186 142 263t276 77z" />
    <glyph glyph-name="f_f.short" horiz-adv-x="1427" 
d="M766 1602q98 0 141 -15l-39 -196q-30 4 -94 4q-137 0 -164 -148l-30 -155h430l37 192q37 186 141 263t276 77q98 0 148 -16l-39 -197q-43 6 -103 6q-134 0 -161 -147l-35 -178h223l-39 -197h-221l-174 -895h-266l174 895h-428l-174 -895h-265l172 895h-161l39 197h161
l33 170q37 186 141 263t277 77z" />
    <glyph glyph-name="macron.uc" horiz-adv-x="749" 
d="M137 1726l37 191h651l-37 -191h-651z" />
    <glyph glyph-name="circumflex.uc" horiz-adv-x="749" 
d="M623 1966l159 -272h-196l-103 129h-2l-147 -129h-203l248 272h244z" />
    <glyph glyph-name="caron.uc" horiz-adv-x="749" 
d="M338 1694l-166 272h201l106 -129h2l150 129h213l-264 -272h-242z" />
    <glyph glyph-name="breve.uc" horiz-adv-x="749" 
d="M485 1851q129 0 174 138h181q-33 -160 -133 -235q-99 -75 -237 -75t-218 80t-57 230h172q-4 -63 27 -101q32 -37 91 -37z" />
    <glyph glyph-name="caron.alt" horiz-adv-x="749" 
d="M315 1249l91 365h223l-176 -365h-138z" />
    <glyph glyph-name="dotaccent.uc" horiz-adv-x="749" 
d="M338 1708l49 254h246l-49 -254h-246z" />
    <glyph glyph-name="ring.uc" horiz-adv-x="749" 
d="M582 1887q0 116 -101 116q-51 0 -83 -38t-32 -94q1 -116 99 -116q53 0 85 38t32 94zM219 1866q0 110 74 182q73 72 189 72t181 -60t65 -170q0 -108 -74 -180t-193 -72q-109 4 -175 62t-67 166z" />
    <glyph glyph-name="sterling.tab" horiz-adv-x="1218" 
d="M811 1540q246 0 349 -127t69 -330h-254q39 256 -180 256q-139 0 -197 -103t-33 -282l19 -145h422l-35 -180h-367q4 -127 -40 -213t-158 -164l-33 -23v-4h710l-43 -225h-1024l33 172l74 49q94 66 140 111q105 103 85 297h-227l35 180h163l-14 92q-45 283 87 461t419 178z
" />
    <glyph glyph-name="tilde.uc" horiz-adv-x="749" 
d="M627 1876q39 0 63 26t45 87h150q-16 -131 -88 -216t-189 -85q-78 0 -158 54t-114 54q-70 0 -113 -113h-147q16 125 91 214t198 90q71 1 147 -55t115 -56z" />
    <glyph glyph-name="cent.tab" 
d="M127 430q0 270 149 470q150 200 414 216l35 184h145l-36 -190q160 -23 246 -123t81 -266h-258q6 164 -104 207l-152 -774q92 12 147 77q54 66 68 156h256q-29 -195 -169 -303t-337 -113l-41 -209h-145l43 222q-162 32 -252 146t-90 300zM393 424q0 -191 113 -250l147 758
q-86 -25 -147 -111q-113 -159 -113 -397z" />
    <glyph glyph-name="plus.tab" 
d="M762 629l-78 -400h-233l77 400h-372l39 209h374l78 395h232l-76 -395h375l-39 -209h-377z" />
    <glyph glyph-name="minus.tab" 
d="M172 627l41 211h952l-41 -211h-952z" />
    <glyph glyph-name="multiply.tab" 
d="M246 217l-133 174l387 330l-271 340l181 153l264 -342l385 338l139 -174l-391 -329l272 -349l-180 -151l-264 348z" />
    <glyph glyph-name="divide.tab" 
d="M688 190h-266l51 261h266zM166 627l41 211h952l-41 -211h-952zM582 1012l51 260h264l-49 -260h-266z" />
    <glyph glyph-name="equal.tab" 
d="M1079 424h-952l41 207h950zM205 827l41 207h952l-41 -207h-952z" />
    <glyph glyph-name="less.tab" 
d="M1010 123l-883 493l29 140l1071 487l-45 -252l-729 -319l600 -328z" />
    <glyph glyph-name="greater.tab" 
d="M268 1243l881 -489l-27 -142l-1071 -485l45 250l729 321l-600 328z" />
    <glyph glyph-name="florin.tab" 
d="M1038 1616q104 0 142 -12l-31 -207q-29 8 -97 8t-114 -38q-45 -38 -72 -144l-71 -299h239l-35 -197h-251l-269 -1114h-262l264 1114h-223l37 197h233l76 317q49 207 159 291t275 84z" />
    <glyph glyph-name="plusminus.tab" 
d="M27 0l39 209h983l-39 -209h-983zM772 741l-70 -364h-227l70 364h-377l43 209h375l69 361h228l-70 -361h379l-41 -209h-379z" />
    <glyph glyph-name="notequal.tab" 
d="M541 424l-150 -227h-178l149 227h-233l41 207h328l127 196h-418l41 207h512l153 234h179l-154 -234h262l-41 -207h-356l-127 -196h446l-41 -207h-540z" />
    <glyph glyph-name="approxequal.tab" 
d="M453 707q71 1 187 -51t159 -52q88 0 116 109h175q-20 -143 -100 -227t-206 -85q-78 -1 -196 51t-162 52q-84 0 -115 -111h-176q21 141 103 227t215 87zM528 1087q74 0 189 -52t155 -52q90 0 117 111h176q-23 -145 -101 -230q-79 -84 -204 -84q-78 0 -196 52t-162 53
q-86 0 -117 -111h-176q20 141 102 227t217 86z" />
    <glyph glyph-name="lessequal.tab" 
d="M1008 0h-971l41 209h971zM1065 299l-883 494l29 139l1071 487l-45 -252l-729 -319l600 -330z" />
    <glyph glyph-name="greaterequal.tab" 
d="M1008 0h-971l43 209h969zM307 1409l883 -491l-29 -142l-1071 -485l45 250l731 321l-602 328z" />
    <glyph glyph-name="period.tab" horiz-adv-x="614" 
d="M104 0l58 299h305l-55 -299h-308z" />
    <glyph glyph-name="comma.tab" horiz-adv-x="614" 
d="M12 -240l172 541h299l-286 -541h-185z" />
    <glyph glyph-name="colon.tab" horiz-adv-x="614" 
d="M362 0h-305l56 301h305zM207 778l59 301h305l-59 -301h-305z" />
    <glyph glyph-name="semicolon.tab" horiz-adv-x="614" 
d="M137 -240h-182l170 541h299zM219 778l60 301h305l-60 -301h-305z" />
    <glyph glyph-name="hungarumlaut.uc" horiz-adv-x="806" 
d="M199 1706l104 272h227l-172 -272h-159zM512 1706l121 272h227l-188 -272h-160z" />
    <glyph glyph-name="currency.tab" 
d="M236 711q0 98 43 180l-187 184l156 156l184 -187q82 43 178 43t185 -47l188 195l154 -154l-195 -190q45 -84 45 -181t-45 -178l191 -186l-154 -156l-188 191q-81 -43 -181 -43t-178 41l-186 -191l-154 154l189 186q-45 85 -45 183zM414 712q0 -92 54 -152t143 -60t144 59
q54 59 54 153t-54 153q-53 61 -143 61t-144 -60t-54 -154z" />
    <glyph glyph-name="percent.tab" horiz-adv-x="1843" 
d="M1305 141q94 0 141 89t47 198q0 143 -123 143q-92 0 -141 -89t-49 -201q0 -140 125 -140zM1308 -14q-162 0 -242 76q-79 76 -79 208q0 188 111 322q112 134 274 133q162 0 240 -79t78 -212q0 -186 -110 -317t-272 -131zM553 934q96 0 143 89t47 198q0 143 -122 143
q-91 0 -141 -89t-50 -204q0 -137 123 -137zM236 1063q0 186 111 319q112 134 275 134q162 0 240 -79t78 -210q0 -185 -111 -317t-288 -132q-145 0 -226 77q-79 77 -79 208zM174 -82l1376 1681h224l-1379 -1681h-221z" />
    <glyph glyph-name="perthousand.tab" horiz-adv-x="2457" 
d="M1092 302q0 -89 28 -125t86 -36q57 0 100 50q72 86 72 239q0 59 -28 99q-29 40 -82 40q-88 0 -132 -89t-44 -178zM1999 141q57 0 99 50q73 87 73 239q0 59 -29 99t-82 40q-88 0 -132 -89t-44 -178t29 -125t86 -36zM1188 -14q-135 0 -213 76t-78 212q0 184 104 314
t281 133q135 2 211 -78q76 -79 80 -239q3 -160 -103 -289t-282 -129zM1980 -14q-135 0 -213 76t-77 212q0 184 104 314t281 133q135 2 211 -78t79 -219q3 -180 -103 -309t-282 -129zM369 1096q1 -88 29 -124t85 -36t100 49q72 84 72 238q0 61 -28 100q-29 39 -82 39
q-88 0 -132 -89t-44 -177zM174 1067q0 184 104 315t281 134q135 2 211 -78t80 -240t-102 -290t-283 -130q-135 0 -213 77t-78 212zM82 -82l1376 1681h223l-1378 -1681h-221z" />
    <glyph glyph-name="idotaccent" horiz-adv-x="581" 
d="M53 0l211 1092h271l-211 -1092h-271zM303 1300l51 261h275l-51 -261h-275z" />
    <glyph glyph-name="A.sc" horiz-adv-x="1333" 
d="M928 0l-49 311h-492l-158 -311h-262l692 1319h306l233 -1319h-270zM764 1100q-14 -53 -88 -203l-197 -399h371l-62 393q-18 128 -18 186l-2 23h-4z" />
    <glyph glyph-name="AE.sc" horiz-adv-x="1912" 
d="M799 0l63 326h-418l-208 -326h-291l880 1319h1100l-41 -207h-600l-70 -352h570l-41 -203h-567l-70 -352h618l-41 -205h-884zM901 516l117 596h-68q-59 -96 -106 -168l-277 -428h334z" />
    <glyph glyph-name="B.sc" horiz-adv-x="1298" 
d="M643 188q125 0 202 58t77 174q0 176 -222 176h-247l-84 -408h274zM725 770q119 0 180 55t62 154q0 152 -191 151h-219l-72 -360h240zM651 0h-585l260 1319h485q197 0 307 -77t111 -224q0 -256 -283 -322v-6q111 -22 173 -96t63 -182q0 -204 -146 -308t-385 -104z" />
    <glyph glyph-name="C.sc" horiz-adv-x="1363" 
d="M828 1139q-110 -1 -196 -63t-133 -164q-98 -207 -98 -439q-1 -131 63 -216t194 -85q253 0 317 272h280q-41 -225 -201 -348t-403 -123q-244 0 -388 130t-144 370q0 241 80 433t248 312q169 120 399 120t358 -116q127 -116 113 -343h-275q8 115 -48 187t-166 73z" />
    <glyph glyph-name="D.sc" horiz-adv-x="1378" 
d="M571 203q125 0 220 57q161 98 220 344q24 100 23 205q0 161 -86 235t-235 74h-158l-182 -915h198zM758 1319q250 0 404 -132t155 -384q0 -351 -198 -577t-566 -226h-487l260 1319h432z" />
    <glyph glyph-name="Dcroat.sc" horiz-adv-x="1378" 
d="M571 203q125 0 220 57q161 98 220 344q24 100 23 205q0 161 -86 235t-235 74h-158l-72 -362h293l-37 -187h-293l-73 -366h198zM553 0h-487l112 569h-133l37 187h133l111 563h432q250 0 404 -132t155 -384q1 -351 -197 -577t-567 -226z" />
    <glyph glyph-name="E.sc" horiz-adv-x="1177" 
d="M66 0l260 1319h866l-41 -205h-598l-70 -354h568l-39 -201h-568l-69 -356h618l-41 -203h-886z" />
    <glyph glyph-name="Eng.sc" horiz-adv-x="1400" 
d="M645 -313h-123l43 198h82q100 0 154 26q53 26 78 83l-314 788q-29 72 -57 164l-4 23h-4l-191 -969h-243l260 1319h286l293 -770q39 -107 49 -168l4 -23h5l190 961h242l-244 -1243q-41 -213 -153 -301t-353 -88z" />
    <glyph glyph-name="Eth.sc" horiz-adv-x="1378" 
d="M571 203q125 0 220 57q161 98 220 344q24 100 23 205q0 161 -86 235t-235 74h-158l-72 -362h293l-37 -187h-293l-73 -366h198zM553 0h-487l112 569h-133l37 187h133l111 563h432q250 0 404 -132t155 -384q1 -351 -197 -577t-567 -226z" />
    <glyph glyph-name="F.sc" horiz-adv-x="1097" 
d="M436 516l-102 -516h-268l260 1319h831l-41 -207h-563l-78 -395h531l-39 -201h-531z" />
    <glyph glyph-name="G.sc" horiz-adv-x="1406" 
d="M837 1151q-112 0 -202 -66t-139 -170q-99 -210 -99 -432q-2 -147 65 -233t209 -87t239 94t122 228l6 33h-313l37 180h567l-137 -698h-217l37 190h-6q-52 -98 -154 -157t-244 -60q-238 -1 -364 139t-125 367q0 227 82 420t254 315t398 123q226 0 354 -100t124 -311h-266
q2 104 -57 164t-171 61z" />
    <glyph glyph-name="H.sc" horiz-adv-x="1413" 
d="M444 557l-110 -557h-268l260 1319h268l-111 -557h545l111 557h268l-260 -1319h-268l110 557h-545z" />
    <glyph glyph-name="I.sc" horiz-adv-x="598" 
d="M66 0l260 1319h268l-260 -1319h-268z" />
    <glyph glyph-name="IJ.sc" horiz-adv-x="1290" 
d="M598 -6h-86l41 215h51q127 0 175 49t73 166l180 895h264l-184 -926q-44 -219 -158 -309t-356 -90zM70 0l258 1319h268l-260 -1319h-266z" />
    <glyph glyph-name="J.sc" horiz-adv-x="829" 
d="M139 -6h-141l43 215h104q127 0 177 49q49 49 71 166l176 895h267l-183 -926q-43 -219 -157 -309t-357 -90z" />
    <glyph glyph-name="K.sc" horiz-adv-x="1300" 
d="M410 387l-76 -387h-268l260 1319h266l-121 -619l602 619h309l-579 -576l362 -743h-280l-285 580z" />
    <glyph glyph-name="L.sc" horiz-adv-x="1081" 
d="M66 0l260 1319h268l-219 -1108h577l-41 -211h-845z" />
    <glyph glyph-name="M.sc" horiz-adv-x="1705" 
d="M66 0l260 1319h374l95 -723l20 -219h4q49 113 101 213l380 729h400l-260 -1319h-256l207 1049h-7q-57 -133 -127 -265l-413 -784h-207l-98 784l-21 263h-6l-207 -1047h-239z" />
    <glyph glyph-name="N.sc" horiz-adv-x="1400" 
d="M66 0l260 1319h286l293 -770q38 -102 49 -168l4 -23h5l190 961h242l-258 -1319h-267l-305 782q-44 121 -53 168l-6 23h-6l-191 -973h-243z" />
    <glyph glyph-name="O.sc" horiz-adv-x="1443" 
d="M1087 856q0 123 -66 205q-67 82 -189 82t-206 -66t-127 -172q-89 -214 -87 -440q0 -131 64 -214t188 -83t207 65q143 113 195 388q22 112 21 235zM831 1337q240 0 391 -135q150 -135 150 -386t-95 -458q-52 -112 -131 -196t-202 -136t-274 -53q-242 -1 -392 131t-151 389
q0 257 96 459q53 113 131 197t202 136t275 52z" />
    <glyph glyph-name="OE.sc" horiz-adv-x="2050" 
d="M608 -23q-190 0 -329 115q-70 58 -110 160t-40 237q0 229 76 419t232 310q157 120 372 119q262 0 356 -180h4l31 162h864l-41 -205h-596l-69 -354h565l-39 -201h-565l-70 -356h617l-41 -203h-885l27 139h-6q-125 -162 -353 -162zM414 456q0 -120 64 -204t203 -84
q138 0 234 98t134 271l36 192q33 174 -36 294q-70 120 -224 120q-113 0 -197 -67q-142 -112 -194 -389q-20 -111 -20 -231z" />
    <glyph glyph-name="Oslash.sc" horiz-adv-x="1443" 
d="M1372 819q0 -247 -98 -458q-53 -113 -132 -197t-204 -137t-281 -54q-236 0 -374 125l-144 -143h-186l244 246q-70 121 -70 279q0 319 153 571q79 129 223 207t351 79q207 0 350 -120l146 147h190l-246 -248q78 -127 78 -297zM676 168q110 0 196 66q148 114 204 384
q24 113 24 188t-6 109l-643 -647q67 -100 225 -100zM842 1145q-128 0 -214 -65t-134 -170q-95 -212 -95 -449q0 -35 2 -53l639 645q-70 92 -198 92z" />
    <glyph glyph-name="P.sc" horiz-adv-x="1193" 
d="M651 657q131 0 207 72t76 209q0 186 -217 186h-162l-92 -467h188zM633 455h-209l-90 -455h-268l260 1319h419q207 0 331 -94t124 -277q0 -238 -158 -366t-409 -127z" />
    <glyph glyph-name="Q.sc" horiz-adv-x="1443" 
d="M666 166q231 0 331 230q92 211 90 448q0 133 -65 216q-66 83 -189 83t-207 -66t-127 -171q-44 -105 -66 -217q-21 -111 -21 -233t66 -206q64 -84 188 -84zM276 108q-148 130 -149 382q0 252 97 463q110 238 333 332q123 52 274 52q245 0 393 -137t148 -387t-88 -433
t-237 -280v-8q92 -18 146 -58t99 -124l-227 -129q-63 111 -123 157t-158 46l-127 -7q-233 1 -381 131z" />
    <glyph glyph-name="R.sc" horiz-adv-x="1288" 
d="M770 1319q152 0 268 -53q193 -90 193 -308q0 -150 -82 -258t-244 -153v-4l225 -543h-276l-205 512h-217l-100 -512h-266l260 1319h444zM698 700q121 0 191 65t69 187q0 178 -219 178h-186l-82 -430h227z" />
    <glyph glyph-name="S.sc" 
d="M344 385q0 -217 238 -217q112 0 184 52t72 134t-35 118q-35 38 -119 63l-149 43q-166 47 -237 134t-71 222q-1 190 141 298t353 106t340 -101q129 -98 117 -283h-265q4 88 -50 140t-153 51q-98 0 -160 -48q-62 -47 -62 -121t37 -112q38 -38 120 -61l158 -45
q171 -49 239 -130t68 -208q0 -209 -148 -328t-386 -119q-238 -1 -376 107t-126 305h270z" />
    <glyph glyph-name="T.sc" horiz-adv-x="1191" 
d="M848 1108l-219 -1108h-271l220 1108h-400l43 211h1065l-41 -211h-397z" />
    <glyph glyph-name="Tbar.sc" horiz-adv-x="1191" 
d="M754 637l-125 -637h-271l125 637h-309l35 176h309l60 295h-400l43 211h1065l-41 -211h-397l-60 -295h310l-33 -176h-311z" />
    <glyph glyph-name="Thorn.sc" horiz-adv-x="1179" 
d="M604 270h-217l-53 -270h-268l260 1319h268l-49 -252h151q203 0 326 -89t123 -271q1 -221 -147 -329t-394 -108zM424 459h197q123 4 191 63t71 172q0 188 -228 189h-147z" />
    <glyph glyph-name="U.sc" horiz-adv-x="1353" 
d="M638 184q140 0 216 80q59 59 92 230l162 825h268l-176 -893q-45 -231 -187 -342t-401 -111q-259 1 -384 137t-76 394l159 815h273l-156 -782q-39 -193 16 -273q54 -80 194 -80z" />
    <glyph glyph-name="V.sc" horiz-adv-x="1280" 
d="M395 0l-192 1319h268l104 -850l17 -215h4q25 80 88 203l442 862h271l-695 -1319h-307z" />
    <glyph glyph-name="W.sc" horiz-adv-x="1841" 
d="M1024 1008h-6q-25 -88 -86 -226l-352 -782h-275l-100 1319h262l45 -754q6 -120 0 -211l-2 -28h4q27 90 84 217l352 776h250l62 -758q8 -88 8 -209l-2 -26h6q20 90 76 217l336 776h258l-590 -1319h-271l-55 780q-9 147 -4 203v25z" />
    <glyph glyph-name="X.sc" horiz-adv-x="1290" 
d="M-37 0l574 694l-277 625h281l184 -442h4l340 442h293l-531 -639l314 -680h-289l-209 500h-2l-391 -500h-291z" />
    <glyph glyph-name="Y.sc" horiz-adv-x="1214" 
d="M367 0l114 580l-295 739h271l194 -539h4l394 539h276l-584 -768l-108 -551h-266z" />
    <glyph glyph-name="Z.sc" horiz-adv-x="1183" 
d="M244 1112l41 207h956l-35 -178l-839 -934h665l-39 -207h-993l35 180l837 932h-628z" />
    <glyph glyph-name="ampersand.sc" horiz-adv-x="1304" 
d="M1124 0q-184 0 -278 100q-166 -127 -372 -127t-318 90q-111 91 -111 247t91 252t261 169q-86 127 -86 250q0 164 118 259t279 96q161 2 253 -76t92 -206q1 -128 -93 -216t-253 -158l170 -244q66 96 141 252h231q-166 -317 -245 -422q41 -43 86 -58t122 -15l-38 -193h-50z
M297 350q0 -82 51 -131t161 -49t216 88l-236 334l-12 -6q-180 -82 -180 -236zM697 1178q-67 0 -111 -49t-45 -126q0 -77 77 -190q104 45 160 98q54 53 54 121t-34 108q-34 38 -101 38z" />
    <glyph glyph-name="uni0237.sc" horiz-adv-x="829" 
d="M139 -6h-141l43 215h104q127 0 177 49q49 49 71 166l176 895h267l-183 -926q-43 -219 -157 -309t-357 -90z" />
    <glyph glyph-name="exclam.sc" horiz-adv-x="614" 
d="M373 0h-305l49 268h303zM201 418l135 901h299l-240 -901h-194z" />
    <glyph glyph-name="exclamdown.sc" horiz-adv-x="614" 
d="M334 1319h305l-49 -268h-303zM506 901l-135 -901h-299l239 901h195z" />
    <glyph glyph-name="germandbls.sc" horiz-adv-x="2455" 
d="M1573 385q0 -217 237 -217q111 0 184 52t72 147q0 67 -34 105t-119 63l-150 43q-167 47 -237 134t-70 222q0 190 141 298t353 106t340 -101q129 -98 116 -283h-264q4 88 -50 140t-154 51q-100 0 -160 -48q-62 -47 -62 -121t38 -112t120 -61l158 -45q170 -49 238 -130
t69 -208q-1 -209 -149 -328t-386 -119q-238 -1 -375 107q-138 108 -126 305h270zM344 385q0 -217 238 -217q112 0 184 52t72 134t-35 118q-35 38 -119 63l-149 43q-166 47 -237 134t-71 222q-1 190 141 298t353 106t340 -101q129 -98 117 -283h-265q4 88 -50 140t-153 51
q-98 0 -160 -48q-62 -47 -62 -121t37 -112q38 -38 120 -61l158 -45q171 -49 239 -130t68 -208q0 -209 -148 -328t-386 -119q-238 -1 -376 107t-126 305h270z" />
    <glyph glyph-name="question.sc" horiz-adv-x="1241" 
d="M381 0l49 268h303l-47 -268h-305zM907 985q0 70 -50 116t-134 46q-215 0 -227 -252h-246q2 182 127 314t346 132t333 -99q112 -98 112 -232t-56 -216q-55 -82 -168 -155l-123 -80q-51 -33 -66 -55t-24 -66l-6 -28h-229l14 73q14 72 45 117t90 86l143 98q119 82 119 201z
" />
    <glyph glyph-name="questiondown.sc" horiz-adv-x="1193" 
d="M893 1319l-49 -268h-303l47 268h305zM551 172q215 0 227 252h246q-2 -182 -127 -314t-347 -132t-332 98q-112 100 -112 233t56 215t168 156l123 80q51 32 66 54t24 67l6 28h229l-14 -73q-14 -72 -45 -117t-90 -86l-144 -98q-119 -82 -118 -201q0 -70 50 -116t134 -46z
" />
    <glyph glyph-name="quotedblleft.sc" horiz-adv-x="923" 
d="M580 1319l-166 -504h-285l274 504h177zM967 1319l-166 -504h-285l275 504h176z" />
    <glyph glyph-name="space.tab" horiz-adv-x="614" 
 />
    <glyph glyph-name="quoteleft.sc" horiz-adv-x="538" 
d="M582 1319l-166 -504h-289l281 504h174z" />
    <glyph glyph-name="quoteright.sc" horiz-adv-x="538" 
d="M162 813l168 506h288l-278 -506h-178z" />
    <glyph glyph-name="Lslash.sc" horiz-adv-x="1081" 
d="M68 0l92 467l-148 -47l41 201l146 45l127 653h268l-111 -561l416 131l-41 -201l-414 -131l-69 -346h579l-41 -211h-845z" />
    <glyph glyph-name="AEacute.sc" horiz-adv-x="1912" 
d="M799 0l63 326h-418l-208 -326h-291l880 1319h1100l-41 -207h-600l-70 -352h570l-41 -203h-567l-70 -352h618l-41 -205h-884zM901 516l117 596h-68q-59 -96 -106 -168l-277 -428h334zM1128 1473l166 348h281l-244 -348h-203z" />
    <glyph glyph-name="Aacute.sc" horiz-adv-x="1333" 
d="M928 0l-49 311h-492l-158 -311h-262l692 1319h306l233 -1319h-270zM764 1100q-14 -53 -88 -203l-197 -399h371l-62 393q-18 128 -18 186l-2 23h-4zM733 1473l166 348h281l-244 -348h-203z" />
    <glyph glyph-name="Abreve.sc" horiz-adv-x="1333" 
d="M852 1473q-144 0 -222 89t-44 259h176q-14 -80 16 -122t94 -42q139 0 175 164h184q-27 -176 -131 -262t-248 -86zM928 0l-49 311h-492l-158 -311h-262l692 1319h306l233 -1319h-270zM764 1100q-14 -53 -88 -203l-197 -399h371l-62 393q-18 128 -18 186l-2 23h-4z" />
    <glyph glyph-name="Acircumflex.sc" horiz-adv-x="1333" 
d="M928 0l-49 311h-492l-158 -311h-262l692 1319h306l233 -1319h-270zM764 1100q-14 -53 -88 -203l-197 -399h371l-62 393q-18 128 -18 186l-2 23h-4zM1018 1821l143 -348h-192l-97 176l-153 -176h-203l272 348h230z" />
    <glyph glyph-name="Adieresis.sc" horiz-adv-x="1333" 
d="M928 0l-49 311h-492l-158 -311h-262l692 1319h306l233 -1319h-270zM764 1100q-14 -53 -88 -203l-197 -399h371l-62 393q-18 128 -18 186l-2 23h-4zM522 1518l49 251h242l-49 -251h-242zM932 1518l49 251h242l-49 -251h-242z" />
    <glyph glyph-name="Agrave.sc" horiz-adv-x="1333" 
d="M850 1821l100 -348h-200l-170 348h270zM928 0l-49 311h-492l-158 -311h-262l692 1319h306l233 -1319h-270zM764 1100q-14 -53 -88 -203l-197 -399h371l-62 393q-18 128 -18 186l-2 23h-4z" />
    <glyph glyph-name="Amacron.sc" horiz-adv-x="1333" 
d="M522 1518l37 188h651l-36 -188h-652zM928 0l-49 311h-492l-158 -311h-262l692 1319h306l233 -1319h-270zM764 1100q-14 -53 -88 -203l-197 -399h371l-62 393q-18 128 -18 186l-2 23h-4z" />
    <glyph glyph-name="Aogonek.sc" horiz-adv-x="1333" 
d="M1069 -389q-250 0 -250 156q1 74 57 136t152 97h-100l-49 311h-492l-158 -311h-262l692 1319h306l233 -1319q-147 -82 -147 -166q0 -59 100 -59l-31 -164h-51zM764 1100q-14 -53 -88 -203l-197 -399h371l-62 393q-18 128 -18 186l-2 23h-4z" />
    <glyph glyph-name="Aring.sc" horiz-adv-x="1333" 
d="M928 0l-49 311h-492l-158 -311h-262l692 1319h306l233 -1319h-270zM764 1100q-14 -53 -88 -203l-197 -399h371l-62 393q-18 128 -18 186l-2 23h-4zM774 1686q0 -116 102 -115q50 0 81 38q32 38 32 101q0 109 -100 109q-51 0 -83 -38q-32 -39 -32 -95zM1135 1706
q0 -110 -74 -180q-75 -70 -187 -69t-180 59t-68 166t74 181t190 73t180 -61q64 -60 65 -169z" />
    <glyph glyph-name="uni01FA.sc" horiz-adv-x="1333" 
d="M829 2046l168 272h279l-246 -272h-201zM928 0l-49 311h-492l-158 -311h-262l692 1319h306l233 -1319h-270zM764 1100q-14 -53 -88 -203l-197 -399h371l-62 393q-18 128 -18 186l-2 23h-4zM774 1686q0 -116 102 -115q50 0 81 38q32 38 32 101q0 109 -100 109
q-51 0 -83 -38q-32 -39 -32 -95zM1135 1706q0 -110 -74 -180q-75 -70 -187 -69t-180 59t-68 166t74 181t190 73t180 -61q64 -60 65 -169z" />
    <glyph glyph-name="Atilde.sc" horiz-adv-x="1333" 
d="M750 1786q66 0 146 -55t114 -56q74 0 106 113h146q-14 -137 -83 -226t-194 -89q-65 0 -149 56t-117 56q-72 0 -103 -115h-145q12 136 83 226t196 90zM928 0l-49 311h-492l-158 -311h-262l692 1319h306l233 -1319h-270zM764 1100q-14 -53 -88 -203l-197 -399h371l-62 393
q-18 128 -18 186l-2 23h-4z" />
    <glyph glyph-name="Cacute.sc" horiz-adv-x="1363" 
d="M828 1139q-110 -1 -196 -63t-133 -164q-98 -207 -98 -439q-1 -131 63 -216t194 -85q253 0 317 272h280q-41 -225 -201 -348t-403 -123q-244 0 -388 130t-144 370q0 241 80 433t248 312q169 120 399 120t358 -116q127 -116 113 -343h-275q8 115 -48 187t-166 73zM776 1473
l166 348h281l-244 -348h-203z" />
    <glyph glyph-name="Ccaron.sc" horiz-adv-x="1363" 
d="M828 1139q-110 -1 -196 -63t-133 -164q-98 -207 -98 -439q-1 -131 63 -216t194 -85q253 0 317 272h280q-41 -225 -201 -348t-403 -123q-244 0 -388 130t-144 370q0 241 80 433t248 312q169 120 399 120t358 -116q127 -116 113 -343h-275q8 115 -48 187t-166 73zM754 1473
l-144 348h193l92 -176l158 176h202l-272 -348h-229z" />
    <glyph glyph-name="Ccedilla.sc" horiz-adv-x="1363" 
d="M801 -263q-1 -77 -65 -133t-162 -55q-211 0 -203 152h141q6 -45 57 -45q76 0 76 74q0 61 -55 61q-37 0 -60 -24h-124l118 217q-190 32 -298 158t-108 348t81 416q80 192 248 312q169 120 399 120t358 -116q127 -116 113 -343h-275q8 115 -48 187t-166 73
q-110 -1 -196 -63t-133 -164q-98 -207 -98 -439q-1 -131 63 -216t194 -85q253 0 317 272h280q-41 -225 -201 -348t-399 -123h-28l-58 -106h4q35 25 93 25t96 -40q39 -38 39 -115z" />
    <glyph glyph-name="Ccircumflex.sc" horiz-adv-x="1363" 
d="M828 1139q-110 -1 -196 -63t-133 -164q-98 -207 -98 -439q-1 -131 63 -216t194 -85q253 0 317 272h280q-41 -225 -201 -348t-403 -123q-244 0 -388 130t-144 370q0 241 80 433t248 312q169 120 399 120t358 -116q127 -116 113 -343h-275q8 115 -48 187t-166 73z
M1061 1821l143 -348h-192l-97 176l-153 -176h-203l272 348h230z" />
    <glyph glyph-name="Cdotaccent.sc" horiz-adv-x="1363" 
d="M766 1518l49 251h246l-49 -251h-246zM828 1139q-110 -1 -196 -63t-133 -164q-98 -207 -98 -439q-1 -131 63 -216t194 -85q253 0 317 272h280q-41 -225 -201 -348t-403 -123q-244 0 -388 130t-144 370q0 241 80 433t248 312q169 120 399 120t358 -116q127 -116 113 -343
h-275q8 115 -48 187t-166 73z" />
    <glyph glyph-name="Dcaron.sc" horiz-adv-x="1378" 
d="M690 1473l-143 348h192l92 -176l158 176h203l-272 -348h-230zM571 203q125 0 220 57q161 98 220 344q24 100 23 205q0 161 -86 235t-235 74h-158l-182 -915h198zM758 1319q250 0 404 -132t155 -384q0 -351 -198 -577t-566 -226h-487l260 1319h432z" />
    <glyph glyph-name="Eacute.sc" horiz-adv-x="1177" 
d="M66 0l260 1319h866l-41 -205h-598l-70 -354h568l-39 -201h-568l-69 -356h618l-41 -203h-886zM682 1473l166 348h280l-243 -348h-203z" />
    <glyph glyph-name="Ecaron.sc" horiz-adv-x="1177" 
d="M66 0l260 1319h866l-41 -205h-598l-70 -354h568l-39 -201h-568l-69 -356h618l-41 -203h-886zM659 1473l-143 348h193l92 -176l157 176h203l-272 -348h-230z" />
    <glyph glyph-name="Ecircumflex.sc" horiz-adv-x="1177" 
d="M66 0l260 1319h866l-41 -205h-598l-70 -354h568l-39 -201h-568l-69 -356h618l-41 -203h-886zM965 1821l143 -348h-193l-96 176l-153 -176h-203l272 348h230z" />
    <glyph glyph-name="Edieresis.sc" horiz-adv-x="1177" 
d="M66 0l260 1319h866l-41 -205h-598l-70 -354h568l-39 -201h-568l-69 -356h618l-41 -203h-886zM471 1518l49 251h242l-49 -251h-242zM881 1518l49 251h241l-49 -251h-241z" />
    <glyph glyph-name="Edotaccent.sc" horiz-adv-x="1177" 
d="M66 0l260 1319h866l-41 -205h-598l-70 -354h568l-39 -201h-568l-69 -356h618l-41 -203h-886zM674 1518l49 251h246l-49 -251h-246z" />
    <glyph glyph-name="Egrave.sc" horiz-adv-x="1177" 
d="M66 0l260 1319h866l-41 -205h-598l-70 -354h568l-39 -201h-568l-69 -356h618l-41 -203h-886zM797 1821l100 -348h-201l-170 348h271z" />
    <glyph glyph-name="Emacron.sc" horiz-adv-x="1177" 
d="M66 0l260 1319h866l-41 -205h-598l-70 -354h568l-39 -201h-568l-69 -356h618l-41 -203h-886zM469 1518l37 188h651l-37 -188h-651z" />
    <glyph glyph-name="Eogonek.sc" horiz-adv-x="1177" 
d="M825 -389q-250 0 -250 156q1 74 57 136t152 97h-718l260 1319h866l-41 -205h-598l-70 -354h568l-39 -201h-568l-69 -356h618l-41 -203q-145 -86 -145 -166q0 -59 100 -59l-30 -164h-52z" />
    <glyph glyph-name="Gbreve.sc" horiz-adv-x="1406" 
d="M914 1473q-144 0 -223 89t-44 259h176q-14 -80 16 -122t95 -42q139 0 174 164h184q-27 -176 -130 -262q-104 -86 -248 -86zM837 1151q-112 0 -202 -66t-139 -170q-99 -210 -99 -432q-2 -147 65 -233t209 -87t239 94t122 228l6 33h-313l37 180h567l-137 -698h-217l37 190
h-6q-52 -98 -154 -157t-244 -60q-238 -1 -364 139t-125 367q0 227 82 420t254 315t398 123q226 0 354 -100t124 -311h-266q2 104 -57 164t-171 61z" />
    <glyph glyph-name="Gcircumflex.sc" horiz-adv-x="1406" 
d="M837 1151q-112 0 -202 -66t-139 -170q-99 -210 -99 -432q-2 -147 65 -233t209 -87t239 94t122 228l6 33h-313l37 180h567l-137 -698h-217l37 190h-6q-52 -98 -154 -157t-244 -60q-238 -1 -364 139t-125 367q0 227 82 420t254 315t398 123q226 0 354 -100t124 -311h-266
q2 104 -57 164t-171 61zM1081 1821l144 -348h-193l-96 176l-154 -176h-202l272 348h229z" />
    <glyph glyph-name="Gcommaaccent.sc" horiz-adv-x="1406" 
d="M837 1151q-112 0 -202 -66t-139 -170q-99 -210 -99 -432q-2 -147 65 -233t209 -87t239 94t122 228l6 33h-313l37 180h567l-137 -698h-217l37 190h-6q-52 -98 -154 -157t-244 -60q-238 -1 -364 139t-125 367q0 227 82 420t254 315t398 123q226 0 354 -100t124 -311h-266
q2 104 -57 164t-171 61zM358 -440l109 305h268l-198 -305h-179z" />
    <glyph glyph-name="Gdotaccent.sc" horiz-adv-x="1406" 
d="M786 1518l50 251h245l-49 -251h-246zM837 1151q-112 0 -202 -66t-139 -170q-99 -210 -99 -432q-2 -147 65 -233t209 -87t239 94t122 228l6 33h-313l37 180h567l-137 -698h-217l37 190h-6q-52 -98 -154 -157t-244 -60q-238 -1 -364 139t-125 367q0 227 82 420t254 315
t398 123q226 0 354 -100t124 -311h-266q2 104 -57 164t-171 61z" />
    <glyph glyph-name="Hcircumflex.sc" horiz-adv-x="1413" 
d="M444 557l-110 -557h-268l260 1319h268l-111 -557h545l111 557h268l-260 -1319h-268l110 557h-545zM1073 1821l144 -348h-193l-96 176l-154 -176h-203l273 348h229z" />
    <glyph glyph-name="Iacute.sc" horiz-adv-x="598" 
d="M66 0l260 1319h268l-260 -1319h-268zM383 1473l166 348h280l-243 -348h-203z" />
    <glyph glyph-name="questiondown.uc" horiz-adv-x="1171" 
d="M936 1567l-55 -287h-312l56 287h311zM313 348q-1 -90 57 -143t160 -53q266 0 287 321h260q-10 -248 -156 -392t-407 -144q-211 -1 -340 107t-129 270t70 262t200 190l125 86q61 43 81 71q19 28 34 89l14 73h244l-25 -120q-20 -105 -55 -155t-137 -120l-123 -82
q-160 -104 -160 -260z" />
    <glyph glyph-name="Icircumflex.sc" horiz-adv-x="598" 
d="M66 0l260 1319h268l-260 -1319h-268zM666 1821l143 -348h-193l-96 176l-153 -176h-203l272 348h230z" />
    <glyph glyph-name="Idieresis.sc" horiz-adv-x="598" 
d="M66 0l260 1319h268l-260 -1319h-268zM172 1518l49 251h242l-49 -251h-242zM582 1518l49 251h241l-49 -251h-241z" />
    <glyph glyph-name="Igrave.sc" horiz-adv-x="598" 
d="M498 1821l100 -348h-201l-170 348h271zM66 0l260 1319h268l-260 -1319h-268z" />
    <glyph glyph-name="Imacron.sc" horiz-adv-x="598" 
d="M170 1518l37 188h651l-37 -188h-651zM66 0l260 1319h268l-260 -1319h-268z" />
    <glyph glyph-name="Iogonek.sc" horiz-adv-x="598" 
d="M209 -385q-250 0 -250 156q0 72 53 133t144 96h-90l260 1319h268l-260 -1319q-143 -84 -144 -162q1 -59 101 -59l-31 -164h-51z" />
    <glyph glyph-name="Itilde.sc" horiz-adv-x="598" 
d="M399 1786q66 0 147 -55t113 -56q74 0 107 113h145q-14 -137 -83 -226t-193 -89q-66 0 -150 56t-116 56q-72 0 -103 -115h-145q12 136 83 226t195 90zM66 0l260 1319h268l-260 -1319h-268z" />
    <glyph glyph-name="Jcircumflex.sc" horiz-adv-x="829" 
d="M139 -6h-141l43 215h104q127 0 177 49q49 49 71 166l176 895h267l-183 -926q-43 -219 -157 -309t-357 -90zM907 1821l144 -348h-193l-96 176l-154 -176h-202l272 348h229z" />
    <glyph glyph-name="Kcommaaccent.sc" horiz-adv-x="1300" 
d="M410 387l-76 -387h-268l260 1319h266l-121 -619l602 619h309l-579 -576l362 -743h-280l-285 580zM328 -440l108 305h269l-199 -305h-178z" />
    <glyph glyph-name="Lacute.sc" horiz-adv-x="1081" 
d="M401 1501l166 348h281l-244 -348h-203zM66 0l260 1319h268l-219 -1108h577l-41 -211h-845z" />
    <glyph glyph-name="Lcaron.sc" horiz-adv-x="1081" 
d="M692 954l90 365h224l-177 -365h-137zM66 0l260 1319h268l-219 -1108h577l-41 -211h-845z" />
    <glyph glyph-name="Lcommaaccent.sc" horiz-adv-x="1081" 
d="M236 -440l108 305h268l-198 -305h-178zM66 0l260 1319h268l-219 -1108h577l-41 -211h-845z" />
    <glyph glyph-name="Nacute.sc" horiz-adv-x="1400" 
d="M66 0l260 1319h286l293 -770q38 -102 49 -168l4 -23h5l190 961h242l-258 -1319h-267l-305 782q-44 121 -53 168l-6 23h-6l-191 -973h-243zM793 1473l165 348h281l-244 -348h-202z" />
    <glyph glyph-name="Ncaron.sc" horiz-adv-x="1400" 
d="M66 0l260 1319h286l293 -770q38 -102 49 -168l4 -23h5l190 961h242l-258 -1319h-267l-305 782q-44 121 -53 168l-6 23h-6l-191 -973h-243zM770 1473l-143 348h192l92 -176l158 176h203l-273 -348h-229z" />
    <glyph glyph-name="Ncommaaccent.sc" horiz-adv-x="1400" 
d="M66 0l260 1319h286l293 -770q38 -102 49 -168l4 -23h5l190 961h242l-258 -1319h-267l-305 782q-44 121 -53 168l-6 23h-6l-191 -973h-243zM354 -440l109 305h268l-199 -305h-178z" />
    <glyph glyph-name="Ntilde.sc" horiz-adv-x="1400" 
d="M809 1786q67 0 147 -55t113 -56q74 0 107 113h145q-14 -137 -83 -226t-194 -89q-66 0 -150 56t-116 56q-72 0 -102 -115h-146q12 136 83 226t196 90zM66 0l260 1319h286l293 -770q38 -102 49 -168l4 -23h5l190 961h242l-258 -1319h-267l-305 782q-44 121 -53 168l-6 23
h-6l-191 -973h-243z" />
    <glyph glyph-name="Oacute.sc" horiz-adv-x="1443" 
d="M793 1473l165 348h281l-244 -348h-202zM1087 856q0 123 -66 205q-67 82 -189 82t-206 -66t-127 -172q-89 -214 -87 -440q0 -131 64 -214t188 -83t207 65q143 113 195 388q22 112 21 235zM831 1337q240 0 391 -135q150 -135 150 -386t-95 -458q-52 -112 -131 -196
t-202 -136t-274 -53q-242 -1 -392 131t-151 389q0 257 96 459q53 113 131 197t202 136t275 52z" />
    <glyph glyph-name="Obreve.sc" horiz-adv-x="1443" 
d="M910 1473q-144 0 -223 89t-44 259h176q-14 -80 16 -122t95 -42q139 0 174 164h184q-27 -176 -130 -262q-104 -86 -248 -86zM1087 856q0 123 -66 205q-67 82 -189 82t-206 -66t-127 -172q-89 -214 -87 -440q0 -131 64 -214t188 -83t207 65q143 113 195 388q22 112 21 235z
M831 1337q240 0 391 -135q150 -135 150 -386t-95 -458q-52 -112 -131 -196t-202 -136t-274 -53q-242 -1 -392 131t-151 389q0 257 96 459q53 113 131 197t202 136t275 52z" />
    <glyph glyph-name="Ocircumflex.sc" horiz-adv-x="1443" 
d="M1087 856q0 123 -66 205q-67 82 -189 82t-206 -66t-127 -172q-89 -214 -87 -440q0 -131 64 -214t188 -83t207 65q143 113 195 388q22 112 21 235zM831 1337q240 0 391 -135q150 -135 150 -386t-95 -458q-52 -112 -131 -196t-202 -136t-274 -53q-242 -1 -392 131t-151 389
q0 257 96 459q53 113 131 197t202 136t275 52zM1077 1821l144 -348h-193l-96 176l-154 -176h-203l273 348h229z" />
    <glyph glyph-name="Odieresis.sc" horiz-adv-x="1443" 
d="M1087 856q0 123 -66 205q-67 82 -189 82t-206 -66t-127 -172q-89 -214 -87 -440q0 -131 64 -214t188 -83t207 65q143 113 195 388q22 112 21 235zM831 1337q240 0 391 -135q150 -135 150 -386t-95 -458q-52 -112 -131 -196t-202 -136t-274 -53q-242 -1 -392 131t-151 389
q0 257 96 459q53 113 131 197t202 136t275 52zM580 1518l49 251h241l-49 -251h-241zM989 1518l49 251h242l-49 -251h-242z" />
    <glyph glyph-name="Ograve.sc" horiz-adv-x="1443" 
d="M907 1821l101 -348h-201l-170 348h270zM1087 856q0 123 -66 205q-67 82 -189 82t-206 -66t-127 -172q-89 -214 -87 -440q0 -131 64 -214t188 -83t207 65q143 113 195 388q22 112 21 235zM831 1337q240 0 391 -135q150 -135 150 -386t-95 -458q-52 -112 -131 -196
t-202 -136t-274 -53q-242 -1 -392 131t-151 389q0 257 96 459q53 113 131 197t202 136t275 52z" />
    <glyph glyph-name="Ohungarumlaut.sc" horiz-adv-x="1443" 
d="M625 1473l155 348h230l-224 -348h-161zM936 1473l172 348h229l-241 -348h-160zM1087 856q0 123 -66 205q-67 82 -189 82t-206 -66t-127 -172q-89 -214 -87 -440q0 -131 64 -214t188 -83t207 65q143 113 195 388q22 112 21 235zM831 1337q240 0 391 -135
q150 -135 150 -386t-95 -458q-52 -112 -131 -196t-202 -136t-274 -53q-242 -1 -392 131t-151 389q0 257 96 459q53 113 131 197t202 136t275 52z" />
    <glyph glyph-name="Omacron.sc" horiz-adv-x="1443" 
d="M580 1518l36 188h652l-37 -188h-651zM1087 856q0 123 -66 205q-67 82 -189 82t-206 -66t-127 -172q-89 -214 -87 -440q0 -131 64 -214t188 -83t207 65q143 113 195 388q22 112 21 235zM831 1337q240 0 391 -135q150 -135 150 -386t-95 -458q-52 -112 -131 -196t-202 -136
t-274 -53q-242 -1 -392 131t-151 389q0 257 96 459q53 113 131 197t202 136t275 52z" />
    <glyph glyph-name="Oslashacute.sc" horiz-adv-x="1443" 
d="M1372 819q0 -247 -98 -458q-53 -113 -132 -197t-204 -137t-281 -54q-236 0 -374 125l-144 -143h-186l244 246q-70 121 -70 279q0 319 153 571q79 129 223 207t351 79q207 0 350 -120l146 147h190l-246 -248q78 -127 78 -297zM676 168q110 0 196 66q148 114 204 384
q24 113 24 188t-6 109l-643 -647q67 -100 225 -100zM842 1145q-128 0 -214 -65t-134 -170q-95 -212 -95 -449q0 -35 2 -53l639 645q-70 92 -198 92zM795 1473l166 348h280l-244 -348h-202z" />
    <glyph glyph-name="Otilde.sc" horiz-adv-x="1443" 
d="M809 1786q67 0 147 -55t113 -56q74 0 107 113h145q-14 -137 -83 -226t-194 -89q-66 0 -150 56t-116 56q-72 0 -102 -115h-146q12 136 83 226t196 90zM1087 856q0 123 -66 205q-67 82 -189 82t-206 -66t-127 -172q-89 -214 -87 -440q0 -131 64 -214t188 -83t207 65
q143 113 195 388q22 112 21 235zM831 1337q240 0 391 -135q150 -135 150 -386t-95 -458q-52 -112 -131 -196t-202 -136t-274 -53q-242 -1 -392 131t-151 389q0 257 96 459q53 113 131 197t202 136t275 52z" />
    <glyph glyph-name="Racute.sc" horiz-adv-x="1288" 
d="M770 1319q152 0 268 -53q193 -90 193 -308q0 -150 -82 -258t-244 -153v-4l225 -543h-276l-205 512h-217l-100 -512h-266l260 1319h444zM698 700q121 0 191 65t69 187q0 178 -219 178h-186l-82 -430h227zM678 1473l166 348h280l-243 -348h-203z" />
    <glyph glyph-name="Rcaron.sc" horiz-adv-x="1288" 
d="M770 1319q152 0 268 -53q193 -90 193 -308q0 -150 -82 -258t-244 -153v-4l225 -543h-276l-205 512h-217l-100 -512h-266l260 1319h444zM698 700q121 0 191 65t69 187q0 178 -219 178h-186l-82 -430h227zM655 1473l-143 348h193l92 -176l157 176h203l-272 -348h-230z" />
    <glyph glyph-name="Rcommaaccent.sc" horiz-adv-x="1280" 
d="M770 1319q152 0 268 -53q193 -90 193 -308q0 -150 -82 -258t-244 -153v-4l225 -543h-276l-205 512h-217l-100 -512h-266l260 1319h444zM698 700q121 0 191 65t69 187q0 178 -219 178h-186l-82 -430h227zM330 -440l108 305h269l-199 -305h-178z" />
    <glyph glyph-name="Sacute.sc" 
d="M344 385q0 -217 238 -217q112 0 184 52t72 134t-35 118q-35 38 -119 63l-149 43q-166 47 -237 134t-71 222q-1 190 141 298t353 106t340 -101q129 -98 117 -283h-265q4 88 -50 140t-153 51q-98 0 -160 -48q-62 -47 -62 -121t37 -112q38 -38 120 -61l158 -45
q171 -49 239 -130t68 -208q0 -209 -148 -328t-386 -119q-238 -1 -376 107t-126 305h270zM666 1473l165 348h281l-244 -348h-202z" />
    <glyph glyph-name="Scaron.sc" 
d="M344 385q0 -217 238 -217q112 0 184 52t72 134t-35 118q-35 38 -119 63l-149 43q-166 47 -237 134t-71 222q-1 190 141 298t353 106t340 -101q129 -98 117 -283h-265q4 88 -50 140t-153 51q-98 0 -160 -48q-62 -47 -62 -121t37 -112q38 -38 120 -61l158 -45
q171 -49 239 -130t68 -208q0 -209 -148 -328t-386 -119q-238 -1 -376 107t-126 305h270zM643 1473l-143 348h192l92 -176l158 176h203l-273 -348h-229z" />
    <glyph glyph-name="Scedilla.sc" 
d="M690 -263q0 -77 -64 -133t-162 -55q-212 0 -204 152h141q6 -45 58 -45q76 0 76 74q0 61 -56 61q-37 0 -59 -24h-125l121 221q-166 33 -259 134t-83 263h270q0 -217 238 -217q112 0 184 52t72 134t-35 118q-35 38 -119 63l-149 43q-166 47 -237 134t-71 222
q-1 190 141 298t353 106t340 -101q129 -98 117 -283h-265q4 88 -50 140t-153 51q-98 0 -160 -48q-62 -47 -62 -121t37 -112q38 -38 120 -61l158 -45q171 -49 239 -130t68 -208q0 -209 -148 -328t-397 -119q-33 0 -49 2l-57 -108h4q35 25 92 25t96 -40q39 -38 39 -115z" />
    <glyph glyph-name="Scircumflex.sc" 
d="M344 385q0 -217 238 -217q112 0 184 52t72 134t-35 118q-35 38 -119 63l-149 43q-166 47 -237 134t-71 222q-1 190 141 298t353 106t340 -101q129 -98 117 -283h-265q4 88 -50 140t-153 51q-98 0 -160 -48q-62 -47 -62 -121t37 -112q38 -38 120 -61l158 -45
q171 -49 239 -130t68 -208q0 -209 -148 -328t-386 -119q-238 -1 -376 107t-126 305h270zM950 1821l144 -348h-193l-96 176l-154 -176h-202l272 348h229z" />
    <glyph glyph-name="Scommaaccent.sc" 
d="M344 385q0 -217 238 -217q112 0 184 52t72 134t-35 118q-35 38 -119 63l-149 43q-166 47 -237 134t-71 222q-1 190 141 298t353 106t340 -101q129 -98 117 -283h-265q4 88 -50 140t-153 51q-98 0 -160 -48q-62 -47 -62 -121t37 -112q38 -38 120 -61l158 -45
q171 -49 239 -130t68 -208q0 -209 -148 -328t-386 -119q-238 -1 -376 107t-126 305h270zM246 -440l108 305h269l-199 -305h-178z" />
    <glyph glyph-name="Tcaron.sc" horiz-adv-x="1191" 
d="M653 1473l-143 348h192l93 -176l157 176h203l-272 -348h-230zM848 1108l-219 -1108h-271l220 1108h-400l43 211h1065l-41 -211h-397z" />
    <glyph glyph-name="Tcommaaccent.sc" horiz-adv-x="1191" 
d="M229 -440l109 305h268l-198 -305h-179zM848 1108l-219 -1108h-271l220 1108h-400l43 211h1065l-41 -211h-397z" />
    <glyph glyph-name="Uacute.sc" horiz-adv-x="1353" 
d="M638 184q140 0 216 80q59 59 92 230l162 825h268l-176 -893q-45 -231 -187 -342t-401 -111q-259 1 -384 137t-76 394l159 815h273l-156 -782q-39 -193 16 -273q54 -80 194 -80zM764 1473l166 348h280l-243 -348h-203z" />
    <glyph glyph-name="Ubreve.sc" horiz-adv-x="1353" 
d="M884 1473q-144 0 -224 89q-79 89 -44 259h177q-15 -80 15 -122t95 -42q139 0 174 164h185q-26 -176 -130 -262t-248 -86zM638 184q140 0 216 80q59 59 92 230l162 825h268l-176 -893q-45 -231 -187 -342t-401 -111q-259 1 -384 137t-76 394l159 815h273l-156 -782
q-39 -193 16 -273q54 -80 194 -80z" />
    <glyph glyph-name="Ucircumflex.sc" horiz-adv-x="1353" 
d="M638 184q140 0 216 80q59 59 92 230l162 825h268l-176 -893q-45 -231 -187 -342t-401 -111q-259 1 -384 137t-76 394l159 815h273l-156 -782q-39 -193 16 -273q54 -80 194 -80zM1049 1821l143 -348h-193l-96 176l-153 -176h-203l272 348h230z" />
    <glyph glyph-name="Udieresis.sc" horiz-adv-x="1353" 
d="M638 184q140 0 216 80q59 59 92 230l162 825h268l-176 -893q-45 -231 -187 -342t-401 -111q-259 1 -384 137t-76 394l159 815h273l-156 -782q-39 -193 16 -273q54 -80 194 -80zM551 1518l49 251h242l-49 -251h-242zM961 1518l49 251h241l-49 -251h-241z" />
    <glyph glyph-name="Ugrave.sc" horiz-adv-x="1353" 
d="M638 184q140 0 216 80q59 59 92 230l162 825h268l-176 -893q-45 -231 -187 -342t-401 -111q-259 1 -384 137t-76 394l159 815h273l-156 -782q-39 -193 16 -273q54 -80 194 -80zM879 1821l100 -348h-201l-170 348h271z" />
    <glyph glyph-name="Uhungarumlaut.sc" horiz-adv-x="1353" 
d="M638 184q140 0 216 80q59 59 92 230l162 825h268l-176 -893q-45 -231 -187 -342t-401 -111q-259 1 -384 137t-76 394l159 815h273l-156 -782q-39 -193 16 -273q54 -80 194 -80zM598 1473l156 348h229l-223 -348h-162zM909 1473l172 348h230l-242 -348h-160z" />
    <glyph glyph-name="Umacron.sc" horiz-adv-x="1353" 
d="M638 184q140 0 216 80q59 59 92 230l162 825h268l-176 -893q-45 -231 -187 -342t-401 -111q-259 1 -384 137t-76 394l159 815h273l-156 -782q-39 -193 16 -273q54 -80 194 -80zM551 1518l37 188h651l-37 -188h-651z" />
    <glyph glyph-name="Uogonek.sc" horiz-adv-x="1353" 
d="M606 -385q-250 0 -250 156q0 135 156 204v5q-213 28 -308 162t-52 362l159 815h273l-156 -782q-39 -193 16 -273q54 -80 194 -80t216 80q59 59 92 230l162 825h268l-176 -893q-76 -379 -418 -438q-104 -18 -149 -51t-45 -89q0 -70 100 -69l-31 -164h-51z" />
    <glyph glyph-name="Uring.sc" horiz-adv-x="1353" 
d="M638 184q140 0 216 80q59 59 92 230l162 825h268l-176 -893q-45 -231 -187 -342t-401 -111q-259 1 -384 137t-76 394l159 815h273l-156 -782q-39 -193 16 -273q54 -80 194 -80zM1018 1710q0 109 -100 109q-51 0 -83 -38q-32 -39 -32 -95q0 -116 98 -115q53 0 85 38
t32 101zM655 1682q0 108 74 181t190 73q117 0 181 -61q64 -60 64 -169q0 -110 -74 -180t-186 -69t-181 59q-68 58 -68 166z" />
    <glyph glyph-name="Utilde.sc" horiz-adv-x="1353" 
d="M782 1786q66 0 147 -55t113 -56q74 0 107 113h145q-14 -137 -83 -226t-193 -89q-66 0 -150 56t-116 56q-72 0 -103 -115h-145q12 136 83 226t195 90zM638 184q140 0 216 80q59 59 92 230l162 825h268l-176 -893q-45 -231 -187 -342t-401 -111q-259 1 -384 137t-76 394
l159 815h273l-156 -782q-39 -193 16 -273q54 -80 194 -80z" />
    <glyph glyph-name="Wacute.sc" horiz-adv-x="1841" 
d="M995 1473l166 348h281l-244 -348h-203zM1024 1008h-6q-25 -88 -86 -226l-352 -782h-275l-100 1319h262l45 -754q6 -120 0 -211l-2 -28h4q27 90 84 217l352 776h250l62 -758q8 -88 8 -209l-2 -26h6q20 90 76 217l336 776h258l-590 -1319h-271l-55 780q-9 147 -4 203v25z
" />
    <glyph glyph-name="Wcircumflex.sc" horiz-adv-x="1841" 
d="M1024 1008h-6q-25 -88 -86 -226l-352 -782h-275l-100 1319h262l45 -754q6 -120 0 -211l-2 -28h4q27 90 84 217l352 776h250l62 -758q8 -88 8 -209l-2 -26h6q20 90 76 217l336 776h258l-590 -1319h-271l-55 780q-9 147 -4 203v25zM1280 1821l143 -348h-192l-96 176
l-154 -176h-203l273 348h229z" />
    <glyph glyph-name="Wdieresis.sc" horiz-adv-x="1841" 
d="M1024 1008h-6q-25 -88 -86 -226l-352 -782h-275l-100 1319h262l45 -754q6 -120 0 -211l-2 -28h4q27 90 84 217l352 776h250l62 -758q8 -88 8 -209l-2 -26h6q20 90 76 217l336 776h258l-590 -1319h-271l-55 780q-9 147 -4 203v25zM784 1518l50 251h241l-49 -251h-242z
M1194 1518l49 251h242l-49 -251h-242z" />
    <glyph glyph-name="Wgrave.sc" horiz-adv-x="1841" 
d="M1112 1821l100 -348h-200l-170 348h270zM1024 1008h-6q-25 -88 -86 -226l-352 -782h-275l-100 1319h262l45 -754q6 -120 0 -211l-2 -28h4q27 90 84 217l352 776h250l62 -758q8 -88 8 -209l-2 -26h6q20 90 76 217l336 776h258l-590 -1319h-271l-55 780q-9 147 -4 203v25z
" />
    <glyph glyph-name="Yacute.sc" horiz-adv-x="1214" 
d="M367 0l114 580l-295 739h271l194 -539h4l394 539h276l-584 -768l-108 -551h-266zM686 1473l166 348h281l-244 -348h-203z" />
    <glyph glyph-name="Ycircumflex.sc" horiz-adv-x="1214" 
d="M367 0l114 580l-295 739h271l194 -539h4l394 539h276l-584 -768l-108 -551h-266zM969 1821l143 -348h-192l-97 176l-153 -176h-203l272 348h230z" />
    <glyph glyph-name="Ydieresis.sc" horiz-adv-x="1214" 
d="M367 0l114 580l-295 739h271l194 -539h4l394 539h276l-584 -768l-108 -551h-266zM475 1518l49 251h242l-49 -251h-242zM885 1518l49 251h242l-50 -251h-241z" />
    <glyph glyph-name="Ygrave.sc" horiz-adv-x="1214" 
d="M801 1821l100 -348h-201l-170 348h271zM367 0l114 580l-295 739h271l194 -539h4l394 539h276l-584 -768l-108 -551h-266z" />
    <glyph glyph-name="Zacute.sc" horiz-adv-x="1183" 
d="M244 1112l41 207h956l-35 -178l-839 -934h665l-39 -207h-993l35 180l837 932h-628zM672 1473l166 348h280l-244 -348h-202z" />
    <glyph glyph-name="Zcaron.sc" horiz-adv-x="1183" 
d="M244 1112l41 207h956l-35 -178l-839 -934h665l-39 -207h-993l35 180l837 932h-628zM649 1473l-143 348h192l93 -176l157 176h203l-272 -348h-230z" />
    <glyph glyph-name="Zdotaccent.sc" horiz-adv-x="1183" 
d="M664 1518l49 251h245l-49 -251h-245zM244 1112l41 207h956l-35 -178l-839 -934h665l-39 -207h-993l35 180l837 932h-628z" />
    <glyph glyph-name="Ldot.sc" horiz-adv-x="1091" 
d="M66 0l260 1319h268l-219 -1108h577l-41 -211h-845zM741 604l50 250h249l-51 -250h-248z" />
    <glyph glyph-name="napostrophe.sc" horiz-adv-x="1400" 
d="M66 0l260 1319h286l293 -770q38 -102 49 -168l4 -23h5l190 961h242l-258 -1319h-267l-305 782q-44 121 -53 168l-6 23h-6l-191 -973h-243z" />
    <glyph glyph-name="Hbar.sc" horiz-adv-x="1413" 
d="M444 557l-110 -557h-268l192 973h-139l33 157h137l37 189h268l-37 -189h545l37 189h268l-37 -189h137l-32 -157h-136l-192 -973h-268l110 557h-545zM1028 762l43 211h-545l-43 -211h545z" />
    <glyph glyph-name="Idotaccent.sc" horiz-adv-x="598" 
d="M375 1518l49 251h246l-49 -251h-246zM66 0l260 1319h268l-260 -1319h-268z" />
    <glyph glyph-name="Ebreve.sc" horiz-adv-x="1177" 
d="M770 1473q-144 0 -222 89t-44 259h176q-14 -80 16 -122t95 -42q139 0 174 164h184q-27 -176 -131 -262t-248 -86zM66 0l260 1319h866l-41 -205h-598l-70 -354h568l-39 -201h-568l-69 -356h618l-41 -203h-886z" />
    <glyph glyph-name="yen.tab" 
d="M377 0l63 326h-374l30 151h373l35 174h-379l29 152h342l-275 715h281l188 -555h4l398 555h297l-553 -715h340l-29 -152h-379l-35 -174h383l-29 -151h-382l-64 -326h-264z" />
    <glyph glyph-name="eight.den" horiz-adv-x="862" 
d="M537 262q0 123 -150 123q-70 0 -111 -43t-40 -111q0 -116 139 -116q74 0 118 42t44 105zM588 644q0 112 -124 112q-58 0 -94 -40t-36 -98q0 -106 115 -106q63 0 101 38t38 94zM474 895q146 0 227 -58t81 -163q0 -170 -186 -223v-7q143 -45 143 -177t-98 -209t-279 -76
q-334 0 -333 235q0 95 58 157t157 85v6q-106 47 -107 164q0 117 95 191q96 74 242 75z" />
    <glyph glyph-name="five.den" horiz-adv-x="849" 
d="M532 317q0 123 -126 125q-82 0 -150 -69h-172l145 508h562l-35 -160h-402l-63 -217h4q82 78 201 78t180 -65t61 -173q1 -166 -109 -264t-280 -98t-250 66t-71 202h198q-2 -55 33 -87q36 -32 106 -32t119 53t49 133z" />
    <glyph glyph-name="four.den" horiz-adv-x="878" 
d="M745 193h-114l-41 -193h-187l41 193h-448l29 139l514 549h237l-112 -535h114zM223 336h256l86 397h-6q-33 -72 -110 -153z" />
    <glyph glyph-name="nine.den" horiz-adv-x="858" 
d="M766 563q0 -239 -115 -411t-336 -170q-281 4 -286 231h188q12 -94 115 -94q166 0 219 293h-6q-74 -106 -221 -107q-111 0 -182 70t-70 178q0 152 103 247t270 95t244 -91t77 -241zM563 616q-1 138 -133 138q-68 0 -113 -56t-45 -127q4 -129 123 -129q78 0 123 54t45 120z
" />
    <glyph glyph-name="one.den" horiz-adv-x="587" 
d="M115 733q86 0 138 34t71 116h182l-184 -883h-201l123 588h-189l29 145h31z" />
    <glyph glyph-name="seven.den" horiz-adv-x="780" 
d="M27 0l487 721h-422l35 160h659l-24 -113l-518 -768h-217z" />
    <glyph glyph-name="six.den" horiz-adv-x="874" 
d="M262 266q0 -148 131 -147q70 0 115 54t45 124q0 141 -127 141q-74 0 -119 -51t-45 -121zM387 -18q-166 0 -249 88t-83 236t45 276t154 220q109 91 254 91t220 -65t73 -164h-193q-10 94 -112 94q-166 0 -222 -287h7q33 47 94 76t125 28q120 0 190 -65t70 -176
q2 -152 -102 -252t-271 -100z" />
    <glyph glyph-name="three.den" horiz-adv-x="847" 
d="M399 381h-106l26 129h99q66 0 110 39t43 92q0 53 -32 81q-33 28 -86 28q-131 0 -152 -127h-197q12 117 106 195t246 77q150 0 232 -58q82 -59 82 -155t-54 -154t-141 -79v-5q145 -41 145 -177t-104 -211q-106 -74 -269 -74t-250 72t-77 204h195q0 -127 141 -127
q74 0 118 40t44 99q0 111 -119 111z" />
    <glyph glyph-name="two.den" horiz-adv-x="837" 
d="M450 895q148 0 228 -58q80 -59 80 -165t-60 -182t-180 -164l-229 -168v-4h389l-31 -154h-694l22 115l394 307q129 102 155 133q33 45 33 93t-31 75t-82 27q-137 0 -155 -156h-197q14 143 112 222t246 79z" />
    <glyph glyph-name="zero.den" horiz-adv-x="933" 
d="M393 131q103 1 165 147t62 306t-120 159q-72 -1 -126 -77q-102 -144 -102 -375q0 -160 121 -160zM55 313q0 210 107 386q53 87 143 141t205 53q158 0 245 -87t85 -251q-2 -233 -120 -403t-337 -170q-160 0 -244 86t-84 245z" />
    <glyph glyph-name="zero.num" horiz-adv-x="933" 
d="M535 815q104 1 165 147q62 146 62 306t-121 159q-72 -1 -126 -77q-103 -146 -101 -375q0 -160 121 -160zM197 997q0 212 106 386q53 87 143 141t205 53q158 0 245 -87t85 -251q-2 -233 -120 -403t-337 -170q-160 0 -244 86t-83 245z" />
    <glyph glyph-name="one.num" horiz-adv-x="587" 
d="M256 1417q88 0 139 34t70 116h182l-184 -883h-201l123 588h-188l28 145h31z" />
    <glyph glyph-name="two.num" horiz-adv-x="831" 
d="M586 1579q146 0 227 -58q80 -57 80 -165t-60 -184t-180 -162l-227 -168v-4h387l-29 -154h-694l23 115l391 307q64 51 94 74q31 24 37 31t29 32q30 34 30 86q0 51 -30 78q-31 27 -84 27q-138 0 -156 -156h-195q11 143 111 222t246 79z" />
    <glyph glyph-name="three.num" horiz-adv-x="847" 
d="M541 1065h-107l27 129h98q66 0 110 39t44 92t-33 81t-86 28q-131 0 -152 -127h-196q12 117 106 195t244 77q150 0 233 -58q82 -59 82 -155t-54 -154t-140 -79v-5q145 -41 145 -177t-104 -211q-104 -74 -268 -74t-252 72q-86 72 -76 204h194q0 -127 142 -127q74 0 118 40
t43 99q1 111 -118 111z" />
    <glyph glyph-name="four.num" horiz-adv-x="882" 
d="M893 877h-117l-41 -193h-184l39 193h-449l29 139l514 549h238l-113 -535h115zM369 1020h256l86 397h-6q-33 -72 -111 -153z" />
    <glyph glyph-name="five.num" horiz-adv-x="849" 
d="M666 1001q0 123 -125 125q-86 0 -150 -69h-172l143 508h562l-33 -160h-404l-63 -217h6q82 78 200 78t180 -65t62 -173q0 -166 -110 -264t-281 -98q-170 0 -249 66t-70 202h196q-2 -55 33 -87t105 -32t120 54t50 132z" />
    <glyph glyph-name="six.num" horiz-adv-x="874" 
d="M694 985q0 137 -133 137q-69 0 -113 -51t-44 -121t30 -108q30 -39 100 -39t115 54t45 128zM526 666q-168 0 -248 86t-81 235q0 332 198 499q109 91 254 91t220 -65t73 -164h-192q-10 94 -113 94q-166 0 -221 -287h6q33 47 94 76t125 29q121 0 191 -66t69 -176
q2 -154 -102 -253q-105 -99 -273 -99z" />
    <glyph glyph-name="seven.num" horiz-adv-x="780" 
d="M162 684l487 721h-422l35 160h660l-25 -113l-520 -768h-215z" />
    <glyph glyph-name="eight.num" horiz-adv-x="858" 
d="M678 946q0 123 -150 123q-70 0 -110 -43q-41 -43 -41 -111q0 -116 139 -116q74 0 118 42t44 105zM729 1328q-1 112 -125 112q-58 0 -94 -40t-35 -97q0 -106 115 -107q63 0 101 38t38 94zM279 1313q0 117 95 191q96 74 242 75q146 0 227 -58t81 -163q0 -170 -187 -223v-7
q145 -47 145 -178t-98 -208q-100 -77 -280 -76q-334 0 -334 235q0 95 58 157t157 85v6q-106 47 -106 164z" />
    <glyph glyph-name="nine.num" horiz-adv-x="858" 
d="M907 1247q-1 -239 -115 -411t-335 -170q-281 4 -287 231h188q12 -94 115 -94q166 0 219 293h-6q-74 -106 -203 -106t-199 69q-70 70 -71 178q0 152 103 247q104 95 272 95t244 -90t75 -242zM572 1438q-68 0 -113 -56t-45 -127q4 -129 123 -129q79 0 123 54t44 120
t-31 102q-33 36 -101 36z" />
    <glyph glyph-name="minus.den" horiz-adv-x="833" 
d="M80 352l26 148h607l-31 -148h-602z" />
    <glyph glyph-name="plus.den" horiz-adv-x="831" 
d="M461 354l-49 -235h-170l49 235h-234l29 144h233l50 231h170l-50 -231h236l-29 -144h-235z" />
    <glyph glyph-name="parenleft.tab" horiz-adv-x="614" 
d="M166 402q0 338 133 646t358 566h211q-233 -303 -355 -595q-122 -293 -125 -621t114 -664h-191q-145 330 -145 668z" />
    <glyph glyph-name="parenright.tab" horiz-adv-x="614" 
d="M520 945q0 -335 -134 -644t-359 -567h-211q233 305 356 596q123 292 125 620t-115 664h191q147 -334 147 -669z" />
    <glyph glyph-name="bracketleft.tab" horiz-adv-x="614" 
d="M23 -266l366 1880h469l-35 -176h-250l-299 -1528h252l-34 -176h-469z" />
    <glyph glyph-name="bracketright.tab" horiz-adv-x="614" 
d="M655 1614l-366 -1880h-469l35 176h249l299 1528h-249l32 176h469z" />
    <glyph glyph-name="braceleft.tab" horiz-adv-x="614" 
d="M111 588h-48l39 196h50q76 0 108 31t45 113l62 366q31 201 149 276q119 75 356 52l-32 -166q-144 8 -198 -40t-73 -173l-55 -328q-16 -102 -54 -153t-138 -68l-3 -8q156 -43 99 -266l-70 -299q-29 -125 8 -171t181 -59l-35 -165q-236 8 -325 99t-38 302l70 309
q35 152 -98 152z" />
    <glyph glyph-name="braceright.tab" horiz-adv-x="614" 
d="M573 766h48l-39 -199h-47q-78 -1 -111 -31t-45 -110l-62 -369q-31 -199 -149 -275t-356 -52l32 168q145 -8 199 39q53 47 72 172l49 301q35 231 198 247l3 9q-156 43 -99 266l70 299q29 127 -8 172t-181 57l35 166q236 -8 325 -101t38 -308l-70 -302q-35 -149 98 -149z
" />
    <glyph glyph-name="eight.sub" horiz-adv-x="862" 
d="M514 139q0 123 -150 123q-70 0 -110 -43q-41 -43 -41 -110q0 -117 139 -117q74 0 118 42t44 105zM565 521q1 112 -123 112q-58 0 -95 -40q-36 -40 -36 -97q0 -106 115 -107q63 0 101 38t38 94zM115 506q0 118 95 192q96 74 242 74t227 -58t81 -163q0 -170 -187 -223v-6
q143 -46 143 -178t-98 -209t-278 -76q-334 0 -334 235q0 94 58 156t157 86v6q-106 47 -106 164z" />
    <glyph glyph-name="eight.sup" horiz-adv-x="858" 
d="M698 1050q0 124 -150 122q-70 0 -110 -44q-41 -43 -41 -110q1 -115 140 -115q73 0 117 42q44 43 44 105zM750 1432q0 112 -124 112q-60 0 -95 -40q-36 -40 -35 -97q0 -109 114 -109q61 0 101 38q39 38 39 96zM636 1681q146 0 227 -58t81 -163q0 -170 -186 -223v-4
q145 -49 145 -180t-99 -207t-280 -76q-334 0 -334 234q0 96 58 157t158 86v4q-106 47 -106 165t94 192q96 74 242 73z" />
    <glyph glyph-name="five.sub" horiz-adv-x="849" 
d="M510 195q0 123 -127 124q-82 0 -150 -69h-172l146 508h561l-35 -160h-401l-64 -217h4q82 78 201 78t180 -65t62 -173q0 -166 -110 -264t-280 -98q-337 0 -321 268h199q-2 -55 33 -87q36 -32 106 -32t119 54t49 133z" />
    <glyph glyph-name="five.sup" horiz-adv-x="849" 
d="M688 1106q0 123 -125 123q-84 0 -149 -68h-172l143 508h561l-33 -160h-403l-64 -217h7q81 76 199 76t181 -64q62 -65 62 -174q0 -166 -111 -263q-110 -97 -280 -97q-336 0 -320 266h197q-2 -55 33 -86q36 -30 106 -30t119 53t49 133z" />
    <glyph glyph-name="four.sub" horiz-adv-x="878" 
d="M723 70h-115l-41 -193h-186l41 193h-449l29 139l514 549h238l-113 -535h115zM201 213h256l86 397h-6q-33 -72 -111 -153z" />
    <glyph glyph-name="four.sup" horiz-adv-x="882" 
d="M913 981h-116l-41 -193h-185l39 193h-448l28 139l515 549h237l-113 -534h115zM389 1124h258l84 396h-6q-33 -70 -111 -154z" />
    <glyph glyph-name="minus.sub" horiz-adv-x="833" 
d="M57 229l27 148h606l-31 -148h-602z" />
    <glyph glyph-name="minus.sup" horiz-adv-x="833" 
d="M233 1141l29 145h606l-30 -145h-605z" />
    <glyph glyph-name="nine.sub" horiz-adv-x="858" 
d="M743 440q-1 -240 -115 -412t-335 -169q-281 4 -287 231h189q12 -94 114 -94q166 0 219 293h-6q-74 -106 -221 -107q-111 0 -181 70t-71 178q-1 152 103 247t271 95t243 -91t77 -241zM541 494q-1 138 -133 137q-68 1 -113 -55t-45 -127q4 -129 123 -130q78 1 123 55
t45 120z" />
    <glyph glyph-name="nine.sup" horiz-adv-x="858" 
d="M928 1352q0 -240 -115 -412t-336 -170q-281 4 -287 231h189q12 -94 115 -94q168 0 219 291h-6q-76 -106 -220 -106q-113 0 -183 70t-71 179q-1 152 103 246t270 94q322 1 322 -329zM725 1404q-1 138 -133 138q-68 0 -113 -55t-45 -129q4 -127 123 -127q78 0 123 54
q45 53 45 119z" />
    <glyph glyph-name="one.sub" horiz-adv-x="587" 
d="M92 610q88 0 139 34t70 116h182l-184 -883h-201l123 588h-188l28 145h31z" />
    <glyph glyph-name="one.sup" horiz-adv-x="587" 
d="M276 1520q82 0 140 34q51 37 69 117h183l-185 -883h-200l123 588h-189l29 144h30z" />
    <glyph glyph-name="plus.sub" horiz-adv-x="831" 
d="M438 231l-49 -235h-170l49 235h-233l28 144h234l49 231h170l-49 -231h235l-28 -144h-236z" />
    <glyph glyph-name="plus.sup" horiz-adv-x="831" 
d="M616 1141l-49 -234h-172l49 234h-233l31 145h233l49 232h170l-49 -232h236l-29 -145h-236z" />
    <glyph glyph-name="seven.sub" horiz-adv-x="780" 
d="M4 -123l488 721h-422l34 160h660l-25 -113l-518 -768h-217z" />
    <glyph glyph-name="seven.sup" horiz-adv-x="780" 
d="M182 788l488 721h-422l35 160h659l-24 -113l-521 -768h-215z" />
    <glyph glyph-name="six.sub" horiz-adv-x="874" 
d="M240 144q0 -148 131 -148q71 0 115 54t44 128q0 138 -133 138q-69 0 -113 -52q-44 -50 -44 -120zM364 -141q-166 0 -248 88t-83 236q0 329 198 496q109 91 255 91t220 -64q75 -64 72 -165h-192q-10 94 -113 94q-166 0 -221 -287h6q33 47 94 76t125 29q121 1 191 -65
t69 -177q2 -152 -102 -252q-105 -100 -271 -100z" />
    <glyph glyph-name="six.sup" horiz-adv-x="874" 
d="M551 907q74 1 119 55t45 128q0 135 -127 135q-74 0 -119 -50t-45 -131q0 -137 127 -137zM547 768q-168 0 -249 87t-81 237t45 278q45 129 154 220t254 91q145 -1 220 -65t73 -164h-193q-10 94 -113 94q-166 0 -221 -286h6q36 48 96 76t124 28q120 0 190 -66t70 -176
q2 -154 -102 -254t-273 -100z" />
    <glyph glyph-name="three.sub" horiz-adv-x="847" 
d="M377 258h-107l27 129h98q66 0 110 39t44 92t-33 81t-86 28q-131 0 -151 -127h-197q12 116 106 194t244 78t234 -58q82 -58 82 -154t-54 -154q-54 -57 -141 -80v-4q145 -42 145 -178t-105 -211t-268 -75t-250 72t-77 205h195q0 -127 141 -127q74 0 118 40t44 99
q0 111 -119 111z" />
    <glyph glyph-name="three.sup" horiz-adv-x="847" 
d="M561 1169h-106l26 129h99q68 0 110 38t43 92q0 54 -33 82q-33 26 -86 26q-131 0 -151 -127h-197q12 117 106 195t246 78q150 0 232 -59t82 -155t-54 -153t-141 -78v-4q145 -43 145 -179t-104 -210t-268 -74t-251 71t-77 203h195q0 -127 141 -126q74 0 118 40t44 101
q0 110 -119 110z" />
    <glyph glyph-name="two.sub" horiz-adv-x="837" 
d="M428 772q148 0 227 -58q80 -58 80 -164t-60 -182q-60 -75 -179 -165l-230 -168v-4h389l-30 -154h-695l23 115l393 307q129 102 156 133q33 43 33 92t-31 76t-82 27q-138 0 -156 -156h-196q14 143 112 222t246 79z" />
    <glyph glyph-name="two.sup" horiz-adv-x="831" 
d="M446 942h388l-29 -154h-694l22 115l391 307q10 8 38 30t36 29t30 23t28 24t19 21t18 23t13 27t9 57q0 40 -31 66t-84 26q-138 0 -156 -154h-194q12 140 111 220t246 80t227 -58q80 -56 80 -164t-62 -185q-61 -77 -178 -161l-228 -170v-2z" />
    <glyph glyph-name="zero.sub" horiz-adv-x="933" 
d="M371 8q103 0 165 146t62 307q0 160 -121 160q-72 0 -126 -77q-103 -147 -101 -376q0 -160 121 -160zM33 190q0 211 106 387q53 87 143 140t205 53q158 0 245 -87t85 -251q-2 -233 -120 -403t-337 -170q-160 -1 -244 85t-83 246z" />
    <glyph glyph-name="zero.sup" horiz-adv-x="933" 
d="M555 918q72 0 126 78q103 148 101 372q0 162 -120 162q-72 0 -126 -77q-102 -145 -102 -376q0 -159 121 -159zM217 1102q0 210 107 386q53 87 143 140t205 53q158 0 244 -87t85 -251q-1 -233 -119 -403t-337 -170q-160 0 -244 85t-84 247z" />
    <glyph glyph-name="Q.old" horiz-adv-x="1644" 
d="M440 554q0 -150 83 -264t272 -114q59 0 118 17l-129 174l181 131l137 -187q197 217 196 664q0 176 -80 290q-81 114 -255 113q-139 0 -245 -80t-165 -204q-113 -248 -113 -540zM774 -33q-280 0 -452 166t-175 469q-1 420 229 704t597 283q281 0 451 -170t169 -471
q-2 -248 -94 -469t-262 -354l137 -188l-176 -130l-154 207q-123 -47 -270 -47z" />
    <glyph glyph-name="Q.scold" horiz-adv-x="1447" 
d="M406 456q0 -126 68 -210t216 -84q53 0 94 14l-116 150l157 116l117 -155q152 188 152 559q0 135 -69 217t-193 82q-316 1 -404 -451q-22 -112 -22 -238zM668 -27q-244 0 -393 132q-148 132 -148 386t95 459q52 113 130 197t202 137t277 53q240 0 391 -135t150 -391
q0 -211 -78 -399t-219 -299l109 -144l-154 -114l-125 161q-106 -43 -237 -43z" />
    <glyph glyph-name="Euro.tab" horiz-adv-x="1218" 
d="M624 -33q-216 1 -326 141q-108 140 -93 406h-166l31 152h149q27 160 31 174h-150l31 151h158q76 265 219 407t379 142q197 0 303 -135t78 -338h-230q18 264 -180 264q-203 0 -307 -340h352l-31 -151h-362q-18 -82 -31 -174h363l-31 -152h-352q-14 -178 34 -258t154 -80
t175 71t104 187h235q-47 -215 -184 -341t-353 -126z" />
    <glyph glyph-name="dollar.tab" horiz-adv-x="1218" 
d="M217 1077q-1 205 147 328t377 127l33 166l135 2l-35 -178q174 -27 277 -134q102 -108 90 -294h-248q12 188 -155 231l-84 -436l63 -21q174 -55 252 -149t78 -244q0 -221 -156 -355t-413 -138l-41 -218h-134l43 226q-194 28 -304 144t-97 315h254q-6 -223 186 -259l95 490
l-60 18q-303 92 -303 379zM889 420q0 92 -43 141t-141 80l-89 -457h9q113 12 189 78t75 158zM475 1116q0 -131 152 -188l78 407q-100 -8 -165 -65t-65 -154z" />
    <glyph glyph-name="dieresis.uc" horiz-adv-x="749" 
d="M123 1692l49 252h242l-49 -252h-242zM555 1692l49 252h242l-49 -252h-242z" />
    <glyph glyph-name="zero.tab" 
d="M575 184q101 0 183 102q131 164 189 531q22 133 22 225q0 281 -203 281q-104 0 -186 -100q-82 -99 -125 -247q-88 -302 -86 -511q-1 -281 206 -281zM780 1540q219 0 334 -135t115 -396t-89 -520q-50 -145 -124 -259t-193 -188t-266 -73q-221 0 -335 134
q-113 134 -113 395t89 517q50 146 124 261q74 116 192 190t266 74z" />
    <glyph glyph-name="one.tab" 
d="M430 1249q150 0 236 66q88 63 120 207h226l-254 -1309h299l-41 -213h-883l41 213h326l166 856h-347l35 180h76z" />
    <glyph glyph-name="nine.tab" 
d="M535 168q299 0 409 553h-8q-119 -164 -344 -164q-176 0 -286 115t-109 307q1 235 163 397t396 163t354 -140q119 -141 119 -337t-37 -372t-114 -344t-220 -272t-339 -104q-195 0 -307 108q-112 110 -108 276h242q2 -86 50 -136t139 -50zM670 754q143 0 222 98t79 222
q-1 126 -61 192t-162 65q-137 0 -214 -106t-77 -225q0 -118 55 -182t158 -64z" />
    <glyph glyph-name="eight.tab" 
d="M340 389q0 -231 261 -231q124 0 205 82t81 200t-72 174q-73 58 -193 58t-201 -82t-81 -201zM760 1348q-106 0 -176 -82t-70 -190t58 -160q58 -54 164 -54t178 82t72 188t-60 160q-60 56 -166 56zM770 1540q206 0 337 -104q130 -104 128 -279q0 -139 -82 -247t-211 -146
v-6q92 -39 148 -118t55 -191q0 -223 -165 -353q-166 -130 -398 -129q-232 -1 -367 105t-135 299q0 153 96 267t252 150v5q-74 41 -119 117t-47 171q-2 209 150 334t358 125z" />
    <glyph glyph-name="seven.tab" 
d="M119 0l846 1298h-738l45 220h1033l-35 -168l-875 -1350h-276z" />
    <glyph glyph-name="six.tab" 
d="M891 528q-1 126 -61 189t-164 63q-138 0 -220 -106t-82 -234t62 -194q60 -66 182 -65t202 111q81 110 81 236zM797 1337q-283 0 -398 -532h9q129 172 340 172q176 0 286 -112t111 -298q-2 -266 -164 -432q-161 -166 -399 -166t-356 137t-118 366t68 467q67 238 223 418
q75 85 181 134t229 49q193 0 303 -106t109 -267h-242q-2 80 -51 125t-131 45z" />
    <glyph glyph-name="five.tab" 
d="M330 412q0 -231 229 -232q145 0 229 109t84 264q2 113 -53 174t-157 61q-170 0 -265 -120h-217l201 850h825l-43 -224h-606l-96 -415h6q131 113 302 113t273 -110t103 -300q-2 -270 -169 -442t-417 -171q-250 0 -374 125q-123 125 -107 318h252z" />
    <glyph glyph-name="space_uni0326.alt" horiz-adv-x="749" 
d="M645 1593l-113 -317h-272l209 317h176z" />
    <glyph glyph-name="four.tab" 
d="M1139 354h-176l-70 -354h-250l68 354h-660l35 193l807 971h295l-184 -953h176zM336 559h418l131 674h-6q-39 -68 -121 -168z" />
    <glyph glyph-name="three.tab" 
d="M649 664h-98l41 210h94q127 0 199 69q71 69 71 174t-59 161t-165 55q-106 1 -178 -65t-87 -191h-246q17 213 165 338t364 125t338 -106q120 -106 120 -261t-79 -257t-224 -146v-6q215 -74 215 -318q0 -217 -158 -347t-400 -130q-243 0 -373 129t-111 334h250
q4 -250 256 -250q137 0 214 79q76 79 76 185t-60 162t-165 56z" />
    <glyph glyph-name="uni021A.sc" horiz-adv-x="1191" 
d="M229 -440l109 305h268l-198 -305h-179zM848 1108l-219 -1108h-271l220 1108h-400l43 211h1065l-41 -211h-397z" />
    <glyph glyph-name="two.tab" 
d="M770 1540q196 0 314 -105t116 -282q0 -119 -56 -227t-120 -174t-182 -168l-426 -363v-2h665l-41 -219h-1038l33 172l583 508q188 164 236 221q90 109 90 214q0 210 -203 210q-248 0 -272 -295h-250q13 254 159 382t392 128z" />
    </font>
</defs>
</svg>
