<svg id="Layer_1" xmlns="http://www.w3.org/2000/svg" xmlns:xlink="http://www.w3.org/1999/xlink" viewBox="-441.8 596.6 169.5 178.7"><style>.st0{clip-path:url(#SVGID_2_);fill:#0071bc}.st1{clip-path:url(#SVGID_4_)}.st2{fill:#d71c24}.st3{fill:url(#SVGID_5_)}.st4,.st5{clip-path:url(#SVGID_7_);fill:#d71c24}.st5{clip-path:url(#SVGID_9_)}.st6{clip-path:url(#SVGID_11_);fill:url(#SVGID_12_)}.st7{clip-path:url(#SVGID_14_)}.st8{fill:#0071bc}.st9{fill:url(#SVGID_15_)}.st10{clip-path:url(#SVGID_17_)}.st11{fill:url(#SVGID_18_)}.st12{fill:#fff}</style><path d="M-400.8 746.2l-1.1-3.6h-5.6l-1.1 3.6h-3.5l5.4-15.3h4l5.4 15.4-3.5-.1zm-1.8-6.3c-1-3.3-1.6-5.2-1.7-5.6-.1-.4-.2-.8-.3-1-.2.9-.9 3.1-2 6.6h4zm15.3 6.3l-.4-1.5h-.2c-.3.5-.8 1-1.5 1.3-.7.3-1.3.4-2.1.4-1.4 0-2.4-.4-3.1-1.1s-1-1.8-1-3.2v-7.6h3.2v6.8c0 .8.1 1.5.4 1.9.3.4.8.6 1.4.6.9 0 1.5-.3 1.9-.9.4-.6.6-1.6.6-3v-5.5h3.2v11.7h-2.4v.1zm13.9-3.4c0 1.2-.4 2.1-1.2 2.7-.8.6-2.1.9-3.7.9-.9 0-1.6-.1-2.2-.2-.6-.1-1.2-.3-1.7-.5v-2.6c.6.3 1.3.5 2 .7.7.2 1.4.3 2 .3 1.2 0 1.7-.3 1.7-1 0-.3-.1-.5-.2-.6-.2-.2-.4-.3-.8-.5s-.9-.4-1.5-.7c-.9-.4-1.6-.7-2-1s-.7-.7-.9-1.1c-.2-.4-.3-.9-.3-1.5 0-1 .4-1.8 1.2-2.4.8-.6 1.9-.9 3.4-.9 1.4 0 2.8.3 4.1.9l-1 2.3c-.6-.3-1.1-.5-1.6-.6-.5-.2-1-.2-1.6-.2-.9 0-1.4.3-1.4.8 0 .3.2.5.5.7s1 .5 2 .9c.9.4 1.6.7 2 1s.7.7.9 1.1c.2.4.3.9.3 1.5zm7.4 1.1c.6 0 1.2-.1 2-.4v2.4c-.8.4-1.8.5-2.9.5-1.3 0-2.2-.3-2.8-1-.6-.6-.9-1.6-.9-2.9v-5.6h-1.5v-1.3l1.8-1.1.9-2.5h2v2.5h3.3v2.4h-3.3v5.6c0 .5.1.8.4 1 .3.3.6.4 1 .4zm10.9-9.6c.4 0 .8 0 1.1.1l-.2 3c-.3-.1-.6-.1-.9-.1-1 0-1.8.3-2.4.8-.6.5-.9 1.3-.9 2.2v5.9h-3.2v-11.7h2.4l.5 2h.2c.4-.7.9-1.2 1.5-1.6.5-.4 1.2-.6 1.9-.6zm10.7 11.9l-.6-1.6h-.1c-.5.7-1.1 1.1-1.7 1.4s-1.3.4-2.2.4c-1.1 0-2-.3-2.7-1-.7-.7-1-1.6-1-2.7 0-1.2.4-2.2 1.3-2.7.9-.6 2.2-.9 3.9-1l2-.1v-.5c0-1.2-.6-1.8-1.8-1.8-.9 0-2 .3-3.3.8l-1.1-2.2c1.3-.7 2.8-1.1 4.5-1.1 1.6 0 2.8.3 3.6 1 .8.7 1.3 1.7 1.3 3.1v7.8h-2.1v.2zm-1-5.4h-1.2c-.9 0-1.6.2-2.1.5s-.7.8-.7 1.4c0 .9.5 1.3 1.5 1.3.7 0 1.3-.2 1.8-.6.4-.4.7-1 .7-1.7v-.9zm9.7 5.4h-3.2V730h3.2v16.2zm3.2-14.7c0-1 .6-1.6 1.7-1.6 1.2 0 1.7.5 1.7 1.6 0 .5-.1.9-.4 1.2-.3.3-.7.4-1.3.4-1.1 0-1.7-.5-1.7-1.6zm3.3 14.7h-3.2v-11.7h3.2v11.7zm10.8 0l-.6-1.6h-.1c-.5.7-1.1 1.1-1.7 1.4s-1.3.4-2.2.4c-1.1 0-2-.3-2.7-1-.6-.6-1-1.6-1-2.7 0-1.2.4-2.2 1.3-2.7.9-.6 2.2-.9 3.9-1l2-.1v-.5c0-1.2-.6-1.8-1.8-1.8-.9 0-2 .3-3.3.8l-1.1-2.2c1.3-.7 2.8-1.1 4.5-1.1 1.6 0 2.8.3 3.6 1 .8.7 1.3 1.7 1.3 3.1v7.8h-2.1v.2zm-1-5.4h-1.2c-.9 0-1.6.2-2.1.5s-.7.8-.7 1.4c0 .9.5 1.3 1.5 1.3.7 0 1.3-.2 1.8-.6.4-.4.7-1 .7-1.7v-.9zm17.3 5.4h-3.2v-6.8c0-.8-.1-1.5-.4-1.9s-.8-.6-1.4-.6c-.9 0-1.5.3-1.9.9-.4.6-.6 1.6-.6 3v5.5h-3.2v-11.8h2.4l.4 1.5h.2c.4-.6.8-1 1.5-1.3.6-.3 1.3-.4 2.1-.4 1.4 0 2.4.4 3.1 1.1.7.7 1.1 1.8 1.1 3.2v7.6h-.1zm-139.7 23.1h2.6v-13.6h-2.6v-.8h6.5c2.1 0 5.8.7 5.8 4.6s-3.7 4.6-5.8 4.6h-3v5.2h3v.8h-6.5v-.8zm3.6-6h3c3.2 0 4.9-1.4 4.9-3.8s-1.7-3.8-4.9-3.8h-3v7.6zm10.2 6.1h2.1v-9h-2.1v-.7h3v2.3c.9-1.3 2.3-2.6 4.2-2.6h.2v.8h-.2c-1.8 0-3.2 1.2-4.3 2.4v6.7h2.3v.7h-5.3l.1-.6zm8.4-4.5c0-3.5 2.2-5.5 5-5.5s5 2 5 5.5-2.2 5.5-5 5.5c-2.9 0-5-2-5-5.5zm9.1 0c0-3-1.6-4.7-4.1-4.7s-4.1 1.8-4.1 4.7c0 3 1.6 4.7 4.1 4.7 2.4 0 4.1-1.8 4.1-4.7zm2.3 9.4h2.1v-13.9h-2.1v-.7h3v1.7c.9-1 2.2-1.9 3.9-1.9 3 0 4.5 2.6 4.5 5.5s-1.6 5.5-4.7 5.5c-1.7 0-2.8-.7-3.7-1.7v5.6h2.4v.7h-5.4v-.8zm3-12.1v5.6c.8.9 2 1.8 3.7 1.8 2.6 0 3.9-2.1 3.9-4.8 0-2.4-1.1-4.7-3.7-4.7-1.9 0-3.1 1.1-3.9 2.1zm10.4 2.7c0-3.4 1.9-5.5 4.7-5.5 3.2 0 4.4 2.9 4.4 5.1v.5h-8.2c0 2.8 1.6 4.6 4.2 4.6 1.2 0 2.5-.4 3.6-1.1v.8c-1 .6-2.1 1-3.6 1-3.3.1-5.1-2.1-5.1-5.4zm.9-.6h7.4c-.1-2-1.1-4.1-3.6-4.1-2.1-.1-3.5 1.6-3.8 4.1zm9.9 5.1h2.1v-9h-2.1v-.7h3v2.3c.9-1.3 2.3-2.6 4.2-2.6h.2v.8h-.2c-1.8 0-3.2 1.2-4.3 2.4v6.7h2.3v.7h-5.3l.1-.6zm10.1-2v-7h-1.8v-.7h1.8V757h.8v2.7h3.6v.7h-3.6v7c0 1.5.6 2.3 2.1 2.3.6 0 1.2-.1 1.6-.3v.7c-.7.2-1 .3-1.7.3-.4 0-2.8 0-2.8-3zm5.7 7.2l.3-.7c.5.3 1 .6 1.8.6 1.2 0 2-.7 2.4-1.8l1-2.6h-.8l-3.4-9.7h-1.7v-.7h4.8v.7h-2.2l3.3 9.7 3.7-9.7h-2.2v-.7h4.8v.7h-1.7l-5 12.7c-.5 1.3-1.6 2.2-3 2.2-.9 0-1.5-.3-2.1-.7zm18-5.3h2.6v-13.6h-2.6v-.8h11.8v4.2h-.8v-3.4h-7.5v6.6h6.7v.8h-6.7v6.2h3v.8h-6.5v-.8zm13.2.1h2.1v-9h-2.1v-.7h3v9.7h2.1v.7h-5.1v-.7zm2.4-14.6c.4 0 .8.4.8.8s-.4.8-.8.8-.8-.4-.8-.8c-.1-.4.4-.8.8-.8zm3.8 14.6h2.1v-9h-2.1v-.7h3v1.7c1.3-1.2 2.8-2 4.3-2 1.9 0 3 1.2 3 3.5v6.5h2.1v.7h-5.1v-.7h2.1V763c0-1.7-.6-2.8-2.3-2.8-1.6 0-3.1 1.1-4.2 2.1v7.1h2.1v.7h-5.1l.1-.7zm13.6-2c0-2.7 2.8-3.2 4.7-3.2h2.6v-1.1c0-2.2-.8-2.9-2.8-2.9-1.3 0-2.6.3-3.6.7v-.8c1.1-.4 2.4-.7 3.7-.7 2.5 0 3.6 1.1 3.6 3.5v6.4h2.1v.7h-2.9v-1.4c-.9.7-2.4 1.7-4.1 1.7-1.7.1-3.3-.9-3.3-2.9zm7.2.4v-2.9h-2.6c-1.6 0-3.8.4-3.8 2.5 0 1.5 1.1 2.2 2.5 2.2 1.7 0 3-1 3.9-1.8zm4 1.6h2.1v-9h-2.1v-.7h3v1.7c1.3-1.2 2.8-2 4.3-2 1.9 0 3 1.2 3 3.5v6.5h2.1v.7h-5.1v-.7h2.1V763c0-1.7-.6-2.8-2.3-2.8-1.6 0-3.1 1.1-4.2 2.1v7.1h2.1v.7h-5.1l.1-.7zm13.8-4.5c0-3.3 2-5.5 5.3-5.5 1.3 0 2.6.3 3.5.7v2.7h-.8v-2.2c-.6-.2-1.7-.4-2.7-.4-3 0-4.4 2-4.4 4.7 0 2.9 1.7 4.8 4.4 4.8 1.3 0 2.5-.4 3.6-1.1v.8c-1 .6-2.1 1.1-3.6 1.1-3.2-.1-5.3-2.3-5.3-5.6zm10.8 0c0-3.4 1.9-5.5 4.7-5.5 3.2 0 4.4 2.9 4.4 5.1v.5h-8.2c0 2.8 1.6 4.6 4.2 4.6 1.2 0 2.5-.4 3.6-1.1v.8c-1 .6-2.1 1-3.6 1-3.2.1-5.1-2.1-5.1-5.4zm.9-.6h7.4c-.1-2-1.1-4.1-3.6-4.1-2.2-.1-3.5 1.6-3.8 4.1z"/><defs><circle id="SVGID_1_" cx="-357" cy="652.6" r="56"/></defs><clipPath id="SVGID_2_"><use xlink:href="#SVGID_1_" overflow="visible"/></clipPath><ellipse class="st0" cx="-387.8" cy="674.3" rx="26.7" ry="26.1"/><defs><circle id="SVGID_3_" cx="-357" cy="652.6" r="56"/></defs><clipPath id="SVGID_4_"><use xlink:href="#SVGID_3_" overflow="visible"/></clipPath><g class="st1"><path class="st2" d="M-342.3 664c-9.5-11.9 7.5-54.1 22.4-56.4 14.9-2.2 45 34.2 37.7 47.6s-50.5 20.6-60.1 8.8z"/><linearGradient id="SVGID_5_" gradientUnits="userSpaceOnUse" x1="-688.28" y1="575.285" x2="-652.396" y2="503.435" gradientTransform="scale(1 -1) rotate(38.418 1194.768 435.457)"><stop offset="0" stop-color="#fff" stop-opacity="0"/><stop offset=".09" stop-color="#fff8f9" stop-opacity=".063"/><stop offset=".217" stop-color="#ffe6e7" stop-opacity=".152"/><stop offset=".365" stop-color="#ffc8c9" stop-opacity=".255"/><stop offset=".53" stop-color="#ff9ea0" stop-opacity=".371"/><stop offset=".708" stop-color="#ff686b" stop-opacity=".496"/><stop offset=".895" stop-color="#ff282c" stop-opacity=".626"/><stop offset="1" stop-color="#ff0005" stop-opacity=".7"/></linearGradient><circle class="st3" cx="-341.3" cy="637.3" r="36.6"/></g><defs><circle id="SVGID_6_" cx="-357" cy="652.6" r="56"/></defs><clipPath id="SVGID_7_"><use xlink:href="#SVGID_6_" overflow="visible"/></clipPath><path class="st4" d="M-396.6 683.3c-13.4-2.8 11.6-52.6 25-54.5 13.4-2.1 40.3 30.8 33.8 42.7-6.5 11.9-37.9 16.4-58.8 11.8z"/><defs><circle id="SVGID_8_" cx="-357" cy="652.6" r="56"/></defs><clipPath id="SVGID_9_"><use xlink:href="#SVGID_8_" overflow="visible"/></clipPath><path class="st5" d="M-433.2 643.5c-9.5-11.9 7.5-54.1 22.4-56.4 14.9-2.2 45 34.3 37.7 47.6-7.2 13.3-50.7 20.6-60.1 8.8z"/><defs><circle id="SVGID_10_" cx="-357" cy="652.6" r="56"/></defs><clipPath id="SVGID_11_"><use xlink:href="#SVGID_10_" overflow="visible"/></clipPath><linearGradient id="SVGID_12_" gradientUnits="userSpaceOnUse" x1="-758.48" y1="601.301" x2="-701.924" y2="544.279" gradientTransform="scale(1 -1) rotate(38.418 1194.768 435.457)"><stop offset="0" stop-color="#fff" stop-opacity="0"/><stop offset="1" stop-color="#fff" stop-opacity=".2"/></linearGradient><circle class="st6" cx="-398.1" cy="653.2" r="36.6"/><defs><circle id="SVGID_13_" cx="-357" cy="652.6" r="56"/></defs><clipPath id="SVGID_14_"><use xlink:href="#SVGID_13_" overflow="visible"/></clipPath><g class="st7"><path class="st2" d="M-375.9 720.6c0-11.9 31-29.7 41.4-23.7 10.5 6 10.8 43.1 0 47.8-10.7 4.6-41.4-12.4-41.4-24.1z"/><path class="st8" d="M-355.1 705.5c0-15.3 39.6-37.9 52.6-30.4 13.1 7.5 13.8 54.9-.2 60.7-13.8 5.9-52.2-15.2-52.4-30.3z"/><linearGradient id="SVGID_15_" gradientUnits="userSpaceOnUse" x1="-343.482" y1="793.865" x2="-270.309" y2="793.865" gradientTransform="matrix(1 0 0 -1 0 1504)"><stop offset="0" stop-color="#fff" stop-opacity="0"/><stop offset="1" stop-color="#002f77" stop-opacity=".7"/></linearGradient><circle class="st9" cx="-307" cy="710.1" r="36.6"/></g><defs><circle id="SVGID_16_" cx="-357" cy="652.6" r="56"/></defs><clipPath id="SVGID_17_"><use xlink:href="#SVGID_16_" overflow="visible"/></clipPath><g class="st10"><path class="st8" d="M-401.2 609c0-15.1 39.6-37.9 52.6-30.2 13.1 7.7 13.8 54.9-.2 60.7-14 5.7-52.3-15.4-52.4-30.5z"/><linearGradient id="SVGID_18_" gradientUnits="userSpaceOnUse" x1="-412.715" y1="944.46" x2="-356.16" y2="887.437" gradientTransform="matrix(1 0 0 -1 0 1504)"><stop offset="0" stop-color="#fff" stop-opacity="0"/><stop offset="1" stop-color="#002f77" stop-opacity=".7"/></linearGradient><circle class="st11" cx="-383.7" cy="588.8" r="36.6"/></g><path class="st12" d="M-397.3 651c.2.4.4.7.6.9.3 0-.8-2.2-.6-.9.2.1-.2-1.3 0 0zm1.1-2.1c4.1 14.7 4.1 20.7 3.7 21.8 3.2 4.3 6.7-.7 9.7-.7 5.2 0 4.9-1.3 8.6-2.4 4.1-1.1 7.7-2.2 11.8-3 1.5-.2 3.5 1.9 5 1.3 0 0 2.6 5.6 3.5 5.4h.6s5.4-4.3 4.5-4.9c1.9.9-2.1 6.2-1.9 6.3.9 1.5 2.4-2.6 2.4-2.6 1.5-.6 0 4.1 0 3.4-.2-2.1 3 1.7 3.2 1.7-.4-.7-.9-1.5-1.5-1.9.7 0 2.2 2.8 1.5 3.2 2.8 4.7 7.7 1.1 9.3 2.6-.7-.6-.2.2 0 .4-.2-.2 3.5 1.7 3.2 1.9-.6.4 3-3.5 2.6-3-1.3 2.8 9.5-6.3 5.8-6.3.2 0 1.5-3 1.5-3l.2-.6c-.6.2-.6.2.2-.2.7-.9 1.1-1.5.9-1.7.7.9 3.5-10.3 3.4-11.6 0 0 0 .4 0 0s-.4-1.1-.4-1.3c1.3.7-4.1-8-4.5-8.4-1.1-1.5 1.1-2.2-.2-2.2-1.7-1.3-.4-.4-1.1.2.2-.2-.4-.4-.7-.2.2-.2-.4-2.2-.6-2.4-.2 0-3.5-5.4-3.5-4.9-1.7 0-1.3-1.5-2.2-2.1 0-.7 0-.7 0 0-.9-.6-1.3-11.2-3.9-9.5-.2.2-3.2-6.9-3.2-7.8 0-.6-1.7 4.1-2.1 4.1 1.1 0 .4.4.4.6l-.4.4c-.2.6 1.1 10.8-3 10.8-5 0-11.2-11.2-7.5-10.6.2 0 .9-.2 1.3-1.5-.2.4-1.3-1.3-.9-.9-.9-.7-.4 1.3-.7 1.3-.4 0-1.1-1.1-.7-1.1-3.9.6-3.9-1.7-6.9-1.7-.4 0-.7.4-1.3.2 1.5.4 2.8 1.1 1.1 2.4-.9.7-9 1.9-5.2 6.3-1.1.4 0-1.7-1.1 0 .7-1.3-2.4-.9-1.7-.4-.2-.2 0 .9-1.1 1.1 2.1-.4-.7-4.3-1.9-4.3-.2 0-.2.7-.7 1.1.7-.6-1.5 0-1.1-.7-.2.4.4 1.1-.2 1.7-.7.6.2-1.3-.7-.2-.2-.2-.4-.2-.4.2-.2-.9-.2 1.7 0 1.1-.2.4-.9-.6-1.3 0 .6-.2.6 0 .2.4 0 0 .9.2.7.6.2-.2-1.3-.7-1.1-.7l-.6 1.3c.2-.4.2-.2.2.2l.6-.7c.4 1.9-1.9.4.4 1.7-1.3-.7-2.2 0-2.6.2 1.3 1.5-.6.9.4 3.2-.2-.6-1.1-2.6-1.3-2.8 2.6 1.1-17.5 13.6-17.5 11.8-.6 2-2.1 5.4-1.2 7.4m32.5-21.5c-.2 0-.4 0-.6-.2l.6.2c-.2 0 .4-.1 0 0z"/><path class="st12" d="M-351.6 619.6c.2 0 .4-.2.4-.2s-.2.2-.4.2zm22.2 66.3c-.6-.9-2.6.6-2.8.6-.4-.2-2.6-.9-3-.9-2.2-.4-.9 2.2-.2 3.4-.4-.2.7 2.1.9 2.1.4 1.1 3.5.2 3.2-.6.7-.9.4 1.3.9.6.7-.7-.6-2.2.7-2.1-.2-.3.5-2.9.3-3.1 0-.2 0 0 0 0zm-5.4 3.1c-.2.7-.4-.2-.6-.4.1.1.6.3.6.4-.2.8.2-.1 0 0zm2.8-2.4l-.2-.4c.6.6.6.8.2.4 0 0 .2.2 0 0z"/></svg>