<?xml version="1.0" standalone="no"?>
<!DOCTYPE svg PUBLIC "-//W3C//DTD SVG 1.1//EN" "http://www.w3.org/Graphics/SVG/1.1/DTD/svg11.dtd" >
<svg xmlns="http://www.w3.org/2000/svg">
<metadata>
Created by FontPrep 20130207 at Wed Feb 24 14:44:49 2016
 By Callum Flack
Copyright 2000-2003, The Font Bureau, Inc. Designed by Cyrus Highsmith, Tobias Frere-Jones, and Font Bureau. All rights reserved.
</metadata>
<defs>
<font id="ed8435d366a4ac4bee8ecd80fc76b4b5" horiz-adv-x='1024' >
  <font-face 
    font-family="BentonSans-Bold"
    font-weight="400"
    font-stretch="normal"
    units-per-em="2048"
    panose-1="2 0 5 3 4 0 0 2 0 4"
    ascent="1638"
    descent="-410"
    x-height="1092"
    cap-height="1516"
    bbox="-184 -420 3095 1966"
    underline-thickness="40"
    underline-position="-231"
    unicode-range="U+0020-FB0C"
  />
<missing-glyph horiz-adv-x="1556" 
d="M657 635h-165l12 -150l153 -14v164zM899 635v-164l152 12l12 152h-164zM657 877v165l-151 -12l-14 -153h165zM899 877h164l-12 153l-152 12v-165zM520 1225l137 -13l-51 304h344l-51 -304l135 13l-4 53h240l-2 -33l32 4v-239l-55 4l-12 -137l303 51v-344l-303 51l12 -133
l55 4v-240l-34 2l4 -35h-240l4 56l-135 12l51 -301h-344l51 301l-135 -12l4 -56h-239l4 35l-35 -2v240l53 -4l13 133l-302 -51v344l302 -51l-13 137l-53 -4v239l33 -2l-2 31h239z" />
    <glyph glyph-name="ff" unicode="ff" horiz-adv-x="1501" 
d="M223 0v852h-182v240h182v75q0 356 340 357q119 0 185 -15v-227q-18 6 -80 6q-117 0 -117 -131v-65h330v75q0 164 78 260q79 96 301 97q133 0 198 -15v-229q-38 8 -104 8t-106 -26t-40 -105v-65h238v-240h-238v-852h-327v852h-330v-852h-328z" />
    <glyph glyph-name="fi" unicode="fi" horiz-adv-x="1357" 
d="M881 0v1092h327v-1092h-327zM223 0v852h-182v240h182v75q0 356 340 357q119 0 185 -15v-227q-18 6 -80 6q-117 0 -117 -131v-65h201v-240h-201v-852h-328zM879 1223v282h331v-282h-331z" />
    <glyph glyph-name="ffi" unicode="ffi" horiz-adv-x="2002" 
d="M1536 0v1092h330v-1092h-330zM223 0v852h-182v240h182v75q0 356 340 357q119 0 185 -15v-227q-18 6 -80 6q-117 0 -117 -131v-65h330v75q0 356 340 357q113 0 184 -15v-227q-18 6 -82 6q-115 0 -115 -131v-65h199v-240h-199v-852h-327v852h-330v-852h-328zM1536 1223v282
h330v-282h-330z" />
    <glyph glyph-name="ffl" unicode="ffl" horiz-adv-x="2002" 
d="M1536 0v1516h330v-1516h-330zM223 0v852h-182v240h182v75q0 356 340 357q119 0 185 -15v-227q-18 6 -80 6q-117 0 -117 -131v-65h330v75q0 356 340 357q113 0 184 -15v-227q-18 6 -82 6q-115 0 -115 -131v-65h199v-240h-199v-852h-327v852h-330v-852h-328z" />
    <glyph glyph-name="fj" unicode="fj" horiz-adv-x="1349" 
d="M841 -416q-124 0 -188 15v223q37 -12 100 -12q128 0 128 149v1133h327v-1196q0 -66 -12 -114t-47 -97t-109 -75t-199 -26zM223 0v852h-182v240h182v75q0 356 340 357q119 0 185 -15v-227q-18 6 -80 6q-117 0 -117 -131v-65h201v-240h-201v-852h-328zM879 1223v282h331
v-282h-331z" />
    <glyph glyph-name=".notdef" horiz-adv-x="1556" 
d="M657 635h-165l12 -150l153 -14v164zM899 635v-164l152 12l12 152h-164zM657 877v165l-151 -12l-14 -153h165zM899 877h164l-12 153l-152 12v-165zM520 1225l137 -13l-51 304h344l-51 -304l135 13l-4 53h240l-2 -33l32 4v-239l-55 4l-12 -137l303 51v-344l-303 51l12 -133
l55 4v-240l-34 2l4 -35h-240l4 56l-135 12l51 -301h-344l51 301l-135 -12l4 -56h-239l4 35l-35 -2v240l53 -4l13 133l-302 -51v344l302 -51l-13 137l-53 -4v239l33 -2l-2 31h239z" />
    <glyph glyph-name=".null" horiz-adv-x="0" 
 />
    <glyph glyph-name="nonmarkingreturn" horiz-adv-x="681" 
 />
    <glyph glyph-name="space" unicode=" " horiz-adv-x="550" 
 />
    <glyph glyph-name="exclam" unicode="!" horiz-adv-x="731" 
d="M197 0v303h352v-303h-352zM250 479l-84 1037h414l-82 -1037h-248z" />
    <glyph glyph-name="quotedbl" unicode="&#x22;" horiz-adv-x="942" 
d="M129 1516h281v-152l-35 -401h-211l-35 401v152zM532 1516h279v-152l-35 -401h-209l-35 401v152z" />
    <glyph glyph-name="numbersign" unicode="#" horiz-adv-x="1562" 
d="M623 625h229l55 266h-227zM51 381v244h277l55 266h-244v244h295l80 381h295l-80 -381h229l80 381h295l-80 -381h256v-244h-307l-55 -266h274v-244h-325l-80 -381h-295l80 381h-228l-81 -381h-295l79 381h-225z" />
    <glyph glyph-name="dollar" unicode="$" horiz-adv-x="1398" 
d="M793 211q197 29 196 190q0 76 -47 122t-149 77v-389zM432 1118q0 -72 43 -114t137 -70v364q-90 -12 -135 -60t-45 -120zM602 1677h197v-147q279 -37 440 -270l-221 -160q-50 76 -102 121t-123 65v-399q247 -57 373 -157t126 -288q0 -190 -123 -314t-370 -146v-172h-197
v172q-336 33 -514 325l223 144q76 -103 142 -161t159 -77v434q-277 64 -380 172t-103 286q0 179 127 297t346 134v141z" />
    <glyph glyph-name="percent" unicode="%" horiz-adv-x="2269" 
d="M1772 760q-139 0 -139 -286t139 -286t139 286t-139 286zM498 756q139 0 139 286t-139 287q-139 -1 -139 -287t139 -286zM1772 -20q-190 0 -301 135q-109 135 -109 361t111 362t300 135q189 0 299 -135q110 -134 110 -360t-110 -362t-300 -136zM541 0l905 1516h283
l-906 -1516h-282zM498 549q-190 0 -300 134t-110 361q0 228 111 362t300 134t299 -134t110 -359t-110 -362q-110 -136 -300 -136z" />
    <glyph glyph-name="ampersand" unicode="&#x26;" horiz-adv-x="1521" 
d="M367 432q0 -114 65 -172t176 -59q111 0 205 59q-133 127 -313 375q-133 -89 -133 -203zM721 1329q-57 0 -95 -39t-38 -128t65 -210q180 102 181 248q0 53 -28 91t-85 38zM590 -29q-262 0 -410 108q-147 108 -147 286t92 281t256 181q-96 186 -96 341t109 266
q110 110 313 110t302 -96t99 -244t-92 -246t-258 -180q16 -26 102 -132t156 -173q76 129 96 307h281q-39 -276 -156 -465q123 -68 279 -67v-268q-283 2 -484 116q-180 -125 -442 -125z" />
    <glyph glyph-name="quotesingle" unicode="'" horiz-adv-x="540" 
d="M129 1516h281v-152l-35 -401h-211l-35 401v152z" />
    <glyph glyph-name="parenleft" unicode="(" horiz-adv-x="827" 
d="M90 584q0 300 132 542t392 461l152 -160q-332 -369 -332 -849t342 -848l-162 -150q-260 219 -392 462t-132 542z" />
    <glyph glyph-name="parenright" unicode=")" horiz-adv-x="827" 
d="M391 579q0 482 -332 848l154 160q260 -219 391 -462t131 -541t-131 -542q-131 -243 -391 -462l-162 150q340 367 340 849z" />
    <glyph glyph-name="asterisk" unicode="*" horiz-adv-x="1040" 
d="M375 618l-172 103l190 276l-338 -22v192l340 -24l-192 278l172 103l145 -305l146 305l174 -103l-193 -278l338 24v-192l-338 22l193 -276l-172 -103l-148 306z" />
    <glyph glyph-name="plus" unicode="+" horiz-adv-x="1323" 
d="M530 178v410h-393v260h393v409h263v-409h393v-260h-393v-410h-263z" />
    <glyph glyph-name="comma" unicode="," horiz-adv-x="577" 
d="M113 0v317h352v-272l-152 -291h-153l86 246h-133z" />
    <glyph glyph-name="hyphen" unicode="-" horiz-adv-x="731" 
d="M96 532v222h539v-222h-539z" />
    <glyph glyph-name="period" unicode="." horiz-adv-x="577" 
d="M113 0v317h352v-317h-352z" />
    <glyph glyph-name="slash" unicode="/" horiz-adv-x="1312" 
d="M47 0l881 1516h338l-881 -1516h-338z" />
    <glyph glyph-name="zero" unicode="0" horiz-adv-x="1425" 
d="M414 758q0 -258 78 -392t222 -135q144 1 221 135t77 391t-77 389t-222 132q-299 0 -299 -520zM713 -29q-295 0 -463 214q-168 215 -168 573t168 572t463 214t462 -213t167 -573t-167 -574q-167 -213 -462 -213z" />
    <glyph glyph-name="one" unicode="1" horiz-adv-x="937" 
d="M66 0v260h274v954q-131 -70 -270 -69v272q180 6 278 99h314v-1256h239v-260h-835z" />
    <glyph glyph-name="two" unicode="2" horiz-adv-x="1257" 
d="M53 0v33q0 180 76 327q91 178 377 361q201 127 264 190q64 63 64 159t-52 146t-145 50q-92 0 -180 -58t-154 -159l-235 165q215 330 577 330q242 0 377 -119t135 -321q1 -143 -67 -259t-258 -237q-190 -120 -284 -202q-93 -82 -99 -146h718v-260h-1114z" />
    <glyph glyph-name="three" unicode="3" horiz-adv-x="1275" 
d="M229 416q147 -180 383 -180q113 0 180 54q66 54 66 166t-88 164q-88 50 -274 50h-76v243h82q190 -1 258 51t67 140q0 168 -219 168q-193 0 -342 -144l-182 209q100 97 251 151t312 54q246 0 378 -101t132 -286q0 -135 -78 -228t-219 -124q168 -27 257 -128t89 -249
q0 -211 -163 -333t-431 -122q-377 0 -589 260z" />
    <glyph glyph-name="four" unicode="4" horiz-adv-x="1384" 
d="M780 559v559h-4l-387 -559h391zM780 0v297h-735v242l690 977h367v-957h256v-262h-256v-297h-322z" />
    <glyph glyph-name="five" unicode="5" horiz-adv-x="1247" 
d="M600 -29q-344 0 -567 201l168 219q170 -156 379 -155q145 0 217 72q71 72 71 200q0 127 -67 199q-68 72 -195 71q-162 0 -278 -145l-215 67l61 816h920l-17 -252h-647l-29 -336q98 94 320 94q223 0 351 -139t128 -376t-162 -387t-438 -149z" />
    <glyph glyph-name="six" unicode="6" horiz-adv-x="1339" 
d="M715 223q117 0 183 75q66 76 65 184t-57 178t-187 71q-180 0 -311 -127q24 -381 307 -381zM794 977q208 0 344 -120q138 -121 138 -359t-159 -382t-427 -145q-268 0 -438 199t-170 561q0 209 58 371t156 255q198 187 456 187t438 -127l-141 -225q-131 88 -281 88
t-248 -117t-112 -323q178 137 386 137z" />
    <glyph glyph-name="seven" unicode="7" horiz-adv-x="1103" 
d="M25 1247v269h1060v-246l-583 -1270h-336l579 1247h-720z" />
    <glyph glyph-name="eight" unicode="8" horiz-adv-x="1306" 
d="M653 199q127 0 201 60q74 59 74 147t-68 145t-231 123q-250 -121 -250 -264q-1 -90 73 -150t201 -61zM870 1130q0 70 -53 124t-163 54t-164 -50t-54 -126t58 -124q58 -50 182 -99q104 51 149 101t45 120zM1262 391q0 -197 -162 -309t-448 -111q-286 0 -448 112t-161 308
q0 135 93 237t243 163q-135 71 -201 153t-66 228t144 259q143 113 400 113t397 -113q139 -114 139 -270q0 -242 -262 -360q166 -74 249 -163t83 -247z" />
    <glyph glyph-name="nine" unicode="9" horiz-adv-x="1339" 
d="M621 784q182 0 309 127q-20 373 -305 373q-119 0 -184 -71t-64 -179q0 -250 244 -250zM590 -29q-268 0 -451 133l144 218q137 -94 288 -94t248 120q96 121 111 328q-178 -137 -386 -137q-208 1 -344 121t-136 358t158 382q160 144 428 144t436 -198t169 -562
q0 -208 -58 -370q-102 -285 -368 -396q-114 -47 -239 -47z" />
    <glyph glyph-name="colon" unicode=":" horiz-adv-x="604" 
d="M125 0v317h354v-317h-354zM125 774v318h354v-318h-354z" />
    <glyph glyph-name="semicolon" unicode=";" horiz-adv-x="604" 
d="M125 0v317h354v-264l-157 -299h-154l88 246h-131zM125 774v318h354v-318h-354z" />
    <glyph glyph-name="less" unicode="&#x3c;" horiz-adv-x="1323" 
d="M1206 98l-1083 475v181l1083 475v-271l-731 -294l731 -295v-271z" />
    <glyph glyph-name="equal" unicode="=" horiz-adv-x="1323" 
d="M143 322v233h1035v-233h-1035zM143 788v234h1035v-234h-1035z" />
    <glyph glyph-name="greater" unicode="&#x3e;" horiz-adv-x="1323" 
d="M127 98v271l731 295l-731 294v271l1083 -475v-181z" />
    <glyph glyph-name="question" unicode="?" horiz-adv-x="1216" 
d="M391 0v303h352v-303h-352zM424 623q0 195 217 311q90 51 127 94q37 42 37 110t-51 106q-50 38 -144 38t-190 -51t-160 -127l-199 186q227 254 586 254q227 0 354 -103t127 -272q0 -131 -63 -212t-187 -145t-150 -119q-26 -54 -26 -218h-270q-8 74 -8 148z" />
    <glyph glyph-name="at" unicode="@" horiz-adv-x="1777" 
d="M672 706q0 -102 30 -140t107 -38q78 0 160 82l51 316q-64 70 -154 70t-142 -94t-52 -196zM870 -29q-356 0 -570 219q-214 220 -214 564t224 567t582 223t578 -214q221 -214 222 -552q0 -211 -106 -339t-309 -128q-202 0 -261 183q-147 -156 -322 -156q-126 0 -200 83
t-74 232q0 246 114 398q114 151 272 151t243 -104l14 88h250l-101 -611q-25 -129 113 -129q98 0 160 86q61 86 61 238q0 283 -179 458t-476 175t-473 -180t-176 -469t173 -472t466 -184q229 0 385 105l69 -101q-186 -131 -465 -131z" />
    <glyph glyph-name="A" unicode="A" horiz-adv-x="1460" 
d="M541 580h356l-174 516h-4zM35 0l536 1522h318l536 -1522h-338l-112 338h-516l-117 -338h-307z" />
    <glyph glyph-name="B" unicode="B" horiz-adv-x="1460" 
d="M483 254h269q266 0 266 201t-281 200h-254v-401zM483 891h246q254 0 254 183t-250 183h-250v-366zM156 0v1516h606q541 0 541 -375q0 -152 -81 -238t-208 -110v-5q330 -59 329 -370q0 -213 -157 -316q-158 -102 -393 -102h-637z" />
    <glyph glyph-name="C" unicode="C" horiz-adv-x="1492" 
d="M772 -29q-309 0 -499 201q-189 201 -189 584q0 384 194 586t494 202q500 0 614 -477l-315 -92q-41 143 -108 218q-68 75 -193 75q-170 0 -261 -135t-91 -375t93 -379t263 -139q129 0 204 78t116 241l313 -70q-125 -518 -635 -518z" />
    <glyph glyph-name="D" unicode="D" horiz-adv-x="1515" 
d="M487 270h156q246 0 350 116q105 116 105 369t-106 367t-353 115h-152v-967zM156 0v1516h465q362 0 585 -172q224 -172 225 -582q1 -411 -227 -587q-228 -175 -583 -175h-465z" />
    <glyph glyph-name="E" unicode="E" horiz-adv-x="1296" 
d="M156 0v1516h1032v-279h-699v-326h506v-264h-506v-377h736v-270h-1069z" />
    <glyph glyph-name="F" unicode="F" horiz-adv-x="1200" 
d="M156 0v1516h1001v-279h-668v-369h476v-264h-476v-604h-333z" />
    <glyph glyph-name="G" unicode="G" horiz-adv-x="1558" 
d="M748 -29q-330 0 -497 216q-167 215 -167 575t186 571t504 211q231 0 388 -112t224 -373l-305 -84q-47 157 -121 225t-178 68q-105 0 -171 -44t-103 -95q-37 -52 -63 -145q-25 -94 -25 -230t34 -246t90 -164q108 -106 236 -105q129 1 212 73t106 200h-264v248h581v-760
h-268v209h-4q-31 -84 -135 -161t-260 -77z" />
    <glyph glyph-name="H" unicode="H" horiz-adv-x="1574" 
d="M156 0v1516h333v-588h596v588h334v-1516h-334v647h-596v-647h-333z" />
    <glyph glyph-name="I" unicode="I" horiz-adv-x="675" 
d="M172 0v1516h332v-1516h-332z" />
    <glyph glyph-name="J" unicode="J" horiz-adv-x="1095" 
d="M463 -29q-260 0 -443 168l187 209q123 -111 239 -110q188 0 189 260v1018h334v-1070q0 -223 -123 -349t-383 -126z" />
    <glyph glyph-name="K" unicode="K" horiz-adv-x="1470" 
d="M156 0v1516h333v-627l508 627h389l-514 -592l568 -924h-377l-408 672l-166 -187v-485h-333z" />
    <glyph glyph-name="L" unicode="L" horiz-adv-x="1200" 
d="M156 0v1516h333v-1246h668v-270h-1001z" />
    <glyph glyph-name="M" unicode="M" horiz-adv-x="1859" 
d="M156 0v1516h440l338 -1115h4l315 1115h451v-1516h-322v1034h-4q-23 -129 -84 -338l-227 -696h-295l-225 696q-55 184 -88 355h-4v-1051h-299z" />
    <glyph glyph-name="N" unicode="N" horiz-adv-x="1591" 
d="M156 0v1516h333l635 -967h4v967h308v-1516h-308l-661 975h-4v-975h-307z" />
    <glyph glyph-name="O" unicode="O" horiz-adv-x="1597" 
d="M799 1268q-177 0 -279 -136t-102 -375t102 -378t278 -139q175 0 278 140t104 378q0 238 -102 374t-279 136zM84 758q0 192 59 346t161 248q207 192 498 192q292 0 501 -205t209 -581t-210 -582q-208 -205 -500 -205t-498 193q-101 94 -161 248q-59 154 -59 346z" />
    <glyph glyph-name="P" unicode="P" horiz-adv-x="1384" 
d="M487 797h228q153 0 219 56t66 168t-67 167t-218 55h-228v-446zM156 0v1516h551q449 0 569 -243q49 -99 49 -243q0 -492 -623 -491h-215v-539h-331z" />
    <glyph glyph-name="Q" unicode="Q" horiz-adv-x="1597" 
d="M414 758q0 -238 104 -378t278 -140q175 0 277 140t103 378q0 238 -102 374t-278 136q-178 0 -280 -136t-102 -374zM1106 -406q-225 0 -358 112t-140 290q-231 53 -379 250q-147 197 -147 512q0 192 59 346t161 248q207 192 498 192q292 0 500 -205t209 -581
q-1 -326 -159 -526t-404 -244q29 -84 102 -107t214 -22h104v-265h-260z" />
    <glyph glyph-name="R" unicode="R" horiz-adv-x="1443" 
d="M483 829h228q147 1 216 49t69 160t-69 158q-69 47 -216 47h-228v-414zM156 0v1516h569q596 0 596 -469q0 -336 -315 -433l337 -614h-352l-315 571h-193v-571h-327z" />
    <glyph glyph-name="S" unicode="S" horiz-adv-x="1417" 
d="M719 -29q-453 0 -645 373l252 150q63 -123 171 -191q109 -67 233 -67t197 45t73 127t-72 129t-283 105t-305 112q-201 113 -201 330q0 216 150 338t397 122q397 0 602 -311l-231 -176q-59 98 -161 156q-102 59 -208 59q-108 0 -166 -41t-57 -118q0 -77 72 -121
q73 -44 207 -81t194 -56t143 -59q84 -40 130 -84t80 -117t34 -163q1 -197 -153 -329t-453 -132z" />
    <glyph glyph-name="T" unicode="T" horiz-adv-x="1327" 
d="M496 0v1237h-451v279h1237v-279h-453v-1237h-333z" />
    <glyph glyph-name="U" unicode="U" horiz-adv-x="1484" 
d="M743 -25q-307 0 -459 159t-153 446v936h334v-928q0 -342 281 -342t280 342v928h328v-934q0 -289 -152 -448t-459 -159z" />
    <glyph glyph-name="V" unicode="V" horiz-adv-x="1429" 
d="M557 -6l-522 1522h338l346 -1084h4l358 1084h314l-523 -1522h-315z" />
    <glyph glyph-name="W" unicode="W" horiz-adv-x="1957" 
d="M446 0l-403 1516h336l160 -691q55 -209 73 -331h4q16 115 70 329l154 693h307l164 -697q61 -260 71 -325h4q12 88 68 321l154 701h307l-395 -1516h-285l-240 1055h-4l-256 -1055h-289z" />
    <glyph glyph-name="X" unicode="X" horiz-adv-x="1484" 
d="M66 0l485 801l-442 715h380l271 -455l256 455h344l-432 -717l491 -799h-370l-322 530l-311 -530h-350z" />
    <glyph glyph-name="Y" unicode="Y" horiz-adv-x="1415" 
d="M541 0v643l-523 873h344l347 -590l348 590h340l-525 -873v-643h-331z" />
    <glyph glyph-name="Z" unicode="Z" horiz-adv-x="1351" 
d="M61 0v229l791 1010h-739v277h1159v-238l-774 -1008h774v-270h-1211z" />
    <glyph glyph-name="bracketleft" unicode="[" horiz-adv-x="909" 
d="M141 -410v1926h709v-230h-377v-1466h377v-230h-709z" />
    <glyph glyph-name="backslash" unicode="\" horiz-adv-x="1251" 
d="M897 0l-881 1516h338l881 -1516h-338z" />
    <glyph glyph-name="bracketright" unicode="]" horiz-adv-x="909" 
d="M57 -410v230h377v1466h-377v230h709v-1926h-709z" />
    <glyph glyph-name="asciicircum" unicode="^" horiz-adv-x="1132" 
d="M190 1212l265 351h221l264 -351h-186l-191 152l-184 -152h-189z" />
    <glyph glyph-name="underscore" unicode="_" horiz-adv-x="1024" 
d="M0 -324v230h1024v-230h-1024z" />
    <glyph glyph-name="grave" unicode="`" horiz-adv-x="1024" 
d="M504 1208l-305 355h331l191 -355h-217z" />
    <glyph glyph-name="a" unicode="a" 
d="M496 231q156 0 249 95v202q-371 -39 -370 -192q0 -51 33 -78t88 -27zM365 -16q-131 0 -222 79q-90 80 -90 216q0 190 168 295t524 135v26q0 131 -147 131q-184 0 -358 -135l-140 189q215 195 545 194q219 0 321 -106t101 -322v-420q0 -190 31 -266h-328q-25 78 -25 160
q-157 -176 -380 -176z" />
    <glyph glyph-name="b" unicode="b" horiz-adv-x="1277" 
d="M674 231q205 -1 206 305t-210 306q-109 0 -215 -107v-403q106 -101 219 -101zM782 -16q-199 0 -327 145v-129h-330v1516h330v-592q135 190 332 190t311 -146t112 -420q0 -274 -114 -420q-115 -144 -314 -144z" />
    <glyph glyph-name="c" unicode="c" horiz-adv-x="1136" 
d="M602 -23q-209 0 -363 123q-79 62 -126 178t-47 270t51 268q51 116 135 178q163 120 366 120t311 -90t163 -244l-277 -92q-31 100 -79 142t-137 42t-146 -85t-57 -241t51 -247q52 -90 161 -90q154 0 215 194l273 -94q-136 -332 -494 -332z" />
    <glyph glyph-name="d" unicode="d" horiz-adv-x="1277" 
d="M395 539q-1 -143 53 -225t162 -83q108 0 211 107v403q-106 100 -217 101q-209 0 -209 -303zM491 -16q-199 0 -313 139t-112 415q0 276 115 426t319 150t321 -160v562h330v-1250q0 -193 33 -266h-338q-25 45 -25 164q-131 -180 -330 -180z" />
    <glyph glyph-name="e" unicode="e" 
d="M397 651h424q-25 227 -209 228q-82 -1 -140 -57t-75 -171zM623 -23q-223 0 -384 125q-81 64 -127 178t-46 266t53 266q53 116 138 178q170 124 359 124t332 -117q78 -63 123 -189t45 -302v-49h-723q23 -250 254 -250q180 0 324 131l127 -197q-192 -164 -475 -164z" />
    <glyph glyph-name="f" unicode="f" horiz-adv-x="829" 
d="M223 0v852h-182v240h182v75q0 260 184 328q79 29 205 29t189 -15v-229q-33 8 -101 8t-109 -26q-40 -26 -40 -105v-65h237v-240h-237v-852h-328z" />
    <glyph glyph-name="g" unicode="g" horiz-adv-x="1259" 
d="M297 -104q1 -140 293 -140q148 0 225 30q78 30 78 84t-54 78t-237 32l-172 8q-49 4 -72 6q-61 -39 -61 -98zM579 516q87 0 136 54t49 140t-48 141q-48 54 -137 54t-139 -54t-49 -140q0 -86 50 -141q51 -54 138 -54zM543 -410q-295 0 -424 62t-129 184q0 141 188 219
q-74 47 -74 131q0 123 158 224q-180 106 -180 313q0 170 131 281q131 110 363 110t364 -119q53 47 132 78t149 35v-252q-90 0 -185 -25q20 -47 21 -108q0 -172 -128 -281t-356 -108q-80 0 -167 18q-37 -32 -37 -58q1 -26 29 -36t94 -14l163 -11q281 -11 404 -83t123 -231
t-172 -244t-467 -85z" />
    <glyph glyph-name="h" unicode="h" horiz-adv-x="1265" 
d="M125 0v1516h330v-596q147 195 376 194q147 0 233 -78t87 -239v-797h-330v692q0 150 -127 150q-113 0 -239 -109v-733h-330z" />
    <glyph glyph-name="i" unicode="i" horiz-adv-x="602" 
d="M137 0v1092h328v-1092h-328zM135 1241v264h332v-264h-332z" />
    <glyph glyph-name="j" unicode="j" horiz-adv-x="602" 
d="M100 -416q-124 0 -190 15v223q38 -12 100 -12q128 0 127 149v1133h328v-1196q0 -127 -58 -211q-70 -101 -307 -101zM135 1241v264h332v-264h-332z" />
    <glyph glyph-name="k" unicode="k" horiz-adv-x="1198" 
d="M125 0v1516h330v-832l340 408h354l-356 -408l376 -684h-340l-241 444l-133 -149v-295h-330z" />
    <glyph glyph-name="l" unicode="l" horiz-adv-x="602" 
d="M137 0v1516h328v-1516h-328z" />
    <glyph glyph-name="m" unicode="m" horiz-adv-x="1908" 
d="M125 0v1092h330v-172q147 195 358 194q248 0 299 -194q152 195 361 194q159 0 239 -90t80 -244v-780h-330v692q0 78 -24 114q-25 36 -95 36q-96 0 -219 -109v-733h-329v692q0 78 -25 114q-24 36 -106 36t-209 -109v-733h-330z" />
    <glyph glyph-name="n" unicode="n" horiz-adv-x="1265" 
d="M127 0v1092h330v-172q147 195 377 194q145 0 231 -78t86 -239v-797h-328v692q0 150 -129 150q-111 0 -237 -109v-733h-330z" />
    <glyph glyph-name="o" unicode="o" horiz-adv-x="1247" 
d="M622 209q116 0 173 89q57 88 57 240t-55 243t-171 91t-173 -88t-57 -240t54 -243q56 -92 172 -92zM625 -23q-103 0 -199 30q-226 71 -311 272q-49 115 -49 267t49 268q49 114 132 177q163 123 377 123t376 -123q82 -63 132 -178t50 -267t-49 -268q-49 -114 -131 -178
t-178 -93q-95 -30 -199 -30z" />
    <glyph glyph-name="p" unicode="p" horiz-adv-x="1277" 
d="M674 231q205 -1 206 305t-210 306q-109 0 -215 -107v-403q106 -101 219 -101zM125 -410v1502h330v-166q137 188 333 188t310 -146t112 -420q0 -274 -114 -420q-115 -144 -314 -144t-327 145v-539h-330z" />
    <glyph glyph-name="q" unicode="q" horiz-adv-x="1277" 
d="M395 539q-1 -143 53 -225t162 -83q108 0 211 107v403q-106 100 -217 101q-209 0 -209 -303zM821 -410v566q-137 -172 -333 -172t-310 139t-112 415q0 276 115 426t317 150t323 -158v136h330v-1502h-330z" />
    <glyph glyph-name="r" unicode="r" horiz-adv-x="866" 
d="M125 0v1092h330v-183h2q131 205 368 205h11l-5 -293q-37 6 -86 6q-176 0 -290 -149v-678h-330z" />
    <glyph glyph-name="s" unicode="s" horiz-adv-x="1093" 
d="M544 188q184 0 185 109q0 53 -46 81q-47 28 -143 45q-277 49 -361 129q-85 80 -85 229t119 241t305 92q287 0 479 -153l-129 -187q-174 119 -321 119q-70 0 -109 -26q-39 -25 -39 -71t44 -72q45 -26 149 -43q333 -54 408 -185q36 -61 36 -150q0 -186 -137 -278t-344 -91
q-313 0 -510 168l131 185q74 -66 176 -104t192 -38z" />
    <glyph glyph-name="t" unicode="t" horiz-adv-x="874" 
d="M612 -14q-124 0 -191 14q-130 27 -169 101t-39 206v545h-182v240h182v374h328v-374h280v-240h-280v-473q-1 -88 31 -121t113 -33t116 13v-236q-65 -16 -189 -16z" />
    <glyph glyph-name="u" unicode="u" horiz-adv-x="1265" 
d="M434 -23q-147 0 -233 78t-86 240v797h329v-701q0 -152 129 -151q109 0 238 110v742h330v-1092h-330v170q-150 -193 -377 -193z" />
    <glyph glyph-name="v" unicode="v" horiz-adv-x="1105" 
d="M387 -2l-391 1094h340l229 -727h4l230 727h309l-389 -1094h-332z" />
    <glyph glyph-name="w" unicode="w" horiz-adv-x="1587" 
d="M324 0l-320 1092h332l94 -392q45 -178 72 -333h4q33 174 76 342l94 383h256l100 -390q33 -117 78 -335h4q35 180 76 331l100 394h293l-319 -1092h-306l-163 666h-4l-164 -666h-303z" />
    <glyph glyph-name="x" unicode="x" horiz-adv-x="1122" 
d="M23 0l374 563l-348 529h346l189 -301l178 301h332l-353 -529l369 -563h-344l-209 330l-203 -330h-331z" />
    <glyph glyph-name="y" unicode="y" horiz-adv-x="1146" 
d="M288 -418q-165 0 -302 39l69 254q109 -29 209 -29t137 95l21 53l-418 1098h340l240 -709h4l241 709h320l-459 -1207q-59 -151 -148 -227t-254 -76z" />
    <glyph glyph-name="z" unicode="z" horiz-adv-x="1085" 
d="M59 0v170l529 682h-490v240h897v-174l-530 -685h571v-233h-977z" />
    <glyph glyph-name="braceleft" unicode="{" horiz-adv-x="903" 
d="M569 -410q-137 0 -214 83t-76 221v296q-1 142 -53 194t-175 52v234q123 0 175 51t53 194v297q0 137 76 221q77 83 214 83h291v-230h-90q-160 0 -160 -162v-254q0 -143 -43 -215t-131 -100v-4q88 -29 131 -101t43 -214v-254q0 -162 160 -162h90v-230h-291z" />
    <glyph glyph-name="bar" unicode="|" horiz-adv-x="819" 
d="M246 -410v1926h325v-1926h-325z" />
    <glyph glyph-name="braceright" unicode="}" horiz-adv-x="903" 
d="M43 -410v230h90q160 0 160 162v284q0 138 41 196t133 89v4q-92 31 -133 88t-41 197v284q0 164 -158 164h-90l-2 228h322q137 0 198 -68t62 -205v-328q0 -143 52 -194t175 -51v-234q-123 0 -175 -51t-52 -195v-327q1 -137 -61 -205t-199 -68h-322z" />
    <glyph glyph-name="asciitilde" unicode="~" horiz-adv-x="1071" 
d="M692 762q-82 0 -170 57t-125 58q-84 0 -84 -111h-178q0 326 244 326q82 0 170 -58t125 -57q84 0 84 110h176q0 -325 -242 -325z" />
    <glyph glyph-name="nbspace" unicode="&#xa0;" horiz-adv-x="276" 
 />
    <glyph glyph-name="exclamdown" unicode="&#xa1;" horiz-adv-x="731" 
d="M152 0l81 1036h248l84 -1036h-413zM182 1212v304h353v-304h-353z" />
    <glyph glyph-name="cent" unicode="&#xa2;" horiz-adv-x="1146" 
d="M602 879q-102 -4 -168 -89t-66 -250t60 -249zM582 1114q64 0 80 -2l57 195h168l-68 -226q197 -70 279 -301l-254 -92q-33 104 -105 154l-186 -635q33 -4 53 -4q76 0 144 49t102 151l250 -94q-135 -332 -502 -332q-59 0 -102 9l-74 -250h-168l88 299q-279 143 -278 510
q0 150 51 264q89 203 309 275q92 30 156 30z" />
    <glyph glyph-name="sterling" unicode="&#xa3;" horiz-adv-x="1411" 
d="M322 307q-41 1 -65 -23t-24 -62t24 -62t67 -23q100 0 157 82q-94 88 -159 88zM184 684v178h172q-78 141 -77 260q0 182 127 302t331 120q285 0 408 -177q39 -57 58 -109t36 -119l-287 -62q-18 97 -62 155t-127 58t-125 -44t-42 -104q0 -103 47 -188q14 -27 51 -92h365
v-178h-277q39 -110 39 -222t-51 -214q84 -45 159 -45t115 47t46 172h280q-12 -194 -81 -308q-83 -143 -308 -143q-184 0 -342 113q-143 -113 -322 -113q-123 -1 -207 61t-85 184q0 122 86 193t197 71t231 -72v28q0 111 -74 248h-281z" />
    <glyph glyph-name="currency" unicode="&#xa4;" horiz-adv-x="1509" 
d="M254 813h-211v176h229q49 275 212 415t390 140q226 0 356 -105t193 -304l-282 -105q-43 130 -99 192t-161 62q-227 0 -285 -295h326v-176h-347v-51q0 -59 3 -88h344v-178h-324q59 -270 287 -271q98 0 161 67q62 67 103 210l287 -90q-135 -440 -553 -441q-231 0 -391 130
t-213 395h-236v178h213q-2 29 -2 86v53z" />
    <glyph glyph-name="yen" unicode="&#xa5;" horiz-adv-x="1400" 
d="M532 0v188h-366v179h366v139h-366v176h360l-497 834h346l327 -560l328 560h342l-502 -834h367v-176h-371v-139h371v-179h-371v-188h-334z" />
    <glyph glyph-name="brokenbar" unicode="&#xa6;" horiz-adv-x="819" 
d="M246 -410v838h325v-838h-325zM246 678v838h325v-838h-325z" />
    <glyph glyph-name="section" unicode="&#xa7;" horiz-adv-x="1193" 
d="M817 478q0 75 -49 125q-50 51 -162 113t-139 79q-92 -63 -92 -139t49 -125q48 -50 152 -107t149 -84q92 63 92 138zM592 -410q-369 0 -463 291l236 105q66 -178 210 -178t144 131q-1 61 -59 109t-168 108t-159 93q-153 102 -197 202q-28 63 -27 139q0 193 194 317
q-135 115 -135 272t116 261t316 104q381 0 471 -291l-233 -104q-66 178 -224 178q-80 0 -116 -37t-35 -82q0 -45 21 -81t94 -78q73 -43 153 -87q268 -147 325 -278q28 -63 27 -139q0 -195 -196 -320q127 -111 127 -269t-110 -262t-312 -104z" />
    <glyph glyph-name="dieresis" unicode="&#xa8;" horiz-adv-x="1085" 
d="M182 1196v303h279v-303h-279zM616 1196v303h279v-303h-279z" />
    <glyph glyph-name="copyright" unicode="&#xa9;" horiz-adv-x="1775" 
d="M873 317q-158 0 -258 117q-99 117 -99 327q0 211 98 327t273 116q141 0 226 -72t110 -198l-183 -47q-20 73 -53 109t-105 36t-117 -73q-44 -73 -44 -199t44 -196q44 -71 124 -70q121 0 155 163q184 -51 189 -51q-39 -139 -121 -214t-239 -75zM891 115q270 0 447 182
q178 181 178 457t-180 461t-451 185q-269 0 -447 -181t-178 -457t180 -462q181 -185 451 -185zM1673 761q0 -333 -228 -561t-561 -229t-557 225q-225 226 -225 559t228 561t560 228q333 0 558 -225t225 -558z" />
    <glyph glyph-name="ordfeminine" unicode="&#xaa;" horiz-adv-x="915" 
d="M393 913q102 0 172 70v141q-254 -25 -254 -139q0 -72 82 -72zM301 737q-95 1 -157 53t-62 148q0 272 483 311v19q0 88 -102 88q-129 0 -246 -92l-104 131q150 137 385 137q156 0 228 -74t71 -225v-293q0 -137 22 -186h-235q-18 59 -19 108q-108 -125 -264 -125z" />
    <glyph glyph-name="guillemotleft" unicode="&#xab;" horiz-adv-x="1296" 
d="M389 0l-340 547l340 545h313l-325 -545l325 -547h-313zM924 0l-342 547l342 545h313l-328 -545l328 -547h-313z" />
    <glyph glyph-name="registered" unicode="&#xae;" horiz-adv-x="1775" 
d="M780 797h117q143 1 143 113t-143 112h-117v-225zM578 348v854h331q158 0 245 -70t87 -208q0 -182 -158 -248l168 -328h-215l-151 301h-105v-301h-202zM891 115q270 0 447 182q178 181 178 457t-180 461t-451 185q-269 0 -447 -181t-178 -457t180 -462q181 -185 451 -185z
M1673 761q0 -333 -228 -561t-561 -229t-557 225q-225 226 -225 559t228 561t560 228q333 0 558 -225t225 -558z" />
    <glyph glyph-name="macron" unicode="&#xaf;" horiz-adv-x="1024" 
d="M172 1245v234h680v-234h-680z" />
    <glyph glyph-name="degree" unicode="&#xb0;" horiz-adv-x="849" 
d="M268 1214q0 -78 43 -126t114 -48t114 48t43 126t-43 124t-114 46t-114 -46t-43 -124zM92 1212q0 144 94 236t238 92t240 -92q94 -92 94 -234t-94 -236q-94 -93 -239 -93q-144 0 -239 92q-94 92 -94 235z" />
    <glyph glyph-name="twosuperior" unicode="&#xb2;" horiz-adv-x="978" 
d="M115 541v53q0 127 56 228t230 214q103 67 137 95q34 29 42 51t8 49q0 86 -94 86q-46 0 -102 -37t-101 -111l-178 127q76 120 169 180q92 60 238 60t236 -81t90 -218q0 -195 -240 -328q-154 -86 -180 -157h426v-211h-737z" />
    <glyph glyph-name="threesuperior" unicode="&#xb3;" horiz-adv-x="978" 
d="M481 524q-262 0 -397 201l160 139q92 -127 225 -127t133 107q0 61 -45 89t-145 28h-78v182h82q94 1 131 25t37 71q0 80 -110 80t-216 -98l-139 161q160 154 383 154q166 0 254 -71t88 -195q0 -156 -146 -207q176 -53 176 -225q0 -152 -106 -233t-287 -81z" />
    <glyph glyph-name="acute" unicode="&#xb4;" horiz-adv-x="1024" 
d="M303 1208l191 355h331l-305 -355h-217z" />
    <glyph glyph-name="mu" unicode="&#xb5;" horiz-adv-x="1275" 
d="M125 -410v1502h330v-695q0 -150 129 -149q113 0 237 110v734h330v-1092h-330v170q-113 -137 -258 -172q-70 -10 -108 8v-416h-330z" />
    <glyph glyph-name="paragraph" unicode="&#xb6;" horiz-adv-x="1306" 
d="M586 -410v1051q-242 4 -370 117t-128 310q0 196 125 322t344 126h647v-1926h-221v1680h-174v-1680h-223z" />
    <glyph glyph-name="periodcentered" unicode="&#xb7;" horiz-adv-x="591" 
d="M113 530v318h366v-318h-366z" />
    <glyph glyph-name="cedilla" unicode="&#xb8;" horiz-adv-x="1024" 
d="M539 -414q-188 0 -303 76l59 98q92 -61 217 -61q100 0 100 70q0 55 -65 55q-41 0 -86 -35l-82 41l53 170h135l-22 -92q47 31 119 31t117 -39q44 -39 44 -105q1 -97 -81 -153t-205 -56z" />
    <glyph glyph-name="onesuperior" unicode="&#xb9;" horiz-adv-x="851" 
d="M150 537v208h165v517q-68 -25 -161 -25v215q131 6 184 61h240v-768h145v-208h-573z" />
    <glyph glyph-name="ordmasculine" unicode="&#xba;" horiz-adv-x="954" 
d="M477 905q78 -1 118 61t40 166q0 228 -158 230q-78 0 -118 -62t-40 -165q0 -230 158 -230zM477 737q-161 1 -277 97t-116 303t116 302t278 95t277 -95t115 -302t-116 -303t-277 -97z" />
    <glyph glyph-name="guillemotright" unicode="&#xbb;" horiz-adv-x="1296" 
d="M61 0l326 547l-326 545h314l340 -545l-340 -547h-314zM594 0l328 547l-328 545h313l342 -545l-342 -547h-313z" />
    <glyph glyph-name="onequarter" unicode="&#xbc;" horiz-adv-x="2168" 
d="M1669 406v262l-176 -262h176zM1665 0v203h-440v166l430 610h272v-573h154v-203h-154v-203h-262zM506 0l905 1516h283l-906 -1516h-282zM150 537v208h165v517q-68 -25 -161 -25v215q131 6 184 61h240v-768h145v-208h-573z" />
    <glyph glyph-name="onehalf" unicode="&#xbd;" horiz-adv-x="2234" 
d="M1374 0v53q0 127 56 229t231 214q66 43 85 55t52 40q33 27 41 49t8 50q0 86 -94 86q-49 0 -104 -37t-99 -110l-178 129q150 238 391 237q162 0 252 -80t90 -219q0 -195 -239 -327q-154 -86 -180 -158h425v-211h-737zM506 0l905 1516h283l-906 -1516h-282zM150 537v208
h165v517q-68 -25 -161 -25v215q131 6 184 61h240v-768h145v-208h-573z" />
    <glyph glyph-name="threequarters" unicode="&#xbe;" horiz-adv-x="2248" 
d="M1749 406v262l-176 -262h176zM1745 0v203h-440v166l430 610h272v-573h154v-203h-154v-203h-262zM586 0l905 1516h283l-906 -1516h-282zM481 524q-262 0 -397 201l160 139q92 -127 225 -127t133 107q0 61 -45 89t-145 28h-78v182h82q94 1 131 25t37 71q0 80 -110 80
t-216 -98l-139 161q160 154 383 154q166 0 254 -71t88 -195q0 -156 -146 -207q176 -53 176 -225q0 -152 -106 -233t-287 -81z" />
    <glyph glyph-name="questiondown" unicode="&#xbf;" horiz-adv-x="1216" 
d="M569 -29q-227 -1 -354 103t-127 272q0 131 64 212q64 82 187 146t149 118t26 218h270q8 -55 9 -147q0 -195 -218 -311q-89 -50 -125 -94t-36 -111t50 -105t143 -39t189 51t160 128l199 -187q-228 -254 -586 -254zM473 1212v304h352v-304h-352z" />
    <glyph glyph-name="Agrave" unicode="&#xc0;" horiz-adv-x="1460" 
d="M541 580h356l-174 516h-4zM35 0l536 1522h318l536 -1522h-338l-112 338h-516l-117 -338h-307zM645 1606l-305 354h332l190 -354h-217z" />
    <glyph glyph-name="Aacute" unicode="&#xc1;" horiz-adv-x="1460" 
d="M541 580h356l-174 516h-4zM35 0l536 1522h318l536 -1522h-338l-112 338h-516l-117 -338h-307zM600 1606l191 354h331l-305 -354h-217z" />
    <glyph glyph-name="Acircumflex" unicode="&#xc2;" horiz-adv-x="1460" 
d="M541 580h356l-174 516h-4zM35 0l536 1522h318l536 -1522h-338l-112 338h-516l-117 -338h-307zM354 1610l264 350h222l264 -350h-186l-191 151l-184 -151h-189z" />
    <glyph glyph-name="Atilde" unicode="&#xc3;" horiz-adv-x="1460" 
d="M541 580h356l-174 516h-4zM35 0l536 1522h318l536 -1522h-338l-112 338h-516l-117 -338h-307zM889 1585q-82 0 -170 57t-125 58q-84 0 -84 -111h-178q0 326 243 326q82 0 170 -57t125 -58q84 0 84 111h176q1 -326 -241 -326z" />
    <glyph glyph-name="Adieresis" unicode="&#xc4;" horiz-adv-x="1460" 
d="M541 580h356l-174 516h-4zM35 0l536 1522h318l536 -1522h-338l-112 338h-516l-117 -338h-307zM371 1593v303h278v-303h-278zM805 1593v303h278v-303h-278z" />
    <glyph glyph-name="Aring" unicode="&#xc5;" horiz-adv-x="1460" 
d="M541 580h356l-174 516h-4zM731 1526q41 0 68 28t27 70q0 43 -27 71q-27 27 -68 27t-67 -28t-27 -70q1 -42 27 -70t67 -28zM506 1629q0 91 64 155q65 63 161 63t161 -63q64 -62 64 -154t-53 -151l522 -1479h-338l-112 338h-516l-117 -338h-307l522 1481q-51 57 -51 148z
" />
    <glyph glyph-name="AE" unicode="&#xc6;" horiz-adv-x="2199" 
d="M1061 678v557h-2l-314 -557h316zM2087 1516v-279h-696v-326h503v-264h-503v-377h733v-270h-1063v430h-455l-239 -430h-336l862 1516h1194z" />
    <glyph glyph-name="Ccedilla" unicode="&#xc7;" horiz-adv-x="1492" 
d="M782 -414q-188 0 -303 76l60 98q93 -61 205 -61t112 70q0 55 -65 55q-41 0 -86 -35l-82 41l45 147q-266 33 -425 232t-159 565t194 568t494 202q500 0 614 -477l-315 -92q-41 143 -108 218q-68 75 -193 75q-170 0 -261 -135t-91 -375t93 -379t263 -139q129 0 204 78
t116 241l313 -70q-121 -502 -602 -518l-19 -63q47 31 121 31t117 -39t43 -105q0 -97 -81 -153t-204 -56z" />
    <glyph glyph-name="Egrave" unicode="&#xc8;" horiz-adv-x="1296" 
d="M156 0v1516h1032v-279h-699v-326h506v-264h-506v-377h736v-270h-1069zM627 1606l-305 354h331l191 -354h-217z" />
    <glyph glyph-name="Eacute" unicode="&#xc9;" horiz-adv-x="1296" 
d="M156 0v1516h1032v-279h-699v-326h506v-264h-506v-377h736v-270h-1069zM483 1606l191 354h332l-306 -354h-217z" />
    <glyph glyph-name="Ecircumflex" unicode="&#xca;" horiz-adv-x="1296" 
d="M156 0v1516h1032v-279h-699v-326h506v-264h-506v-377h736v-270h-1069zM295 1610l264 350h221l264 -350h-186l-190 151l-185 -151h-188z" />
    <glyph glyph-name="Edieresis" unicode="&#xcb;" horiz-adv-x="1296" 
d="M156 0v1516h1032v-279h-699v-326h506v-264h-506v-377h736v-270h-1069zM319 1593v303h279v-303h-279zM754 1593v303h278v-303h-278z" />
    <glyph glyph-name="Igrave" unicode="&#xcc;" horiz-adv-x="675" 
d="M172 0v1516h332v-1516h-332zM256 1606l-305 354h332l190 -354h-217z" />
    <glyph glyph-name="Iacute" unicode="&#xcd;" horiz-adv-x="675" 
d="M172 0v1516h332v-1516h-332zM209 1606l190 354h332l-305 -354h-217z" />
    <glyph glyph-name="Icircumflex" unicode="&#xce;" horiz-adv-x="675" 
d="M172 0v1516h332v-1516h-332zM-37 1610l264 350h222l264 -350h-187l-190 151l-184 -151h-189z" />
    <glyph glyph-name="Idieresis" unicode="&#xcf;" horiz-adv-x="675" 
d="M172 0v1516h332v-1516h-332zM-23 1593v303h279v-303h-279zM412 1593v303h278v-303h-278z" />
    <glyph glyph-name="Eth" unicode="&#xd0;" horiz-adv-x="1515" 
d="M487 270h156q246 0 350 116q105 116 105 369t-106 367t-353 115h-152v-338h308v-250h-308v-379zM156 0v649h-136v250h136v617h465q359 0 584 -173t226 -575q1 -404 -221 -586t-589 -182h-465z" />
    <glyph glyph-name="Ntilde" unicode="&#xd1;" horiz-adv-x="1591" 
d="M156 0v1516h333l635 -967h4v967h308v-1516h-308l-661 975h-4v-975h-307zM961 1585q-82 0 -170 57t-125 58q-84 0 -84 -111h-179q0 326 244 326q82 0 170 -57t125 -58q84 0 84 111h176q1 -326 -241 -326z" />
    <glyph glyph-name="Ograve" unicode="&#xd2;" horiz-adv-x="1597" 
d="M799 1268q-177 0 -279 -136t-102 -375t102 -378t278 -139q175 0 278 140t104 378q0 238 -102 374t-279 136zM84 758q0 192 59 346t161 248q207 192 498 192q292 0 501 -205t209 -581t-210 -582q-208 -205 -500 -205t-498 193q-101 94 -161 248q-59 154 -59 346zM745 1606
l-305 354h332l191 -354h-218z" />
    <glyph glyph-name="Oacute" unicode="&#xd3;" horiz-adv-x="1597" 
d="M799 1268q-177 0 -279 -136t-102 -375t102 -378t278 -139q175 0 278 140t104 378q0 238 -102 374t-279 136zM84 758q0 192 59 346t161 248q207 192 498 192q292 0 501 -205t209 -581t-210 -582q-208 -205 -500 -205t-498 193q-101 94 -161 248q-59 154 -59 346zM631 1606
l190 354h332l-305 -354h-217z" />
    <glyph glyph-name="Ocircumflex" unicode="&#xd4;" horiz-adv-x="1597" 
d="M799 1268q-177 0 -279 -136t-102 -375t102 -378t278 -139q175 0 278 140t104 378q0 238 -102 374t-279 136zM84 758q0 192 59 346t161 248q207 192 498 192q292 0 501 -205t209 -581t-210 -582q-208 -205 -500 -205t-498 193q-101 94 -161 248q-59 154 -59 346zM422 1610
l264 350h221l264 -350h-186l-190 151l-185 -151h-188z" />
    <glyph glyph-name="Otilde" unicode="&#xd5;" horiz-adv-x="1597" 
d="M799 1268q-177 0 -279 -136t-102 -375t102 -378t278 -139q175 0 278 140t104 378q0 238 -102 374t-279 136zM84 758q0 192 59 346t161 248q207 192 498 192q292 0 501 -205t209 -581t-210 -582q-208 -205 -500 -205t-498 193q-101 94 -161 248q-59 154 -59 346zM954 1585
q-82 0 -170 57t-125 58q-84 0 -84 -111h-178q0 326 244 326q82 0 170 -57t125 -58q84 0 84 111h176q0 -326 -242 -326z" />
    <glyph glyph-name="Odieresis" unicode="&#xd6;" horiz-adv-x="1597" 
d="M799 1268q-177 0 -279 -136t-102 -375t102 -378t278 -139q175 0 278 140t104 378q0 238 -102 374t-279 136zM84 758q0 192 59 346t161 248q207 192 498 192q292 0 501 -205t209 -581t-210 -582q-208 -205 -500 -205t-498 193q-101 94 -161 248q-59 154 -59 346zM436 1593
v303h279v-303h-279zM870 1593v303h279v-303h-279z" />
    <glyph glyph-name="multiply" unicode="&#xd7;" horiz-adv-x="1323" 
d="M336 145l-191 193l322 324l-322 319l191 193l323 -322l320 322l192 -193l-319 -319l324 -320l-191 -192l-323 321z" />
    <glyph glyph-name="Oslash" unicode="&#xd8;" horiz-adv-x="1597" 
d="M799 236q178 0 282 141t105 381q0 151 -43 262l-584 -692q96 -92 240 -92zM799 1272q-177 0 -283 -137t-106 -377q0 -151 43 -262l581 690q-96 86 -235 86zM1511 758q-1 -377 -209 -582t-503 -205q-242 0 -424 133l-144 -165l-159 127l159 182q-147 203 -147 510
q0 192 59 346t161 248q207 192 495 192q244 0 422 -133l145 166l158 -127l-160 -184q147 -203 147 -508z" />
    <glyph glyph-name="Ugrave" unicode="&#xd9;" horiz-adv-x="1484" 
d="M743 -25q-307 0 -459 159t-153 446v936h334v-928q0 -342 281 -342t280 342v928h328v-934q0 -289 -152 -448t-459 -159zM694 1606l-305 354h332l190 -354h-217z" />
    <glyph glyph-name="Uacute" unicode="&#xda;" horiz-adv-x="1484" 
d="M743 -25q-307 0 -459 159t-153 446v936h334v-928q0 -342 281 -342t280 342v928h328v-934q0 -289 -152 -448t-459 -159zM555 1606l190 354h332l-305 -354h-217z" />
    <glyph glyph-name="Ucircumflex" unicode="&#xdb;" horiz-adv-x="1484" 
d="M743 -25q-307 0 -459 159t-153 446v936h334v-928q0 -342 281 -342t280 342v928h328v-934q0 -289 -152 -448t-459 -159zM367 1610l264 350h221l264 -350h-186l-191 151l-184 -151h-188z" />
    <glyph glyph-name="Udieresis" unicode="&#xdc;" horiz-adv-x="1484" 
d="M743 -25q-307 0 -459 159t-153 446v936h334v-928q0 -342 281 -342t280 342v928h328v-934q0 -289 -152 -448t-459 -159zM381 1593v303h278v-303h-278zM815 1593v303h279v-303h-279z" />
    <glyph glyph-name="Yacute" unicode="&#xdd;" horiz-adv-x="1415" 
d="M541 0v643l-523 873h344l347 -590l348 590h340l-525 -873v-643h-331zM514 1610l191 354h331l-305 -354h-217z" />
    <glyph glyph-name="Thorn" unicode="&#xde;" horiz-adv-x="1388" 
d="M702 559q287 0 285 225q0 111 -66 167q-67 56 -219 57h-213v-449h213zM156 0v1516h333v-230h211q625 0 625 -493q0 -117 -37 -207t-96 -144q-159 -146 -496 -147h-207v-295h-333z" />
    <glyph glyph-name="germandbls" unicode="&#xdf;" horiz-adv-x="1398" 
d="M907 -23q-262 0 -387 140l144 174q92 -78 213 -78q79 0 125 53q46 52 46 134q1 153 -129 211q-104 45 -313 55v219q162 2 225 57q63 56 63 144t-53 137q-54 49 -153 49q-238 0 -237 -264v-1008h-326v999q0 261 147 389q146 128 398 128t391 -102t139 -286
q0 -122 -73 -202t-187 -115q168 -17 290 -117t122 -274q0 -213 -120 -328t-325 -115z" />
    <glyph glyph-name="agrave" unicode="&#xe0;" 
d="M496 231q156 0 249 95v202q-371 -39 -370 -192q0 -51 33 -78t88 -27zM365 -16q-131 0 -222 79q-90 80 -90 216q0 190 168 295t524 135v26q0 131 -147 131q-184 0 -358 -135l-140 189q215 195 545 194q219 0 321 -106t101 -322v-420q0 -190 31 -266h-328q-25 78 -25 160
q-157 -176 -380 -176zM549 1208l-305 355h331l191 -355h-217z" />
    <glyph glyph-name="aacute" unicode="&#xe1;" 
d="M496 231q156 0 249 95v202q-371 -39 -370 -192q0 -51 33 -78t88 -27zM365 -16q-131 0 -222 79q-90 80 -90 216q0 190 168 295t524 135v26q0 131 -147 131q-184 0 -358 -135l-140 189q215 195 545 194q219 0 321 -106t101 -322v-420q0 -190 31 -266h-328q-25 78 -25 160
q-157 -176 -380 -176zM426 1208l190 355h332l-305 -355h-217z" />
    <glyph glyph-name="acircumflex" unicode="&#xe2;" 
d="M496 231q156 0 249 95v202q-371 -39 -370 -192q0 -51 33 -78t88 -27zM365 -16q-131 0 -222 79q-90 80 -90 216q0 190 168 295t524 135v26q0 131 -147 131q-184 0 -358 -135l-140 189q215 195 545 194q219 0 321 -106t101 -322v-420q0 -190 31 -266h-328q-25 78 -25 160
q-157 -176 -380 -176zM219 1212l264 351h222l264 -351h-187l-190 152l-184 -152h-189z" />
    <glyph glyph-name="atilde" unicode="&#xe3;" 
d="M496 231q156 0 249 95v202q-371 -39 -370 -192q0 -51 33 -78t88 -27zM365 -16q-131 0 -222 79q-90 80 -90 216q0 190 168 295t524 135v26q0 131 -147 131q-184 0 -358 -135l-140 189q215 195 545 194q219 0 321 -106t101 -322v-420q0 -190 31 -266h-328q-25 78 -25 160
q-157 -176 -380 -176zM750 1188q-82 0 -170 57t-125 58q-84 0 -84 -111h-178q0 326 243 326q82 0 170 -58t125 -57q84 0 84 110h176q1 -325 -241 -325z" />
    <glyph glyph-name="adieresis" unicode="&#xe4;" 
d="M496 231q156 0 249 95v202q-371 -39 -370 -192q0 -51 33 -78t88 -27zM365 -16q-131 0 -222 79q-90 80 -90 216q0 190 168 295t524 135v26q0 131 -147 131q-184 0 -358 -135l-140 189q215 195 545 194q219 0 321 -106t101 -322v-420q0 -190 31 -266h-328q-25 78 -25 160
q-157 -176 -380 -176zM238 1196v303h278v-303h-278zM672 1196v303h278v-303h-278z" />
    <glyph glyph-name="aring" unicode="&#xe5;" 
d="M496 231q156 0 249 95v202q-371 -39 -370 -192q0 -51 33 -78t88 -27zM365 -16q-131 0 -222 79q-90 80 -90 216q0 190 168 295t524 135v26q0 131 -147 131q-184 0 -358 -135l-140 189q215 195 545 194q219 0 321 -106t101 -322v-420q0 -190 31 -266h-328q-25 78 -25 160
q-157 -176 -380 -176zM598 1315q41 -1 68 27q26 28 26 71t-26 71q-27 28 -68 28t-68 -28q-26 -28 -26 -71t26 -71q27 -27 68 -27zM598 1190q-96 0 -161 64t-65 160q0 95 65 159q65 63 161 63t161 -63t65 -159t-65 -160t-161 -64z" />
    <glyph glyph-name="ae" unicode="&#xe6;" horiz-adv-x="1835" 
d="M768 344q-27 90 -23 191q-371 -37 -370 -205q0 -51 33 -78t88 -27q154 0 272 119zM1053 651h422q-20 225 -209 226q-82 1 -138 -55t-75 -171zM362 -23q-131 0 -220 76t-89 209q0 391 692 447v26q0 131 -149 131q-186 0 -356 -135l-140 189q215 195 545 194
q227 0 309 -137q56 61 142 99t178 38t174 -27t158 -90t120 -188t43 -303v-49h-720q20 -248 254 -248q180 0 321 129l127 -197q-188 -164 -473 -164q-324 0 -453 224q-193 -224 -463 -224z" />
    <glyph glyph-name="ccedilla" unicode="&#xe7;" horiz-adv-x="1136" 
d="M608 -414q-188 0 -303 76l60 98q93 -61 205 -61t112 70q0 55 -66 55q-41 0 -86 -35l-81 41l49 162q-188 27 -311 162q-122 135 -121 391q0 155 51 271t135 178q163 120 366 120t311 -90t163 -244l-277 -92q-31 100 -79 142t-137 42t-146 -85t-57 -241t51 -247
q52 -90 161 -90q154 0 215 194l273 -94q-127 -309 -463 -325l-21 -76q46 31 120 31t118 -39t43 -105q0 -97 -81 -153t-204 -56z" />
    <glyph glyph-name="egrave" unicode="&#xe8;" 
d="M397 651h424q-25 227 -209 228q-82 -1 -140 -57t-75 -171zM623 -23q-223 0 -384 125q-81 64 -127 178t-46 266t53 266q53 116 138 178q170 124 359 124t332 -117q78 -63 123 -189t45 -302v-49h-723q23 -250 254 -250q180 0 324 131l127 -197q-192 -164 -475 -164z
M541 1208l-305 355h331l191 -355h-217z" />
    <glyph glyph-name="eacute" unicode="&#xe9;" 
d="M397 651h424q-25 227 -209 228q-82 -1 -140 -57t-75 -171zM623 -23q-223 0 -384 125q-81 64 -127 178t-46 266t53 266q53 116 138 178q170 124 359 124t332 -117q78 -63 123 -189t45 -302v-49h-723q23 -250 254 -250q180 0 324 131l127 -197q-192 -164 -475 -164z
M428 1208l190 355h332l-305 -355h-217z" />
    <glyph glyph-name="ecircumflex" unicode="&#xea;" 
d="M397 651h424q-25 227 -209 228q-82 -1 -140 -57t-75 -171zM623 -23q-223 0 -384 125q-81 64 -127 178t-46 266t53 266q53 116 138 178q170 124 359 124t332 -117q78 -63 123 -189t45 -302v-49h-723q23 -250 254 -250q180 0 324 131l127 -197q-192 -164 -475 -164z
M219 1212l264 351h222l264 -351h-187l-190 152l-184 -152h-189z" />
    <glyph glyph-name="edieresis" unicode="&#xeb;" 
d="M397 651h424q-25 227 -209 228q-82 -1 -140 -57t-75 -171zM623 -23q-223 0 -384 125q-81 64 -127 178t-46 266t53 266q53 116 138 178q170 124 359 124t332 -117q78 -63 123 -189t45 -302v-49h-723q23 -250 254 -250q180 0 324 131l127 -197q-192 -164 -475 -164z
M231 1196v303h279v-303h-279zM666 1196v303h278v-303h-278z" />
    <glyph glyph-name="igrave" unicode="&#xec;" horiz-adv-x="602" 
d="M137 0v1092h328v-1092h-328zM207 1208l-305 355h331l191 -355h-217z" />
    <glyph glyph-name="iacute" unicode="&#xed;" horiz-adv-x="602" 
d="M137 0v1092h328v-1092h-328zM182 1208l191 355h332l-306 -355h-217z" />
    <glyph glyph-name="icircumflex" unicode="&#xee;" horiz-adv-x="602" 
d="M137 0v1092h328v-1092h-328zM-74 1212l264 351h222l264 -351h-187l-190 152l-184 -152h-189z" />
    <glyph glyph-name="idieresis" unicode="&#xef;" horiz-adv-x="602" 
d="M137 0v1092h328v-1092h-328zM-59 1196v303h278v-303h-278zM375 1196v303h278v-303h-278z" />
    <glyph glyph-name="eth" unicode="&#xf0;" horiz-adv-x="1245" 
d="M623 209q104 0 164 75q61 75 61 210q0 136 -60 210t-165 74q-104 0 -165 -73q-60 -74 -60 -210t60 -211q61 -75 165 -75zM623 -23q-246 -1 -400 137q-153 138 -153 378t135 374q135 133 338 133q76 -1 162 -33t141 -96q-33 147 -113 265l-155 -76l-95 170l129 61
q-59 59 -123 109l156 176q119 -78 197 -156l166 84l92 -170l-133 -69q209 -301 209 -725q0 -262 -154 -412t-399 -150z" />
    <glyph glyph-name="ntilde" unicode="&#xf1;" horiz-adv-x="1265" 
d="M127 0v1092h330v-172q147 195 377 194q145 0 231 -78t86 -239v-797h-328v692q0 150 -129 150q-111 0 -237 -109v-733h-330zM795 1188q-82 0 -170 57t-125 58q-84 0 -84 -111h-178q0 326 243 326q82 0 170 -58t125 -57q84 0 84 110h176q1 -325 -241 -325z" />
    <glyph glyph-name="ograve" unicode="&#xf2;" horiz-adv-x="1247" 
d="M622 209q116 0 173 89q57 88 57 240t-55 243t-171 91t-173 -88t-57 -240t54 -243q56 -92 172 -92zM625 -23q-103 0 -199 30q-226 71 -311 272q-49 115 -49 267t49 268q49 114 132 177q163 123 377 123t376 -123q82 -63 132 -178t50 -267t-49 -268q-49 -114 -131 -178
t-178 -93q-95 -30 -199 -30zM571 1208l-305 355h332l190 -355h-217z" />
    <glyph glyph-name="oacute" unicode="&#xf3;" horiz-adv-x="1247" 
d="M622 209q116 0 173 89q57 88 57 240t-55 243t-171 91t-173 -88t-57 -240t54 -243q56 -92 172 -92zM625 -23q-103 0 -199 30q-226 71 -311 272q-49 115 -49 267t49 268q49 114 132 177q163 123 377 123t376 -123q82 -63 132 -178t50 -267t-49 -268q-49 -114 -131 -178
t-178 -93q-95 -30 -199 -30zM457 1208l190 355h332l-305 -355h-217z" />
    <glyph glyph-name="ocircumflex" unicode="&#xf4;" horiz-adv-x="1247" 
d="M622 209q116 0 173 89q57 88 57 240t-55 243t-171 91t-173 -88t-57 -240t54 -243q56 -92 172 -92zM625 -23q-103 0 -199 30q-226 71 -311 272q-49 115 -49 267t49 268q49 114 132 177q163 123 377 123t376 -123q82 -63 132 -178t50 -267t-49 -268q-49 -114 -131 -178
t-178 -93q-95 -30 -199 -30zM248 1212l264 351h221l264 -351h-186l-190 152l-185 -152h-188z" />
    <glyph glyph-name="otilde" unicode="&#xf5;" horiz-adv-x="1247" 
d="M622 209q116 0 173 89q57 88 57 240t-55 243t-171 91t-173 -88t-57 -240t54 -243q56 -92 172 -92zM625 -23q-103 0 -199 30q-226 71 -311 272q-49 115 -49 267t49 268q49 114 132 177q163 123 377 123t376 -123q82 -63 132 -178t50 -267t-49 -268q-49 -114 -131 -178
t-178 -93q-95 -30 -199 -30zM782 1188q-82 0 -170 57t-125 58q-84 0 -84 -111h-178q0 326 244 326q82 0 170 -58t125 -57q84 0 84 110h176q0 -325 -242 -325z" />
    <glyph glyph-name="odieresis" unicode="&#xf6;" horiz-adv-x="1247" 
d="M622 209q116 0 173 89q57 88 57 240t-55 243t-171 91t-173 -88t-57 -240t54 -243q56 -92 172 -92zM625 -23q-103 0 -199 30q-226 71 -311 272q-49 115 -49 267t49 268q49 114 132 177q163 123 377 123t376 -123q82 -63 132 -178t50 -267t-49 -268q-49 -114 -131 -178
t-178 -93q-95 -30 -199 -30zM262 1196v303h279v-303h-279zM696 1196v303h279v-303h-279z" />
    <glyph glyph-name="divide" unicode="&#xf7;" horiz-adv-x="1323" 
d="M522 197v243h277v-243h-277zM137 588v260h1049v-260h-1049zM522 991v244h277v-244h-277z" />
    <glyph glyph-name="oslash" unicode="&#xf8;" horiz-adv-x="1247" 
d="M625 205q117 0 176 91t59 247q0 60 -10 121l-367 -410q59 -49 142 -49zM387 543q0 -76 14 -133l367 415q-52 53 -156 53t-164 -90t-61 -245zM610 1114q201 0 338 -86l119 131l129 -123l-117 -129q102 -139 103 -362q0 -153 -49 -267t-131 -178q-160 -124 -358 -123
q-197 0 -333 78l-131 -141l-129 125l125 135q-111 143 -110 371q0 155 49 269t132 177q162 123 363 123z" />
    <glyph glyph-name="ugrave" unicode="&#xf9;" horiz-adv-x="1265" 
d="M434 -23q-147 0 -233 78t-86 240v797h329v-701q0 -152 129 -151q109 0 238 110v742h330v-1092h-330v170q-150 -193 -377 -193zM582 1208l-306 355h332l191 -355h-217z" />
    <glyph glyph-name="uacute" unicode="&#xfa;" horiz-adv-x="1265" 
d="M434 -23q-147 0 -233 78t-86 240v797h329v-701q0 -152 129 -151q109 0 238 110v742h330v-1092h-330v170q-150 -193 -377 -193zM449 1208l190 355h332l-305 -355h-217z" />
    <glyph glyph-name="ucircumflex" unicode="&#xfb;" horiz-adv-x="1265" 
d="M434 -23q-147 0 -233 78t-86 240v797h329v-701q0 -152 129 -151q109 0 238 110v742h330v-1092h-330v170q-150 -193 -377 -193zM252 1212l264 351h221l264 -351h-186l-190 152l-185 -152h-188z" />
    <glyph glyph-name="udieresis" unicode="&#xfc;" horiz-adv-x="1265" 
d="M434 -23q-147 0 -233 78t-86 240v797h329v-701q0 -152 129 -151q109 0 238 110v742h330v-1092h-330v170q-150 -193 -377 -193zM266 1196v303h279v-303h-279zM700 1196v303h279v-303h-279z" />
    <glyph glyph-name="yacute" unicode="&#xfd;" horiz-adv-x="1146" 
d="M288 -418q-165 0 -302 39l69 254q109 -29 209 -29t137 95l21 53l-418 1098h340l240 -709h4l241 709h320l-459 -1207q-59 -151 -148 -227t-254 -76zM381 1208l190 355h332l-305 -355h-217z" />
    <glyph glyph-name="thorn" unicode="&#xfe;" horiz-adv-x="1277" 
d="M674 231q205 -1 206 305t-210 306q-109 0 -215 -107v-403q106 -101 219 -101zM125 -410v1926h330v-590q137 188 333 188t310 -146t112 -420q0 -274 -114 -420q-115 -144 -314 -144t-327 145v-539h-330z" />
    <glyph glyph-name="ydieresis" unicode="&#xff;" horiz-adv-x="1146" 
d="M288 -418q-165 0 -302 39l69 254q109 -29 209 -29t137 95l21 53l-418 1098h340l240 -709h4l241 709h320l-459 -1207q-59 -151 -148 -227t-254 -76zM225 1196v303h279v-303h-279zM659 1196v303h279v-303h-279z" />
    <glyph glyph-name="dotlessi" unicode="&#x131;" horiz-adv-x="602" 
d="M137 0v1092h328v-1092h-328z" />
    <glyph glyph-name="Lslash" unicode="&#x141;" horiz-adv-x="1200" 
d="M158 0v657l-166 -43v248l166 45v609h331v-521l291 78v-250l-291 -75v-478h668v-270h-999z" />
    <glyph glyph-name="lslash" unicode="&#x142;" horiz-adv-x="692" 
d="M184 0v598l-139 -37v240l139 39v676h328v-588l135 37v-240l-135 -37v-688h-328z" />
    <glyph glyph-name="OE" unicode="&#x152;" horiz-adv-x="2314" 
d="M414 758q0 -238 104 -378t278 -140q175 0 277 140t103 378q0 238 -102 374t-278 136q-178 0 -280 -136t-102 -374zM797 -29q-290 0 -495 193q-101 94 -161 248q-59 154 -59 346t59 346t161 248q207 192 495 192q242 0 411 -158v130h998v-279h-699v-326h506v-264h-506
v-377h736v-270h-1035v131q-171 -160 -411 -160z" />
    <glyph glyph-name="oe" unicode="&#x153;" horiz-adv-x="1951" 
d="M623 217q227 0 227 326q0 147 -54 235t-173 88q-227 0 -227 -324t227 -325zM1169 651h424q-25 225 -211 226q-80 1 -138 -55t-75 -171zM623 -23q-217 0 -377 123q-82 62 -131 178t-49 268t48 268q48 114 131 177q162 123 378 123q248 0 385 -205q143 205 376 205
q198 0 339 -117q77 -63 121 -188t44 -303v-49h-721q20 -248 252 -248q180 0 322 129l129 -197q-193 -164 -461 -164t-408 193q-130 -193 -378 -193z" />
    <glyph glyph-name="Scaron" unicode="&#x160;" horiz-adv-x="1417" 
d="M719 -29q-453 0 -645 373l252 150q63 -123 171 -191q109 -67 233 -67t197 45t73 127t-72 129t-283 105t-305 112q-201 113 -201 330q0 216 150 338t397 122q397 0 602 -311l-231 -176q-59 98 -161 156q-102 59 -208 59q-108 0 -166 -41t-57 -118q0 -77 72 -121
q73 -44 207 -81t194 -56t143 -59q84 -40 130 -84t80 -117t34 -163q1 -197 -153 -329t-453 -132zM594 1616l-264 350h188l184 -151l189 151h188l-264 -350h-221z" />
    <glyph glyph-name="scaron" unicode="&#x161;" horiz-adv-x="1093" 
d="M544 188q184 0 185 109q0 53 -46 81q-47 28 -143 45q-277 49 -361 129q-85 80 -85 229t119 241t305 92q287 0 479 -153l-129 -187q-174 119 -321 119q-70 0 -109 -26q-39 -25 -39 -71t44 -72q45 -26 149 -43q333 -54 408 -185q36 -61 36 -150q0 -186 -137 -278t-344 -91
q-313 0 -510 168l131 185q74 -66 176 -104t192 -38zM432 1214l-264 351h188l185 -152l188 152h189l-265 -351h-221z" />
    <glyph glyph-name="Ydieresis" unicode="&#x178;" horiz-adv-x="1415" 
d="M541 0v643l-523 873h344l347 -590l348 590h340l-525 -873v-643h-331zM350 1593v303h279v-303h-279zM784 1593v303h279v-303h-279z" />
    <glyph glyph-name="Zcaron" unicode="&#x17d;" horiz-adv-x="1351" 
d="M61 0v229l791 1010h-739v277h1159v-238l-774 -1008h774v-270h-1211zM578 1616l-265 350h189l184 -151l188 151h189l-264 -350h-221z" />
    <glyph glyph-name="zcaron" unicode="&#x17e;" horiz-adv-x="1085" 
d="M59 0v170l529 682h-490v240h897v-174l-530 -685h571v-233h-977zM436 1214l-264 351h188l185 -152l188 152h189l-265 -351h-221z" />
    <glyph glyph-name="florin" unicode="&#x192;" horiz-adv-x="860" 
d="M-53 -188q145 0 166 161l104 813h-188l28 230h189l18 151q18 164 110 260t316 97q127 0 199 -15l-31 -229q-32 8 -100 8t-113 -26t-53 -105l-17 -141h238l-29 -230h-237l-113 -878q-15 -130 -101 -227t-321 -97q-130 1 -196 15l28 221q33 -8 103 -8z" />
    <glyph glyph-name="circumflex" unicode="&#x2c6;" horiz-adv-x="1132" 
d="M190 1212l265 351h221l264 -351h-186l-191 152l-184 -152h-189z" />
    <glyph glyph-name="caron" unicode="&#x2c7;" horiz-adv-x="1132" 
d="M453 1214l-265 351h189l184 -152l189 152h188l-264 -351h-221z" />
    <glyph glyph-name="breve" unicode="&#x2d8;" horiz-adv-x="1024" 
d="M512 1186q-168 0 -261 105t-101 274h176q22 -172 186 -172t186 172h176q-8 -167 -101 -273t-261 -106z" />
    <glyph glyph-name="dotaccent" unicode="&#x2d9;" horiz-adv-x="1024" 
d="M342 1233v268h340v-268h-340z" />
    <glyph glyph-name="ring" unicode="&#x2da;" horiz-adv-x="1105" 
d="M553 1315q41 -1 68 27t27 71t-27 71t-68 28t-68 -28t-27 -71t27 -71q27 -27 68 -27zM553 1190q-96 0 -161 64q-64 64 -64 160q0 95 64 159q65 63 161 63t161 -63q64 -63 64 -159t-64 -160q-65 -64 -161 -64z" />
    <glyph glyph-name="ogonek" unicode="&#x2db;" horiz-adv-x="1024" 
d="M549 -383q-111 0 -170 42t-60 116q0 119 168 225h175q-123 -84 -123 -172q0 -80 94 -80q72 0 170 51l63 -100q-139 -82 -317 -82z" />
    <glyph glyph-name="tilde" unicode="&#x2dc;" horiz-adv-x="1071" 
d="M692 1188q-82 0 -170 57t-125 58q-84 0 -84 -111h-178q0 326 244 326q82 0 170 -58t125 -57q84 0 84 110h176q0 -325 -242 -325z" />
    <glyph glyph-name="hungarumlaut" unicode="&#x2dd;" horiz-adv-x="1077" 
d="M100 1208l213 355h332l-328 -355h-217zM492 1208l229 355h332l-342 -355h-219z" />
    <glyph glyph-name="endash" unicode="&#x2013;" horiz-adv-x="1388" 
d="M113 500v276h1163v-276h-1163z" />
    <glyph glyph-name="emdash" unicode="&#x2014;" horiz-adv-x="1931" 
d="M113 498v278h1706v-278h-1706z" />
    <glyph glyph-name="quoteleft" unicode="&#x2018;" horiz-adv-x="577" 
d="M119 952v291l157 273h154l-88 -246h115v-318h-338z" />
    <glyph glyph-name="quoteright" unicode="&#x2019;" horiz-adv-x="577" 
d="M119 1198v318h338v-291l-156 -273h-154l86 246h-114z" />
    <glyph glyph-name="quotesinglbase" unicode="&#x201a;" horiz-adv-x="577" 
d="M119 0v317h338v-288l-156 -275h-154l86 246h-114z" />
    <glyph glyph-name="quotedblleft" unicode="&#x201c;" horiz-adv-x="1064" 
d="M119 952v291l157 273h154l-88 -246h115v-318h-338zM608 952v291l158 273h152l-87 -246h115v-318h-338z" />
    <glyph glyph-name="quotedblright" unicode="&#x201d;" horiz-adv-x="1064" 
d="M119 1198v318h338v-291l-156 -273h-154l86 246h-114zM608 1198v318h338v-291l-158 -273h-151l86 246h-115z" />
    <glyph glyph-name="quotedblbase" unicode="&#x201e;" horiz-adv-x="1064" 
d="M119 0v317h338v-288l-156 -275h-154l86 246h-114zM608 0v317h338v-288l-158 -275h-151l86 246h-115z" />
    <glyph glyph-name="dagger" unicode="&#x2020;" horiz-adv-x="1251" 
d="M453 -410l51 1164l-443 -33v301l443 -37l-51 531h344l-52 -531l443 37v-301l-443 33l52 -1164h-344z" />
    <glyph glyph-name="daggerdbl" unicode="&#x2021;" horiz-adv-x="1251" 
d="M453 -410l51 420l-402 -37v287l402 -35l-43 328l43 326l-402 -33v284l402 -34l-51 420h344l-52 -420l402 34v-284l-402 33l43 -326l-43 -328l402 35v-287l-402 37l52 -420h-344z" />
    <glyph glyph-name="bullet" unicode="&#x2022;" horiz-adv-x="948" 
d="M473 438q-121 0 -200 80t-79 200t79 200t200 80t201 -80t80 -201t-80 -200t-201 -79z" />
    <glyph glyph-name="ellipsis" unicode="&#x2026;" horiz-adv-x="1730" 
d="M113 0v317h352v-317h-352zM688 0v317h352v-317h-352zM1266 0v317h352v-317h-352z" />
    <glyph glyph-name="perthousand" unicode="&#x2030;" horiz-adv-x="3184" 
d="M1772 760q-139 0 -139 -286t139 -286t139 286t-139 286zM2685 188q139 0 139 286t-139 286t-139 -286t139 -286zM498 756q139 0 139 286t-139 287q-139 -1 -139 -287t139 -286zM1772 -20q-190 0 -301 135q-109 135 -109 361t111 362t300 135q189 0 299 -135
q110 -134 110 -360t-110 -362t-300 -136zM2686 -20q-189 0 -299 135t-110 361t111 362t299 135q188 0 298 -135q110 -134 110 -360t-110 -362t-299 -136zM541 0l905 1516h283l-906 -1516h-282zM498 549q-190 0 -300 134t-110 361q0 228 111 362t300 134t299 -134t110 -359
t-110 -362q-110 -136 -300 -136z" />
    <glyph glyph-name="guilsinglleft" unicode="&#x2039;" horiz-adv-x="763" 
d="M389 0l-340 547l340 545h313l-325 -545l325 -547h-313z" />
    <glyph glyph-name="guilsinglright" unicode="&#x203a;" horiz-adv-x="763" 
d="M61 0l326 547l-326 545h314l340 -545l-340 -547h-314z" />
    <glyph glyph-name="fraction" unicode="&#x2044;" horiz-adv-x="1114" 
d="M-35 0l901 1516h283l-899 -1516h-285z" />
    <glyph glyph-name="Euro" unicode="&#x20ac;" horiz-adv-x="1509" 
d="M254 813h-211v176h229q49 275 212 415t390 140q226 0 356 -105t193 -304l-282 -105q-43 130 -99 192t-161 62q-227 0 -285 -295h326v-176h-347v-51q0 -59 3 -88h344v-178h-324q59 -270 287 -271q98 0 161 67q62 67 103 210l287 -90q-135 -440 -553 -441q-231 0 -391 130
t-213 395h-236v178h213q-2 29 -2 86v53z" />
    <glyph glyph-name="recordright" unicode="&#x2117;" horiz-adv-x="1775" 
d="M803 799h123q137 1 137 111t-139 110h-121v-221zM600 338v854h332q332 0 332 -272q0 -141 -92 -211t-254 -70h-115v-301h-203zM891 115q270 0 447 182q178 181 178 457t-180 461t-451 185q-269 0 -447 -181t-178 -457t180 -462q181 -185 451 -185zM1673 761
q0 -333 -228 -561t-561 -229t-557 225q-225 226 -225 559t228 561t560 228q333 0 558 -225t225 -558z" />
    <glyph glyph-name="trademark" unicode="&#x2122;" horiz-adv-x="1894" 
d="M295 649v682h-238v185h699v-185h-238v-682h-223zM877 649v867h305l157 -576l160 576h301v-867h-217v565l-162 -565h-184l-162 561v-561h-198z" />
    <glyph glyph-name="minus" unicode="&#x2212;" horiz-adv-x="1323" 
d="M137 588v260h1049v-260h-1049z" />
    <glyph glyph-name="radical" unicode="&#x221a;" horiz-adv-x="1144" 
d="M387 -2l-391 1094h340l229 -727h4l367 1151h309l-526 -1518h-332z" />
    <glyph glyph-name="registered.alt" unicode="&#xe000;" horiz-adv-x="1081" 
d="M479 1098h68q84 0 84 66t-86 67h-66v-133zM352 825v516h203q199 0 199 -170q0 -111 -92 -149l100 -197l-131 2l-90 179h-62v-181h-127zM543 690q162 0 268 109q107 109 107 273t-109 274t-271 110t-267 -108q-105 -109 -105 -273q0 -165 108 -275t269 -110zM539 600
q-201 0 -336 135t-135 336t137 338t337 137t336 -136t136 -336t-137 -337t-338 -137z" />
    <glyph glyph-name="fl" unicode="&#xfb02;" horiz-adv-x="1349" 
d="M881 0v1516h327v-1516h-327zM223 0v852h-182v240h182v75q0 356 340 357q119 0 185 -15v-227q-18 6 -80 6q-117 0 -117 -131v-65h201v-240h-201v-852h-328z" />
    </font>
</defs>
</svg>
