<?xml version="1.0" standalone="no"?>
<!DOCTYPE svg PUBLIC "-//W3C//DTD SVG 1.1//EN" "http://www.w3.org/Graphics/SVG/1.1/DTD/svg11.dtd" >
<svg xmlns="http://www.w3.org/2000/svg">
<metadata>
Created by FontPrep 20130207 at Wed Feb 24 14:44:54 2016
 By Callum Flack
Copyright 2000-2003, The Font Bureau, Inc. Designed by Cyrus Highsmith, Tobias Frere-Jones, and Font Bureau. All rights reserved.
</metadata>
<defs>
<font id="b900b7724b1c57831ac6440a5f48f2af" horiz-adv-x='1024' >
  <font-face 
    font-family="BentonSansComp-Black"
    font-weight="400"
    font-stretch="normal"
    units-per-em="2048"
    panose-1="2 0 5 6 5 0 0 2 0 4"
    ascent="1638"
    descent="-410"
    x-height="1096"
    cap-height="1516"
    bbox="-129 -426 2421 1942"
    underline-thickness="40"
    underline-position="-231"
    unicode-range="U+0020-FB0C"
  />
<missing-glyph horiz-adv-x="1597" 
d="M647 606h-147l10 -137l137 -10v147zM950 606v-147l137 10l11 137h-148zM647 909v148l-137 -10l-10 -138h147zM950 909h148l-11 138l-137 10v-148zM303 1253v60l344 -27l-20 230h344l-21 -230l344 27v-60h60l-27 -344l229 21v-344l-229 20l27 -344h-60v-59l-344 28
l21 -231h-344l20 231l-344 -28v59h-59l28 344l-231 -20v344l231 -21l-28 344h59z" />
    <glyph glyph-name="ff" unicode="ff" horiz-adv-x="1105" 
d="M131 0v846h-119v250h119v94q0 145 53 229q64 101 265 101q84 0 126 -7v-262q-29 4 -40 4q-70 0 -70 -92v-67h149v94q0 143 56 228q67 102 282 102q104 0 148 -7v-262q-29 4 -69 4q-39 0 -61 -18t-22 -74v-67h148v-250h-148v-846h-334v846h-149v-846h-334z" />
    <glyph glyph-name="fi" unicode="fi" horiz-adv-x="1028" 
d="M612 0v1096h336v-1096h-336zM131 0v846h-119v250h119v94q0 154 66 242t241 88q84 0 127 -7v-260q-14 2 -41 2q-59 0 -59 -92v-67h96v-250h-96v-846h-334zM610 1192v297h338v-297h-338z" />
    <glyph glyph-name="ffi" unicode="ffi" horiz-adv-x="1511" 
d="M1096 0v1096h336v-1096h-336zM131 0v846h-119v250h119v94q0 145 53 229q64 101 265 101q84 0 126 -7v-262q-29 4 -40 4q-70 0 -70 -92v-67h149v94q0 154 66 242t242 88q84 0 127 -7v-260q-14 2 -41 2q-59 0 -60 -92v-67h96v-250h-96v-846h-334v846h-149v-846h-334z
M1094 1192v297h338v-297h-338z" />
    <glyph glyph-name="ffl" unicode="ffl" horiz-adv-x="1511" 
d="M1096 0v1516h336v-1516h-336zM131 0v846h-119v250h119v94q0 145 53 229q64 101 265 101q84 0 126 -7v-262q-29 4 -40 4q-70 0 -70 -92v-67h149v94q0 154 66 242t242 88q84 0 127 -7v-260q-14 2 -41 2q-59 0 -60 -92v-67h96v-250h-96v-846h-334v846h-149v-846h-334z" />
    <glyph glyph-name="fj" unicode="fj" horiz-adv-x="1028" 
d="M608 -412q-117 0 -135 6v254q12 -4 55 -4q84 0 84 95v1157h336v-1164q0 -176 -74 -260t-266 -84zM131 0v846h-119v250h119v94q0 154 66 242t241 88q84 0 127 -7v-260q-14 2 -41 2q-59 0 -59 -92v-67h96v-250h-96v-846h-334zM610 1192v297h338v-297h-338z" />
    <glyph glyph-name=".notdef" horiz-adv-x="1597" 
d="M647 606h-147l10 -137l137 -10v147zM950 606v-147l137 10l11 137h-148zM647 909v148l-137 -10l-10 -138h147zM950 909h148l-11 138l-137 10v-148zM303 1253v60l344 -27l-20 230h344l-21 -230l344 27v-60h60l-27 -344l229 21v-344l-229 20l27 -344h-60v-59l-344 28
l21 -231h-344l20 231l-344 -28v59h-59l28 344l-231 -20v344l231 -21l-28 344h59z" />
    <glyph glyph-name=".null" horiz-adv-x="0" 
 />
    <glyph glyph-name="nonmarkingreturn" horiz-adv-x="681" 
 />
    <glyph glyph-name="space" unicode=" " horiz-adv-x="382" 
 />
    <glyph glyph-name="exclam" unicode="!" horiz-adv-x="579" 
d="M109 0v322h368v-322h-368zM143 432l-47 1084h393l-47 -1084h-299z" />
    <glyph glyph-name="quotedbl" unicode="&#x22;" horiz-adv-x="768" 
d="M61 1516h289v-105l-24 -442h-240l-25 442v105zM420 1516h287v-105l-25 -442h-240l-22 442v105z" />
    <glyph glyph-name="numbersign" unicode="#" horiz-adv-x="1148" 
d="M494 651h116l33 213h-119zM12 397v267h185l28 188h-151v266h192l58 398h301l-58 -398h109l57 398h301l-55 -398h158v-266h-199l-29 -188h164v-267h-205l-55 -397h-303l55 397h-106l-56 -397h-303l56 397h-144z" />
    <glyph glyph-name="dollar" unicode="$" horiz-adv-x="980" 
d="M486 1229q-95 0 -95 -101t194 -226q81 -52 161 -112t138 -156q56 -96 56 -214q0 -346 -303 -408v-202h-281v204q-152 37 -226 156t-101 305l299 51q24 -127 60 -187t108 -60q113 0 112 110q0 49 -41 96t-101 83q-151 91 -264 196q-143 130 -143 370q0 134 77 239t220 136
v168h281v-178q125 -37 191 -139t104 -279l-307 -71q-25 117 -57 168t-82 51z" />
    <glyph glyph-name="percent" unicode="%" horiz-adv-x="1722" 
d="M1348 653q-36 0 -48 -45t-12 -180t12 -183t49 -48q36 0 48 50t12 185t-12 178t-49 43zM372 856q36 0 48 50t12 181t-12 179t-49 47q-37 0 -48 -45t-11 -179q0 -133 12 -183t48 -50zM1690 434q0 -206 -83 -328t-258 -122t-257 120t-82 326q0 207 84 327t256 120t256 -119
t84 -324zM403 0l631 1516h283l-631 -1516h-283zM373 645q-176 0 -258 118q-82 119 -82 325t84 326t257 120t256 -118t83 -324t-82 -326q-82 -121 -258 -121z" />
    <glyph glyph-name="ampersand" unicode="&#x26;" horiz-adv-x="1148" 
d="M340 412q0 -74 39 -121t103 -47t116 32q-76 82 -136 168t-75 115q-47 -73 -47 -147zM557 1280q-78 0 -78 -120q0 -66 37 -181q102 96 102 221q0 80 -61 80zM815 807h281q-27 -274 -103 -455q63 -35 154 -53v-303q-180 8 -336 104q-143 -112 -355 -112t-332 102t-120 270
t67 269q67 102 185 188q-80 195 -80 338q0 185 110 283t278 98t252 -89q85 -89 85 -233t-84 -245q-86 -105 -203 -193q48 -99 162 -235q39 127 39 266z" />
    <glyph glyph-name="quotesingle" unicode="'" horiz-adv-x="417" 
d="M61 1516h295v-105l-24 -442h-246l-25 442v105z" />
    <glyph glyph-name="parenleft" unicode="(" horiz-adv-x="665" 
d="M35 558q0 550 360 994l246 -127q-258 -465 -258 -858q0 -225 73 -462t187 -400l-246 -127q-362 430 -362 980z" />
    <glyph glyph-name="parenright" unicode=")" horiz-adv-x="665" 
d="M283 563q0 225 -73 462t-187 400l245 127q362 -430 362 -980t-360 -994l-245 127q258 465 258 858z" />
    <glyph glyph-name="asterisk" unicode="*" horiz-adv-x="1062" 
d="M428 594l-252 145l211 240l-321 -59v288l331 -65l-225 252l256 143l102 -309l111 309l258 -143l-221 -250l319 63v-288l-315 59l215 -240l-252 -145l-115 299z" />
    <glyph glyph-name="plus" unicode="+" horiz-adv-x="993" 
d="M344 162v381h-278v288h278v381h305v-381h279v-288h-279v-381h-305z" />
    <glyph glyph-name="comma" unicode="," horiz-adv-x="495" 
d="M59 0v354h377v-327l-149 -287h-160l82 260h-150z" />
    <glyph glyph-name="hyphen" unicode="-" horiz-adv-x="612" 
d="M55 483v287h502v-287h-502z" />
    <glyph glyph-name="period" unicode="." horiz-adv-x="495" 
d="M59 0v354h377v-354h-377z" />
    <glyph glyph-name="slash" unicode="/" horiz-adv-x="946" 
d="M-8 0l614 1516h348l-614 -1516h-348z" />
    <glyph glyph-name="zero" unicode="0" horiz-adv-x="1038" 
d="M387 758q-1 -288 27 -392t103 -104t101 102t27 392q0 291 -27 390q-26 99 -102 99t-102 -99t-27 -388zM516 -16q-242 0 -360 178t-117 596q0 418 118 597q117 179 359 179t360 -179t118 -597t-118 -596t-360 -178z" />
    <glyph glyph-name="one" unicode="1" horiz-adv-x="751" 
d="M25 0v289h194v899q-92 -70 -192 -70v299q131 6 198 99h328v-1227h174v-289h-702z" />
    <glyph glyph-name="two" unicode="2" horiz-adv-x="942" 
d="M25 0v33q0 308 106 486q86 144 216 254q56 48 104 96q106 108 106 257q0 119 -84 119q-47 0 -79 -47t-50 -184l-315 39q61 481 469 481q195 0 295 -104t100 -289q0 -135 -50 -250t-122 -193q-71 -78 -143 -144q-172 -157 -172 -265h483v-289h-864z" />
    <glyph glyph-name="three" unicode="3" horiz-adv-x="964" 
d="M467 -18q-225 0 -321 109q-95 110 -126 325l299 45q17 -105 47 -153t92 -48t92 43t30 165t-50 160t-190 38h-70v266h88q131 0 167 38t36 158t-100 121q-55 0 -83 -44t-46 -126l-291 64q88 395 446 395q203 0 303 -97t101 -280q0 -276 -221 -346q127 -43 188 -134
q62 -91 62 -281t-114 -304t-339 -114z" />
    <glyph glyph-name="four" unicode="4" horiz-adv-x="1026" 
d="M535 569v447h-3l-210 -447h213zM522 0v301h-504v248l469 967h363v-947h151v-268h-151v-301h-328z" />
    <glyph glyph-name="five" unicode="5" horiz-adv-x="968" 
d="M928 510q0 -530 -463 -530q-231 0 -327 123q-48 61 -72 133t-39 178l299 45q16 -111 46 -156t94 -45t92 52t28 190t-26 189q-26 52 -89 52q-86 0 -133 -114l-268 39l41 850h755l-18 -287h-451l-16 -316q85 109 243 109t231 -123t73 -389z" />
    <glyph glyph-name="six" unicode="6" horiz-adv-x="978" 
d="M508 256q119 0 119 236q0 104 -25 152q-26 48 -90 48t-143 -47q0 -298 62 -360q28 -29 77 -29zM488 -16q-230 0 -340 179t-110 585t118 598q117 193 360 192q176 0 268 -96t131 -277l-292 -67q-39 152 -113 151q-78 0 -110 -80t-31 -297q106 100 252 101q322 0 321 -459
q0 -250 -112 -390t-342 -140z" />
    <glyph glyph-name="seven" unicode="7" horiz-adv-x="819" 
d="M-2 1217v299h815v-281l-385 -1235h-346l395 1217h-479z" />
    <glyph glyph-name="eight" unicode="8" horiz-adv-x="991" 
d="M493 240q62 0 93 40t30 103q0 115 -133 219q-117 -102 -116 -219q0 -61 32 -102t94 -41zM598 1145q0 121 -97 121t-97 -110t100 -206q94 98 94 195zM490 -27q-230 0 -349 111t-118 289q0 223 235 407q-94 78 -141 158t-47 234t112 263q113 107 316 107q204 0 314 -106
t110 -275q0 -223 -191 -375q105 -75 154 -139q49 -63 66 -128t18 -146q0 -180 -125 -290q-124 -110 -354 -110z" />
    <glyph glyph-name="nine" unicode="9" horiz-adv-x="978" 
d="M352 1018q0 -102 25 -146t89 -45q64 0 144 47q-2 219 -33 298q-32 79 -106 79q-119 0 -119 -233zM463 -20q-176 0 -268 96t-132 276l293 68q41 -162 113 -162q80 0 111 79t30 310q-106 -100 -252 -100q-322 0 -321 448q0 251 113 395t342 144q228 0 338 -178t110 -584
t-116 -599t-361 -193z" />
    <glyph glyph-name="colon" unicode=":" horiz-adv-x="507" 
d="M70 0v354h368v-354h-368zM70 741v355h368v-355h-368z" />
    <glyph glyph-name="semicolon" unicode=";" horiz-adv-x="507" 
d="M70 0v354h368v-327l-147 -287h-156l80 260h-145zM70 741v355h368v-355h-368z" />
    <glyph glyph-name="less" unicode="&#x3c;" horiz-adv-x="993" 
d="M862 133l-758 412v237l758 412v-297l-452 -233l452 -234v-297z" />
    <glyph glyph-name="equal" unicode="=" horiz-adv-x="993" 
d="M59 330v264h873v-264h-873zM59 741v265h873v-265h-873z" />
    <glyph glyph-name="greater" unicode="&#x3e;" horiz-adv-x="993" 
d="M131 133v297l453 234l-453 233v297l758 -412v-237z" />
    <glyph glyph-name="question" unicode="?" horiz-adv-x="882" 
d="M217 0v322h369v-322h-369zM530 1137q0 109 -79 108q-92 0 -127 -190l-301 49q72 430 448 430q181 0 283 -95t102 -277t-211 -414q-61 -68 -77 -128t-15 -190h-295q-8 146 22 234t93 174q12 16 40 53t39 52q78 106 78 194z" />
    <glyph glyph-name="at" unicode="@" horiz-adv-x="1333" 
d="M623 549q20 0 49 12l39 408q-18 18 -53 18q-73 0 -85 -219q-13 -219 50 -219zM666 -29q-303 0 -463 202t-160 581q0 378 169 584t452 206q282 0 454 -206t172 -560q0 -457 -334 -456q-178 0 -254 139q-72 -139 -186 -139t-163 106q-50 106 -42 291q23 492 271 491
q106 0 147 -108l8 90h246l-51 -584q-8 -84 9 -114t71 -31q54 1 92 69q37 68 37 248q0 317 -130 475t-349 158q-220 0 -346 -157q-126 -156 -126 -494t128 -497t350 -159q90 0 187 20t153 60l61 -116q-61 -43 -182 -71t-221 -28z" />
    <glyph glyph-name="A" unicode="A" horiz-adv-x="999" 
d="M571 522l-8 49q-63 375 -80 523h-8q-14 -150 -78 -514l-10 -58h184zM346 285l-47 -285h-303l328 1522h352l328 -1522h-345l-47 285h-266z" />
    <glyph glyph-name="B" unicode="B" horiz-adv-x="1032" 
d="M422 264h86q133 0 133 197q0 109 -35 153t-102 43h-82v-393zM422 895h80q59 0 87 36q27 36 27 133t-27 131q-28 34 -87 34h-80v-334zM80 0v1516h432q444 0 444 -379q0 -289 -211 -351v-4q115 -29 178 -110q62 -82 62 -258q0 -218 -129 -316t-326 -98h-450z" />
    <glyph glyph-name="C" unicode="C" horiz-adv-x="1026" 
d="M530 -16q-244 0 -370 183t-125 591q0 776 495 776q232 0 338 -139t121 -447l-332 -28q-10 180 -36 241q-27 61 -91 62q-82 1 -110 -103t-29 -364q0 -260 31 -368t110 -107q68 0 96 63t42 252l331 -31q-47 -426 -264 -536q-88 -45 -207 -45z" />
    <glyph glyph-name="D" unicode="D" horiz-adv-x="1079" 
d="M432 293h51q127 0 167 94q40 95 40 373t-40 367t-169 90h-49v-924zM80 0v1516h360q146 0 246 -29t187 -107q174 -156 174 -618q0 -532 -245 -680q-81 -50 -165 -66t-197 -16h-360z" />
    <glyph glyph-name="E" unicode="E" horiz-adv-x="872" 
d="M80 0v1516h749v-299h-397v-285h283v-279h-283v-364h412v-289h-764z" />
    <glyph glyph-name="F" unicode="F" horiz-adv-x="837" 
d="M80 0v1516h745v-299h-393v-318h287v-276h-287v-623h-352z" />
    <glyph glyph-name="G" unicode="G" horiz-adv-x="1064" 
d="M483 -14q-242 0 -345 187t-103 587q0 774 493 774q206 0 310 -136t141 -454l-315 -37q-14 187 -43 251t-99 64t-102 -96t-33 -362q0 -266 41 -376t117 -109q139 0 155 221h-147v266h446v-766h-223l-4 186h-4q-29 -90 -105 -145t-180 -55z" />
    <glyph glyph-name="H" unicode="H" horiz-adv-x="1103" 
d="M80 0v1516h352v-578h240v578h352v-1516h-352v653h-240v-653h-352z" />
    <glyph glyph-name="I" unicode="I" horiz-adv-x="532" 
d="M90 0v1516h352v-1516h-352z" />
    <glyph glyph-name="J" unicode="J" horiz-adv-x="802" 
d="M342 -16q-196 0 -342 77l115 263q193 -92 245 -12q24 36 23 120v1084h352v-1125q0 -213 -99 -310q-98 -97 -294 -97z" />
    <glyph glyph-name="K" unicode="K" horiz-adv-x="1028" 
d="M80 0v1516h344v-637q43 150 123 342l125 295h340l-289 -603l319 -913h-356l-201 600l-61 -145v-455h-344z" />
    <glyph glyph-name="L" unicode="L" horiz-adv-x="851" 
d="M80 0v1516h352v-1227h402v-289h-754z" />
    <glyph glyph-name="M" unicode="M" horiz-adv-x="1316" 
d="M80 0v1516h420l153 -973h9l153 973h420v-1516h-311v977h-9q-12 -121 -49 -350l-104 -627h-248l-106 643q-37 213 -48 334h-8v-977h-272z" />
    <glyph glyph-name="N" unicode="N" 
d="M80 0v1516h362l193 -525q76 -221 96 -301h8v826h273v-1516h-299l-250 623q-70 184 -103 301h-8v-924h-272z" />
    <glyph glyph-name="O" unicode="O" 
d="M547 285q86 1 120 111q33 110 33 361t-34 359t-120 107q-87 0 -121 -108q-34 -109 -34 -359t35 -360t121 -111zM1057 758q0 -402 -136 -588t-375 -186t-375 186t-136 588t136 588q136 188 375 188t375 -187t136 -589z" />
    <glyph glyph-name="P" unicode="P" horiz-adv-x="995" 
d="M426 748h61q74 0 106 52t32 186t-32 182t-108 49h-59v-469zM80 0v1516h395q494 0 494 -521q0 -133 -31 -232t-79 -155t-117 -90q-69 -35 -132 -45t-139 -10h-45v-463h-346z" />
    <glyph glyph-name="Q" unicode="Q" 
d="M547 283q86 -1 120 111q33 112 33 363t-34 359t-120 107q-87 0 -121 -108q-34 -109 -34 -359t35 -362t121 -111zM791 -416q-244 0 -333 133q-75 112 -75 299q-348 109 -348 742q0 400 136 588t375 188t375 -187t136 -589q0 -651 -369 -746q12 -82 53 -108t146 -27h59
v-293h-155z" />
    <glyph glyph-name="R" unicode="R" horiz-adv-x="1026" 
d="M422 770h70q68 0 100 50t33 180q0 130 -32 174q-32 43 -104 43h-67v-447zM422 492v-492h-342v1516h418q219 0 344 -122q124 -122 124 -396t-178 -400l207 -598h-346l-170 492h-57z" />
    <glyph glyph-name="S" unicode="S" horiz-adv-x="997" 
d="M501 1237q-95 0 -94 -94t193 -235q80 -58 159 -126t135 -169t56 -220q0 -185 -122 -299t-322 -114q-239 0 -337 139t-130 354l301 51q24 -129 60 -191q36 -63 98 -63q112 -1 110 115q-1 97 -192 236q-80 57 -159 123t-135 166q-56 99 -56 216q0 190 118 301
q119 111 318 111t297 -115t147 -340l-307 -73q-25 119 -57 173q-33 54 -81 54z" />
    <glyph glyph-name="T" unicode="T" horiz-adv-x="888" 
d="M268 0v1217h-256v299h865v-299h-256v-1217h-353z" />
    <glyph glyph-name="U" unicode="U" horiz-adv-x="1038" 
d="M522 -16q-240 0 -348 120t-106 371v1041h350v-1024q0 -125 26 -170q26 -46 85 -46q60 0 87 46t27 165v1029h328v-1037q-1 -259 -105 -377t-344 -118z" />
    <glyph glyph-name="V" unicode="V" horiz-adv-x="999" 
d="M324 -6l-328 1522h348l98 -572q47 -279 74 -502h8q23 211 72 494l100 580h308l-328 -1522h-352z" />
    <glyph glyph-name="W" unicode="W" horiz-adv-x="1413" 
d="M264 -4l-264 1520h340l57 -443q41 -315 56 -493h8q27 229 63 493l62 443h280l62 -439q51 -356 65 -497h8q14 197 54 487l59 449h299l-264 -1520h-301l-137 895h-9l-137 -895h-301z" />
    <glyph glyph-name="X" unicode="X" horiz-adv-x="1021" 
d="M4 0l330 786l-295 730h358l135 -373l127 373h318l-295 -701l330 -815h-359l-170 438l-161 -438h-318z" />
    <glyph glyph-name="Y" unicode="Y" horiz-adv-x="983" 
d="M313 0v526l-331 990h356l164 -605h8l164 605h327l-335 -990v-526h-353z" />
    <glyph glyph-name="Z" unicode="Z" horiz-adv-x="923" 
d="M16 0v264l490 953h-451v299h836v-275l-488 -952h488v-289h-875z" />
    <glyph glyph-name="bracketleft" unicode="[" horiz-adv-x="669" 
d="M72 -410v1926h583v-252h-235v-1430h235v-244h-583z" />
    <glyph glyph-name="backslash" unicode="\" horiz-adv-x="946" 
d="M606 0l-614 1516h348l614 -1516h-348z" />
    <glyph glyph-name="bracketright" unicode="]" horiz-adv-x="669" 
d="M14 -410v244h236v1430h-236v252h586v-1926h-586z" />
    <glyph glyph-name="asciicircum" unicode="^" horiz-adv-x="872" 
d="M139 1196l185 332h227l182 -332h-194l-105 111l-102 -111h-193z" />
    <glyph glyph-name="underscore" unicode="_" horiz-adv-x="784" 
d="M-41 -319v245h866v-245h-866z" />
    <glyph glyph-name="grave" unicode="`" horiz-adv-x="825" 
d="M299 1198l-207 330h314l135 -330h-242z" />
    <glyph glyph-name="a" unicode="a" horiz-adv-x="884" 
d="M406 258q41 0 96 37v209q-160 -53 -160 -162q1 -84 64 -84zM256 -10q-104 0 -170 70t-66 234t138 278t344 155v29q0 47 -14 64q-14 18 -59 18q-46 0 -111 -32t-107 -69l-156 213q180 162 441 162q176 0 252 -82t75 -258v-506q0 -190 23 -266h-328q-16 55 -16 145
q-88 -155 -246 -155z" />
    <glyph glyph-name="b" unicode="b" horiz-adv-x="940" 
d="M494 258q42 0 61 60q18 60 18 226t-17 222q-18 55 -62 55t-93 -43v-481q51 -39 93 -39zM627 -12q-145 0 -226 135v-123h-335v1513h335v-546q86 145 228 145q285 0 285 -562t-287 -562z" />
    <glyph glyph-name="c" unicode="c" horiz-adv-x="864" 
d="M449 229q83 0 98 209l299 -41q-50 -413 -400 -413q-190 0 -306 140t-116 424t119 424t307 140t277 -104q90 -104 117 -299l-309 -45q-9 104 -27 148t-63 44t-65 -62t-22 -246q0 -184 18 -252q18 -67 73 -67z" />
    <glyph glyph-name="d" unicode="d" horiz-adv-x="940" 
d="M448 823q-46 0 -64 -55t-17 -221q1 -165 19 -225t60 -60t93 39v481q-45 41 -91 41zM313 -12q-287 0 -287 562t287 562q137 0 226 -129v533h335v-1250q0 -193 25 -266h-344q-16 66 -16 119q-87 -131 -226 -131z" />
    <glyph glyph-name="e" unicode="e" horiz-adv-x="866" 
d="M346 637h189q0 127 -23 174t-70 47q-96 0 -96 -221zM455 -16q-199 0 -315 139t-116 425t116 425t302 139q399 0 400 -575v-113h-498q4 -193 115 -193q90 0 135 140l252 -92q-104 -295 -391 -295z" />
    <glyph glyph-name="f" unicode="f" horiz-adv-x="622" 
d="M131 0v846h-119v250h119v94q0 76 11 127t44 101q67 102 283 102q104 0 147 -7v-262q-28 4 -68 4t-62 -18t-21 -74v-67h147v-250h-147v-846h-334z" />
    <glyph glyph-name="g" unicode="g" horiz-adv-x="919" 
d="M588 -110q0 48 -30 68t-114 28l-125 8q-29 -54 -29 -110t37 -80t109 -24t112 31t40 79zM431 532q79 0 79 177q0 94 -17 132t-61 38t-62 -39q-17 -39 -18 -131q0 -177 79 -177zM909 825q-55 0 -100 -2q12 -51 12 -108q-1 -195 -109 -296t-282 -102q-57 0 -106 13
q-12 -14 -12 -34t12 -30q14 -10 57 -12l121 -8q217 -14 303 -87t86 -225t-140 -248q-140 -95 -370 -96q-397 0 -397 228q0 143 151 215q-92 53 -92 149q0 54 37 112t98 101q-143 109 -143 309t110 304q111 104 285 104t275 -98q39 45 98 77t106 37v-303z" />
    <glyph glyph-name="h" unicode="h" horiz-adv-x="944" 
d="M66 0v1516h335v-553q39 57 114 103t168 46t147 -54t55 -194v-864h-336v743q0 72 -45 72t-103 -43v-772h-335z" />
    <glyph glyph-name="i" unicode="i" horiz-adv-x="487" 
d="M76 0v1096h336v-1096h-336zM76 1192v297h336v-297h-336z" />
    <glyph glyph-name="j" unicode="j" horiz-adv-x="487" 
d="M72 -412q-117 0 -135 6v254q12 -4 55 -4q84 0 84 95v1157h336v-1164q0 -176 -74 -260t-266 -84zM76 1192v297h336v-297h-336z" />
    <glyph glyph-name="k" unicode="k" horiz-adv-x="882" 
d="M66 0v1516h323v-840q18 80 66 192l90 228h315l-209 -406l230 -690h-334l-113 383l-45 -92v-291h-323z" />
    <glyph glyph-name="l" unicode="l" horiz-adv-x="487" 
d="M76 0v1516h336v-1516h-336z" />
    <glyph glyph-name="m" unicode="m" horiz-adv-x="1411" 
d="M66 0v1096h335v-133q39 55 114 102t157 47t131 -35t65 -116q43 59 118 105q76 46 168 46q197 0 198 -256v-856h-336v743q0 72 -47 72q-25 0 -92 -43v-772h-336v743q0 72 -45 72q-37 0 -95 -43v-772h-335z" />
    <glyph glyph-name="n" unicode="n" horiz-adv-x="944" 
d="M66 0v1096h335v-133q39 57 114 103t168 46t147 -54t55 -194v-864h-336v743q0 72 -45 72t-103 -43v-772h-335z" />
    <glyph glyph-name="o" unicode="o" horiz-adv-x="909" 
d="M454 231q54 0 74 66t20 249q0 182 -18 246q-20 64 -75 64t-75 -60t-22 -242q0 -182 21 -252q21 -71 75 -71zM454 -14q-192 0 -311 141t-119 426t118 422t312 137t312 -138t119 -422q0 -284 -120 -425q-119 -141 -311 -141z" />
    <glyph glyph-name="p" unicode="p" horiz-adv-x="940" 
d="M494 258q42 0 61 60q18 60 18 226t-17 222q-18 55 -62 55t-93 -43v-481q51 -39 93 -39zM66 -410v1506h335v-129q86 145 228 145q285 0 285 -562t-287 -562q-145 0 -226 135v-533h-335z" />
    <glyph glyph-name="q" unicode="q" horiz-adv-x="940" 
d="M448 823q-46 0 -64 -55t-17 -221q1 -165 19 -225t60 -60t93 39v481q-45 41 -91 41zM539 -410v529q-86 -131 -226 -131q-287 0 -287 562t287 562q137 0 226 -129v113h335v-1506h-335z" />
    <glyph glyph-name="r" unicode="r" horiz-adv-x="671" 
d="M66 0v1096h335v-172h2q78 188 234 188l27 -2v-315q-37 6 -54 6q-135 0 -209 -56v-745h-335z" />
    <glyph glyph-name="s" unicode="s" horiz-adv-x="839" 
d="M426 -18q-295 0 -424 278l240 113q68 -150 178 -150q80 0 80 64q0 37 -47 67t-115 61t-136 71t-114 118q-47 78 -47 182q0 164 117 248t256 84t235 -60t158 -196l-244 -117q-53 121 -145 121q-61 0 -62 -59q0 -39 47 -71t115 -62t136 -71q68 -40 114 -117q47 -77 47 -181
q1 -151 -105 -237t-284 -86z" />
    <glyph glyph-name="t" unicode="t" horiz-adv-x="665" 
d="M430 -8q-160 0 -232 58t-73 198v598h-117v250h117v370h334v-370h184v-250h-184v-492q0 -76 19 -98q18 -22 74 -20q56 0 81 8v-238q-43 -14 -203 -14z" />
    <glyph glyph-name="u" unicode="u" horiz-adv-x="944" 
d="M260 -14q-92 0 -146 54t-55 193v863h334v-748q0 -72 49 -72q39 0 101 43v777h336v-1096h-336v135q-41 -57 -116 -103t-167 -46z" />
    <glyph glyph-name="v" unicode="v" horiz-adv-x="823" 
d="M231 -4l-243 1100h329l62 -379q35 -215 49 -365h8q18 168 49 365l62 379h289l-244 -1100h-361z" />
    <glyph glyph-name="w" unicode="w" horiz-adv-x="1179" 
d="M188 -4l-200 1100h313l47 -353q12 -84 29 -270h8q12 111 39 275l59 348h267l59 -359q8 -51 37 -262h8q16 137 31 262l47 359h260l-201 -1100h-293l-104 600h-8l-105 -600h-293z" />
    <glyph glyph-name="x" unicode="x" horiz-adv-x="843" 
d="M-4 0l264 563l-246 533h338l99 -258l81 258h297l-245 -521l264 -575h-338l-111 287l-106 -287h-297z" />
    <glyph glyph-name="y" unicode="y" horiz-adv-x="851" 
d="M212 -414q-150 0 -245 29l56 270q69 -14 117 -14t71 15t33 57l14 53l-272 1100h348l65 -459q12 -88 31 -289h8q20 199 35 287l74 461h319l-307 -1188q-43 -170 -121 -246q-76 -76 -226 -76z" />
    <glyph glyph-name="z" unicode="z" horiz-adv-x="788" 
d="M23 0v201l348 645h-316v250h695v-211l-351 -645h373v-240h-749z" />
    <glyph glyph-name="braceleft" unicode="{" horiz-adv-x="714" 
d="M477 -410q-147 0 -222 75t-75 212v359q0 126 -28 158t-129 32v254q106 0 132 32t25 158v359q0 287 322 287h203v-252h-62q-63 0 -88 -32t-25 -108v-270q0 -143 -36 -207q-37 -63 -125 -92v-4q88 -29 125 -92t36 -207v-293q0 -69 26 -97t87 -28h62v-244h-228z" />
    <glyph glyph-name="bar" unicode="|" horiz-adv-x="632" 
d="M143 -410v1926h346v-1926h-346z" />
    <glyph glyph-name="braceright" unicode="}" horiz-adv-x="714" 
d="M8 -410v244h62q61 0 87 29t25 96v293q0 142 37 206t125 93v4q-88 29 -125 92t-37 207v270q0 76 -24 108q-25 32 -88 32h-62v252h203q322 0 321 -287v-359q0 -126 26 -158t132 -32v-254q-102 0 -130 -32t-28 -158v-359q0 -137 -74 -212t-222 -75h-228z" />
    <glyph glyph-name="asciitilde" unicode="~" horiz-adv-x="845" 
d="M553 727q-55 0 -102 29q-47 30 -83 58t-61 28q-61 0 -61 -111h-160q0 367 211 367q55 0 102 -29t83 -57t61 -29q61 0 61 111h160q0 -367 -211 -367z" />
    <glyph glyph-name="nbspace" unicode="&#xa0;" horiz-adv-x="190" 
 />
    <glyph glyph-name="exclamdown" unicode="&#xa1;" horiz-adv-x="579" 
d="M90 0l45 1083h301l45 -1083h-391zM102 1194v322h369v-322h-369z" />
    <glyph glyph-name="cent" unicode="&#xa2;" horiz-adv-x="864" 
d="M313 1305h260v-201q123 -31 187 -129t84 -260l-309 -45q-9 102 -27 147t-63 45t-65 -66t-22 -249q0 -184 20 -254t71 -70q43 0 65 43t33 166l299 -41q-37 -330 -273 -397v-258h-260v262q-133 45 -211 182q-78 136 -78 366t78 368t211 182v209z" />
    <glyph glyph-name="sterling" unicode="&#xa3;" horiz-adv-x="1155" 
d="M285 315q-58 1 -59 -69t63 -70q71 0 102 82q-57 57 -106 57zM117 645v225h149q-70 158 -69 273q0 181 106 287q107 106 295 106t284 -101t109 -325l-311 -31q-6 97 -24 139t-62 42q-72 0 -72 -106t78 -284h272v-225h-188q25 -98 25 -194t-31 -183q37 -18 79 -18t56 45
t14 194h310q0 -264 -80 -386t-271 -121q-113 0 -227 100q-113 -100 -255 -100t-227 64t-85 192t76 194t198 66q76 0 152 -41q-2 77 -49 188h-252z" />
    <glyph glyph-name="currency" unicode="&#xa4;" 
d="M27 489v226h112v73h-112v226h127q35 314 172 426q66 53 132 73t154 21q218 0 320 -122t115 -396l-302 -21q-12 156 -35 203q-24 47 -90 47t-97 -44q-32 -44 -42 -187h226v-226h-234v-73h234v-226h-226q16 -161 53 -198q19 -19 35 -25t45 -6q74 0 101 44t37 206l307 -18
q-8 -178 -49 -269q-40 -90 -86 -136q-104 -103 -309 -103q-203 0 -315 116t-146 389h-127z" />
    <glyph glyph-name="yen" unicode="&#xa5;" horiz-adv-x="1003" 
d="M326 0v145h-263v226h263v71h-263v226h230l-293 848h356l160 -590h4l156 590h328l-297 -848h233v-226h-264v-71h264v-226h-264v-145h-350z" />
    <glyph glyph-name="brokenbar" unicode="&#xa6;" horiz-adv-x="632" 
d="M143 -410v838h346v-838h-346zM143 678v838h346v-838h-346z" />
    <glyph glyph-name="section" unicode="&#xa7;" horiz-adv-x="1005" 
d="M401 735q-108 -126 107 -284q53 -39 94 -68q37 39 37 93t-48 109t-190 150zM119 1180q0 145 101 256q101 110 296 110t294 -101t122 -312l-297 -52q-25 195 -119 195q-78 0 -78 -92q0 -72 64 -124t142 -105q77 -52 119 -85q129 -101 169 -207q25 -67 24 -145
q0 -201 -149 -325q74 -104 74 -252q1 -147 -99 -257t-294 -110t-290 101t-118 313l297 51q25 -195 112 -195q72 0 72 93q0 55 -42 101t-166 130t-179 141q-124 127 -124 307t145 308q-76 111 -76 256z" />
    <glyph glyph-name="dieresis" unicode="&#xa8;" horiz-adv-x="849" 
d="M100 1194v307h273v-307h-273zM477 1194v307h273v-307h-273z" />
    <glyph glyph-name="copyright" unicode="&#xa9;" horiz-adv-x="1204" 
d="M600 317q-122 0 -192 115t-70 333t70 334t204 115q203 0 240 -303l-180 -24q-11 79 -28 99q-17 21 -40 22q-68 0 -68 -240t68 -240q57 0 68 125l184 -24q-23 -150 -79 -231t-177 -81zM605 115q185 0 294 177t109 462t-111 466t-297 181t-295 -177t-109 -462t112 -466
t297 -181zM599 -29q-251 -1 -407 221t-155 562q0 340 159 565q160 225 410 225t406 -221t156 -561t-160 -566q-158 -226 -409 -225z" />
    <glyph glyph-name="ordfeminine" unicode="&#xaa;" horiz-adv-x="716" 
d="M332 934q27 0 59 20v156q-100 -31 -100 -123q0 -53 41 -53zM246 741q-84 1 -134 53t-51 160q0 227 330 308v34q0 60 -33 60q-63 0 -100 -72l-166 74q59 186 289 186q127 0 186 -57t60 -187v-352q0 -133 16 -190h-237q-12 37 -15 65q-61 -82 -145 -82z" />
    <glyph glyph-name="guillemotleft" unicode="&#xab;" horiz-adv-x="999" 
d="M236 0l-216 543l216 540h307l-209 -540l209 -543h-307zM666 0l-215 543l215 540h307l-209 -540l209 -543h-307z" />
    <glyph glyph-name="registered" unicode="&#xae;" horiz-adv-x="1204" 
d="M563 797h35q41 -1 58 23t18 81q0 57 -18 80t-58 23h-35v-207zM360 350v850h248q260 0 260 -291q0 -180 -88 -254l94 -305h-202l-82 273h-27v-273h-203zM604 96q186 0 299 184t113 474q0 291 -115 478t-301 187t-299 -183t-113 -474q0 -290 115 -478t301 -188zM599 -29
q-251 -1 -407 221t-155 562q0 340 159 565q160 225 410 225t406 -221t156 -561t-160 -566q-158 -226 -409 -225z" />
    <glyph glyph-name="macron" unicode="&#xaf;" horiz-adv-x="825" 
d="M102 1221v252h621v-252h-621z" />
    <glyph glyph-name="degree" unicode="&#xb0;" horiz-adv-x="585" 
d="M293 1102q65 0 65 143t-65 144q-66 1 -66 -143t66 -144zM293 944q-115 0 -183 83t-69 216q0 133 69 216q70 83 184 83t182 -82t69 -215q-1 -133 -69 -217t-183 -84z" />
    <glyph glyph-name="twosuperior" unicode="&#xb2;" horiz-adv-x="714" 
d="M68 580v36q0 130 34 224t80 144q47 50 96 91q115 98 115 205q0 45 -29 45t-48 -27t-35 -112l-220 41q66 317 310 317q131 0 199 -68t69 -176q0 -110 -44 -190t-96 -126q-53 -46 -103 -98t-58 -95h303v-211h-573z" />
    <glyph glyph-name="threesuperior" unicode="&#xb3;" horiz-adv-x="708" 
d="M346 561q-139 0 -204 70t-93 215l207 53q29 -135 80 -135q63 0 63 85t-25 113q-26 28 -104 27h-63v178h74q59 0 84 28t25 70q-1 70 -42 70q-55 0 -82 -112l-198 55q59 266 290 266q140 0 202 -61t63 -185q0 -162 -119 -215q137 -55 137 -235q0 -131 -78 -209t-217 -78z
" />
    <glyph glyph-name="acute" unicode="&#xb4;" horiz-adv-x="825" 
d="M246 1198l135 330h313l-207 -330h-241z" />
    <glyph glyph-name="mu" unicode="&#xb5;" horiz-adv-x="950" 
d="M399 -410h-333v1506h333v-762q0 -72 50 -72q39 0 100 43v791h336v-1096h-336v127q-57 -79 -150 -113v-424z" />
    <glyph glyph-name="paragraph" unicode="&#xb6;" horiz-adv-x="1138" 
d="M408 -410v1086q-164 2 -267 110q-102 110 -102 298t100 310t250 122h678v-1926h-289v1641h-84v-1641h-286z" />
    <glyph glyph-name="periodcentered" unicode="&#xb7;" horiz-adv-x="604" 
d="M94 471v354h377v-354h-377z" />
    <glyph glyph-name="cedilla" unicode="&#xb8;" horiz-adv-x="825" 
d="M521 -57q61 0 99 -38t38 -120q0 -83 -66 -141t-204 -58t-259 62l53 121q94 -49 205 -50q70 0 70 50q0 43 -47 43q-33 0 -60 -29l-96 41l55 178h142l-25 -88q33 29 95 29z" />
    <glyph glyph-name="onesuperior" unicode="&#xb9;" horiz-adv-x="632" 
d="M88 569v211h115v482q-49 -23 -113 -23v217q84 2 127 60h236v-736h104v-211h-469z" />
    <glyph glyph-name="ordmasculine" unicode="&#xba;" horiz-adv-x="710" 
d="M355 940q32 0 44 39q13 39 13 161t-12 160t-45 39q-32 -1 -44 -37t-12 -158t12 -163t44 -41zM651 1143q0 -195 -79 -299t-217 -103q-138 -1 -217 103t-79 299t79 298t217 103t217 -103t79 -298z" />
    <glyph glyph-name="guillemotright" unicode="&#xbb;" horiz-adv-x="999" 
d="M27 0l209 543l-209 540h307l215 -540l-215 -543h-307zM457 0l209 543l-209 540h307l215 -540l-215 -543h-307z" />
    <glyph glyph-name="onequarter" unicode="&#xbc;" horiz-adv-x="1660" 
d="M1309 383v207h-11l-96 -207h107zM1300 0v180h-309v174l289 596h258v-567h92v-203h-92v-180h-238zM403 0l631 1516h283l-631 -1516h-283zM88 569v211h115v482q-49 -23 -113 -23v217q84 2 127 60h236v-736h104v-211h-469z" />
    <glyph glyph-name="onehalf" unicode="&#xbd;" horiz-adv-x="1722" 
d="M1087 0v37q0 129 34 223t81 144t95 92t82 90q34 49 34 104t-29 55q-29 -1 -48 -27t-36 -112l-219 41q66 317 310 318q131 0 199 -68q68 -67 69 -177q0 -110 -44 -190t-96 -126q-53 -46 -103 -98t-58 -95h303v-211h-574zM403 0l631 1516h283l-631 -1516h-283zM88 569v211
h115v482q-49 -23 -113 -23v217q84 2 127 60h236v-736h104v-211h-469z" />
    <glyph glyph-name="threequarters" unicode="&#xbe;" horiz-adv-x="1695" 
d="M1343 383v207h-10l-96 -207h106zM1335 0v180h-309v174l289 596h258v-567h92v-203h-92v-180h-238zM438 0l631 1516h283l-631 -1516h-283zM346 561q-139 0 -204 70t-93 215l207 53q29 -135 80 -135q63 0 63 85t-25 113q-26 28 -104 27h-63v178h74q59 0 84 28t25 70
q-1 70 -42 70q-55 0 -82 -112l-198 55q59 266 290 266q140 0 202 -61t63 -185q0 -162 -119 -215q137 -55 137 -235q0 -131 -78 -209t-217 -78z" />
    <glyph glyph-name="questiondown" unicode="&#xbf;" horiz-adv-x="882" 
d="M412 -16q-182 0 -284 95q-101 95 -101 277t211 414q61 68 76 127t16 188h295q8 -143 -22 -231t-93 -174q-12 -16 -62 -83q-96 -126 -96 -225q0 -100 80 -100q92 0 127 191l301 -49q-71 -430 -448 -430zM297 1194v322h369v-322h-369z" />
    <glyph glyph-name="Agrave" unicode="&#xc0;" horiz-adv-x="999" 
d="M571 522l-8 49q-63 375 -80 523h-8q-14 -150 -78 -514l-10 -58h184zM346 285l-47 -285h-303l328 1522h352l328 -1522h-345l-47 285h-266zM408 1608l-207 329h313l135 -329h-241z" />
    <glyph glyph-name="Aacute" unicode="&#xc1;" horiz-adv-x="999" 
d="M571 522l-8 49q-63 375 -80 523h-8q-14 -150 -78 -514l-10 -58h184zM346 285l-47 -285h-303l328 1522h352l328 -1522h-345l-47 285h-266zM375 1608l135 329h313l-207 -329h-241z" />
    <glyph glyph-name="Acircumflex" unicode="&#xc2;" horiz-adv-x="999" 
d="M571 522l-8 49q-63 375 -80 523h-8q-14 -150 -78 -514l-10 -58h184zM346 285l-47 -285h-303l328 1522h352l328 -1522h-345l-47 285h-266zM203 1606l184 331h227l183 -331h-195l-104 116l-103 -116h-192z" />
    <glyph glyph-name="Atilde" unicode="&#xc3;" horiz-adv-x="999" 
d="M571 522l-8 49q-63 375 -80 523h-8q-14 -150 -78 -514l-10 -58h184zM346 285l-47 -285h-303l328 1522h352l328 -1522h-345l-47 285h-266zM631 1571q-81 0 -185 86q-35 29 -61 29q-61 0 -61 -111h-160q0 367 211 367q79 0 184 -87q35 -29 62 -28q61 0 61 110h160
q0 -366 -211 -366z" />
    <glyph glyph-name="Adieresis" unicode="&#xc4;" horiz-adv-x="999" 
d="M571 522l-8 49q-63 375 -80 523h-8q-14 -150 -78 -514l-10 -58h184zM346 285l-47 -285h-303l328 1522h352l328 -1522h-345l-47 285h-266zM176 1604v307h273v-307h-273zM553 1604v307h272v-307h-272z" />
    <glyph glyph-name="Aring" unicode="&#xc5;" horiz-adv-x="999" 
d="M571 522l-8 49q-63 375 -80 523h-8q-14 -150 -78 -514l-10 -58h184zM500 1516q51 0 51 102t-51 102t-51 -102t51 -102zM500 1866q94 0 152 -70t58 -159t-30 -144l324 -1493h-345l-47 285h-266l-47 -285h-303l323 1493q-31 55 -31 144t59 159t153 70z" />
    <glyph glyph-name="AE" unicode="&#xc6;" horiz-adv-x="1484" 
d="M692 580v550h-4l-147 -550h151zM1440 1516v-299h-398v-285h283v-279h-283v-364h412v-289h-762v336h-237l-121 -336h-338l510 1516h934z" />
    <glyph glyph-name="Ccedilla" unicode="&#xc7;" horiz-adv-x="1026" 
d="M35 758q0 786 495 786q232 0 338 -139t121 -447l-332 -28q-10 180 -36 241q-27 61 -91 62q-80 0 -110 -108q-30 -109 -29 -369q0 -260 31 -372t110 -112q68 0 96 64t42 252l331 -31q-18 -168 -59 -286q-41 -119 -137 -203t-242 -93l-16 -61q33 29 95 29t99 -38t37 -120
t-66 -140q-66 -59 -202 -59q-138 0 -260 62l53 121q94 -49 205 -50q70 0 70 50q0 43 -48 43q-33 0 -59 -29l-96 41l49 162q-389 74 -389 772z" />
    <glyph glyph-name="Egrave" unicode="&#xc8;" horiz-adv-x="872" 
d="M80 0v1516h749v-299h-397v-285h283v-279h-283v-364h412v-289h-764zM324 1608l-207 329h313l135 -329h-241z" />
    <glyph glyph-name="Eacute" unicode="&#xc9;" horiz-adv-x="872" 
d="M80 0v1516h749v-299h-397v-285h283v-279h-283v-364h412v-289h-764zM270 1608l136 329h313l-207 -329h-242z" />
    <glyph glyph-name="Ecircumflex" unicode="&#xca;" horiz-adv-x="872" 
d="M80 0v1516h749v-299h-397v-285h283v-279h-283v-364h412v-289h-764zM139 1606l185 331h227l182 -331h-194l-105 116l-102 -116h-193z" />
    <glyph glyph-name="Edieresis" unicode="&#xcb;" horiz-adv-x="872" 
d="M80 0v1516h749v-299h-397v-285h283v-279h-283v-364h412v-289h-764zM113 1604v307h272v-307h-272zM489 1604v307h273v-307h-273z" />
    <glyph glyph-name="Igrave" unicode="&#xcc;" horiz-adv-x="532" 
d="M150 1608l-207 329h313l135 -329h-241zM90 0v1516h352v-1516h-352z" />
    <glyph glyph-name="Iacute" unicode="&#xcd;" horiz-adv-x="532" 
d="M90 0v1516h352v-1516h-352zM137 1608l135 329h314l-207 -329h-242z" />
    <glyph glyph-name="Icircumflex" unicode="&#xce;" horiz-adv-x="532" 
d="M-31 1606l185 331h227l182 -331h-194l-105 116l-102 -116h-193zM90 0v1516h352v-1516h-352z" />
    <glyph glyph-name="Idieresis" unicode="&#xcf;" horiz-adv-x="532" 
d="M-59 1604v307h272v-307h-272zM317 1604v307h273v-307h-273zM90 0v1516h352v-1516h-352z" />
    <glyph glyph-name="Eth" unicode="&#xd0;" horiz-adv-x="1079" 
d="M424 293h59q127 0 170 95q43 94 43 370t-43 367t-172 92h-57v-289h143v-273h-143v-362zM80 0v655h-74v273h74v588h360q146 0 246 -29t187 -107t131 -234t43 -388q-1 -233 -45 -388t-131 -233q-87 -77 -188 -107t-243 -30h-360z" />
    <glyph glyph-name="Ntilde" unicode="&#xd1;" 
d="M80 0v1516h362l193 -525q76 -221 96 -301h8v826h273v-1516h-299l-250 623q-70 184 -103 301h-8v-924h-272zM680 1571q-80 0 -184 86q-35 29 -62 29q-61 0 -61 -111h-160q0 367 211 367q79 0 184 -87q35 -29 62 -28q61 0 61 110h160q0 -366 -211 -366z" />
    <glyph glyph-name="Ograve" unicode="&#xd2;" 
d="M547 285q86 1 120 111q33 110 33 361t-34 359t-120 107q-87 0 -121 -108q-34 -109 -34 -359t35 -360t121 -111zM1057 758q0 -402 -136 -588t-375 -186t-375 186t-136 588t136 588q136 188 375 188t375 -187t136 -589zM432 1608l-207 329h314l135 -329h-242z" />
    <glyph glyph-name="Oacute" unicode="&#xd3;" 
d="M547 285q86 1 120 111q33 110 33 361t-34 359t-120 107q-87 0 -121 -108q-34 -109 -34 -359t35 -360t121 -111zM1057 758q0 -402 -136 -588t-375 -186t-375 186t-136 588t136 588q136 188 375 188t375 -187t136 -589zM379 1608l135 329h313l-206 -329h-242z" />
    <glyph glyph-name="Ocircumflex" unicode="&#xd4;" 
d="M547 285q86 1 120 111q33 110 33 361t-34 359t-120 107q-87 0 -121 -108q-34 -109 -34 -359t35 -360t121 -111zM1057 758q0 -402 -136 -588t-375 -186t-375 186t-136 588t136 588q136 188 375 188t375 -187t136 -589zM248 1606l184 331h227l183 -331h-195l-104 116
l-103 -116h-192z" />
    <glyph glyph-name="Otilde" unicode="&#xd5;" 
d="M547 285q86 1 120 111q33 110 33 361t-34 359t-120 107q-87 0 -121 -108q-34 -109 -34 -359t35 -360t121 -111zM1057 758q0 -402 -136 -588t-375 -186t-375 186t-136 588t136 588q136 188 375 188t375 -187t136 -589zM676 1571q-83 0 -184 86q-35 29 -62 29
q-61 0 -61 -111h-160q0 367 211 367q79 0 184 -87q35 -29 62 -28q61 0 61 110h160q0 -366 -211 -366z" />
    <glyph glyph-name="Odieresis" unicode="&#xd6;" 
d="M547 285q86 1 120 111q33 110 33 361t-34 359t-120 107q-87 0 -121 -108q-34 -109 -34 -359t35 -360t121 -111zM1057 758q0 -402 -136 -588t-375 -186t-375 186t-136 588t136 588q136 188 375 188t375 -187t136 -589zM221 1604v307h273v-307h-273zM598 1604v307h272v-307
h-272z" />
    <glyph glyph-name="multiply" unicode="&#xd7;" horiz-adv-x="993" 
d="M684 686l231 -231l-186 -187l-231 232l-234 -234l-186 187l231 233l-231 232l188 186l232 -232l229 232l186 -189z" />
    <glyph glyph-name="Oslash" unicode="&#xd8;" 
d="M713 758q0 77 -2 112l-277 -512q39 -78 119 -78q160 2 160 478zM547 1227q-88 0 -128 -112t-40 -357q0 -76 2 -109l274 506q-39 72 -108 72zM547 -16q-152 0 -262 71l-101 -188l-186 96l139 260q-102 193 -102 565t136 558q136 188 376 188q150 0 258 -72l102 187
l185 -99l-140 -256q104 -197 104 -567q0 -371 -135 -557q-136 -186 -374 -186z" />
    <glyph glyph-name="Ugrave" unicode="&#xd9;" horiz-adv-x="1038" 
d="M522 -16q-240 0 -348 120t-106 371v1041h350v-1024q0 -125 26 -170q26 -46 85 -46q60 0 87 46t27 165v1029h328v-1037q-1 -259 -105 -377t-344 -118zM414 1608l-207 329h313l135 -329h-241z" />
    <glyph glyph-name="Uacute" unicode="&#xda;" horiz-adv-x="1038" 
d="M522 -16q-240 0 -348 120t-106 371v1041h350v-1024q0 -125 26 -170q26 -46 85 -46q60 0 87 46t27 165v1029h328v-1037q-1 -259 -105 -377t-344 -118zM360 1608l136 329h313l-207 -329h-242z" />
    <glyph glyph-name="Ucircumflex" unicode="&#xdb;" horiz-adv-x="1038" 
d="M522 -16q-240 0 -348 120t-106 371v1041h350v-1024q0 -125 26 -170q26 -46 85 -46q60 0 87 46t27 165v1029h328v-1037q-1 -259 -105 -377t-344 -118zM229 1606l185 331h227l182 -331h-194l-105 116l-102 -116h-193z" />
    <glyph glyph-name="Udieresis" unicode="&#xdc;" horiz-adv-x="1038" 
d="M522 -16q-240 0 -348 120t-106 371v1041h350v-1024q0 -125 26 -170q26 -46 85 -46q60 0 87 46t27 165v1029h328v-1037q-1 -259 -105 -377t-344 -118zM203 1604v307h272v-307h-272zM580 1604v307h272v-307h-272z" />
    <glyph glyph-name="Yacute" unicode="&#xdd;" horiz-adv-x="983" 
d="M313 0v526l-331 990h356l164 -605h8l164 605h327l-335 -990v-526h-353zM326 1608l135 329h313l-207 -329h-241z" />
    <glyph glyph-name="Thorn" unicode="&#xde;" horiz-adv-x="1011" 
d="M432 557h62q78 0 108 46q30 45 29 191q0 146 -31 189t-108 43h-60v-469zM80 0v1516h352v-191h62q272 0 389 -143q102 -125 102 -377q0 -141 -32 -243q-33 -102 -77 -155q-44 -54 -116 -86t-131 -40t-140 -9h-57v-272h-352z" />
    <glyph glyph-name="germandbls" unicode="&#xdf;" horiz-adv-x="1050" 
d="M631 -10q-80 0 -174 22l51 271q41 -8 63 -9q131 0 131 158q0 119 -52 179t-167 83v211q72 13 110 71t38 146q0 121 -101 121q-58 0 -82 -45t-24 -151v-1047h-336v1038q0 477 457 478q201 0 300 -98t99 -259q0 -106 -52 -196t-144 -132q118 -29 196 -137t78 -270
q0 -222 -106 -328t-285 -106z" />
    <glyph glyph-name="agrave" unicode="&#xe0;" horiz-adv-x="884" 
d="M406 258q41 0 96 37v209q-160 -53 -160 -162q1 -84 64 -84zM256 -10q-104 0 -170 70t-66 234t138 278t344 155v29q0 47 -14 64q-14 18 -59 18q-46 0 -111 -32t-107 -69l-156 213q180 162 441 162q176 0 252 -82t75 -258v-506q0 -190 23 -266h-328q-16 55 -16 145
q-88 -155 -246 -155zM330 1198l-207 330h313l135 -330h-241z" />
    <glyph glyph-name="aacute" unicode="&#xe1;" horiz-adv-x="884" 
d="M406 258q41 0 96 37v209q-160 -53 -160 -162q1 -84 64 -84zM256 -10q-104 0 -170 70t-66 234t138 278t344 155v29q0 47 -14 64q-14 18 -59 18q-46 0 -111 -32t-107 -69l-156 213q180 162 441 162q176 0 252 -82t75 -258v-506q0 -190 23 -266h-328q-16 55 -16 145
q-88 -155 -246 -155zM276 1198l136 330h313l-207 -330h-242z" />
    <glyph glyph-name="acircumflex" unicode="&#xe2;" horiz-adv-x="884" 
d="M406 258q41 0 96 37v209q-160 -53 -160 -162q1 -84 64 -84zM256 -10q-104 0 -170 70t-66 234t138 278t344 155v29q0 47 -14 64q-14 18 -59 18q-46 0 -111 -32t-107 -69l-156 213q180 162 441 162q176 0 252 -82t75 -258v-506q0 -190 23 -266h-328q-16 55 -16 145
q-88 -155 -246 -155zM145 1196l185 332h227l182 -332h-194l-105 117l-102 -117h-193z" />
    <glyph glyph-name="atilde" unicode="&#xe3;" horiz-adv-x="884" 
d="M406 258q41 0 96 37v209q-160 -53 -160 -162q1 -84 64 -84zM256 -10q-104 0 -170 70t-66 234t138 278t344 155v29q0 47 -14 64q-14 18 -59 18q-46 0 -111 -32t-107 -69l-156 213q180 162 441 162q176 0 252 -82t75 -258v-506q0 -190 23 -266h-328q-16 55 -16 145
q-88 -155 -246 -155zM573 1161q-55 0 -102 29q-47 30 -82 58t-61 28q-61 0 -62 -111h-160q0 367 211 367q79 0 185 -86q35 -28 61 -29q61 0 62 111h159q0 -367 -211 -367z" />
    <glyph glyph-name="adieresis" unicode="&#xe4;" horiz-adv-x="884" 
d="M406 258q41 0 96 37v209q-160 -53 -160 -162q1 -84 64 -84zM256 -10q-104 0 -170 70t-66 234t138 278t344 155v29q0 47 -14 64q-14 18 -59 18q-46 0 -111 -32t-107 -69l-156 213q180 162 441 162q176 0 252 -82t75 -258v-506q0 -190 23 -266h-328q-16 55 -16 145
q-88 -155 -246 -155zM119 1194v307h272v-307h-272zM496 1194v307h272v-307h-272z" />
    <glyph glyph-name="aring" unicode="&#xe5;" horiz-adv-x="884" 
d="M406 258q41 0 96 37v209q-160 -53 -160 -162q1 -84 64 -84zM256 -10q-104 0 -170 70t-66 234t138 278t344 155v29q0 47 -14 64q-14 18 -59 18q-46 0 -111 -32t-107 -69l-156 213q180 162 441 162q176 0 252 -82t75 -258v-506q0 -190 23 -266h-328q-16 55 -16 145
q-88 -155 -246 -155zM442 1282q51 0 52 102q0 102 -52 103q-51 -1 -51 -103t51 -102zM442 1149q-94 0 -152 70t-59 172q1 102 59 172q58 69 152 69t153 -69q58 -70 58 -172q-1 -102 -59 -172t-152 -70z" />
    <glyph glyph-name="ae" unicode="&#xe6;" horiz-adv-x="1337" 
d="M530 301q-28 114 -28 203q-160 -51 -160 -158q0 -84 64 -84q57 0 124 39zM813 637h188q0 127 -22 174q-23 47 -70 47q-96 0 -96 -221zM256 -6q-104 0 -170 71t-66 233t138 276q138 112 344 153v29q0 47 -14 64q-14 18 -59 18q-46 0 -111 -32t-107 -69l-156 213
q180 162 441 162q150 0 194 -98q68 98 219 98q399 0 400 -575v-113h-498q4 -193 115 -193q90 0 135 140l252 -92q-104 -295 -391 -295q-229 0 -338 184q-123 -174 -328 -174z" />
    <glyph glyph-name="ccedilla" unicode="&#xe7;" horiz-adv-x="864" 
d="M450 1118q186 0 277 -104q90 -104 117 -299l-309 -45q-9 104 -27 148t-63 44t-65 -66t-22 -249q0 -184 20 -254t71 -70q43 0 67 48t31 161l299 -41q-49 -403 -381 -414l-19 -63q34 29 96 29t99 -38t37 -120t-66 -140q-66 -59 -203 -59t-259 62l53 121q94 -49 205 -50
q70 0 69 50q0 43 -47 43q-33 0 -59 -29l-97 41l54 170q-139 41 -222 179q-82 138 -81 374q0 287 119 429q120 142 306 142z" />
    <glyph glyph-name="egrave" unicode="&#xe8;" horiz-adv-x="866" 
d="M346 637h189q0 127 -23 174t-70 47q-96 0 -96 -221zM455 -16q-199 0 -315 139t-116 425t116 425t302 139q399 0 400 -575v-113h-498q4 -193 115 -193q90 0 135 140l252 -92q-104 -295 -391 -295zM319 1198l-206 330h313l135 -330h-242z" />
    <glyph glyph-name="eacute" unicode="&#xe9;" horiz-adv-x="866" 
d="M346 637h189q0 127 -23 174t-70 47q-96 0 -96 -221zM455 -16q-199 0 -315 139t-116 425t116 425t302 139q399 0 400 -575v-113h-498q4 -193 115 -193q90 0 135 140l252 -92q-104 -295 -391 -295zM266 1198l135 330h314l-207 -330h-242z" />
    <glyph glyph-name="ecircumflex" unicode="&#xea;" horiz-adv-x="866" 
d="M346 637h189q0 127 -23 174t-70 47q-96 0 -96 -221zM455 -16q-199 0 -315 139t-116 425t116 425t302 139q399 0 400 -575v-113h-498q4 -193 115 -193q90 0 135 140l252 -92q-104 -295 -391 -295zM135 1196l184 332h228l182 -332h-194l-105 117l-102 -117h-193z" />
    <glyph glyph-name="edieresis" unicode="&#xeb;" horiz-adv-x="866" 
d="M346 637h189q0 127 -23 174t-70 47q-96 0 -96 -221zM455 -16q-199 0 -315 139t-116 425t116 425t302 139q399 0 400 -575v-113h-498q4 -193 115 -193q90 0 135 140l252 -92q-104 -295 -391 -295zM109 1194v307h272v-307h-272zM485 1194v307h273v-307h-273z" />
    <glyph glyph-name="igrave" unicode="&#xec;" horiz-adv-x="487" 
d="M115 1198l-207 330h313l135 -330h-241zM76 0v1096h336v-1096h-336z" />
    <glyph glyph-name="iacute" unicode="&#xed;" horiz-adv-x="487" 
d="M76 0v1096h336v-1096h-336zM123 1198l135 330h313l-206 -330h-242z" />
    <glyph glyph-name="icircumflex" unicode="&#xee;" horiz-adv-x="487" 
d="M-53 1196l184 332h227l183 -332h-195l-104 117l-103 -117h-192zM76 0v1096h336v-1096h-336z" />
    <glyph glyph-name="idieresis" unicode="&#xef;" horiz-adv-x="487" 
d="M-82 1194v307h272v-307h-272zM295 1194v307h272v-307h-272zM76 0v1096h336v-1096h-336z" />
    <glyph glyph-name="eth" unicode="&#xf0;" horiz-adv-x="907" 
d="M454 258q54 0 78 56t25 210q0 154 -26 215q-25 61 -77 61t-77 -58t-25 -219t24 -213t78 -52zM885 623q0 -639 -424 -639q-209 0 -323 140t-114 393t104 398q103 145 278 146q72 0 129 -37t86 -92q-25 120 -103 233l-119 -67l-84 143l95 53q-49 49 -105 92l162 185
q100 -76 168 -148l141 82l84 -141l-125 -72q150 -242 150 -669z" />
    <glyph glyph-name="ntilde" unicode="&#xf1;" horiz-adv-x="944" 
d="M66 0v1096h335v-133q39 57 114 103t168 46t147 -54t55 -194v-864h-336v743q0 72 -45 72t-103 -43v-772h-335zM602 1161q-55 0 -102 29q-47 30 -82 58t-62 28q-61 0 -61 -111h-160q0 367 211 367q80 0 184 -86q35 -29 62 -29q61 0 61 111h160q0 -367 -211 -367z" />
    <glyph glyph-name="ograve" unicode="&#xf2;" horiz-adv-x="909" 
d="M454 231q54 0 74 66t20 249q0 182 -18 246q-20 64 -75 64t-75 -60t-22 -242q0 -182 21 -252q21 -71 75 -71zM454 -14q-192 0 -311 141t-119 426t118 422t312 137t312 -138t119 -422q0 -284 -120 -425q-119 -141 -311 -141zM342 1198l-207 330h314l135 -330h-242z" />
    <glyph glyph-name="oacute" unicode="&#xf3;" horiz-adv-x="909" 
d="M454 231q54 0 74 66t20 249q0 182 -18 246q-20 64 -75 64t-75 -60t-22 -242q0 -182 21 -252q21 -71 75 -71zM454 -14q-192 0 -311 141t-119 426t118 422t312 137t312 -138t119 -422q0 -284 -120 -425q-119 -141 -311 -141zM289 1198l135 330h313l-207 -330h-241z" />
    <glyph glyph-name="ocircumflex" unicode="&#xf4;" horiz-adv-x="909" 
d="M454 231q54 0 74 66t20 249q0 182 -18 246q-20 64 -75 64t-75 -60t-22 -242q0 -182 21 -252q21 -71 75 -71zM454 -14q-192 0 -311 141t-119 426t118 422t312 137t312 -138t119 -422q0 -284 -120 -425q-119 -141 -311 -141zM158 1196l184 332h227l183 -332h-195l-104 117
l-103 -117h-192z" />
    <glyph glyph-name="otilde" unicode="&#xf5;" horiz-adv-x="909" 
d="M454 231q54 0 74 66t20 249q0 182 -18 246q-20 64 -75 64t-75 -60t-22 -242q0 -182 21 -252q21 -71 75 -71zM454 -14q-192 0 -311 141t-119 426t118 422t312 137t312 -138t119 -422q0 -284 -120 -425q-119 -141 -311 -141zM586 1161q-79 1 -185 87q-35 28 -61 28
q-61 0 -61 -111h-160q0 367 211 367q55 0 102 -29t82 -57t61 -29q61 0 62 111h160q0 -367 -211 -367z" />
    <glyph glyph-name="odieresis" unicode="&#xf6;" horiz-adv-x="909" 
d="M454 231q54 0 74 66t20 249q0 182 -18 246q-20 64 -75 64t-75 -60t-22 -242q0 -182 21 -252q21 -71 75 -71zM454 -14q-192 0 -311 141t-119 426t118 422t312 137t312 -138t119 -422q0 -284 -120 -425q-119 -141 -311 -141zM131 1194v307h272v-307h-272zM508 1194v307h272
v-307h-272z" />
    <glyph glyph-name="divide" unicode="&#xf7;" horiz-adv-x="993" 
d="M358 160v289h277v-289h-277zM66 543v288h862v-288h-862zM358 924v288h277v-288h-277z" />
    <glyph glyph-name="oslash" unicode="&#xf8;" horiz-adv-x="909" 
d="M455 244q55 0 82 66t26 237v28l-160 -313q23 -18 52 -18zM344 547v-19l152 301q-18 12 -41 13q-55 0 -83 -64t-28 -231zM885 538q0 -274 -119 -414t-311 -140q-86 0 -158 26l-68 -139l-194 90l94 182q-104 143 -104 417t117 413q118 139 313 139q82 0 151 -25l78 150
l190 -90l-98 -189q109 -146 109 -420z" />
    <glyph glyph-name="ugrave" unicode="&#xf9;" horiz-adv-x="944" 
d="M260 -14q-92 0 -146 54t-55 193v863h334v-748q0 -72 49 -72q39 0 101 43v777h336v-1096h-336v135q-41 -57 -116 -103t-167 -46zM358 1198l-206 330h313l135 -330h-242z" />
    <glyph glyph-name="uacute" unicode="&#xfa;" horiz-adv-x="944" 
d="M260 -14q-92 0 -146 54t-55 193v863h334v-748q0 -72 49 -72q39 0 101 43v777h336v-1096h-336v135q-41 -57 -116 -103t-167 -46zM305 1198l135 330h314l-207 -330h-242z" />
    <glyph glyph-name="ucircumflex" unicode="&#xfb;" horiz-adv-x="944" 
d="M260 -14q-92 0 -146 54t-55 193v863h334v-748q0 -72 49 -72q39 0 101 43v777h336v-1096h-336v135q-41 -57 -116 -103t-167 -46zM174 1196l184 332h228l182 -332h-195l-104 117l-102 -117h-193z" />
    <glyph glyph-name="udieresis" unicode="&#xfc;" horiz-adv-x="944" 
d="M260 -14q-92 0 -146 54t-55 193v863h334v-748q0 -72 49 -72q39 0 101 43v777h336v-1096h-336v135q-41 -57 -116 -103t-167 -46zM147 1194v307h273v-307h-273zM524 1194v307h273v-307h-273z" />
    <glyph glyph-name="yacute" unicode="&#xfd;" horiz-adv-x="851" 
d="M212 -414q-150 0 -245 29l56 270q69 -14 117 -14t71 15t33 57l14 53l-272 1100h348l65 -459q12 -88 31 -289h8q20 199 35 287l74 461h319l-307 -1188q-43 -170 -121 -246q-76 -76 -226 -76zM258 1198l135 330h314l-207 -330h-242z" />
    <glyph glyph-name="thorn" unicode="&#xfe;" horiz-adv-x="940" 
d="M494 258q42 0 61 60q18 60 18 226t-17 222q-18 55 -62 55t-93 -43v-481q51 -39 93 -39zM66 -410v1926h335v-549q86 145 228 145q285 0 285 -562t-287 -562q-145 0 -226 135v-533h-335z" />
    <glyph glyph-name="ydieresis" unicode="&#xff;" horiz-adv-x="851" 
d="M212 -414q-150 0 -245 29l56 270q69 -14 117 -14t71 15t33 57l14 53l-272 1100h348l65 -459q12 -88 31 -289h8q20 199 35 287l74 461h319l-307 -1188q-43 -170 -121 -246q-76 -76 -226 -76zM100 1194v307h273v-307h-273zM477 1194v307h273v-307h-273z" />
    <glyph glyph-name="dotlessi" unicode="&#x131;" horiz-adv-x="487" 
d="M76 0v1096h336v-1096h-336z" />
    <glyph glyph-name="Lslash" unicode="&#x141;" horiz-adv-x="851" 
d="M92 0v623l-86 -29v285l86 28v609h352v-486l127 39v-285l-127 -39v-456h404v-289h-756z" />
    <glyph glyph-name="lslash" unicode="&#x142;" horiz-adv-x="520" 
d="M94 0v596l-65 -21v263l65 20v658h336v-551l66 20v-264l-66 -19v-702h-336z" />
    <glyph glyph-name="OE" unicode="&#x152;" horiz-adv-x="1505" 
d="M547 285q86 1 120 111q33 110 33 361t-34 359t-120 107q-87 0 -121 -108q-34 -109 -34 -359t35 -360t121 -111zM784 1516h678v-299h-397v-285h283v-279h-283v-364h412v-289h-693v90q-90 -106 -237 -106q-240 0 -376 186t-136 588t136 588q136 188 376 188
q147 -1 237 -107v89z" />
    <glyph glyph-name="oe" unicode="&#x153;" horiz-adv-x="1380" 
d="M454 229q54 0 74 65t20 248t-18 249q-20 65 -74 65t-76 -62t-22 -244t21 -251q21 -70 75 -70zM860 637h189q0 127 -23 174t-70 47q-96 0 -96 -221zM455 -16q-193 0 -312 140t-119 425t118 424t313 139q156 0 250 -96q98 96 251 96q399 0 400 -575v-113h-498
q4 -193 115 -193q90 0 135 140l252 -92q-104 -295 -391 -295q-164 0 -262 98q-96 -98 -252 -98z" />
    <glyph glyph-name="Scaron" unicode="&#x160;" horiz-adv-x="997" 
d="M501 1237q-95 0 -94 -94t193 -235q80 -58 159 -126t135 -169t56 -220q0 -185 -122 -299t-322 -114q-239 0 -337 139t-130 354l301 51q24 -129 60 -191q36 -63 98 -63q112 -1 110 115q-1 97 -192 236q-80 57 -159 123t-135 166q-56 99 -56 216q0 190 118 301
q119 111 318 111t297 -115t147 -340l-307 -73q-25 119 -57 173q-33 54 -81 54zM393 1606l-184 331h194l103 -116l102 116h197l-184 -331h-228z" />
    <glyph glyph-name="scaron" unicode="&#x161;" horiz-adv-x="839" 
d="M426 -18q-295 0 -424 278l240 113q68 -150 178 -150q80 0 80 64q0 37 -47 67t-115 61t-136 71t-114 118q-47 78 -47 182q0 164 117 248t256 84t235 -60t158 -196l-244 -117q-53 121 -145 121q-61 0 -62 -59q0 -39 47 -71t115 -62t136 -71q68 -40 114 -117q47 -77 47 -181
q1 -151 -105 -237t-284 -86zM305 1196l-184 332h194l103 -117l102 117h197l-185 -332h-227z" />
    <glyph glyph-name="Ydieresis" unicode="&#x178;" horiz-adv-x="983" 
d="M313 0v526l-331 990h356l164 -605h8l164 605h327l-335 -990v-526h-353zM168 1604v307h272v-307h-272zM545 1604v307h272v-307h-272z" />
    <glyph glyph-name="Zcaron" unicode="&#x17d;" horiz-adv-x="923" 
d="M16 0v264l490 953h-451v299h836v-275l-488 -952h488v-289h-875zM346 1606l-184 331h194l103 -116l102 116h197l-185 -331h-227z" />
    <glyph glyph-name="zcaron" unicode="&#x17e;" horiz-adv-x="788" 
d="M23 0v201l348 645h-316v250h695v-211l-351 -645h373v-240h-749zM279 1196l-185 332h195l102 -117l103 117h196l-184 -332h-227z" />
    <glyph glyph-name="florin" unicode="&#x192;" horiz-adv-x="718" 
d="M-12 -412q-74 0 -117 6l35 259q99 -16 129 14q29 29 37 86l92 680h-119l31 246h119l45 311q20 172 110 251t301 79q74 0 117 -7l-35 -262q-29 4 -69 4t-66 -19q-25 -19 -31 -73l-39 -284h148l-31 -246h-147l-101 -731q-23 -166 -111 -240t-298 -74z" />
    <glyph glyph-name="circumflex" unicode="&#x2c6;" horiz-adv-x="872" 
d="M139 1196l185 332h227l182 -332h-194l-105 117l-102 -117h-193z" />
    <glyph glyph-name="caron" unicode="&#x2c7;" horiz-adv-x="872" 
d="M322 1196l-185 332h195l102 -117l103 117h196l-184 -332h-227z" />
    <glyph glyph-name="breve" unicode="&#x2d8;" horiz-adv-x="825" 
d="M414 1186q-141 0 -207 88t-74 262h191q14 -154 89 -154t89 154h190q-8 -174 -72 -262t-206 -88z" />
    <glyph glyph-name="dotaccent" unicode="&#x2d9;" horiz-adv-x="825" 
d="M188 1206v295h338v-295h-338z" />
    <glyph glyph-name="ring" unicode="&#x2da;" horiz-adv-x="851" 
d="M426 1282q51 0 51 102t-51 103q-51 -1 -51 -103t51 -102zM426 1149q-94 0 -153 70q-58 70 -58 172t58 172q59 69 153 69t153 -69q58 -70 58 -172q-1 -102 -59 -172t-152 -70z" />
    <glyph glyph-name="ogonek" unicode="&#x2db;" horiz-adv-x="825" 
d="M377 -401q-92 0 -140 46q-49 47 -49 115t37 132t94 108h154q-37 -27 -61 -76t-25 -98q-1 -76 63 -76t121 57l84 -83q-124 -125 -278 -125z" />
    <glyph glyph-name="tilde" unicode="&#x2dc;" horiz-adv-x="845" 
d="M553 1161q-55 0 -102 29q-47 30 -82 58t-62 28q-61 0 -61 -111h-160q0 367 211 367q55 0 102 -29t82 -57t62 -29q61 0 61 111h160q0 -367 -211 -367z" />
    <glyph glyph-name="hungarumlaut" unicode="&#x2dd;" horiz-adv-x="847" 
d="M25 1198l141 330h319l-217 -330h-243zM387 1198l150 330h319l-225 -330h-244z" />
    <glyph glyph-name="endash" unicode="&#x2013;" horiz-adv-x="962" 
d="M55 483v287h852v-287h-852z" />
    <glyph glyph-name="emdash" unicode="&#x2014;" horiz-adv-x="1247" 
d="M55 483v287h1137v-287h-1137z" />
    <glyph glyph-name="quoteleft" unicode="&#x2018;" horiz-adv-x="489" 
d="M63 860v336l166 320h160l-104 -302h141v-354h-363z" />
    <glyph glyph-name="quoteright" unicode="&#x2019;" horiz-adv-x="489" 
d="M63 1161v355h363v-336l-166 -320h-160l105 301h-142z" />
    <glyph glyph-name="quotesinglbase" unicode="&#x201a;" horiz-adv-x="489" 
d="M63 0v354h363v-336l-166 -319h-160l105 301h-142z" />
    <glyph glyph-name="quotedblleft" unicode="&#x201c;" horiz-adv-x="927" 
d="M63 860v336l162 320h156l-102 -302h139v-354h-355zM508 860v336l164 320h155l-102 -302h139v-354h-356z" />
    <glyph glyph-name="quotedblright" unicode="&#x201d;" horiz-adv-x="927" 
d="M63 1161v355h357v-336l-164 -320h-156l103 301h-140zM510 1161v355h354v-336l-162 -320h-155l102 301h-139z" />
    <glyph glyph-name="quotedblbase" unicode="&#x201e;" horiz-adv-x="927" 
d="M63 0v354h357v-336l-164 -319h-156l103 301h-140zM510 0v354h354v-336l-162 -319h-155l102 301h-139z" />
    <glyph glyph-name="dagger" unicode="&#x2020;" horiz-adv-x="948" 
d="M301 -410l47 1160l-307 -25v297l307 -27l-47 521h344l-45 -521l305 27v-297l-305 25l45 -1160h-344z" />
    <glyph glyph-name="daggerdbl" unicode="&#x2021;" horiz-adv-x="944" 
d="M301 -410l45 414l-287 -29v293l287 -26l-39 315l39 307l-287 -24v290l287 -26l-45 412h344l-45 -412l287 26v-290l-287 24l39 -307l-39 -315l287 26v-293l-287 29l45 -414h-344z" />
    <glyph glyph-name="bullet" unicode="&#x2022;" horiz-adv-x="948" 
d="M474 465q-110 0 -182 72q-72 71 -71 181q0 110 72 182q71 72 181 71q110 0 182 -72q72 -71 71 -181q1 -110 -71 -182t-182 -71z" />
    <glyph glyph-name="ellipsis" unicode="&#x2026;" horiz-adv-x="1486" 
d="M59 0v354h377v-354h-377zM555 0v354h377v-354h-377zM1051 0v354h376v-354h-376z" />
    <glyph glyph-name="perthousand" unicode="&#x2030;" horiz-adv-x="2453" 
d="M1348 653q-36 0 -48 -45t-12 -180t12 -183t49 -48q36 0 48 50t12 185t-12 178t-49 43zM2080 197q36 0 48 50t12 185t-12 178t-49 43t-48 -45t-11 -180t12 -183t48 -48zM372 856q36 0 48 50t12 181t-12 179t-49 47q-37 0 -48 -45t-11 -179q0 -133 12 -183t48 -50z
M1690 434q0 -206 -83 -328t-258 -122t-257 120t-82 326q0 207 84 327t256 120t256 -119t84 -324zM2079 -16q-176 0 -257 118t-81 327q0 208 84 328t256 120t256 -119t84 -325q0 -205 -83 -327t-259 -122zM403 0l631 1516h283l-631 -1516h-283zM373 643q-176 0 -258 119
q-82 120 -82 326t84 326t257 120t256 -118t83 -324t-82 -328q-82 -121 -258 -121z" />
    <glyph glyph-name="guilsinglleft" unicode="&#x2039;" horiz-adv-x="569" 
d="M236 0l-216 543l216 540h307l-209 -540l209 -543h-307z" />
    <glyph glyph-name="guilsinglright" unicode="&#x203a;" horiz-adv-x="569" 
d="M27 0l209 543l-209 540h307l217 -540l-217 -543h-307z" />
    <glyph glyph-name="fraction" unicode="&#x2044;" horiz-adv-x="843" 
d="M-18 0l565 1516h315l-563 -1516h-317z" />
    <glyph glyph-name="Euro" unicode="&#x20ac;" 
d="M27 489v226h112v73h-112v226h127q35 314 172 426q66 53 132 73t154 21q218 0 320 -122t115 -396l-302 -21q-12 156 -35 203q-24 47 -90 47t-97 -44q-32 -44 -42 -187h226v-226h-234v-73h234v-226h-226q16 -161 53 -198q19 -19 35 -25t45 -6q74 0 101 44t37 206l307 -18
q-8 -178 -49 -269q-40 -90 -86 -136q-104 -103 -309 -103q-203 0 -315 116t-146 389h-127z" />
    <glyph glyph-name="recordright" unicode="&#x2117;" horiz-adv-x="1204" 
d="M586 797h39q35 0 52 19q17 18 17 80t-17 82t-52 19h-39v-200zM383 342v850h244q260 0 260 -290t-266 -290h-35v-270h-203zM605 115q185 0 294 177t109 462t-111 466t-297 181t-295 -177t-109 -462t112 -466t297 -181zM599 -29q-251 -1 -407 221t-155 562q0 340 159 565
q160 225 410 225t406 -221t156 -561t-160 -566q-158 -226 -409 -225z" />
    <glyph glyph-name="trademark" unicode="&#x2122;" horiz-adv-x="1374" 
d="M178 649v647h-143v220h495v-220h-141v-647h-211zM598 649v867h289l74 -515l75 515h285v-867h-205v518l-78 -518h-170l-77 512v-512h-193z" />
    <glyph glyph-name="minus" unicode="&#x2212;" horiz-adv-x="993" 
d="M66 543v288h862v-288h-862z" />
    <glyph glyph-name="radical" unicode="&#x221a;" horiz-adv-x="942" 
d="M231 -4l-243 1100h338q98 -627 106 -711h4q4 37 56 320q51 283 102 544l49 264h311l-336 -1517h-387z" />
    <glyph glyph-name="registered.alt" unicode="&#xe000;" horiz-adv-x="882" 
d="M418 1096h20q47 0 47 62t-47 63h-20v-125zM297 827v510h147q158 0 158 -174q0 -104 -53 -151l55 -185h-123l-49 164h-14v-164h-121zM442 676q111 0 180 110t68 283q0 174 -69 287q-70 112 -181 112q-112 0 -180 -110t-68 -283q0 -175 70 -287q69 -112 180 -112zM439 600
q-151 0 -243 133t-94 337q0 204 96 339t246 135t243 -132t93 -337t-95 -340t-246 -135z" />
    <glyph glyph-name="fl" unicode="&#xfb02;" horiz-adv-x="1028" 
d="M612 0v1513h336v-1513h-336zM131 0v846h-119v250h119v94q0 154 66 242t241 88q84 0 127 -7v-260q-14 2 -41 2q-59 0 -59 -92v-67h96v-250h-96v-846h-334z" />
    </font>
</defs>
</svg>
