<?xml version="1.0" standalone="no"?>
<!DOCTYPE svg PUBLIC "-//W3C//DTD SVG 1.1//EN" "http://www.w3.org/Graphics/SVG/1.1/DTD/svg11.dtd" >
<svg xmlns="http://www.w3.org/2000/svg">
<metadata>
Created by FontPrep 20130207 at Wed Feb 24 14:44:51 2016
 By Callum Flack
Copyright (c) The Font Bureau, Inc., 2008. All rights reserved.
</metadata>
<defs>
<font id="f78597f6497138650c310eebac22df9c" horiz-adv-x='1024' >
  <font-face 
    font-family="BentonSans-Light"
    font-weight="300"
    font-stretch="normal"
    units-per-em="2048"
    panose-1="2 0 4 4 2 0 0 2 0 4"
    ascent="1612"
    descent="-436"
    x-height="1075"
    cap-height="1516"
    bbox="-199 -459 2605.01 1952"
    underline-thickness="0"
    underline-position="0"
    unicode-range="U+0020-FB04"
  />
<missing-glyph horiz-adv-x="1024" 
d="M102 1331v-1229h820v1229h-820zM0 0v1434h1024v-1434h-1024z" />
    <glyph glyph-name="f_f" unicode="ff" horiz-adv-x="1228" 
d="M246 0v987h-189v88h189v182q0 258 295 259h53v-91q-16 2 -66 2q-184 0 -184 -161v-191h490v182q0 258 294 259h54v-91q-16 2 -66 2q-184 0 -184 -161v-191h237v-88h-237v-987h-98v987h-490v-987h-98z" />
    <glyph glyph-name="f_i" unicode="fi" horiz-adv-x="1134" 
d="M834 0v1075h98v-1075h-98zM246 0v987h-189v88h189v182q0 258 295 259h53v-91q-16 2 -66 2q-184 0 -184 -161v-191h238v-88h-238v-987h-98zM829 1350v125h107v-125h-107z" />
    <glyph glyph-name="f_l" unicode="fl" horiz-adv-x="1134" 
d="M246 0v987h-189v88h189v182q0 258 295 259h53v-91q-16 2 -66 2q-184 0 -184 -161v-191h238v-88h-238v-987h-98zM834 0v1516h98v-1516h-98z" />
    <glyph glyph-name="f_f_i" unicode="ffi" horiz-adv-x="1703" 
d="M246 0v987h-189v88h189v182q0 258 295 259h53v-91q-16 2 -66 2q-184 0 -184 -161v-191h490v182q0 258 294 259h54v-91q-16 2 -66 2q-184 0 -184 -161v-191h237v-88h-237v-987h-98v987h-490v-987h-98zM1421 0v1075h99v-1075h-99zM1417 1350v125h107v-125h-107z" />
    <glyph glyph-name="f_f_l" unicode="ffl" horiz-adv-x="1703" 
d="M246 0v987h-189v88h189v182q0 258 295 259h53v-91q-16 2 -66 2q-184 0 -184 -161v-191h490v182q0 258 294 259h54v-91q-16 2 -66 2q-184 0 -184 -161v-191h237v-88h-237v-987h-98v987h-490v-987h-98zM1421 0v1513h99v-1513h-99z" />
    <glyph glyph-name="f_j" unicode="fj" horiz-adv-x="1134" 
d="M735 -410q-33 0 -57 4v89q25 -6 57 -7q98 0 99 113v1286h98v-1274q0 -211 -197 -211zM246 0v987h-189v88h189v182q0 258 295 259h53v-91q-16 2 -66 2q-184 0 -184 -161v-191h238v-88h-238v-987h-98zM829 1350v125h107v-125h-107z" />
    <glyph glyph-name=".notdef" horiz-adv-x="1024" 
d="M102 1331v-1229h820v1229h-820zM0 0v1434h1024v-1434h-1024z" />
    <glyph glyph-name=".null" horiz-adv-x="0" 
 />
    <glyph glyph-name="nonmarkingreturn" horiz-adv-x="681" 
 />
    <glyph glyph-name="space" unicode=" " horiz-adv-x="442" 
 />
    <glyph glyph-name="space" unicode="&#xa0;" horiz-adv-x="442" 
 />
    <glyph glyph-name="exclam" unicode="!" horiz-adv-x="620" 
d="M242 0v164h137v-164h-137zM287 397l-37 1119h121l-37 -1119h-47z" />
    <glyph glyph-name="quotedbl" unicode="&#x22;" horiz-adv-x="802" 
d="M516 1516h111v-105l-35 -401h-41l-35 401v105zM176 1516h111v-105l-35 -401h-41l-35 401v105z" />
    <glyph glyph-name="numbersign" unicode="#" horiz-adv-x="1423" 
d="M98 459v88h260l88 422h-260v88h279l96 459h94l-96 -459h430l96 459h95l-97 -459h242v-88h-260l-88 -422h260v-88h-279l-96 -459h-94l96 459h-430l-96 -459h-94l96 459h-242zM453 547h430l88 422h-430z" />
    <glyph glyph-name="dollar" unicode="$" horiz-adv-x="1308" 
d="M606 -190v184q-184 10 -303 94t-174 184l82 52q72 -113 165 -172t232 -68v672q-102 34 -169 62q-179 76 -232 187q-33 67 -33 154q0 150 116 254t316 113v151h90v-153q276 -23 410 -252l-82 -55q-66 104 -137 155q-72 51 -193 60v-603q90 -29 142 -46t126 -56
q76 -39 114 -80t68 -109t30 -151q0 -172 -130 -278t-348 -117v-182h-90zM1071 385q0 151 -118 230q-60 40 -114 63t-145 51v-643q168 8 273 78q104 70 104 221zM276 1159q0 -117 85 -183t247 -120v578q-164 -8 -248 -83t-84 -192z" />
    <glyph glyph-name="percent" unicode="%" horiz-adv-x="1921" 
d="M1462 782q-106 0 -166 -101t-61 -258q1 -157 61 -256t165 -99t166 102t61 259t-60 255t-166 98zM1786 430q0 -202 -87 -326t-240 -124t-237 120t-85 324q0 203 89 325q88 121 238 121t236 -120t86 -320zM460 1448q-106 0 -166 -101t-60 -258t60 -257q61 -100 166 -99
q106 1 166 103t60 259t-60 255t-166 98zM459 0l905 1516h98l-905 -1516h-98zM463 1536q149 0 235 -120t86 -320t-86 -326q-86 -125 -240 -125q-153 0 -238 121q-85 122 -85 324t89 324t239 122z" />
    <glyph glyph-name="ampersand" unicode="&#x26;" horiz-adv-x="1466" 
d="M588 -29q-248 1 -372 107t-124 297q0 270 359 467q-107 182 -107 340t89 260t239 102t229 -79q80 -79 80 -211t-102 -238q-102 -104 -291 -201q43 -66 177 -240t259 -296q139 178 174 473h105q-45 -326 -211 -533q166 -141 313 -141v-98q-105 6 -193 44t-188 126
q-188 -179 -436 -179zM195 377q0 -147 99 -231t307 -83q208 0 360 146q-123 121 -273 308t-192 251q-301 -168 -301 -391zM879 1257q1 83 -49 139t-158 56t-166 -72q-59 -72 -60 -182q1 -153 97 -311q160 82 248 167t88 203z" />
    <glyph glyph-name="quotesingle" unicode="'" horiz-adv-x="462" 
d="M176 1516h111v-105l-35 -401h-41l-35 401v105z" />
    <glyph glyph-name="parenleft" unicode="(" horiz-adv-x="811" 
d="M137 553q0 547 508 973l43 -51q-206 -182 -322 -418t-116 -504t116 -504t322 -418l-43 -51q-508 426 -508 973z" />
    <glyph glyph-name="parenright" unicode=")" horiz-adv-x="811" 
d="M561 553q0 268 -116 504t-322 418l43 51q508 -426 508 -973t-508 -973l-43 51q207 182 322 418q116 236 116 504z" />
    <glyph glyph-name="asterisk" unicode="*" horiz-adv-x="1040" 
d="M354 745l-86 52l219 315l-385 -27v95l385 -27l-219 315l86 52l166 -349l166 349l86 -52l-219 -315l385 27v-95l-385 27l219 -315l-86 -52l-166 349z" />
    <glyph glyph-name="plus" unicode="+" horiz-adv-x="1298" 
d="M602 147v471h-469v91h469v471h94v-471h469v-91h-469v-471h-94z" />
    <glyph glyph-name="comma" unicode="," horiz-adv-x="542" 
d="M203 0v164h137v-152l-80 -211h-45l41 199h-53z" />
    <glyph glyph-name="hyphen" unicode="-" horiz-adv-x="731" 
d="M143 594v98h445v-98h-445z" />
    <glyph glyph-name="hyphen" unicode="&#xad;" horiz-adv-x="731" 
d="M143 594v98h445v-98h-445z" />
    <glyph glyph-name="period" unicode="." horiz-adv-x="542" 
d="M203 0v164h137v-164h-137z" />
    <glyph glyph-name="slash" unicode="/" horiz-adv-x="1081" 
d="M47 0l881 1516h106l-880 -1516h-107z" />
    <glyph glyph-name="zero" unicode="0" horiz-adv-x="1316" 
d="M656 1454q-204 0 -320 -182t-115 -513t119 -515t321 -183t319 183t116 513t-118 514t-322 183zM659 -29q-256 0 -397 213q-141 214 -141 574t141 573t397 213q257 0 397 -213t140 -573t-140 -574q-141 -213 -397 -213z" />
    <glyph glyph-name="one" unicode="1" horiz-adv-x="872" 
d="M135 0v94h289v1305q-131 -70 -285 -70v88q195 6 293 99h92v-1422h262v-94h-651z" />
    <glyph glyph-name="two" unicode="2" horiz-adv-x="1189" 
d="M109 0v33q-1 171 115 329t405 343q173 109 245 205t72 230t-87 224t-249 90q-256 0 -385 -276l-84 41q150 326 473 325q197 0 315 -114t118 -284q-1 -169 -91 -284t-306 -252t-324 -269t-111 -247h838v-94h-944z" />
    <glyph glyph-name="three" unicode="3" horiz-adv-x="1193" 
d="M461 852q469 0 469 296q0 144 -85 225t-259 81q-215 0 -365 -199l-82 54q184 236 449 235q221 0 332 -110q110 -110 110 -262t-83 -247t-226 -118q340 -70 340 -404q-1 -184 -133 -308t-353 -124q-161 0 -293 76t-212 213l84 51q158 -250 424 -250q176 1 279 95t104 243
q0 183 -117 273t-395 90h-54v90h66z" />
    <glyph glyph-name="four" unicode="4" horiz-adv-x="1208" 
d="M801 481v918h-4l-602 -918h606zM801 0v389h-727v72l690 1055h135v-1035h256v-92h-256v-389h-98z" />
    <glyph glyph-name="five" unicode="5" horiz-adv-x="1179" 
d="M575 -29q-157 0 -283 79t-200 210l84 51q150 -250 402 -250q194 0 296 128q102 127 102 311t-102 293t-262 108q-223 0 -362 -207l-84 35l57 787h774l-10 -99h-672l-45 -577q129 152 337 152t339 -135q131 -134 131 -360q1 -226 -137 -376t-365 -150z" />
    <glyph glyph-name="six" unicode="6" horiz-adv-x="1230" 
d="M650 61q169 0 275 108q105 108 105 292q0 183 -93 287t-280 104q-127 0 -239 -69t-193 -185q25 -266 141 -402t284 -135zM639 -29q-225 0 -372 193q-146 193 -146 567q1 221 69 405t200 297q132 112 300 111q213 0 350 -112l-57 -80q-67 53 -131 78t-164 24
q-215 0 -344 -210t-125 -521q185 219 433 219t364 -132t117 -343q-1 -211 -135 -353t-359 -143z" />
    <glyph glyph-name="seven" unicode="7" horiz-adv-x="1128" 
d="M121 1417v99h901v-93l-653 -1423h-107l651 1417h-792z" />
    <glyph glyph-name="eight" unicode="8" horiz-adv-x="1228" 
d="M614 61q184 0 305 84q119 83 119 217t-102 221t-326 181q-231 -102 -325 -187q-95 -85 -95 -214t120 -215t304 -87zM969 1184q0 110 -92 190q-91 80 -259 80t-263 -80t-95 -186t78 -176t278 -158q199 84 276 152t77 178zM614 -29q-240 0 -382 113q-142 114 -142 272
t101 258t315 193q-174 76 -260 162t-86 223t126 245q126 107 330 107t329 -108q124 -108 124 -245q0 -138 -83 -217t-269 -163q221 -97 321 -195t100 -257t-142 -273t-382 -115z" />
    <glyph glyph-name="nine" unicode="9" horiz-adv-x="1230" 
d="M541 -29q-231 0 -385 140l55 77q79 -68 149 -98t183 -29q215 0 344 210t125 522q-186 -219 -434 -219t-364 132t-116 342t134 354q134 142 360 142t372 -192q146 -193 146 -568q0 -221 -69 -405t-201 -296t-299 -112zM573 664q127 0 240 68t193 186q-25 266 -141 401
q-117 135 -285 135t-274 -107q-105 -109 -105 -293t93 -287t279 -103z" />
    <glyph glyph-name="colon" unicode=":" horiz-adv-x="542" 
d="M203 0v164h137v-164h-137zM203 911v164h137v-164h-137z" />
    <glyph glyph-name="semicolon" unicode=";" horiz-adv-x="542" 
d="M203 0v164h137v-152l-80 -211h-45l41 199h-53zM203 911v164h137v-164h-137z" />
    <glyph glyph-name="less" unicode="&#x3c;" horiz-adv-x="1298" 
d="M1184 160l-1084 461v86l1084 460v-100l-963 -403l963 -404v-100z" />
    <glyph glyph-name="equal" unicode="=" horiz-adv-x="1298" 
d="M131 383v94h1034v-94h-1034zM131 850v94h1034v-94h-1034z" />
    <glyph glyph-name="greater" unicode="&#x3e;" horiz-adv-x="1298" 
d="M115 160v100l962 404l-962 403v100l1083 -460v-86z" />
    <glyph glyph-name="question" unicode="?" horiz-adv-x="1077" 
d="M410 0v164h137v-164h-137zM434 555q0 84 38 153q38 68 160 144t178 140q54 65 54 188q0 124 -88 198t-229 74t-225 -54t-160 -165l-78 53q92 125 196 192q104 66 274 66q171 0 292 -102t121 -252t-67 -234t-194 -160q-128 -76 -158 -148q-30 -71 -30 -251h-80
q-4 74 -4 158z" />
    <glyph glyph-name="at" unicode="@" horiz-adv-x="1777" 
d="M762 401q170 0 321 144l66 454q-109 129 -281 129q-141 0 -233 -137t-92 -332q0 -258 219 -258zM889 -29q-344 0 -565 217q-222 216 -222 568t224 570t562 218q339 0 563 -215t224 -551q0 -211 -94 -334t-235 -122q-90 0 -151 45q-60 45 -83 110q-176 -156 -346 -155
q-141 0 -228 84t-87 247q0 233 122 396q123 162 316 161q154 0 272 -114l15 96h88l-86 -602q-12 -84 34 -139t148 -55t172 96q70 98 70 286q0 307 -203 502t-510 195t-509 -201t-202 -516t202 -516t509 -201q213 0 424 109l30 -62q-218 -117 -454 -117z" />
    <glyph glyph-name="A" unicode="A" horiz-adv-x="1357" 
d="M82 0l536 1522h121l537 -1522h-109l-176 508h-629l-176 -508h-104zM395 600h563l-280 807h-4z" />
    <glyph glyph-name="B" unicode="B" horiz-adv-x="1390" 
d="M305 94h461q403 0 403 316q-1 162 -121 242t-333 81h-410v-639zM305 825h397q199 0 307 76q107 77 107 227t-98 222t-309 71h-404v-596zM203 0v1516h508q258 0 383 -102t125 -281q0 -143 -83 -233t-210 -118v-4q152 -29 249 -123q97 -95 97 -261t-126 -280t-386 -114
h-557z" />
    <glyph glyph-name="C" unicode="C" horiz-adv-x="1417" 
d="M745 -29q-281 0 -449 220q-168 219 -167 565q0 346 170 567t446 221q418 0 535 -459l-98 -22q-56 199 -158 294t-281 95q-229 0 -370 -188t-141 -506t140 -506t376 -189q354 0 460 408l97 -22q-55 -225 -201 -351t-359 -127z" />
    <glyph glyph-name="D" unicode="D" horiz-adv-x="1437" 
d="M305 94h285q297 0 457 164q159 164 159 499t-160 499t-460 165h-281v-1327zM203 0v1516h364q371 0 556 -194t185 -562t-186 -564q-188 -196 -555 -196h-364z" />
    <glyph glyph-name="E" unicode="E" horiz-adv-x="1222" 
d="M203 0v1516h876v-95h-774v-569h582v-94h-582v-664h819v-94h-921z" />
    <glyph glyph-name="F" unicode="F" horiz-adv-x="1146" 
d="M203 0v1516h862v-95h-760v-569h567v-94h-567v-758h-102z" />
    <glyph glyph-name="G" unicode="G" horiz-adv-x="1462" 
d="M743 -29q-283 -1 -449 223t-165 572q0 348 175 563t446 215q211 0 345 -120t189 -339l-98 -22q-58 199 -160 294t-278 95q-224 0 -370 -184t-146 -500t138 -511q140 -194 378 -194q208 -1 330 145t116 396h-391v94h491v-698h-100v238h-4q-138 -267 -447 -267z" />
    <glyph glyph-name="H" unicode="H" horiz-adv-x="1482" 
d="M203 0v1516h102v-666h873v666h102v-1516h-102v756h-873v-756h-102z" />
    <glyph glyph-name="I" unicode="I" horiz-adv-x="552" 
d="M225 0v1516h103v-1516h-103z" />
    <glyph glyph-name="J" unicode="J" horiz-adv-x="1003" 
d="M424 -29q-240 0 -363 224l82 47q55 -90 119 -134t160 -45q287 0 287 326v1127h102v-1117q1 -211 -103 -319t-284 -109z" />
    <glyph glyph-name="K" unicode="K" horiz-adv-x="1345" 
d="M203 0v1516h102v-861l776 861h129l-522 -570l604 -946h-121l-555 866l-311 -340v-526h-102z" />
    <glyph glyph-name="L" unicode="L" horiz-adv-x="1146" 
d="M203 0v1516h102v-1422h758v-94h-860z" />
    <glyph glyph-name="M" unicode="M" horiz-adv-x="1767" 
d="M203 0v1516h131l547 -1377h4l549 1377h131v-1516h-105v1325h-4q-27 -72 -96 -250l-432 -1075h-94l-433 1075q-84 215 -96 250h-4v-1325h-98z" />
    <glyph glyph-name="N" unicode="N" horiz-adv-x="1505" 
d="M203 0v1516h116l881 -1315h4v1315h99v-1516h-89l-909 1360h-4v-1360h-98z" />
    <glyph glyph-name="O" unicode="O" horiz-adv-x="1501" 
d="M751 63q228 -1 373 187q146 188 146 508t-146 506q-146 188 -373 188t-373 -187t-146 -507t145 -507q146 -188 374 -188zM752 -29q-274 0 -449 219q-174 220 -174 568t174 567q175 219 449 219t447 -220t173 -566t-173 -566t-447 -221z" />
    <glyph glyph-name="P" unicode="P" horiz-adv-x="1300" 
d="M305 803h383q207 0 311 73q105 74 105 238t-106 236t-312 71h-381v-618zM203 0v1516h493q246 0 378 -102t132 -301q0 -198 -138 -301t-388 -103h-375v-709h-102z" />
    <glyph glyph-name="Q" unicode="Q" horiz-adv-x="1501" 
d="M751 63q228 -1 373 187q146 188 146 508t-146 506q-146 188 -373 188t-373 -187t-146 -507t145 -507q146 -188 374 -188zM1137 -375q-217 0 -329 95t-112 253q-254 23 -410 240t-157 555q0 338 174 557q175 219 449 219t447 -220t173 -559t-159 -555t-414 -237
q14 -254 340 -254h104v-94h-106z" />
    <glyph glyph-name="R" unicode="R" horiz-adv-x="1357" 
d="M203 0v1516h493q246 0 378 -102t132 -292q0 -338 -370 -399l391 -723h-119l-385 711h-418v-711h-102zM305 803h383q207 0 311 73q105 74 105 238t-106 236t-312 71h-381v-618z" />
    <glyph glyph-name="S" unicode="S" horiz-adv-x="1308" 
d="M671 -29q-212 0 -354 109q-141 109 -188 299l100 24q43 -167 158 -253t291 -86t285 82q109 84 109 218t-84 212q-83 78 -343 161q-260 84 -365 174q-106 90 -106 252t129 272q129 109 328 109t325 -95t174 -261l-98 -29q-53 157 -152 225t-255 68t-252 -80
q-97 -80 -97 -204t88 -193q88 -68 348 -153q259 -85 360 -182q102 -97 102 -274t-146 -286t-357 -109z" />
    <glyph glyph-name="T" unicode="T" horiz-adv-x="1249" 
d="M573 0v1421h-497v95h1098v-95h-498v-1421h-103z" />
    <glyph glyph-name="U" unicode="U" horiz-adv-x="1460" 
d="M729 -29q-256 0 -396 151t-140 374v1020h102v-996q-1 -203 109 -330t326 -127t326 125t109 328v1000h103v-1014q0 -225 -142 -378t-397 -153z" />
    <glyph glyph-name="V" unicode="V" 
d="M618 -6l-536 1522h106l478 -1379h4l477 1379h102l-536 -1522h-95z" />
    <glyph glyph-name="W" unicode="W" horiz-adv-x="1880" 
d="M494 0l-404 1516h105l254 -973q45 -172 96 -391h4q37 178 92 389l242 975h118l244 -984q78 -315 90 -380h4q20 94 93 372l258 992h100l-404 -1516h-104l-340 1374h-4l-342 -1374h-102z" />
    <glyph glyph-name="X" unicode="X" horiz-adv-x="1314" 
d="M66 0l538 815l-465 701h119l401 -619l404 619h113l-463 -699l536 -817h-108l-484 737l-487 -737h-104z" />
    <glyph glyph-name="Y" unicode="Y" horiz-adv-x="1230" 
d="M563 0v674l-504 842h115l444 -754l443 754h110l-505 -842v-674h-103z" />
    <glyph glyph-name="Z" unicode="Z" horiz-adv-x="1259" 
d="M92 0v76l936 1351h-874v89h995v-76l-936 -1352h936v-88h-1057z" />
    <glyph glyph-name="bracketleft" unicode="[" horiz-adv-x="770" 
d="M188 -410v1926h478v-82h-377v-1762h377v-82h-478z" />
    <glyph glyph-name="backslash" unicode="\" horiz-adv-x="1081" 
d="M928 0l-881 1516h107l880 -1516h-106z" />
    <glyph glyph-name="bracketright" unicode="]" horiz-adv-x="770" 
d="M104 -410v82h377v1760h-377v84h478v-1926h-478z" />
    <glyph glyph-name="asciicircum" unicode="^" horiz-adv-x="1298" 
d="M145 698l461 818h86l461 -818h-100l-404 715l-403 -715h-101z" />
    <glyph glyph-name="underscore" unicode="_" horiz-adv-x="1024" 
d="M0 -244v90h1024v-90h-1024z" />
    <glyph glyph-name="grave" unicode="`" horiz-adv-x="1024" 
d="M604 1192l-285 309h154l195 -309h-64z" />
    <glyph glyph-name="a" unicode="a" horiz-adv-x="1105" 
d="M412 -18q-145 0 -225 70q-79 71 -78 196q1 164 167 274t572 178v66q0 244 -240 246q-119 0 -216 -45t-195 -133l-58 61q109 99 221 151t266 52t237 -86t83 -240v-506q0 -190 31 -266h-105q-25 78 -24 160q-207 -178 -436 -178zM420 68q233 0 428 188v371
q-367 -63 -504 -155t-137 -218q1 -90 57 -138t156 -48z" />
    <glyph glyph-name="b" unicode="b" horiz-adv-x="1200" 
d="M639 68q152 0 251 118t99 350t-101 354t-253 122q-102 0 -184 -46t-181 -147v-559q189 -192 369 -192zM642 -18q-190 0 -372 176v-158h-98v1516h98v-603q170 185 367 185t324 -144t127 -415q0 -269 -128 -413t-318 -144z" />
    <glyph glyph-name="c" unicode="c" horiz-adv-x="1077" 
d="M561 -23q-190 0 -320 155t-130 414t135 405t329 147q272 0 400 -287l-84 -45q-53 123 -127 184q-74 62 -201 62t-234 -105q-54 -53 -87 -148t-33 -220q0 -219 102 -347t256 -129q119 -1 193 59t139 189l78 -39q-73 -147 -171 -221t-245 -74z" />
    <glyph glyph-name="d" unicode="d" horiz-adv-x="1200" 
d="M562 -18q-196 0 -322 142t-127 412q0 270 128 416q127 146 327 146t362 -180v598h98v-1250q0 -193 33 -266h-107q-25 78 -24 162q-172 -180 -368 -180zM565 68q103 0 185 46t180 146v559q-188 193 -369 193q-152 0 -251 -120t-99 -352t101 -352t253 -120z" />
    <glyph glyph-name="e" unicode="e" horiz-adv-x="1103" 
d="M572 1012q-140 0 -242 -104t-119 -294h680q-12 176 -95 287q-84 111 -224 111zM563 -23q-188 0 -320 153t-132 413t135 407q134 148 324 148t307 -150t116 -401v-15h-784q0 -213 103 -341t257 -128q121 -1 201 55t145 169l72 -45q-143 -265 -424 -265z" />
    <glyph glyph-name="f" unicode="f" horiz-adv-x="641" 
d="M246 0v987h-189v88h189v182q0 258 295 259h53v-91q-16 2 -66 2q-184 0 -184 -161v-191h238v-88h-238v-987h-98z" />
    <glyph glyph-name="g" unicode="g" horiz-adv-x="1136" 
d="M563 -328q173 0 275 56t102 144q0 87 -73 133t-230 61l-223 18q-37 4 -54 6q-102 -31 -156 -90t-54 -131q-1 -197 413 -197zM540 -410q-232 0 -359 71q-128 71 -128 200q0 172 207 252q-102 39 -102 132t125 154q-160 106 -160 310q0 169 119 279t296 110t293 -111
q111 78 244 96v-106q-117 0 -201 -39q74 -96 74 -229q0 -175 -120 -279t-291 -104q-98 0 -185 34q-96 -37 -96 -100q0 -72 172 -88l252 -22q356 -33 356 -267q0 -137 -132 -215t-364 -78zM537 410q143 0 229 83t86 219t-84 219t-230 83t-232 -84t-87 -219t87 -218t231 -83z
" />
    <glyph glyph-name="h" unicode="h" horiz-adv-x="1173" 
d="M172 0v1516h98v-619q211 201 416 201q164 0 245 -84t81 -234v-780h-99v768q0 125 -57 184t-178 60q-193 0 -408 -205v-807h-98z" />
    <glyph glyph-name="i" unicode="i" horiz-adv-x="466" 
d="M184 0v1075h99v-1075h-99zM180 1350v125h107v-125h-107z" />
    <glyph glyph-name="j" unicode="j" horiz-adv-x="466" 
d="M86 -410q-33 0 -57 4v89q25 -6 57 -7q98 0 98 113v1286h99v-1274q0 -211 -197 -211zM180 1350v125h107v-125h-107z" />
    <glyph glyph-name="k" unicode="k" horiz-adv-x="1058" 
d="M172 0v1516h98v-1047l555 606h123l-352 -375l399 -700h-110l-359 625l-256 -275v-350h-98z" />
    <glyph glyph-name="l" unicode="l" horiz-adv-x="466" 
d="M184 0v1516h99v-1516h-99z" />
    <glyph glyph-name="m" unicode="m" horiz-adv-x="1861" 
d="M172 0v1075h98v-178q211 201 404 201q246 0 299 -203q221 203 416 203q311 0 311 -318v-780h-98v768q0 125 -52 184t-172 60q-178 0 -393 -205v-807h-98v768q0 127 -51 185t-172 59q-178 0 -394 -205v-807h-98z" />
    <glyph glyph-name="n" unicode="n" horiz-adv-x="1173" 
d="M172 0v1075h98v-178q211 201 416 201q164 0 245 -84t81 -234v-780h-99v768q0 125 -57 184t-178 60q-193 0 -408 -205v-807h-98z" />
    <glyph glyph-name="o" unicode="o" horiz-adv-x="1167" 
d="M581 63q173 -1 275 133t102 338t-100 340t-272 138q-172 0 -274 -134t-103 -337t99 -341t273 -137zM584 -23q-203 0 -338 154t-135 407q0 252 134 406t338 154t339 -154t135 -406t-135 -407q-135 -154 -338 -154z" />
    <glyph glyph-name="p" unicode="p" horiz-adv-x="1200" 
d="M172 -410v1485h98v-157q172 180 368 180t323 -144t127 -415q0 -269 -129 -413q-128 -144 -318 -144t-371 176v-568h-98zM639 68q152 0 251 118t99 350t-101 354t-253 122q-102 0 -184 -46t-181 -147v-559q189 -192 369 -192z" />
    <glyph glyph-name="q" unicode="q" horiz-adv-x="1200" 
d="M565 68q103 0 185 46t180 146v559q-188 193 -369 193q-152 0 -251 -120t-99 -352t101 -352t253 -120zM930 -410v572q-172 -180 -368 -180t-322 142t-127 412q0 270 128 416t318 146t371 -176v153h98v-1485h-98z" />
    <glyph glyph-name="r" unicode="r" horiz-adv-x="794" 
d="M172 0v1075h98v-225h4q158 248 443 248h28l-16 -92h-35q-137 0 -248 -77t-176 -220v-709h-98z" />
    <glyph glyph-name="s" unicode="s" horiz-adv-x="1024" 
d="M502 -18q-266 0 -404 198l72 56q131 -168 334 -168q150 0 228 56t79 156q0 100 -69 150q-69 51 -262 98t-272 113q-79 67 -79 183t94 195t260 79q229 0 381 -158l-65 -68q-129 139 -318 140q-125 0 -189 -52t-65 -132q-1 -78 57 -123t254 -93t283 -119q88 -71 88 -210
t-112 -221q-113 -80 -295 -80z" />
    <glyph glyph-name="t" unicode="t" horiz-adv-x="716" 
d="M506 -14q-135 0 -200 59t-64 195v747h-189v88h189v391h98v-391h281v-88h-281v-733q0 -92 39 -136t122 -44t126 14v-92q-58 -10 -121 -10z" />
    <glyph glyph-name="u" unicode="u" horiz-adv-x="1173" 
d="M487 -23q-165 0 -245 84t-80 234v780h98v-768q0 -125 57 -184t179 -60q193 0 407 205v807h98v-1075h-98v178q-211 -201 -416 -201z" />
    <glyph glyph-name="v" unicode="v" horiz-adv-x="1028" 
d="M465 -6l-399 1081h108l340 -952h4l338 952h107l-400 -1081h-98z" />
    <glyph glyph-name="w" unicode="w" horiz-adv-x="1517" 
d="M401 0l-333 1075h104l166 -565q80 -283 106 -375h5q55 211 102 373l160 567h100l162 -579q45 -158 98 -361h4q74 262 103 357l172 583h100l-334 -1075h-92l-262 938h-4l-266 -938h-91z" />
    <glyph glyph-name="x" unicode="x" horiz-adv-x="1030" 
d="M72 0l391 557l-363 518h113l303 -442l305 442h111l-365 -516l391 -559h-112l-332 481l-332 -481h-110z" />
    <glyph glyph-name="y" unicode="y" horiz-adv-x="1062" 
d="M178 -410q-86 0 -147 19l24 82q53 -15 141 -15t144 43q55 43 92 142l51 133l-417 1081h108l356 -956h5l356 956h106l-465 -1202q-59 -155 -133 -219t-221 -64z" />
    <glyph glyph-name="z" unicode="z" horiz-adv-x="1024" 
d="M90 0v68l686 921h-631v86h758v-67l-688 -922h713v-86h-838z" />
    <glyph glyph-name="braceleft" unicode="{" horiz-adv-x="749" 
d="M563 -410q-137 0 -198 68t-62 205v405q0 142 -52 194t-175 52v78q123 0 175 51t52 195v405q-1 137 61 205t199 68h90v-82h-90q-160 0 -160 -156v-438q0 -138 -41 -196t-133 -89v-4q92 -31 133 -88t41 -197v-438q0 -156 160 -156h90v-82h-90z" />
    <glyph glyph-name="bar" unicode="|" horiz-adv-x="679" 
d="M293 -410v1926h94v-1926h-94z" />
    <glyph glyph-name="braceright" unicode="}" horiz-adv-x="749" 
d="M96 -410v82h90q160 0 160 156v438q0 138 41 196t133 89v4q-92 31 -133 88t-41 197v438q0 164 -151 164h-91l-8 74h90q136 0 198 -68t62 -205v-405q0 -142 52 -194t176 -52v-78q-123 0 -175 -51t-53 -195v-405q0 -137 -61 -205t-199 -68h-90z" />
    <glyph glyph-name="asciitilde" unicode="~" horiz-adv-x="1298" 
d="M1145 741q-7 -100 -65 -147t-134 -41t-316 78q-241 72 -282 76q-111 10 -121 -97l-73 6q8 100 63 146t131 41q76 -6 318 -78t282 -76q113 -6 121 99z" />
    <glyph glyph-name="exclamdown" unicode="&#xa1;" horiz-adv-x="620" 
d="M250 0l37 1118h47l37 -1118h-121zM242 1352v164h137v-164h-137z" />
    <glyph glyph-name="cent" unicode="&#xa2;" horiz-adv-x="1077" 
d="M567 63q119 -1 193 59t139 189l78 -39q-72 -147 -170 -221t-246 -74q-68 0 -135 23l-72 -264h-82l82 299q-112 67 -178 197t-65 305q0 268 135 414t329 147q23 0 64 -4l57 213h82l-63 -232q168 -55 260 -264l-84 -45q-76 180 -203 227l-244 -905q59 -25 123 -25z
M555 1012q-50 0 -111 -26t-115 -79t-87 -148t-33 -220q0 -289 172 -416l240 887q-16 2 -66 2z" />
    <glyph glyph-name="sterling" unicode="&#xa3;" horiz-adv-x="1210" 
d="M301 303q-69 0 -104 -37t-35 -93t35 -87t86 -31q143 0 196 150q-109 98 -178 98zM176 762v90h205q-102 193 -102 317q0 167 99 271t278 104t274 -108q94 -109 102 -267l-100 -6q-18 291 -285 291q-127 0 -197 -75t-71 -208q0 -83 35 -161l12 -30q24 -55 30 -63
q5 -7 17 -33t16 -32h351v-90h-303q75 -166 75 -301t-28 -238q59 -55 90 -81t85 -54t103 -27q94 0 140 72t57 227h94q-20 -389 -293 -389q-56 0 -116 28q-60 29 -98 59t-95 83q-90 -170 -270 -170q-81 1 -145 53t-64 145t59 155t159 63q100 0 214 -92q12 63 12 151
q0 144 -88 316h-252z" />
    <glyph glyph-name="currency" unicode="&#xa4;" horiz-adv-x="1298" 
d="M648 479q110 0 180 71q70 72 71 184q0 112 -71 182q-70 70 -180 71q-110 0 -180 -71q-70 -72 -71 -184q1 -112 71 -182t180 -71zM648 401q-118 0 -204 64l-217 -217l-59 59l215 215q-70 92 -70 210t66 206l-211 211l59 59l211 -211q90 68 212 68t208 -68l211 211l59 -59
l-210 -211q66 -88 66 -206t-71 -210l215 -215l-59 -59l-217 217q-86 -64 -204 -64z" />
    <glyph glyph-name="yen" unicode="&#xa5;" horiz-adv-x="1230" 
d="M563 0v281h-397v94h397v215h-397v92h393l-500 834h115l444 -754l443 754h110l-501 -834h397v-92h-401v-215h401v-94h-401v-281h-103z" />
    <glyph glyph-name="brokenbar" unicode="&#xa6;" horiz-adv-x="679" 
d="M293 -410v838h94v-838h-94zM293 678v838h94v-838h-94z" />
    <glyph glyph-name="section" unicode="&#xa7;" horiz-adv-x="1060" 
d="M532 -410q-319 0 -382 301l94 21q28 -115 96 -173t190 -58t183 58q59 58 59 140q0 83 -50 145t-249 178t-279 197q-80 82 -81 201q0 209 276 340q-123 84 -167 152t-44 171t96 192t254 89q328 0 392 -301l-95 -20q-29 115 -97 173q-69 58 -195 58t-189 -58t-63 -140
t53 -143q53 -63 253 -179q201 -116 281 -198t80 -200t-80 -204t-194 -139q121 -82 161 -149q39 -66 39 -172t-92 -194t-250 -88zM848 532q0 86 -67 149t-303 205q-5 3 -7 3q-258 -111 -258 -287q0 -86 69 -150t293 -198l15 -8q258 111 258 286z" />
    <glyph glyph-name="dieresis" unicode="&#xa8;" horiz-adv-x="1024" 
d="M274 1192v137h132v-137h-132zM618 1192v137h132v-137h-132z" />
    <glyph glyph-name="copyright" unicode="&#xa9;" horiz-adv-x="1765" 
d="M879 319q-162 0 -258 126q-97 126 -97 324t98 325t257 127q242 0 315 -275l-74 -18q-33 115 -89 168t-152 53q-125 0 -201 -103q-76 -104 -76 -276t75 -275t204 -104q190 0 252 232q61 -16 73 -19q-36 -137 -120 -211t-207 -74zM883 41q295 0 501 211t205 506
q0 295 -206 506q-207 211 -501 211t-500 -211t-206 -506t206 -506t501 -211zM883 -29q-326 1 -553 231t-228 556q0 326 228 556t553 230q326 0 553 -230t227 -556t-227 -556t-553 -231z" />
    <glyph glyph-name="ordfeminine" unicode="&#xaa;" horiz-adv-x="835" 
d="M332 760q-106 0 -164 51q-57 51 -57 139q0 115 116 193q117 78 402 127v39q0 162 -156 161q-158 0 -285 -122l-59 49q158 147 346 147q119 0 178 -61t60 -170v-346q0 -131 28 -191h-94q-16 49 -18 101q-147 -117 -297 -117zM197 954q1 -118 147 -118t285 129v237
q-246 -41 -339 -101t-93 -147z" />
    <glyph glyph-name="guillemotleft" unicode="&#xab;" horiz-adv-x="1015" 
d="M774 0l-297 539l297 536h109l-293 -536l293 -539h-109zM397 0l-295 539l295 536h109l-291 -536l291 -539h-109z" />
    <glyph glyph-name="logicalnot" unicode="&#xac;" horiz-adv-x="1286" 
d="M1151 717v-557h-88v473h-930v84h1018z" />
    <glyph glyph-name="registered" unicode="&#xae;" horiz-adv-x="1128" 
d="M393 815v533h178q89 0 137 -38t48 -106q0 -119 -119 -143l135 -246h-67l-132 238h-120v-238h-60zM453 1108h116q127 0 127 94q0 88 -129 88h-114v-182zM565 649q174 0 296 124t122 299t-123 300t-295 125t-295 -125t-123 -300t122 -299t296 -124zM565 594
q-199 0 -337 139t-138 339t138 339t337 139t336 -139t137 -339t-137 -339t-336 -139z" />
    <glyph glyph-name="macron" unicode="&#xaf;" horiz-adv-x="1024" 
d="M274 1192v94h476v-94h-476z" />
    <glyph glyph-name="degree" unicode="&#xb0;" horiz-adv-x="819" 
d="M410 1069q84 0 138 55q54 56 54 144t-54 143t-138 55t-138 -55t-55 -143q0 -88 54 -144q55 -55 139 -55zM410 991q-121 0 -201 79t-80 198q0 120 80 198t201 78q120 0 200 -79t80 -197t-80 -198q-80 -79 -200 -79z" />
    <glyph glyph-name="plusminus" unicode="&#xb1;" horiz-adv-x="1298" 
d="M133 119v90h469v471h-469v90h469v471h94v-471h469v-90h-469v-471h469v-90h-1032z" />
    <glyph glyph-name="two.sups" unicode="&#xb2;" horiz-adv-x="899" 
d="M143 578v36q0 106 71 204t249 212q98 64 140 118t42 129t-48 124t-130 49t-134 -40t-95 -130l-80 39q100 217 305 217q125 0 200 -73t75 -180t-56 -179q-55 -72 -195 -160q-229 -145 -245 -276h499v-90h-598z" />
    <glyph glyph-name="three.sups" unicode="&#xb3;" horiz-adv-x="899" 
d="M446 559q-211 0 -323 197l74 49q94 -158 252 -158q98 0 155 51q58 52 58 146q1 195 -291 194h-47v78h55q264 0 264 174q0 72 -47 116t-143 44q-121 0 -217 -123l-72 47q121 162 291 162q141 0 212 -71t70 -171q0 -164 -162 -217q180 -55 181 -241q0 -117 -84 -197
t-226 -80z" />
    <glyph glyph-name="acute" unicode="&#xb4;" horiz-adv-x="1024" 
d="M356 1192l195 309h154l-285 -309h-64z" />
    <glyph glyph-name="uni00B5" unicode="&#xb5;" horiz-adv-x="1183" 
d="M172 -410v1485h98v-768q0 -125 58 -184t178 -60q193 0 407 205v807h99v-1075h-99v178q-211 -201 -415 -201q-160 0 -228 89v-476h-98z" />
    <glyph glyph-name="paragraph" unicode="&#xb6;" horiz-adv-x="1259" 
d="M633 -410v1112q-498 10 -498 404q0 182 124 296t345 114h447v-1926h-99v1833h-221v-1833h-98z" />
    <glyph glyph-name="periodcentered" unicode="&#xb7;" horiz-adv-x="542" 
d="M203 561v164h137v-164h-137z" />
    <glyph glyph-name="cedilla" unicode="&#xb8;" horiz-adv-x="1024" 
d="M748 -221q0 -174 -252 -174q-118 0 -230 73l33 52q92 -61 197 -62q164 0 163 105q0 76 -90 75q-57 0 -112 -43l-51 25l51 170h75l-34 -115q47 31 106 31q60 0 102 -36t42 -101z" />
    <glyph glyph-name="one.sups" unicode="&#xb9;" horiz-adv-x="698" 
d="M168 578v86h174v739q-76 -33 -170 -33v86q129 4 182 60h80v-852h158v-86h-424z" />
    <glyph glyph-name="ordmasculine" unicode="&#xba;" horiz-adv-x="862" 
d="M432 1470q-118 0 -186 -90q-70 -90 -70 -225t66 -227t186 -92q118 0 188 89t70 225t-68 228t-186 92zM430 760q-145 0 -242 106q-96 106 -96 286t95 286t243 106t244 -106t96 -286t-97 -286q-98 -106 -243 -106z" />
    <glyph glyph-name="guillemotright" unicode="&#xbb;" horiz-adv-x="1015" 
d="M510 0l291 539l-291 536h108l295 -536l-295 -539h-108zM133 0l293 539l-293 536h109l297 -536l-297 -539h-109z" />
    <glyph glyph-name="onequarter" unicode="&#xbc;" horiz-adv-x="1857" 
d="M1475 322v483l-318 -483h318zM1475 0v233h-437v64l422 645h107v-620h153v-89h-153v-233h-92zM209 578v86h174v739q-76 -33 -170 -33v86q129 4 182 60h80v-852h158v-86h-424zM453 0l907 1516h98l-907 -1516h-98z" />
    <glyph glyph-name="onehalf" unicode="&#xbd;" horiz-adv-x="1939" 
d="M1180 0v37q0 106 70 204q71 97 249 212q98 63 140 117t42 129t-48 124t-130 49t-134 -40t-95 -130l-80 39q100 217 305 217q125 0 200 -72t75 -180t-56 -180t-194 -159q-229 -145 -246 -277h500v-90h-598zM453 0l907 1516h98l-907 -1516h-98zM209 578v86h174v739
q-76 -33 -170 -33v86q129 4 182 60h80v-852h158v-86h-424z" />
    <glyph glyph-name="threequarters" unicode="&#xbe;" horiz-adv-x="1906" 
d="M446 559q-211 0 -323 197l74 49q94 -158 252 -158q98 0 155 51q58 52 58 146q1 195 -291 194h-47v78h55q264 0 264 174q0 72 -47 116t-143 44q-121 0 -217 -123l-72 47q121 162 291 162q141 0 212 -71t70 -171q0 -164 -162 -217q180 -55 181 -241q0 -117 -84 -197
t-226 -80zM1524 322v483l-318 -483h318zM1524 0v233h-437v64l422 645h107v-620h153v-89h-153v-233h-92zM504 0l907 1516h98l-907 -1516h-98z" />
    <glyph glyph-name="questiondown" unicode="&#xbf;" horiz-adv-x="1077" 
d="M524 -29q-170 1 -292 103t-122 252t67 234q67 83 194 160q127 78 157 148t31 250h80q4 -74 4 -158t-38 -152q-39 -68 -161 -144t-176 -141t-55 -187q0 -122 88 -198q87 -75 229 -75q142 1 226 55t159 165l78 -54q-92 -125 -195 -191t-274 -67zM530 1352v164h138v-164
h-138z" />
    <glyph glyph-name="Agrave" unicode="&#xc0;" horiz-adv-x="1357" 
d="M82 0l536 1522h121l537 -1522h-109l-176 508h-629l-176 -508h-104zM395 600h563l-280 807h-4zM645 1612l-285 309h154l195 -309h-64z" />
    <glyph glyph-name="Aacute" unicode="&#xc1;" horiz-adv-x="1357" 
d="M82 0l536 1522h121l537 -1522h-109l-176 508h-629l-176 -508h-104zM395 600h563l-280 807h-4zM651 1612l195 309h153l-284 -309h-64z" />
    <glyph glyph-name="Acircumflex" unicode="&#xc2;" horiz-adv-x="1357" 
d="M82 0l536 1522h121l537 -1522h-109l-176 508h-629l-176 -508h-104zM395 600h563l-280 807h-4zM373 1602l264 319h82l264 -319h-68l-239 213l-240 -213h-63z" />
    <glyph glyph-name="Atilde" unicode="&#xc3;" horiz-adv-x="1357" 
d="M82 0l536 1522h121l537 -1522h-109l-176 508h-629l-176 -508h-104zM395 600h563l-280 807h-4zM829 1608q-55 0 -159 57t-146 57t-62 -26q-19 -26 -20 -84h-69q0 203 157 203q56 1 160 -57t146 -58t62 26q19 26 20 84h69q0 -202 -158 -202z" />
    <glyph glyph-name="Adieresis" unicode="&#xc4;" horiz-adv-x="1357" 
d="M82 0l536 1522h121l537 -1522h-109l-176 508h-629l-176 -508h-104zM395 600h563l-280 807h-4zM440 1612v137h131v-137h-131zM784 1612v137h131v-137h-131z" />
    <glyph glyph-name="Aring" unicode="&#xc5;" horiz-adv-x="1357" 
d="M856 1645q0 -117 -102 -162l522 -1483h-109l-176 508h-629l-176 -508h-104l522 1481q-104 45 -104 173q0 66 51 116t127 50t127 -50t51 -125zM395 600h563l-280 807h-4zM678 1526q49 0 81 34t32 85t-32 84t-81 33t-81 -34q-32 -32 -32 -83t32 -85t81 -34z" />
    <glyph glyph-name="AE" unicode="&#xc6;" horiz-adv-x="2002" 
d="M1860 1516v-95h-775v-569h582v-94h-582v-664h820v-94h-922v508h-528l-289 -508h-105l863 1516h936zM983 600v836h-2l-473 -836h475z" />
    <glyph glyph-name="Ccedilla" unicode="&#xc7;" horiz-adv-x="1417" 
d="M983 -221q1 -174 -251 -174q-118 0 -230 73l33 52q92 -61 196 -62q164 0 164 105q0 76 -90 75q-57 0 -113 -43l-51 25l43 143q-256 27 -406 243t-149 551q0 335 170 556t446 221q418 0 535 -459l-98 -22q-56 199 -158 294t-281 95q-229 0 -370 -188t-141 -506t140 -506
t376 -189q354 0 460 408l97 -22q-53 -221 -195 -347t-350 -131l-27 -86q47 31 107 31t101 -36q42 -36 42 -101z" />
    <glyph glyph-name="Egrave" unicode="&#xc8;" horiz-adv-x="1222" 
d="M203 0v1516h876v-95h-774v-569h582v-94h-582v-664h819v-94h-921zM649 1612l-284 309h153l195 -309h-64z" />
    <glyph glyph-name="Eacute" unicode="&#xc9;" horiz-adv-x="1222" 
d="M203 0v1516h876v-95h-774v-569h582v-94h-582v-664h819v-94h-921zM575 1612l195 309h154l-285 -309h-64z" />
    <glyph glyph-name="Ecircumflex" unicode="&#xca;" horiz-adv-x="1222" 
d="M203 0v1516h876v-95h-774v-569h582v-94h-582v-664h819v-94h-921zM334 1602l264 319h82l264 -319h-67l-240 213l-240 -213h-63z" />
    <glyph glyph-name="Edieresis" unicode="&#xcb;" horiz-adv-x="1222" 
d="M203 0v1516h876v-95h-774v-569h582v-94h-582v-664h819v-94h-921zM414 1612v137h131v-137h-131zM758 1612v137h131v-137h-131z" />
    <glyph glyph-name="Igrave" unicode="&#xcc;" horiz-adv-x="552" 
d="M225 0v1516h103v-1516h-103zM260 1612l-285 309h154l195 -309h-64z" />
    <glyph glyph-name="Iacute" unicode="&#xcd;" horiz-adv-x="552" 
d="M225 0v1516h103v-1516h-103zM254 1612l195 309h153l-285 -309h-63z" />
    <glyph glyph-name="Icircumflex" unicode="&#xce;" horiz-adv-x="552" 
d="M225 0v1516h103v-1516h-103zM-29 1602l265 319h81l265 -319h-68l-240 213l-239 -213h-64z" />
    <glyph glyph-name="Idieresis" unicode="&#xcf;" horiz-adv-x="552" 
d="M225 0v1516h103v-1516h-103zM39 1612v137h131v-137h-131zM383 1612v137h131v-137h-131z" />
    <glyph glyph-name="Eth" unicode="&#xd0;" horiz-adv-x="1437" 
d="M305 94h285q297 0 457 164q159 164 159 499t-160 499t-460 165h-281v-569h332v-94h-332v-664zM203 0v758h-178v94h178v664h364q371 0 556 -194t185 -562t-186 -564q-188 -196 -555 -196h-364z" />
    <glyph glyph-name="Ntilde" unicode="&#xd1;" horiz-adv-x="1505" 
d="M203 0v1516h116l881 -1315h4v1315h99v-1516h-89l-909 1360h-4v-1360h-98zM924 1608q-56 0 -160 57t-146 57t-62 -25q-19 -26 -19 -85h-70q0 203 158 203q55 1 159 -57t146 -58t62 26q19 26 20 84h69q1 -202 -157 -202z" />
    <glyph glyph-name="Ograve" unicode="&#xd2;" horiz-adv-x="1501" 
d="M751 63q228 -1 373 187q146 188 146 508t-146 506q-146 188 -373 188t-373 -187t-146 -507t145 -507q146 -188 374 -188zM752 -29q-274 0 -449 219q-174 220 -174 568t174 567q175 219 449 219t447 -220t173 -566t-173 -566t-447 -221zM729 1612l-285 309h154l195 -309
h-64z" />
    <glyph glyph-name="Oacute" unicode="&#xd3;" horiz-adv-x="1501" 
d="M751 63q228 -1 373 187q146 188 146 508t-146 506q-146 188 -373 188t-373 -187t-146 -507t145 -507q146 -188 374 -188zM752 -29q-274 0 -449 219q-174 220 -174 568t174 567q175 219 449 219t447 -220t173 -566t-173 -566t-447 -221zM698 1612l195 309h154l-285 -309
h-64z" />
    <glyph glyph-name="Ocircumflex" unicode="&#xd4;" horiz-adv-x="1501" 
d="M751 63q228 -1 373 187q146 188 146 508t-146 506q-146 188 -373 188t-373 -187t-146 -507t145 -507q146 -188 374 -188zM752 -29q-274 0 -449 219q-174 220 -174 568t174 567q175 219 449 219t447 -220t173 -566t-173 -566t-447 -221zM444 1602l265 319h82l264 -319h-68
l-239 213l-240 -213h-64z" />
    <glyph glyph-name="Otilde" unicode="&#xd5;" horiz-adv-x="1501" 
d="M751 63q228 -1 373 187q146 188 146 508t-146 506q-146 188 -373 188t-373 -187t-146 -507t145 -507q146 -188 374 -188zM752 -29q-274 0 -449 219q-174 220 -174 568t174 567q175 219 449 219t447 -220t173 -566t-173 -566t-447 -221zM897 1608q-57 0 -161 57t-145 57
q-42 0 -62 -25q-19 -26 -19 -85h-70q0 203 158 203q58 1 162 -57t145 -58t61 25q19 26 19 85h70q0 -202 -158 -202z" />
    <glyph glyph-name="Odieresis" unicode="&#xd6;" horiz-adv-x="1501" 
d="M751 63q228 -1 373 187q146 188 146 508t-146 506q-146 188 -373 188t-373 -187t-146 -507t145 -507q146 -188 374 -188zM752 -29q-274 0 -449 219q-174 220 -174 568t174 567q175 219 449 219t447 -220t173 -566t-173 -566t-447 -221zM512 1612v137h131v-137h-131z
M856 1612v137h131v-137h-131z" />
    <glyph glyph-name="multiply" unicode="&#xd7;" horiz-adv-x="1298" 
d="M289 227l-60 60l359 358l-359 361l60 59l358 -360l361 360l59 -59l-360 -361l360 -358l-59 -60l-361 361z" />
    <glyph glyph-name="Oslash" unicode="&#xd8;" horiz-adv-x="1501" 
d="M1372 752q0 -340 -173 -560t-447 -221q-240 0 -408 172l-131 -174l-70 45l146 195q-160 219 -160 558t174 558t449 219q238 0 405 -172l131 174l70 -45l-146 -194q160 -215 160 -555zM758 63q220 -1 366 187t146 488t-119 489l-752 -1002q139 -162 359 -162zM742 1452
q-218 0 -364 -187t-146 -489t120 -489l750 1005q-141 160 -360 160z" />
    <glyph glyph-name="Ugrave" unicode="&#xd9;" horiz-adv-x="1460" 
d="M729 -29q-256 0 -396 151t-140 374v1020h102v-996q-1 -203 109 -330t326 -127t326 125t109 328v1000h103v-1014q0 -225 -142 -378t-397 -153zM723 1612l-285 309h154l194 -309h-63z" />
    <glyph glyph-name="Uacute" unicode="&#xda;" horiz-adv-x="1460" 
d="M729 -29q-256 0 -396 151t-140 374v1020h102v-996q-1 -203 109 -330t326 -127t326 125t109 328v1000h103v-1014q0 -225 -142 -378t-397 -153zM659 1612l195 309h154l-285 -309h-64z" />
    <glyph glyph-name="Ucircumflex" unicode="&#xdb;" horiz-adv-x="1460" 
d="M729 -29q-256 0 -396 151t-140 374v1020h102v-996q-1 -203 109 -330t326 -127t326 125t109 328v1000h103v-1014q0 -225 -142 -378t-397 -153zM424 1602l264 319h82l264 -319h-67l-240 213l-240 -213h-63z" />
    <glyph glyph-name="Udieresis" unicode="&#xdc;" horiz-adv-x="1460" 
d="M729 -29q-256 0 -396 151t-140 374v1020h102v-996q-1 -203 109 -330t326 -127t326 125t109 328v1000h103v-1014q0 -225 -142 -378t-397 -153zM492 1612v137h131v-137h-131zM836 1612v137h131v-137h-131z" />
    <glyph glyph-name="Yacute" unicode="&#xdd;" horiz-adv-x="1230" 
d="M563 0v674l-504 842h115l444 -754l443 754h110l-505 -842v-674h-103zM535 1612l194 309h154l-285 -309h-63z" />
    <glyph glyph-name="Thorn" unicode="&#xde;" horiz-adv-x="1310" 
d="M305 502h383q207 0 311 72q105 72 105 238q0 165 -106 237t-312 71h-381v-618zM203 0v1516h102v-302h391q246 -2 378 -103t132 -299t-138 -301t-388 -103h-375v-408h-102z" />
    <glyph glyph-name="germandbls" unicode="&#xdf;" horiz-adv-x="1222" 
d="M1108 425q0 -200 -104 -324t-282 -124q-179 0 -286 113l64 64q94 -90 225 -90t208 96t77 278t-122 273q-122 92 -370 102v82q178 2 269 79q91 76 91 198t-80 190q-81 68 -224 68q-144 0 -224 -92t-80 -261v-1077h-98v1069q0 209 108 328t294 119t294 -90t109 -252
q0 -115 -69 -199t-195 -117q179 -25 287 -129t108 -304z" />
    <glyph glyph-name="agrave" unicode="&#xe0;" horiz-adv-x="1105" 
d="M412 -18q-145 0 -225 70q-79 71 -78 196q1 164 167 274t572 178v66q0 244 -240 246q-119 0 -216 -45t-195 -133l-58 61q109 99 221 151t266 52t237 -86t83 -240v-506q0 -190 31 -266h-105q-25 78 -24 160q-207 -178 -436 -178zM420 68q233 0 428 188v371
q-367 -63 -504 -155t-137 -218q1 -90 57 -138t156 -48zM575 1192l-284 309h153l195 -309h-64z" />
    <glyph glyph-name="aacute" unicode="&#xe1;" horiz-adv-x="1105" 
d="M412 -18q-145 0 -225 70q-79 71 -78 196q1 164 167 274t572 178v66q0 244 -240 246q-119 0 -216 -45t-195 -133l-58 61q109 99 221 151t266 52t237 -86t83 -240v-506q0 -190 31 -266h-105q-25 78 -24 160q-207 -178 -436 -178zM420 68q233 0 428 188v371
q-367 -63 -504 -155t-137 -218q1 -90 57 -138t156 -48zM516 1192l195 309h153l-284 -309h-64z" />
    <glyph glyph-name="acircumflex" unicode="&#xe2;" horiz-adv-x="1105" 
d="M412 -18q-145 0 -225 70q-79 71 -78 196q1 164 167 274t572 178v66q0 244 -240 246q-119 0 -216 -45t-195 -133l-58 61q109 99 221 151t266 52t237 -86t83 -240v-506q0 -190 31 -266h-105q-25 78 -24 160q-207 -178 -436 -178zM420 68q233 0 428 188v371
q-367 -63 -504 -155t-137 -218q1 -90 57 -138t156 -48zM264 1182l264 319h82l264 -319h-67l-240 213l-239 -213h-64z" />
    <glyph glyph-name="atilde" unicode="&#xe3;" horiz-adv-x="1105" 
d="M412 -18q-145 0 -225 70q-79 71 -78 196q1 164 167 274t572 178v66q0 244 -240 246q-119 0 -216 -45t-195 -133l-58 61q109 99 221 151t266 52t237 -86t83 -240v-506q0 -190 31 -266h-105q-25 78 -24 160q-207 -178 -436 -178zM420 68q233 0 428 188v371
q-367 -63 -504 -155t-137 -218q1 -90 57 -138t156 -48zM715 1188q-55 0 -159 57t-147 57q-41 0 -61 -25q-20 -26 -20 -85h-70q0 203 158 203q55 1 159 -57q105 -58 147 -58t61 26t20 85h69q1 -203 -157 -203z" />
    <glyph glyph-name="adieresis" unicode="&#xe4;" horiz-adv-x="1105" 
d="M412 -18q-145 0 -225 70q-79 71 -78 196q1 164 167 274t572 178v66q0 244 -240 246q-119 0 -216 -45t-195 -133l-58 61q109 99 221 151t266 52t237 -86t83 -240v-506q0 -190 31 -266h-105q-25 78 -24 160q-207 -178 -436 -178zM420 68q233 0 428 188v371
q-367 -63 -504 -155t-137 -218q1 -90 57 -138t156 -48zM346 1192v137h131v-137h-131zM690 1192v137h131v-137h-131z" />
    <glyph glyph-name="aring" unicode="&#xe5;" horiz-adv-x="1105" 
d="M412 -18q-145 0 -225 70q-79 71 -78 196q1 164 167 274t572 178v66q0 244 -240 246q-119 0 -216 -45t-195 -133l-58 61q109 99 221 151t266 52t237 -86t83 -240v-506q0 -190 31 -266h-105q-25 78 -24 160q-207 -178 -436 -178zM420 68q233 0 428 188v371
q-367 -63 -504 -155t-137 -218q1 -90 57 -138t156 -48zM588 1237q49 0 81 34t31 85q0 51 -31 84q-32 33 -81 33t-81 -33t-32 -84t32 -85t81 -34zM588 1178q-76 0 -127 50t-51 127t51 127t127 50t127 -50t51 -127t-51 -127t-127 -50z" />
    <glyph glyph-name="ae" unicode="&#xe6;" horiz-adv-x="1828" 
d="M420 63q244 0 459 228q-39 113 -39 248q0 31 4 88q-381 -66 -516 -167q-68 -50 -95 -100t-27 -124q0 -76 58 -124q56 -48 156 -49zM1300 1012q-140 0 -242 -104q-100 -104 -118 -294h676q-12 176 -94 287t-222 111zM412 -23q-145 0 -225 71q-79 71 -78 196
q-1 164 165 278t570 180v64q0 246 -232 246q-125 0 -220 -44t-195 -134l-58 61q109 99 219 151t256 52q264 0 308 -242q55 110 152 176t220 66q193 0 309 -150t115 -401v-15h-780q0 -213 102 -341t256 -128q121 -1 200 55t144 169l72 -45q-143 -264 -422 -265
q-117 1 -217 63t-162 177q-239 -240 -499 -240z" />
    <glyph glyph-name="ccedilla" unicode="&#xe7;" horiz-adv-x="1077" 
d="M797 -221q1 -174 -251 -174q-118 0 -231 73l33 52q92 -61 197 -62q164 0 164 105q0 76 -91 75q-57 0 -112 -43l-51 25l45 152q-168 26 -279 176t-111 398t136 395q135 146 329 147q272 0 400 -287l-84 -45q-53 123 -127 184q-74 62 -201 62t-234 -105q-54 -53 -87 -148
t-33 -220q0 -219 102 -347t256 -129q119 -1 193 59t139 189l78 -39q-70 -143 -165 -218t-237 -77l-28 -92q47 31 106 31t101 -36t43 -101z" />
    <glyph glyph-name="egrave" unicode="&#xe8;" horiz-adv-x="1103" 
d="M572 1012q-140 0 -242 -104t-119 -294h680q-12 176 -95 287q-84 111 -224 111zM563 -23q-188 0 -320 153t-132 413t135 407q134 148 324 148t307 -150t116 -401v-15h-784q0 -213 103 -341t257 -128q121 -1 201 55t145 169l72 -45q-143 -265 -424 -265zM541 1192l-285 309
h154l194 -309h-63z" />
    <glyph glyph-name="eacute" unicode="&#xe9;" horiz-adv-x="1103" 
d="M572 1012q-140 0 -242 -104t-119 -294h680q-12 176 -95 287q-84 111 -224 111zM563 -23q-188 0 -320 153t-132 413t135 407q134 148 324 148t307 -150t116 -401v-15h-784q0 -213 103 -341t257 -128q121 -1 201 55t145 169l72 -45q-143 -265 -424 -265zM520 1192l195 309
h153l-284 -309h-64z" />
    <glyph glyph-name="ecircumflex" unicode="&#xea;" horiz-adv-x="1103" 
d="M572 1012q-140 0 -242 -104t-119 -294h680q-12 176 -95 287q-84 111 -224 111zM563 -23q-188 0 -320 153t-132 413t135 407q134 148 324 148t307 -150t116 -401v-15h-784q0 -213 103 -341t257 -128q121 -1 201 55t145 169l72 -45q-143 -265 -424 -265zM264 1182l264 319
h82l264 -319h-67l-240 213l-239 -213h-64z" />
    <glyph glyph-name="edieresis" unicode="&#xeb;" horiz-adv-x="1103" 
d="M572 1012q-140 0 -242 -104t-119 -294h680q-12 176 -95 287q-84 111 -224 111zM563 -23q-188 0 -320 153t-132 413t135 407q134 148 324 148t307 -150t116 -401v-15h-784q0 -213 103 -341t257 -128q121 -1 201 55t145 169l72 -45q-143 -265 -424 -265zM324 1192v137h131
v-137h-131zM668 1192v137h131v-137h-131z" />
    <glyph glyph-name="igrave" unicode="&#xec;" horiz-adv-x="466" 
d="M184 0v1075h99v-1075h-99zM225 1192l-284 309h153l195 -309h-64z" />
    <glyph glyph-name="iacute" unicode="&#xed;" horiz-adv-x="466" 
d="M184 0v1075h99v-1075h-99zM217 1192l195 309h153l-284 -309h-64z" />
    <glyph glyph-name="icircumflex" unicode="&#xee;" horiz-adv-x="466" 
d="M184 0v1075h99v-1075h-99zM-72 1182l265 319h81l265 -319h-68l-240 213l-239 -213h-64z" />
    <glyph glyph-name="idieresis" unicode="&#xef;" horiz-adv-x="466" 
d="M184 0v1075h99v-1075h-99zM-4 1192v137h131v-137h-131zM340 1192v137h131v-137h-131z" />
    <glyph glyph-name="eth" unicode="&#xf0;" horiz-adv-x="1167" 
d="M584 991q-172 0 -274 -125q-102 -124 -101 -326q-1 -202 99 -340t273 -137q173 -1 275 133t102 336t-101 330t-273 129zM584 -23q-203 0 -338 154t-135 406t133 396t340 144q110 0 202 -56t148 -147q-57 233 -205 388l-240 -86l-30 81l200 72q-61 55 -165 117l49 74
q131 -72 215 -154l215 78l31 -82l-179 -66q231 -268 232 -759q0 -252 -135 -406t-338 -154z" />
    <glyph glyph-name="ntilde" unicode="&#xf1;" horiz-adv-x="1173" 
d="M172 0v1075h98v-178q211 201 416 201q164 0 245 -84t81 -234v-780h-99v768q0 125 -57 184t-178 60q-193 0 -408 -205v-807h-98zM754 1188q-56 0 -160 57t-146 57t-62 -25q-20 -26 -19 -85h-70q0 203 158 203q57 1 161 -57t146 -58t60 26q19 26 20 85h69q1 -203 -157 -203
z" />
    <glyph glyph-name="ograve" unicode="&#xf2;" horiz-adv-x="1167" 
d="M581 63q173 -1 275 133t102 338t-100 340t-272 138q-172 0 -274 -134t-103 -337t99 -341t273 -137zM584 -23q-203 0 -338 154t-135 407q0 252 134 406t338 154t339 -154t135 -406t-135 -407q-135 -154 -338 -154zM561 1192l-285 309h154l195 -309h-64z" />
    <glyph glyph-name="oacute" unicode="&#xf3;" horiz-adv-x="1167" 
d="M581 63q173 -1 275 133t102 338t-100 340t-272 138q-172 0 -274 -134t-103 -337t99 -341t273 -137zM584 -23q-203 0 -338 154t-135 407q0 252 134 406t338 154t339 -154t135 -406t-135 -407q-135 -154 -338 -154zM535 1192l194 309h154l-285 -309h-63z" />
    <glyph glyph-name="ocircumflex" unicode="&#xf4;" horiz-adv-x="1167" 
d="M581 63q173 -1 275 133t102 338t-100 340t-272 138q-172 0 -274 -134t-103 -337t99 -341t273 -137zM584 -23q-203 0 -338 154t-135 407q0 252 134 406t338 154t339 -154t135 -406t-135 -407q-135 -154 -338 -154zM279 1182l264 319h82l264 -319h-68l-239 213l-240 -213
h-63z" />
    <glyph glyph-name="otilde" unicode="&#xf5;" horiz-adv-x="1167" 
d="M581 63q173 -1 275 133t102 338t-100 340t-272 138q-172 0 -274 -134t-103 -337t99 -341t273 -137zM584 -23q-203 0 -338 154t-135 407q0 252 134 406t338 154t339 -154t135 -406t-135 -407q-135 -154 -338 -154zM737 1188q-57 0 -161 57t-146 57q-41 0 -60 -25
q-19 -26 -20 -85h-69q0 203 157 203q58 1 162 -57t145 -58t61 26q19 26 19 85h70q0 -203 -158 -203z" />
    <glyph glyph-name="odieresis" unicode="&#xf6;" horiz-adv-x="1167" 
d="M581 63q173 -1 275 133t102 338t-100 340t-272 138q-172 0 -274 -134t-103 -337t99 -341t273 -137zM584 -23q-203 0 -338 154t-135 407q0 252 134 406t338 154t339 -154t135 -406t-135 -407q-135 -154 -338 -154zM344 1192v137h131v-137h-131zM688 1192v137h131v-137
h-131z" />
    <glyph glyph-name="divide" unicode="&#xf7;" horiz-adv-x="1298" 
d="M569 227v160h148v-160h-148zM133 618v91h1032v-91h-1032zM569 938v160h148v-160h-148z" />
    <glyph glyph-name="oslash" unicode="&#xf8;" horiz-adv-x="1167" 
d="M1057 536q0 -252 -135 -405q-135 -154 -338 -154q-156 0 -279 97l-96 -137l-66 45l105 147q-137 158 -137 410q0 251 134 405t339 154q158 0 276 -94l98 139l68 -47l-106 -150q137 -158 137 -410zM958 534q0 204 -96 334l-508 -718q96 -86 230 -87q170 -1 272 133
t102 338zM584 1012q-170 0 -272 -134t-103 -337q0 -203 96 -336l506 721q-92 86 -227 86z" />
    <glyph glyph-name="ugrave" unicode="&#xf9;" horiz-adv-x="1173" 
d="M487 -23q-165 0 -245 84t-80 234v780h98v-768q0 -125 57 -184t179 -60q193 0 407 205v807h98v-1075h-98v178q-211 -201 -416 -201zM571 1192l-284 309h153l195 -309h-64z" />
    <glyph glyph-name="uacute" unicode="&#xfa;" horiz-adv-x="1173" 
d="M487 -23q-165 0 -245 84t-80 234v780h98v-768q0 -125 57 -184t179 -60q193 0 407 205v807h98v-1075h-98v178q-211 -201 -416 -201zM535 1192l194 309h154l-285 -309h-63z" />
    <glyph glyph-name="ucircumflex" unicode="&#xfb;" horiz-adv-x="1173" 
d="M487 -23q-165 0 -245 84t-80 234v780h98v-768q0 -125 57 -184t179 -60q193 0 407 205v807h98v-1075h-98v178q-211 -201 -416 -201zM276 1182l265 319h82l264 -319h-68l-239 213l-240 -213h-64z" />
    <glyph glyph-name="udieresis" unicode="&#xfc;" horiz-adv-x="1173" 
d="M487 -23q-165 0 -245 84t-80 234v780h98v-768q0 -125 57 -184t179 -60q193 0 407 205v807h98v-1075h-98v178q-211 -201 -416 -201zM348 1192v137h131v-137h-131zM692 1192v137h131v-137h-131z" />
    <glyph glyph-name="yacute" unicode="&#xfd;" horiz-adv-x="1062" 
d="M178 -410q-86 0 -147 19l24 82q53 -15 141 -15t144 43q55 43 92 142l51 133l-417 1081h108l356 -956h5l356 956h106l-465 -1202q-59 -155 -133 -219t-221 -64zM489 1192l195 309h154l-285 -309h-64z" />
    <glyph glyph-name="thorn" unicode="&#xfe;" horiz-adv-x="1200" 
d="M172 -410v1926h98v-598q172 180 368 180t323 -144t127 -415q0 -269 -129 -413q-128 -144 -318 -144t-371 176v-568h-98zM639 68q152 0 251 118t99 350t-101 354t-253 122q-102 0 -184 -46t-181 -147v-559q189 -192 369 -192z" />
    <glyph glyph-name="ydieresis" unicode="&#xff;" horiz-adv-x="1062" 
d="M178 -410q-86 0 -147 19l24 82q53 -15 141 -15t144 43q55 43 92 142l51 133l-417 1081h108l356 -956h5l356 956h106l-465 -1202q-59 -155 -133 -219t-221 -64zM295 1192v137h131v-137h-131zM639 1192v137h131v-137h-131z" />
    <glyph glyph-name="Amacron" unicode="&#x100;" horiz-adv-x="1357" 
d="M82 0l536 1522h121l537 -1522h-109l-176 508h-629l-176 -508h-104zM395 600h563l-280 807h-4zM440 1612v94h475v-94h-475z" />
    <glyph glyph-name="amacron" unicode="&#x101;" horiz-adv-x="1105" 
d="M412 -18q-145 0 -225 70q-79 71 -78 196q1 164 167 274t572 178v66q0 244 -240 246q-119 0 -216 -45t-195 -133l-58 61q109 99 221 151t266 52t237 -86t83 -240v-506q0 -190 31 -266h-105q-25 78 -24 160q-207 -178 -436 -178zM420 68q233 0 428 188v371
q-367 -63 -504 -155t-137 -218q1 -90 57 -138t156 -48zM315 1192v94h476v-94h-476z" />
    <glyph glyph-name="Abreve" unicode="&#x102;" horiz-adv-x="1357" 
d="M82 0l536 1522h121l537 -1522h-109l-176 508h-629l-176 -508h-104zM395 600h563l-280 807h-4zM678 1606q-127 0 -207 87t-88 238h70q27 -233 225 -233t225 233h70q-8 -153 -88 -239t-207 -86z" />
    <glyph glyph-name="abreve" unicode="&#x103;" horiz-adv-x="1105" 
d="M412 -18q-145 0 -225 70q-79 71 -78 196q1 164 167 274t572 178v66q0 244 -240 246q-119 0 -216 -45t-195 -133l-58 61q109 99 221 151t266 52t237 -86t83 -240v-506q0 -190 31 -266h-105q-25 78 -24 160q-207 -178 -436 -178zM420 68q233 0 428 188v371
q-367 -63 -504 -155t-137 -218q1 -90 57 -138t156 -48zM553 1186q-127 0 -207 87t-88 238h70q28 -233 226 -233t224 233h70q-8 -153 -88 -239t-207 -86z" />
    <glyph glyph-name="Aogonek" unicode="&#x104;" horiz-adv-x="1357" 
d="M1194 -383q-96 0 -145 42q-49 41 -49 107t46 128q48 62 121 108l-176 506h-629l-176 -508h-104l536 1522h121l537 -1522h-35q-145 -104 -145 -211q0 -102 108 -102q90 0 201 49l22 -43q-137 -76 -233 -76zM395 600h563l-280 807h-4z" />
    <glyph glyph-name="aogonek" unicode="&#x105;" horiz-adv-x="1105" 
d="M900 -383q-96 0 -146 42q-49 41 -49 107t47 128t120 108q-25 78 -24 158q-207 -178 -436 -178q-145 0 -225 70q-79 71 -78 196q1 164 167 274t572 178v66q0 244 -240 246q-119 0 -216 -45t-195 -133l-58 61q109 99 221 151t266 52t237 -86t83 -240v-506q0 -190 31 -266
h-31q-145 -104 -145 -211q0 -102 108 -102q90 0 201 49l23 -43q-137 -76 -233 -76zM420 68q233 0 428 188v371q-367 -63 -504 -155t-137 -218q1 -90 57 -138t156 -48z" />
    <glyph glyph-name="Cacute" unicode="&#x106;" horiz-adv-x="1417" 
d="M745 -29q-281 0 -449 220q-168 219 -167 565q0 346 170 567t446 221q418 0 535 -459l-98 -22q-56 199 -158 294t-281 95q-229 0 -370 -188t-141 -506t140 -506t376 -189q354 0 460 408l97 -22q-55 -225 -201 -351t-359 -127zM635 1612l194 309h154l-285 -309h-63z" />
    <glyph glyph-name="cacute" unicode="&#x107;" horiz-adv-x="1077" 
d="M561 -23q-190 0 -320 155t-130 414t135 405t329 147q272 0 400 -287l-84 -45q-53 123 -127 184q-74 62 -201 62t-234 -105q-54 -53 -87 -148t-33 -220q0 -219 102 -347t256 -129q119 -1 193 59t139 189l78 -39q-73 -147 -171 -221t-245 -74zM496 1192l194 309h154
l-285 -309h-63z" />
    <glyph glyph-name="Ccircumflex" unicode="&#x108;" horiz-adv-x="1417" 
d="M745 -29q-281 0 -449 220q-168 219 -167 565q0 346 170 567t446 221q418 0 535 -459l-98 -22q-56 199 -158 294t-281 95q-229 0 -370 -188t-141 -506t140 -506t376 -189q354 0 460 408l97 -22q-55 -225 -201 -351t-359 -127zM436 1602l264 319h82l265 -319h-68l-240 213
l-239 -213h-64z" />
    <glyph glyph-name="ccircumflex" unicode="&#x109;" horiz-adv-x="1077" 
d="M561 -23q-190 0 -320 155t-130 414t135 405t329 147q272 0 400 -287l-84 -45q-53 123 -127 184q-74 62 -201 62t-234 -105q-54 -53 -87 -148t-33 -220q0 -219 102 -347t256 -129q119 -1 193 59t139 189l78 -39q-73 -147 -171 -221t-245 -74zM233 1182l265 319h82
l264 -319h-68l-239 213l-240 -213h-64z" />
    <glyph glyph-name="Cdotaccent" unicode="&#x10a;" horiz-adv-x="1417" 
d="M745 -29q-281 0 -449 220q-168 219 -167 565q0 346 170 567t446 221q418 0 535 -459l-98 -22q-56 199 -158 294t-281 95q-229 0 -370 -188t-141 -506t140 -506t376 -189q354 0 460 408l97 -22q-55 -225 -201 -351t-359 -127zM674 1612v141h135v-141h-135z" />
    <glyph glyph-name="cdotaccent" unicode="&#x10b;" horiz-adv-x="1077" 
d="M561 -23q-190 0 -320 155t-130 414t135 405t329 147q272 0 400 -287l-84 -45q-53 123 -127 184q-74 62 -201 62t-234 -105q-54 -53 -87 -148t-33 -220q0 -219 102 -347t256 -129q119 -1 193 59t139 189l78 -39q-73 -147 -171 -221t-245 -74zM471 1192v141h135v-141h-135z
" />
    <glyph glyph-name="Ccaron" unicode="&#x10c;" horiz-adv-x="1417" 
d="M745 -29q-281 0 -449 220q-168 219 -167 565q0 346 170 567t446 221q418 0 535 -459l-98 -22q-56 199 -158 294t-281 95q-229 0 -370 -188t-141 -506t140 -506t376 -189q354 0 460 408l97 -22q-55 -225 -201 -351t-359 -127zM668 1612l-265 319h68l240 -213l239 213h64
l-264 -319h-82z" />
    <glyph glyph-name="ccaron" unicode="&#x10d;" horiz-adv-x="1077" 
d="M561 -23q-190 0 -320 155t-130 414t135 405t329 147q272 0 400 -287l-84 -45q-53 123 -127 184q-74 62 -201 62t-234 -105q-54 -53 -87 -148t-33 -220q0 -219 102 -347t256 -129q119 -1 193 59t139 189l78 -39q-73 -147 -171 -221t-245 -74zM498 1192l-265 319h68
l240 -213l239 213h64l-264 -319h-82z" />
    <glyph glyph-name="Dcaron" unicode="&#x10e;" horiz-adv-x="1437" 
d="M305 94h285q297 0 457 164q159 164 159 499t-160 499t-460 165h-281v-1327zM203 0v1516h364q371 0 556 -194t185 -562t-186 -564q-188 -196 -555 -196h-364zM645 1612l-264 319h68l239 -213l240 213h63l-264 -319h-82z" />
    <glyph glyph-name="dcaron" unicode="&#x10f;" horiz-adv-x="1200" 
d="M562 -18q-196 0 -322 142t-127 412q0 270 128 416q127 146 327 146t362 -180v598h98v-1250q0 -193 33 -266h-107q-25 78 -24 162q-172 -180 -368 -180zM565 68q103 0 185 46t180 146v559q-188 193 -369 193q-152 0 -251 -120t-99 -352t101 -352t253 -120zM1151 1358v158
h137v-146l-80 -211h-45l41 199h-53z" />
    <glyph glyph-name="Dcroat" unicode="&#x110;" horiz-adv-x="1437" 
d="M305 94h285q297 0 457 164q159 164 159 499t-160 499t-460 165h-281v-569h332v-94h-332v-664zM203 0v758h-178v94h178v664h364q371 0 556 -194t185 -562t-186 -564q-188 -196 -555 -196h-364z" />
    <glyph glyph-name="dcroat" unicode="&#x111;" horiz-adv-x="1200" 
d="M562 -18q-196 0 -322 142t-127 412q0 270 128 416q127 146 327 146t362 -180v327h-238v88h238v183h98v-183h189v-88h-189v-979q0 -193 33 -266h-107q-24 78 -24 162q-172 -180 -368 -180zM565 68q103 0 185 46t180 146v559q-188 193 -369 193q-152 0 -251 -120t-99 -352
t101 -352t253 -120z" />
    <glyph glyph-name="Emacron" unicode="&#x112;" horiz-adv-x="1222" 
d="M203 0v1516h876v-95h-774v-569h582v-94h-582v-664h819v-94h-921zM414 1612v94h475v-94h-475z" />
    <glyph glyph-name="emacron" unicode="&#x113;" horiz-adv-x="1103" 
d="M572 1012q-140 0 -242 -104t-119 -294h680q-12 176 -95 287q-84 111 -224 111zM563 -23q-188 0 -320 153t-132 413t135 407q134 148 324 148t307 -150t116 -401v-15h-784q0 -213 103 -341t257 -128q121 -1 201 55t145 169l72 -45q-143 -265 -424 -265zM313 1192v94h475
v-94h-475z" />
    <glyph glyph-name="Ebreve" unicode="&#x114;" horiz-adv-x="1222" 
d="M203 0v1516h876v-95h-774v-569h582v-94h-582v-664h819v-94h-921zM610 1602q-127 0 -207 87t-88 238h70q27 -233 225 -233t226 233h69q-8 -153 -88 -239t-207 -86z" />
    <glyph glyph-name="ebreve" unicode="&#x115;" horiz-adv-x="1103" 
d="M572 1012q-140 0 -242 -104t-119 -294h680q-12 176 -95 287q-84 111 -224 111zM563 -23q-188 0 -320 153t-132 413t135 407q134 148 324 148t307 -150t116 -401v-15h-784q0 -213 103 -341t257 -128q121 -1 201 55t145 169l72 -45q-143 -265 -424 -265zM551 1186
q-127 0 -207 87t-88 238h70q28 -233 226 -233t224 233h70q-8 -153 -88 -239t-207 -86z" />
    <glyph glyph-name="Edotaccent" unicode="&#x116;" horiz-adv-x="1222" 
d="M203 0v1516h876v-95h-774v-569h582v-94h-582v-664h819v-94h-921zM584 1612v141h135v-141h-135z" />
    <glyph glyph-name="edotaccent" unicode="&#x117;" horiz-adv-x="1103" 
d="M572 1012q-140 0 -242 -104t-119 -294h680q-12 176 -95 287q-84 111 -224 111zM563 -23q-188 0 -320 153t-132 413t135 407q134 148 324 148t307 -150t116 -401v-15h-784q0 -213 103 -341t257 -128q121 -1 201 55t145 169l72 -45q-143 -265 -424 -265zM483 1192v141h135
v-141h-135z" />
    <glyph glyph-name="Eogonek" unicode="&#x118;" horiz-adv-x="1222" 
d="M912 -383q-96 0 -146 42q-49 42 -49 116q0 113 162 225h-676v1516h876v-95h-774v-569h582v-94h-582v-664h819v-94h-166q-145 -104 -145 -211q0 -102 109 -102q90 0 200 49l23 -43q-137 -76 -233 -76z" />
    <glyph glyph-name="eogonek" unicode="&#x119;" horiz-adv-x="1103" 
d="M572 1012q-140 0 -242 -104t-119 -294h680q-12 176 -95 287q-84 111 -224 111zM634 -383q-96 0 -147 42q-49 42 -49 116q0 100 131 202h-6q-188 0 -320 153t-132 413t135 407q134 148 324 148t307 -150t116 -401v-15h-784q0 -213 103 -341t257 -128q121 -1 201 55
t145 169l72 -45q-121 -219 -325 -256q-127 -96 -127 -198t108 -101q90 0 201 49l22 -43q-136 -76 -232 -76z" />
    <glyph glyph-name="Ecaron" unicode="&#x11a;" horiz-adv-x="1222" 
d="M203 0v1516h876v-95h-774v-569h582v-94h-582v-664h819v-94h-921zM610 1612l-264 319h68l239 -213l240 213h63l-264 -319h-82z" />
    <glyph glyph-name="ecaron" unicode="&#x11b;" horiz-adv-x="1103" 
d="M572 1012q-140 0 -242 -104t-119 -294h680q-12 176 -95 287q-84 111 -224 111zM563 -23q-188 0 -320 153t-132 413t135 407q134 148 324 148t307 -150t116 -401v-15h-784q0 -213 103 -341t257 -128q121 -1 201 55t145 169l72 -45q-143 -265 -424 -265zM510 1192l-264 319
h67l240 -213l240 213h63l-264 -319h-82z" />
    <glyph glyph-name="Gcircumflex" unicode="&#x11c;" horiz-adv-x="1462" 
d="M743 -29q-283 -1 -449 223t-165 572q0 348 175 563t446 215q211 0 345 -120t189 -339l-98 -22q-58 199 -160 294t-278 95q-224 0 -370 -184t-146 -500t138 -511q140 -194 378 -194q208 -1 330 145t116 396h-391v94h491v-698h-100v238h-4q-138 -267 -447 -267zM442 1602
l265 319h81l265 -319h-68l-240 213l-239 -213h-64z" />
    <glyph glyph-name="gcircumflex" unicode="&#x11d;" horiz-adv-x="1136" 
d="M563 -328q173 0 275 56t102 144q0 87 -73 133t-230 61l-223 18q-37 4 -54 6q-102 -31 -156 -90t-54 -131q-1 -197 413 -197zM540 -410q-232 0 -359 71q-128 71 -128 200q0 172 207 252q-102 39 -102 132t125 154q-160 106 -160 310q0 169 119 279t296 110t293 -111
q111 78 244 96v-106q-117 0 -201 -39q74 -96 74 -229q0 -175 -120 -279t-291 -104q-98 0 -185 34q-96 -37 -96 -100q0 -72 172 -88l252 -22q356 -33 356 -267q0 -137 -132 -215t-364 -78zM537 410q143 0 229 83t86 219t-84 219t-230 83t-232 -84t-87 -219t87 -218t231 -83z
M231 1182l265 319h82l264 -319h-68l-239 213l-240 -213h-64z" />
    <glyph glyph-name="Gbreve" unicode="&#x11e;" horiz-adv-x="1462" 
d="M743 -29q-283 -1 -449 223t-165 572q0 348 175 563t446 215q211 0 345 -120t189 -339l-98 -22q-58 199 -160 294t-278 95q-224 0 -370 -184t-146 -500t138 -511q140 -194 378 -194q208 -1 330 145t116 396h-391v94h491v-698h-100v238h-4q-138 -267 -447 -267zM731 1606
q-127 0 -207 87t-88 238h70q28 -233 226 -233t224 233h70q-8 -153 -88 -239t-207 -86z" />
    <glyph glyph-name="gbreve" unicode="&#x11f;" horiz-adv-x="1136" 
d="M563 -328q173 0 275 56t102 144q0 87 -73 133t-230 61l-223 18q-37 4 -54 6q-102 -31 -156 -90t-54 -131q-1 -197 413 -197zM540 -410q-232 0 -359 71q-128 71 -128 200q0 172 207 252q-102 39 -102 132t125 154q-160 106 -160 310q0 169 119 279t296 110t293 -111
q111 78 244 96v-106q-117 0 -201 -39q74 -96 74 -229q0 -175 -120 -279t-291 -104q-98 0 -185 34q-96 -37 -96 -100q0 -72 172 -88l252 -22q356 -33 356 -267q0 -137 -132 -215t-364 -78zM537 410q143 0 229 83t86 219t-84 219t-230 83t-232 -84t-87 -219t87 -218t231 -83z
M555 1186q-127 0 -207 87t-88 238h70q28 -233 226 -233t224 233h70q-8 -153 -88 -239t-207 -86z" />
    <glyph glyph-name="Gdotaccent" unicode="&#x120;" horiz-adv-x="1462" 
d="M743 -29q-283 -1 -449 223t-165 572q0 348 175 563t446 215q211 0 345 -120t189 -339l-98 -22q-58 199 -160 294t-278 95q-224 0 -370 -184t-146 -500t138 -511q140 -194 378 -194q208 -1 330 145t116 396h-391v94h491v-698h-100v238h-4q-138 -267 -447 -267zM664 1612
v141h135v-141h-135z" />
    <glyph glyph-name="gdotaccent" unicode="&#x121;" horiz-adv-x="1136" 
d="M563 -328q173 0 275 56t102 144q0 87 -73 133t-230 61l-223 18q-37 4 -54 6q-102 -31 -156 -90t-54 -131q-1 -197 413 -197zM540 -410q-232 0 -359 71q-128 71 -128 200q0 172 207 252q-102 39 -102 132t125 154q-160 106 -160 310q0 169 119 279t296 110t293 -111
q111 78 244 96v-106q-117 0 -201 -39q74 -96 74 -229q0 -175 -120 -279t-291 -104q-98 0 -185 34q-96 -37 -96 -100q0 -72 172 -88l252 -22q356 -33 356 -267q0 -137 -132 -215t-364 -78zM537 410q143 0 229 83t86 219t-84 219t-230 83t-232 -84t-87 -219t87 -218t231 -83z
M467 1192v141h135v-141h-135z" />
    <glyph glyph-name="Gcommaaccent" unicode="&#x122;" horiz-adv-x="1462" 
d="M664 -260v158h137v-146l-80 -211h-45l41 199h-53zM743 -29q-283 -1 -449 223t-165 572q0 348 175 563t446 215q211 0 345 -120t189 -339l-98 -22q-58 199 -160 294t-278 95q-224 0 -370 -184t-146 -500t138 -511q140 -194 378 -194q208 -1 330 145t116 396h-391v94h491
v-698h-100v238h-4q-138 -267 -447 -267z" />
    <glyph glyph-name="gcommaaccent" unicode="&#x123;" horiz-adv-x="1136" 
d="M563 -328q173 0 275 56t102 144q0 87 -73 133t-230 61l-223 18q-37 4 -54 6q-102 -31 -156 -90t-54 -131q-1 -197 413 -197zM540 -410q-232 0 -359 71q-128 71 -128 200q0 172 207 252q-102 39 -102 132t125 154q-160 106 -160 310q0 169 119 279t296 110t293 -111
q111 78 244 96v-106q-117 0 -201 -39q74 -96 74 -229q0 -175 -120 -279t-291 -104q-98 0 -185 34q-96 -37 -96 -100q0 -72 172 -88l252 -22q356 -33 356 -267q0 -137 -132 -215t-364 -78zM537 410q143 0 229 83t86 219t-84 219t-230 83t-232 -84t-87 -219t87 -218t231 -83z
M485 1192v145l80 211h45l-41 -198h54v-158h-138z" />
    <glyph glyph-name="Hcircumflex" unicode="&#x124;" horiz-adv-x="1482" 
d="M203 0v1516h102v-666h873v666h102v-1516h-102v756h-873v-756h-102zM436 1602l264 319h82l265 -319h-68l-240 213l-239 -213h-64z" />
    <glyph glyph-name="hcircumflex" unicode="&#x125;" horiz-adv-x="1173" 
d="M172 0v1516h98v-619q211 201 416 201q164 0 245 -84t81 -234v-780h-99v768q0 125 -57 184t-178 60q-193 0 -408 -205v-807h-98zM-86 1602l264 319h82l264 -319h-67l-240 213l-240 -213h-63z" />
    <glyph glyph-name="Hbar" unicode="&#x126;" horiz-adv-x="1482" 
d="M305 756v-756h-102v1135h-178v94h178v287h102v-287h873v287h102v-287h178v-94h-178v-1135h-102v756h-873zM305 850h873v285h-873v-285z" />
    <glyph glyph-name="hbar" unicode="&#x127;" horiz-adv-x="1173" 
d="M270 0h-98v1245h-188v88h188v183h98v-183h238v-88h-238v-348q211 201 416 201q164 0 245 -84t81 -234v-780h-99v768q0 125 -57 184t-178 60q-193 0 -408 -205v-807z" />
    <glyph glyph-name="Itilde" unicode="&#x128;" horiz-adv-x="552" 
d="M225 0v1516h103v-1516h-103zM426 1608q-56 0 -160 57t-146 57t-62 -25q-19 -26 -19 -85h-70q0 203 158 203q57 1 161 -57t146 -58q41 0 61 25q19 26 19 85h70q0 -202 -158 -202z" />
    <glyph glyph-name="itilde" unicode="&#x129;" horiz-adv-x="466" 
d="M184 0v1075h99v-1075h-99zM383 1188q-55 0 -159 57t-147 57q-41 0 -61 -25q-20 -26 -20 -85h-70q0 203 158 203q56 1 160 -57t146 -58t62 26q19 26 19 85h70q0 -203 -158 -203z" />
    <glyph glyph-name="Imacron" unicode="&#x12a;" horiz-adv-x="552" 
d="M225 0v1516h103v-1516h-103zM39 1612v94h475v-94h-475z" />
    <glyph glyph-name="imacron" unicode="&#x12b;" horiz-adv-x="466" 
d="M184 0v1075h99v-1075h-99zM-4 1192v94h475v-94h-475z" />
    <glyph glyph-name="Ibreve" unicode="&#x12c;" horiz-adv-x="552" 
d="M225 0v1516h103v-1516h-103zM276 1602q-126 0 -206 87t-88 238h69q27 -233 225 -233t226 233h69q-8 -153 -88 -239t-207 -86z" />
    <glyph glyph-name="ibreve" unicode="&#x12d;" horiz-adv-x="466" 
d="M184 0v1075h99v-1075h-99zM233 1186q-127 0 -207 87t-87 238h69q28 -233 226 -233t225 233h69q-8 -153 -88 -239t-207 -86z" />
    <glyph glyph-name="Iogonek" unicode="&#x12e;" horiz-adv-x="552" 
d="M250 -383q-96 0 -146 42q-49 43 -49 109t49 128t121 108v1512h103v-1516h-31q-145 -104 -145 -211q0 -102 108 -102q90 0 201 49l22 -43q-137 -76 -233 -76z" />
    <glyph glyph-name="iogonek" unicode="&#x12f;" horiz-adv-x="466" 
d="M209 -383q-96 0 -146 42q-49 43 -49 109t49 128t121 108v1071h99v-1075h-27q-145 -104 -145 -211q0 -102 108 -102q90 0 201 49l22 -43q-137 -76 -233 -76zM180 1350v125h107v-125h-107z" />
    <glyph glyph-name="Idotaccent" unicode="&#x130;" horiz-adv-x="552" 
d="M225 0v1516h103v-1516h-103zM209 1612v141h135v-141h-135z" />
    <glyph glyph-name="dotlessi" unicode="&#x131;" horiz-adv-x="466" 
d="M184 0v1075h99v-1075h-99z" />
    <glyph glyph-name="IJ" unicode="&#x132;" horiz-adv-x="1474" 
d="M895 -29q-240 0 -363 224l82 47q54 -90 118 -134t161 -45q287 0 287 326v1127h102v-1117q0 -211 -104 -319t-283 -109zM225 0v1516h103v-1516h-103z" />
    <glyph glyph-name="ij" unicode="&#x133;" horiz-adv-x="933" 
d="M553 -410q-33 0 -57 4v89q25 -6 57 -7q98 0 98 113v1286h99v-1274q0 -211 -197 -211zM184 0v1075h99v-1075h-99zM180 1350v125h107v-125h-107zM647 1350v125h107v-125h-107z" />
    <glyph glyph-name="Jcircumflex" unicode="&#x134;" horiz-adv-x="1003" 
d="M424 -29q-240 0 -363 224l82 47q55 -90 119 -134t160 -45q287 0 287 326v1127h102v-1117q1 -211 -103 -319t-284 -109zM453 1602l264 319h82l264 -319h-68l-239 213l-240 -213h-63z" />
    <glyph glyph-name="jcircumflex" unicode="&#x135;" horiz-adv-x="466" 
d="M86 -410q-33 0 -57 4v89q25 -6 57 -7q98 0 98 113v1286h99v-1274q0 -211 -197 -211zM-72 1182l265 319h81l265 -319h-68l-240 213l-239 -213h-64z" />
    <glyph glyph-name="Kcommaaccent" unicode="&#x136;" horiz-adv-x="1345" 
d="M604 -260v158h137v-146l-79 -211h-46l41 199h-53zM203 0v1516h102v-861l776 861h129l-522 -570l604 -946h-121l-555 866l-311 -340v-526h-102z" />
    <glyph glyph-name="kcommaaccent" unicode="&#x137;" horiz-adv-x="1058" 
d="M461 -260v158h137v-146l-80 -211h-45l41 199h-53zM172 0v1516h98v-1047l555 606h123l-352 -375l399 -700h-110l-359 625l-256 -275v-350h-98z" />
    <glyph glyph-name="kgreenlandic" unicode="&#x138;" horiz-adv-x="1058" 
d="M172 0v1075h98v-606l555 606h123l-352 -375l399 -700h-110l-359 625l-256 -275v-350h-98z" />
    <glyph glyph-name="Lacute" unicode="&#x139;" horiz-adv-x="1146" 
d="M203 0v1516h102v-1422h758v-94h-860zM215 1612l195 309h153l-284 -309h-64z" />
    <glyph glyph-name="lacute" unicode="&#x13a;" horiz-adv-x="466" 
d="M184 0v1516h99v-1516h-99zM201 1612l194 309h154l-285 -309h-63z" />
    <glyph glyph-name="Lcommaaccent" unicode="&#x13b;" horiz-adv-x="1146" 
d="M506 -260v158h137v-146l-80 -211h-45l41 199h-53zM203 0v1516h102v-1422h758v-94h-860z" />
    <glyph glyph-name="lcommaaccent" unicode="&#x13c;" horiz-adv-x="466" 
d="M166 -260v158h137v-146l-80 -211h-45l41 199h-53zM184 0v1516h99v-1516h-99z" />
    <glyph glyph-name="Lcaron" unicode="&#x13d;" horiz-adv-x="1146" 
d="M203 0v1516h102v-1422h758v-94h-860zM604 1358v158h137v-146l-79 -211h-46l41 199h-53z" />
    <glyph glyph-name="lcaron" unicode="&#x13e;" horiz-adv-x="466" 
d="M406 1358v158h137v-146l-80 -211h-45l41 199h-53zM184 0v1516h99v-1516h-99z" />
    <glyph glyph-name="Ldot" unicode="&#x13f;" horiz-adv-x="1146" 
d="M758 735v142h135v-142h-135zM203 0v1516h102v-1422h758v-94h-860z" />
    <glyph glyph-name="ldot" unicode="&#x140;" horiz-adv-x="630" 
d="M481 578v141h135v-141h-135zM184 0v1516h99v-1516h-99z" />
    <glyph glyph-name="Lslash" unicode="&#x141;" horiz-adv-x="1146" 
d="M205 0v723l-178 -47v94l178 47v699h102v-672l332 90v-94l-332 -88v-658h758v-94h-860z" />
    <glyph glyph-name="lslash" unicode="&#x142;" horiz-adv-x="585" 
d="M244 0v942l-203 -53v86l203 53v488h98v-463l209 55v-86l-209 -55v-967h-98z" />
    <glyph glyph-name="Nacute" unicode="&#x143;" horiz-adv-x="1505" 
d="M203 0v1516h116l881 -1315h4v1315h99v-1516h-89l-909 1360h-4v-1360h-98zM616 1612l195 309h154l-285 -309h-64z" />
    <glyph glyph-name="nacute" unicode="&#x144;" horiz-adv-x="1173" 
d="M172 0v1075h98v-178q211 201 416 201q164 0 245 -84t81 -234v-780h-99v768q0 125 -57 184t-178 60q-193 0 -408 -205v-807h-98zM492 1192l194 309h154l-285 -309h-63z" />
    <glyph glyph-name="Ncommaaccent" unicode="&#x145;" horiz-adv-x="1505" 
d="M684 -260v158h137v-146l-80 -211h-45l41 199h-53zM203 0v1516h116l881 -1315h4v1315h99v-1516h-89l-909 1360h-4v-1360h-98z" />
    <glyph glyph-name="ncommaaccent" unicode="&#x146;" horiz-adv-x="1173" 
d="M518 -260v158h137v-146l-80 -211h-45l41 199h-53zM172 0v1075h98v-178q211 201 416 201q164 0 245 -84t81 -234v-780h-99v768q0 125 -57 184t-178 60q-193 0 -408 -205v-807h-98z" />
    <glyph glyph-name="Ncaron" unicode="&#x147;" horiz-adv-x="1505" 
d="M203 0v1516h116l881 -1315h4v1315h99v-1516h-89l-909 1360h-4v-1360h-98zM711 1612l-265 319h68l240 -213l239 213h64l-264 -319h-82z" />
    <glyph glyph-name="ncaron" unicode="&#x148;" horiz-adv-x="1173" 
d="M172 0v1075h98v-178q211 201 416 201q164 0 245 -84t81 -234v-780h-99v768q0 125 -57 184t-178 60q-193 0 -408 -205v-807h-98zM545 1192l-264 319h67l240 -213l239 213h64l-264 -319h-82z" />
    <glyph glyph-name="Eng" unicode="&#x14a;" horiz-adv-x="1505" 
d="M203 0v1516h116l881 -1315h4v1315h99v-1498q1 -212 -103 -320t-285 -108q-240 0 -362 224l82 47q55 -90 119 -134t159 -44q289 0 291 325v6l-899 1346h-4v-1360h-98z" />
    <glyph glyph-name="eng" unicode="&#x14b;" horiz-adv-x="1173" 
d="M172 0v1075h98v-178q211 201 416 201q164 0 245 -84t81 -234v-979q0 -211 -197 -211q-33 0 -57 4v89q25 -6 57 -7q98 0 98 113v979q0 125 -57 184t-178 60q-193 0 -408 -205v-807h-98z" />
    <glyph glyph-name="Omacron" unicode="&#x14c;" horiz-adv-x="1501" 
d="M751 63q228 -1 373 187q146 188 146 508t-146 506q-146 188 -373 188t-373 -187t-146 -507t145 -507q146 -188 374 -188zM752 -29q-274 0 -449 219q-174 220 -174 568t174 567q175 219 449 219t447 -220t173 -566t-173 -566t-447 -221zM512 1612v94h475v-94h-475z" />
    <glyph glyph-name="omacron" unicode="&#x14d;" horiz-adv-x="1167" 
d="M581 63q173 -1 275 133t102 338t-100 340t-272 138q-172 0 -274 -134t-103 -337t99 -341t273 -137zM584 -23q-203 0 -338 154t-135 407q0 252 134 406t338 154t339 -154t135 -406t-135 -407q-135 -154 -338 -154zM346 1192v94h475v-94h-475z" />
    <glyph glyph-name="Obreve" unicode="&#x14e;" horiz-adv-x="1501" 
d="M751 63q228 -1 373 187q146 188 146 508t-146 506q-146 188 -373 188t-373 -187t-146 -507t145 -507q146 -188 374 -188zM752 -29q-274 0 -449 219q-174 220 -174 568t174 567q175 219 449 219t447 -220t173 -566t-173 -566t-447 -221zM750 1606q-127 0 -207 87t-88 238
h69q27 -233 226 -233t225 233h69q-8 -153 -88 -239t-206 -86z" />
    <glyph glyph-name="obreve" unicode="&#x14f;" horiz-adv-x="1167" 
d="M581 63q173 -1 275 133t102 338t-100 340t-272 138q-172 0 -274 -134t-103 -337t99 -341t273 -137zM584 -23q-203 0 -338 154t-135 407q0 252 134 406t338 154t339 -154t135 -406t-135 -407q-135 -154 -338 -154zM584 1186q-127 0 -207 87t-88 238h69q27 -233 226 -233
t225 233h70q-8 -153 -88 -239t-207 -86z" />
    <glyph glyph-name="Ohungarumlaut" unicode="&#x150;" horiz-adv-x="1501" 
d="M751 63q228 -1 373 187q146 188 146 508t-146 506q-146 188 -373 188t-373 -187t-146 -507t145 -507q146 -188 374 -188zM752 -29q-274 0 -449 219q-174 220 -174 568t174 567q175 219 449 219t447 -220t173 -566t-173 -566t-447 -221zM504 1612l190 309h158l-281 -309
h-67zM819 1612l191 309h157l-280 -309h-68z" />
    <glyph glyph-name="ohungarumlaut" unicode="&#x151;" horiz-adv-x="1167" 
d="M581 63q173 -1 275 133t102 338t-100 340t-272 138q-172 0 -274 -134t-103 -337t99 -341t273 -137zM584 -23q-203 0 -338 154t-135 407q0 252 134 406t338 154t339 -154t135 -406t-135 -407q-135 -154 -338 -154zM352 1192l191 309h157l-280 -309h-68zM668 1192l190 309
h158l-281 -309h-67z" />
    <glyph glyph-name="OE" unicode="&#x152;" horiz-adv-x="2285" 
d="M752 -29q-274 0 -449 219q-174 220 -174 568t174 567t449 219q182 0 317 -96t203 -260v328h870v-95h-774v-569h582v-94h-582v-664h819v-94h-915v332q-70 -164 -204 -262t-316 -99zM751 63q228 -1 373 187q146 188 146 508t-146 506q-146 188 -373 188t-373 -187
t-146 -507t145 -507q146 -188 374 -188z" />
    <glyph glyph-name="oe" unicode="&#x153;" horiz-adv-x="1933" 
d="M1406 1012q-140 0 -240 -104t-117 -294h671q-12 176 -93 287t-221 111zM577 63q173 -1 273 133t100 338t-98 340t-270 138q-172 0 -272 -133t-101 -337t97 -342t271 -137zM580 -23q-203 0 -336 154t-133 407q0 252 132 406t337 154q150 0 260 -86t157 -226
q49 140 157 226t247 86q190 0 306 -150t116 -401v-15h-776q0 -215 101 -342t255 -127q121 1 199 55t143 169l72 -45q-143 -264 -420 -265q-135 -1 -244 87t-158 225q-49 -141 -157 -227t-258 -85z" />
    <glyph glyph-name="Racute" unicode="&#x154;" horiz-adv-x="1357" 
d="M203 0v1516h493q246 0 378 -102t132 -292q0 -338 -370 -399l391 -723h-119l-385 711h-418v-711h-102zM305 803h383q207 0 311 73q105 74 105 238t-106 236t-312 71h-381v-618zM584 1612l194 309h154l-285 -309h-63z" />
    <glyph glyph-name="racute" unicode="&#x155;" horiz-adv-x="794" 
d="M172 0v1075h98v-225h4q158 248 443 248h28l-16 -92h-35q-137 0 -248 -77t-176 -220v-709h-98zM303 1192l195 309h153l-284 -309h-64z" />
    <glyph glyph-name="Rcommaaccent" unicode="&#x156;" horiz-adv-x="1357" 
d="M610 -260v158h138v-146l-80 -211h-45l41 199h-54zM203 0v1516h493q246 0 378 -102t132 -292q0 -338 -370 -399l391 -723h-119l-385 711h-418v-711h-102zM305 803h383q207 0 311 73q105 74 105 238t-106 236t-312 71h-381v-618z" />
    <glyph glyph-name="rcommaaccent" unicode="&#x157;" horiz-adv-x="794" 
d="M154 -260v158h137v-146l-80 -211h-45l41 199h-53zM172 0v1075h98v-225h4q158 248 443 248h28l-16 -92h-35q-137 0 -248 -77t-176 -220v-709h-98z" />
    <glyph glyph-name="Rcaron" unicode="&#x158;" horiz-adv-x="1357" 
d="M203 0v1516h493q246 0 378 -102t132 -292q0 -338 -370 -399l391 -723h-119l-385 711h-418v-711h-102zM305 803h383q207 0 311 73q105 74 105 238t-106 236t-312 71h-381v-618zM637 1612l-264 319h67l240 -213l240 213h63l-264 -319h-82z" />
    <glyph glyph-name="rcaron" unicode="&#x159;" horiz-adv-x="794" 
d="M172 0v1075h98v-225h4q158 248 443 248h28l-16 -92h-35q-137 0 -248 -77t-176 -220v-709h-98zM356 1192l-264 319h68l239 -213l240 213h63l-264 -319h-82z" />
    <glyph glyph-name="Sacute" unicode="&#x15a;" horiz-adv-x="1308" 
d="M671 -29q-212 0 -354 109q-141 109 -188 299l100 24q43 -167 158 -253t291 -86t285 82q109 84 109 218t-84 212q-83 78 -343 161q-260 84 -365 174q-106 90 -106 252t129 272q129 109 328 109t325 -95t174 -261l-98 -29q-53 157 -152 225t-255 68t-252 -80
q-97 -80 -97 -204t88 -193q88 -68 348 -153q259 -85 360 -182q102 -97 102 -274t-146 -286t-357 -109zM559 1612l195 309h153l-284 -309h-64z" />
    <glyph glyph-name="sacute" unicode="&#x15b;" horiz-adv-x="1024" 
d="M502 -18q-266 0 -404 198l72 56q131 -168 334 -168q150 0 228 56t79 156q0 100 -69 150q-69 51 -262 98t-272 113q-79 67 -79 183t94 195t260 79q229 0 381 -158l-65 -68q-129 139 -318 140q-125 0 -189 -52t-65 -132q-1 -78 57 -123t254 -93t283 -119q88 -71 88 -210
t-112 -221q-113 -80 -295 -80zM418 1192l194 309h154l-285 -309h-63z" />
    <glyph glyph-name="Scircumflex" unicode="&#x15c;" horiz-adv-x="1308" 
d="M671 -29q-212 0 -354 109q-141 109 -188 299l100 24q43 -167 158 -253t291 -86t285 82q109 84 109 218t-84 212q-83 78 -343 161q-260 84 -365 174q-106 90 -106 252t129 272q129 109 328 109t325 -95t174 -261l-98 -29q-53 157 -152 225t-255 68t-252 -80
q-97 -80 -97 -204t88 -193q88 -68 348 -153q259 -85 360 -182q102 -97 102 -274t-146 -286t-357 -109zM348 1602l264 319h82l264 -319h-67l-240 213l-239 -213h-64z" />
    <glyph glyph-name="scircumflex" unicode="&#x15d;" horiz-adv-x="1024" 
d="M502 -18q-266 0 -404 198l72 56q131 -168 334 -168q150 0 228 56t79 156q0 100 -69 150q-69 51 -262 98t-272 113q-79 67 -79 183t94 195t260 79q229 0 381 -158l-65 -68q-129 139 -318 140q-125 0 -189 -52t-65 -132q-1 -78 57 -123t254 -93t283 -119q88 -71 88 -210
t-112 -221q-113 -80 -295 -80zM168 1182l264 319h82l264 -319h-67l-240 213l-240 -213h-63z" />
    <glyph glyph-name="Scedilla" unicode="&#x15e;" horiz-adv-x="1308" 
d="M889 -221q1 -174 -251 -174q-118 0 -230 73l32 52q92 -61 197 -62q164 0 164 105q0 76 -90 75q-57 0 -113 -43l-51 25l43 145q-178 19 -298 125t-163 279l100 24q43 -167 158 -253t291 -86t285 82q109 84 109 218t-84 212q-83 78 -343 161q-260 84 -365 174
q-106 90 -106 252t129 272q129 109 328 109t325 -95t174 -261l-98 -29q-53 157 -152 225t-255 68t-252 -80q-97 -80 -97 -204t88 -193q88 -68 348 -153q259 -85 360 -182q102 -97 102 -274t-146 -286t-362 -109l-27 -86q47 31 106 31t101 -36t43 -101z" />
    <glyph glyph-name="scedilla" unicode="&#x15f;" horiz-adv-x="1024" 
d="M748 -221q0 -174 -252 -174q-118 0 -230 73l33 52q92 -61 197 -62q164 0 163 105q0 76 -90 75q-57 0 -112 -43l-51 25l47 154q-231 20 -355 196l72 56q131 -168 334 -168q150 0 228 56t79 156q0 100 -69 150q-69 51 -262 98t-272 113q-79 67 -79 183t94 195t260 79
q229 0 381 -158l-65 -68q-129 139 -318 140q-125 0 -189 -52t-65 -132q-1 -78 57 -123t254 -93t283 -119q88 -71 88 -208t-104 -217t-279 -86l-28 -97q47 31 106 31q60 0 102 -36t42 -101z" />
    <glyph glyph-name="Scaron" unicode="&#x160;" horiz-adv-x="1308" 
d="M671 -29q-212 0 -354 109q-141 109 -188 299l100 24q43 -167 158 -253t291 -86t285 82q109 84 109 218t-84 212q-83 78 -343 161q-260 84 -365 174q-106 90 -106 252t129 272q129 109 328 109t325 -95t174 -261l-98 -29q-53 157 -152 225t-255 68t-252 -80
q-97 -80 -97 -204t88 -193q88 -68 348 -153q259 -85 360 -182q102 -97 102 -274t-146 -286t-357 -109zM612 1632l-264 320h68l239 -213l240 213h63l-264 -320h-82z" />
    <glyph glyph-name="scaron" unicode="&#x161;" horiz-adv-x="1024" 
d="M502 -18q-266 0 -404 198l72 56q131 -168 334 -168q150 0 228 56t79 156q0 100 -69 150q-69 51 -262 98t-272 113q-79 67 -79 183t94 195t260 79q229 0 381 -158l-65 -68q-129 139 -318 140q-125 0 -189 -52t-65 -132q-1 -78 57 -123t254 -93t283 -119q88 -71 88 -210
t-112 -221q-113 -80 -295 -80zM471 1192l-264 319h67l240 -213l240 213h63l-264 -319h-82z" />
    <glyph glyph-name="Tcaron" unicode="&#x164;" horiz-adv-x="1249" 
d="M573 0v1421h-497v95h1098v-95h-498v-1421h-103zM584 1612l-265 319h68l240 -213l239 213h64l-264 -319h-82z" />
    <glyph glyph-name="tcaron" unicode="&#x165;" horiz-adv-x="716" 
d="M506 -14q-135 0 -200 59t-64 195v747h-189v88h189v391h98v-391h281v-88h-281v-733q0 -92 39 -136t122 -44t126 14v-92q-58 -10 -121 -10zM489 1454v158h138v-146l-80 -211h-45l41 199h-54z" />
    <glyph glyph-name="Tbar" unicode="&#x166;" horiz-adv-x="1249" 
d="M1171 725h-495v-725h-103v725h-497v94h497v602h-497v95h1098v-95h-498v-602h495v-94z" />
    <glyph glyph-name="tbar" unicode="&#x167;" horiz-adv-x="716" 
d="M506 -14q-135 0 -200 59t-64 195v282h-189v88h189v377h-189v88h189v391h98v-391h281v-88h-281v-377h281v-88h-281v-268q0 -92 39 -136t122 -44t126 14v-92q-57 -10 -121 -10z" />
    <glyph glyph-name="Utilde" unicode="&#x168;" horiz-adv-x="1460" 
d="M729 -29q-256 0 -396 151t-140 374v1020h102v-996q-1 -203 109 -330t326 -127t326 125t109 328v1000h103v-1014q0 -225 -142 -378t-397 -153zM879 1608q-55 0 -159 57t-148 57q-42 0 -61 -26t-19 -84h-70q0 203 158 203q55 1 159 -57q105 -58 147 -58t61 26t20 84h69
q1 -202 -157 -202z" />
    <glyph glyph-name="utilde" unicode="&#x169;" horiz-adv-x="1173" 
d="M487 -23q-165 0 -245 84t-80 234v780h98v-768q0 -125 57 -184t179 -60q193 0 407 205v807h98v-1075h-98v178q-211 -201 -416 -201zM739 1188q-55 0 -159 57t-146 57t-62 -25q-19 -26 -20 -85h-69q0 203 157 203q56 1 160 -57t146 -58t62 26q19 26 19 85h70
q0 -203 -158 -203z" />
    <glyph glyph-name="Umacron" unicode="&#x16a;" horiz-adv-x="1460" 
d="M729 -29q-256 0 -396 151t-140 374v1020h102v-996q-1 -203 109 -330t326 -127t326 125t109 328v1000h103v-1014q0 -225 -142 -378t-397 -153zM492 1612v94h475v-94h-475z" />
    <glyph glyph-name="umacron" unicode="&#x16b;" horiz-adv-x="1173" 
d="M487 -23q-165 0 -245 84t-80 234v780h98v-768q0 -125 57 -184t179 -60q193 0 407 205v807h98v-1075h-98v178q-211 -201 -416 -201zM348 1192v94h475v-94h-475z" />
    <glyph glyph-name="Ubreve" unicode="&#x16c;" horiz-adv-x="1460" 
d="M729 -29q-256 0 -396 151t-140 374v1020h102v-996q-1 -203 109 -330t326 -127t326 125t109 328v1000h103v-1014q0 -225 -142 -378t-397 -153zM729 1606q-127 0 -207 87t-88 238h70q28 -233 226 -233t224 233h70q-8 -153 -88 -239t-207 -86z" />
    <glyph glyph-name="ubreve" unicode="&#x16d;" horiz-adv-x="1173" 
d="M487 -23q-165 0 -245 84t-80 234v780h98v-768q0 -125 57 -184t179 -60q193 0 407 205v807h98v-1075h-98v178q-211 -201 -416 -201zM586 1186q-127 0 -207 87t-88 238h69q27 -233 226 -233t225 233h70q-8 -153 -88 -239t-207 -86z" />
    <glyph glyph-name="Uring" unicode="&#x16e;" horiz-adv-x="1460" 
d="M729 -29q-256 0 -396 151t-140 374v1020h102v-996q-1 -203 109 -330t326 -127t326 125t109 328v1000h103v-1014q0 -225 -142 -378t-397 -153zM729 1657q49 0 81 34t32 85t-32 84q-32 32 -81 32t-81 -32t-32 -84q0 -51 32 -85t81 -34zM729 1597q-78 -1 -128 51t-50 128
t51 126t127 50t127 -50t51 -126t-50 -128t-128 -51z" />
    <glyph glyph-name="uring" unicode="&#x16f;" horiz-adv-x="1173" 
d="M487 -23q-165 0 -245 84t-80 234v780h98v-768q0 -125 57 -184t179 -60q193 0 407 205v807h98v-1075h-98v178q-211 -201 -416 -201zM586 1237q49 0 81 34t31 85q0 51 -31 84q-32 33 -81 33t-81 -33t-32 -84t32 -85t81 -34zM586 1178q-78 0 -128 50t-50 127t51 127t127 50
t127 -50t51 -127t-50 -127t-128 -50z" />
    <glyph glyph-name="Uhungarumlaut" unicode="&#x170;" horiz-adv-x="1460" 
d="M729 -29q-256 0 -396 151t-140 374v1020h102v-996q-1 -203 109 -330t326 -127t326 125t109 328v1000h103v-1014q0 -225 -142 -378t-397 -153zM483 1612l191 309h157l-280 -309h-68zM799 1612l190 309h158l-281 -309h-67z" />
    <glyph glyph-name="uhungarumlaut" unicode="&#x171;" horiz-adv-x="1173" 
d="M487 -23q-165 0 -245 84t-80 234v780h98v-768q0 -125 57 -184t179 -60q193 0 407 205v807h98v-1075h-98v178q-211 -201 -416 -201zM340 1192l190 309h158l-280 -309h-68zM655 1192l191 309h158l-281 -309h-68z" />
    <glyph glyph-name="Uogonek" unicode="&#x172;" horiz-adv-x="1460" 
d="M752 -383q-96 0 -146 42q-49 42 -49 116q0 98 125 198q-233 13 -361 161t-128 362v1020h102v-996q-1 -203 109 -330t326 -127t326 125t109 328v1000h103v-1014q0 -219 -132 -369t-374 -162q-109 -88 -109 -182q0 -102 109 -102q90 0 201 49l22 -43q-137 -76 -233 -76z
" />
    <glyph glyph-name="uogonek" unicode="&#x173;" horiz-adv-x="1173" 
d="M926 -383q-96 0 -146 42q-49 43 -49 109t49 128t123 110v172q-211 -201 -416 -201q-165 0 -245 84t-80 234v780h98v-768q0 -125 57 -184t179 -60q193 0 407 205v807h98v-1075h-28q-145 -104 -146 -211q0 -102 109 -102q90 0 201 49l22 -43q-137 -76 -233 -76z" />
    <glyph glyph-name="Wcircumflex" unicode="&#x174;" horiz-adv-x="1880" 
d="M494 0l-404 1516h105l254 -973q45 -172 96 -391h4q37 178 92 389l242 975h118l244 -984q78 -315 90 -380h4q20 94 93 372l258 992h100l-404 -1516h-104l-340 1374h-4l-342 -1374h-102zM635 1602l264 319h82l264 -319h-67l-240 213l-240 -213h-63z" />
    <glyph glyph-name="wcircumflex" unicode="&#x175;" horiz-adv-x="1517" 
d="M401 0l-333 1075h104l166 -565q80 -283 106 -375h5q55 211 102 373l160 567h100l162 -579q45 -158 98 -361h4q74 262 103 357l172 583h100l-334 -1075h-92l-262 938h-4l-266 -938h-91zM453 1182l264 319h82l264 -319h-68l-239 213l-240 -213h-63z" />
    <glyph glyph-name="Ycircumflex" unicode="&#x176;" horiz-adv-x="1230" 
d="M563 0v674l-504 842h115l444 -754l443 754h110l-505 -842v-674h-103zM309 1602l264 319h82l265 -319h-68l-240 213l-239 -213h-64z" />
    <glyph glyph-name="ycircumflex" unicode="&#x177;" horiz-adv-x="1062" 
d="M178 -410q-86 0 -147 19l24 82q53 -15 141 -15t144 43q55 43 92 142l51 133l-417 1081h108l356 -956h5l356 956h106l-465 -1202q-59 -155 -133 -219t-221 -64zM227 1182l265 319h81l265 -319h-68l-240 213l-239 -213h-64z" />
    <glyph glyph-name="Ydieresis" unicode="&#x178;" horiz-adv-x="1230" 
d="M563 0v674l-504 842h115l444 -754l443 754h110l-505 -842v-674h-103zM377 1612v137h131v-137h-131zM721 1612v137h131v-137h-131z" />
    <glyph glyph-name="Zacute" unicode="&#x179;" horiz-adv-x="1259" 
d="M92 0v76l936 1351h-874v89h995v-76l-936 -1352h936v-88h-1057zM528 1612l195 309h154l-285 -309h-64z" />
    <glyph glyph-name="zacute" unicode="&#x17a;" horiz-adv-x="1024" 
d="M90 0v68l686 921h-631v86h758v-67l-688 -922h713v-86h-838zM418 1192l194 309h154l-285 -309h-63z" />
    <glyph glyph-name="Zdotaccent" unicode="&#x17b;" horiz-adv-x="1259" 
d="M92 0v76l936 1351h-874v89h995v-76l-936 -1352h936v-88h-1057zM561 1612v141h135v-141h-135z" />
    <glyph glyph-name="zdotaccent" unicode="&#x17c;" horiz-adv-x="1024" 
d="M90 0v68l686 921h-631v86h758v-67l-688 -922h713v-86h-838zM444 1192v141h136v-141h-136z" />
    <glyph glyph-name="Zcaron" unicode="&#x17d;" horiz-adv-x="1259" 
d="M92 0v76l936 1351h-874v89h995v-76l-936 -1352h936v-88h-1057zM588 1632l-264 320h67l240 -213l239 213h64l-264 -320h-82z" />
    <glyph glyph-name="zcaron" unicode="&#x17e;" horiz-adv-x="1024" 
d="M90 0v68l686 921h-631v86h758v-67l-688 -922h713v-86h-838zM471 1192l-264 319h67l240 -213l240 213h63l-264 -319h-82z" />
    <glyph glyph-name="florin" unicode="&#x192;" horiz-adv-x="641" 
d="M594 1427q-186 0 -209 -161l-41 -314h238l-13 -88h-237l-146 -1016q-37 -258 -331 -258h-54l15 91q14 -2 63 -3q186 0 209 162l145 1024h-188l12 88h189l41 305q37 258 331 259h54l-15 -91q-14 2 -63 2z" />
    <glyph glyph-name="Scommaaccent" unicode="&#x218;" horiz-adv-x="1308" 
d="M586 -260v158h137v-146l-80 -211h-45l41 199h-53zM671 -29q-212 0 -354 109q-141 109 -188 299l100 24q43 -167 158 -253t291 -86t285 82q109 84 109 218t-84 212q-83 78 -343 161q-260 84 -365 174q-106 90 -106 252t129 272q129 109 328 109t325 -95t174 -261l-98 -29
q-53 157 -152 225t-255 68t-252 -80q-97 -80 -97 -204t88 -193q88 -68 348 -153q259 -85 360 -182q102 -97 102 -274t-146 -286t-357 -109z" />
    <glyph glyph-name="scommaaccent" unicode="&#x219;" horiz-adv-x="1024" 
d="M444 -260v158h138v-146l-80 -211h-45l41 199h-54zM502 -18q-266 0 -404 198l72 56q131 -168 334 -168q150 0 228 56t79 156q0 100 -69 150q-69 51 -262 98t-272 113q-79 67 -79 183t94 195t260 79q229 0 381 -158l-65 -68q-129 139 -318 140q-125 0 -189 -52t-65 -132
q-1 -78 57 -123t254 -93t283 -119q88 -71 88 -210t-112 -221q-113 -80 -295 -80z" />
    <glyph glyph-name="Tcommaaccent" unicode="&#x21a;" horiz-adv-x="1249" 
d="M557 -260v158h137v-146l-80 -211h-45l41 199h-53zM573 0v1421h-497v95h1098v-95h-498v-1421h-103z" />
    <glyph glyph-name="tcommaaccent" unicode="&#x21b;" horiz-adv-x="716" 
d="M242 -260v158h137v-146l-80 -211h-45l41 199h-53zM506 -14q-135 0 -200 59t-64 195v747h-189v88h189v391h98v-391h281v-88h-281v-733q0 -92 39 -136t122 -44t126 14v-92q-58 -10 -121 -10z" />
    <glyph glyph-name="schwa" unicode="&#x259;" horiz-adv-x="1103" 
d="M532 63q140 0 242 104t119 294h-680q12 -176 95 -287q84 -111 224 -111zM541 1098q188 0 320 -153t132 -413t-135 -406q-134 -148 -324 -148t-307 149q-117 150 -116 401v15h784q0 213 -103 341t-257 128q-121 0 -201 -56t-146 -168l-71 46q143 264 424 264z" />
    <glyph glyph-name="circumflex" unicode="&#x2c6;" horiz-adv-x="1024" 
d="M207 1182l264 319h82l264 -319h-67l-240 213l-240 -213h-63z" />
    <glyph glyph-name="caron" unicode="&#x2c7;" horiz-adv-x="1024" 
d="M471 1192l-264 319h67l240 -213l240 213h63l-264 -319h-82z" />
    <glyph glyph-name="uni02C9" unicode="&#x2c9;" horiz-adv-x="1024" 
d="M274 1192v94h476v-94h-476z" />
    <glyph glyph-name="breve" unicode="&#x2d8;" horiz-adv-x="1024" 
d="M512 1186q-127 0 -207 87t-88 238h70q27 -233 225 -233t225 233h70q-8 -153 -88 -239t-207 -86z" />
    <glyph glyph-name="dotaccent" unicode="&#x2d9;" horiz-adv-x="1024" 
d="M444 1192v141h136v-141h-136z" />
    <glyph glyph-name="ring" unicode="&#x2da;" horiz-adv-x="1105" 
d="M553 1237q49 0 81 34t32 85t-32 84t-81 33t-81 -33t-32 -84t32 -85t81 -34zM553 1178q-78 0 -128 50t-50 127t51 127t127 50t127 -50t51 -127t-50 -127t-128 -50z" />
    <glyph glyph-name="ogonek" unicode="&#x2db;" horiz-adv-x="1024" 
d="M514 -383q-96 0 -145 42t-50 116q0 121 179 235h77q-160 -109 -159 -221q0 -102 108 -102q90 0 201 49l23 -43q-138 -76 -234 -76z" />
    <glyph glyph-name="tilde" unicode="&#x2dc;" horiz-adv-x="1024" 
d="M662 1188q-56 0 -160 57t-146 57t-62 -25q-19 -26 -20 -85h-69q0 203 157 203q56 1 160 -57t146 -58t62 26q19 26 20 85h69q1 -203 -157 -203z" />
    <glyph glyph-name="hungarumlaut" unicode="&#x2dd;" horiz-adv-x="1024" 
d="M184 1192l191 309h157l-280 -309h-68zM500 1192l190 309h158l-281 -309h-67z" />
    <glyph glyph-name="Delta" unicode="&#x394;" horiz-adv-x="1349" 
d="M203 86h938l-467 1305h-2zM76 0l549 1524h100l549 -1524h-1198z" />
    <glyph glyph-name="Omega" unicode="&#x3a9;" horiz-adv-x="1503" 
d="M754 1544q284 0 444 -213t160 -528q0 -217 -98 -403t-265 -308h346v-92h-454v92q371 281 370 709q0 285 -136 468t-368 183q-231 0 -369 -178t-138 -471q0 -426 370 -711v-92h-454v92h346q-166 119 -264 305t-99 406q0 319 163 530t446 211z" />
    <glyph glyph-name="mu" unicode="&#x3bc;" horiz-adv-x="1183" 
d="M172 -410v1485h98v-768q0 -125 58 -184t178 -60q193 0 407 205v807h99v-1075h-99v178q-211 -201 -415 -201q-160 0 -228 89v-476h-98z" />
    <glyph glyph-name="pi" unicode="&#x3c0;" horiz-adv-x="1296" 
d="M18 995v84h1260v-84h-209v-995h-98v995h-645v-995h-97v995h-211z" />
    <glyph glyph-name="Wgrave" unicode="&#x1e80;" horiz-adv-x="1880" 
d="M494 0l-404 1516h105l254 -973q45 -172 96 -391h4q37 178 92 389l242 975h118l244 -984q78 -315 90 -380h4q20 94 93 372l258 992h100l-404 -1516h-104l-340 1374h-4l-342 -1374h-102zM1032 1612l-284 309h153l195 -309h-64z" />
    <glyph glyph-name="wgrave" unicode="&#x1e81;" horiz-adv-x="1517" 
d="M401 0l-333 1075h104l166 -565q80 -283 106 -375h5q55 211 102 373l160 567h100l162 -579q45 -158 98 -361h4q74 262 103 357l172 583h100l-334 -1075h-92l-262 938h-4l-266 -938h-91zM733 1192l-284 309h153l195 -309h-64z" />
    <glyph glyph-name="Wacute" unicode="&#x1e82;" horiz-adv-x="1880" 
d="M494 0l-404 1516h105l254 -973q45 -172 96 -391h4q37 178 92 389l242 975h118l244 -984q78 -315 90 -380h4q20 94 93 372l258 992h100l-404 -1516h-104l-340 1374h-4l-342 -1374h-102zM784 1612l195 309h154l-285 -309h-64z" />
    <glyph glyph-name="wacute" unicode="&#x1e83;" horiz-adv-x="1517" 
d="M401 0l-333 1075h104l166 -565q80 -283 106 -375h5q55 211 102 373l160 567h100l162 -579q45 -158 98 -361h4q74 262 103 357l172 583h100l-334 -1075h-92l-262 938h-4l-266 -938h-91zM723 1192l195 309h153l-285 -309h-63z" />
    <glyph glyph-name="Wdieresis" unicode="&#x1e84;" horiz-adv-x="1880" 
d="M494 0l-404 1516h105l254 -973q45 -172 96 -391h4q37 178 92 389l242 975h118l244 -984q78 -315 90 -380h4q20 94 93 372l258 992h100l-404 -1516h-104l-340 1374h-4l-342 -1374h-102zM702 1612v137h132v-137h-132zM1047 1612v137h131v-137h-131z" />
    <glyph glyph-name="wdieresis" unicode="&#x1e85;" horiz-adv-x="1517" 
d="M401 0l-333 1075h104l166 -565q80 -283 106 -375h5q55 211 102 373l160 567h100l162 -579q45 -158 98 -361h4q74 262 103 357l172 583h100l-334 -1075h-92l-262 938h-4l-266 -938h-91zM520 1192v137h131v-137h-131zM864 1192v137h131v-137h-131z" />
    <glyph glyph-name="Ygrave" unicode="&#x1ef2;" horiz-adv-x="1230" 
d="M563 0v674l-504 842h115l444 -754l443 754h110l-505 -842v-674h-103zM604 1612l-285 309h154l195 -309h-64z" />
    <glyph glyph-name="ygrave" unicode="&#x1ef3;" horiz-adv-x="1062" 
d="M178 -410q-86 0 -147 19l24 82q53 -15 141 -15t144 43q55 43 92 142l51 133l-417 1081h108l356 -956h5l356 956h106l-465 -1202q-59 -155 -133 -219t-221 -64zM524 1192l-284 309h153l195 -309h-64z" />
    <glyph glyph-name="space.en" unicode="&#x2002;" horiz-adv-x="1024" 
 />
    <glyph glyph-name="space.em" unicode="&#x2003;" horiz-adv-x="2048" 
 />
    <glyph glyph-name="space.tab_en" unicode="&#x2007;" 
 />
    <glyph glyph-name="space.thin" unicode="&#x2009;" horiz-adv-x="409" 
 />
    <glyph glyph-name="endash.tab" unicode="&#x2012;" 
d="M154 596v94h1024v-94h-1024z" />
    <glyph glyph-name="endash" unicode="&#x2013;" horiz-adv-x="1310" 
d="M143 596v94h1024v-94h-1024z" />
    <glyph glyph-name="emdash" unicode="&#x2014;" horiz-adv-x="1884" 
d="M143 596v94h1598v-94h-1598z" />
    <glyph glyph-name="emdash.salt_em" unicode="&#x2015;" horiz-adv-x="2048" 
d="M0 596v94h2048v-94h-2048z" />
    <glyph glyph-name="quoteleft" unicode="&#x2018;" horiz-adv-x="542" 
d="M203 1153v152l80 211h45l-41 -199h53v-164h-137z" />
    <glyph glyph-name="quoteright" unicode="&#x2019;" horiz-adv-x="542" 
d="M203 1352v164h137v-152l-80 -211h-45l41 199h-53z" />
    <glyph glyph-name="quotesinglbase" unicode="&#x201a;" horiz-adv-x="542" 
d="M203 0v164h137v-152l-80 -211h-45l41 199h-53z" />
    <glyph glyph-name="quotedblleft" unicode="&#x201c;" horiz-adv-x="894" 
d="M555 1153v152l80 211h45l-41 -199h53v-164h-137zM203 1153v152l80 211h45l-41 -199h53v-164h-137z" />
    <glyph glyph-name="quotedblright" unicode="&#x201d;" horiz-adv-x="894" 
d="M555 1352v164h137v-152l-80 -211h-45l41 199h-53zM203 1352v164h137v-152l-80 -211h-45l41 199h-53z" />
    <glyph glyph-name="quotedblbase" unicode="&#x201e;" horiz-adv-x="894" 
d="M555 0v164h137v-152l-80 -211h-45l41 199h-53zM203 0v164h137v-152l-80 -211h-45l41 199h-53z" />
    <glyph glyph-name="dagger" unicode="&#x2020;" horiz-adv-x="1112" 
d="M500 -410l20 1303l-411 -19v101l411 -21l-20 562h112l-20 -562l412 21v-101l-412 19l20 -1303h-112z" />
    <glyph glyph-name="daggerdbl" unicode="&#x2021;" horiz-adv-x="1112" 
d="M500 -410l20 506l-401 -20v100l401 -18l-12 401l12 391l-401 -18v100l401 -20l-20 504h112l-20 -504l401 20v-100l-401 18l12 -391l-12 -401l401 18v-100l-401 20l20 -506h-112z" />
    <glyph glyph-name="bullet" unicode="&#x2022;" horiz-adv-x="948" 
d="M473 485q-100 0 -166 66t-65 166q0 100 65 167q66 66 166 66t167 -66t67 -166q0 -101 -67 -167t-167 -66z" />
    <glyph glyph-name="ellipsis" unicode="&#x2026;" horiz-adv-x="1628" 
d="M1288 0v164h137v-164h-137zM745 0v164h138v-164h-138zM203 0v164h137v-164h-137z" />
    <glyph glyph-name="perthousand" unicode="&#x2030;" horiz-adv-x="2740" 
d="M2280 68q105 0 166 102q60 102 60 259t-60 255t-166 98t-165 -101q-61 -101 -61 -258t60 -256t166 -99zM1462 782q-106 0 -166 -101t-61 -258q1 -157 61 -256t165 -99t166 102t61 259t-60 255t-166 98zM2605 430q0 -202 -87 -326t-240 -124q-154 0 -238 120t-84 324
q0 203 89 325q89 121 239 121t236 -120t85 -320zM1786 430q0 -202 -87 -326t-240 -124t-237 120t-85 324q0 203 89 325q88 121 238 121t236 -120t86 -320zM460 1448q-106 0 -166 -101t-60 -258t60 -257q61 -100 166 -99q106 1 166 103t60 259t-60 255t-166 98zM459 0
l905 1516h98l-905 -1516h-98zM463 1536q149 0 235 -120t86 -320t-86 -326q-86 -125 -240 -125q-153 0 -238 121q-85 122 -85 324t89 324t239 122z" />
    <glyph glyph-name="minute" unicode="&#x2032;" horiz-adv-x="462" 
d="M156 1010l34 401l19 105h110l-122 -506h-41z" />
    <glyph glyph-name="second" unicode="&#x2033;" horiz-adv-x="802" 
d="M156 1010l34 401l19 105h110l-122 -506h-41zM496 1010l34 401l19 105h110l-122 -506h-41z" />
    <glyph glyph-name="guilsinglleft" unicode="&#x2039;" horiz-adv-x="641" 
d="M397 0l-295 539l295 536h109l-291 -536l291 -539h-109z" />
    <glyph glyph-name="guilsinglright" unicode="&#x203a;" horiz-adv-x="641" 
d="M133 0l293 539l-293 536h109l297 -536l-297 -539h-109z" />
    <glyph glyph-name="fraction" unicode="&#x2044;" horiz-adv-x="917" 
d="M-31 0l881 1516h98l-880 -1516h-99z" />
    <glyph glyph-name="zero.sups" unicode="&#x2070;" horiz-adv-x="937" 
d="M471 641q117 0 183 103t67 297q0 193 -68 301q-67 108 -185 108t-184 -106t-67 -302q1 -195 69 -298t185 -103zM469 561q-162 0 -251 129t-89 352q0 222 89 356t251 134t251 -133t89 -357t-89 -352q-89 -129 -251 -129z" />
    <glyph glyph-name="four.sups" unicode="&#x2074;" horiz-adv-x="870" 
d="M549 895v483l-318 -483h318zM549 578v231h-432v61l422 646h98v-621h154v-86h-154v-231h-88z" />
    <glyph glyph-name="five.sups" unicode="&#x2075;" horiz-adv-x="851" 
d="M420 561q-201 0 -311 193l73 45q92 -158 240 -158q111 0 170 69q59 68 59 174t-58 167t-149 61q-125 0 -198 -106l-84 34l31 476h497l-8 -89h-408l-24 -315q62 82 194 82t214 -85t81 -227q0 -142 -87 -232t-232 -89z" />
    <glyph glyph-name="six.sups" unicode="&#x2076;" horiz-adv-x="884" 
d="M465 643q97 1 157 63t60 168q0 221 -213 222q-141 0 -248 -146q14 -154 81 -230t163 -77zM476 1178q148 0 222 -84t74 -218t-86 -224t-228 -91q-142 0 -236 120q-93 120 -93 345q0 226 95 366t258 140t266 -98l-54 -64q-57 46 -99 64t-108 18q-125 0 -197 -105t-75 -294
q113 125 261 125z" />
    <glyph glyph-name="seven.sups" unicode="&#x2077;" horiz-adv-x="821" 
d="M125 1427v89h573v-72l-397 -866h-94l391 849h-473z" />
    <glyph glyph-name="eight.sups" unicode="&#x2078;" horiz-adv-x="882" 
d="M197 810q-1 -73 69 -121t175 -48t173 47t68 121t-62 126t-190 103q-129 -57 -181 -106t-52 -122zM641 1299q0 59 -52 105q-53 46 -147 46t-148 -44t-54 -104t42 -96t160 -88q113 51 156 86t43 95zM440 561q-152 0 -242 71t-89 170q0 98 56 158t175 115q-96 45 -142 95
t-46 137t79 156q80 69 210 69t210 -69t80 -155t-49 -132t-152 -95q124 -59 184 -120t60 -159t-91 -169q-91 -72 -243 -72z" />
    <glyph glyph-name="nine.sups" unicode="&#x2079;" horiz-adv-x="884" 
d="M427 1532q141 0 235 -120t94 -345t-96 -365t-258 -141q-163 0 -265 98l53 64q58 -45 100 -63t107 -19q125 0 197 105t76 294q-112 -125 -260 -125t-223 84t-75 218q0 135 87 225q86 90 228 90zM416 997q141 0 248 146q-14 155 -81 231t-163 76t-156 -62t-61 -168
q0 -223 213 -223z" />
    <glyph glyph-name="zero.sinf" unicode="&#x2080;" horiz-adv-x="937" 
d="M471 -346q117 0 183 103t67 297q0 194 -68 302q-67 108 -185 107t-184 -107t-67 -301q1 -195 69 -298t185 -103zM469 -426q-162 0 -251 129t-89 352t89 357t251 133q162 0 251 -133q89 -132 89 -356t-89 -353t-251 -129z" />
    <glyph glyph-name="one.sinf" unicode="&#x2081;" horiz-adv-x="718" 
d="M164 -410v86h174v740q-76 -33 -170 -33v86q129 4 182 59h80v-852h158v-86h-424z" />
    <glyph glyph-name="two.sinf" unicode="&#x2082;" horiz-adv-x="899" 
d="M143 -410v37q0 105 71 203t249 213q98 63 140 117t42 130q0 75 -48 124t-130 49t-134 -40t-95 -130l-80 39q100 217 305 217q125 0 200 -73t75 -180t-56 -179q-55 -72 -195 -160q-229 -145 -245 -276h499v-91h-598z" />
    <glyph glyph-name="three.sinf" unicode="&#x2083;" horiz-adv-x="899" 
d="M446 -428q-211 0 -323 197l74 49q94 -158 252 -158q98 0 155 51q58 51 58 145q1 195 -291 195h-47v78h55q264 0 264 174q0 72 -47 116t-143 44q-121 0 -217 -123l-72 47q121 162 291 162q141 0 212 -71t70 -171q0 -164 -162 -217q180 -55 181 -242q0 -116 -84 -196
t-226 -80z" />
    <glyph glyph-name="four.sinf" unicode="&#x2084;" horiz-adv-x="870" 
d="M549 -92v483l-318 -483h318zM549 -410v232h-432v61l422 645h98v-620h154v-86h-154v-232h-88z" />
    <glyph glyph-name="five.sinf" unicode="&#x2085;" horiz-adv-x="851" 
d="M420 -426q-201 0 -311 193l73 45q92 -158 240 -158q111 0 170 68t59 174t-58 167t-149 62q-125 0 -198 -107l-84 35l31 475h497l-8 -88h-408l-24 -315q62 82 194 82t214 -85t81 -227q0 -141 -87 -231t-232 -90z" />
    <glyph glyph-name="six.sinf" unicode="&#x2086;" horiz-adv-x="884" 
d="M465 -344q96 0 157 62q60 62 60 168q0 222 -213 223q-141 0 -248 -146q14 -155 81 -231t163 -76zM458 -426q-142 0 -236 120q-93 120 -93 345t95 365t258 140t266 -98l-54 -63q-57 45 -99 63t-108 19q-125 1 -197 -105t-75 -294q113 124 261 124t222 -84t74 -218
t-86 -224t-228 -90z" />
    <glyph glyph-name="seven.sinf" unicode="&#x2087;" horiz-adv-x="821" 
d="M125 440v88h573v-71l-397 -867h-94l391 850h-473z" />
    <glyph glyph-name="eight.sinf" unicode="&#x2088;" horiz-adv-x="882" 
d="M197 -177q-1 -73 69 -121t175 -48t173 47t68 121t-62 126t-190 103q-129 -57 -181 -106t-52 -122zM641 312q0 60 -52 106q-53 46 -147 45q-94 0 -148 -44q-54 -45 -54 -105t42 -96t160 -87q113 51 156 86t43 95zM440 -426q-152 0 -242 71t-89 170q0 99 56 158t175 115
q-96 45 -142 95t-46 137t79 156q80 69 210 69t210 -69t80 -155t-49 -133t-152 -94q124 -58 184 -120t60 -159t-91 -169t-243 -72z" />
    <glyph glyph-name="nine.sinf" unicode="&#x2089;" horiz-adv-x="884" 
d="M427 545q141 0 235 -120t94 -345q0 -226 -96 -366t-258 -140q-163 0 -265 98l53 64q58 -46 100 -64t107 -18q125 0 197 105t76 294q-112 -125 -260 -125t-223 84t-75 218t87 224q86 90 228 91zM416 10q141 0 248 146q-14 154 -81 230t-163 77q-96 -1 -156 -63t-61 -168
q0 -222 213 -222z" />
    <glyph glyph-name="Euro" unicode="&#x20ac;" horiz-adv-x="1458" 
d="M43 866v92h264q39 290 191 438t350 148q356 0 467 -438l-98 -23q-53 189 -131 279t-242 90t-284 -125t-154 -369h497v-92h-508q-2 -29 -2 -83t4 -132h506v-94h-495q36 -242 150 -368t284 -126q170 1 260 97t141 291l96 -23q-117 -457 -491 -457q-213 1 -356 149t-185 437
h-264v94h256q-4 74 -4 117l2 98h-254z" />
    <glyph glyph-name="uni2117" unicode="&#x2117;" horiz-adv-x="1765" 
d="M711 795h204q111 0 167 38t57 128q0 160 -226 159h-202v-325zM633 324v870h287q143 0 220 -60t77 -176t-81 -176t-225 -61h-200v-397h-78zM883 41q295 0 501 211t205 506q0 295 -206 506q-207 211 -501 211t-500 -211t-206 -506t206 -506t501 -211zM883 -29
q-326 1 -553 231t-228 556q0 326 228 556t553 230q326 0 553 -230t227 -556t-227 -556t-553 -231z" />
    <glyph glyph-name="trademark" unicode="&#x2122;" horiz-adv-x="1771" 
d="M858 649v867h105l284 -758l287 758h106v-867h-86v707l-272 -707h-72l-272 707v-707h-80zM340 649v791h-277v76h635v-76h-276v-791h-82z" />
    <glyph glyph-name="uni2126" unicode="&#x2126;" horiz-adv-x="1503" 
d="M754 1544q284 0 444 -213t160 -528q0 -217 -98 -403t-265 -308h346v-92h-454v92q371 281 370 709q0 285 -136 468t-368 183q-231 0 -369 -178t-138 -471q0 -426 370 -711v-92h-454v92h346q-166 119 -264 305t-99 406q0 319 163 530t446 211z" />
    <glyph glyph-name="estimated" unicode="&#x212e;" horiz-adv-x="1427" 
d="M1075 733v373q-157 145 -365 145t-354 -145v-373h719zM356 651v-450q145 -145 357 -146q171 0 281 76t204 221l76 -47q-102 -160 -234 -245t-327 -85q-283 0 -459 197q-176 198 -176 484t175 481t466 195t464 -196t177 -485h-1004z" />
    <glyph glyph-name="partialdiff" unicode="&#x2202;" horiz-adv-x="1155" 
d="M176 453q0 -174 86 -286t246 -112q158 0 293 162t135 391q0 174 -84 285t-225 111q-179 0 -315 -159t-136 -392zM1036 644q0 -286 -164 -476t-368 -190t-315 134q-112 134 -111 341q0 270 163 449t373 179t316 -190q-55 356 -309 584l59 59q196 -168 276 -386t80 -504z
" />
    <glyph glyph-name="uni2206" unicode="&#x2206;" horiz-adv-x="1349" 
d="M203 86h938l-467 1305h-2zM76 0l549 1524h100l549 -1524h-1198z" />
    <glyph glyph-name="product" unicode="&#x220f;" horiz-adv-x="1472" 
d="M203 -410v1926h1067v-1926h-101v1837h-864v-1837h-102z" />
    <glyph glyph-name="summation" unicode="&#x2211;" horiz-adv-x="1200" 
d="M1077 -324v-86h-958v78l506 914l-480 845v89h912v-89h-801l477 -841l-506 -910h850z" />
    <glyph glyph-name="minus" unicode="&#x2212;" horiz-adv-x="1298" 
d="M133 618v91h1032v-91h-1032z" />
    <glyph glyph-name="uni2215" unicode="&#x2215;" horiz-adv-x="917" 
d="M-31 0l881 1516h98l-880 -1516h-99z" />
    <glyph glyph-name="uni2219" unicode="&#x2219;" horiz-adv-x="542" 
d="M203 561v164h137v-164h-137z" />
    <glyph glyph-name="radical" unicode="&#x221a;" horiz-adv-x="1355" 
d="M88 977v98h250l340 -952h4l502 1393h106l-563 -1522h-98l-363 983h-178z" />
    <glyph glyph-name="infinity" unicode="&#x221e;" horiz-adv-x="1544" 
d="M402 487q108 -1 179 63t144 185q-76 121 -145 186q-70 65 -178 65t-166 -66q-60 -64 -60 -185t60 -185q58 -64 166 -63zM1142 487q108 -1 167 63t59 185t-59 186t-167 65t-178 -64q-71 -63 -145 -183q74 -123 145 -187q70 -64 178 -65zM408 397q-158 0 -242 86t-84 251
t84 253t242 88q217 0 364 -254q143 254 365 254q157 0 241 -88t84 -253t-84 -251t-241 -86q-219 0 -365 258q-149 -258 -364 -258z" />
    <glyph glyph-name="integral" unicode="&#x222b;" horiz-adv-x="641" 
d="M147 -410q-33 0 -57 4v89q25 -6 57 -7q98 0 99 113v1468q0 258 295 259h53v-91q-16 2 -66 2q-184 0 -184 -161v-1465q0 -211 -197 -211z" />
    <glyph glyph-name="approxequal" unicode="&#x2248;" horiz-adv-x="1185" 
d="M1040 528q-8 -100 -64 -146t-130 -40q-76 6 -277 78t-241 76q-113 6 -121 -99l-76 6q7 99 65 147t134 42t275 -78q200 -72 241 -76q111 -10 121 97zM1053 926q-7 -100 -65 -148t-134 -41q-76 6 -275 78q-200 72 -241 76q-111 10 -121 -96l-74 6q7 100 63 146t132 40
t276 -78q201 -72 242 -75q113 -6 121 98z" />
    <glyph glyph-name="notequal" unicode="&#x2260;" horiz-adv-x="1298" 
d="M131 383v94h385l186 373h-571v94h619l204 406h103l-203 -406h311v-94h-358l-189 -373h547v-94h-594l-190 -383h-102l190 383h-338z" />
    <glyph glyph-name="lessequal" unicode="&#x2264;" horiz-adv-x="1298" 
d="M100 119v90h1084v-90h-1084zM1184 283l-1084 399v86l1084 399v-100l-942 -342l942 -342v-100z" />
    <glyph glyph-name="greaterequal" unicode="&#x2265;" horiz-adv-x="1298" 
d="M115 119v90h1083v-90h-1083zM115 283v100l942 342l-942 342v100l1083 -399v-86z" />
    <glyph glyph-name="lozenge" unicode="&#x25ca;" 
d="M666 106l421 652l-421 651l-422 -651zM616 0l-483 758l483 758h99l483 -758l-483 -758h-99z" />
    <glyph glyph-name="uni2713" unicode="&#x2713;" horiz-adv-x="1191" 
d="M465 -6l-399 1081h108l340 -952h4l502 1393h106l-563 -1522h-98z" />
    <glyph glyph-name="commaaccent" unicode="&#xf6c3;" horiz-adv-x="542" 
d="M203 -260v158h137v-146l-80 -211h-45l41 199h-53z" />
    <glyph glyph-name="apple" unicode="&#xf8ff;" horiz-adv-x="1556" 
d="M1151 1130l66 5v-101l-70 2l-12 -243l401 20v-113l-401 21l12 -242l70 4v-100l-66 4l4 -68h-100l2 72l-242 12l21 -403h-113l20 403l-243 -12l4 -72h-101l5 68l-66 -4v100l70 -2l12 240l-404 -21v113l404 -20l-12 245l-70 -4v101l66 -5l-5 64h101l-2 -68l241 -12l-20 402
h113l-21 -402l244 12l-4 68h100zM815 721v-256l246 10l12 246h-258zM743 721h-258l11 -244l247 -12v256zM815 793h258l-10 247l-248 13v-260zM743 793v260l-245 -11l-13 -249h258z" />
    <glyph glyph-name="A.sc" horiz-adv-x="1157" 
d="M68 0l456 1217h111l455 -1217h-105l-145 395h-525l-149 -395h-98zM342 477h465l-229 629h-5z" />
    <glyph glyph-name="AE.sc" horiz-adv-x="1724" 
d="M1602 1212v-88h-652v-438h490v-86h-490v-512h690v-88h-788v399h-451l-247 -399h-107l752 1212h803zM852 483v654h-2l-399 -654h401z" />
    <glyph glyph-name="Aacute.sc" horiz-adv-x="1157" 
d="M68 0l456 1217h111l455 -1217h-105l-145 395h-525l-149 -395h-98zM342 477h465l-229 629h-5zM539 1319l194 309h154l-285 -309h-63z" />
    <glyph glyph-name="Abreve.sc" horiz-adv-x="1157" 
d="M68 0l456 1217h111l455 -1217h-105l-145 395h-525l-149 -395h-98zM342 477h465l-229 629h-5zM578 1313q-127 0 -207 87t-88 238h69q27 -233 226 -233t225 233h69q-8 -152 -88 -238t-206 -87z" />
    <glyph glyph-name="Acircumflex.sc" horiz-adv-x="1157" 
d="M68 0l456 1217h111l455 -1217h-105l-145 395h-525l-149 -395h-98zM342 477h465l-229 629h-5zM272 1309l265 319h81l265 -319h-68l-240 213l-239 -213h-64z" />
    <glyph glyph-name="Adieresis.sc" horiz-adv-x="1157" 
d="M68 0l456 1217h111l455 -1217h-105l-145 395h-525l-149 -395h-98zM342 477h465l-229 629h-5zM340 1319v137h131v-137h-131zM684 1319v137h131v-137h-131z" />
    <glyph glyph-name="Agrave.sc" horiz-adv-x="1157" 
d="M68 0l456 1217h111l455 -1217h-105l-145 395h-525l-149 -395h-98zM342 477h465l-229 629h-5zM559 1319l-285 309h154l195 -309h-64z" />
    <glyph glyph-name="Amacron.sc" horiz-adv-x="1157" 
d="M68 0l456 1217h111l455 -1217h-105l-145 395h-525l-149 -395h-98zM342 477h465l-229 629h-5zM340 1319v94h475v-94h-475z" />
    <glyph glyph-name="Aogonek.sc" horiz-adv-x="1157" 
d="M1006 -383q-96 0 -146 42q-49 43 -49 109t49 128t123 110l-143 389h-525l-149 -395h-98l456 1217h111l455 -1217h-37q-145 -104 -146 -211q0 -102 109 -102q90 0 201 49l22 -43q-137 -76 -233 -76zM342 477h465l-229 629h-5z" />
    <glyph glyph-name="Aring.sc" horiz-adv-x="1157" 
d="M399 1337q-1 76 51 126t128 50t127 -50q51 -51 51 -117q0 -128 -105 -172l439 -1174h-105l-145 395h-525l-149 -395h-98l440 1171q-109 45 -109 166zM342 477h465l-229 629h-5zM578 1219q48 -1 80 33t32 85t-32 84t-80 33t-81 -33q-32 -33 -32 -84t32 -85t81 -33z" />
    <glyph glyph-name="Atilde.sc" horiz-adv-x="1157" 
d="M68 0l456 1217h111l455 -1217h-105l-145 395h-525l-149 -395h-98zM342 477h465l-229 629h-5zM727 1315q-55 0 -159 57q-104 58 -147 58q-41 0 -61 -26t-20 -85h-70q0 203 158 203q56 0 160 -58t146 -57q42 0 62 26q19 26 19 85h70q0 -203 -158 -203z" />
    <glyph glyph-name="B.sc" horiz-adv-x="1183" 
d="M268 86h381q172 0 253 59t81 185q0 252 -375 252h-340v-496zM268 664h328q170 0 256 54t86 180t-79 177t-255 51h-336v-462zM170 0v1212h436q225 0 329 -72q103 -73 103 -235q0 -113 -63 -185t-158 -93v-4q127 -19 197 -95t69 -200q0 -328 -436 -328h-477z" />
    <glyph glyph-name="C.sc" horiz-adv-x="1206" 
d="M633 -23q-240 1 -383 175q-144 174 -144 452t146 454t381 177q358 0 459 -369l-95 -22q-45 156 -131 230t-235 75q-193 1 -309 -147t-117 -396q0 -248 118 -395t314 -148q293 0 381 320l92 -23q-49 -180 -172 -282t-305 -101z" />
    <glyph glyph-name="Cacute.sc" horiz-adv-x="1206" 
d="M633 -23q-240 1 -383 175q-144 174 -144 452t146 454t381 177q358 0 459 -369l-95 -22q-45 156 -131 230t-235 75q-193 1 -309 -147t-117 -396q0 -248 118 -395t314 -148q293 0 381 320l92 -23q-49 -180 -172 -282t-305 -101zM508 1319l194 309h154l-285 -309h-63z" />
    <glyph glyph-name="Ccaron.sc" horiz-adv-x="1206" 
d="M633 -23q-240 1 -383 175q-144 174 -144 452t146 454t381 177q358 0 459 -369l-95 -22q-45 156 -131 230t-235 75q-193 1 -309 -147t-117 -396q0 -248 118 -395t314 -148q293 0 381 320l92 -23q-49 -180 -172 -282t-305 -101zM561 1319l-264 319h68l239 -213l240 213h63
l-264 -319h-82z" />
    <glyph glyph-name="Ccedilla.sc" horiz-adv-x="1206" 
d="M838 -221q0 -174 -252 -174q-118 0 -230 73l33 52q92 -61 197 -62q164 0 164 105q0 76 -91 75q-57 0 -112 -43l-51 25l47 156q-203 32 -320 200t-117 432t146 440t381 177q358 0 459 -369l-95 -22q-45 156 -131 230t-235 75q-193 1 -309 -147t-117 -396q0 -248 118 -395
t314 -148q293 0 381 320l92 -23q-49 -180 -172 -281t-305 -102h-17l-28 -92q47 31 106 31q60 0 102 -36t42 -101z" />
    <glyph glyph-name="Ccircumflex.sc" horiz-adv-x="1206" 
d="M633 -23q-240 1 -383 175q-144 174 -144 452t146 454t381 177q358 0 459 -369l-95 -22q-45 156 -131 230t-235 75q-193 1 -309 -147t-117 -396q0 -248 118 -395t314 -148q293 0 381 320l92 -23q-49 -180 -172 -282t-305 -101zM332 1309l264 319h82l264 -319h-68l-239 213
l-240 -213h-63z" />
    <glyph glyph-name="Cdotaccent.sc" horiz-adv-x="1206" 
d="M633 -23q-240 1 -383 175q-144 174 -144 452t146 454t381 177q358 0 459 -369l-95 -22q-45 156 -131 230t-235 75q-193 1 -309 -147t-117 -396q0 -248 118 -395t314 -148q293 0 381 320l92 -23q-49 -180 -172 -282t-305 -101zM563 1319v141h135v-141h-135z" />
    <glyph glyph-name="D.sc" horiz-adv-x="1224" 
d="M268 88h234q254 0 384 123t130 395t-131 395t-385 123h-232v-1036zM170 0v1212h315q317 0 474 -148t157 -458q0 -606 -631 -606h-315z" />
    <glyph glyph-name="Dcaron.sc" horiz-adv-x="1224" 
d="M268 88h234q254 0 384 123t130 395t-131 395t-385 123h-232v-1036zM170 0v1212h315q317 0 474 -148t157 -458q0 -606 -631 -606h-315zM571 1319l-264 319h68l239 -213l240 213h64l-265 -319h-82z" />
    <glyph glyph-name="Dcroat.sc" horiz-adv-x="1224" 
d="M268 600v-512h234q254 0 384 123t130 395t-131 395t-385 123h-232v-440h291v-84h-291zM170 0v600h-147v84h147v528h315q317 0 474 -148t157 -458q0 -606 -631 -606h-315z" />
    <glyph glyph-name="E.sc" horiz-adv-x="1042" 
d="M170 0v1212h752v-88h-654v-438h490v-86h-490v-512h690v-88h-788z" />
    <glyph glyph-name="Eacute.sc" horiz-adv-x="1042" 
d="M170 0v1212h752v-88h-654v-438h490v-86h-490v-512h690v-88h-788zM446 1319l195 309h154l-285 -309h-64z" />
    <glyph glyph-name="Ebreve.sc" horiz-adv-x="1042" 
d="M170 0v1212h752v-88h-654v-438h490v-86h-490v-512h690v-88h-788zM541 1313q-127 0 -207 87t-88 238h69q27 -233 226 -233t225 233h70q-8 -152 -88 -238t-207 -87z" />
    <glyph glyph-name="Ecaron.sc" horiz-adv-x="1042" 
d="M170 0v1212h752v-88h-654v-438h490v-86h-490v-512h690v-88h-788zM500 1319l-264 319h67l240 -213l239 213h64l-264 -319h-82z" />
    <glyph glyph-name="Ecircumflex.sc" horiz-adv-x="1042" 
d="M170 0v1212h752v-88h-654v-438h490v-86h-490v-512h690v-88h-788zM236 1309l264 319h82l264 -319h-68l-239 213l-240 -213h-63z" />
    <glyph glyph-name="Edieresis.sc" horiz-adv-x="1042" 
d="M170 0v1212h752v-88h-654v-438h490v-86h-490v-512h690v-88h-788zM303 1319v137h131v-137h-131zM647 1319v137h131v-137h-131z" />
    <glyph glyph-name="Edotaccent.sc" horiz-adv-x="1042" 
d="M170 0v1212h752v-88h-654v-438h490v-86h-490v-512h690v-88h-788zM473 1319v141h135v-141h-135z" />
    <glyph glyph-name="Egrave.sc" horiz-adv-x="1042" 
d="M170 0v1212h752v-88h-654v-438h490v-86h-490v-512h690v-88h-788zM571 1319l-284 309h153l195 -309h-64z" />
    <glyph glyph-name="Emacron.sc" horiz-adv-x="1042" 
d="M170 0v1212h752v-88h-654v-438h490v-86h-490v-512h690v-88h-788zM283 1319v94h475v-94h-475z" />
    <glyph glyph-name="Eng.sc" horiz-adv-x="1284" 
d="M170 0v1212h113l731 -1030h2v1030h98v-1278q0 -344 -334 -344q-178 0 -327 109l53 76q135 -100 272 -101q238 0 238 256v80l-750 1053h-2v-1063h-94z" />
    <glyph glyph-name="Eogonek.sc" horiz-adv-x="1042" 
d="M811 -383q-96 0 -145 42t-50 116q0 113 162 225h-608v1212h752v-88h-654v-438h490v-86h-490v-512h690v-88h-100q-145 -104 -145 -211q0 -102 108 -102q90 0 201 49l22 -43q-137 -76 -233 -76z" />
    <glyph glyph-name="Eth.sc" horiz-adv-x="1224" 
d="M268 600v-512h234q254 0 384 123t130 395t-131 395t-385 123h-232v-440h291v-84h-291zM170 0v600h-147v84h147v528h315q317 0 474 -148t157 -458q0 -606 -631 -606h-315z" />
    <glyph glyph-name="Euro.sc" horiz-adv-x="1161" 
d="M672 -29q-170 0 -287 119t-149 348h-209v88h200q-2 31 -2 80t2 76h-200v88h209q33 227 155 348q123 121 281 121q289 0 379 -362l-97 -23q-41 152 -101 224t-183 71q-123 0 -216 -97t-122 -282h393v-88h-401q-2 -23 -2 -65t4 -91h399v-88h-391q29 -180 118 -277t217 -97
q129 0 197 76q68 77 109 231l96 -21q-98 -379 -399 -379z" />
    <glyph glyph-name="Euro.tab" 
d="M784 -29q-213 1 -356 149t-184 437h-264v94h256q-6 70 -3 215h-253v92h264q39 289 190 438q152 148 350 148q356 0 467 -438l-98 -23q-53 189 -131 279t-242 90t-284 -125t-154 -369h498v-92h-508q-6 -90 2 -215h506v-94h-496q35 -242 150 -368q114 -126 284 -126
q170 1 260 97t142 291l96 -23q-117 -457 -492 -457z" />
    <glyph glyph-name="F.sc" horiz-adv-x="976" 
d="M170 0v1212h739v-88h-641v-442h477v-86h-477v-596h-98z" />
    <glyph glyph-name="G.sc" horiz-adv-x="1245" 
d="M642 -23q-253 1 -394 179q-142 178 -142 458t150 450q150 171 383 171q356 0 457 -369l-92 -22q-50 158 -136 232t-231 73q-188 0 -310 -142q-122 -141 -122 -393t117 -402t302 -149q185 0 287 111t99 303h-326v86h420v-563h-90v188h-2q-117 -211 -370 -211z" />
    <glyph glyph-name="Gbreve.sc" horiz-adv-x="1245" 
d="M642 -23q-253 1 -394 179q-142 178 -142 458t150 450q150 171 383 171q356 0 457 -369l-92 -22q-50 158 -136 232t-231 73q-188 0 -310 -142q-122 -141 -122 -393t117 -402t302 -149q185 0 287 111t99 303h-326v86h420v-563h-90v188h-2q-117 -211 -370 -211zM623 1313
q-127 0 -207 87t-88 238h69q27 -233 226 -233t225 233h70q-8 -152 -88 -238t-207 -87z" />
    <glyph glyph-name="Gcircumflex.sc" horiz-adv-x="1245" 
d="M642 -23q-253 1 -394 179q-142 178 -142 458t150 450q150 171 383 171q356 0 457 -369l-92 -22q-50 158 -136 232t-231 73q-188 0 -310 -142q-122 -141 -122 -393t117 -402t302 -149q185 0 287 111t99 303h-326v86h420v-563h-90v188h-2q-117 -211 -370 -211zM336 1309
l264 319h82l264 -319h-67l-240 213l-240 -213h-63z" />
    <glyph glyph-name="Gcommaaccent.sc" horiz-adv-x="1245" 
d="M563 -260v158h137v-146l-79 -211h-46l41 199h-53zM642 -23q-253 1 -394 179q-142 178 -142 458t150 450q150 171 383 171q356 0 457 -369l-92 -22q-50 158 -136 232t-231 73q-188 0 -310 -142q-122 -141 -122 -393t117 -402t302 -149q185 0 287 111t99 303h-326v86h420
v-563h-90v188h-2q-117 -211 -370 -211z" />
    <glyph glyph-name="Gdotaccent.sc" horiz-adv-x="1245" 
d="M642 -23q-253 1 -394 179q-142 178 -142 458t150 450q150 171 383 171q356 0 457 -369l-92 -22q-50 158 -136 232t-231 73q-188 0 -310 -142q-122 -141 -122 -393t117 -402t302 -149q185 0 287 111t99 303h-326v86h420v-563h-90v188h-2q-117 -211 -370 -211zM569 1319
v141h136v-141h-136z" />
    <glyph glyph-name="H.sc" horiz-adv-x="1263" 
d="M170 0v1212h98v-528h725v528h101v-1212h-101v598h-725v-598h-98z" />
    <glyph glyph-name="Hbar.sc" horiz-adv-x="1263" 
d="M268 598v-598h-98v883h-147v84h147v245h98v-245h725v245h101v-245h147v-84h-147v-883h-101v598h-725zM268 684h725v199h-725v-199z" />
    <glyph glyph-name="Hcircumflex.sc" horiz-adv-x="1263" 
d="M170 0v1212h98v-528h725v528h101v-1212h-101v598h-725v-598h-98zM326 1309l264 319h82l264 -319h-68l-239 213l-240 -213h-63z" />
    <glyph glyph-name="I.sc" horiz-adv-x="475" 
d="M188 0v1212h101v-1212h-101z" />
    <glyph glyph-name="IJ.sc" horiz-adv-x="1271" 
d="M776 -23q-178 0 -327 109l53 76q135 -100 272 -101q238 0 238 256v895h98v-890q0 -345 -334 -345zM188 0v1212h101v-1212h-101z" />
    <glyph glyph-name="Iacute.sc" horiz-adv-x="475" 
d="M188 0v1212h101v-1212h-101zM197 1319l194 309h154l-285 -309h-63z" />
    <glyph glyph-name="Ibreve.sc" horiz-adv-x="475" 
d="M188 0v1212h101v-1212h-101zM238 1313q-127 0 -207 87t-88 238h69q27 -233 226 -233t225 233h69q-8 -152 -88 -238t-206 -87z" />
    <glyph glyph-name="Icircumflex.sc" horiz-adv-x="475" 
d="M188 0v1212h101v-1212h-101zM-68 1309l265 319h82l264 -319h-68l-239 213l-240 -213h-64z" />
    <glyph glyph-name="Idieresis.sc" horiz-adv-x="475" 
d="M188 0v1212h101v-1212h-101zM0 1319v137h131v-137h-131zM344 1319v137h131v-137h-131z" />
    <glyph glyph-name="Idotaccent.sc" horiz-adv-x="475" 
d="M188 0v1212h101v-1212h-101zM170 1319v141h135v-141h-135z" />
    <glyph glyph-name="Igrave.sc" horiz-adv-x="475" 
d="M188 0v1212h101v-1212h-101zM215 1319l-285 309h154l195 -309h-64z" />
    <glyph glyph-name="Imacron.sc" horiz-adv-x="475" 
d="M188 0v1212h101v-1212h-101zM0 1319v94h475v-94h-475z" />
    <glyph glyph-name="Iogonek.sc" horiz-adv-x="475" 
d="M213 -383q-96 0 -145 42q-50 43 -50 109t50 128t120 108v1208h101v-1212h-29q-145 -104 -145 -211q0 -102 108 -102q90 0 201 49l22 -43q-137 -76 -233 -76z" />
    <glyph glyph-name="Itilde.sc" horiz-adv-x="475" 
d="M188 0v1212h101v-1212h-101zM387 1315q-55 0 -159 57q-104 58 -147 58q-41 0 -61 -26t-20 -85h-70q0 203 158 203q56 0 160 -58t146 -57q42 0 62 26q19 26 19 85h70q0 -203 -158 -203z" />
    <glyph glyph-name="J.sc" horiz-adv-x="858" 
d="M362 -23q-178 0 -327 109l53 76q135 -100 272 -101q238 0 238 256v895h98v-890q0 -345 -334 -345z" />
    <glyph glyph-name="Jcircumflex.sc" horiz-adv-x="858" 
d="M362 -23q-178 0 -327 109l53 76q135 -100 272 -101q238 0 238 256v895h98v-890q0 -345 -334 -345zM342 1309l264 319h82l264 -319h-67l-240 213l-239 -213h-64z" />
    <glyph glyph-name="K.sc" horiz-adv-x="1148" 
d="M170 0v1212h98v-673l643 673h125l-442 -456l510 -756h-117l-463 680l-256 -260v-420h-98z" />
    <glyph glyph-name="Kcommaaccent.sc" horiz-adv-x="1148" 
d="M506 -260v158h137v-146l-80 -211h-45l41 199h-53zM170 0v1212h98v-673l643 673h125l-442 -456l510 -756h-117l-463 680l-256 -260v-420h-98z" />
    <glyph glyph-name="L.sc" horiz-adv-x="976" 
d="M907 0h-737v1212h98v-1124h639v-88z" />
    <glyph glyph-name="Lacute.sc" horiz-adv-x="976" 
d="M907 0h-737v1212h98v-1124h639v-88zM190 1319l195 309h154l-285 -309h-64z" />
    <glyph glyph-name="Lcaron.sc" horiz-adv-x="976" 
d="M526 1055v157h138v-145l-80 -211h-45l41 199h-54zM907 0h-737v1212h98v-1124h639v-88z" />
    <glyph glyph-name="Lcommaaccent.sc" horiz-adv-x="976" 
d="M420 -260v158h137v-146l-80 -211h-45l41 199h-53zM907 0h-737v1212h98v-1124h639v-88z" />
    <glyph glyph-name="Ldot.sc" horiz-adv-x="1017" 
d="M662 578v141h135v-141h-135zM907 0h-737v1212h98v-1124h639v-88z" />
    <glyph glyph-name="Lslash.sc" horiz-adv-x="976" 
d="M907 88v-88h-737v573l-147 -36v84l147 36v555h98v-530l291 74v-84l-291 -74v-510h639z" />
    <glyph glyph-name="M.sc" horiz-adv-x="1505" 
d="M264 0h-94v1212h127l453 -1085h4l452 1085h129v-1212h-102v1049h-2q-29 -88 -82 -213l-354 -836h-90l-357 836q-51 133 -82 215h-2v-1051z" />
    <glyph glyph-name="N.sc" horiz-adv-x="1284" 
d="M264 0h-94v1212h113l731 -1030h2v1030h98v-1212h-90l-758 1063h-2v-1063z" />
    <glyph glyph-name="Nacute.sc" horiz-adv-x="1284" 
d="M264 0h-94v1212h113l731 -1030h2v1030h98v-1212h-90l-758 1063h-2v-1063zM545 1319l194 309h154l-285 -309h-63z" />
    <glyph glyph-name="Ncaron.sc" horiz-adv-x="1284" 
d="M264 0h-94v1212h113l731 -1030h2v1030h98v-1212h-90l-758 1063h-2v-1063zM598 1319l-264 319h67l240 -213l240 213h63l-264 -319h-82z" />
    <glyph glyph-name="Ncommaaccent.sc" horiz-adv-x="1284" 
d="M571 -260v158h138v-146l-80 -211h-45l41 199h-54zM264 0h-94v1212h113l731 -1030h2v1030h98v-1212h-90l-758 1063h-2v-1063z" />
    <glyph glyph-name="Ntilde.sc" horiz-adv-x="1284" 
d="M264 0h-94v1212h113l731 -1030h2v1030h98v-1212h-90l-758 1063h-2v-1063zM788 1315q-55 0 -159 57q-105 58 -147 58t-61 -26t-20 -85h-69q0 203 157 203q55 0 159 -58t148 -57q42 0 61 26t20 85h69q0 -203 -158 -203z" />
    <glyph glyph-name="O.sc" horiz-adv-x="1277" 
d="M205 606q-1 -250 121 -396t314 -147q192 1 312 147q121 146 121 396t-121 396q-120 146 -312 146t-314 -146t-121 -396zM638 -23q-234 1 -382 175q-150 174 -150 454t150 455q150 174 383 174t383 -175t150 -454t-150 -454t-384 -175z" />
    <glyph glyph-name="OE.sc" horiz-adv-x="1941" 
d="M639 -23q-236 1 -384 175q-149 174 -149 454t148 455q148 174 385 174q151 0 263 -74t175 -211v262h744v-88h-654v-438h490v-86h-490v-512h691v-88h-781v262q-131 -285 -438 -285zM639 63q190 1 310 147t120 396t-120 396t-310 146t-312 -146t-122 -396t122 -396
t312 -147z" />
    <glyph glyph-name="Oacute.sc" horiz-adv-x="1277" 
d="M205 606q-1 -250 121 -396t314 -147q192 1 312 147q121 146 121 396t-121 396q-120 146 -312 146t-314 -146t-121 -396zM638 -23q-234 1 -382 175q-150 174 -150 454t150 455q150 174 383 174t383 -175t150 -454t-150 -454t-384 -175zM545 1319l194 309h154l-285 -309
h-63z" />
    <glyph glyph-name="Obreve.sc" horiz-adv-x="1277" 
d="M205 606q-1 -250 121 -396t314 -147q192 1 312 147q121 146 121 396t-121 396q-120 146 -312 146t-314 -146t-121 -396zM638 -23q-234 1 -382 175q-150 174 -150 454t150 455q150 174 383 174t383 -175t150 -454t-150 -454t-384 -175zM639 1313q-127 0 -207 87t-88 238
h70q28 -233 226 -233t224 233h70q-8 -152 -88 -238t-207 -87z" />
    <glyph glyph-name="Ocircumflex.sc" horiz-adv-x="1277" 
d="M205 606q-1 -250 121 -396t314 -147q192 1 312 147q121 146 121 396t-121 396q-120 146 -312 146t-314 -146t-121 -396zM638 -23q-234 1 -382 175q-150 174 -150 454t150 455q150 174 383 174t383 -175t150 -454t-150 -454t-384 -175zM334 1309l264 319h82l264 -319h-67
l-240 213l-240 -213h-63z" />
    <glyph glyph-name="Odieresis.sc" horiz-adv-x="1277" 
d="M205 606q-1 -250 121 -396t314 -147q192 1 312 147q121 146 121 396t-121 396q-120 146 -312 146t-314 -146t-121 -396zM638 -23q-234 1 -382 175q-150 174 -150 454t150 455q150 174 383 174t383 -175t150 -454t-150 -454t-384 -175zM401 1319v137h131v-137h-131z
M745 1319v137h132v-137h-132z" />
    <glyph glyph-name="Ograve.sc" horiz-adv-x="1277" 
d="M205 606q-1 -250 121 -396t314 -147q192 1 312 147q121 146 121 396t-121 396q-120 146 -312 146t-314 -146t-121 -396zM638 -23q-234 1 -382 175q-150 174 -150 454t150 455q150 174 383 174t383 -175t150 -454t-150 -454t-384 -175zM670 1319l-285 309h154l194 -309
h-63z" />
    <glyph glyph-name="Ohungarumlaut.sc" horiz-adv-x="1277" 
d="M205 606q-1 -250 121 -396t314 -147q192 1 312 147q121 146 121 396t-121 396q-120 146 -312 146t-314 -146t-121 -396zM638 -23q-234 1 -382 175q-150 174 -150 454t150 455q150 174 383 174t383 -175t150 -454t-150 -454t-384 -175zM393 1319l191 309h157l-280 -309
h-68zM709 1319l190 309h158l-281 -309h-67z" />
    <glyph glyph-name="Omacron.sc" horiz-adv-x="1277" 
d="M205 606q-1 -250 121 -396t314 -147q192 1 312 147q121 146 121 396t-121 396q-120 146 -312 146t-314 -146t-121 -396zM638 -23q-234 1 -382 175q-150 174 -150 454t150 455q150 174 383 174t383 -175t150 -454t-150 -454t-384 -175zM401 1319v94h476v-94h-476z" />
    <glyph glyph-name="Oslash.sc" horiz-adv-x="1277" 
d="M106 602q0 285 150 459t385 174q178 0 317 -113l105 146l65 -49l-110 -154q154 -176 154 -457q0 -282 -150 -456t-381 -175q-188 0 -322 111l-100 -139l-65 49l106 147q-154 172 -154 457zM641 63q190 1 311 147t121 390t-110 389l-590 -827q110 -99 268 -99zM641 1149
q-193 -1 -315 -147t-122 -390t111 -389l592 828q-111 98 -266 98z" />
    <glyph glyph-name="Otilde.sc" horiz-adv-x="1277" 
d="M205 606q-1 -250 121 -396t314 -147q192 1 312 147q121 146 121 396t-121 396q-120 146 -312 146t-314 -146t-121 -396zM638 -23q-234 1 -382 175q-150 174 -150 454t150 455q150 174 383 174t383 -175t150 -454t-150 -454t-384 -175zM788 1315q-55 0 -159 57
q-105 58 -147 58t-61 -26t-20 -85h-69q0 203 157 203q55 0 159 -58t148 -57q42 0 61 26t20 85h69q0 -203 -158 -203z" />
    <glyph glyph-name="P.sc" horiz-adv-x="1105" 
d="M268 1124v-481h318q174 0 259 53q85 52 85 188t-85 188t-261 52h-316zM268 0h-98v1212h420q438 0 438 -321q0 -180 -116 -257t-332 -77h-312v-557z" />
    <glyph glyph-name="Q.sc" horiz-adv-x="1277" 
d="M205 606q-1 -250 121 -396t314 -147q192 1 311 147q120 146 120 396t-120 396q-119 146 -311 146t-314 -146t-121 -396zM1061 -217v-84h-98q-184 0 -281 78q-96 78 -96 205q-215 20 -347 191q-133 171 -133 443t150 445q150 174 383 174t383 -175q150 -174 150 -446
t-136 -445q-135 -173 -350 -189q14 -197 287 -197h88z" />
    <glyph glyph-name="R.sc" horiz-adv-x="1155" 
d="M268 0h-98v1212h422q436 0 436 -319q0 -285 -309 -322l328 -571h-113l-324 561h-342v-561zM268 1124v-479h318q174 0 259 54q85 55 85 187t-86 185t-260 53h-316z" />
    <glyph glyph-name="Racute.sc" horiz-adv-x="1155" 
d="M268 0h-98v1212h422q436 0 436 -319q0 -285 -309 -322l328 -571h-113l-324 561h-342v-561zM268 1124v-479h318q174 0 259 54q85 55 85 187t-86 185t-260 53h-316zM483 1319l195 309h153l-284 -309h-64z" />
    <glyph glyph-name="Rcaron.sc" horiz-adv-x="1155" 
d="M268 0h-98v1212h422q436 0 436 -319q0 -285 -309 -322l328 -571h-113l-324 561h-342v-561zM268 1124v-479h318q174 0 259 54q85 55 85 187t-86 185t-260 53h-316zM537 1319l-265 319h68l240 -213l239 213h64l-265 -319h-81z" />
    <glyph glyph-name="Rcommaaccent.sc" horiz-adv-x="1155" 
d="M510 -260v158h137v-146l-80 -211h-45l41 199h-53zM268 0h-98v1212h422q436 0 436 -319q0 -285 -309 -322l328 -571h-113l-324 561h-342v-561zM268 1124v-479h318q174 0 259 54q85 55 85 187t-86 185t-260 53h-316z" />
    <glyph glyph-name="S.sc" horiz-adv-x="1116" 
d="M543 1235q324 0 422 -283l-88 -30q-86 227 -336 227q-137 0 -215 -56t-78 -157q0 -61 21 -106q36 -71 169 -118q38 -12 92 -28q265 -75 328 -115q143 -86 143 -256q1 -170 -119 -253t-306 -83t-304 86q-119 86 -161 238l90 29q39 -131 135 -200t242 -69q146 -1 236 61
q89 62 89 183t-93 176q-73 44 -218 88q-6 2 -18 5q-268 66 -348 148q-30 32 -53 86q-24 54 -23 124q0 143 108 223q109 80 285 80z" />
    <glyph glyph-name="Sacute.sc" horiz-adv-x="1116" 
d="M543 1235q324 0 422 -283l-88 -30q-86 227 -336 227q-137 0 -215 -56t-78 -157q0 -61 21 -106q36 -71 169 -118q38 -12 92 -28q265 -75 328 -115q143 -86 143 -256q1 -170 -119 -253t-306 -83t-304 86q-119 86 -161 238l90 29q39 -131 135 -200t242 -69q146 -1 236 61
q89 62 89 183t-93 176q-73 44 -218 88q-6 2 -18 5q-268 66 -348 148q-30 32 -53 86q-24 54 -23 124q0 143 108 223q109 80 285 80zM463 1319l194 309h154l-285 -309h-63z" />
    <glyph glyph-name="Scaron.sc" horiz-adv-x="1116" 
d="M543 1235q324 0 422 -283l-88 -30q-86 227 -336 227q-137 0 -215 -56t-78 -157q0 -61 21 -106q36 -71 169 -118q38 -12 92 -28q265 -75 328 -115q143 -86 143 -256q1 -170 -119 -253t-306 -83t-304 86q-119 86 -161 238l90 29q39 -131 135 -200t242 -69q146 -1 236 61
q89 62 89 183t-93 176q-73 44 -218 88q-6 2 -18 5q-268 66 -348 148q-30 32 -53 86q-24 54 -23 124q0 143 108 223q109 80 285 80zM516 1319l-264 319h67l240 -213l240 213h63l-264 -319h-82z" />
    <glyph glyph-name="Scedilla.sc" horiz-adv-x="1116" 
d="M543 1235q324 0 422 -283l-88 -30q-86 227 -336 227q-137 0 -215 -56t-78 -157q0 -61 21 -106q36 -71 169 -118q38 -12 92 -28q265 -75 328 -115q143 -86 143 -256q1 -170 -119 -253t-311 -83l-28 -92q47 31 106 31t101 -36t43 -114q0 -78 -67 -119q-66 -42 -184 -42
t-231 73l33 52q92 -61 197 -62q164 0 164 105q0 76 -91 75q-57 0 -112 -43l-51 25l45 152q-147 16 -247 100q-99 84 -138 219l90 29q39 -131 135 -200t242 -69q146 -1 236 61q89 62 89 183t-93 176q-73 44 -218 88q-6 2 -18 5q-268 66 -348 148q-30 32 -53 86
q-24 54 -23 124q0 143 108 223q109 80 285 80z" />
    <glyph glyph-name="Scircumflex.sc" horiz-adv-x="1116" 
d="M543 1235q324 0 422 -283l-88 -30q-86 227 -336 227q-137 0 -215 -56t-78 -157q0 -61 21 -106q36 -71 169 -118q38 -12 92 -28q265 -75 328 -115q143 -86 143 -256q1 -170 -119 -253t-306 -83t-304 86q-119 86 -161 238l90 29q39 -131 135 -200t242 -69q146 -1 236 61
q89 62 89 183t-93 176q-73 44 -218 88q-6 2 -18 5q-268 66 -348 148q-30 32 -53 86q-24 54 -23 124q0 143 108 223q109 80 285 80zM231 1309l265 319h82l264 -319h-68l-239 213l-240 -213h-64z" />
    <glyph glyph-name="Scommaaccent.sc" horiz-adv-x="1116" 
d="M489 -260v158h138v-146l-80 -211h-45l41 199h-54zM543 1235q324 0 422 -283l-88 -30q-86 227 -336 227q-137 0 -215 -56t-78 -157q0 -61 21 -106q36 -71 169 -118q38 -12 92 -28q265 -75 328 -115q143 -86 143 -256q1 -170 -119 -253t-306 -83t-304 86q-119 86 -161 238
l90 29q39 -131 135 -200t242 -69q146 -1 236 61q89 62 89 183t-93 176q-73 44 -218 88q-6 2 -18 5q-268 66 -348 148q-30 32 -53 86q-24 54 -23 124q0 143 108 223q109 80 285 80z" />
    <glyph glyph-name="T.sc" horiz-adv-x="1062" 
d="M582 0h-101v1124h-418v88h936v-88h-417v-1124z" />
    <glyph glyph-name="Tbar.sc" horiz-adv-x="1062" 
d="M999 555h-417v-555h-101v555h-418v84h418v485h-418v88h936v-88h-417v-485h417v-84z" />
    <glyph glyph-name="Tcaron.sc" horiz-adv-x="1062" 
d="M582 0h-101v1124h-418v88h936v-88h-417v-1124zM489 1319l-264 319h68l239 -213l240 213h64l-265 -319h-82z" />
    <glyph glyph-name="Tcommaaccent.sc" horiz-adv-x="1062" 
d="M463 -260v158h137v-146l-80 -211h-45l41 199h-53zM582 0h-101v1124h-418v88h936v-88h-417v-1124z" />
    <glyph glyph-name="Thorn.sc" horiz-adv-x="1105" 
d="M268 887v-481h310q174 0 263 57t89 185t-90 183t-267 56h-305zM268 0h-98v1212h98v-237h316q212 0 328 -82t116 -245t-122 -246t-337 -83h-301v-319z" />
    <glyph glyph-name="U.sc" horiz-adv-x="1239" 
d="M1079 408q0 -186 -120 -308t-340 -123q-219 0 -339 121t-120 305v809h100v-792q0 -160 90 -258t270 -98t269 96q90 96 90 258v794h100v-804z" />
    <glyph glyph-name="Uacute.sc" horiz-adv-x="1239" 
d="M1079 408q0 -186 -120 -308t-340 -123q-219 0 -339 121t-120 305v809h100v-792q0 -160 90 -258t270 -98t269 96q90 96 90 258v794h100v-804zM463 1319l194 309h154l-285 -309h-63z" />
    <glyph glyph-name="Ubreve.sc" horiz-adv-x="1239" 
d="M1079 408q0 -186 -120 -308t-340 -123q-219 0 -339 121t-120 305v809h100v-792q0 -160 90 -258t270 -98t269 96q90 96 90 258v794h100v-804zM618 1313q-126 0 -206 87t-88 238h69q27 -233 225 -233t226 233h69q-8 -152 -88 -238t-207 -87z" />
    <glyph glyph-name="Ucircumflex.sc" horiz-adv-x="1239" 
d="M1079 408q0 -186 -120 -308t-340 -123q-219 0 -339 121t-120 305v809h100v-792q0 -160 90 -258t270 -98t269 96q90 96 90 258v794h100v-804zM313 1309l265 319h81l265 -319h-68l-240 213l-239 -213h-64z" />
    <glyph glyph-name="Udieresis.sc" horiz-adv-x="1239" 
d="M1079 408q0 -186 -120 -308t-340 -123q-219 0 -339 121t-120 305v809h100v-792q0 -160 90 -258t270 -98t269 96q90 96 90 258v794h100v-804zM381 1319v137h131v-137h-131zM725 1319v137h131v-137h-131z" />
    <glyph glyph-name="Ugrave.sc" horiz-adv-x="1239" 
d="M1079 408q0 -186 -120 -308t-340 -123q-219 0 -339 121t-120 305v809h100v-792q0 -160 90 -258t270 -98t269 96q90 96 90 258v794h100v-804zM649 1319l-284 309h153l195 -309h-64z" />
    <glyph glyph-name="Uhungarumlaut.sc" horiz-adv-x="1239" 
d="M1079 408q0 -186 -120 -308t-340 -123q-219 0 -339 121t-120 305v809h100v-792q0 -160 90 -258t270 -98t269 96q90 96 90 258v794h100v-804zM373 1319l190 309h158l-281 -309h-67zM688 1319l191 309h157l-280 -309h-68z" />
    <glyph glyph-name="Umacron.sc" horiz-adv-x="1239" 
d="M1079 408q0 -186 -120 -308t-340 -123q-219 0 -339 121t-120 305v809h100v-792q0 -160 90 -258t270 -98t269 96q90 96 90 258v794h100v-804zM381 1319v94h475v-94h-475z" />
    <glyph glyph-name="Uogonek.sc" horiz-adv-x="1239" 
d="M640 -383q-96 0 -146 42q-49 42 -50 116q0 100 134 205q-201 12 -310 131t-108 292v809h100v-792q0 -160 90 -258t270 -98t269 96q90 96 90 258v794h100v-804q1 -176 -109 -297t-313 -131q-117 -96 -116 -191q0 -102 108 -102q90 0 201 49l22 -43q-136 -76 -232 -76z" />
    <glyph glyph-name="Uring.sc" horiz-adv-x="1239" 
d="M1079 408q0 -186 -120 -308t-340 -123q-219 0 -339 121t-120 305v809h100v-792q0 -160 90 -258t270 -98t269 96q90 96 90 258v794h100v-804zM618 1364q49 0 81 34t32 85t-32 84t-81 33q-48 0 -80 -34q-32 -32 -32 -83t32 -85t80 -34zM618 1305q-78 0 -128 50t-50 127
t52 127t126 50q76 0 127 -50t51 -127t-50 -127t-128 -50z" />
    <glyph glyph-name="Utilde.sc" horiz-adv-x="1239" 
d="M1079 408q0 -186 -120 -308t-340 -123q-219 0 -339 121t-120 305v809h100v-792q0 -160 90 -258t270 -98t269 96q90 96 90 258v794h100v-804zM768 1315q-56 0 -160 57q-104 58 -146 58t-62 -26t-19 -85h-70q0 203 158 203q55 0 159 -58t147 -57q42 0 62 26q19 26 19 85h70
q0 -203 -158 -203z" />
    <glyph glyph-name="V.sc" horiz-adv-x="1134" 
d="M612 -4h-90l-454 1216h102l397 -1083h4l398 1083h98z" />
    <glyph glyph-name="W.sc" horiz-adv-x="1597" 
d="M514 0h-96l-344 1212h102l209 -759q70 -258 82 -310h2q10 49 76 308l203 761h108l203 -768q61 -219 76 -301h2q12 49 39 145t41 150l213 774h94l-338 -1212h-101l-282 1079h-4z" />
    <glyph glyph-name="Wacute.sc" horiz-adv-x="1597" 
d="M514 0h-96l-344 1212h102l209 -759q70 -258 82 -310h2q10 49 76 308l203 761h108l203 -768q61 -219 76 -301h2q12 49 39 145t41 150l213 774h94l-338 -1212h-101l-282 1079h-4zM764 1319l194 309h154l-285 -309h-63z" />
    <glyph glyph-name="Wcircumflex.sc" horiz-adv-x="1597" 
d="M514 0h-96l-344 1212h102l209 -759q70 -258 82 -310h2q10 49 76 308l203 761h108l203 -768q61 -219 76 -301h2q12 49 39 145t41 150l213 774h94l-338 -1212h-101l-282 1079h-4zM494 1309l264 319h82l264 -319h-68l-239 213l-240 -213h-63z" />
    <glyph glyph-name="Wdieresis.sc" horiz-adv-x="1597" 
d="M514 0h-96l-344 1212h102l209 -759q70 -258 82 -310h2q10 49 76 308l203 761h108l203 -768q61 -219 76 -301h2q12 49 39 145t41 150l213 774h94l-338 -1212h-101l-282 1079h-4zM561 1319v137h131v-137h-131zM905 1319v137h131v-137h-131z" />
    <glyph glyph-name="Wgrave.sc" horiz-adv-x="1597" 
d="M514 0h-96l-344 1212h102l209 -759q70 -258 82 -310h2q10 49 76 308l203 761h108l203 -768q61 -219 76 -301h2q12 49 39 145t41 150l213 774h94l-338 -1212h-101l-282 1079h-4zM768 1319l-285 309h154l194 -309h-63z" />
    <glyph glyph-name="X.sc" horiz-adv-x="1122" 
d="M164 0h-111l449 653l-387 559h112l342 -493l338 493h111l-393 -571l446 -641h-113l-399 575z" />
    <glyph glyph-name="Y.sc" horiz-adv-x="1054" 
d="M475 0v537l-428 675h109l372 -591l369 591h109l-428 -675v-537h-103z" />
    <glyph glyph-name="Yacute.sc" horiz-adv-x="1054" 
d="M475 0v537l-428 675h109l372 -591l369 591h109l-428 -675v-537h-103zM432 1319l195 309h153l-284 -309h-64z" />
    <glyph glyph-name="Ycircumflex.sc" horiz-adv-x="1054" 
d="M475 0v537l-428 675h109l372 -591l369 591h109l-428 -675v-537h-103zM221 1309l264 319h82l264 -319h-67l-240 213l-239 -213h-64z" />
    <glyph glyph-name="Ydieresis.sc" horiz-adv-x="1054" 
d="M475 0v537l-428 675h109l372 -591l369 591h109l-428 -675v-537h-103zM289 1319v137h131v-137h-131zM633 1319v137h131v-137h-131z" />
    <glyph glyph-name="Ygrave.sc" horiz-adv-x="1054" 
d="M475 0v537l-428 675h109l372 -591l369 591h109l-428 -675v-537h-103zM584 1319l-285 309h154l194 -309h-63z" />
    <glyph glyph-name="Z.sc" horiz-adv-x="1075" 
d="M981 0h-905v72l786 1058h-733v82h852v-71l-784 -1059h784v-82z" />
    <glyph glyph-name="Zacute.sc" horiz-adv-x="1075" 
d="M981 0h-905v72l786 1058h-733v82h852v-71l-784 -1059h784v-82zM442 1319l195 309h154l-285 -309h-64z" />
    <glyph glyph-name="Zcaron.sc" horiz-adv-x="1075" 
d="M981 0h-905v72l786 1058h-733v82h852v-71l-784 -1059h784v-82zM496 1319l-265 319h68l240 -213l239 213h64l-264 -319h-82z" />
    <glyph glyph-name="Zdotaccent.sc" horiz-adv-x="1075" 
d="M981 0h-905v72l786 1058h-733v82h852v-71l-784 -1059h784v-82zM469 1319v141h135v-141h-135z" />
    <glyph glyph-name="ampersand.sc" horiz-adv-x="1267" 
d="M293 950q0 122 74 203q74 82 199 82q249 0 249 -236q0 -123 -91 -201t-214 -143q43 -66 163 -202t208 -217q124 145 151 368h96q-35 -254 -178 -424q127 -96 269 -108v-88q-99 10 -175 38t-159 93q-162 -137 -377 -137t-324 84q-109 85 -108 237q0 90 49 166t107 118
t153 95q-92 150 -92 272zM178 296q0 -108 84 -172t249 -65q165 0 304 113q-109 98 -256 270q-70 78 -133 166q-120 -66 -184 -136q-64 -68 -64 -176zM578 1153q-187 -1 -187 -209q0 -100 76 -223q123 66 186 126t64 148q0 158 -139 158z" />
    <glyph glyph-name="asterisk.tab" 
d="M500 745l-86 52l219 315l-385 -27v95l385 -27l-219 315l86 52l166 -349l165 349l87 -52l-220 -315l385 27v-95l-385 27l220 -315l-87 -52l-165 349z" />
    <glyph glyph-name="backslash.sc" horiz-adv-x="905" 
d="M154 1212l704 -1212h-106l-705 1212h107z" />
    <glyph glyph-name="braceleft.uc" horiz-adv-x="749" 
d="M563 -266q-137 0 -198 68t-62 204v406q0 143 -52 194t-175 51v78q123 0 175 51t52 195v405q-1 137 61 205t199 68h90v-82h-90q-160 0 -160 -156v-438q0 -139 -41 -197t-133 -88v-4q92 -31 133 -88t41 -196v-439q0 -156 160 -155h90v-82h-90z" />
    <glyph glyph-name="braceright.uc" horiz-adv-x="749" 
d="M96 -266v82h90q160 0 160 155v439q0 139 41 196t133 88v4q-92 31 -133 88t-41 197v438q0 164 -151 164h-91l-8 74h90q136 0 198 -68t62 -205v-405q0 -143 52 -195t176 -51v-78q-123 0 -175 -51t-53 -194v-406q0 -137 -61 -205t-199 -67h-90z" />
    <glyph glyph-name="bracketleft.uc" horiz-adv-x="770" 
d="M188 -266v1925h478v-82h-377v-1761h377v-82h-478z" />
    <glyph glyph-name="bracketright.uc" horiz-adv-x="770" 
d="M104 -266v82h377v1759h-377v84h478v-1925h-478z" />
    <glyph glyph-name="cent.tab" 
d="M688 -23q-72 0 -135 23l-72 -264h-82l82 299q-113 68 -178 202q-66 134 -65 300q0 268 135 414t329 147q31 0 64 -6l57 215h82l-63 -234q178 -66 260 -262l-84 -45q-78 180 -203 227l-246 -905q57 -25 125 -25q119 -1 193 59t139 189l78 -39q-72 -147 -170 -221t-246 -74
zM336 539q0 -135 45 -245t127 -169l240 885q-33 4 -50 4q-142 0 -252 -116t-110 -359z" />
    <glyph glyph-name="colon.tab" horiz-adv-x="665" 
d="M264 0v164h137v-164h-137zM264 911v164h137v-164h-137z" />
    <glyph glyph-name="comma.tab" horiz-adv-x="665" 
d="M264 0v164h137v-152l-79 -211h-46l41 199h-53z" />
    <glyph glyph-name="commaaccent.scrap" horiz-adv-x="542" 
d="M203 1192v145l80 211h45l-41 -198h53v-158h-137z" />
    <glyph glyph-name="divide.sc" horiz-adv-x="1298" 
d="M569 182v160h148v-160h-148zM133 573v91h1032v-91h-1032zM569 893v160h148v-160h-148z" />
    <glyph glyph-name="divide.tab" 
d="M586 227v160h147v-160h-147zM150 618v91h1032v-91h-1032zM586 938v160h147v-160h-147z" />
    <glyph glyph-name="dollar.sc" horiz-adv-x="1103" 
d="M594 -154h-90v146q-141 12 -237 81q-95 69 -142 152l80 51q119 -184 301 -196v518q-150 47 -247 115t-96 198q1 129 94 215t249 95v120h86v-122q215 -18 330 -211l-78 -54q-56 84 -110 126t-142 50v-462q233 -74 306 -155q73 -80 73 -208q1 -129 -103 -216t-274 -99v-144
zM592 569v-489q281 20 280 227q0 111 -68 163q-69 52 -212 99zM506 694v439q-123 -7 -183 -65q-61 -58 -61 -144t62 -138t182 -92z" />
    <glyph glyph-name="dollar.tab" 
d="M616 -190v184q-170 10 -290 87t-187 191l82 52q143 -231 397 -240v670q-256 80 -345 175t-89 236t113 247t319 114v151h91v-155q143 -12 247 -79t162 -171l-82 -55q-63 106 -139 154t-190 59v-601q284 -83 380 -183q41 -42 70 -110t29 -149q0 -169 -127 -277t-350 -116
v-184h-91zM705 86q377 20 376 295q0 143 -100 220t-276 128v-643zM287 1165q-1 -123 87 -193t244 -118v580q-217 -18 -294 -135q-37 -56 -37 -134z" />
    <glyph glyph-name="eight.dnom" horiz-adv-x="800" 
d="M156 232q0 -73 70 -121t174 -48q105 -1 173 47t68 122t-62 125q-62 52 -190 104q-129 -57 -181 -107t-52 -122zM600 722q0 60 -52 105t-146 45t-149 -44q-54 -44 -54 -104q1 -60 43 -96t159 -87q113 51 156 86t43 95zM399 -16q-151 0 -241 70t-90 170q0 98 56 158
t175 116q-96 45 -142 95t-46 137t79 156q80 68 210 68t210 -68t80 -155q0 -86 -49 -133t-152 -94q123 -58 183 -120t61 -160q0 -98 -91 -168q-91 -72 -243 -72z" />
    <glyph glyph-name="eight.numr" horiz-adv-x="800" 
d="M156 798q0 -73 70 -121t174 -48q105 0 173 47t68 121t-62 126t-190 103q-129 -57 -181 -106t-52 -122zM600 1287q0 59 -52 105t-146 46t-149 -44q-54 -44 -54 -104q1 -60 43 -97q42 -36 159 -87q113 51 156 86t43 95zM399 549q-151 0 -241 71t-90 170t56 158t175 115
q-96 45 -142 95t-46 137t79 156q80 69 210 69t210 -69t80 -155t-49 -133t-152 -94q123 -59 183 -121t61 -158q0 -97 -91 -169t-243 -72z" />
    <glyph glyph-name="eight.sc" horiz-adv-x="974" 
d="M488 59q142 0 232 65q89 65 89 166t-78 170t-248 140q-177 -78 -247 -144t-70 -165q0 -100 90 -166t232 -66zM223 946q0 -82 58 -136t208 -120q147 62 203 114t58 137q0 85 -66 145t-194 60t-198 -58q-70 -60 -69 -142zM907 285q-1 -127 -113 -221t-308 -93
q-196 0 -308 92q-112 93 -110 221q0 128 76 208q77 80 237 151q-129 59 -194 129t-65 180t101 197q100 88 266 88q165 0 263 -87q98 -86 98 -198t-64 -178t-198 -127q164 -71 242 -153t77 -209z" />
    <glyph glyph-name="eight.tab" 
d="M666 61q184 0 304 84q120 83 120 217t-102 221t-326 181q-232 -102 -326 -187t-94 -214t119 -216q121 -86 305 -86zM1020 1184q0 110 -92 190t-259 80t-262 -80t-95 -186t78 -176q79 -70 278 -158q200 84 276 152t76 178zM666 -29q-240 0 -382 113q-142 114 -142 272
t100 258q102 100 315 193q-174 76 -260 162t-86 223t126 245q126 107 331 107q204 0 328 -108t124 -245q0 -138 -83 -217t-269 -163q222 -97 322 -195t100 -257t-142 -273t-382 -115z" />
    <glyph glyph-name="emdash.uc" horiz-adv-x="1884" 
d="M143 739v95h1598v-95h-1598z" />
    <glyph glyph-name="emdash.uc_salt_em" horiz-adv-x="2048" 
d="M0 739v95h2048v-95h-2048z" />
    <glyph glyph-name="endash.salt_en" horiz-adv-x="1024" 
d="M0 596v94h1024v-94h-1024z" />
    <glyph glyph-name="endash.uc" horiz-adv-x="1310" 
d="M143 739v95h1024v-95h-1024z" />
    <glyph glyph-name="endash.uc_salt_en" horiz-adv-x="1024" 
d="M0 739v95h1024v-95h-1024z" />
    <glyph glyph-name="equal.sc" horiz-adv-x="1298" 
d="M131 338v94h1034v-94h-1034zM131 805v94h1034v-94h-1034z" />
    <glyph glyph-name="equal.tab" 
d="M147 383v94h1035v-94h-1035zM147 850v94h1035v-94h-1035z" />
    <glyph glyph-name="exclam.sc" horiz-adv-x="540" 
d="M205 139h131v-139h-131v139zM209 1212h121l-33 -888h-51z" />
    <glyph glyph-name="exclamdown.sc" horiz-adv-x="540" 
d="M295 889l37 -889h-121l33 889h51zM336 1212v-139h-131v139h131z" />
    <glyph glyph-name="fi.sc" horiz-adv-x="1452" 
d="M170 0v1212h739v-88h-641v-442h477v-86h-477v-596h-98zM1165 0v1212h101v-1212h-101z" />
    <glyph glyph-name="five.dnom" horiz-adv-x="770" 
d="M379 -16q-201 0 -311 192l73 45q92 -158 240 -158q111 0 170 69q59 68 59 174t-58 167t-149 62q-125 0 -198 -107l-84 35l31 475h497l-8 -88h-408l-24 -315q63 81 195 81t212 -85q82 -85 82 -227t-87 -231t-232 -89z" />
    <glyph glyph-name="five.numr" horiz-adv-x="770" 
d="M379 549q-201 0 -311 192l73 45q92 -158 240 -157q111 1 170 69t59 174t-58 166q-58 61 -149 62q-125 0 -198 -107l-84 35l31 475h497l-8 -88h-408l-24 -315q63 82 195 82t212 -85q82 -85 82 -227t-87 -232q-87 -89 -232 -89z" />
    <glyph glyph-name="five.sc" horiz-adv-x="937" 
d="M459 -27q-125 0 -229 66q-103 66 -164 176l79 49q117 -201 316 -201q151 -1 229 97t78 240t-79 226t-202 83q-172 0 -284 -164l-76 30l45 637h629l-8 -94h-535l-33 -434q90 115 258 115q169 0 275 -110t106 -291t-110 -303t-295 -122z" />
    <glyph glyph-name="five.tab" 
d="M651 -29q-157 0 -283 79t-200 210l84 51q150 -250 401 -250q193 0 296 128q103 127 103 311t-102 293t-262 108q-223 0 -362 -207l-84 35l57 787h774l-10 -99h-672l-45 -577q129 152 337 152t339 -135q131 -134 131 -360q1 -226 -137 -376t-365 -150z" />
    <glyph glyph-name="fl.sc" horiz-adv-x="1953" 
d="M170 0v1212h739v-88h-641v-442h477v-86h-477v-596h-98zM1884 0h-737v1212h98v-1124h639v-88z" />
    <glyph glyph-name="florin.sc" horiz-adv-x="641" 
d="M-45 -272q135 0 154 120l112 797h-145l10 88h147l37 266q29 213 252 213q43 0 78 -6l-16 -88q-25 4 -60 4q-139 0 -155 -121l-37 -268h190l-12 -88h-191l-114 -795q-17 -110 -79 -160t-181 -50q-39 0 -64 6l15 86q25 -4 59 -4z" />
    <glyph glyph-name="florin.tab" 
d="M938 1427q-186 0 -209 -161l-41 -314h238l-13 -88h-237l-146 -1016q-37 -258 -331 -258h-54l15 91q14 -2 63 -3q186 0 209 162l146 1024h-189l12 88h189l41 305q37 258 332 259h53l-15 -91q-14 2 -63 2z" />
    <glyph glyph-name="four.dnom" horiz-adv-x="788" 
d="M508 317v484l-318 -484h318zM508 0v231h-432v62l422 645h98v-621h154v-86h-154v-231h-88z" />
    <glyph glyph-name="four.numr" horiz-adv-x="788" 
d="M508 883v483l-318 -483h318zM508 565v232h-432v61l422 645h98v-620h154v-86h-154v-232h-88z" />
    <glyph glyph-name="four.sc" horiz-adv-x="972" 
d="M633 395v690h-2l-453 -690h455zM731 0h-98v303h-576v72l549 837h125v-817h201v-92h-201v-303z" />
    <glyph glyph-name="four.tab" 
d="M862 481v918h-4l-602 -918h606zM862 0v389h-727v72l690 1055h136v-1035h256v-92h-256v-389h-99z" />
    <glyph glyph-name="germandbls.sc" horiz-adv-x="2232" 
d="M543 1235q324 0 422 -283l-88 -30q-86 227 -336 227q-137 0 -215 -56t-78 -157q0 -61 21 -106q36 -71 169 -118q38 -12 92 -28q265 -75 328 -115q143 -86 143 -256q1 -170 -119 -253t-306 -83t-304 86q-119 86 -161 238l90 29q39 -131 135 -200t242 -69q146 -1 236 61
q89 62 89 183t-93 176q-73 44 -218 88q-6 2 -18 5q-268 66 -348 148q-30 32 -53 86q-24 54 -23 124q0 143 108 223q109 80 285 80zM1692 -23q-186 0 -304 86t-161 238l90 29q39 -131 135 -200t243 -69q147 -1 235 61t89 183q-1 121 -95 178q-95 56 -238 92q-14 5 -67 19
t-91 26t-96 42q-59 29 -90 60q-30 32 -53 86q-24 54 -23 124q0 143 108 223q109 80 285 80q324 0 422 -283l-88 -30q-86 227 -336 227q-137 0 -215 -56t-78 -151t59 -160q44 -51 208 -95q272 -74 343 -118q144 -86 144 -256t-120 -253t-306 -83z" />
    <glyph glyph-name="greater.sc" horiz-adv-x="1298" 
d="M115 115v100l962 403l-962 404v100l1083 -460v-87z" />
    <glyph glyph-name="greater.tab" 
d="M131 160v100l963 404l-963 403v100l1083 -460v-86z" />
    <glyph glyph-name="guillemotleft.uc" horiz-adv-x="1015" 
d="M774 143l-297 539l297 537h109l-293 -537l293 -539h-109zM397 143l-295 539l295 537h109l-291 -537l291 -539h-109z" />
    <glyph glyph-name="guillemotright.uc" horiz-adv-x="1015" 
d="M510 143l291 539l-291 537h108l295 -537l-295 -539h-108zM133 143l293 539l-293 537h109l297 -537l-297 -539h-109z" />
    <glyph glyph-name="guilsinglleft.uc" horiz-adv-x="641" 
d="M397 143l-295 539l295 537h109l-291 -537l291 -539h-109z" />
    <glyph glyph-name="guilsinglright.uc" horiz-adv-x="641" 
d="M133 143l293 539l-293 537h109l297 -537l-297 -539h-109z" />
    <glyph glyph-name="hyphen.uc" horiz-adv-x="731" 
d="M143 737v99h445v-99h-445z" />
    <glyph glyph-name="i.trk" horiz-adv-x="466" 
d="M184 0v1075h99v-1075h-99zM180 1350v125h107v-125h-107z" />
    <glyph glyph-name="less.sc" horiz-adv-x="1298" 
d="M1184 115l-1084 460v87l1084 460v-100l-963 -404l963 -403v-100z" />
    <glyph glyph-name="less.tab" 
d="M1200 160l-1083 461v86l1083 460v-100l-962 -403l962 -404v-100z" />
    <glyph glyph-name="minus.sc" horiz-adv-x="1298" 
d="M133 573v91h1032v-91h-1032z" />
    <glyph glyph-name="minus.tab" 
d="M150 618v91h1032v-91h-1032z" />
    <glyph glyph-name="minute.tab" horiz-adv-x="665" 
d="M262 1010l35 401l18 105h111l-123 -506h-41z" />
    <glyph glyph-name="multiply.sc" horiz-adv-x="1298" 
d="M289 199l-60 59l359 358l-359 361l60 59l358 -360l361 360l59 -59l-360 -361l360 -358l-59 -59l-361 360z" />
    <glyph glyph-name="multiply.tab" 
d="M305 227l-59 60l358 358l-358 361l59 59l359 -360l360 360l59 -59l-360 -361l360 -358l-59 -60l-360 361z" />
    <glyph glyph-name="nine.dnom" horiz-adv-x="802" 
d="M715 490q1 -226 -95 -366t-259 -140t-265 98l54 63q57 -45 99 -63t107 -19q125 -1 197 105t76 295q-113 -125 -261 -125t-222 84t-74 218t86 224t228 90t236 -119q93 -119 93 -345zM375 420q141 0 248 145q-14 154 -81 231q-67 76 -163 76q-97 0 -157 -62t-60 -168
q0 -222 213 -222z" />
    <glyph glyph-name="nine.numr" horiz-adv-x="802" 
d="M361 549q-163 0 -265 98l54 64q57 -45 99 -63t107 -19q125 0 197 105t76 294q-113 -125 -261 -125t-222 84t-74 218q0 135 86 225t228 90t236 -120t93 -345q0 -225 -95 -366q-96 -140 -259 -140zM375 985q141 0 248 145q-14 154 -81 231t-163 77q-97 0 -157 -62t-60 -168
q0 -222 213 -223z" />
    <glyph glyph-name="nine.sc" horiz-adv-x="976" 
d="M438 -29q-196 0 -323 117l53 76q62 -55 118 -79t144 -24q164 0 261 157t102 394q-147 -164 -339 -164t-291 110q-97 110 -97 280t110 284t293 115q182 0 301 -155t119 -442t-127 -478q-128 -191 -324 -191zM455 539q201 0 333 186q-14 201 -106 311t-221 111
q-129 0 -211 -82t-82 -224t72 -222t215 -80z" />
    <glyph glyph-name="nine.tab" 
d="M590 -29q-231 0 -385 140l55 77q80 -68 150 -98t182 -29q215 0 344 210t125 522q-185 -219 -433 -219t-364 132t-117 342q1 210 135 354q134 142 359 142t372 -192q146 -193 146 -568q-1 -221 -69 -405t-200 -296t-300 -112zM623 664q127 0 239 68t193 186
q-25 266 -141 401t-284 135t-275 -107q-105 -109 -105 -293t94 -287t279 -103z" />
    <glyph glyph-name="numbersign.sc" horiz-adv-x="1218" 
d="M115 360v93h209l63 311h-203v90h222l75 358h94l-75 -358h321l76 358h92l-74 -358h189v-90h-207l-68 -311h205v-93h-221l-78 -360h-92l74 360h-320l-75 -360h-95l76 360h-188zM481 764l-65 -311h319l68 311h-322z" />
    <glyph glyph-name="numbersign.tab" 
d="M51 459v88h260l88 422h-260v88h279l96 459h94l-96 -459h430l96 459h95l-97 -459h242v-88h-260l-88 -422h260v-88h-279l-96 -459h-94l96 459h-430l-96 -459h-94l96 459h-242zM406 547h430l88 422h-430z" />
    <glyph glyph-name="one.dnom" horiz-adv-x="636" 
d="M123 0v86h174v739q-76 -33 -170 -32v86q129 4 182 59h80v-852h158v-86h-424z" />
    <glyph glyph-name="one.numr" horiz-adv-x="636" 
d="M123 565v86h174v740q-76 -33 -170 -33v86q129 4 182 59h80v-852h158v-86h-424z" />
    <glyph glyph-name="one.sc" horiz-adv-x="811" 
d="M750 0h-648v94h289v1004q-131 -70 -285 -70v86q195 6 293 98h88v-1118h263v-94z" />
    <glyph glyph-name="one.tab" 
d="M324 0v94h329v1305q-53 -29 -154 -49t-171 -21v88q238 8 334 99h92v-1422h303v-94h-733z" />
    <glyph glyph-name="ordfeminine.sc" horiz-adv-x="806" 
d="M170 483h-88l274 729h90l275 -729h-90l-80 211h-301zM399 1106l-123 -336h248l-94 254l-27 82h-4z" />
    <glyph glyph-name="ordmasculine.sc" horiz-adv-x="862" 
d="M432 1163q-118 0 -186 -90q-70 -90 -70 -225q0 -136 66 -228t186 -92q118 0 188 89t70 225t-68 229q-68 92 -186 92zM430 453q-145 0 -242 106q-96 105 -96 285t95 286t243 106t244 -106t96 -285t-97 -286q-98 -106 -243 -106z" />
    <glyph glyph-name="parenleft.tab" horiz-adv-x="665" 
d="M63 553q0 547 508 973l43 -51q-206 -182 -322 -418t-116 -504t116 -504t322 -418l-43 -51q-508 426 -508 973z" />
    <glyph glyph-name="parenleft.uc" horiz-adv-x="811" 
d="M137 696q0 546 508 973l43 -51q-206 -182 -322 -418t-116 -504t116 -504t322 -417l-43 -51q-508 426 -508 972z" />
    <glyph glyph-name="parenright.tab" horiz-adv-x="665" 
d="M600 553q0 -547 -508 -973l-43 51q207 182 323 418t115 504q0 268 -115 504q-116 236 -323 418l43 51q508 -426 508 -973z" />
    <glyph glyph-name="parenright.uc" horiz-adv-x="811" 
d="M561 696q0 268 -116 504t-322 418l43 51q508 -427 508 -973t-508 -972l-43 51q207 182 322 418q116 235 116 503z" />
    <glyph glyph-name="percent.sc" horiz-adv-x="1548" 
d="M1389 335q1 124 -45 201q-46 76 -128 76t-126 -78q-46 -78 -46 -202q0 -125 46 -202t128 -77q83 0 127 79t44 203zM1219 692q119 0 189 -97t71 -258q-1 -161 -71 -263t-192 -101t-194 99t-72 260t75 261t194 99zM334 604q84 0 129 79t45 202t-46 199t-129 77
q-83 0 -129 -79q-46 -78 -46 -202t46 -200t130 -76zM360 0l725 1212h99l-725 -1212h-99zM336 1241q120 0 190 -97t70 -259q0 -163 -70 -263t-194 -100q-123 0 -193 98q-69 98 -69 261q0 164 72 262q73 98 194 98z" />
    <glyph glyph-name="percent.tab" horiz-adv-x="2007" 
d="M1504 782q-106 0 -166 -101t-60 -258t60 -256t166 -99q105 0 166 102q60 102 60 259t-60 255t-166 98zM1829 430q0 -202 -87 -326t-240 -124q-154 0 -238 120t-84 324q0 203 89 325q89 121 239 121t235 -120q86 -120 86 -320zM504 1448q-106 0 -166 -101t-62 -258
q0 -157 61 -257t166 -99t165 103t61 259q0 157 -60 255q-59 98 -165 98zM502 0l905 1516h98l-905 -1516h-98zM506 1536q150 0 236 -120t85 -320t-87 -326q-86 -125 -239 -125t-238 121q-85 122 -85 324t89 324t239 122z" />
    <glyph glyph-name="period.tab" horiz-adv-x="665" 
d="M264 0v164h137v-164h-137z" />
    <glyph glyph-name="periodcentered.tab" horiz-adv-x="665" 
d="M264 561v164h137v-164h-137z" />
    <glyph glyph-name="periodcentered.uc" horiz-adv-x="542" 
d="M203 705v163h137v-163h-137z" />
    <glyph glyph-name="perthousand.sc" horiz-adv-x="2228" 
d="M1389 335q1 124 -45 201q-46 76 -128 76t-126 -78q-46 -78 -46 -202q0 -125 46 -202t128 -77q83 0 127 79t44 203zM1897 53q83 0 127 79t44 203t-45 201q-45 76 -128 76t-129 -78t-46 -203q0 -124 47 -201t130 -77zM1219 692q119 0 189 -97t71 -258q-1 -161 -71 -263
t-192 -101t-194 99t-72 260t75 261t194 99zM1898 692q120 0 190 -97t71 -258q0 -161 -71 -263t-194 -101q-124 1 -194 99t-70 261t74 261t194 98zM334 604q84 0 129 79t45 202t-46 199t-129 77q-83 0 -129 -79q-46 -78 -46 -202t46 -200t130 -76zM360 0l725 1212h99
l-725 -1212h-99zM336 1241q120 0 190 -97t70 -259q0 -163 -70 -263t-194 -100q-123 0 -193 98q-69 98 -69 261q0 164 72 262q73 98 194 98z" />
    <glyph glyph-name="plus.sc" horiz-adv-x="1298" 
d="M602 102v471h-469v91h469v471h94v-471h469v-91h-469v-471h-94z" />
    <glyph glyph-name="plus.tab" 
d="M618 147v471h-468v91h468v471h95v-471h469v-91h-469v-471h-95z" />
    <glyph glyph-name="question.sc" horiz-adv-x="931" 
d="M477 139v-139h-131v139h131zM451 322h-78q-4 34 -4 114t33 135q34 55 138 116t151 110q46 49 46 139q0 215 -276 215q-111 0 -185 -43t-137 -129l-73 49q145 207 399 207q178 0 275 -82q98 -82 98 -202q0 -121 -58 -187t-166 -126q-110 -60 -136 -116t-27 -200z" />
    <glyph glyph-name="questiondown.sc" horiz-adv-x="931" 
d="M481 891h78q4 -33 4 -114t-34 -136t-138 -115t-150 -110q-46 -49 -46 -140q0 -215 276 -215q111 0 185 43t137 129l73 -49q-145 -207 -399 -207q-178 0 -276 82q-97 82 -97 202q0 121 58 187t166 126q110 60 137 117q26 57 26 200zM455 1073v139h131v-139h-131z" />
    <glyph glyph-name="registered.salt_big" horiz-adv-x="1765" 
d="M606 338v868h287q143 0 220 -59t77 -170q0 -195 -205 -232l221 -407h-86l-217 397h-219v-397h-78zM684 807h205q111 0 167 38t56 130q0 158 -225 158h-203v-326zM883 41q295 0 501 211t205 506q0 295 -206 506q-207 211 -501 211t-500 -211t-206 -506t206 -506t501 -211z
M883 -29q-326 1 -553 231t-228 556q0 326 228 556t553 230q326 0 553 -230t227 -556t-227 -556t-553 -231z" />
    <glyph glyph-name="second.tab" 
d="M424 1010l35 401l18 105h111l-123 -506h-41zM764 1010l35 401l18 105h111l-123 -506h-41z" />
    <glyph glyph-name="semicolon.tab" horiz-adv-x="665" 
d="M264 0v164h137v-152l-79 -211h-46l41 199h-53zM264 911v164h137v-164h-137z" />
    <glyph glyph-name="seven.dnom" horiz-adv-x="739" 
d="M84 850v88h573v-72l-397 -866h-94l391 850h-473z" />
    <glyph glyph-name="seven.numr" horiz-adv-x="739" 
d="M84 1415v88h573v-71l-397 -867h-94l391 850h-473z" />
    <glyph glyph-name="seven.sc" horiz-adv-x="894" 
d="M88 1114v98h729v-92l-514 -1120h-106l512 1114h-621z" />
    <glyph glyph-name="seven.tab" 
d="M221 1417v99h901v-93l-653 -1423h-107l652 1417h-793z" />
    <glyph glyph-name="six.dnom" horiz-adv-x="802" 
d="M424 66q96 0 157 62q60 62 60 168q0 222 -213 222q-141 0 -248 -145q14 -155 81 -231t163 -76zM417 -16q-142 0 -236 119q-93 119 -93 345t95 366t259 140t265 -98l-54 -63q-57 45 -99 63t-108 18q-124 0 -196 -105t-76 -294q112 125 260 125t222 -84t75 -218
q0 -134 -86 -224t-228 -90z" />
    <glyph glyph-name="six.numr" horiz-adv-x="802" 
d="M424 631q96 0 157 62q60 61 60 167q0 222 -213 223q-141 0 -248 -145q14 -154 81 -230t163 -77zM417 549q-142 0 -236 120q-93 120 -93 345t95 365q95 141 259 141t265 -99l-54 -63q-57 45 -99 63t-108 19q-124 0 -196 -106t-76 -294q112 125 260 125t222 -84t75 -218
q0 -134 -86 -224t-228 -90z" />
    <glyph glyph-name="six.sc" horiz-adv-x="972" 
d="M518 59q129 0 210 84q81 85 81 227t-72 222t-215 80q-98 0 -186 -51t-148 -140q18 -203 110 -313t220 -109zM508 -29q-182 0 -301 157q-119 158 -119 444t128 476t333 189q168 0 287 -94l-58 -78q-98 86 -231 86q-166 0 -264 -159t-99 -396q54 68 146 116t196 48
q190 0 286 -108t95 -278t-109 -287q-108 -116 -290 -116z" />
    <glyph glyph-name="six.tab" 
d="M699 61q169 0 275 108q105 108 105 292q0 183 -93 287t-279 104q-127 0 -240 -69t-193 -185q24 -266 140 -402t285 -135zM688 -29q-225 0 -372 193q-146 193 -146 567q0 221 69 405t200 297q132 112 300 111q213 0 351 -112l-58 -80q-66 53 -130 78t-165 24
q-215 0 -344 -210t-125 -521q186 219 434 219t364 -132t116 -343t-134 -353t-360 -143z" />
    <glyph glyph-name="slash.sc" horiz-adv-x="905" 
d="M154 0h-107l705 1212h106z" />
    <glyph glyph-name="slash.tab" 
d="M172 0l881 1516h106l-880 -1516h-107z" />
    <glyph glyph-name="space.frac" horiz-adv-x="163" 
 />
    <glyph glyph-name="space.tab" horiz-adv-x="665" 
 />
    <glyph glyph-name="space.tab_em" horiz-adv-x="2662" 
 />
    <glyph glyph-name="space.tab_thin" horiz-adv-x="333" 
 />
    <glyph glyph-name="space.thin_fra" horiz-adv-x="245" 
 />
    <glyph glyph-name="sterling.sc" horiz-adv-x="1001" 
d="M127 154q1 -95 111 -95t149 107q-76 80 -137 80t-92 -26t-31 -66zM231 -29q-78 0 -136 44t-58 128q0 85 56 137q57 52 149 52t174 -78q6 36 6 120t-70 224h-221v88h168q-80 147 -80 242q0 135 88 219t245 84q158 0 236 -88t86 -225l-98 -7q-14 229 -231 230
q-103 -1 -163 -57t-60 -150t88 -248h301v-88h-252q59 -130 59 -232t-20 -184q131 -119 231 -119q139 0 154 236h94q-18 -328 -250 -328q-119 0 -270 127q-74 -127 -226 -127z" />
    <glyph glyph-name="sterling.tab" 
d="M342 55q143 0 197 150q-109 98 -191 98q-57 0 -92 -37t-35 -93t35 -87t86 -31zM920 -29q-56 0 -116 28q-60 29 -98 59t-96 83q-90 -170 -270 -170q-82 1 -145 53t-63 145t58 155t158 63q100 0 215 -92q12 63 12 151q0 139 -88 316h-251v90h204q-102 193 -102 317
q0 167 99 271t279 104t273 -108q94 -108 103 -267l-101 -6q-18 291 -284 291q-127 0 -198 -75t-71 -208q0 -47 20 -109t34 -93t57 -117h350v-90h-307q80 -170 80 -303t-29 -236q59 -55 90 -81t85 -54t104 -27q94 0 140 72t56 227h94q-20 -389 -292 -389z" />
    <glyph glyph-name="three.dnom" horiz-adv-x="817" 
d="M406 -18q-211 0 -324 196l74 49q94 -158 252 -157q98 0 155 51t57 145q1 195 -290 195h-47v78h55q264 0 264 174q0 71 -47 115t-143 44q-121 0 -217 -122l-72 47q121 162 291 161q141 0 212 -70t70 -171q0 -164 -161 -217q180 -55 180 -242q0 -116 -84 -196t-225 -80z
" />
    <glyph glyph-name="three.numr" horiz-adv-x="817" 
d="M406 547q-211 0 -324 196l74 50q94 -158 252 -158q98 0 155 51t57 145q1 195 -290 195h-47v78h55q264 0 264 174q0 72 -47 116t-143 44q-121 0 -217 -123l-72 47q121 162 291 162q141 0 212 -71t70 -171q0 -164 -161 -217q180 -55 180 -242q0 -117 -84 -197t-225 -79z
" />
    <glyph glyph-name="three.sc" horiz-adv-x="956" 
d="M463 -29q-129 -1 -237 63t-175 179l80 49q123 -201 334 -201q135 0 213 71q78 70 78 200t-85 199t-298 69h-47v90h55q188 0 270 58t82 170q0 110 -64 171q-65 60 -198 60q-164 0 -285 -160l-77 53q150 197 364 197q178 0 268 -90t90 -210t-62 -197t-171 -97
q125 -20 192 -105q66 -86 66 -226t-108 -242t-285 -101z" />
    <glyph glyph-name="three.tab" 
d="M528 852q472 0 470 296q0 144 -86 225q-85 81 -259 81q-215 0 -364 -199l-82 54q184 236 448 235q221 0 332 -110t111 -262t-83 -247t-227 -118q340 -70 340 -404q0 -184 -132 -308t-353 -124q-162 0 -294 76t-212 213l84 51q158 -250 424 -250q175 1 279 95t104 243
q0 183 -117 273t-395 90h-53v90h65z" />
    <glyph glyph-name="two.dnom" horiz-adv-x="817" 
d="M102 0v37q0 105 71 203t249 213q98 63 140 117t42 129t-48 124t-130 49t-134 -40t-95 -130l-80 39q100 217 305 217q125 0 200 -72q74 -72 74 -180t-55 -180t-195 -159q-229 -145 -245 -277h499v-90h-598z" />
    <glyph glyph-name="two.numr" horiz-adv-x="817" 
d="M102 565v37q0 106 71 204t249 212q98 64 140 118t42 129t-48 124t-130 49t-134 -40t-95 -130l-80 39q100 217 305 217q125 0 200 -73q74 -73 74 -180t-55 -179t-195 -160q-229 -145 -245 -277h499v-90h-598z" />
    <glyph glyph-name="two.sc" horiz-adv-x="950" 
d="M846 0h-764v35q0 139 93 266t323 274q133 84 188 158q55 75 55 179q-1 104 -65 170t-189 67q-197 0 -299 -221l-84 41q125 270 388 270q160 0 254 -93q94 -94 96 -230q0 -136 -72 -226t-252 -207q-324 -205 -330 -389h658v-94z" />
    <glyph glyph-name="two.tab" 
d="M178 0v33q0 171 116 329t404 343q172 109 245 205t73 230t-87 224t-249 90q-256 0 -385 -276l-84 41q150 326 473 325q196 0 314 -114t118 -284q0 -169 -90 -284t-306 -252t-324 -269t-111 -247h837v-94h-944z" />
    <glyph glyph-name="yen.sc" horiz-adv-x="1050" 
d="M473 0v225h-311v90h311v150h-311v88h307l-395 659h112l342 -579l340 579h109l-397 -659h311v-88h-316v-150h316v-90h-316v-225h-102z" />
    <glyph glyph-name="yen.tab" 
d="M612 0v281h-397v94h397v215h-397v92h393l-499 834h114l445 -754l442 754h111l-502 -834h397v-92h-401v-215h401v-94h-401v-281h-103z" />
    <glyph glyph-name="zero.dnom" horiz-adv-x="856" 
d="M430 63q118 -1 184 103t66 298t-68 302t-186 106q-118 0 -184 -106t-66 -301t68 -299t186 -103zM428 -16q-162 0 -251 129t-89 352t89 356t251 133t251 -133t89 -356t-89 -352t-251 -129z" />
    <glyph glyph-name="zero.numr" horiz-adv-x="856" 
d="M430 629q118 0 184 103t66 297q0 193 -68 301t-186 108t-184 -106t-66 -302q0 -195 68 -298t186 -103zM428 549q-162 0 -251 129t-89 352t89 356q89 134 251 134t251 -134t89 -356q0 -223 -89 -352t-251 -129z" />
    <glyph glyph-name="zero.salt_slash" horiz-adv-x="1316" 
d="M657 61q207 1 323 183t116 514q0 252 -70 420l-694 -922q118 -195 325 -195zM221 758q0 -254 74 -428l690 927q-115 197 -324 197t-325 -182t-115 -514zM659 -29q-256 0 -397 213q-141 214 -141 574t141 573t397 213q257 0 397 -213t140 -573t-140 -574
q-141 -213 -397 -213z" />
    <glyph glyph-name="zero.sc" horiz-adv-x="1044" 
d="M184 606q0 -258 91 -402t249 -145t247 143t89 401t-92 403t-249 145q-157 0 -246 -144q-89 -143 -89 -401zM522 -29q-206 0 -320 172t-114 461t115 461t319 172t320 -172q114 -172 114 -461t-114 -461t-320 -172z" />
    <glyph glyph-name="zero.sc_salt_slash" horiz-adv-x="1044" 
d="M525 59q157 -1 246 143t89 372t-55 358l-524 -735q87 -138 244 -138zM517 1151q-155 -1 -244 -145t-89 -370t54 -357l526 733q-92 139 -247 139zM522 -29q-206 0 -320 172t-114 461t115 461t319 172t320 -172q114 -172 114 -461t-114 -461t-320 -172z" />
    <glyph glyph-name="zero.tab" 
d="M227 759q0 -331 119 -515t322 -183q202 1 318 183t116 513t-118 514t-322 183t-319 -182q-116 -182 -116 -513zM666 -29q-256 0 -398 213q-141 214 -141 574t141 573q142 213 398 213t396 -213t140 -573t-140 -574t-396 -213z" />
    <glyph glyph-name="zero.tab_salt_slash" 
d="M664 61q206 1 322 183t116 514q0 252 -70 420l-694 -922q119 -195 326 -195zM227 758q0 -254 74 -428l690 927q-115 197 -323 197t-325 -182q-116 -182 -116 -514zM666 -29q-256 0 -398 213q-141 214 -141 574t141 573q142 213 398 213t396 -213t140 -573t-140 -574
t-396 -213z" />
    </font>
</defs>
</svg>
