<?xml version="1.0" standalone="no"?>
<!DOCTYPE svg PUBLIC "-//W3C//DTD SVG 1.1//EN" "http://www.w3.org/Graphics/SVG/1.1/DTD/svg11.dtd" >
<svg xmlns="http://www.w3.org/2000/svg">
<metadata>
Created by FontPrep 20130207 at Wed Feb 24 14:44:52 2016
 By Callum Flack
Copyright (c) The Font Bureau, Inc., 2008. All rights reserved.
</metadata>
<defs>
<font id="a8060284b02b2442ada7a339eccbdbe3" horiz-adv-x='1024' >
  <font-face 
    font-family="BentonSans-Medium"
    font-weight="500"
    font-stretch="normal"
    units-per-em="2048"
    panose-1="2 0 6 4 2 0 0 2 0 4"
    ascent="1612"
    descent="-436"
    x-height="1087"
    cap-height="1516"
    bbox="-188 -555 2932 2005.02"
    underline-thickness="0"
    underline-position="0"
    unicode-range="U+0020-FB04"
  />
<missing-glyph horiz-adv-x="1024" 
d="M102 1331v-1229h820v1229h-820zM0 0v1434h1024v-1434h-1024z" />
    <glyph glyph-name="f_f" unicode="ff" horiz-adv-x="1411" 
d="M487 0h-251v887h-189v200h189v111q0 147 76 236q77 88 249 88q49 0 141 -11v-192q-29 6 -75 6q-139 0 -140 -141v-97h383v101q0 334 351 334q59 0 151 -11v-194q-36 8 -100 8q-150 0 -150 -141v-97h238v-200h-238v-887h-252v887h-383v-887z" />
    <glyph glyph-name="f_i" unicode="fi" horiz-adv-x="1284" 
d="M1122 0h-252v1087h252v-1087zM487 0h-251v887h-189v200h189v111q0 147 76 236q77 88 249 88q49 0 141 -11v-194q-29 6 -75 6q-139 0 -140 -141v-95h213v-200h-213v-887zM1124 1266h-256v229h256v-229z" />
    <glyph glyph-name="f_l" unicode="fl" horiz-adv-x="1277" 
d="M487 0h-251v887h-189v200h189v111q0 147 76 236q77 88 249 88q49 0 141 -11v-194q-29 6 -75 6q-139 0 -140 -141v-95h213v-200h-213v-887zM1122 0h-252v1516h252v-1516z" />
    <glyph glyph-name="f_f_i" unicode="ffi" horiz-adv-x="1902" 
d="M487 0h-251v887h-189v200h189v111q0 147 76 236q77 88 249 88q49 0 141 -11v-194q-29 6 -75 6q-139 0 -140 -141v-95h383v99q0 150 78 242t248 94q47 0 139 -11v-194q-25 6 -75 6q-137 0 -138 -141v-95h211v-200h-211v-887h-252v887h-383v-887zM1755 0h-252v1087h252
v-1087zM1757 1266h-256v229h256v-229z" />
    <glyph glyph-name="f_f_l" unicode="ffl" horiz-adv-x="1902" 
d="M487 0h-251v887h-189v200h189v111q0 147 76 236q77 88 249 88q49 0 141 -11v-194q-29 6 -75 6q-139 0 -140 -141v-95h383v99q0 150 78 242t248 94q47 0 139 -11v-194q-25 6 -75 6q-137 0 -138 -141v-95h211v-200h-211v-887h-252v887h-383v-887zM1755 0h-252v1516h252
v-1516z" />
    <glyph glyph-name="f_j" unicode="fj" horiz-adv-x="1277" 
d="M819 -414q-104 0 -153 13v176q37 -8 84 -8q121 0 120 137v1183h252v-1222q0 -129 -64 -204t-239 -75zM487 0h-251v887h-189v200h189v111q0 147 76 236q77 88 249 88q49 0 141 -11v-194q-29 6 -75 6q-139 0 -140 -141v-95h213v-200h-213v-887zM1124 1266h-256v229h256
v-229z" />
    <glyph glyph-name=".notdef" horiz-adv-x="1024" 
d="M102 1331v-1229h820v1229h-820zM0 0v1434h1024v-1434h-1024z" />
    <glyph glyph-name=".null" horiz-adv-x="0" 
 />
    <glyph glyph-name="nonmarkingreturn" horiz-adv-x="681" 
 />
    <glyph glyph-name="space" unicode=" " horiz-adv-x="514" 
 />
    <glyph glyph-name="space" unicode="&#xa0;" horiz-adv-x="514" 
 />
    <glyph glyph-name="exclam" unicode="!" horiz-adv-x="694" 
d="M494 0h-283v256h283v-256zM442 453h-180l-67 1063h315z" />
    <glyph glyph-name="quotedbl" unicode="&#x22;" horiz-adv-x="894" 
d="M526 1516h224v-136l-35 -401h-154l-35 401v136zM145 1516h224v-136l-35 -401h-154l-35 401v136z" />
    <glyph glyph-name="numbersign" unicode="#" horiz-adv-x="1515" 
d="M68 408v190h270l65 320h-247v190h288l86 408h228l-84 -408h295l86 408h227l-86 -408h252v-190h-291l-67 -320h270v-190h-309l-86 -408h-228l84 408h-295l-86 -408h-227l84 408h-229zM633 918l-68 -320h297l66 320h-295z" />
    <glyph glyph-name="dollar" unicode="$" horiz-adv-x="1368" 
d="M602 -190v176q-332 31 -502 311l179 121q74 -104 148 -163q75 -58 183 -75v504q-104 26 -175 54t-145 76q-148 96 -147 286q0 190 124 304t335 128v145h164v-149q276 -33 428 -264l-174 -136q-56 86 -114 134t-146 63v-455q114 -32 192 -62t153 -81q150 -102 148 -309
q0 -178 -125 -296t-362 -136v-176h-164zM1016 395q0 97 -64 153t-192 95v-465q256 25 256 217zM381 1132q0 -86 56 -136t173 -85v422q-115 -8 -172 -61t-57 -140z" />
    <glyph glyph-name="percent" unicode="%" horiz-adv-x="2154" 
d="M1669 158q84 0 126 80t42 221q0 299 -169 299t-169 -300t170 -300zM1670 938q176 0 278 -129t102 -347t-102 -350t-280 -132q-177 0 -278 130q-102 130 -102 349t104 349t278 130zM487 760q82 0 124 79t42 220q0 299 -168 299t-168 -299t170 -299zM735 0h-221l905 1516
h221zM485 580q-178 0 -279 130q-102 130 -102 349t104 350t279 131t277 -130t102 -348t-102 -350t-279 -132z" />
    <glyph glyph-name="ampersand" unicode="&#x26;" horiz-adv-x="1503" 
d="M590 -29q-256 0 -396 113t-140 283t92 276q93 106 257 188q-98 180 -98 338q1 158 103 267q102 108 287 108t277 -90t93 -232q0 -142 -95 -244q-95 -101 -268 -187q141 -204 316 -383q94 143 123 362h223q-41 -287 -176 -485q141 -94 291 -95v-210q-262 6 -449 133
q-184 -142 -440 -142zM600 176q160 0 262 68q-96 90 -208 230t-156 206q-188 -121 -189 -272q0 -232 291 -232zM848 1192q0 76 -38 116q-38 42 -103 42q-166 0 -166 -164q-1 -119 75 -256q116 62 174 124t58 138z" />
    <glyph glyph-name="quotesingle" unicode="'" horiz-adv-x="514" 
d="M145 1516h224v-136l-35 -401h-154l-35 401v136z" />
    <glyph glyph-name="parenleft" unicode="(" horiz-adv-x="821" 
d="M748 -303l-123 -117q-258 217 -388 459q-131 241 -131 535t131 535q130 241 388 458l116 -125q-369 -374 -369 -872t376 -873z" />
    <glyph glyph-name="parenright" unicode=")" horiz-adv-x="821" 
d="M449 570q0 498 -369 872l117 125q258 -217 388 -458t130 -535t-130 -536t-388 -458l-123 117q375 375 375 873z" />
    <glyph glyph-name="asterisk" unicode="*" horiz-adv-x="1040" 
d="M520 981l-151 -319l-146 83l201 291l-352 -24v159l354 -24l-203 291l146 86l151 -322l152 322l145 -86l-201 -291l353 24v-159l-353 24l201 -291l-143 -83z" />
    <glyph glyph-name="plus" unicode="+" horiz-adv-x="1314" 
d="M762 168h-209v430h-416v203h416v430h209v-430h418v-203h-418v-430z" />
    <glyph glyph-name="comma" unicode="," horiz-adv-x="565" 
d="M141 0v266h283v-231l-129 -264h-117l72 229h-109z" />
    <glyph glyph-name="hyphen" unicode="-" horiz-adv-x="731" 
d="M618 553h-505v180h505v-180z" />
    <glyph glyph-name="hyphen" unicode="&#xad;" horiz-adv-x="731" 
d="M618 553h-505v180h505v-180z" />
    <glyph glyph-name="period" unicode="." horiz-adv-x="565" 
d="M424 0h-283v266h283v-266z" />
    <glyph glyph-name="slash" unicode="/" horiz-adv-x="1234" 
d="M307 0h-260l881 1516h260z" />
    <glyph glyph-name="zero" unicode="0" horiz-adv-x="1388" 
d="M696 197q342 0 342 561q0 279 -89 418t-253 139q-346 0 -346 -557q0 -279 91 -420t255 -141zM696 -29q-282 0 -442 214q-160 215 -160 573t160 572t442 214t441 -213q157 -213 157 -573t-157 -574q-158 -213 -441 -213z" />
    <glyph glyph-name="one" unicode="1" horiz-adv-x="917" 
d="M864 0h-776v225h279v1030q-131 -70 -275 -69v231q184 6 283 99h241v-1291h248v-225z" />
    <glyph glyph-name="two" unicode="2" horiz-adv-x="1234" 
d="M1128 0h-1056v33q0 186 99 347t376 339q190 123 257 195q66 72 66 178q0 108 -64 165q-65 57 -173 58q-207 0 -357 -223l-190 131q209 322 559 321q221 0 348 -118t127 -312q0 -147 -76 -262t-282 -246q-352 -223 -391 -381h757v-225z" />
    <glyph glyph-name="three" unicode="3" horiz-adv-x="1249" 
d="M596 197q307 0 307 244q0 127 -102 189t-320 62h-69v209h75q211 0 293 56t82 165q0 190 -260 191q-209 0 -350 -146l-150 160q96 99 234 157t291 58q239 0 363 -104t124 -279q0 -135 -73 -227t-205 -127q322 -66 321 -385q1 -205 -151 -327t-406 -122q-367 0 -563 267
l178 143q141 -184 381 -184z" />
    <glyph glyph-name="four" unicode="4" horiz-adv-x="1325" 
d="M786 532v678h-4l-456 -678h460zM1034 0h-248v311h-737v201l690 1004h295v-984h256v-221h-256v-311z" />
    <glyph glyph-name="five" unicode="5" horiz-adv-x="1224" 
d="M592 -29q-340 0 -545 230l158 168q182 -172 375 -172q162 0 244 83t81 226q0 143 -79 218t-218 75q-195 0 -307 -146l-170 56l59 807h873l-19 -226h-655l-31 -391q104 113 324 113t348 -138q129 -138 129 -370q1 -234 -153 -384t-414 -149z" />
    <glyph glyph-name="six" unicode="6" horiz-adv-x="1302" 
d="M692 188q137 0 215 78t78 213q0 272 -287 273q-102 0 -200 -44t-150 -106q29 -414 344 -414zM680 -29q-268 0 -427 195q-159 194 -159 572t188 592t468 214q233 0 391 -123l-123 -188q-125 88 -288 88t-268 -140t-116 -380q182 164 401 164t351 -124q132 -123 131 -351
q0 -228 -160 -374t-389 -145z" />
    <glyph glyph-name="seven" unicode="7" horiz-adv-x="1112" 
d="M55 1290v226h1010v-209l-606 -1307h-262l604 1290h-746z" />
    <glyph glyph-name="eight" unicode="8" horiz-adv-x="1280" 
d="M315 391q0 -99 88 -159q89 -60 237 -60t237 59q88 59 88 161t-80 169q-80 68 -262 141q-160 -74 -234 -144t-74 -167zM903 1147q0 82 -65 138q-66 56 -196 56t-198 -54t-68 -138q0 -85 66 -141q65 -56 215 -117q133 61 189 117t57 139zM640 -35q-269 0 -425 115t-156 301
q0 260 363 416q-150 73 -222 155t-71 226q0 144 137 258t377 114t374 -114t134 -269q0 -233 -293 -364q184 -80 274 -172t89 -263q0 -171 -156 -287t-425 -116z" />
    <glyph glyph-name="nine" unicode="9" horiz-adv-x="1302" 
d="M553 -29q-233 0 -391 123l123 189q131 -93 291 -93t264 142q106 142 116 383q-182 -164 -401 -164t-350 124t-131 351t159 373q160 145 390 145q268 0 427 -194q158 -194 158 -573q0 -378 -187 -592t-468 -214zM604 764q102 0 200 44t150 105q-29 410 -344 410
q-137 0 -215 -76t-78 -211q0 -272 287 -272z" />
    <glyph glyph-name="colon" unicode=":" horiz-adv-x="583" 
d="M432 0h-280v266h280v-266zM432 819h-280v268h280v-268z" />
    <glyph glyph-name="semicolon" unicode=";" horiz-adv-x="583" 
d="M152 0v266h280v-227l-131 -268h-117l72 229h-104zM432 819h-280v268h280v-268z" />
    <glyph glyph-name="less" unicode="&#x3c;" horiz-adv-x="1314" 
d="M1200 332v-213l-1083 471v147l1083 471v-213l-809 -331z" />
    <glyph glyph-name="equal" unicode="=" horiz-adv-x="1314" 
d="M1174 342h-1035v186h1035v-186zM1174 809h-1035v186h1035v-186z" />
    <glyph glyph-name="greater" unicode="&#x3e;" horiz-adv-x="1314" 
d="M1206 590l-1083 -471v213l809 332l-809 331v213l1083 -471v-147z" />
    <glyph glyph-name="question" unicode="?" horiz-adv-x="1171" 
d="M678 0h-281v256h281v-256zM641 449h-207q-6 49 -6 143q0 207 201 319q113 66 153 112t41 127q0 81 -62 125q-61 44 -169 44t-202 -51t-159 -125l-161 145q213 256 540 256q223 0 344 -102t121 -271q-1 -133 -65 -215t-189 -150t-153 -127q-28 -60 -27 -230z" />
    <glyph glyph-name="at" unicode="@" horiz-adv-x="1777" 
d="M788 487q113 0 218 101l57 362q-78 90 -190 90q-113 0 -179 -108t-65 -258q-1 -187 159 -187zM877 -29q-352 0 -569 219q-216 218 -216 564t224 568t574 222t573 -214q222 -214 223 -552q0 -211 -102 -337t-277 -126q-215 0 -263 154q-135 -135 -327 -135q-131 0 -209 83
t-78 236q0 242 117 397q117 154 280 154t258 -106l15 90h196l-96 -608q-23 -150 133 -150q102 0 167 89t65 253q1 291 -187 473t-487 182t-485 -187t-186 -485q0 -299 182 -487q183 -188 481 -188q225 0 399 106l55 -88q-194 -127 -460 -127z" />
    <glyph glyph-name="A" unicode="A" horiz-adv-x="1427" 
d="M291 0h-240l537 1522h252l536 -1522h-262l-123 360h-575zM705 1200l-211 -614h421l-206 614h-4z" />
    <glyph glyph-name="B" unicode="B" horiz-adv-x="1437" 
d="M424 666v-445h332q162 0 236 53t75 168q0 223 -338 224h-305zM424 1290v-407h297q307 0 307 207q0 108 -72 154t-231 46h-301zM782 0h-610v1516h573q528 0 529 -377q0 -152 -73 -238t-195 -110v-5q313 -59 313 -370q1 -204 -147 -310t-390 -106z" />
    <glyph glyph-name="C" unicode="C" horiz-adv-x="1468" 
d="M764 -29q-301 0 -483 205q-183 205 -183 581q0 375 186 581t480 206q473 0 588 -471l-244 -69q-45 158 -123 230t-223 73q-193 -1 -299 -143q-107 -142 -107 -405t109 -409t301 -145q147 0 234 78t130 247l244 -55q-123 -504 -610 -504z" />
    <glyph glyph-name="D" unicode="D" horiz-adv-x="1490" 
d="M428 1278v-1049h199q262 0 385 125q123 124 123 402t-124 400t-388 122h-195zM604 0h-432v1516h432q373 0 580 -184t207 -571q0 -389 -209 -575t-578 -186z" />
    <glyph glyph-name="E" unicode="E" horiz-adv-x="1271" 
d="M1192 0h-1020v1516h979v-238h-723v-377h530v-227h-530v-441h764v-233z" />
    <glyph glyph-name="F" unicode="F" horiz-adv-x="1183" 
d="M428 0h-256v1516h954v-238h-698v-406h506v-227h-506v-645z" />
    <glyph glyph-name="G" unicode="G" horiz-adv-x="1525" 
d="M745 -29q-315 0 -481 216q-166 215 -166 577t182 571t486 209q463 0 588 -477l-238 -63q-49 166 -131 234t-226 69q-144 0 -265 -108q-62 -56 -100 -167t-38 -262q0 -295 119 -432t286 -137t261 89t106 253h-305v207h551v-750h-211v219h-4q-43 -98 -149 -173t-265 -75z
" />
    <glyph glyph-name="H" unicode="H" horiz-adv-x="1544" 
d="M428 0h-256v1516h256v-605h688v605h256v-1516h-256v674h-688v-674z" />
    <glyph glyph-name="I" unicode="I" horiz-adv-x="634" 
d="M446 0h-258v1516h258v-1516z" />
    <glyph glyph-name="J" unicode="J" horiz-adv-x="1064" 
d="M915 420q1 -213 -121 -331t-358 -118t-399 174l160 158q109 -109 229 -109t176 58q57 57 57 203v1061h256v-1096z" />
    <glyph glyph-name="K" unicode="K" horiz-adv-x="1429" 
d="M428 0h-256v1516h256v-705l596 705h303l-516 -584l580 -932h-293l-455 735l-215 -237v-498z" />
    <glyph glyph-name="L" unicode="L" horiz-adv-x="1183" 
d="M1126 0h-954v1516h256v-1283h698v-233z" />
    <glyph glyph-name="M" unicode="M" horiz-adv-x="1828" 
d="M403 0h-231v1516h338l405 -1203h5l393 1203h344v-1516h-248v1130h-4q-20 -98 -90 -309l-295 -821h-227l-293 821q-59 176 -92 320h-5v-1141z" />
    <glyph glyph-name="N" unicode="N" horiz-adv-x="1562" 
d="M410 0h-238v1516h260l717 -1082h4v1082h238v-1516h-234l-743 1104h-4v-1104z" />
    <glyph glyph-name="O" unicode="O" horiz-adv-x="1564" 
d="M356 757q0 -263 116 -409t311 -145q196 0 311 146q114 147 114 409t-114 406q-115 144 -311 144q-195 0 -311 -144t-116 -407zM784 -29q-298 0 -492 208t-194 579q0 370 194 578t492 208t490 -208t192 -578t-192 -579q-192 -208 -490 -208z" />
    <glyph glyph-name="P" unicode="P" horiz-adv-x="1357" 
d="M426 1282v-483h281q171 0 249 57t78 184q0 126 -79 184t-250 58h-279zM426 0h-254v1516h530q584 0 584 -465q0 -267 -173 -372q-173 -104 -419 -104h-268v-575z" />
    <glyph glyph-name="Q" unicode="Q" horiz-adv-x="1564" 
d="M354 757q0 -263 116 -411t310 -147q195 0 311 147q115 146 115 410t-114 408q-115 144 -311 144q-195 0 -311 -144t-116 -407zM1325 -395h-209q-231 0 -353 105t-126 280q-241 43 -391 246t-150 522q0 366 199 576t487 210t486 -210q196 -210 196 -557t-158 -552
t-409 -241q20 -102 93 -132t231 -30h104v-217z" />
    <glyph glyph-name="R" unicode="R" horiz-adv-x="1415" 
d="M424 0h-252v1516h543q273 0 421 -114t148 -341q0 -348 -336 -430l357 -631h-275l-340 598h-266v-598zM424 1282v-461h281q167 0 247 52q80 53 80 181t-80 178t-250 50h-278z" />
    <glyph glyph-name="S" unicode="S" horiz-adv-x="1380" 
d="M1049 1090q-131 221 -389 221t-259 -181q0 -90 77 -142t241 -100t244 -81q79 -33 157 -85q154 -103 154 -302t-154 -324t-396 -125q-242 -1 -400 103t-232 282l203 107q133 -264 418 -264q143 0 226 48t83 146q0 99 -76 155t-296 123t-282 102q-125 73 -171 151
q-47 78 -47 192q0 192 143 310t375 118q399 0 567 -325z" />
    <glyph glyph-name="T" unicode="T" horiz-adv-x="1300" 
d="M778 0h-256v1278h-467v238h1190v-238h-467v-1278z" />
    <glyph glyph-name="U" unicode="U" horiz-adv-x="1476" 
d="M1325 555q-1 -266 -151 -423t-443 -157t-436 154t-143 424v963h256v-941q0 -369 333 -368q332 0 332 366v943h252v-961z" />
    <glyph glyph-name="V" unicode="V" horiz-adv-x="1396" 
d="M819 -6h-241l-527 1522h260l391 -1182h5l397 1182h242z" />
    <glyph glyph-name="W" unicode="W" horiz-adv-x="1933" 
d="M688 0h-225l-404 1516h258l193 -785q59 -233 80 -352h4q25 141 78 350l182 787h246l188 -791q61 -242 80 -346h4q6 37 74 340l188 797h240l-399 -1516h-224l-272 1161h-4z" />
    <glyph glyph-name="X" unicode="X" horiz-adv-x="1427" 
d="M334 0h-268l503 805l-450 711h293l315 -508l305 508h266l-442 -711l506 -805h-283l-374 600z" />
    <glyph glyph-name="Y" unicode="Y" horiz-adv-x="1353" 
d="M805 0h-258v653l-516 863h270l379 -646l377 646h266l-518 -863v-653z" />
    <glyph glyph-name="Z" unicode="Z" horiz-adv-x="1320" 
d="M1231 0h-1159v178l837 1122h-782v216h1104v-185l-828 -1122h828v-209z" />
    <glyph glyph-name="bracketleft" unicode="[" horiz-adv-x="862" 
d="M788 -410h-630v1926h630v-181h-376v-1564h376v-181z" />
    <glyph glyph-name="backslash" unicode="\" horiz-adv-x="1193" 
d="M1167 0h-260l-880 1516h260z" />
    <glyph glyph-name="bracketright" unicode="]" horiz-adv-x="862" 
d="M705 -410h-631v181h377v1562h-377v183h631v-1926z" />
    <glyph glyph-name="asciicircum" unicode="^" horiz-adv-x="1314" 
d="M117 678l471 838h147l471 -838h-213l-331 582l-332 -582h-213z" />
    <glyph glyph-name="underscore" unicode="_" horiz-adv-x="1024" 
d="M1024 -297h-1024v182h1024v-182z" />
    <glyph glyph-name="grave" unicode="`" horiz-adv-x="1024" 
d="M539 1202l-299 340h272l193 -340h-166z" />
    <glyph glyph-name="a" unicode="a" horiz-adv-x="1157" 
d="M379 -16q-137 0 -222 74t-85 204q0 182 169 296t539 155v32q0 156 -180 156t-364 -147l-123 157q215 197 524 197q211 0 301 -97t90 -296v-449q0 -190 31 -266h-254q-25 78 -25 139q-153 -155 -401 -155zM471 178q178 0 309 125v240q-461 -63 -461 -234q0 -63 41 -97
t111 -34z" />
    <glyph glyph-name="b" unicode="b" horiz-adv-x="1251" 
d="M644 184q146 0 210 87t64 265t-69 267q-69 90 -205 90t-251 -137v-437q105 -135 251 -135zM718 -16q-202 0 -325 137v-121h-252v1516h252v-572q137 164 338 164t320 -144t119 -418t-126 -418q-124 -144 -326 -144z" />
    <glyph glyph-name="c" unicode="c" horiz-adv-x="1116" 
d="M588 -23q-209 -1 -359 143t-149 423q0 149 47 263t125 177q155 125 345 125q191 0 295 -86t161 -231l-213 -76q-63 182 -242 182q-116 0 -190 -85t-74 -263t68 -271t192 -94q92 0 151 40t103 149l209 -76q-143 -320 -469 -320z" />
    <glyph glyph-name="d" unicode="d" horiz-adv-x="1251" 
d="M517 -16q-199 0 -317 142t-118 416t125 420t327 146t324 -137v545h252v-1250q0 -193 33 -266h-260q-25 53 -25 147q-141 -163 -341 -163zM594 190q150 0 264 138v436q-104 135 -250 135t-210 -90t-64 -267q0 -176 68 -264t192 -88z" />
    <glyph glyph-name="e" unicode="e" horiz-adv-x="1155" 
d="M596 903q-100 1 -172 -61t-88 -193h508q-23 254 -248 254zM604 -23q-223 -1 -374 141t-150 425q0 147 48 261t127 177q159 127 355 127q195 0 330 -140t135 -448v-59h-743q8 -141 86 -212t192 -71t183 31q70 31 135 96l133 -131q-178 -197 -457 -197z" />
    <glyph glyph-name="f" unicode="f" horiz-adv-x="765" 
d="M487 0h-251v887h-189v200h189v111q0 152 78 238q79 86 274 86q57 0 149 -11v-194q-33 8 -99 8q-152 0 -151 -141v-97h238v-200h-238v-887z" />
    <glyph glyph-name="g" unicode="g" horiz-adv-x="1202" 
d="M258 -113q0 -71 80 -99t234 -28t236 34q81 34 81 93t-56 85t-221 36l-188 12q-31 0 -66 7q-100 -45 -100 -140zM551 -422q-524 0 -524 266q0 160 178 230q-84 43 -84 133q0 111 147 199q-172 109 -172 313q0 169 124 279t331 110t336 -115q117 92 270 107v-205
q-98 0 -190 -29q39 -61 39 -147q0 -175 -122 -281t-331 -106q-68 0 -152 22q-55 -30 -55 -66t27 -49t98 -20l193 -12q240 -14 344 -84q104 -69 104 -223t-150 -238t-411 -84zM556 506q105 0 163 53q57 53 57 153t-57 154t-163 54t-164 -54t-58 -154q0 -99 58 -153
q59 -53 164 -53z" />
    <glyph glyph-name="h" unicode="h" horiz-adv-x="1234" 
d="M395 0h-254v1516h254v-576q158 168 398 168q145 0 229 -85t84 -243v-780h-254v717q0 176 -162 176q-139 0 -295 -141v-752z" />
    <glyph glyph-name="i" unicode="i" horiz-adv-x="557" 
d="M406 0h-254v1087h254v-1087zM408 1276h-258v219h258v-219z" />
    <glyph glyph-name="j" unicode="j" horiz-adv-x="557" 
d="M102 -414q-104 0 -153 13v176q37 -8 82 -8q121 0 121 137v1183h254v-1222q0 -129 -65 -204t-239 -75zM408 1276h-258v219h258v-219z" />
    <glyph glyph-name="k" unicode="k" horiz-adv-x="1153" 
d="M393 0h-252v1516h252v-904l412 475h276l-354 -397l385 -690h-264l-281 504l-174 -191v-313z" />
    <glyph glyph-name="l" unicode="l" horiz-adv-x="557" 
d="M406 0h-254v1516h254v-1516z" />
    <glyph glyph-name="m" unicode="m" horiz-adv-x="1892" 
d="M393 0h-252v1087h252v-149q156 170 373 170q129 0 196 -45t101 -133q162 178 381 178q160 0 238 -88t79 -240v-780h-252v717q0 94 -33 135q-34 41 -120 41q-121 0 -279 -141v-752h-252v717q0 94 -33 135q-34 41 -120 41q-121 0 -279 -141v-752z" />
    <glyph glyph-name="n" unicode="n" horiz-adv-x="1234" 
d="M395 0h-252v1087h252v-174q170 195 389 195q154 0 238 -80t84 -237v-791h-252v719q0 180 -164 180q-143 0 -295 -141v-758z" />
    <glyph glyph-name="o" unicode="o" horiz-adv-x="1220" 
d="M608 188q137 0 208 92t71 258q0 165 -70 260t-206 95t-207 -92q-70 -92 -70 -256q0 -165 68 -261t206 -96zM610 -23q-218 -1 -374 143t-156 424t154 422q155 142 375 142t376 -142t156 -422t-156 -424t-375 -143z" />
    <glyph glyph-name="p" unicode="p" horiz-adv-x="1251" 
d="M393 -410h-252v1497h252v-143q137 164 338 164t320 -144t119 -418t-126 -418q-125 -144 -327 -144t-324 137v-531zM644 184q146 0 210 87t64 265t-69 267q-69 90 -205 90t-251 -137v-437q105 -135 251 -135z" />
    <glyph glyph-name="q" unicode="q" horiz-adv-x="1251" 
d="M594 190q150 0 264 138v436q-104 135 -250 135t-210 -90t-64 -267q0 -176 68 -264t192 -88zM1110 -410h-252v557q-141 -163 -341 -163q-199 0 -317 142t-118 416t125 420t327 146t324 -137v116h252v-1497z" />
    <glyph glyph-name="r" unicode="r" horiz-adv-x="843" 
d="M393 0h-252v1087h252v-178h4q123 199 391 199h17l-8 -231q-25 4 -68 4q-217 0 -336 -193v-688z" />
    <glyph glyph-name="s" unicode="s" horiz-adv-x="1071" 
d="M565 -23q-173 -1 -301 47t-205 126l138 153q151 -129 355 -129t204 125q0 63 -69 93q-69 29 -154 48q-228 50 -295 99q-97 72 -115 130t-19 119q0 144 112 232t292 88q262 0 446 -154l-120 -163q-60 51 -148 85t-160 33q-184 0 -184 -110q0 -59 58 -88t158 -51t138 -31
q38 -10 107 -38q67 -28 101 -60t62 -88t27 -130q1 -164 -127 -250t-301 -86z" />
    <glyph glyph-name="t" unicode="t" horiz-adv-x="825" 
d="M563 -14q-197 0 -267 70t-69 229v602h-188v200h188v379h252v-379h281v-200h-281v-539q0 -90 34 -127t113 -37t122 15v-199q-62 -14 -185 -14z" />
    <glyph glyph-name="u" unicode="u" horiz-adv-x="1234" 
d="M442 -20q-145 0 -229 85t-84 242v780h254v-720q0 -176 162 -177q139 0 295 142v755h254v-1087h-254v147q-158 -167 -398 -167z" />
    <glyph glyph-name="v" unicode="v" horiz-adv-x="1079" 
d="M668 -2h-256l-394 1089h265l266 -802h4l264 802h244z" />
    <glyph glyph-name="w" unicode="w" horiz-adv-x="1562" 
d="M582 0h-234l-323 1087h256l118 -450q47 -176 82 -346h4q45 205 86 350l115 446h205l121 -454q37 -127 84 -342h4q49 213 86 338l123 458h229l-324 -1087h-235l-197 756h-4z" />
    <glyph glyph-name="x" unicode="x" horiz-adv-x="1091" 
d="M297 0h-258l379 561l-352 526h268l227 -348l219 348h260l-356 -526l377 -561h-268l-250 381z" />
    <glyph glyph-name="y" unicode="y" horiz-adv-x="1120" 
d="M264 -422q-146 0 -266 33l57 203q85 -23 169 -23t122 29t66 94l30 80l-417 1093h262l280 -792h4l279 792h250l-463 -1206q-57 -155 -142 -229t-231 -74z" />
    <glyph glyph-name="z" unicode="z" horiz-adv-x="1064" 
d="M999 0h-929v145l579 742h-536v200h852v-151l-582 -741h616v-195z" />
    <glyph glyph-name="braceleft" unicode="{" horiz-adv-x="851" 
d="M791 -410h-224q-137 0 -209 78t-71 215v334q-1 143 -53 195t-175 51v180q123 0 175 51t53 195v334q0 137 71 215q72 78 209 78h224v-181h-91q-160 0 -159 -159v-316q0 -143 -42 -209t-132 -96v-4q90 -31 132 -97t42 -208v-316q0 -160 159 -159h91v-181z" />
    <glyph glyph-name="bar" unicode="|" horiz-adv-x="772" 
d="M510 -410h-248v1926h248v-1926z" />
    <glyph glyph-name="braceright" unicode="}" horiz-adv-x="851" 
d="M305 -410h-244v181h91q160 0 159 159v336q0 138 41 196t133 89v4q-92 31 -133 88t-41 197v336q0 164 -155 163h-90l-5 177h244q137 0 199 -68t61 -205v-354q0 -143 52 -195t176 -51v-180q-123 0 -175 -51t-53 -195v-354q1 -137 -61 -205t-199 -68z" />
    <glyph glyph-name="asciitilde" unicode="~" horiz-adv-x="1314" 
d="M1186 813q-16 -143 -82 -211t-162 -66t-308 70t-253 70q-88 6 -98 -92l-154 22q16 141 82 208t164 64t308 -72t251 -71q90 -4 100 96z" />
    <glyph glyph-name="exclamdown" unicode="&#xa1;" horiz-adv-x="694" 
d="M500 0h-316l68 1063h180zM483 1260h-282v256h282v-256z" />
    <glyph glyph-name="cent" unicode="&#xa2;" horiz-adv-x="1124" 
d="M80 522q0 314 171 456q154 130 351 130q37 0 53 -2l58 201h139l-66 -228q180 -63 271 -288l-203 -76q-43 125 -133 164l-197 -693q27 -8 70 -8q188 0 268 195l199 -76q-143 -319 -473 -320q-55 0 -115 13l-72 -254h-141l88 299q-120 65 -194 193t-74 294zM598 901
q-121 0 -202 -85q-80 -84 -80 -282t98 -292l188 659h-4z" />
    <glyph glyph-name="sterling" unicode="&#xa3;" horiz-adv-x="1345" 
d="M320 297q-56 0 -84 -26q-28 -25 -27 -67q0 -42 28 -68t72 -25q111 0 170 98q-103 88 -159 88zM182 690v168h185q-88 154 -88 281q0 176 117 291q118 115 315 114q393 0 458 -395l-227 -43q-29 227 -225 227q-93 0 -143 -53t-50 -133t33 -150t72 -139h358v-168h-278
q43 -110 43 -228t-41 -216q111 -70 201 -70t126 49q37 49 41 176h224q0 -193 -84 -311q-85 -118 -267 -119q-182 0 -342 125q-125 -125 -315 -125q-102 1 -178 59t-76 171t75 181t184 67q109 0 230 -74q2 20 2 63q1 117 -69 252h-281z" />
    <glyph glyph-name="currency" unicode="&#xa4;" horiz-adv-x="1314" 
d="M658 362q-101 0 -185 46l-203 -203l-147 147l201 201q-49 86 -50 188q0 102 48 185l-199 196l147 148l201 -199q86 49 185 49t188 -47l196 197l148 -148l-195 -194q47 -82 47 -184t-49 -189l201 -201l-148 -147l-202 203q-83 -48 -184 -48zM657 508q98 0 159 64
q60 65 61 169q-1 103 -61 167t-158 64t-159 -62q-61 -64 -61 -168t60 -170q60 -64 159 -64z" />
    <glyph glyph-name="yen" unicode="&#xa5;" horiz-adv-x="1343" 
d="M799 0h-256v199h-377v170h377v143h-377v170h371l-498 834h268l367 -625l366 625h265l-502 -834h377v-170h-381v-143h381v-170h-381v-199z" />
    <glyph glyph-name="brokenbar" unicode="&#xa6;" horiz-adv-x="772" 
d="M510 -410h-248v838h248v-838zM510 678h-248v838h248v-838z" />
    <glyph glyph-name="section" unicode="&#xa7;" horiz-adv-x="1148" 
d="M573 -410q-354 0 -438 293l189 78q29 -92 84 -137t155 -45q174 0 174 141q0 66 -57 120t-177 122t-173 104q-157 103 -197 197q-25 57 -24 129q0 199 223 326q-88 70 -125 134t-37 150q0 142 111 242t294 100q362 0 447 -293l-199 -84q-29 87 -90 141t-151 54t-136 -42
t-45 -106t61 -117t230 -149t258 -183t88 -209t-64 -205t-157 -136q86 -68 119 -131t33 -152q0 -142 -106 -242t-290 -100zM827 496q0 78 -55 132t-170 121t-135 76q-145 -78 -145 -186q0 -78 62 -139t296 -191q147 78 147 187z" />
    <glyph glyph-name="dieresis" unicode="&#xa8;" horiz-adv-x="1064" 
d="M213 1196v248h229v-248h-229zM618 1196v248h230v-248h-230z" />
    <glyph glyph-name="copyright" unicode="&#xa9;" horiz-adv-x="1771" 
d="M881 317q-164 0 -264 120q-99 120 -99 327t99 327t268 119q266 0 329 -272l-147 -39q-25 86 -66 129t-125 43t-138 -83q-56 -83 -56 -224t54 -222t151 -81q143 0 186 184q145 -39 152 -39q-78 -289 -344 -289zM888 90q278 0 464 192q188 192 188 474t-189 476t-467 194
t-465 -192q-187 -191 -187 -474q0 -282 188 -476q190 -194 468 -194zM1669 760q0 -330 -227 -560t-558 -229t-556 227t-226 558q0 332 228 560t558 228q331 0 556 -227t225 -557z" />
    <glyph glyph-name="ordfeminine" unicode="&#xaa;" horiz-adv-x="888" 
d="M311 745q-98 1 -159 53t-62 144q0 129 119 207t377 106v25q0 113 -119 113q-141 0 -260 -103l-88 105q150 141 373 141q276 0 276 -276v-312q0 -131 25 -188h-189q-16 49 -18 106q-121 -121 -275 -121zM382 889q108 0 204 88v172q-313 -39 -314 -174q2 -86 110 -86z" />
    <glyph glyph-name="guillemotleft" unicode="&#xab;" horiz-adv-x="1204" 
d="M637 0h-246l-325 545l325 542h246l-313 -542zM1118 0h-244l-327 545l327 542h244l-315 -542z" />
    <glyph glyph-name="logicalnot" unicode="&#xac;" horiz-adv-x="1308" 
d="M1171 817v-641h-204v424h-830v217h1034z" />
    <glyph glyph-name="registered" unicode="&#xae;" horiz-adv-x="1097" 
d="M367 823v520h194q195 0 195 -159q0 -113 -103 -148l113 -213h-109l-104 199h-82v-199h-104zM471 1102h84q98 0 98 75t-100 74h-82v-149zM551 676q165 0 277 114t112 282t-113 284q-113 114 -279 114t-277 -114t-111 -282q0 -170 112 -284t279 -114zM548 598
q-200 0 -336 137t-136 338t138 338t337 137t335 -136t136 -337t-137 -339t-337 -138z" />
    <glyph glyph-name="macron" unicode="&#xaf;" horiz-adv-x="1024" 
d="M193 1196v186h638v-186h-638z" />
    <glyph glyph-name="degree" unicode="&#xb0;" horiz-adv-x="839" 
d="M420 1051q74 0 121 50t47 130t-47 130t-121 50t-121 -50t-47 -130t47 -130t121 -50zM420 920q-135 0 -225 88t-91 223q0 135 90 223t226 88q135 0 225 -87t90 -222t-90 -224t-225 -89z" />
    <glyph glyph-name="plusminus" unicode="&#xb1;" horiz-adv-x="1314" 
d="M137 59v191h420v381h-420v198h420v433h203v-433h420v-198h-420v-381h420v-191h-1043z" />
    <glyph glyph-name="two.sups" unicode="&#xb2;" horiz-adv-x="952" 
d="M125 553v49q0 121 60 222t237 210q112 70 150 110t38 98q0 120 -126 120t-210 -156l-145 99q133 231 363 231q154 0 236 -78t83 -209q0 -94 -54 -172t-194 -155q-178 -106 -203 -199h455v-170h-690z" />
    <glyph glyph-name="three.sups" unicode="&#xb3;" horiz-adv-x="952" 
d="M457 707q166 0 166 142q-1 69 -53 103t-171 35h-69v148h73q109 1 155 31t46 91q0 107 -124 107t-228 -107l-117 123q150 156 352 156q156 0 239 -71t83 -187q0 -160 -152 -209q178 -55 179 -231q0 -139 -98 -220t-267 -81q-246 0 -373 198l129 109q94 -137 230 -137z" />
    <glyph glyph-name="acute" unicode="&#xb4;" horiz-adv-x="1024" 
d="M322 1202l192 340h270l-297 -340h-165z" />
    <glyph glyph-name="uni00B5" unicode="&#xb5;" horiz-adv-x="1245" 
d="M393 -410h-252v1497h252v-718q0 -182 164 -183q137 0 295 142v759h252v-1087h-252v172q-145 -158 -311 -180q-98 -6 -148 33v-435z" />
    <glyph glyph-name="paragraph" unicode="&#xb6;" horiz-adv-x="1290" 
d="M782 -410h-180v1072q-242 4 -370 112t-128 304q0 194 124 316t345 122h580v-1926h-180v1731h-191v-1731z" />
    <glyph glyph-name="periodcentered" unicode="&#xb7;" horiz-adv-x="575" 
d="M434 541h-293v266h293v-266z" />
    <glyph glyph-name="cedilla" unicode="&#xb8;" horiz-adv-x="1024" 
d="M799 -211q0 -93 -77 -145q-78 -52 -220 -52t-256 76l51 82q92 -61 212 -61t120 80q0 63 -74 63q-47 0 -94 -37l-72 35l51 170h117l-29 -100q48 30 116 30t112 -38t43 -103z" />
    <glyph glyph-name="one.sups" unicode="&#xb9;" horiz-adv-x="759" 
d="M143 551v166h174v624q-82 -39 -172 -38v151q123 4 181 62h198v-799h156v-166h-537z" />
    <glyph glyph-name="ordmasculine" unicode="&#xba;" horiz-adv-x="923" 
d="M460 883q93 1 142 71t49 185t-47 187t-140 73q-93 0 -142 -71q-50 -72 -50 -186t47 -187q48 -72 141 -72zM463 745q-157 1 -267 101t-110 297t110 295t266 98t266 -98t110 -295t-110 -297t-265 -101z" />
    <glyph glyph-name="guillemotright" unicode="&#xbb;" horiz-adv-x="1204" 
d="M330 0h-246l315 545l-315 542h246l327 -542zM811 0h-244l314 545l-314 542h244l326 -542z" />
    <glyph glyph-name="onequarter" unicode="&#xbc;" horiz-adv-x="2064" 
d="M1612 367v368l-246 -368h246zM1602 0v213h-439v131l428 623h215v-590h154v-164h-154v-213h-204zM170 551v168h168v590q-74 -27 -164 -27v172q131 6 184 62h187v-797h147v-168h-522zM487 0l908 1516h221l-907 -1516h-222z" />
    <glyph glyph-name="onehalf" unicode="&#xbd;" horiz-adv-x="2136" 
d="M1309 0v49q0 119 61 219t238 213q106 70 145 111t39 98t-33 88t-92 31q-123 0 -209 -156l-145 99q133 231 362 231q150 0 235 -78t85 -209q-1 -94 -55 -171t-212 -171t-178 -184h451v-170h-692zM487 0l908 1516h221l-907 -1516h-222zM170 551v168h168v590
q-74 -27 -164 -27v172q131 6 184 62h187v-797h147v-168h-522z" />
    <glyph glyph-name="threequarters" unicode="&#xbe;" horiz-adv-x="2134" 
d="M1681 367v368l-245 -368h245zM457 707q166 0 166 142q-1 69 -53 103t-171 35h-69v148h73q109 1 155 31t46 91q0 107 -124 107t-228 -107l-117 123q150 156 352 156q156 0 239 -71t83 -187q0 -160 -152 -209q178 -55 179 -231q0 -139 -98 -220t-267 -81q-246 0 -373 198
l129 109q94 -137 230 -137zM1671 0v213h-438v131l428 623h215v-590h154v-164h-154v-213h-205zM559 0l905 1516h222l-906 -1516h-221z" />
    <glyph glyph-name="questiondown" unicode="&#xbf;" horiz-adv-x="1171" 
d="M561 -29q-223 1 -344 103t-121 270q0 133 65 215t189 150t153 128q28 60 27 230h207q6 -49 6 -143q0 -207 -200 -320q-113 -66 -154 -112t-41 -126q0 -82 62 -126t170 -43q108 0 202 51t158 125l162 -146q-213 -256 -541 -256zM774 1260h-280v256h280v-256z" />
    <glyph glyph-name="Agrave" unicode="&#xc0;" horiz-adv-x="1427" 
d="M291 0h-240l537 1522h252l536 -1522h-262l-123 360h-575zM705 1200l-211 -614h421l-206 614h-4zM645 1606l-299 340h272l193 -340h-166z" />
    <glyph glyph-name="Aacute" unicode="&#xc1;" horiz-adv-x="1427" 
d="M291 0h-240l537 1522h252l536 -1522h-262l-123 360h-575zM705 1200l-211 -614h421l-206 614h-4zM616 1606l193 340h270l-297 -340h-166z" />
    <glyph glyph-name="Acircumflex" unicode="&#xc2;" horiz-adv-x="1427" 
d="M291 0h-240l537 1522h252l536 -1522h-262l-123 360h-575zM705 1200l-211 -614h421l-206 614h-4zM360 1606l265 340h174l264 -340h-148l-204 172l-205 -172h-146z" />
    <glyph glyph-name="Atilde" unicode="&#xc3;" horiz-adv-x="1427" 
d="M291 0h-240l537 1522h252l536 -1522h-262l-123 360h-575zM705 1200l-211 -614h421l-206 614h-4zM868 1591q-74 -1 -167 57t-130 58q-84 0 -84 -111h-141q0 285 213 285q74 0 167 -57t132 -58q84 0 84 111h141q0 -285 -215 -285z" />
    <glyph glyph-name="Adieresis" unicode="&#xc4;" horiz-adv-x="1427" 
d="M291 0h-240l537 1522h252l536 -1522h-262l-123 360h-575zM705 1200l-211 -614h421l-206 614h-4zM393 1599v248h230v-248h-230zM799 1599v248h229v-248h-229z" />
    <glyph glyph-name="Aring" unicode="&#xc5;" horiz-adv-x="1427" 
d="M714 1839q90 0 148 -59q60 -58 60 -150t-70 -145l524 -1485h-262l-123 360h-575l-125 -360h-240l524 1485q-71 51 -71 143t60 152t150 59zM492 588h426l-209 612h-4zM612 1631q0 -45 29 -75t73 -30t72 30t27 75q0 46 -28 75q-27 29 -71 29t-73 -29t-29 -75z" />
    <glyph glyph-name="AE" unicode="&#xc6;" horiz-adv-x="2134" 
d="M2011 1516v-238h-723v-377h531v-227h-531v-441h764v-233h-1018v426h-495l-240 -426h-258l862 1516h1108zM1034 651v652h-2l-366 -652h368z" />
    <glyph glyph-name="Ccedilla" unicode="&#xc7;" horiz-adv-x="1468" 
d="M1040 -211q0 -93 -76 -145t-220 -52q-142 0 -257 76l50 82q92 -61 213 -61t120 80q0 63 -73 63q-49 0 -97 -37l-71 35l45 145q-262 31 -418 236t-156 561t186 564t478 208q473 0 588 -471l-244 -67q-45 162 -124 242t-222 81q-190 -1 -298 -153t-108 -417t109 -421
t301 -156q145 0 233 86t134 262l241 -55q-119 -489 -583 -504l-21 -71q48 30 116 30t111 -38t43 -103z" />
    <glyph glyph-name="Egrave" unicode="&#xc8;" horiz-adv-x="1271" 
d="M1192 0h-1020v1516h979v-238h-723v-377h530v-227h-530v-441h764v-233zM635 1606l-299 340h272l193 -340h-166z" />
    <glyph glyph-name="Eacute" unicode="&#xc9;" horiz-adv-x="1271" 
d="M1192 0h-1020v1516h979v-238h-723v-377h530v-227h-530v-441h764v-233zM514 1606l193 340h270l-297 -340h-166z" />
    <glyph glyph-name="Ecircumflex" unicode="&#xca;" horiz-adv-x="1271" 
d="M1192 0h-1020v1516h979v-238h-723v-377h530v-227h-530v-441h764v-233zM307 1606l264 340h174l265 -340h-148l-205 172l-204 -172h-146z" />
    <glyph glyph-name="Edieresis" unicode="&#xcb;" horiz-adv-x="1271" 
d="M1192 0h-1020v1516h979v-238h-723v-377h530v-227h-530v-441h764v-233zM350 1599v248h230v-248h-230zM756 1599v248h229v-248h-229z" />
    <glyph glyph-name="Igrave" unicode="&#xcc;" horiz-adv-x="634" 
d="M446 0h-258v1516h258v-1516zM260 1606l-299 340h272l193 -340h-166z" />
    <glyph glyph-name="Iacute" unicode="&#xcd;" horiz-adv-x="634" 
d="M446 0h-258v1516h258v-1516zM225 1606l193 340h270l-297 -340h-166z" />
    <glyph glyph-name="Icircumflex" unicode="&#xce;" horiz-adv-x="634" 
d="M446 0h-258v1516h258v-1516zM-33 1606l264 340h175l264 -340h-148l-205 172l-204 -172h-146z" />
    <glyph glyph-name="Idieresis" unicode="&#xcf;" horiz-adv-x="634" 
d="M446 0h-258v1516h258v-1516zM-2 1599v248h229v-248h-229zM403 1599v248h230v-248h-230z" />
    <glyph glyph-name="Eth" unicode="&#xd0;" horiz-adv-x="1490" 
d="M426 686v-459h201q262 0 385 126q123 125 123 403t-124 400t-388 122h-197v-395h317v-197h-317zM604 0h-432v686h-149v197h149v633h432q373 0 580 -184t207 -572t-209 -574t-578 -186z" />
    <glyph glyph-name="Ntilde" unicode="&#xd1;" horiz-adv-x="1562" 
d="M410 0h-238v1516h260l717 -1082h4v1082h238v-1516h-234l-743 1104h-4v-1104zM948 1591q-74 -1 -167 57t-130 58q-84 0 -84 -111h-141q0 285 213 285q74 0 167 -57t132 -58q84 0 84 111h141q0 -285 -215 -285z" />
    <glyph glyph-name="Ograve" unicode="&#xd2;" horiz-adv-x="1564" 
d="M356 757q0 -263 116 -409t311 -145q196 0 311 146q114 147 114 409t-114 406q-115 144 -311 144q-195 0 -311 -144t-116 -407zM784 -29q-298 0 -492 208t-194 579q0 370 194 578t492 208t490 -208t192 -578t-192 -579q-192 -208 -490 -208zM741 1606l-299 340h273
l192 -340h-166z" />
    <glyph glyph-name="Oacute" unicode="&#xd3;" horiz-adv-x="1564" 
d="M356 757q0 -263 116 -409t311 -145q196 0 311 146q114 147 114 409t-114 406q-115 144 -311 144q-195 0 -311 -144t-116 -407zM784 -29q-298 0 -492 208t-194 579q0 370 194 578t492 208t490 -208t192 -578t-192 -579q-192 -208 -490 -208zM653 1606l193 340h270
l-297 -340h-166z" />
    <glyph glyph-name="Ocircumflex" unicode="&#xd4;" horiz-adv-x="1564" 
d="M356 757q0 -263 116 -409t311 -145q196 0 311 146q114 147 114 409t-114 406q-115 144 -311 144q-195 0 -311 -144t-116 -407zM784 -29q-298 0 -492 208t-194 579q0 370 194 578t492 208t490 -208t192 -578t-192 -579q-192 -208 -490 -208zM430 1606l264 340h174
l265 -340h-148l-205 172l-205 -172h-145z" />
    <glyph glyph-name="Otilde" unicode="&#xd5;" horiz-adv-x="1564" 
d="M356 757q0 -263 116 -409t311 -145q196 0 311 146q114 147 114 409t-114 406q-115 144 -311 144q-195 0 -311 -144t-116 -407zM784 -29q-298 0 -492 208t-194 579q0 370 194 578t492 208t490 -208t192 -578t-192 -579q-192 -208 -490 -208zM934 1591q-74 -1 -167 57
t-130 58q-84 0 -84 -111h-141q0 285 213 285q74 0 167 -57t132 -58q84 0 84 111h141q0 -285 -215 -285z" />
    <glyph glyph-name="Odieresis" unicode="&#xd6;" horiz-adv-x="1564" 
d="M356 757q0 -263 116 -409t311 -145q196 0 311 146q114 147 114 409t-114 406q-115 144 -311 144q-195 0 -311 -144t-116 -407zM784 -29q-298 0 -492 208t-194 579q0 370 194 578t492 208t490 -208t192 -578t-192 -579q-192 -208 -490 -208zM461 1599v248h229v-248h-229z
M866 1599v248h230v-248h-230z" />
    <glyph glyph-name="multiply" unicode="&#xd7;" horiz-adv-x="1314" 
d="M657 510l-335 -338l-150 150l336 333l-336 334l150 148l333 -334l334 334l148 -148l-332 -332l336 -333l-150 -148z" />
    <glyph glyph-name="Oslash" unicode="&#xd8;" horiz-adv-x="1564" 
d="M784 -29q-246 0 -422 142l-137 -164l-129 100l152 182q-150 209 -150 527q0 370 194 578t492 208q248 0 418 -141l137 164l129 -101l-151 -184q150 -205 149 -524q0 -371 -191 -579t-491 -208zM799 193q180 1 298 151t117 414q1 194 -65 329l-641 -788q111 -106 291 -106
zM350 758q0 -191 66 -332l639 788q-109 102 -271 103q-198 1 -316 -147t-118 -412z" />
    <glyph glyph-name="Ugrave" unicode="&#xd9;" horiz-adv-x="1476" 
d="M1325 555q-1 -266 -151 -423t-443 -157t-436 154t-143 424v963h256v-941q0 -369 333 -368q332 0 332 366v943h252v-961zM705 1606l-299 340h272l192 -340h-165z" />
    <glyph glyph-name="Uacute" unicode="&#xda;" horiz-adv-x="1476" 
d="M1325 555q-1 -266 -151 -423t-443 -157t-436 154t-143 424v963h256v-941q0 -369 333 -368q332 0 332 366v943h252v-961zM590 1606l192 340h271l-297 -340h-166z" />
    <glyph glyph-name="Ucircumflex" unicode="&#xdb;" horiz-adv-x="1476" 
d="M1325 555q-1 -266 -151 -423t-443 -157t-436 154t-143 424v963h256v-941q0 -369 333 -368q332 0 332 366v943h252v-961zM385 1606l264 340h174l264 -340h-147l-205 172l-205 -172h-145z" />
    <glyph glyph-name="Udieresis" unicode="&#xdc;" horiz-adv-x="1476" 
d="M1325 555q-1 -266 -151 -423t-443 -157t-436 154t-143 424v963h256v-941q0 -369 333 -368q332 0 332 366v943h252v-961zM418 1599v248h229v-248h-229zM823 1599v248h230v-248h-230z" />
    <glyph glyph-name="Yacute" unicode="&#xdd;" horiz-adv-x="1353" 
d="M805 0h-258v653l-516 863h270l379 -646l377 646h266l-518 -863v-653zM496 1616l192 340h270l-296 -340h-166z" />
    <glyph glyph-name="Thorn" unicode="&#xde;" horiz-adv-x="1361" 
d="M428 1024v-483h270q170 0 249 57t79 184q0 126 -79 184t-251 58h-268zM428 0h-256v1516h256v-252h270q266 -2 427 -113t161 -368t-175 -364q-175 -108 -421 -108h-262v-311z" />
    <glyph glyph-name="germandbls" unicode="&#xdf;" horiz-adv-x="1341" 
d="M1272 408q0 -197 -116 -314t-338 -117q-220 0 -343 132l131 151q92 -86 204 -86t170 66q56 66 56 172q0 160 -118 228t-340 75v182q313 2 313 227q-1 86 -63 133t-185 47t-187 -64q-64 -65 -65 -210v-1030h-250v1022q1 244 139 369t367 125t354 -98t125 -275
q0 -119 -72 -201t-190 -117q174 -20 291 -120t117 -297z" />
    <glyph glyph-name="agrave" unicode="&#xe0;" horiz-adv-x="1157" 
d="M379 -16q-137 0 -222 74t-85 204q0 182 169 296t539 155v32q0 156 -180 156t-364 -147l-123 157q215 197 524 197q211 0 301 -97t90 -296v-449q0 -190 31 -266h-254q-25 78 -25 139q-153 -155 -401 -155zM471 178q178 0 309 125v240q-461 -63 -461 -234q0 -63 41 -97
t111 -34zM559 1202l-299 340h272l193 -340h-166z" />
    <glyph glyph-name="aacute" unicode="&#xe1;" horiz-adv-x="1157" 
d="M379 -16q-137 0 -222 74t-85 204q0 182 169 296t539 155v32q0 156 -180 156t-364 -147l-123 157q215 197 524 197q211 0 301 -97t90 -296v-449q0 -190 31 -266h-254q-25 78 -25 139q-153 -155 -401 -155zM471 178q178 0 309 125v240q-461 -63 -461 -234q0 -63 41 -97
t111 -34zM457 1202l192 340h271l-297 -340h-166z" />
    <glyph glyph-name="acircumflex" unicode="&#xe2;" horiz-adv-x="1157" 
d="M379 -16q-137 0 -222 74t-85 204q0 182 169 296t539 155v32q0 156 -180 156t-364 -147l-123 157q215 197 524 197q211 0 301 -97t90 -296v-449q0 -190 31 -266h-254q-25 78 -25 139q-153 -155 -401 -155zM471 178q178 0 309 125v240q-461 -63 -461 -234q0 -63 41 -97
t111 -34zM233 1202l265 340h174l264 -340h-148l-204 172l-205 -172h-146z" />
    <glyph glyph-name="atilde" unicode="&#xe3;" horiz-adv-x="1157" 
d="M379 -16q-137 0 -222 74t-85 204q0 182 169 296t539 155v32q0 156 -180 156t-364 -147l-123 157q215 197 524 197q211 0 301 -97t90 -296v-449q0 -190 31 -266h-254q-25 78 -25 139q-153 -155 -401 -155zM471 178q178 0 309 125v240q-461 -63 -461 -234q0 -63 41 -97
t111 -34zM737 1188q-74 0 -167 57t-130 58q-84 0 -84 -111h-141q0 285 213 285q74 1 167 -57t132 -58q84 0 84 111h141q0 -285 -215 -285z" />
    <glyph glyph-name="adieresis" unicode="&#xe4;" horiz-adv-x="1157" 
d="M379 -16q-137 0 -222 74t-85 204q0 182 169 296t539 155v32q0 156 -180 156t-364 -147l-123 157q215 197 524 197q211 0 301 -97t90 -296v-449q0 -190 31 -266h-254q-25 78 -25 139q-153 -155 -401 -155zM471 178q178 0 309 125v240q-461 -63 -461 -234q0 -63 41 -97
t111 -34zM272 1196v248h230v-248h-230zM678 1196v248h229v-248h-229z" />
    <glyph glyph-name="aring" unicode="&#xe5;" horiz-adv-x="1157" 
d="M379 -16q-137 0 -222 74t-85 204q0 182 169 296t539 155v32q0 156 -180 156t-364 -147l-123 157q215 197 524 197q211 0 301 -97t90 -296v-449q0 -190 31 -266h-254q-25 78 -25 139q-153 -155 -401 -155zM471 178q178 0 309 125v240q-461 -63 -461 -234q0 -63 41 -97
t111 -34zM595 1290q44 0 72 29q27 29 27 75t-28 76t-71 29q-44 0 -73 -30q-28 -31 -28 -75t28 -74t73 -30zM594 1186q-90 0 -150 60q-59 60 -59 148t59 148q60 60 150 60t149 -58t59 -149q0 -89 -58 -149q-60 -60 -150 -60z" />
    <glyph glyph-name="ae" unicode="&#xe6;" horiz-adv-x="1832" 
d="M469 172q184 0 334 156q-18 59 -23 161v60q-461 -63 -461 -246q0 -63 40 -97t110 -34zM1274 903q-100 1 -172 -61t-88 -193h508q-23 254 -248 254zM388 -23q-146 0 -231 74t-85 205q0 377 708 457v32q0 156 -180 156t-364 -147l-123 157q215 197 524 197q133 0 204 -44
t103 -126q49 74 141 122t191 48q205 0 341 -140t136 -448v-49h-743q8 -149 86 -221t191 -72t183 31t136 96l133 -131q-180 -197 -468 -197t-415 222q-109 -119 -216 -171q-106 -52 -252 -51z" />
    <glyph glyph-name="ccedilla" unicode="&#xe7;" horiz-adv-x="1126" 
d="M862 -211q0 -93 -76 -145t-220 -52q-142 0 -257 76l49 82q92 -61 213 -61t121 80q0 63 -74 63q-49 0 -96 -37l-71 35l49 158q-180 27 -299 168t-119 387q0 338 232 485q128 80 301 80t277 -85t161 -232l-211 -76q-38 109 -96 157t-160 48t-178 -96q-74 -96 -74 -276
q0 -181 68 -284q69 -102 192 -102q174 0 256 211l207 -76q-135 -305 -443 -315l-22 -82q48 30 116 30t111 -38t43 -103z" />
    <glyph glyph-name="egrave" unicode="&#xe8;" horiz-adv-x="1155" 
d="M596 903q-100 1 -172 -61t-88 -193h508q-23 254 -248 254zM604 -23q-223 -1 -374 141t-150 425q0 147 48 261t127 177q159 127 355 127q195 0 330 -140t135 -448v-59h-743q8 -141 86 -212t192 -71t183 31q70 31 135 96l133 -131q-178 -197 -457 -197zM541 1202l-299 340
h272l193 -340h-166z" />
    <glyph glyph-name="eacute" unicode="&#xe9;" horiz-adv-x="1155" 
d="M596 903q-100 1 -172 -61t-88 -193h508q-23 254 -248 254zM604 -23q-223 -1 -374 141t-150 425q0 147 48 261t127 177q159 127 355 127q195 0 330 -140t135 -448v-59h-743q8 -141 86 -212t192 -71t183 31q70 31 135 96l133 -131q-178 -197 -457 -197zM459 1202l192 340
h271l-297 -340h-166z" />
    <glyph glyph-name="ecircumflex" unicode="&#xea;" horiz-adv-x="1155" 
d="M596 903q-100 1 -172 -61t-88 -193h508q-23 254 -248 254zM604 -23q-223 -1 -374 141t-150 425q0 147 48 261t127 177q159 127 355 127q195 0 330 -140t135 -448v-59h-743q8 -141 86 -212t192 -71t183 31q70 31 135 96l133 -131q-178 -197 -457 -197zM233 1202l265 340
h174l264 -340h-148l-204 172l-205 -172h-146z" />
    <glyph glyph-name="edieresis" unicode="&#xeb;" horiz-adv-x="1155" 
d="M596 903q-100 1 -172 -61t-88 -193h508q-23 254 -248 254zM604 -23q-223 -1 -374 141t-150 425q0 147 48 261t127 177q159 127 355 127q195 0 330 -140t135 -448v-59h-743q8 -141 86 -212t192 -71t183 31q70 31 135 96l133 -131q-178 -197 -457 -197zM262 1196v248h230
v-248h-230zM668 1196v248h229v-248h-229z" />
    <glyph glyph-name="igrave" unicode="&#xec;" horiz-adv-x="557" 
d="M406 0h-254v1087h254v-1087zM215 1202l-299 340h272l193 -340h-166z" />
    <glyph glyph-name="iacute" unicode="&#xed;" horiz-adv-x="557" 
d="M406 0h-254v1087h254v-1087zM195 1202l192 340h270l-297 -340h-165z" />
    <glyph glyph-name="icircumflex" unicode="&#xee;" horiz-adv-x="557" 
d="M406 0h-254v1087h254v-1087zM-72 1202l265 340h174l264 -340h-148l-204 172l-205 -172h-146z" />
    <glyph glyph-name="idieresis" unicode="&#xef;" horiz-adv-x="557" 
d="M406 0h-254v1087h254v-1087zM-41 1196v248h229v-248h-229zM365 1196v248h229v-248h-229z" />
    <glyph glyph-name="eth" unicode="&#xf0;" horiz-adv-x="1218" 
d="M610 831q-128 -1 -202 -83t-74 -238t72 -242t203 -86q130 0 203 85t73 240t-73 239t-202 85zM610 -23q-232 -1 -380 143t-148 388t135 381t340 137q84 0 173 -41t144 -113q-41 178 -143 304l-182 -78l-74 139l152 66q-51 51 -135 110l120 143q117 -72 201 -155l182 82
l74 -142l-149 -67q217 -293 217 -735q0 -258 -148 -410t-379 -152z" />
    <glyph glyph-name="ntilde" unicode="&#xf1;" horiz-adv-x="1234" 
d="M424 0h-252v1087h252v-174q170 195 389 195q154 0 238 -80t84 -237v-791h-252v719q0 180 -164 180q-143 0 -295 -141v-758zM780 1188q-74 0 -167 57t-130 58q-84 0 -84 -111h-141q0 285 213 285q74 1 167 -57t132 -58q84 0 84 111h141q0 -285 -215 -285z" />
    <glyph glyph-name="ograve" unicode="&#xf2;" horiz-adv-x="1220" 
d="M608 188q137 0 208 92t71 258q0 165 -70 260t-206 95t-207 -92q-70 -92 -70 -256q0 -165 68 -261t206 -96zM610 -23q-218 -1 -374 143t-156 424t154 422q155 142 375 142t376 -142t156 -422t-156 -424t-375 -143zM569 1202l-299 340h273l192 -340h-166z" />
    <glyph glyph-name="oacute" unicode="&#xf3;" horiz-adv-x="1220" 
d="M608 188q137 0 208 92t71 258q0 165 -70 260t-206 95t-207 -92q-70 -92 -70 -256q0 -165 68 -261t206 -96zM610 -23q-218 -1 -374 143t-156 424t154 422q155 142 375 142t376 -142t156 -422t-156 -424t-375 -143zM483 1202l193 340h270l-297 -340h-166z" />
    <glyph glyph-name="ocircumflex" unicode="&#xf4;" horiz-adv-x="1220" 
d="M608 188q137 0 208 92t71 258q0 165 -70 260t-206 95t-207 -92q-70 -92 -70 -256q0 -165 68 -261t206 -96zM610 -23q-218 -1 -374 143t-156 424t154 422q155 142 375 142t376 -142t156 -422t-156 -424t-375 -143zM258 1202l264 340h174l265 -340h-148l-205 172l-205 -172
h-145z" />
    <glyph glyph-name="otilde" unicode="&#xf5;" horiz-adv-x="1220" 
d="M608 188q137 0 208 92t71 258q0 165 -70 260t-206 95t-207 -92q-70 -92 -70 -256q0 -165 68 -261t206 -96zM610 -23q-218 -1 -374 143t-156 424t154 422q155 142 375 142t376 -142t156 -422t-156 -424t-375 -143zM766 1188q-74 0 -167 57t-130 58q-84 0 -84 -111h-141
q0 285 213 285q74 1 167 -57t132 -58q84 0 84 111h141q0 -285 -215 -285z" />
    <glyph glyph-name="odieresis" unicode="&#xf6;" horiz-adv-x="1220" 
d="M608 188q137 0 208 92t71 258q0 165 -70 260t-206 95t-207 -92q-70 -92 -70 -256q0 -165 68 -261t206 -96zM610 -23q-218 -1 -374 143t-156 424t154 422q155 142 375 142t376 -142t156 -422t-156 -424t-375 -143zM289 1196v248h229v-248h-229zM694 1196v248h230v-248
h-230z" />
    <glyph glyph-name="divide" unicode="&#xf7;" horiz-adv-x="1314" 
d="M772 207h-235v215h235v-215zM1180 598h-1043v203h1043v-203zM772 975h-235v215h235v-215z" />
    <glyph glyph-name="oslash" unicode="&#xf8;" horiz-adv-x="1220" 
d="M1141 543q0 -279 -156 -422t-375 -144q-170 0 -301 84l-121 -139l-106 98l119 138q-121 152 -121 385q0 281 154 423q155 142 376 142q178 0 308 -88l114 135l109 -100l-115 -133q115 -147 115 -379zM610 174q135 0 209 98t74 271q0 112 -33 192l-414 -508
q66 -53 164 -53zM610 905q-135 0 -209 -97t-73 -265q0 -117 37 -203l413 510q-68 55 -168 55z" />
    <glyph glyph-name="ugrave" unicode="&#xf9;" horiz-adv-x="1234" 
d="M442 -20q-145 0 -229 85t-84 242v780h254v-720q0 -176 162 -177q139 0 295 142v755h254v-1087h-254v147q-158 -167 -398 -167zM580 1202l-299 340h272l192 -340h-165z" />
    <glyph glyph-name="uacute" unicode="&#xfa;" horiz-adv-x="1234" 
d="M442 -20q-145 0 -229 85t-84 242v780h254v-720q0 -176 162 -177q139 0 295 142v755h254v-1087h-254v147q-158 -167 -398 -167zM477 1202l193 340h270l-297 -340h-166z" />
    <glyph glyph-name="ucircumflex" unicode="&#xfb;" horiz-adv-x="1234" 
d="M442 -20q-145 0 -229 85t-84 242v780h254v-720q0 -176 162 -177q139 0 295 142v755h254v-1087h-254v147q-158 -167 -398 -167zM260 1202l264 340h174l265 -340h-148l-205 172l-204 -172h-146z" />
    <glyph glyph-name="udieresis" unicode="&#xfc;" horiz-adv-x="1234" 
d="M442 -20q-145 0 -229 85t-84 242v780h254v-720q0 -176 162 -177q139 0 295 142v755h254v-1087h-254v147q-158 -167 -398 -167zM293 1196v248h229v-248h-229zM698 1196v248h230v-248h-230z" />
    <glyph glyph-name="yacute" unicode="&#xfd;" horiz-adv-x="1120" 
d="M264 -422q-146 0 -266 33l57 203q85 -23 169 -23t122 29t66 94l30 80l-417 1093h262l280 -792h4l279 792h250l-463 -1206q-57 -155 -142 -229t-231 -74zM379 1202l192 340h271l-297 -340h-166z" />
    <glyph glyph-name="thorn" unicode="&#xfe;" horiz-adv-x="1251" 
d="M393 -410h-252v1926h252v-572q137 164 338 164t320 -144t119 -418t-126 -418q-125 -144 -327 -144t-324 137v-531zM644 184q146 0 210 87t64 265t-69 267q-69 90 -205 90t-251 -137v-437q105 -135 251 -135z" />
    <glyph glyph-name="ydieresis" unicode="&#xff;" horiz-adv-x="1120" 
d="M264 -422q-146 0 -266 33l57 203q85 -23 169 -23t122 29t66 94l30 80l-417 1093h262l280 -792h4l279 792h250l-463 -1206q-57 -155 -142 -229t-231 -74zM248 1196v248h229v-248h-229zM653 1196v248h230v-248h-230z" />
    <glyph glyph-name="Amacron" unicode="&#x100;" horiz-adv-x="1427" 
d="M291 0h-240l537 1522h252l536 -1522h-262l-123 360h-575zM705 1200l-211 -614h421l-206 614h-4zM393 1599v187h639v-187h-639z" />
    <glyph glyph-name="amacron" unicode="&#x101;" horiz-adv-x="1157" 
d="M379 -16q-137 0 -222 74t-85 204q0 182 169 296t539 155v32q0 156 -180 156t-364 -147l-123 157q215 197 524 197q211 0 301 -97t90 -296v-449q0 -190 31 -266h-254q-25 78 -25 139q-153 -155 -401 -155zM471 178q178 0 309 125v240q-461 -63 -461 -234q0 -63 41 -97
t111 -34zM258 1196v186h639v-186h-639z" />
    <glyph glyph-name="Abreve" unicode="&#x102;" horiz-adv-x="1427" 
d="M291 0h-240l537 1522h252l536 -1522h-262l-123 360h-575zM705 1200l-211 -614h421l-206 614h-4zM713 1589q-154 -1 -243 99t-97 264h141q23 -195 200 -195t199 195h140q-8 -164 -97 -264t-243 -99z" />
    <glyph glyph-name="abreve" unicode="&#x103;" horiz-adv-x="1157" 
d="M379 -16q-137 0 -222 74t-85 204q0 182 169 296t539 155v32q0 156 -180 156t-364 -147l-123 157q215 197 524 197q211 0 301 -97t90 -296v-449q0 -190 31 -266h-254q-25 78 -25 139q-153 -155 -401 -155zM471 178q178 0 309 125v240q-461 -63 -461 -234q0 -63 41 -97
t111 -34zM578 1186q-154 0 -243 99t-97 263h141q23 -194 200 -194t199 194h140q-8 -164 -97 -263t-243 -99z" />
    <glyph glyph-name="Aogonek" unicode="&#x104;" horiz-adv-x="1427" 
d="M1159 -383q-102 0 -158 42q-55 42 -55 116q0 115 166 229l-121 356h-575l-125 -360h-240l537 1522h252l536 -1522h-125q-127 -94 -127 -186q0 -86 99 -86q78 0 180 49l51 -80q-137 -80 -295 -80zM705 1200l-211 -614h421l-206 614h-4z" />
    <glyph glyph-name="aogonek" unicode="&#x105;" horiz-adv-x="1157" 
d="M848 -383q-102 0 -158 42q-55 42 -55 116q0 117 168 229q-23 78 -23 135q-154 -156 -401 -155q-137 0 -222 74t-85 204q0 182 169 296t539 155v32q0 156 -180 156t-364 -147l-123 157q215 197 524 197q211 0 301 -97t90 -296v-449q0 -190 31 -266h-119
q-127 -94 -127 -186q0 -86 98 -86q78 0 181 49l51 -80q-137 -80 -295 -80zM471 178q178 0 309 125v240q-461 -63 -461 -234q0 -63 41 -97t111 -34z" />
    <glyph glyph-name="Cacute" unicode="&#x106;" horiz-adv-x="1468" 
d="M764 -29q-301 0 -483 205q-183 205 -183 581q0 375 186 581t480 206q473 0 588 -471l-244 -69q-45 158 -123 230t-223 73q-193 -1 -299 -143q-107 -142 -107 -405t109 -409t301 -145q147 0 234 78t130 247l244 -55q-123 -504 -610 -504zM604 1606l193 340h270l-297 -340
h-166z" />
    <glyph glyph-name="cacute" unicode="&#x107;" horiz-adv-x="1116" 
d="M588 -23q-209 -1 -359 143t-149 423q0 149 47 263t125 177q155 125 345 125q191 0 295 -86t161 -231l-213 -76q-63 182 -242 182q-116 0 -190 -85t-74 -263t68 -271t192 -94q92 0 151 40t103 149l209 -76q-143 -320 -469 -320zM455 1202l192 340h271l-297 -340h-166z" />
    <glyph glyph-name="Ccircumflex" unicode="&#x108;" horiz-adv-x="1468" 
d="M764 -29q-301 0 -483 205q-183 205 -183 581q0 375 186 581t480 206q473 0 588 -471l-244 -69q-45 158 -123 230t-223 73q-193 -1 -299 -143q-107 -142 -107 -405t109 -409t301 -145q147 0 234 78t130 247l244 -55q-123 -504 -610 -504zM406 1606l264 340h174l264 -340
h-147l-205 172l-205 -172h-145z" />
    <glyph glyph-name="ccircumflex" unicode="&#x109;" horiz-adv-x="1116" 
d="M588 -23q-209 -1 -359 143t-149 423q0 149 47 263t125 177q155 125 345 125q191 0 295 -86t161 -231l-213 -76q-63 182 -242 182q-116 0 -190 -85t-74 -263t68 -271t192 -94q92 0 151 40t103 149l209 -76q-143 -320 -469 -320zM221 1202l264 340h174l265 -340h-148
l-205 172l-204 -172h-146z" />
    <glyph glyph-name="Cdotaccent" unicode="&#x10a;" horiz-adv-x="1468" 
d="M764 -29q-301 0 -483 205q-183 205 -183 581q0 375 186 581t480 206q473 0 588 -471l-244 -69q-45 158 -123 230t-223 73q-193 -1 -299 -143q-107 -142 -107 -405t109 -409t301 -145q147 0 234 78t130 247l244 -55q-123 -504 -610 -504zM618 1622v227h271v-227h-271z" />
    <glyph glyph-name="cdotaccent" unicode="&#x10b;" horiz-adv-x="1116" 
d="M588 -23q-209 -1 -359 143t-149 423q0 149 47 263t125 177q155 125 345 125q191 0 295 -86t161 -231l-213 -76q-63 182 -242 182q-116 0 -190 -85t-74 -263t68 -271t192 -94q92 0 151 40t103 149l209 -76q-143 -320 -469 -320zM442 1219v227h271v-227h-271z" />
    <glyph glyph-name="Ccaron" unicode="&#x10c;" horiz-adv-x="1468" 
d="M764 -29q-301 0 -483 205q-183 205 -183 581q0 375 186 581t480 206q473 0 588 -471l-244 -69q-45 158 -123 230t-223 73q-193 -1 -299 -143q-107 -142 -107 -405t109 -409t301 -145q147 0 234 78t130 247l244 -55q-123 -504 -610 -504zM645 1612l-264 340h147l205 -172
l205 172h145l-264 -340h-174z" />
    <glyph glyph-name="ccaron" unicode="&#x10d;" horiz-adv-x="1116" 
d="M588 -23q-209 -1 -359 143t-149 423q0 149 47 263t125 177q155 125 345 125q191 0 295 -86t161 -231l-213 -76q-63 182 -242 182q-116 0 -190 -85t-74 -263t68 -271t192 -94q92 0 151 40t103 149l209 -76q-143 -320 -469 -320zM471 1208l-264 340h147l205 -172l205 172
h145l-264 -340h-174z" />
    <glyph glyph-name="Dcaron" unicode="&#x10e;" horiz-adv-x="1490" 
d="M428 1278v-1049h199q262 0 385 125q123 124 123 402t-124 400t-388 122h-195zM604 0h-432v1516h432q373 0 580 -184t207 -571q0 -389 -209 -575t-578 -186zM657 1612l-264 340h148l204 -172l205 172h146l-265 -340h-174z" />
    <glyph glyph-name="dcaron" unicode="&#x10f;" horiz-adv-x="1251" 
d="M517 -16q-199 0 -317 142t-118 416t125 420t327 146t324 -137v545h252v-1250q0 -193 33 -266h-260q-25 53 -25 147q-141 -163 -341 -163zM594 190q150 0 264 138v436q-104 135 -250 135t-210 -90t-64 -267q0 -176 68 -264t192 -88zM1206 1403v237h244v-206l-109 -242
h-102l64 211h-97z" />
    <glyph glyph-name="Dcroat" unicode="&#x110;" horiz-adv-x="1490" 
d="M426 686v-459h201q262 0 385 126q123 125 123 403t-124 400t-388 122h-197v-395h317v-197h-317zM604 0h-432v686h-149v197h149v633h432q373 0 580 -184t207 -572t-209 -574t-578 -186z" />
    <glyph glyph-name="dcroat" unicode="&#x111;" horiz-adv-x="1251" 
d="M516 -18q-198 0 -316 141t-118 415t120 421q120 149 324 149t332 -166v256h-196v168h196v150h252v-150h150v-168h-150v-932q0 -193 33 -266h-260q-25 53 -25 164q-143 -182 -342 -182zM600 176q127 0 258 137v455q-135 131 -261 131t-195 -91q-68 -91 -68 -266t69 -271
q70 -95 197 -95z" />
    <glyph glyph-name="Emacron" unicode="&#x112;" horiz-adv-x="1271" 
d="M1192 0h-1020v1516h979v-238h-723v-377h530v-227h-530v-441h764v-233zM356 1599v187h639v-187h-639z" />
    <glyph glyph-name="emacron" unicode="&#x113;" horiz-adv-x="1155" 
d="M596 903q-100 1 -172 -61t-88 -193h508q-23 254 -248 254zM604 -23q-223 -1 -374 141t-150 425q0 147 48 261t127 177q159 127 355 127q195 0 330 -140t135 -448v-59h-743q8 -141 86 -212t192 -71t183 31q70 31 135 96l133 -131q-178 -197 -457 -197zM256 1196v186h639
v-186h-639z" />
    <glyph glyph-name="Ebreve" unicode="&#x114;" horiz-adv-x="1271" 
d="M1192 0h-1020v1516h979v-238h-723v-377h530v-227h-530v-441h764v-233zM645 1587q-154 -1 -243 99t-97 264h141q23 -195 200 -195t200 195h139q-8 -164 -97 -264t-243 -99z" />
    <glyph glyph-name="ebreve" unicode="&#x115;" horiz-adv-x="1155" 
d="M596 903q-100 1 -172 -61t-88 -193h508q-23 254 -248 254zM604 -23q-223 -1 -374 141t-150 425q0 147 48 261t127 177q159 127 355 127q195 0 330 -140t135 -448v-59h-743q8 -141 86 -212t192 -71t183 31q70 31 135 96l133 -131q-178 -197 -457 -197zM586 1186
q-154 0 -243 99t-97 263h141q23 -194 200 -194t199 194h140q-8 -164 -97 -263t-243 -99z" />
    <glyph glyph-name="Edotaccent" unicode="&#x116;" horiz-adv-x="1271" 
d="M1192 0h-1020v1516h979v-238h-723v-377h530v-227h-530v-441h764v-233zM541 1622v227h270v-227h-270z" />
    <glyph glyph-name="edotaccent" unicode="&#x117;" horiz-adv-x="1155" 
d="M596 903q-100 1 -172 -61t-88 -193h508q-23 254 -248 254zM604 -23q-223 -1 -374 141t-150 425q0 147 48 261t127 177q159 127 355 127q195 0 330 -140t135 -448v-59h-743q8 -141 86 -212t192 -71t183 31q70 31 135 96l133 -131q-178 -197 -457 -197zM440 1219v227h271
v-227h-271z" />
    <glyph glyph-name="Eogonek" unicode="&#x118;" horiz-adv-x="1271" 
d="M938 -383q-102 0 -158 42q-55 42 -55 116q0 117 162 225h-715v1516h979v-238h-723v-377h530v-227h-530v-441h764v-233h-162q-127 -94 -127 -186q0 -86 98 -86q78 0 181 49l51 -80q-137 -80 -295 -80z" />
    <glyph glyph-name="eogonek" unicode="&#x119;" horiz-adv-x="1155" 
d="M596 903q-100 1 -172 -61t-88 -193h508q-23 254 -248 254zM647 -383q-102 0 -158 42q-55 42 -55 116q0 102 133 205q-211 12 -349 153t-138 410q0 147 48 261t127 177q159 127 355 127q195 0 330 -140t135 -448v-59h-743q8 -141 86 -212t192 -71t183 31q70 31 135 96
l133 -131q-137 -154 -338 -186q-111 -86 -111 -173t99 -87q78 0 180 49l51 -80q-137 -80 -295 -80z" />
    <glyph glyph-name="Ecaron" unicode="&#x11a;" horiz-adv-x="1271" 
d="M1192 0h-1020v1516h979v-238h-723v-377h530v-227h-530v-441h764v-233zM588 1612l-264 340h147l205 -172l205 172h145l-264 -340h-174z" />
    <glyph glyph-name="ecaron" unicode="&#x11b;" horiz-adv-x="1155" 
d="M596 903q-100 1 -172 -61t-88 -193h508q-23 254 -248 254zM604 -23q-223 -1 -374 141t-150 425q0 147 48 261t127 177q159 127 355 127q195 0 330 -140t135 -448v-59h-743q8 -141 86 -212t192 -71t183 31q70 31 135 96l133 -131q-178 -197 -457 -197zM489 1208l-264 340
h148l205 -172l204 172h146l-264 -340h-175z" />
    <glyph glyph-name="Gcircumflex" unicode="&#x11c;" horiz-adv-x="1525" 
d="M745 -29q-315 0 -481 216q-166 215 -166 577t182 571t486 209q463 0 588 -477l-238 -63q-49 166 -131 234t-226 69q-144 0 -265 -108q-62 -56 -100 -167t-38 -262q0 -295 119 -432t286 -137t261 89t106 253h-305v207h551v-750h-211v219h-4q-43 -98 -149 -173t-265 -75z
M414 1606l264 340h174l264 -340h-147l-205 172l-205 -172h-145z" />
    <glyph glyph-name="gcircumflex" unicode="&#x11d;" horiz-adv-x="1218" 
d="M258 -113q0 -71 80 -99t234 -28t236 34q81 34 81 93t-56 85t-221 36l-188 12q-31 0 -66 7q-100 -45 -100 -140zM551 -422q-524 0 -524 266q0 160 178 230q-84 43 -84 133q0 111 147 199q-172 109 -172 313q0 169 124 279t331 110t336 -115q117 92 270 107v-205
q-98 0 -190 -29q39 -61 39 -147q0 -175 -122 -281t-331 -106q-68 0 -152 22q-55 -30 -55 -66t27 -49t98 -20l193 -12q240 -14 344 -84q104 -69 104 -223t-150 -238t-411 -84zM556 506q105 0 163 53q57 53 57 153t-57 154t-163 54t-164 -54t-58 -154q0 -99 58 -153
q59 -53 164 -53zM209 1202l264 340h174l264 -340h-147l-205 172l-205 -172h-145z" />
    <glyph glyph-name="Gbreve" unicode="&#x11e;" horiz-adv-x="1525" 
d="M745 -29q-315 0 -481 216q-166 215 -166 577t182 571t486 209q463 0 588 -477l-238 -63q-49 166 -131 234t-226 69q-144 0 -265 -108q-62 -56 -100 -167t-38 -262q0 -295 119 -432t286 -137t261 89t106 253h-305v207h551v-750h-211v219h-4q-43 -98 -149 -173t-265 -75z
M762 1589q-154 -1 -243 99t-97 264h141q23 -195 200 -195t200 195h139q-8 -164 -97 -264t-243 -99z" />
    <glyph glyph-name="gbreve" unicode="&#x11f;" horiz-adv-x="1218" 
d="M258 -113q0 -71 80 -99t234 -28t236 34q81 34 81 93t-56 85t-221 36l-188 12q-31 0 -66 7q-100 -45 -100 -140zM551 -422q-524 0 -524 266q0 160 178 230q-84 43 -84 133q0 111 147 199q-172 109 -172 313q0 169 124 279t331 110t336 -115q117 92 270 107v-205
q-98 0 -190 -29q39 -61 39 -147q0 -175 -122 -281t-331 -106q-68 0 -152 22q-55 -30 -55 -66t27 -49t98 -20l193 -12q240 -14 344 -84q104 -69 104 -223t-150 -238t-411 -84zM556 506q105 0 163 53q57 53 57 153t-57 154t-163 54t-164 -54t-58 -154q0 -99 58 -153
q59 -53 164 -53zM575 1186q-155 0 -243 99t-96 263h141q23 -194 199 -194t200 194h139q-8 -164 -97 -263t-243 -99z" />
    <glyph glyph-name="Gdotaccent" unicode="&#x120;" horiz-adv-x="1525" 
d="M745 -29q-315 0 -481 216q-166 215 -166 577t182 571t486 209q463 0 588 -477l-238 -63q-49 166 -131 234t-226 69q-144 0 -265 -108q-62 -56 -100 -167t-38 -262q0 -295 119 -432t286 -137t261 89t106 253h-305v207h551v-750h-211v219h-4q-43 -98 -149 -173t-265 -75z
M621 1622v227h270v-227h-270z" />
    <glyph glyph-name="gdotaccent" unicode="&#x121;" horiz-adv-x="1218" 
d="M258 -113q0 -71 80 -99t234 -28t236 34q81 34 81 93t-56 85t-221 36l-188 12q-31 0 -66 7q-100 -45 -100 -140zM551 -422q-524 0 -524 266q0 160 178 230q-84 43 -84 133q0 111 147 199q-172 109 -172 313q0 169 124 279t331 110t336 -115q117 92 270 107v-205
q-98 0 -190 -29q39 -61 39 -147q0 -175 -122 -281t-331 -106q-68 0 -152 22q-55 -30 -55 -66t27 -49t98 -20l193 -12q240 -14 344 -84q104 -69 104 -223t-150 -238t-411 -84zM556 506q105 0 163 53q57 53 57 153t-57 154t-163 54t-164 -54t-58 -154q0 -99 58 -153
q59 -53 164 -53zM424 1219v227h270v-227h-270z" />
    <glyph glyph-name="Gcommaaccent" unicode="&#x122;" horiz-adv-x="1525" 
d="M639 -338v246h252v-215l-113 -248h-106l65 217h-98zM745 -29q-315 0 -481 216q-166 215 -166 577t182 571t486 209q463 0 588 -477l-238 -63q-49 166 -131 234t-226 69q-144 0 -265 -108q-62 -56 -100 -167t-38 -262q0 -295 119 -432t286 -137t261 89t106 253h-305v207
h551v-750h-211v219h-4q-43 -98 -149 -173t-265 -75z" />
    <glyph glyph-name="gcommaaccent" unicode="&#x123;" horiz-adv-x="1218" 
d="M258 -113q0 -71 80 -99t234 -28t236 34q81 34 81 93t-56 85t-221 36l-188 12q-31 0 -66 7q-100 -45 -100 -140zM551 -422q-524 0 -524 266q0 160 178 230q-84 43 -84 133q0 111 147 199q-172 109 -172 313q0 169 124 279t331 110t336 -115q117 92 270 107v-205
q-98 0 -190 -29q39 -61 39 -147q0 -175 -122 -281t-331 -106q-68 0 -152 22q-55 -30 -55 -66t27 -49t98 -20l193 -12q240 -14 344 -84q104 -69 104 -223t-150 -238t-411 -84zM556 506q105 0 163 53q57 53 57 153t-57 154t-163 54t-164 -54t-58 -154q0 -99 58 -153
q59 -53 164 -53zM451 1196v215l110 248h107l-66 -217h100v-246h-251z" />
    <glyph glyph-name="Hcircumflex" unicode="&#x124;" horiz-adv-x="1544" 
d="M428 0h-256v1516h256v-605h688v605h256v-1516h-256v674h-688v-674zM420 1606l264 340h174l264 -340h-147l-205 172l-205 -172h-145z" />
    <glyph glyph-name="hcircumflex" unicode="&#x125;" horiz-adv-x="1234" 
d="M395 0h-254v1516h254v-576q158 168 398 168q145 0 229 -85t84 -243v-780h-254v717q0 176 -162 176q-139 0 -295 -141v-752zM-86 1606l264 340h174l264 -340h-147l-205 172l-205 -172h-145z" />
    <glyph glyph-name="Hbar" unicode="&#x126;" horiz-adv-x="1544" 
d="M428 674v-674h-256v1094h-149v196h149v226h256v-226h688v226h256v-226h150v-196h-150v-1094h-256v674h-688zM428 911h688v183h-688v-183z" />
    <glyph glyph-name="hbar" unicode="&#x127;" horiz-adv-x="1234" 
d="M395 0h-254v1198h-149v168h149v150h254v-150h195v-168h-195v-258q158 168 398 168q145 0 229 -85t84 -243v-780h-254v717q0 176 -162 176q-139 0 -295 -141v-752z" />
    <glyph glyph-name="Itilde" unicode="&#x128;" horiz-adv-x="634" 
d="M446 0h-258v1516h258v-1516zM473 1591q-74 -1 -167 57t-130 58q-84 0 -84 -111h-141q0 285 213 285q74 0 167 -57t132 -58q84 0 84 111h141q0 -285 -215 -285z" />
    <glyph glyph-name="itilde" unicode="&#x129;" horiz-adv-x="557" 
d="M406 0h-254v1087h254v-1087zM434 1188q-74 0 -167 57t-130 58q-84 0 -84 -111h-141q0 285 213 285q74 1 167 -57t132 -58q84 0 84 111h141q0 -285 -215 -285z" />
    <glyph glyph-name="Imacron" unicode="&#x12a;" horiz-adv-x="634" 
d="M446 0h-258v1516h258v-1516zM-2 1599v187h639v-187h-639z" />
    <glyph glyph-name="imacron" unicode="&#x12b;" horiz-adv-x="557" 
d="M406 0h-254v1087h254v-1087zM-41 1196v186h639v-186h-639z" />
    <glyph glyph-name="Ibreve" unicode="&#x12c;" horiz-adv-x="634" 
d="M446 0h-258v1516h258v-1516zM317 1587q-155 -1 -243 99t-97 264h142q23 -195 199 -195t200 195h139q-8 -164 -97 -264t-243 -99z" />
    <glyph glyph-name="ibreve" unicode="&#x12d;" horiz-adv-x="557" 
d="M406 0h-254v1087h254v-1087zM279 1186q-154 0 -243 99t-97 263h141q23 -194 200 -194t199 194h139q-8 -164 -96 -263t-243 -99z" />
    <glyph glyph-name="Iogonek" unicode="&#x12e;" horiz-adv-x="634" 
d="M233 -383q-102 0 -157 42t-56 116q0 117 168 229v1512h258v-1516h-120q-127 -94 -127 -186q0 -86 98 -86q78 0 180 49l51 -80q-137 -80 -295 -80z" />
    <glyph glyph-name="iogonek" unicode="&#x12f;" horiz-adv-x="557" 
d="M197 -383q-102 0 -158 42q-55 42 -55 116q0 117 168 229v1083h254v-1087h-117q-127 -94 -127 -186q0 -86 98 -86q78 0 180 49l52 -80q-137 -80 -295 -80zM408 1276h-258v219h258v-219z" />
    <glyph glyph-name="Idotaccent" unicode="&#x130;" horiz-adv-x="634" 
d="M446 0h-258v1516h258v-1516zM182 1622v227h271v-227h-271z" />
    <glyph glyph-name="dotlessi" unicode="&#x131;" horiz-adv-x="557" 
d="M406 0h-254v1087h254v-1087z" />
    <glyph glyph-name="IJ" unicode="&#x132;" horiz-adv-x="1617" 
d="M1468 426q0 -213 -122 -331t-358 -118t-398 175l160 157q108 -109 228 -109t177 58q57 57 57 203v1061h256v-1096zM446 0h-258v1516h258v-1516z" />
    <glyph glyph-name="ij" unicode="&#x133;" horiz-adv-x="1114" 
d="M659 -408q-104 0 -153 13v176q37 -8 82 -8q121 0 121 137v1184h254v-1223q0 -129 -65 -204t-239 -75zM406 0h-254v1087h254v-1087zM408 1276h-258v219h258v-219zM965 1282h-258v219h258v-219z" />
    <glyph glyph-name="Jcircumflex" unicode="&#x134;" horiz-adv-x="1064" 
d="M915 420q1 -213 -121 -331t-358 -118t-399 174l160 158q109 -109 229 -109t176 58q57 57 57 203v1061h256v-1096zM434 1606l264 340h174l265 -340h-148l-205 172l-204 -172h-146z" />
    <glyph glyph-name="jcircumflex" unicode="&#x135;" horiz-adv-x="557" 
d="M102 -414q-113 0 -153 11v178q31 -10 84 -11q121 0 121 138v1185h252v-1224q0 -129 -65 -203t-239 -74zM-72 1202l265 340h174l264 -340h-148l-204 172l-205 -172h-146z" />
    <glyph glyph-name="Kcommaaccent" unicode="&#x136;" horiz-adv-x="1429" 
d="M590 -338v246h252v-215l-113 -248h-106l65 217h-98zM428 0h-256v1516h256v-705l596 705h303l-516 -584l580 -932h-293l-455 735l-215 -237v-498z" />
    <glyph glyph-name="kcommaaccent" unicode="&#x137;" horiz-adv-x="1153" 
d="M451 -338v246h251v-215l-112 -248h-107l66 217h-98zM393 0h-252v1516h252v-904l412 475h276l-354 -397l385 -690h-264l-281 504l-174 -191v-313z" />
    <glyph glyph-name="kgreenlandic" unicode="&#x138;" horiz-adv-x="1153" 
d="M141 0v1087h252v-475l412 475h276l-354 -397l385 -690h-264l-281 506l-174 -193v-313h-252z" />
    <glyph glyph-name="Lacute" unicode="&#x139;" horiz-adv-x="1183" 
d="M1126 0h-954v1516h256v-1283h698v-233zM217 1606l193 340h270l-297 -340h-166z" />
    <glyph glyph-name="lacute" unicode="&#x13a;" horiz-adv-x="557" 
d="M406 0h-254v1516h254v-1516zM190 1606l193 340h270l-297 -340h-166z" />
    <glyph glyph-name="Lcommaaccent" unicode="&#x13b;" horiz-adv-x="1183" 
d="M467 -338v246h252v-215l-113 -248h-106l65 217h-98zM1126 0h-954v1516h256v-1283h698v-233z" />
    <glyph glyph-name="lcommaaccent" unicode="&#x13c;" horiz-adv-x="557" 
d="M156 -338v246h252v-215l-113 -248h-107l66 217h-98zM406 0h-254v1516h254v-1516z" />
    <glyph glyph-name="Lcaron" unicode="&#x13d;" horiz-adv-x="1183" 
d="M639 1270v246h252v-216l-113 -247h-106l65 217h-98zM1126 0h-954v1516h256v-1283h698v-233z" />
    <glyph glyph-name="lcaron" unicode="&#x13e;" horiz-adv-x="557" 
d="M406 0h-254v1516h254v-1516zM498 1403v237h243v-206l-108 -242h-103l64 211h-96z" />
    <glyph glyph-name="Ldot" unicode="&#x13f;" horiz-adv-x="1234" 
d="M788 719v227h250v-227h-250zM1126 0h-954v1516h256v-1283h698v-233z" />
    <glyph glyph-name="ldot" unicode="&#x140;" horiz-adv-x="811" 
d="M559 565v226h250v-226h-250zM406 0h-254v1516h254v-1516z" />
    <glyph glyph-name="Lslash" unicode="&#x141;" horiz-adv-x="1183" 
d="M1126 0h-954v680l-170 -45v196l170 46v639h258v-572l303 82v-197l-303 -81v-515h696v-233z" />
    <glyph glyph-name="lslash" unicode="&#x142;" horiz-adv-x="657" 
d="M205 0v850l-160 -43v188l160 43v478h252v-410l159 43v-188l-159 -43v-918h-252z" />
    <glyph glyph-name="Nacute" unicode="&#x143;" horiz-adv-x="1562" 
d="M410 0h-238v1516h260l717 -1082h4v1082h238v-1516h-234l-743 1104h-4v-1104zM621 1606l192 340h270l-297 -340h-165z" />
    <glyph glyph-name="nacute" unicode="&#x144;" horiz-adv-x="1234" 
d="M395 0h-252v1087h252v-174q170 195 389 195q154 0 238 -80t84 -237v-791h-252v719q0 180 -164 180q-143 0 -295 -141v-758zM449 1202l192 340h270l-297 -340h-165z" />
    <glyph glyph-name="Ncommaaccent" unicode="&#x145;" horiz-adv-x="1562" 
d="M655 -338v246h252v-215l-112 -248h-107l66 217h-99zM410 0h-238v1516h260l717 -1082h4v1082h238v-1516h-234l-743 1104h-4v-1104z" />
    <glyph glyph-name="ncommaaccent" unicode="&#x146;" horiz-adv-x="1234" 
d="M496 -338v246h252v-215l-113 -248h-107l66 217h-98zM395 0h-252v1087h252v-174q170 195 389 195q154 0 238 -80t84 -237v-791h-252v719q0 180 -164 180q-143 0 -295 -141v-758z" />
    <glyph glyph-name="Ncaron" unicode="&#x147;" horiz-adv-x="1562" 
d="M410 0h-238v1516h260l717 -1082h4v1082h238v-1516h-234l-743 1104h-4v-1104zM692 1612l-264 340h147l205 -172l205 172h145l-264 -340h-174z" />
    <glyph glyph-name="ncaron" unicode="&#x148;" horiz-adv-x="1234" 
d="M395 0h-252v1087h252v-174q170 195 389 195q154 0 238 -80t84 -237v-791h-252v719q0 180 -164 180q-143 0 -295 -141v-758zM532 1208l-264 340h148l205 -172l204 172h146l-264 -340h-175z" />
    <glyph glyph-name="Eng" unicode="&#x14a;" horiz-adv-x="1562" 
d="M172 0v1516h260l719 -1082h4v1082h236v-1506q0 -204 -113 -314t-336 -110q-146 0 -242 48t-170 137l146 161q106 -139 252 -139q203 0 219 215v8l-733 1088h-4v-1104h-238z" />
    <glyph glyph-name="eng" unicode="&#x14b;" horiz-adv-x="1234" 
d="M143 0v1087h252v-174q170 195 389 195q154 0 238 -80t84 -237v-928q0 -129 -65 -203t-238 -74q-111 0 -152 11v178q27 -10 82 -11q121 0 121 130v825q0 180 -164 180q-143 0 -295 -141v-758h-252z" />
    <glyph glyph-name="Omacron" unicode="&#x14c;" horiz-adv-x="1564" 
d="M356 757q0 -263 116 -409t311 -145q196 0 311 146q114 147 114 409t-114 406q-115 144 -311 144q-195 0 -311 -144t-116 -407zM784 -29q-298 0 -492 208t-194 579q0 370 194 578t492 208t490 -208t192 -578t-192 -579q-192 -208 -490 -208zM461 1599v187h639v-187h-639z
" />
    <glyph glyph-name="omacron" unicode="&#x14d;" horiz-adv-x="1220" 
d="M608 188q137 0 208 92t71 258q0 165 -70 260t-206 95t-207 -92q-70 -92 -70 -256q0 -165 68 -261t206 -96zM610 -23q-218 -1 -374 143t-156 424t154 422q155 142 375 142t376 -142t156 -422t-156 -424t-375 -143zM291 1196v186h639v-186h-639z" />
    <glyph glyph-name="Obreve" unicode="&#x14e;" horiz-adv-x="1564" 
d="M356 757q0 -263 116 -409t311 -145q196 0 311 146q114 147 114 409t-114 406q-115 144 -311 144q-195 0 -311 -144t-116 -407zM784 -29q-298 0 -492 208t-194 579q0 370 194 578t492 208t490 -208t192 -578t-192 -579q-192 -208 -490 -208zM780 1589q-154 -1 -242 99
t-98 264h142q24 -195 200 -195t199 195h139q-8 -164 -97 -264t-243 -99z" />
    <glyph glyph-name="obreve" unicode="&#x14f;" horiz-adv-x="1220" 
d="M608 188q137 0 208 92t71 258q0 165 -70 260t-206 95t-207 -92q-70 -92 -70 -256q0 -165 68 -261t206 -96zM610 -23q-218 -1 -374 143t-156 424t154 422q155 142 375 142t376 -142t156 -422t-156 -424t-375 -143zM610 1186q-154 0 -242 99t-98 263h142q24 -194 200 -194
t199 194h139q-8 -164 -97 -263t-243 -99z" />
    <glyph glyph-name="Ohungarumlaut" unicode="&#x150;" horiz-adv-x="1564" 
d="M356 757q0 -263 116 -409t311 -145q196 0 311 146q114 147 114 409t-114 406q-115 144 -311 144q-195 0 -311 -144t-116 -407zM784 -29q-298 0 -492 208t-194 579q0 370 194 578t492 208t490 -208t192 -578t-192 -579q-192 -208 -490 -208zM453 1606l204 340h275
l-311 -340h-168zM819 1606l215 340h275l-322 -340h-168z" />
    <glyph glyph-name="ohungarumlaut" unicode="&#x151;" horiz-adv-x="1220" 
d="M608 188q137 0 208 92t71 258q0 165 -70 260t-206 95t-207 -92q-70 -92 -70 -256q0 -165 68 -261t206 -96zM610 -23q-218 -1 -374 143t-156 424t154 422q155 142 375 142t376 -142t156 -422t-156 -424t-375 -143zM299 1202l205 340h274l-311 -340h-168zM666 1202l215 340
h274l-321 -340h-168z" />
    <glyph glyph-name="OE" unicode="&#x152;" horiz-adv-x="2306" 
d="M782 -29q-290 0 -488 210t-198 577q0 366 199 576t485 210t449 -223v195h956v-238h-723v-377h531v-227h-531v-441h762v-233h-995v197q-78 -104 -193 -165t-254 -61zM354 757q0 -263 116 -409t311 -145q196 0 311 146q114 147 114 409t-114 406q-115 144 -311 144
q-195 0 -311 -144t-116 -407z" />
    <glyph glyph-name="oe" unicode="&#x153;" horiz-adv-x="1945" 
d="M606 186q137 0 207 94t70 258q0 165 -69 260t-205 95t-206 -92q-69 -92 -69 -257q0 -166 68 -262t204 -96zM1386 903q-100 1 -172 -61t-88 -193h508q-23 254 -248 254zM608 -23q-219 -1 -374 143q-154 144 -154 424t153 422q154 142 375 142q128 0 234 -58t162 -161
q50 95 160 157t227 62q205 0 340 -140t135 -448v-49h-744q8 -149 86 -221t192 -72t183 31q70 31 135 96l133 -131q-178 -197 -456 -197q-127 -1 -238 57t-158 154q-61 -98 -163 -154t-228 -57z" />
    <glyph glyph-name="Racute" unicode="&#x154;" horiz-adv-x="1415" 
d="M424 0h-252v1516h543q273 0 421 -114t148 -341q0 -348 -336 -430l357 -631h-275l-340 598h-266v-598zM424 1282v-461h281q167 0 247 52q80 53 80 181t-80 178t-250 50h-278zM567 1606l193 340h270l-297 -340h-166z" />
    <glyph glyph-name="racute" unicode="&#x155;" horiz-adv-x="843" 
d="M393 0h-252v1087h252v-178h4q123 199 391 199h17l-8 -231q-25 4 -68 4q-217 0 -336 -193v-688zM283 1202l192 340h270l-296 -340h-166z" />
    <glyph glyph-name="Rcommaaccent" unicode="&#x156;" horiz-adv-x="1415" 
d="M582 -338v246h252v-215l-113 -248h-107l66 217h-98zM424 0h-252v1516h543q273 0 421 -114t148 -341q0 -348 -336 -430l357 -631h-275l-340 598h-266v-598zM424 1282v-461h281q167 0 247 52q80 53 80 181t-80 178t-250 50h-278z" />
    <glyph glyph-name="rcommaaccent" unicode="&#x157;" horiz-adv-x="843" 
d="M143 -338v246h252v-215l-112 -248h-107l66 217h-99zM393 0h-252v1087h252v-178h4q123 199 391 199h17l-8 -231q-25 4 -68 4q-217 0 -336 -193v-688z" />
    <glyph glyph-name="Rcaron" unicode="&#x158;" horiz-adv-x="1415" 
d="M424 0h-252v1516h543q273 0 421 -114t148 -341q0 -348 -336 -430l357 -631h-275l-340 598h-266v-598zM424 1282v-461h281q167 0 247 52q80 53 80 181t-80 178t-250 50h-278zM618 1612l-264 340h148l205 -172l204 172h146l-264 -340h-175z" />
    <glyph glyph-name="rcaron" unicode="&#x159;" horiz-adv-x="843" 
d="M393 0h-252v1087h252v-178h4q123 199 391 199h17l-8 -231q-25 4 -68 4q-217 0 -336 -193v-688zM334 1208l-264 340h147l205 -172l205 172h145l-264 -340h-174z" />
    <glyph glyph-name="Sacute" unicode="&#x15a;" horiz-adv-x="1380" 
d="M1049 1090q-131 221 -389 221t-259 -181q0 -90 77 -142t241 -100t244 -81q79 -33 157 -85q154 -103 154 -302t-154 -324t-396 -125q-242 -1 -400 103t-232 282l203 107q133 -264 418 -264q143 0 226 48t83 146q0 99 -76 155t-296 123t-282 102q-125 73 -171 151
q-47 78 -47 192q0 192 143 310t375 118q399 0 567 -325zM549 1606l192 340h271l-297 -340h-166z" />
    <glyph glyph-name="sacute" unicode="&#x15b;" horiz-adv-x="1071" 
d="M565 -23q-173 -1 -301 47t-205 126l138 153q151 -129 355 -129t204 125q0 63 -69 93q-69 29 -154 48q-228 50 -295 99q-97 72 -115 130t-19 119q0 144 112 232t292 88q262 0 446 -154l-120 -163q-60 51 -148 85t-160 33q-184 0 -184 -110q0 -59 58 -88t158 -51t138 -31
q38 -10 107 -38q67 -28 101 -60t62 -88t27 -130q1 -164 -127 -250t-301 -86zM395 1202l193 340h270l-297 -340h-166z" />
    <glyph glyph-name="Scircumflex" unicode="&#x15c;" horiz-adv-x="1380" 
d="M1049 1090q-131 221 -389 221t-259 -181q0 -90 77 -142t241 -100t244 -81q79 -33 157 -85q154 -103 154 -302t-154 -324t-396 -125q-242 -1 -400 103t-232 282l203 107q133 -264 418 -264q143 0 226 48t83 146q0 99 -76 155t-296 123t-282 102q-125 73 -171 151
q-47 78 -47 192q0 192 143 310t375 118q399 0 567 -325zM328 1606l264 340h174l264 -340h-147l-205 172l-205 -172h-145z" />
    <glyph glyph-name="scircumflex" unicode="&#x15d;" horiz-adv-x="1071" 
d="M565 -23q-173 -1 -301 47t-205 126l138 153q151 -129 355 -129t204 125q0 63 -69 93q-69 29 -154 48q-228 50 -295 99q-97 72 -115 130t-19 119q0 144 112 232t292 88q262 0 446 -154l-120 -163q-60 51 -148 85t-160 33q-184 0 -184 -110q0 -59 58 -88t158 -51t138 -31
q38 -10 107 -38q67 -28 101 -60t62 -88t27 -130q1 -164 -127 -250t-301 -86zM166 1202l264 340h174l264 -340h-147l-205 172l-205 -172h-145z" />
    <glyph glyph-name="Scedilla" unicode="&#x15e;" horiz-adv-x="1380" 
d="M1049 1090q-131 221 -389 221t-259 -181q0 -90 77 -142t241 -100t244 -81q79 -33 157 -85q154 -103 154 -298q0 -196 -148 -322t-401 -131l-20 -71q47 30 115 30t112 -38t43 -103q-1 -93 -77 -145t-218 -52t-258 76l51 82q92 -61 212 -61t120 80q0 63 -74 63
q-47 0 -94 -37l-72 35l45 147q-184 21 -318 121t-200 258l203 107q133 -264 418 -264q143 0 226 48t83 146q0 99 -76 155t-296 123t-282 102q-125 73 -171 151q-47 78 -47 192q0 192 143 310t375 118q399 0 567 -325z" />
    <glyph glyph-name="scedilla" unicode="&#x15f;" horiz-adv-x="1071" 
d="M821 -211q-1 -93 -77 -145t-218 -52t-258 76l51 82q92 -61 212 -61t120 80q0 63 -73 63q-47 0 -95 -37l-71 35l45 152q-123 12 -229 57t-169 111l138 153q151 -129 355 -129t204 125q0 63 -69 93q-69 29 -154 48q-228 50 -295 99q-97 72 -115 130t-19 119q0 144 112 232
t292 88q262 0 446 -154l-120 -163q-60 51 -148 85t-160 33q-184 0 -184 -110q0 -59 58 -88t158 -51t138 -31q38 -10 107 -38q67 -28 101 -60t62 -88t27 -130q1 -159 -117 -243t-303 -93l-22 -77q47 30 115 30t112 -38q43 -38 43 -103z" />
    <glyph glyph-name="Scaron" unicode="&#x160;" horiz-adv-x="1380" 
d="M1049 1090q-131 221 -389 221t-259 -181q0 -90 77 -142t241 -100t244 -81q79 -33 157 -85q154 -103 154 -302t-154 -324t-396 -125q-242 -1 -400 103t-232 282l203 107q133 -264 418 -264q143 0 226 48t83 146q0 99 -76 155t-296 123t-282 102q-125 73 -171 151
q-47 78 -47 192q0 192 143 310t375 118q399 0 567 -325zM602 1622l-264 340h147l205 -172l205 172h145l-264 -340h-174z" />
    <glyph glyph-name="scaron" unicode="&#x161;" horiz-adv-x="1071" 
d="M565 -23q-173 -1 -301 47t-205 126l138 153q151 -129 355 -129t204 125q0 63 -69 93q-69 29 -154 48q-228 50 -295 99q-97 72 -115 130t-19 119q0 144 112 232t292 88q262 0 446 -154l-120 -163q-60 51 -148 85t-160 33q-184 0 -184 -110q0 -59 58 -88t158 -51t138 -31
q38 -10 107 -38q67 -28 101 -60t62 -88t27 -130q1 -164 -127 -250t-301 -86zM449 1208l-265 340h148l205 -172l204 172h146l-264 -340h-174z" />
    <glyph glyph-name="Tcaron" unicode="&#x164;" horiz-adv-x="1300" 
d="M778 0h-256v1278h-467v238h1190v-238h-467v-1278zM563 1612l-264 340h147l205 -172l205 172h145l-264 -340h-174z" />
    <glyph glyph-name="tcaron" unicode="&#x165;" horiz-adv-x="821" 
d="M563 -14q-197 0 -267 70t-69 229v602h-188v200h188v379h252v-379h281v-200h-281v-539q0 -90 34 -127t113 -37t122 15v-199q-62 -14 -185 -14zM590 1450v238h244v-207l-109 -240h-102l63 209h-96z" />
    <glyph glyph-name="Tbar" unicode="&#x166;" horiz-adv-x="1300" 
d="M1245 623h-467v-623h-256v623h-467v196h467v459h-467v238h1190v-238h-467v-459h467v-196z" />
    <glyph glyph-name="tbar" unicode="&#x167;" horiz-adv-x="821" 
d="M559 -14q-197 0 -267 70t-69 229v192h-188v170h188v240h-188v200h188v379h252v-379h281v-200h-281v-240h281v-170h-281v-129q0 -90 33 -127t113 -37t122 15v-199q-68 -14 -184 -14z" />
    <glyph glyph-name="Utilde" unicode="&#x168;" horiz-adv-x="1476" 
d="M1325 555q-1 -266 -151 -423t-443 -157t-436 154t-143 424v963h256v-941q0 -369 333 -368q332 0 332 366v943h252v-961zM893 1591q-74 -1 -167 57t-130 58q-84 0 -84 -111h-141q0 285 213 285q74 0 167 -57t132 -58q84 0 84 111h141q0 -285 -215 -285z" />
    <glyph glyph-name="utilde" unicode="&#x169;" horiz-adv-x="1234" 
d="M442 -20q-145 0 -229 85t-84 242v780h254v-720q0 -176 162 -177q139 0 295 142v755h254v-1087h-254v147q-158 -167 -398 -167zM772 1188q-74 0 -167 57t-130 58q-84 0 -84 -111h-141q0 285 213 285q74 1 167 -57t132 -58q84 0 84 111h141q0 -285 -215 -285z" />
    <glyph glyph-name="Umacron" unicode="&#x16a;" horiz-adv-x="1476" 
d="M1325 555q-1 -266 -151 -423t-443 -157t-436 154t-143 424v963h256v-941q0 -369 333 -368q332 0 332 366v943h252v-961zM418 1599v187h639v-187h-639z" />
    <glyph glyph-name="umacron" unicode="&#x16b;" horiz-adv-x="1234" 
d="M442 -20q-145 0 -229 85t-84 242v780h254v-720q0 -176 162 -177q139 0 295 142v755h254v-1087h-254v147q-158 -167 -398 -167zM297 1196v186h639v-186h-639z" />
    <glyph glyph-name="Ubreve" unicode="&#x16c;" horiz-adv-x="1476" 
d="M1325 555q-1 -266 -151 -423t-443 -157t-436 154t-143 424v963h256v-941q0 -369 333 -368q332 0 332 366v943h252v-961zM739 1589q-155 -1 -243 99t-97 264h142q23 -195 199 -195t200 195h139q-8 -164 -97 -264t-243 -99z" />
    <glyph glyph-name="ubreve" unicode="&#x16d;" horiz-adv-x="1234" 
d="M442 -20q-145 0 -229 85t-84 242v780h254v-720q0 -176 162 -177q139 0 295 142v755h254v-1087h-254v147q-158 -167 -398 -167zM616 1186q-154 0 -242 99t-98 263h142q24 -194 200 -194t199 194h139q-8 -164 -97 -263t-243 -99z" />
    <glyph glyph-name="Uring" unicode="&#x16e;" horiz-adv-x="1476" 
d="M1325 555q-1 -266 -151 -423t-443 -157t-436 154t-143 424v963h256v-941q0 -369 333 -368q332 0 332 366v943h252v-961zM637 1798q1 -44 29 -74t72 -30t72 28t28 75q0 46 -28 76t-72 30t-72 -30t-29 -75zM737 1589q-90 -1 -149 59q-60 60 -60 149t60 149t149 59
q89 0 149 -58q60 -59 60 -149t-60 -150t-149 -59z" />
    <glyph glyph-name="uring" unicode="&#x16f;" horiz-adv-x="1234" 
d="M442 -20q-145 0 -229 85t-84 242v780h254v-720q0 -176 162 -177q139 0 295 142v755h254v-1087h-254v147q-158 -167 -398 -167zM717 1394q0 46 -28 76t-72 29q-45 0 -73 -30q-28 -31 -28 -75t28 -74t73 -30q44 0 72 29t28 75zM617 1186q-89 0 -149 60t-60 148t59 148
t149 60t150 -58t59 -149q0 -90 -59 -150q-60 -59 -149 -59z" />
    <glyph glyph-name="Uhungarumlaut" unicode="&#x170;" horiz-adv-x="1476" 
d="M1325 555q-1 -266 -151 -423t-443 -157t-436 154t-143 424v963h256v-941q0 -369 333 -368q332 0 332 366v943h252v-961zM418 1606l205 340h274l-311 -340h-168zM784 1606l215 340h275l-322 -340h-168z" />
    <glyph glyph-name="uhungarumlaut" unicode="&#x171;" horiz-adv-x="1234" 
d="M442 -20q-145 0 -229 85t-84 242v780h254v-720q0 -176 162 -177q139 0 295 142v755h254v-1087h-254v147q-158 -167 -398 -167zM309 1202l205 340h274l-311 -340h-168zM676 1202l215 340h274l-321 -340h-168z" />
    <glyph glyph-name="Uogonek" unicode="&#x172;" horiz-adv-x="1476" 
d="M768 -383q-102 0 -158 42q-55 42 -55 116q0 100 131 202q-274 14 -404 166t-130 410v963h256v-941q0 -369 333 -368q332 0 332 366v943h252v-961q0 -241 -125 -395t-364 -180q-102 -82 -102 -167t97 -85q78 0 181 49l51 -80q-137 -80 -295 -80z" />
    <glyph glyph-name="uogonek" unicode="&#x173;" horiz-adv-x="1234" 
d="M883 -383q-102 0 -158 42q-55 42 -55 116q0 119 170 231v141q-158 -168 -398 -167q-145 0 -229 85t-84 242v780h254v-720q0 -176 162 -177q139 0 295 142v755h254v-1087h-119q-127 -94 -127 -186q0 -86 98 -86q78 0 180 49l52 -80q-137 -80 -295 -80z" />
    <glyph glyph-name="Wcircumflex" unicode="&#x174;" horiz-adv-x="1933" 
d="M688 0h-225l-404 1516h258l193 -785q59 -233 80 -352h4q25 141 78 350l182 787h246l188 -791q61 -242 80 -346h4q6 37 74 340l188 797h240l-399 -1516h-224l-272 1161h-4zM614 1606l265 340h174l264 -340h-148l-204 172l-205 -172h-146z" />
    <glyph glyph-name="wcircumflex" unicode="&#x175;" horiz-adv-x="1564" 
d="M582 0h-234l-323 1087h256l118 -450q47 -176 82 -346h4q45 205 86 350l115 446h205l121 -454q37 -127 84 -342h4q49 213 86 338l123 458h229l-324 -1087h-235l-197 756h-4zM430 1202l264 340h174l265 -340h-148l-205 172l-205 -172h-145z" />
    <glyph glyph-name="Ycircumflex" unicode="&#x176;" horiz-adv-x="1353" 
d="M805 0h-258v653l-516 863h270l379 -646l377 646h266l-518 -863v-653zM324 1606l264 340h174l264 -340h-147l-205 172l-205 -172h-145z" />
    <glyph glyph-name="ycircumflex" unicode="&#x177;" horiz-adv-x="1120" 
d="M264 -422q-146 0 -266 33l57 203q85 -23 169 -23t122 29t66 94l30 80l-417 1093h262l280 -792h4l279 792h250l-463 -1206q-57 -155 -142 -229t-231 -74zM217 1202l264 340h174l265 -340h-148l-205 172l-205 -172h-145z" />
    <glyph glyph-name="Ydieresis" unicode="&#x178;" horiz-adv-x="1353" 
d="M805 0h-258v653l-516 863h270l379 -646l377 646h266l-518 -863v-653zM358 1599v248h230v-248h-230zM764 1599v248h229v-248h-229z" />
    <glyph glyph-name="Zacute" unicode="&#x179;" horiz-adv-x="1320" 
d="M1231 0h-1159v178l837 1122h-782v216h1104v-185l-828 -1122h828v-209zM496 1606l192 340h270l-296 -340h-166z" />
    <glyph glyph-name="zacute" unicode="&#x17a;" horiz-adv-x="1064" 
d="M999 0h-929v145l579 742h-536v200h852v-151l-582 -741h616v-195zM393 1202l193 340h270l-297 -340h-166z" />
    <glyph glyph-name="Zdotaccent" unicode="&#x17b;" horiz-adv-x="1320" 
d="M1231 0h-1159v178l837 1122h-782v216h1104v-185l-828 -1122h828v-209zM524 1622v227h271v-227h-271z" />
    <glyph glyph-name="zdotaccent" unicode="&#x17c;" horiz-adv-x="1064" 
d="M999 0h-929v145l579 742h-536v200h852v-151l-582 -741h616v-195zM397 1219v227h271v-227h-271z" />
    <glyph glyph-name="Zcaron" unicode="&#x17d;" horiz-adv-x="1320" 
d="M1231 0h-1159v178l837 1122h-782v216h1104v-185l-828 -1122h828v-209zM582 1622l-265 340h148l205 -172l204 172h146l-264 -340h-174z" />
    <glyph glyph-name="zcaron" unicode="&#x17e;" horiz-adv-x="1064" 
d="M999 0h-929v145l579 742h-536v200h852v-151l-582 -741h616v-195zM451 1208l-265 340h148l205 -172l204 172h146l-264 -340h-174z" />
    <glyph glyph-name="florin" unicode="&#x192;" horiz-adv-x="788" 
d="M-82 -233q166 0 186 161l119 885h-188l22 182h189l26 203q18 154 108 239t288 85q57 0 149 -11l-24 -184q-33 8 -84 8q-170 0 -185 -141l-26 -199h237l-22 -182h-238l-123 -926q-18 -141 -107 -221t-284 -80q-104 1 -149 11l22 178q33 -8 84 -8z" />
    <glyph glyph-name="Scommaaccent" unicode="&#x218;" horiz-adv-x="1380" 
d="M565 -338v246h252v-215l-112 -248h-107l66 217h-99zM1049 1090q-131 221 -389 221t-259 -181q0 -90 77 -142t241 -100t244 -81q79 -33 157 -85q154 -103 154 -302t-154 -324t-396 -125q-242 -1 -400 103t-232 282l203 107q133 -264 418 -264q143 0 226 48t83 146
q0 99 -76 155t-296 123t-282 102q-125 73 -171 151q-47 78 -47 192q0 192 143 310t375 118q399 0 567 -325z" />
    <glyph glyph-name="scommaaccent" unicode="&#x219;" horiz-adv-x="1071" 
d="M410 -338v246h252v-215l-113 -248h-107l66 217h-98zM565 -23q-173 -1 -301 47t-205 126l138 153q151 -129 355 -129t204 125q0 63 -69 93q-69 29 -154 48q-228 50 -295 99q-97 72 -115 130t-19 119q0 144 112 232t292 88q262 0 446 -154l-120 -163q-60 51 -148 85
t-160 33q-184 0 -184 -110q0 -59 58 -88t158 -51t138 -31q38 -10 107 -38q67 -28 101 -60t62 -88t27 -130q1 -164 -127 -250t-301 -86z" />
    <glyph glyph-name="Tcommaaccent" unicode="&#x21a;" horiz-adv-x="1300" 
d="M526 -338v246h252v-215l-112 -248h-107l66 217h-99zM778 0h-256v1278h-467v238h1190v-238h-467v-1278z" />
    <glyph glyph-name="tcommaaccent" unicode="&#x21b;" horiz-adv-x="821" 
d="M254 -338v246h252v-215l-113 -248h-106l65 217h-98zM563 -14q-197 0 -267 70t-69 229v602h-188v200h188v379h252v-379h281v-200h-281v-539q0 -90 34 -127t113 -37t122 15v-199q-62 -14 -185 -14z" />
    <glyph glyph-name="schwa" unicode="&#x259;" horiz-adv-x="1157" 
d="M559 182q100 0 172 62t88 192h-508q23 -254 248 -254zM551 1108q223 0 374 -141t150 -424q0 -147 -48 -261t-127 -178q-159 -128 -354 -127q-196 1 -331 141t-135 447v60h743q-8 141 -86 212q-77 71 -191 71t-184 -32q-70 -30 -135 -96l-133 131q178 197 457 197z" />
    <glyph glyph-name="circumflex" unicode="&#x2c6;" horiz-adv-x="1095" 
d="M197 1202l264 340h174l264 -340h-147l-205 172l-205 -172h-145z" />
    <glyph glyph-name="caron" unicode="&#x2c7;" horiz-adv-x="1095" 
d="M461 1208l-264 340h147l205 -172l205 172h145l-264 -340h-174z" />
    <glyph glyph-name="uni02C9" unicode="&#x2c9;" horiz-adv-x="1024" 
d="M193 1196v186h638v-186h-638z" />
    <glyph glyph-name="breve" unicode="&#x2d8;" horiz-adv-x="1024" 
d="M512 1186q-154 0 -243 99t-97 263h141q23 -194 200 -194t200 194h139q-8 -164 -97 -263t-243 -99z" />
    <glyph glyph-name="dotaccent" unicode="&#x2d9;" horiz-adv-x="1024" 
d="M377 1219v227h270v-227h-270z" />
    <glyph glyph-name="ring" unicode="&#x2da;" horiz-adv-x="1105" 
d="M554 1290q44 0 72 29t28 75t-28 76t-72 29q-44 0 -73 -30q-29 -31 -29 -75t30 -74q28 -30 72 -30zM553 1186q-90 0 -150 60q-59 60 -59 148t59 148t149 60t150 -58t60 -149q0 -89 -60 -149t-149 -60z" />
    <glyph glyph-name="ogonek" unicode="&#x2db;" horiz-adv-x="1024" 
d="M532 -383q-102 0 -157 42t-56 116q0 125 185 239h141q-147 -98 -147 -200q0 -86 98 -86q78 0 180 49l51 -80q-137 -80 -295 -80z" />
    <glyph glyph-name="tilde" unicode="&#x2dc;" horiz-adv-x="1054" 
d="M682 1188q-74 0 -167 57t-130 58q-84 0 -84 -111h-141q0 285 213 285q74 1 167 -57t132 -58q84 0 84 111h141q0 -285 -215 -285z" />
    <glyph glyph-name="hungarumlaut" unicode="&#x2dd;" horiz-adv-x="1060" 
d="M129 1202l205 340h274l-311 -340h-168zM496 1202l215 340h274l-321 -340h-168z" />
    <glyph glyph-name="Delta" unicode="&#x394;" horiz-adv-x="1421" 
d="M352 225h697l-342 938h-5zM47 0l543 1522h241l543 -1522h-1327z" />
    <glyph glyph-name="Omega" unicode="&#x3a9;" horiz-adv-x="1560" 
d="M781 1544q305 0 483 -213t178 -514q0 -178 -79 -337t-222 -269h286v-211h-509v211q137 131 203 273q67 142 67 347t-109 351t-298 147q-189 0 -298 -143t-109 -350q0 -206 68 -350q66 -144 203 -275v-211h-512v211h289q-143 109 -223 269t-80 337q0 301 178 514t484 213z
" />
    <glyph glyph-name="mu" unicode="&#x3bc;" horiz-adv-x="1245" 
d="M393 -410h-252v1497h252v-718q0 -182 164 -183q137 0 295 142v759h252v-1087h-252v172q-145 -158 -311 -180q-98 -6 -148 33v-435z" />
    <glyph glyph-name="pi" unicode="&#x3c0;" horiz-adv-x="1370" 
d="M16 889v201h1338v-201h-189v-889h-250v889h-460v-889h-252v889h-187z" />
    <glyph glyph-name="Wgrave" unicode="&#x1e80;" horiz-adv-x="1933" 
d="M688 0h-225l-404 1516h258l193 -785q59 -233 80 -352h4q25 141 78 350l182 787h246l188 -791q61 -242 80 -346h4q6 37 74 340l188 797h240l-399 -1516h-224l-272 1161h-4zM952 1606l-299 340h273l192 -340h-166z" />
    <glyph glyph-name="wgrave" unicode="&#x1e81;" horiz-adv-x="1564" 
d="M582 0h-234l-323 1087h256l118 -450q47 -176 82 -346h4q45 205 86 350l115 446h205l121 -454q37 -127 84 -342h4q49 213 86 338l123 458h229l-324 -1087h-235l-197 756h-4zM709 1202l-299 340h272l192 -340h-165z" />
    <glyph glyph-name="Wacute" unicode="&#x1e82;" horiz-adv-x="1933" 
d="M688 0h-225l-404 1516h258l193 -785q59 -233 80 -352h4q25 141 78 350l182 787h246l188 -791q61 -242 80 -346h4q6 37 74 340l188 797h240l-399 -1516h-224l-272 1161h-4zM827 1606l193 340h270l-297 -340h-166z" />
    <glyph glyph-name="wacute" unicode="&#x1e83;" horiz-adv-x="1564" 
d="M582 0h-234l-323 1087h256l118 -450q47 -176 82 -346h4q45 205 86 350l115 446h205l121 -454q37 -127 84 -342h4q49 213 86 338l123 458h229l-324 -1087h-235l-197 756h-4zM702 1202l193 340h270l-297 -340h-166z" />
    <glyph glyph-name="Wdieresis" unicode="&#x1e84;" horiz-adv-x="1933" 
d="M688 0h-225l-404 1516h258l193 -785q59 -233 80 -352h4q25 141 78 350l182 787h246l188 -791q61 -242 80 -346h4q6 37 74 340l188 797h240l-399 -1516h-224l-272 1161h-4zM645 1599v248h229v-248h-229zM1051 1599v248h229v-248h-229z" />
    <glyph glyph-name="wdieresis" unicode="&#x1e85;" horiz-adv-x="1564" 
d="M582 0h-234l-323 1087h256l118 -450q47 -176 82 -346h4q45 205 86 350l115 446h205l121 -454q37 -127 84 -342h4q49 213 86 338l123 458h229l-324 -1087h-235l-197 756h-4zM461 1196v248h229v-248h-229zM866 1196v248h230v-248h-230z" />
    <glyph glyph-name="Ygrave" unicode="&#x1ef2;" horiz-adv-x="1353" 
d="M805 0h-258v653l-516 863h270l379 -646l377 646h266l-518 -863v-653zM651 1606l-299 340h273l192 -340h-166z" />
    <glyph glyph-name="ygrave" unicode="&#x1ef3;" horiz-adv-x="1120" 
d="M264 -422q-146 0 -266 33l57 203q85 -23 169 -23t122 29t66 94l30 80l-417 1093h262l280 -792h4l279 792h250l-463 -1206q-57 -155 -142 -229t-231 -74zM512 1202l-299 340h272l193 -340h-166z" />
    <glyph glyph-name="space.en" unicode="&#x2002;" horiz-adv-x="1024" 
 />
    <glyph glyph-name="space.em" unicode="&#x2003;" horiz-adv-x="2048" 
 />
    <glyph glyph-name="space.tab_en" unicode="&#x2007;" 
 />
    <glyph glyph-name="space.thin" unicode="&#x2009;" horiz-adv-x="409" 
 />
    <glyph glyph-name="endash.tab" unicode="&#x2012;" 
d="M1208 530h-1085v218h1085v-218z" />
    <glyph glyph-name="endash" unicode="&#x2013;" 
d="M1208 530h-1085v218h1085v-218z" />
    <glyph glyph-name="emdash" unicode="&#x2014;" horiz-adv-x="1914" 
d="M1792 530h-1669v218h1669v-218z" />
    <glyph glyph-name="emdash.salt_em" unicode="&#x2015;" horiz-adv-x="2048" 
d="M0 530v218h2048v-218h-2048z" />
    <glyph glyph-name="quoteleft" unicode="&#x2018;" horiz-adv-x="565" 
d="M418 1020h-271v244l132 252h116l-71 -230h94v-266z" />
    <glyph glyph-name="quoteright" unicode="&#x2019;" horiz-adv-x="565" 
d="M147 1249v267h271v-244l-131 -252h-117l72 229h-95z" />
    <glyph glyph-name="quotesinglbase" unicode="&#x201a;" horiz-adv-x="565" 
d="M147 0v266h271v-243l-131 -252h-117l72 229h-95z" />
    <glyph glyph-name="quotedblleft" unicode="&#x201c;" horiz-adv-x="1009" 
d="M862 1020h-270v244l131 252h117l-72 -230h94v-266zM418 1020h-271v244l132 252h116l-71 -230h94v-266z" />
    <glyph glyph-name="quotedblright" unicode="&#x201d;" horiz-adv-x="1009" 
d="M592 1249v267h270v-244l-131 -252h-117l72 229h-94zM147 1249v267h271v-244l-131 -252h-117l72 229h-95z" />
    <glyph glyph-name="quotedblbase" unicode="&#x201e;" horiz-adv-x="1009" 
d="M592 0v266h270v-243l-131 -252h-117l72 229h-94zM147 0v266h271v-243l-131 -252h-117l72 229h-95z" />
    <glyph glyph-name="dagger" unicode="&#x2020;" horiz-adv-x="1204" 
d="M735 -410h-266l41 1211l-432 -29v234l432 -31l-41 541h266l-41 -541l432 31v-234l-432 29z" />
    <glyph glyph-name="daggerdbl" unicode="&#x2021;" horiz-adv-x="1204" 
d="M735 -410h-266l41 449l-401 -31v223l401 -28l-33 352l33 348l-401 -29v224l401 -31l-41 449h266l-41 -449l402 31v-224l-402 29l33 -348l-33 -352l402 28v-223l-402 31z" />
    <glyph glyph-name="bullet" unicode="&#x2022;" horiz-adv-x="948" 
d="M474 455q-114 -1 -188 73t-75 189q0 115 74 189q75 74 189 75q114 0 189 -75q75 -76 75 -190t-75 -188q-75 -73 -189 -73z" />
    <glyph glyph-name="ellipsis" unicode="&#x2026;" horiz-adv-x="1695" 
d="M1554 0h-282v266h282v-266zM424 0h-283v266h283v-266zM989 0h-282v266h282v-266z" />
    <glyph glyph-name="perthousand" unicode="&#x2030;" horiz-adv-x="3037" 
d="M1669 158q84 0 126 80t42 221q0 299 -169 299t-169 -300t170 -300zM2552 158q84 0 126 80t42 221q0 299 -169 299t-169 -300t170 -300zM1670 938q176 0 278 -129t102 -347t-102 -350t-280 -132q-177 0 -278 130q-102 130 -102 349t104 349t278 130zM2551 -20
q-177 0 -279 130q-101 130 -101 349t103 349q102 130 278 130t278 -129t102 -347t-102 -350t-279 -132zM487 760q82 0 124 79t42 220q0 299 -168 299t-168 -299t170 -299zM735 0h-221l905 1516h221zM485 580q-178 0 -279 130q-102 130 -102 349t104 350t279 131t277 -130
t102 -348t-102 -350t-279 -132z" />
    <glyph glyph-name="minute" unicode="&#x2032;" horiz-adv-x="514" 
d="M127 979l37 401l22 136h224l-129 -537h-154z" />
    <glyph glyph-name="second" unicode="&#x2033;" horiz-adv-x="894" 
d="M127 979l37 401l22 136h224l-129 -537h-154zM508 979l37 401l22 136h224l-129 -537h-154z" />
    <glyph glyph-name="guilsinglleft" unicode="&#x2039;" horiz-adv-x="722" 
d="M637 0h-246l-325 545l325 542h246l-313 -542z" />
    <glyph glyph-name="guilsinglright" unicode="&#x203a;" horiz-adv-x="722" 
d="M330 0h-246l315 545l-315 542h246l327 -542z" />
    <glyph glyph-name="fraction" unicode="&#x2044;" horiz-adv-x="1048" 
d="M188 0h-221l893 1516h221z" />
    <glyph glyph-name="zero.sups" unicode="&#x2070;" horiz-adv-x="1038" 
d="M715 1032q0 334 -196 334t-196 -334t196 -334t196 334zM518 535q-192 0 -295 133q-104 133 -104 363q0 231 104 367q103 136 295 136t298 -136t106 -366t-106 -364q-106 -133 -298 -133z" />
    <glyph glyph-name="four.sups" unicode="&#x2074;" horiz-adv-x="968" 
d="M549 915v369l-248 -369h248zM539 551v213h-439v129l428 623h213v-590h154v-162h-154v-213h-202z" />
    <glyph glyph-name="five.sups" unicode="&#x2075;" horiz-adv-x="923" 
d="M444 535q-219 0 -356 151l100 127q104 -119 252 -119q90 0 139 49q48 49 48 132t-45 129t-133 45q-88 0 -162 -93l-146 48l37 512h586l-12 -164h-416l-17 -226q61 68 199 68t223 -83q86 -83 86 -242q-1 -159 -105 -247t-278 -87z" />
    <glyph glyph-name="six.sups" unicode="&#x2076;" horiz-adv-x="974" 
d="M513 690q81 0 126 45t45 123q0 164 -166 164q-113 0 -196 -94q8 -114 59 -176t132 -62zM881 866q1 -150 -97 -240t-279 -91q-181 0 -284 122q-102 123 -102 371t115 377q116 129 306 129t300 -92l-88 -144q-94 70 -207 70t-166 -71t-60 -222q113 99 254 99t225 -79
t83 -229z" />
    <glyph glyph-name="seven.sups" unicode="&#x2077;" horiz-adv-x="851" 
d="M92 1346v170h670v-154l-371 -811h-213l367 795h-453z" />
    <glyph glyph-name="eight.sups" unicode="&#x2078;" horiz-adv-x="958" 
d="M477 672q88 0 137 37q50 37 50 96t-50 102t-155 86q-170 -76 -170 -186q0 -61 50 -98t138 -37zM631 1270q0 49 -38 84t-110 35q-71 0 -111 -34t-40 -84t36 -81t128 -68q72 35 104 67t31 81zM479 535q-182 1 -283 71t-102 191q0 164 217 260q-88 45 -130 97t-42 143
t89 164t253 73t251 -72t87 -174q0 -145 -176 -225q111 -51 166 -109t55 -168q0 -108 -101 -180q-102 -71 -284 -71z" />
    <glyph glyph-name="nine.sups" unicode="&#x2079;" horiz-adv-x="974" 
d="M428 535q-186 0 -295 90l88 139q94 -68 207 -68t167 70t58 221q-117 -98 -254 -98t-221 82q-84 81 -84 231t97 241t277 91t284 -123t104 -369t-121 -377q-121 -130 -307 -130zM455 1040q109 0 196 95q-8 117 -58 178t-132 61t-127 -45t-45 -123q0 -166 166 -166z" />
    <glyph glyph-name="zero.sinf" unicode="&#x2080;" horiz-adv-x="1038" 
d="M715 72q0 334 -196 334t-196 -334t196 -334t196 334zM518 573q192 0 298 -136t106 -366q0 -229 -106 -363t-298 -134t-295 133q-104 133 -104 363t104 367q103 136 295 136z" />
    <glyph glyph-name="one.sinf" unicode="&#x2081;" horiz-adv-x="755" 
d="M135 -410v166h174v625q-82 -39 -172 -39v152q123 4 180 61h199v-799h156v-166h-537z" />
    <glyph glyph-name="two.sinf" unicode="&#x2082;" horiz-adv-x="952" 
d="M125 -408v50q0 121 60 222t237 210q112 70 150 110t38 98q0 122 -126 120q-126 -1 -210 -156l-145 98q133 231 363 231q154 1 236 -77t83 -209q0 -94 -54 -172t-194 -156q-178 -106 -203 -199h455v-170h-690z" />
    <glyph glyph-name="three.sinf" unicode="&#x2083;" horiz-adv-x="952" 
d="M471 -424q-246 0 -373 199l129 108q94 -137 230 -137q82 0 124 37t42 105q0 138 -224 139h-69v147h73q109 0 155 31t46 92q0 106 -124 106t-228 -106l-117 123q150 156 352 155q156 -1 239 -71t83 -187q0 -160 -152 -208q178 -55 179 -232q0 -139 -98 -220t-267 -81z" />
    <glyph glyph-name="four.sinf" unicode="&#x2084;" horiz-adv-x="968" 
d="M549 -45v369l-248 -369h248zM539 -410v213h-439v129l428 623h213v-590h154v-162h-154v-213h-202z" />
    <glyph glyph-name="five.sinf" unicode="&#x2085;" horiz-adv-x="923" 
d="M444 -426q-219 0 -356 152l100 127q104 -119 252 -119q90 0 139 49q48 49 48 132t-45 128t-133 45t-162 -92l-146 47l37 512h586l-12 -164h-416l-17 -225q61 68 199 68t223 -84q86 -82 86 -241q-1 -159 -105 -247t-278 -88z" />
    <glyph glyph-name="six.sinf" unicode="&#x2086;" horiz-adv-x="974" 
d="M513 -270q81 0 126 45t45 123q0 164 -166 163q-113 0 -196 -94q8 -115 59 -176t132 -61zM573 213q141 0 225 -79q84 -78 83 -228q1 -150 -97 -241t-279 -91t-284 123q-102 123 -102 371t115 376q116 129 306 129t300 -92l-88 -143q-94 70 -207 70t-166 -71t-60 -222
q113 98 254 98z" />
    <glyph glyph-name="seven.sinf" unicode="&#x2087;" horiz-adv-x="851" 
d="M92 385v170h670v-154l-371 -811h-213l367 795h-453z" />
    <glyph glyph-name="eight.sinf" unicode="&#x2088;" horiz-adv-x="958" 
d="M477 -289q88 0 137 37q50 37 50 96q0 58 -50 102t-155 87q-170 -76 -170 -187q0 -61 50 -98t138 -37zM631 309q0 49 -38 84t-110 35q-71 0 -111 -34t-40 -84t36 -80t128 -68q72 34 104 66t31 81zM479 -426q-182 0 -283 71t-102 191q0 164 217 260q-88 46 -130 98t-42 143
t89 164t253 73t251 -72t87 -174q0 -145 -176 -226q111 -51 166 -109t55 -167q0 -108 -102 -180t-283 -72z" />
    <glyph glyph-name="nine.sinf" unicode="&#x2089;" horiz-adv-x="974" 
d="M428 -426q-186 0 -295 90l88 139q94 -67 207 -67t167 70t58 221q-117 -99 -254 -99t-221 82t-84 232t97 240t277 91q180 0 285 -122q103 -123 103 -370t-121 -377t-307 -130zM455 80q109 0 196 94q-8 117 -58 178q-50 62 -132 62t-127 -45t-45 -123q0 -166 166 -166z" />
    <glyph glyph-name="Euro" unicode="&#x20ac;" horiz-adv-x="1492" 
d="M268 762v57h-225v170h244q49 275 206 415t373 140t338 -108q123 -108 182 -312l-221 -75q-45 147 -106 211t-191 63q-130 0 -215 -84q-86 -84 -118 -250h380v-170h-399v-53q0 -59 2 -88h397v-172h-376q66 -317 333 -318q121 0 193 70t115 227l225 -67
q-129 -446 -535 -447q-220 0 -374 134t-205 401h-248v172h227q-2 27 -2 84z" />
    <glyph glyph-name="uni2117" unicode="&#x2117;" horiz-adv-x="1771" 
d="M772 1053v-254h150q166 0 165 127q0 127 -167 127h-148zM772 334h-162v858h318q319 0 319 -258q0 -135 -88 -202t-244 -66h-143v-332zM888 90q278 0 464 192q188 192 188 474t-189 476t-467 194t-465 -192q-187 -191 -187 -474q0 -282 188 -476q190 -194 468 -194z
M1669 760q0 -330 -227 -560t-558 -229t-556 227t-226 558q0 332 228 560t558 228q331 0 556 -227t225 -557z" />
    <glyph glyph-name="trademark" unicode="&#x2122;" horiz-adv-x="1853" 
d="M1030 649h-160v867h238l201 -635l202 635h236v-867h-172v613l-199 -613h-147l-199 608v-608zM487 649h-178v719h-250v148h678v-148h-250v-719z" />
    <glyph glyph-name="uni2126" unicode="&#x2126;" horiz-adv-x="1560" 
d="M781 1544q305 0 483 -213t178 -514q0 -178 -79 -337t-222 -269h286v-211h-509v211q137 131 203 273q67 142 67 347t-109 351t-298 147q-189 0 -298 -143t-109 -350q0 -206 68 -350q66 -144 203 -275v-211h-512v211h289q-143 109 -223 269t-80 337q0 301 178 514t484 213z
" />
    <glyph glyph-name="estimated" unicode="&#x212e;" horiz-adv-x="1427" 
d="M1075 733v373q-157 145 -365 145t-354 -145v-373h719zM356 651v-450q145 -145 357 -146q171 0 281 76t204 221l76 -47q-102 -160 -234 -245t-327 -85q-283 0 -459 197q-176 198 -176 484t175 481t466 195t464 -196t177 -485h-1004z" />
    <glyph glyph-name="partialdiff" unicode="&#x2202;" horiz-adv-x="1202" 
d="M303 436q-1 -126 61 -202t180 -76t215 114t97 301q0 129 -60 206t-177 77t-217 -115t-99 -305zM1120 678q0 -330 -170 -515t-426 -186q-219 0 -346 128t-127 331q0 274 164 433t365 159q94 0 176 -42t131 -118q-10 150 -89 308t-184 254l144 135q362 -305 362 -887z" />
    <glyph glyph-name="uni2206" unicode="&#x2206;" horiz-adv-x="1421" 
d="M352 225h697l-342 938h-5zM47 0l543 1522h241l543 -1522h-1327z" />
    <glyph glyph-name="product" unicode="&#x220f;" horiz-adv-x="1519" 
d="M172 -410v1926h1176v-1926h-256v1694h-664v-1694h-256z" />
    <glyph glyph-name="summation" unicode="&#x2211;" horiz-adv-x="1236" 
d="M1143 -184v-226h-1045v193l441 799l-418 706v228h995v-232h-717l406 -692l-428 -776h766z" />
    <glyph glyph-name="minus" unicode="&#x2212;" horiz-adv-x="1314" 
d="M1180 598h-1043v203h1043v-203z" />
    <glyph glyph-name="uni2215" unicode="&#x2215;" horiz-adv-x="1048" 
d="M188 0h-221l893 1516h221z" />
    <glyph glyph-name="uni2219" unicode="&#x2219;" horiz-adv-x="575" 
d="M434 541h-293v266h293v-266z" />
    <glyph glyph-name="radical" unicode="&#x221a;" horiz-adv-x="1294" 
d="M51 907v180h365l266 -802h4l412 1231h241l-538 -1520h-254l-330 911h-166z" />
    <glyph glyph-name="infinity" unicode="&#x221e;" horiz-adv-x="1605" 
d="M256 736q0 -100 49 -152t136 -52t147 52t119 151q-61 99 -119 153t-146 54t-137 -53t-49 -153zM1164 532q87 0 136 52q50 52 50 152q0 98 -50 152t-136 54q-87 0 -145 -53t-120 -152q61 -97 119 -151t146 -54zM432 350q-180 0 -275 98t-96 287q-1 187 95 287t276 100
q219 0 371 -223q150 223 371 223q180 0 275 -99t95 -287t-95 -287q-95 -98 -275 -99q-219 0 -371 230q-154 -230 -371 -230z" />
    <glyph glyph-name="integral" unicode="&#x222b;" horiz-adv-x="765" 
d="M184 -414q-104 0 -153 13v176q37 -8 82 -8q123 0 123 137v1294q0 152 78 238q79 86 274 86q57 0 149 -11v-194q-33 8 -99 8q-152 0 -151 -141v-1319q-1 -129 -65 -204t-238 -75z" />
    <glyph glyph-name="approxequal" unicode="&#x2248;" horiz-adv-x="1314" 
d="M1155 520q-16 -142 -82 -210t-162 -65t-287 81t-233 80q-90 4 -100 -95l-152 25q16 141 82 208q66 68 164 64q97 -4 287 -83t229 -81q90 -4 100 95zM1091 766q-67 -68 -163 -65t-286 81t-232 80q-88 4 -101 -94l-151 25q14 141 80 207t164 63q98 -4 287 -82t231 -80
q90 -4 100 94l154 -18q-16 -143 -83 -211z" />
    <glyph glyph-name="notequal" unicode="&#x2260;" horiz-adv-x="1314" 
d="M139 342v186h348l123 281h-471v186h541l160 385h217l-160 -385h277v-186h-345l-124 -281h469v-186h-537l-143 -344h-218l144 344h-281z" />
    <glyph glyph-name="lessequal" unicode="&#x2264;" horiz-adv-x="1314" 
d="M117 59v191h1083v-191h-1083zM1200 293l-1083 379v147l1083 389v-213l-778 -250l778 -239v-213z" />
    <glyph glyph-name="greaterequal" unicode="&#x2265;" horiz-adv-x="1314" 
d="M123 59v191h1083v-191h-1083zM123 293v213l778 239l-778 250v213l1083 -389v-147z" />
    <glyph glyph-name="lozenge" unicode="&#x25ca;" 
d="M666 244l325 514l-325 514l-326 -514zM565 0l-473 758l473 758h193l481 -758l-473 -758h-201z" />
    <glyph glyph-name="uni2713" unicode="&#x2713;" horiz-adv-x="1161" 
d="M668 -2h-256l-394 1089h265l266 -802h4l410 1231h243z" />
    <glyph glyph-name="commaaccent" unicode="&#xf6c3;" horiz-adv-x="565" 
d="M158 -338v246h252v-215l-113 -248h-107l66 217h-98z" />
    <glyph glyph-name="apple" unicode="&#xf8ff;" horiz-adv-x="1556" 
d="M326 262l4 47l-45 -4v193l59 -4l12 170l-336 -41v266l336 -41l-14 174l-57 -4v192l43 -4l-2 43h192l-4 -57l172 -12l-41 336h266l-41 -336l172 12l-4 57h193l-4 -43l45 4v-192l-60 4l-12 -174l336 41v-266l-336 41l12 -170l60 4v-193l-45 4l4 -47h-193l4 62l-172 12
l41 -336h-266l41 336l-172 -12l4 -62h-192zM686 664h-197l13 -183l184 -12v195zM870 664v-195l185 12l12 183h-197zM686 848v199l-184 -13l-13 -186h197zM870 848h197l-14 186l-183 13v-199z" />
    <glyph glyph-name="A.sc" horiz-adv-x="1243" 
d="M47 0l457 1217h235l457 -1217h-252l-94 266h-475l-99 -266h-229zM442 457h338l-164 465h-6z" />
    <glyph glyph-name="AE.sc" horiz-adv-x="1863" 
d="M1755 1212v-200h-604v-291h442v-189h-442v-335h637v-197h-879v336h-422l-198 -336h-254l735 1212h985zM909 522v514h-2l-307 -514h309z" />
    <glyph glyph-name="Aacute.sc" horiz-adv-x="1243" 
d="M47 0l457 1217h235l457 -1217h-252l-94 266h-475l-99 -266h-229zM442 457h338l-164 465h-6zM528 1315l193 340h270l-297 -340h-166z" />
    <glyph glyph-name="Abreve.sc" horiz-adv-x="1243" 
d="M47 0l457 1217h235l457 -1217h-252l-94 266h-475l-99 -266h-229zM442 457h338l-164 465h-6zM621 1298q-154 0 -243 100t-97 263h141q23 -195 200 -195t199 195h140q-8 -163 -97 -263t-243 -100z" />
    <glyph glyph-name="Acircumflex.sc" horiz-adv-x="1243" 
d="M47 0l457 1217h235l457 -1217h-252l-94 266h-475l-99 -266h-229zM442 457h338l-164 465h-6zM268 1315l264 340h175l264 -340h-148l-205 172l-204 -172h-146z" />
    <glyph glyph-name="Adieresis.sc" horiz-adv-x="1243" 
d="M47 0l457 1217h235l457 -1217h-252l-94 266h-475l-99 -266h-229zM442 457h338l-164 465h-6zM301 1309v247h229v-247h-229zM707 1309v247h229v-247h-229z" />
    <glyph glyph-name="Agrave.sc" horiz-adv-x="1243" 
d="M47 0l457 1217h235l457 -1217h-252l-94 266h-475l-99 -266h-229zM442 457h338l-164 465h-6zM549 1315l-299 340h272l193 -340h-166z" />
    <glyph glyph-name="Amacron.sc" horiz-adv-x="1243" 
d="M47 0l457 1217h235l457 -1217h-252l-94 266h-475l-99 -266h-229zM442 457h338l-164 465h-6zM301 1309v186h639v-186h-639z" />
    <glyph glyph-name="Aogonek.sc" horiz-adv-x="1243" 
d="M979 -383q-102 0 -158 42q-55 41 -55 109t50 132t126 108l-92 258h-475l-99 -266h-229l457 1217h235l457 -1217h-125q-127 -94 -127 -186q0 -86 98 -86q78 0 181 49l51 -80q-137 -80 -295 -80zM442 457h338l-164 465h-6z" />
    <glyph glyph-name="Aring.sc" horiz-adv-x="1243" 
d="M620 1532q90 0 150 -58q59 -58 59 -154t-71 -155l438 -1165h-252l-94 266h-475l-99 -266h-229l436 1165q-71 61 -71 155t59 152q59 60 149 60zM442 457h338l-164 465h-6zM520 1325q0 -45 29 -75t73 -29t72 29t27 74q0 46 -28 76q-27 30 -71 30t-73 -30t-29 -75z" />
    <glyph glyph-name="Atilde.sc" horiz-adv-x="1243" 
d="M47 0l457 1217h235l457 -1217h-252l-94 266h-475l-99 -266h-229zM442 457h338l-164 465h-6zM774 1300q-74 0 -167 58t-130 57q-84 0 -84 -110h-141q0 285 213 284q74 0 167 -57t132 -57q84 0 84 110h141q0 -285 -215 -285z" />
    <glyph glyph-name="B.sc" horiz-adv-x="1232" 
d="M385 526v-346h268q125 0 184 42q58 42 58 130q0 174 -260 174h-250zM385 1030v-317h244q236 0 235 159q0 84 -54 121t-175 37h-250zM147 0v1212h506q331 0 414 -149q35 -61 35 -165t-67 -174t-167 -91v-2q268 -45 269 -297q0 -170 -126 -252t-329 -82h-535z" />
    <glyph glyph-name="C.sc" horiz-adv-x="1261" 
d="M659 -23q-257 0 -415 164t-158 465t161 465t412 164q412 0 508 -379l-229 -63q-35 121 -99 182q-65 61 -182 61q-155 0 -239 -114t-84 -315q0 -203 86 -319t242 -116q227 0 294 264l230 -51q-107 -408 -527 -408z" />
    <glyph glyph-name="Cacute.sc" horiz-adv-x="1261" 
d="M659 -23q-257 0 -415 164t-158 465t161 465t412 164q412 0 508 -379l-229 -63q-35 121 -99 182q-65 61 -182 61q-155 0 -239 -114t-84 -315q0 -203 86 -319t242 -116q227 0 294 264l230 -51q-107 -408 -527 -408zM500 1315l192 340h271l-297 -340h-166z" />
    <glyph glyph-name="Ccaron.sc" horiz-adv-x="1261" 
d="M659 -23q-257 0 -415 164t-158 465t161 465t412 164q412 0 508 -379l-229 -63q-35 121 -99 182q-65 61 -182 61q-155 0 -239 -114t-84 -315q0 -203 86 -319t242 -116q227 0 294 264l230 -51q-107 -408 -527 -408zM543 1321l-264 340h147l205 -172l205 172h145l-264 -340
h-174z" />
    <glyph glyph-name="Ccedilla.sc" horiz-adv-x="1261" 
d="M915 -211q-1 -93 -77 -145t-218 -52t-258 76l52 82q92 -61 212 -61t119 80q0 63 -73 63q-47 0 -94 -37l-72 35l47 156q-213 34 -340 194t-127 444t161 447q161 164 412 164q412 0 508 -379l-229 -63q-35 121 -99 182q-65 61 -182 61q-155 0 -239 -114t-84 -315
q0 -203 86 -319t242 -116q227 0 294 264l230 -51q-106 -408 -518 -408l-23 -77q47 30 115 30t112 -38q43 -38 43 -103z" />
    <glyph glyph-name="Ccircumflex.sc" horiz-adv-x="1261" 
d="M659 -23q-257 0 -415 164t-158 465t161 465t412 164q412 0 508 -379l-229 -63q-35 121 -99 182q-65 61 -182 61q-155 0 -239 -114t-84 -315q0 -203 86 -319t242 -116q227 0 294 264l230 -51q-107 -408 -527 -408zM295 1315l264 340h174l264 -340h-147l-205 172l-205 -172
h-145z" />
    <glyph glyph-name="Cdotaccent.sc" horiz-adv-x="1261" 
d="M659 -23q-257 0 -415 164t-158 465t161 465t412 164q412 0 508 -379l-229 -63q-35 121 -99 182q-65 61 -182 61q-155 0 -239 -114t-84 -315q0 -203 86 -319t242 -116q227 0 294 264l230 -51q-107 -408 -527 -408zM514 1331v228h270v-228h-270z" />
    <glyph glyph-name="D.sc" horiz-adv-x="1290" 
d="M395 1016v-823h156q215 0 310 97t95 314q0 216 -97 314t-310 98h-154zM147 0v1212h388q670 0 669 -600q0 -612 -669 -612h-388z" />
    <glyph glyph-name="Dcaron.sc" horiz-adv-x="1290" 
d="M395 1016v-823h156q215 0 310 97t95 314q0 216 -97 314t-310 98h-154zM147 0v1212h388q670 0 669 -600q0 -612 -669 -612h-388zM557 1321l-264 340h147l205 -172l205 172h145l-264 -340h-174z" />
    <glyph glyph-name="Dcroat.sc" horiz-adv-x="1290" 
d="M395 543v-350h156q215 0 310 97t95 314q0 216 -97 314t-310 98h-154v-316h228v-157h-228zM147 0v547h-124v151h124v514h388q670 0 669 -600q0 -612 -669 -612h-388z" />
    <glyph glyph-name="E.sc" horiz-adv-x="1107" 
d="M1034 0h-887v1212h854v-200h-606v-287h445v-197h-445v-331h639v-197z" />
    <glyph glyph-name="Eacute.sc" horiz-adv-x="1107" 
d="M1034 0h-887v1212h854v-200h-606v-287h445v-197h-445v-331h639v-197zM424 1315l192 340h271l-297 -340h-166z" />
    <glyph glyph-name="Ebreve.sc" horiz-adv-x="1107" 
d="M1034 0h-887v1212h854v-200h-606v-287h445v-197h-445v-331h639v-197zM563 1298q-155 0 -243 100t-97 263h142q23 -195 199 -195t200 195h139q-8 -163 -97 -263t-243 -100z" />
    <glyph glyph-name="Ecaron.sc" horiz-adv-x="1107" 
d="M1034 0h-887v1212h854v-200h-606v-287h445v-197h-445v-331h639v-197zM485 1321l-264 340h148l204 -172l205 172h146l-265 -340h-174z" />
    <glyph glyph-name="Ecircumflex.sc" horiz-adv-x="1107" 
d="M1034 0h-887v1212h854v-200h-606v-287h445v-197h-445v-331h639v-197zM221 1315l264 340h174l265 -340h-148l-205 172l-204 -172h-146z" />
    <glyph glyph-name="Edieresis.sc" horiz-adv-x="1107" 
d="M1034 0h-887v1212h854v-200h-606v-287h445v-197h-445v-331h639v-197zM254 1309v247h229v-247h-229zM659 1309v247h230v-247h-230z" />
    <glyph glyph-name="Edotaccent.sc" horiz-adv-x="1107" 
d="M1034 0h-887v1212h854v-200h-606v-287h445v-197h-445v-331h639v-197zM438 1331v228h271v-228h-271z" />
    <glyph glyph-name="Egrave.sc" horiz-adv-x="1107" 
d="M1034 0h-887v1212h854v-200h-606v-287h445v-197h-445v-331h639v-197zM549 1315l-299 340h272l193 -340h-166z" />
    <glyph glyph-name="Emacron.sc" horiz-adv-x="1107" 
d="M1034 0h-887v1212h854v-200h-606v-287h445v-197h-445v-331h639v-197zM244 1309v186h639v-186h-639z" />
    <glyph glyph-name="Eng.sc" horiz-adv-x="1339" 
d="M147 0v1212h252l580 -825h2v825h225v-1253q0 -373 -385 -373q-211 0 -364 115l106 164q121 -90 240 -90q170 0 176 178v43l-399 563l-205 283h-2v-842h-226z" />
    <glyph glyph-name="Eogonek.sc" horiz-adv-x="1107" 
d="M819 -383q-102 0 -157 42t-56 116q0 117 162 225h-621v1212h854v-200h-606v-287h445v-197h-445v-331h639v-197h-123q-127 -94 -127 -186q0 -86 99 -86q78 0 180 49l51 -80q-137 -80 -295 -80z" />
    <glyph glyph-name="Eth.sc" horiz-adv-x="1290" 
d="M395 543v-350h156q215 0 310 97t95 314q0 216 -97 314t-310 98h-154v-316h228v-157h-228zM147 0v547h-124v151h124v514h388q670 0 669 -600q0 -612 -669 -612h-388z" />
    <glyph glyph-name="Euro.sc" horiz-adv-x="1257" 
d="M725 -25q-399 0 -483 437h-197v127h182q-2 27 -2 63t2 55h-182v127h195q35 221 168 338t315 117q334 0 436 -352l-188 -64q-37 119 -91 173t-154 54t-171 -67q-70 -68 -88 -199h297v-127h-309v-51q0 -47 2 -67h307v-127h-293q51 -250 258 -250q186 0 252 241l193 -53
q-113 -375 -449 -375z" />
    <glyph glyph-name="Euro.tab" 
d="M780 -29q-219 0 -365 131t-192 406h-219v168h203q-2 23 -2 147h-201v164h215q41 281 192 419t363 138t329 -112q118 -112 173 -318l-223 -65q-41 151 -99 215t-180 63q-264 0 -311 -340h362v-164h-376q-4 -76 0 -147h376v-168h-360q23 -168 99 -245t206 -77q129 0 195 72
t104 227l221 -57q-129 -457 -510 -457z" />
    <glyph glyph-name="F.sc" horiz-adv-x="1030" 
d="M395 0h-248v1212h832v-200h-584v-320h422v-192h-422v-500z" />
    <glyph glyph-name="G.sc" horiz-adv-x="1325" 
d="M629 -20q-262 0 -403 174q-140 174 -140 458t157 453q157 170 419 170q403 0 507 -385l-221 -57q-41 129 -110 186q-70 57 -174 57q-146 0 -238 -102t-92 -320t90 -332t232 -114t221 73q80 73 90 191h-250v182h473v-614h-193v172h-2q-45 -84 -137 -138t-229 -54z" />
    <glyph glyph-name="Gbreve.sc" horiz-adv-x="1325" 
d="M629 -20q-262 0 -403 174q-140 174 -140 458t157 453q157 170 419 170q403 0 507 -385l-221 -57q-41 129 -110 186q-70 57 -174 57q-146 0 -238 -102t-92 -320t90 -332t232 -114t221 73q80 73 90 191h-250v182h473v-614h-193v172h-2q-45 -84 -137 -138t-229 -54z
M662 1298q-154 0 -243 100t-97 263h141q23 -195 200 -195t199 195h139q-9 -163 -97 -263t-242 -100z" />
    <glyph glyph-name="Gcircumflex.sc" horiz-adv-x="1325" 
d="M629 -20q-262 0 -403 174q-140 174 -140 458t157 453q157 170 419 170q403 0 507 -385l-221 -57q-41 129 -110 186q-70 57 -174 57q-146 0 -238 -102t-92 -320t90 -332t232 -114t221 73q80 73 90 191h-250v182h473v-614h-193v172h-2q-45 -84 -137 -138t-229 -54z
M309 1315l264 340h175l264 -340h-148l-205 172l-204 -172h-146z" />
    <glyph glyph-name="Gcommaaccent.sc" horiz-adv-x="1325" 
d="M543 -338v246h252v-215l-113 -248h-107l66 217h-98zM629 -20q-262 0 -403 174q-140 174 -140 458t157 453q157 170 419 170q403 0 507 -385l-221 -57q-41 129 -110 186q-70 57 -174 57q-146 0 -238 -102t-92 -320t90 -332t232 -114t221 73q80 73 90 191h-250v182h473
v-614h-193v172h-2q-45 -84 -137 -138t-229 -54z" />
    <glyph glyph-name="Gdotaccent.sc" horiz-adv-x="1325" 
d="M629 -20q-262 0 -403 174q-140 174 -140 458t157 453q157 170 419 170q403 0 507 -385l-221 -57q-41 129 -110 186q-70 57 -174 57q-146 0 -238 -102t-92 -320t90 -332t232 -114t221 73q80 73 90 191h-250v182h473v-614h-193v172h-2q-45 -84 -137 -138t-229 -54z
M530 1331v228h271v-228h-271z" />
    <glyph glyph-name="H.sc" horiz-adv-x="1339" 
d="M395 0h-248v1212h248v-473h547v473h250v-1212h-250v526h-547v-526z" />
    <glyph glyph-name="Hbar.sc" horiz-adv-x="1339" 
d="M395 526v-526h-248v858h-124v168h124v186h248v-186h547v186h250v-186h125v-168h-125v-858h-250v526h-547zM395 739h547v119h-547v-119z" />
    <glyph glyph-name="Hcircumflex.sc" horiz-adv-x="1339" 
d="M395 0h-248v1212h248v-473h547v473h250v-1212h-250v526h-547v-526zM317 1315l265 340h174l264 -340h-148l-204 172l-205 -172h-146z" />
    <glyph glyph-name="I.sc" horiz-adv-x="569" 
d="M410 0h-248v1212h248v-1212z" />
    <glyph glyph-name="IJ.sc" horiz-adv-x="1435" 
d="M868 178q102 0 148 42q45 42 45 145v854h248v-863q0 -373 -408 -372q-202 -1 -364 114l108 170q121 -90 223 -90zM410 0h-248v1212h248v-1212z" />
    <glyph glyph-name="Iacute.sc" horiz-adv-x="569" 
d="M410 0h-248v1212h248v-1212zM182 1315l193 340h270l-297 -340h-166z" />
    <glyph glyph-name="Ibreve.sc" horiz-adv-x="569" 
d="M410 0h-248v1212h248v-1212zM285 1298q-154 0 -243 100t-97 263h141q23 -195 200 -195t199 195h140q-8 -163 -97 -263t-243 -100z" />
    <glyph glyph-name="Icircumflex.sc" horiz-adv-x="569" 
d="M410 0h-248v1212h248v-1212zM-66 1315l265 340h174l264 -340h-148l-204 172l-205 -172h-146z" />
    <glyph glyph-name="Idieresis.sc" horiz-adv-x="569" 
d="M410 0h-248v1212h248v-1212zM-35 1309v247h230v-247h-230zM371 1309v247h229v-247h-229z" />
    <glyph glyph-name="Idotaccent.sc" horiz-adv-x="569" 
d="M410 0h-248v1212h248v-1212zM150 1331v228h270v-228h-270z" />
    <glyph glyph-name="Igrave.sc" horiz-adv-x="569" 
d="M410 0h-248v1212h248v-1212zM223 1315l-299 340h273l192 -340h-166z" />
    <glyph glyph-name="Imacron.sc" horiz-adv-x="569" 
d="M410 0h-248v1212h248v-1212zM-35 1309v186h639v-186h-639z" />
    <glyph glyph-name="Iogonek.sc" horiz-adv-x="569" 
d="M221 -383q-102 0 -158 42q-55 41 -55 109t44 132t110 108v1204h248v-1212h-115q-109 -94 -109 -186q0 -86 99 -86q74 0 180 49l49 -80q-133 -80 -293 -80z" />
    <glyph glyph-name="Itilde.sc" horiz-adv-x="569" 
d="M410 0h-248v1212h248v-1212zM440 1305q-74 0 -167 57t-130 57q-84 0 -84 -110h-141q0 285 213 284q74 0 167 -57t132 -57q84 0 84 110h141q0 -284 -215 -284z" />
    <glyph glyph-name="J.sc" horiz-adv-x="927" 
d="M360 172q102 0 148 42q45 42 45 144v854h248v-862q0 -373 -408 -373q-202 0 -364 115l108 170q121 -90 223 -90z" />
    <glyph glyph-name="Jcircumflex.sc" horiz-adv-x="927" 
d="M360 172q102 0 148 42q45 42 45 144v854h248v-862q0 -373 -408 -373q-202 0 -364 115l108 170q121 -90 223 -90zM324 1315l264 340h174l264 -340h-147l-205 172l-205 -172h-145z" />
    <glyph glyph-name="K.sc" horiz-adv-x="1247" 
d="M393 0h-246v1212h246v-544l488 544h268l-432 -469l479 -743h-272l-367 563l-164 -170v-393z" />
    <glyph glyph-name="Kcommaaccent.sc" horiz-adv-x="1247" 
d="M498 -338v246h252v-215l-113 -248h-107l66 217h-98zM393 0h-246v1212h246v-544l488 544h268l-432 -469l479 -743h-272l-367 563l-164 -170v-393z" />
    <glyph glyph-name="L.sc" horiz-adv-x="1030" 
d="M979 0h-832v1212h248v-1015h584v-197z" />
    <glyph glyph-name="Lacute.sc" horiz-adv-x="1030" 
d="M979 0h-832v1212h248v-1015h584v-197zM188 1315l193 340h270l-297 -340h-166z" />
    <glyph glyph-name="Lcaron.sc" horiz-adv-x="1030" 
d="M563 975v237h244v-206l-109 -240h-102l63 209h-96zM979 0h-832v1212h248v-1015h584v-197z" />
    <glyph glyph-name="Lcommaaccent.sc" horiz-adv-x="1030" 
d="M389 -338v246h252v-215l-113 -248h-106l65 217h-98zM979 0h-832v1212h248v-1015h584v-197z" />
    <glyph glyph-name="Ldot.sc" horiz-adv-x="1091" 
d="M694 555v227h250v-227h-250zM979 0h-832v1212h248v-1015h584v-197z" />
    <glyph glyph-name="Lslash.sc" horiz-adv-x="1030" 
d="M979 193v-193h-832v526l-124 -32v153l124 33v532h248v-464l228 59v-154l-228 -59v-401h584z" />
    <glyph glyph-name="M.sc" horiz-adv-x="1570" 
d="M362 0h-215v1212h324l315 -931h5l301 931h333v-1212h-235v926h-2q-12 -70 -66 -240q-6 -31 -114 -324t-123 -362h-217q-14 74 -123 373t-117 331t-31 110q-23 77 -32 116h-3v-930z" />
    <glyph glyph-name="N.sc" horiz-adv-x="1339" 
d="M373 0h-226v1212h252l580 -825h2v825h225v-1212h-227l-604 842h-2v-842z" />
    <glyph glyph-name="Nacute.sc" horiz-adv-x="1339" 
d="M373 0h-226v1212h252l580 -825h2v825h225v-1212h-227l-604 842h-2v-842zM528 1315l193 340h270l-297 -340h-166z" />
    <glyph glyph-name="Ncaron.sc" horiz-adv-x="1339" 
d="M373 0h-226v1212h252l580 -825h2v825h225v-1212h-227l-604 842h-2v-842zM582 1321l-265 340h148l205 -172l204 172h146l-264 -340h-174z" />
    <glyph glyph-name="Ncommaaccent.sc" horiz-adv-x="1339" 
d="M545 -338v246h252v-215l-113 -248h-106l65 217h-98zM373 0h-226v1212h252l580 -825h2v825h225v-1212h-227l-604 842h-2v-842z" />
    <glyph glyph-name="Ntilde.sc" horiz-adv-x="1339" 
d="M373 0h-226v1212h252l580 -825h2v825h225v-1212h-227l-604 842h-2v-842zM823 1300q-74 0 -167 58t-130 57q-84 0 -84 -110h-141q0 285 213 284q74 0 167 -57t132 -57q84 0 84 110h141q0 -285 -215 -285z" />
    <glyph glyph-name="O.sc" horiz-adv-x="1357" 
d="M680 178q158 0 251 115t93 313t-93 312q-93 112 -251 112t-251 -112t-93 -312t93 -314t251 -114zM679 -23q-245 0 -418 166t-173 463t173 463t419 166t418 -166t172 -463t-173 -463t-418 -166z" />
    <glyph glyph-name="OE.sc" horiz-adv-x="1964" 
d="M675 -23q-247 0 -417 166t-170 463q0 201 86 347t215 214t281 68q250 0 379 -186v163h809v-200h-607v-291h443v-189h-443v-335h637v-197h-839v162q-127 -185 -374 -185zM680 176q156 0 249 116t93 314t-93 313q-93 113 -250 113t-250 -114t-93 -312t94 -314t250 -116z
" />
    <glyph glyph-name="Oacute.sc" horiz-adv-x="1357" 
d="M680 178q158 0 251 115t93 313t-93 312q-93 112 -251 112t-251 -112t-93 -312t93 -314t251 -114zM679 -23q-245 0 -418 166t-173 463t173 463t419 166t418 -166t172 -463t-173 -463t-418 -166zM539 1315l192 340h270l-296 -340h-166z" />
    <glyph glyph-name="Obreve.sc" horiz-adv-x="1357" 
d="M680 178q158 0 251 115t93 313t-93 312q-93 112 -251 112t-251 -112t-93 -312t93 -314t251 -114zM679 -23q-245 0 -418 166t-173 463t173 463t419 166t418 -166t172 -463t-173 -463t-418 -166zM678 1303q-154 0 -243 99t-97 263h141q23 -195 200 -195t200 195h139
q-8 -164 -97 -263t-243 -99z" />
    <glyph glyph-name="Ocircumflex.sc" horiz-adv-x="1357" 
d="M680 178q158 0 251 115t93 313t-93 312q-93 112 -251 112t-251 -112t-93 -312t93 -314t251 -114zM679 -23q-245 0 -418 166t-173 463t173 463t419 166t418 -166t172 -463t-173 -463t-418 -166zM326 1315l264 340h174l264 -340h-147l-205 172l-205 -172h-145z" />
    <glyph glyph-name="Odieresis.sc" horiz-adv-x="1357" 
d="M680 178q158 0 251 115t93 313t-93 312q-93 112 -251 112t-251 -112t-93 -312t93 -314t251 -114zM679 -23q-245 0 -418 166t-173 463t173 463t419 166t418 -166t172 -463t-173 -463t-418 -166zM358 1309v247h230v-247h-230zM764 1309v247h229v-247h-229z" />
    <glyph glyph-name="Ograve.sc" horiz-adv-x="1357" 
d="M680 178q158 0 251 115t93 313t-93 312q-93 112 -251 112t-251 -112t-93 -312t93 -314t251 -114zM679 -23q-245 0 -418 166t-173 463t173 463t419 166t418 -166t172 -463t-173 -463t-418 -166zM653 1315l-299 340h273l192 -340h-166z" />
    <glyph glyph-name="Ohungarumlaut.sc" horiz-adv-x="1357" 
d="M680 178q158 0 251 115t93 313t-93 312q-93 112 -251 112t-251 -112t-93 -312t93 -314t251 -114zM679 -23q-245 0 -418 166t-173 463t173 463t419 166t418 -166t172 -463t-173 -463t-418 -166zM358 1315l205 340h275l-312 -340h-168zM725 1315l215 340h274l-321 -340
h-168z" />
    <glyph glyph-name="Omacron.sc" horiz-adv-x="1357" 
d="M680 178q158 0 251 115t93 313t-93 312q-93 112 -251 112t-251 -112t-93 -312t93 -314t251 -114zM679 -23q-245 0 -418 166t-173 463t173 463t419 166t418 -166t172 -463t-173 -463t-418 -166zM358 1309v186h639v-186h-639z" />
    <glyph glyph-name="Oslash.sc" horiz-adv-x="1357" 
d="M88 612q0 291 173 457t419 166q172 0 307 -86l109 147l114 -86l-106 -145q166 -170 166 -463t-173 -459t-417 -166q-176 0 -311 86l-107 -145l-115 86l105 143q-164 174 -164 465zM680 164q160 0 256 120t96 305t-71 296l-478 -658q82 -63 197 -63zM680 1044
q-160 0 -257 -118t-97 -302q0 -185 69 -294l475 653q-76 61 -190 61z" />
    <glyph glyph-name="Otilde.sc" horiz-adv-x="1357" 
d="M680 178q158 0 251 115t93 313t-93 312q-93 112 -251 112t-251 -112t-93 -312t93 -314t251 -114zM679 -23q-245 0 -418 166t-173 463t173 463t419 166t418 -166t172 -463t-173 -463t-418 -166zM831 1300q-75 0 -167 58t-129 57q-84 0 -84 -110h-142q0 285 213 284
q74 0 167 -57t132 -57q84 0 84 110h142q-1 -285 -216 -285z" />
    <glyph glyph-name="P.sc" horiz-adv-x="1179" 
d="M391 1020v-393h225q135 0 198 49q62 49 63 151q-1 101 -63 147t-200 46h-223zM391 0h-244v1212h463q372 0 465 -189q39 -77 39 -187q0 -387 -508 -387h-215v-449z" />
    <glyph glyph-name="Q.sc" horiz-adv-x="1357" 
d="M334 606q0 -204 94 -320t251 -116t250 117t93 319t-93 317q-93 113 -250 113t-251 -114t-94 -316zM1151 -143v-187h-172q-219 0 -326 90q-106 90 -110 238q-199 41 -327 199t-128 409q0 297 173 463t418 166t418 -166q173 -167 173 -445t-137 -438t-347 -194
q8 -82 66 -109t207 -26h92z" />
    <glyph glyph-name="R.sc" horiz-adv-x="1228" 
d="M391 0h-244v1212h476q489 0 489 -364q0 -274 -272 -342l293 -506h-263l-274 477h-205v-477zM391 1020v-371h223q131 0 194 43q62 42 62 144t-62 143t-194 41h-223z" />
    <glyph glyph-name="Racute.sc" horiz-adv-x="1228" 
d="M391 0h-244v1212h476q489 0 489 -364q0 -274 -272 -342l293 -506h-263l-274 477h-205v-477zM391 1020v-371h223q131 0 194 43q62 42 62 144t-62 143t-194 41h-223zM475 1315l193 340h270l-297 -340h-166z" />
    <glyph glyph-name="Rcaron.sc" horiz-adv-x="1228" 
d="M391 0h-244v1212h476q489 0 489 -364q0 -274 -272 -342l293 -506h-263l-274 477h-205v-477zM391 1020v-371h223q131 0 194 43q62 42 62 144t-62 143t-194 41h-223zM526 1321l-264 340h148l204 -172l205 172h146l-265 -340h-174z" />
    <glyph glyph-name="Rcommaaccent.sc" horiz-adv-x="1228" 
d="M489 -338v246h252v-215l-112 -248h-107l66 217h-99zM391 0h-244v1212h476q489 0 489 -364q0 -274 -272 -342l293 -506h-263l-274 477h-205v-477zM391 1020v-371h223q131 0 194 43q62 42 62 144t-62 143t-194 41h-223z" />
    <glyph glyph-name="S.sc" horiz-adv-x="1204" 
d="M1110 334q0 -172 -136 -266t-334 -95q-405 0 -554 293l188 117q42 -105 138 -161t209 -56q246 0 245 156q0 67 -38 105q-38 37 -103 53q-63 18 -141 36t-133 34q-164 46 -230 112q-90 90 -90 240t122 241q122 92 320 92q360 0 502 -248l-170 -123q-45 84 -133 131
t-190 47q-211 0 -211 -139q1 -91 79 -129q75 -36 280 -80t293 -132q87 -87 87 -228z" />
    <glyph glyph-name="Sacute.sc" horiz-adv-x="1204" 
d="M1110 334q0 -172 -136 -266t-334 -95q-405 0 -554 293l188 117q42 -105 138 -161t209 -56q246 0 245 156q0 67 -38 105q-38 37 -103 53q-63 18 -141 36t-133 34q-164 46 -230 112q-90 90 -90 240t122 241q122 92 320 92q360 0 502 -248l-170 -123q-45 84 -133 131
t-190 47q-211 0 -211 -139q1 -91 79 -129q75 -36 280 -80t293 -132q87 -87 87 -228zM461 1315l192 340h271l-297 -340h-166z" />
    <glyph glyph-name="Scaron.sc" horiz-adv-x="1204" 
d="M1110 334q0 -172 -136 -266t-334 -95q-405 0 -554 293l188 117q42 -105 138 -161t209 -56q246 0 245 156q0 67 -38 105q-38 37 -103 53q-63 18 -141 36t-133 34q-164 46 -230 112q-90 90 -90 240t122 241q122 92 320 92q360 0 502 -248l-170 -123q-45 84 -133 131
t-190 47q-211 0 -211 -139q1 -91 79 -129q75 -36 280 -80t293 -132q87 -87 87 -228zM514 1321l-264 340h147l205 -172l205 172h145l-264 -340h-174z" />
    <glyph glyph-name="Scedilla.sc" horiz-adv-x="1204" 
d="M887 -211q0 -93 -77 -145q-78 -52 -220 -52t-256 76l51 82q92 -61 212 -61t120 80q0 63 -74 63q-47 0 -94 -37l-72 35l45 150q-309 37 -436 286l188 117q42 -105 138 -161t209 -56q246 0 245 156q0 67 -38 105q-38 37 -103 53q-63 18 -141 36t-133 34q-164 46 -230 112
q-90 90 -90 240t122 241q122 92 320 92q360 0 502 -248l-170 -123q-45 84 -133 131t-190 47q-211 0 -211 -139q1 -91 79 -129q75 -36 280 -80t293 -132q87 -88 87 -242t-131 -248t-342 -99l-21 -73q48 30 116 30t112 -38t43 -103z" />
    <glyph glyph-name="Scircumflex.sc" horiz-adv-x="1204" 
d="M1110 334q0 -172 -136 -266t-334 -95q-405 0 -554 293l188 117q42 -105 138 -161t209 -56q246 0 245 156q0 67 -38 105q-38 37 -103 53q-63 18 -141 36t-133 34q-164 46 -230 112q-90 90 -90 240t122 241q122 92 320 92q360 0 502 -248l-170 -123q-45 84 -133 131
t-190 47q-211 0 -211 -139q1 -91 79 -129q75 -36 280 -80t293 -132q87 -87 87 -228zM238 1315l264 340h174l264 -340h-147l-205 172l-205 -172h-145z" />
    <glyph glyph-name="Scommaaccent.sc" horiz-adv-x="1204" 
d="M477 -338v246h252v-215l-113 -248h-106l65 217h-98zM1110 334q0 -172 -136 -266t-334 -95q-405 0 -554 293l188 117q42 -105 138 -161t209 -56q246 0 245 156q0 67 -38 105q-38 37 -103 53q-63 18 -141 36t-133 34q-164 46 -230 112q-90 90 -90 240t122 241
q122 92 320 92q360 0 502 -248l-170 -123q-45 84 -133 131t-190 47q-211 0 -211 -139q1 -91 79 -129q75 -36 280 -80t293 -132q87 -87 87 -228z" />
    <glyph glyph-name="T.sc" horiz-adv-x="1132" 
d="M690 0h-248v1012h-389v200h1026v-200h-389v-1012z" />
    <glyph glyph-name="Tbar.sc" horiz-adv-x="1132" 
d="M1079 465h-389v-465h-248v465h-389v166h389v381h-389v200h1026v-200h-389v-381h389v-166z" />
    <glyph glyph-name="Tcaron.sc" horiz-adv-x="1132" 
d="M690 0h-248v1012h-389v200h1026v-200h-389v-1012zM477 1321l-264 340h147l205 -172l205 172h145l-264 -340h-174z" />
    <glyph glyph-name="Tcommaaccent.sc" horiz-adv-x="1132" 
d="M440 -338v246h252v-215l-112 -248h-107l66 217h-99zM690 0h-248v1012h-389v200h1026v-200h-389v-1012z" />
    <glyph glyph-name="Thorn.sc" horiz-adv-x="1193" 
d="M393 829v-399h228q264 0 264 200t-267 199h-225zM393 0h-243v1212h243v-196h223q508 0 508 -377q0 -383 -514 -383h-217v-256z" />
    <glyph glyph-name="U.sc" horiz-adv-x="1271" 
d="M637 -20q-252 0 -380 126t-128 349v757h248v-751q0 -283 264 -283q135 0 197 72q61 72 61 211v751h246v-755q0 -223 -128 -350t-380 -127z" />
    <glyph glyph-name="Uacute.sc" horiz-adv-x="1271" 
d="M637 -20q-252 0 -380 126t-128 349v757h248v-751q0 -283 264 -283q135 0 197 72q61 72 61 211v751h246v-755q0 -223 -128 -350t-380 -127zM465 1315l192 340h271l-297 -340h-166z" />
    <glyph glyph-name="Ubreve.sc" horiz-adv-x="1271" 
d="M637 -20q-252 0 -380 126t-128 349v757h248v-751q0 -283 264 -283q135 0 197 72q61 72 61 211v751h246v-755q0 -223 -128 -350t-380 -127zM635 1298q-154 0 -243 100t-97 263h141q23 -195 200 -195t200 195h139q-8 -163 -97 -263t-243 -100z" />
    <glyph glyph-name="Ucircumflex.sc" horiz-adv-x="1271" 
d="M637 -20q-252 0 -380 126t-128 349v757h248v-751q0 -283 264 -283q135 0 197 72q61 72 61 211v751h246v-755q0 -223 -128 -350t-380 -127zM283 1315l264 340h174l264 -340h-147l-205 172l-205 -172h-145z" />
    <glyph glyph-name="Udieresis.sc" horiz-adv-x="1271" 
d="M637 -20q-252 0 -380 126t-128 349v757h248v-751q0 -283 264 -283q135 0 197 72q61 72 61 211v751h246v-755q0 -223 -128 -350t-380 -127zM315 1309v247h230v-247h-230zM721 1309v247h229v-247h-229z" />
    <glyph glyph-name="Ugrave.sc" horiz-adv-x="1271" 
d="M637 -20q-252 0 -380 126t-128 349v757h248v-751q0 -283 264 -283q135 0 197 72q61 72 61 211v751h246v-755q0 -223 -128 -350t-380 -127zM610 1315l-299 340h273l192 -340h-166z" />
    <glyph glyph-name="Uhungarumlaut.sc" horiz-adv-x="1271" 
d="M637 -20q-252 0 -380 126t-128 349v757h248v-751q0 -283 264 -283q135 0 197 72q61 72 61 211v751h246v-755q0 -223 -128 -350t-380 -127zM315 1315l205 340h275l-312 -340h-168zM682 1315l215 340h274l-321 -340h-168z" />
    <glyph glyph-name="Umacron.sc" horiz-adv-x="1271" 
d="M637 -20q-252 0 -380 126t-128 349v757h248v-751q0 -283 264 -283q135 0 197 72q61 72 61 211v751h246v-755q0 -223 -128 -350t-380 -127zM315 1309v186h639v-186h-639z" />
    <glyph glyph-name="Uogonek.sc" horiz-adv-x="1271" 
d="M647 -383q-102 0 -158 42q-55 42 -55 116q0 104 137 207q-219 16 -331 141t-111 332v757h248v-751q0 -283 264 -283q135 0 197 72q61 72 61 211v751h246v-755q0 -205 -108 -329t-320 -144q-104 -84 -105 -170q0 -86 99 -86q78 0 180 49l51 -80q-137 -80 -295 -80z" />
    <glyph glyph-name="Uring.sc" horiz-adv-x="1271" 
d="M637 -20q-252 0 -380 126t-128 349v757h248v-751q0 -283 264 -283q135 0 197 72q61 72 61 211v751h246v-755q0 -223 -128 -350t-380 -127zM636 1403q44 0 72 29q28 28 28 74t-28 76t-72 30t-73 -30t-29 -75t30 -75q28 -30 72 -29zM635 1298q-89 0 -149 60t-60 148t59 148
t149 60t150 -58t60 -148t-60 -150t-149 -60z" />
    <glyph glyph-name="Utilde.sc" horiz-adv-x="1271" 
d="M637 -20q-252 0 -380 126t-128 349v757h248v-751q0 -283 264 -283q135 0 197 72q61 72 61 211v751h246v-755q0 -223 -128 -350t-380 -127zM791 1300q-74 0 -167 58t-130 57q-84 0 -84 -110h-142q0 285 213 284q74 0 167 -57t132 -57q84 0 84 110h142q0 -285 -215 -285z
" />
    <glyph glyph-name="V.sc" horiz-adv-x="1216" 
d="M725 -4h-236l-442 1216h252l238 -684l73 -225h4l322 909h233z" />
    <glyph glyph-name="W.sc" horiz-adv-x="1660" 
d="M612 0h-213l-346 1212h250l152 -587q41 -152 65 -273h4q12 66 60 271l141 589h233l148 -591q47 -193 61 -269h4q8 47 19 88q10 41 21 91t20 85l149 596h230l-338 -1212h-213l-215 883h-4z" />
    <glyph glyph-name="Wacute.sc" horiz-adv-x="1660" 
d="M612 0h-213l-346 1212h250l152 -587q41 -152 65 -273h4q12 66 60 271l141 589h233l148 -591q47 -193 61 -269h4q8 47 19 88q10 41 21 91t20 85l149 596h230l-338 -1212h-213l-215 883h-4zM760 1315l192 340h271l-297 -340h-166z" />
    <glyph glyph-name="Wcircumflex.sc" horiz-adv-x="1660" 
d="M612 0h-213l-346 1212h250l152 -587q41 -152 65 -273h4q12 66 60 271l141 589h233l148 -591q47 -193 61 -269h4q8 47 19 88q10 41 21 91t20 85l149 596h230l-338 -1212h-213l-215 883h-4zM479 1315l264 340h175l264 -340h-148l-205 172l-204 -172h-146z" />
    <glyph glyph-name="Wdieresis.sc" horiz-adv-x="1660" 
d="M612 0h-213l-346 1212h250l152 -587q41 -152 65 -273h4q12 66 60 271l141 589h233l148 -591q47 -193 61 -269h4q8 47 19 88q10 41 21 91t20 85l149 596h230l-338 -1212h-213l-215 883h-4zM510 1309v247h229v-247h-229zM915 1309v247h230v-247h-230z" />
    <glyph glyph-name="Wgrave.sc" horiz-adv-x="1660" 
d="M612 0h-213l-346 1212h250l152 -587q41 -152 65 -273h4q12 66 60 271l141 589h233l148 -591q47 -193 61 -269h4q8 47 19 88q10 41 21 91t20 85l149 596h230l-338 -1212h-213l-215 883h-4zM754 1315l-299 340h272l193 -340h-166z" />
    <glyph glyph-name="X.sc" horiz-adv-x="1210" 
d="M303 0h-258l418 643l-379 569h276l261 -397l247 397h252l-370 -575l417 -637h-270l-299 461z" />
    <glyph glyph-name="Y.sc" horiz-adv-x="1193" 
d="M471 0v518l-440 694h264l309 -499l307 499h250l-440 -694v-518h-250z" />
    <glyph glyph-name="Yacute.sc" horiz-adv-x="1193" 
d="M471 0v518l-440 694h264l309 -499l307 499h250l-440 -694v-518h-250zM457 1315l192 340h271l-297 -340h-166z" />
    <glyph glyph-name="Ycircumflex.sc" horiz-adv-x="1193" 
d="M471 0v518l-440 694h264l309 -499l307 499h250l-440 -694v-518h-250zM244 1315l264 340h174l264 -340h-147l-205 172l-205 -172h-145z" />
    <glyph glyph-name="Ydieresis.sc" horiz-adv-x="1193" 
d="M471 0v518l-440 694h264l309 -499l307 499h250l-440 -694v-518h-250zM276 1309v247h230v-247h-230zM682 1309v247h229v-247h-229z" />
    <glyph glyph-name="Ygrave.sc" horiz-adv-x="1193" 
d="M471 0v518l-440 694h264l309 -499l307 499h250l-440 -694v-518h-250zM573 1315l-299 340h273l192 -340h-166z" />
    <glyph glyph-name="Z.sc" horiz-adv-x="1153" 
d="M1071 0h-1005v170l692 842h-645v200h958v-174l-682 -841h682v-197z" />
    <glyph glyph-name="Zacute.sc" horiz-adv-x="1153" 
d="M1071 0h-1005v170l692 842h-645v200h958v-174l-682 -841h682v-197zM436 1315l193 340h270l-297 -340h-166z" />
    <glyph glyph-name="Zcaron.sc" horiz-adv-x="1153" 
d="M1071 0h-1005v170l692 842h-645v200h958v-174l-682 -841h682v-197zM487 1321l-264 340h148l204 -172l205 172h146l-264 -340h-175z" />
    <glyph glyph-name="Zdotaccent.sc" horiz-adv-x="1153" 
d="M1071 0h-1005v170l692 842h-645v200h958v-174l-682 -841h682v-197zM440 1331v228h271v-228h-271z" />
    <glyph glyph-name="ampersand.sc" horiz-adv-x="1296" 
d="M45 299q0 143 79 226t218 153q-74 141 -74 264t86 212t244 89t236 -72q76 -72 76 -176t-48 -175q-47 -70 -104 -108t-150 -83q39 -57 113 -135q92 -104 158 -162q92 124 108 286h201q-37 -227 -148 -380q98 -61 215 -68v-186q-197 -10 -372 100q-155 -106 -379 -106
t-342 88q-118 90 -117 233zM266 336q0 -90 68 -138t180 -48t199 59q-68 61 -150 158q-78 82 -141 174q-156 -92 -156 -205zM481 928q0 -78 51 -172q90 47 138 93q47 46 47 112q0 121 -105 120q-131 0 -131 -153z" />
    <glyph glyph-name="asterisk.tab" 
d="M514 662l-143 86l200 288l-354 -24v159l354 -24l-200 291l143 86l152 -322l153 322l144 -86l-201 -291l352 24v-159l-352 24l201 -288l-144 -86l-153 319z" />
    <glyph glyph-name="backslash.sc" horiz-adv-x="1048" 
d="M297 1212l704 -1212h-249l-705 1212h250z" />
    <glyph glyph-name="braceleft.uc" horiz-adv-x="851" 
d="M791 -266h-224q-137 0 -209 78t-71 215v333q-1 142 -53 194t-175 52v180q123 0 175 52t53 194v334q0 137 71 215q72 78 209 78h224v-180h-91q-160 0 -159 -160v-315q0 -143 -42 -209t-132 -97v-4q90 -30 132 -96t42 -209v-315q0 -160 159 -160h91v-180z" />
    <glyph glyph-name="braceright.uc" horiz-adv-x="851" 
d="M305 -266h-244v180h91q160 0 159 160v336q0 139 41 196t133 88v4q-92 31 -133 88t-41 197v336q0 164 -155 164h-90l-5 176h244q137 0 199 -68t61 -205v-354q0 -143 52 -194t176 -52v-180q-123 0 -175 -51t-53 -195v-354q0 -137 -61 -205q-62 -67 -199 -67z" />
    <glyph glyph-name="bracketleft.uc" horiz-adv-x="862" 
d="M788 -266h-630v1925h630v-180h-376v-1565h376v-180z" />
    <glyph glyph-name="bracketright.uc" horiz-adv-x="862" 
d="M705 -266h-631v180h377v1563h-377v182h631v-1925z" />
    <glyph glyph-name="cent.tab" 
d="M690 -23q-53 0 -115 11l-71 -252h-139l86 297q-129 70 -198 206q-69 137 -69 293q0 422 337 543q89 33 154 33t83 -2l57 201h139l-65 -228q195 -72 272 -288l-196 -76q-43 127 -140 180l-204 -727q37 -10 75 -10q188 0 277 215l190 -76q-139 -320 -473 -320zM702 926
q-122 0 -202 -94t-80 -294t96 -305l197 693h-11z" />
    <glyph glyph-name="colon.tab" horiz-adv-x="665" 
d="M193 0v266h280v-266h-280zM193 821v266h280v-266h-280z" />
    <glyph glyph-name="comma.tab" horiz-adv-x="665" 
d="M193 0v266h280v-231l-129 -264h-117l72 229h-106z" />
    <glyph glyph-name="commaaccent.scrap" horiz-adv-x="565" 
d="M158 1196v215l110 248h107l-66 -217h101v-246h-252z" />
    <glyph glyph-name="divide.sc" horiz-adv-x="1314" 
d="M772 127h-235v215h235v-215zM1180 518h-1043v203h1043v-203zM772 895h-235v215h235v-215z" />
    <glyph glyph-name="divide.tab" 
d="M547 207v215h233v-215h-233zM145 598v203h1043v-203h-1043zM547 975v215h233v-215h-233z" />
    <glyph glyph-name="dollar.sc" horiz-adv-x="1163" 
d="M133 883q0 149 100 240t269 104v119h155v-123q223 -23 351 -219l-160 -113q-43 67 -86 103t-109 53v-345q179 -49 287 -123q109 -74 109 -228q-1 -153 -101 -249t-291 -114v-140h-155v142q-270 27 -410 258l168 102q106 -166 246 -186v379q-166 46 -257 109
q-116 82 -116 231zM653 504v-346q188 18 189 161q0 76 -47 115q-48 39 -142 70zM340 903q0 -65 43 -101t123 -63v318q-80 -6 -123 -48t-43 -106z" />
    <glyph glyph-name="dollar.tab" 
d="M604 -190v176q-332 29 -502 311l177 111q141 -213 331 -236v510q-276 76 -371 178q-94 103 -94 267q0 163 124 278t335 127v145h146v-151q287 -31 428 -262l-174 -125q-56 88 -116 133t-145 59v-459q158 -38 254 -89q95 -52 139 -98q101 -106 101 -278q0 -173 -127 -289
t-360 -130v-178h-146zM1001 395q0 104 -68 161q-69 56 -190 93v-479q258 27 258 225zM381 1118q0 -144 229 -215v440q-63 -4 -138 -43q-91 -46 -91 -182z" />
    <glyph glyph-name="eight.dnom" horiz-adv-x="876" 
d="M436 123q88 0 137 37t49 96t-50 102t-154 86q-170 -76 -170 -186q0 -61 50 -98t138 -37zM590 721q0 49 -38 84t-110 35t-112 -34t-39 -84q0 -50 36 -81t128 -68q71 35 103 67t32 81zM438 -14q-182 0 -283 70t-102 192q0 164 217 260q-88 45 -130 97t-42 143t89 164
t253 73t251 -72t87 -174q0 -145 -176 -225q111 -52 166 -110t55 -166t-101 -181q-102 -71 -284 -71z" />
    <glyph glyph-name="eight.numr" horiz-adv-x="876" 
d="M436 662q88 0 137 36t49 96t-50 103t-154 86q-170 -76 -170 -186q0 -61 50 -98t138 -37zM590 1260q0 50 -38 84t-110 34t-112 -34t-39 -83q0 -50 36 -81t128 -68q71 35 103 67t32 81zM438 524q-182 0 -283 71t-102 191q0 164 217 261q-88 45 -130 97t-42 143t89 164
t253 73t251 -72t87 -174q0 -145 -176 -225q111 -51 166 -109t55 -168q1 -108 -101 -180t-284 -72z" />
    <glyph glyph-name="eight.sc" horiz-adv-x="1071" 
d="M537 139q111 0 177 48t66 126t-60 130t-198 108q-121 -53 -176 -109t-55 -129q-1 -74 67 -124t179 -50zM731 915q0 61 -49 107t-144 47q-94 0 -146 -44q-52 -45 -52 -109t48 -107t161 -88q100 45 141 89t41 105zM1016 292q0 -138 -127 -228q-127 -91 -354 -91t-354 90
q-126 90 -126 238q0 213 283 332q-113 55 -169 125t-56 186t116 204q117 87 312 87t307 -87t110 -216q0 -184 -229 -289q143 -61 215 -137t72 -214z" />
    <glyph glyph-name="eight.tab" 
d="M667 166q144 0 229 62t85 164t-77 171q-77 68 -255 142q-157 -74 -227 -145t-70 -169t85 -162q86 -63 230 -63zM682 891q131 61 184 117q54 56 54 140q0 83 -62 140q-62 58 -188 58q-127 0 -193 -56q-65 -56 -65 -140q0 -86 62 -142t208 -117zM666 -29q-262 0 -416 113
t-154 297q0 262 355 416q-145 72 -217 155q-70 84 -70 226t136 255q136 111 369 111t365 -112t133 -263q0 -231 -297 -364q184 -84 274 -176t91 -261t-153 -283t-416 -114z" />
    <glyph glyph-name="emdash.uc" horiz-adv-x="1914" 
d="M1792 674h-1669v217h1669v-217z" />
    <glyph glyph-name="emdash.uc_salt_em" horiz-adv-x="2048" 
d="M0 674v217h2048v-217h-2048z" />
    <glyph glyph-name="endash.salt_en" horiz-adv-x="1024" 
d="M0 532v216h1024v-216h-1024z" />
    <glyph glyph-name="endash.uc" 
d="M1208 674h-1085v217h1085v-217z" />
    <glyph glyph-name="endash.uc_salt_en" horiz-adv-x="1024" 
d="M0 676v215h1024v-215h-1024z" />
    <glyph glyph-name="equal.sc" horiz-adv-x="1314" 
d="M1174 291h-1035v186h1035v-186zM1174 758h-1035v186h1035v-186z" />
    <glyph glyph-name="equal.tab" 
d="M147 342v186h1035v-186h-1035zM147 809v186h1035v-186h-1035z" />
    <glyph glyph-name="exclam.sc" horiz-adv-x="602" 
d="M170 219h262v-219h-262v219zM154 1212h295l-58 -847h-176z" />
    <glyph glyph-name="exclamdown.sc" horiz-adv-x="602" 
d="M389 848l60 -848h-293l57 848h176zM432 1212v-219h-262v219h262z" />
    <glyph glyph-name="fi.sc" horiz-adv-x="1599" 
d="M395 0h-248v1212h832v-200h-584v-320h422v-192h-422v-500zM1440 0h-248v1212h248v-1212z" />
    <glyph glyph-name="five.dnom" horiz-adv-x="841" 
d="M403 -14q-219 0 -356 151l100 127q104 -119 252 -119q91 -1 139 49t48 133t-45 128t-133 45t-162 -92l-146 47l37 512h586l-12 -164h-416l-16 -225q61 68 198 68t223 -84t86 -242t-104 -246t-279 -88z" />
    <glyph glyph-name="five.numr" horiz-adv-x="841" 
d="M403 524q-219 0 -356 152l100 127q104 -119 252 -119q90 0 139 49q48 49 48 132t-45 128t-133 45t-162 -92l-146 47l37 512h586l-12 -164h-416l-16 -225q61 68 198 68t223 -83t86 -242t-104 -247t-279 -88z" />
    <glyph glyph-name="five.sc" horiz-adv-x="1015" 
d="M494 -29q-293 0 -463 191l139 164q135 -154 317 -154q123 0 185 64t63 170q0 108 -59 165t-168 58q-156 0 -246 -127l-156 49l48 661h735l-17 -200h-536l-23 -293q82 88 259 88t287 -108t110 -299t-130 -310t-345 -119z" />
    <glyph glyph-name="five.tab" 
d="M641 -29q-338 0 -535 230l158 170q145 -172 365 -172q159 0 239 83t80 226t-77 222t-214 79q-184 0 -301 -156l-163 58l57 805h858l-14 -220h-650l-28 -387q108 113 316 113t339 -141t131 -374t-154 -385t-407 -151z" />
    <glyph glyph-name="fl.sc" horiz-adv-x="2060" 
d="M395 0h-248v1212h832v-200h-584v-320h422v-192h-422v-500zM2009 0h-831v1212h247v-1015h584v-197z" />
    <glyph glyph-name="florin.sc" horiz-adv-x="737" 
d="M-31 -180q129 0 148 125q8 68 46 339t46 339h-150l19 163h153q1 18 9 76t10 76q18 125 95 194t241 68q104 0 137 -8l-25 -166q-41 8 -71 8q-131 0 -146 -110l-18 -138h194l-20 -163h-193q-38 -327 -100 -727q-37 -244 -332 -244q-96 0 -137 8l23 168q41 -8 71 -8z" />
    <glyph glyph-name="florin.tab" 
d="M227 -233q166 0 187 161l118 885h-188l23 182h188l27 203q18 154 108 239t287 85q125 0 149 -11l-24 -182q-25 6 -84 6q-170 0 -184 -141l-27 -199h237l-22 -182h-238l-122 -926q-18 -141 -108 -221t-284 -80q-108 0 -149 8l22 179q25 -6 84 -6z" />
    <glyph glyph-name="four.dnom" horiz-adv-x="886" 
d="M508 367v368l-248 -368h248zM498 2v213h-439v129l428 623h213v-590h154v-162h-154v-213h-202z" />
    <glyph glyph-name="four.numr" horiz-adv-x="886" 
d="M508 905v369l-248 -369h248zM498 541v213h-439v129l428 622h213v-590h154v-161h-154v-213h-202z" />
    <glyph glyph-name="four.sc" horiz-adv-x="1091" 
d="M631 436v498h-2l-338 -498h340zM860 0h-229v248h-590v170l557 794h262v-776h207v-188h-207v-248z" />
    <glyph glyph-name="four.tab" 
d="M791 532v680h-5l-444 -680h449zM791 0v311h-701v201l655 1004h293v-984h222v-221h-222v-311h-247z" />
    <glyph glyph-name="germandbls.sc" horiz-adv-x="2408" 
d="M1110 334q0 -172 -136 -266t-334 -95q-405 0 -554 293l188 117q42 -105 138 -161t209 -56q246 0 245 156q0 67 -38 105q-38 37 -103 53q-63 18 -141 36t-133 34q-164 46 -230 112q-90 90 -90 240t122 241q122 92 320 92q360 0 502 -248l-170 -123q-45 84 -133 131
t-190 47q-211 0 -211 -139q1 -91 79 -129q75 -36 280 -80t293 -132q87 -87 87 -228zM1844 -27q-405 0 -554 293l189 117q43 -105 138 -161t208 -56q246 0 246 156q0 66 -39 104t-103 54q-63 18 -141 36t-133 34q-164 46 -230 112q-90 90 -90 240t122 241q122 92 321 92
q360 0 501 -248l-170 -123q-45 84 -133 131t-190 47q-211 0 -211 -139q1 -91 79 -129q73 -35 279 -80q207 -45 295 -133t86 -227q0 -172 -136 -266t-334 -95z" />
    <glyph glyph-name="greater.sc" horiz-adv-x="1314" 
d="M1206 545l-1083 -471v213l809 331l-809 332v213l1083 -471v-147z" />
    <glyph glyph-name="greater.tab" 
d="M131 119v213l809 332l-809 331v213l1083 -471v-147z" />
    <glyph glyph-name="guillemotleft.uc" horiz-adv-x="1204" 
d="M637 143h-246l-325 545l325 543h246l-313 -543zM1118 143h-244l-327 545l327 543h244l-315 -543z" />
    <glyph glyph-name="guillemotright.uc" horiz-adv-x="1204" 
d="M330 143h-246l315 545l-315 543h246l327 -543zM811 143h-244l314 545l-314 543h244l326 -543z" />
    <glyph glyph-name="guilsinglleft.uc" horiz-adv-x="722" 
d="M637 143h-246l-325 545l325 543h246l-313 -543z" />
    <glyph glyph-name="guilsinglright.uc" horiz-adv-x="722" 
d="M330 143h-246l315 545l-315 543h246l327 -543z" />
    <glyph glyph-name="hyphen.uc" horiz-adv-x="731" 
d="M618 696h-505v181h505v-181z" />
    <glyph glyph-name="i.trk" horiz-adv-x="557" 
d="M406 0h-254v1087h254v-1087zM408 1276h-258v219h258v-219z" />
    <glyph glyph-name="less.sc" horiz-adv-x="1314" 
d="M1200 287v-213l-1083 471v147l1083 471v-213l-809 -332z" />
    <glyph glyph-name="less.tab" 
d="M1208 119l-1083 471v147l1083 471v-213l-809 -331l809 -332v-213z" />
    <glyph glyph-name="minus.sc" horiz-adv-x="1314" 
d="M1180 516h-1043v203h1043v-203z" />
    <glyph glyph-name="minus.tab" 
d="M145 598v203h1043v-203h-1043z" />
    <glyph glyph-name="minute.tab" horiz-adv-x="665" 
d="M207 979l35 401l24 136h223l-129 -537h-153z" />
    <glyph glyph-name="multiply.sc" horiz-adv-x="1314" 
d="M657 473l-335 -338l-150 150l336 333l-336 334l150 148l333 -334l334 334l148 -148l-332 -331l336 -334l-150 -148z" />
    <glyph glyph-name="multiply.tab" 
d="M330 174l-148 148l334 333l-334 334l148 148l334 -334l333 334l148 -148l-332 -332l336 -333l-148 -148l-335 334z" />
    <glyph glyph-name="nine.dnom" horiz-adv-x="892" 
d="M387 -14q-186 0 -295 90l88 139q94 -68 207 -68t167 70t58 221q-117 -98 -254 -98t-221 82t-84 232q-1 150 97 240q98 91 278 91t284 -123q104 -124 103 -370q0 -246 -121 -376t-307 -130zM414 492q109 0 196 94q-8 117 -58 178t-132 61t-127 -45t-45 -123
q0 -165 166 -165z" />
    <glyph glyph-name="nine.numr" horiz-adv-x="892" 
d="M387 524q-186 0 -295 90l88 140q94 -68 207 -68t167 70t58 221q-117 -98 -254 -98t-221 82q-84 81 -84 231q-1 150 97 241t278 91t284 -123t103 -370q0 -247 -121 -377t-307 -130zM414 1030q109 0 196 94q-8 116 -58 178t-132 62t-127 -45t-45 -123q0 -166 166 -166z" />
    <glyph glyph-name="nine.sc" horiz-adv-x="1089" 
d="M477 -27q-223 0 -360 111l108 168q109 -88 243 -88t216 106t92 291q-49 -53 -134 -92t-175 -39q-184 0 -295 104t-111 289q0 184 125 299t339 115t348 -158q135 -159 135 -459t-154 -474t-377 -173zM506 604q158 0 270 125q-10 162 -81 243t-178 81q-107 1 -167 -59
t-61 -165q0 -225 217 -225z" />
    <glyph glyph-name="nine.tab" 
d="M582 -29q-264 0 -432 135l126 187q136 -107 304 -107t269 144t112 385q-181 -164 -393 -164t-341 124t-129 353q0 228 148 372t397 144q248 0 408 -196q159 -196 159 -571q0 -374 -182 -590t-446 -216zM618 756q209 0 340 157q-29 412 -331 412q-135 0 -210 -76t-75 -211
q0 -282 276 -282z" />
    <glyph glyph-name="numbersign.sc" horiz-adv-x="1316" 
d="M72 313v183h225l47 223h-199v182h240l66 311h217l-68 -311h219l68 311h217l-68 -311h209v-182h-248l-47 -223h221v-183h-260l-67 -313h-217l65 313h-217l-69 -313h-216l68 313h-186zM561 719l-47 -223h219l47 223h-219z" />
    <glyph glyph-name="numbersign.tab" 
d="M76 408v190h213l61 320h-196v190h227l76 408h202l-79 -408h276l78 408h199l-76 -408h196v-190h-227l-61 -320h213v-190h-244l-76 -408h-201l74 408h-272l-78 -408h-199l74 408h-180zM489 598h275l59 320h-272z" />
    <glyph glyph-name="one.dnom" horiz-adv-x="673" 
d="M94 2v166h174v625q-82 -39 -172 -39v151q123 4 180 62h199v-799h156v-166h-537z" />
    <glyph glyph-name="one.numr" horiz-adv-x="673" 
d="M94 541v166h174v624q-82 -39 -172 -39v152q123 4 180 61h199v-798h156v-166h-537z" />
    <glyph glyph-name="one.sc" horiz-adv-x="819" 
d="M770 0h-694v199h256v782q-115 -61 -252 -61v208q170 4 260 84h205v-1013h225v-199z" />
    <glyph glyph-name="one.tab" 
d="M256 0v225h319v1030q-53 -29 -150 -49t-165 -20v231q227 8 324 99h239v-1291h289v-225h-856z" />
    <glyph glyph-name="ordfeminine.sc" horiz-adv-x="944" 
d="M266 463h-172l283 754h188l283 -754h-189l-57 166h-272zM465 1016l-94 -262h190l-69 190l-23 72h-4z" />
    <glyph glyph-name="ordmasculine.sc" horiz-adv-x="923" 
d="M460 582q93 0 143 70t50 186t-48 188t-141 72t-142 -71q-50 -71 -50 -185t47 -188q48 -72 141 -72zM463 444q-155 0 -265 100t-110 298q0 197 110 296t266 99t264 -99q110 -99 110 -296q0 -198 -110 -298t-265 -100z" />
    <glyph glyph-name="parenleft.tab" horiz-adv-x="665" 
d="M29 574q0 294 130 535t388 458l115 -123q-367 -373 -367 -874t373 -873l-121 -117q-258 217 -388 459q-130 241 -130 535z" />
    <glyph glyph-name="parenleft.uc" horiz-adv-x="821" 
d="M748 -160l-123 -116q-258 216 -388 458q-131 242 -131 536t130 534t389 458l116 -125q-369 -373 -369 -871t376 -874z" />
    <glyph glyph-name="parenright.tab" horiz-adv-x="665" 
d="M371 570q0 502 -369 874l117 123q258 -217 388 -458t130 -535t-130 -536t-388 -458l-123 117q375 371 375 873z" />
    <glyph glyph-name="parenright.uc" horiz-adv-x="821" 
d="M449 714q0 499 -369 871l117 125q258 -217 388 -458q130 -240 130 -534t-130 -536t-388 -458l-123 116q375 375 375 874z" />
    <glyph glyph-name="percent.sc" horiz-adv-x="1826" 
d="M1313 371q0 -236 129 -236q129 -1 129 233t-127 234q-61 0 -96 -60t-35 -171zM1442 -23q-143 0 -230 108q-86 108 -86 284q0 177 89 285t229 108t227 -108q86 -108 86 -282t-86 -285q-86 -110 -229 -110zM254 852q0 -234 131 -234t131 232t-129 233q-63 0 -98 -60
t-35 -171zM442 0l725 1212h209l-725 -1212h-209zM700 853q0 -175 -86 -283t-229 -109q-143 0 -229 106q-86 105 -86 283t89 286t229 108t226 -108t86 -283z" />
    <glyph glyph-name="percent.tab" horiz-adv-x="2007" 
d="M1539 166q163 0 163 292t-163 292t-163 -292t163 -292zM1538 -18q-168 0 -264 126t-96 351t98 351t264 126t263 -125t97 -349t-96 -352q-98 -128 -266 -128zM469 764q162 0 162 292t-162 292t-162 -292t162 -292zM500 0l837 1516h170l-837 -1516h-170zM469 580
q-168 0 -265 126q-98 126 -98 351t98 351t266 126q167 0 264 -125t97 -349t-97 -352t-265 -128z" />
    <glyph glyph-name="period.tab" horiz-adv-x="665" 
d="M193 0v266h280v-266h-280z" />
    <glyph glyph-name="periodcentered.tab" horiz-adv-x="665" 
d="M188 541v266h291v-266h-291z" />
    <glyph glyph-name="periodcentered.uc" horiz-adv-x="575" 
d="M434 684h-293v266h293v-266z" />
    <glyph glyph-name="perthousand.sc" horiz-adv-x="2551" 
d="M1432 135q129 -1 129 233t-127 234q-60 0 -96 -60t-35 -171q0 -236 129 -236zM2181 135q127 -1 127 233t-129 234q-61 0 -96 -60t-35 -171q0 -236 133 -236zM1432 -23q-143 0 -230 108q-86 108 -86 284q0 177 89 285t229 108t227 -108q86 -108 86 -282t-86 -285
q-86 -110 -229 -110zM2177 -23q-143 0 -229 108t-86 285q0 176 89 284t229 108t226 -108t86 -282t-86 -285q-86 -110 -229 -110zM244 852q0 -234 131 -234t131 232t-129 233q-63 0 -98 -60t-35 -171zM432 0l725 1212h209l-725 -1212h-209zM690 853q0 -175 -86 -283
t-229 -109q-143 0 -230 106q-86 105 -86 283t89 286q90 108 230 108t226 -108t86 -283z" />
    <glyph glyph-name="plus.sc" horiz-adv-x="1314" 
d="M762 86h-209v430h-416v203h416v430h209v-430h418v-203h-418v-430z" />
    <glyph glyph-name="plus.tab" 
d="M563 168v430h-418v203h418v430h207v-430h418v-203h-418v-430h-207z" />
    <glyph glyph-name="question.sc" horiz-adv-x="1013" 
d="M596 219v-219h-262v219h262zM694 905q0 141 -188 141t-328 -143l-125 158q180 180 465 180q201 0 307 -85q107 -85 107 -214q0 -128 -58 -194t-157 -121q-98 -55 -128 -107t-22 -160h-200q-29 170 33 253q42 55 130 105t126 88t38 99z" />
    <glyph glyph-name="questiondown.sc" horiz-adv-x="995" 
d="M641 730q0 -74 -43 -130t-131 -105q-88 -50 -126 -88t-38 -100q0 -141 199 -141q176 0 319 143l125 -157q-182 -182 -465 -183q-201 0 -307 86t-106 230q0 80 35 141q36 61 77 93t120 77t109 96q29 51 21 160h203q8 -48 8 -122zM401 993v219h265v-219h-265z" />
    <glyph glyph-name="registered.salt_big" horiz-adv-x="1771" 
d="M748 344h-162v858h317q154 0 238 -66t84 -196q0 -184 -174 -242l186 -354h-174l-172 334h-143v-334zM748 1059v-258h147q170 0 170 129t-172 129h-145zM888 90q278 0 464 192q188 192 188 474t-189 476t-467 194t-465 -192q-187 -191 -187 -474q0 -282 188 -476
q190 -194 468 -194zM1669 760q0 -330 -227 -560t-558 -229t-556 227t-226 558q0 332 228 560t558 228q331 0 556 -227t225 -557z" />
    <glyph glyph-name="second.tab" 
d="M348 979l35 401l25 136h223l-129 -537h-154zM729 979l35 401l24 136h224l-129 -537h-154z" />
    <glyph glyph-name="semicolon.tab" horiz-adv-x="665" 
d="M193 0v266h280v-227l-131 -268h-117l72 229h-104zM193 821v266h280v-266h-280z" />
    <glyph glyph-name="seven.dnom" horiz-adv-x="770" 
d="M51 797v170h670v-154l-371 -811h-213l367 795h-453z" />
    <glyph glyph-name="seven.numr" horiz-adv-x="770" 
d="M51 1335v170h670v-153l-371 -811h-213l367 794h-453z" />
    <glyph glyph-name="seven.sc" horiz-adv-x="931" 
d="M51 1014v198h838v-186l-483 -1026h-240l479 1014h-594z" />
    <glyph glyph-name="seven.tab" 
d="M166 1284v232h1008v-216l-607 -1300h-260l604 1284h-745z" />
    <glyph glyph-name="six.dnom" horiz-adv-x="892" 
d="M472 141q81 0 126 45t45 123q0 164 -166 164q-113 0 -196 -94q8 -115 59 -177t132 -61zM840 317q0 -151 -98 -241t-278 -90q-181 0 -284 123q-102 123 -102 371t116 376q116 129 305 129t300 -92l-88 -143q-94 70 -207 70t-166 -72q-53 -70 -59 -222q113 98 253 98
t224 -78q84 -79 84 -229z" />
    <glyph glyph-name="six.numr" horiz-adv-x="892" 
d="M472 680q81 0 126 45t45 123q0 164 -166 164q-113 0 -196 -94q8 -114 59 -176t132 -62zM532 1163q140 0 224 -79q84 -78 84 -228t-98 -241t-278 -91q-181 0 -284 123q-102 123 -102 371t116 377t305 129t300 -92l-88 -144q-94 70 -207 70t-166 -71t-59 -222
q113 98 253 98z" />
    <glyph glyph-name="six.sc" horiz-adv-x="1087" 
d="M574 152q106 0 166 63t61 168q0 217 -217 217q-164 0 -271 -119q14 -165 85 -247q70 -82 176 -82zM564 -27q-214 0 -348 159t-134 459t155 473t367 173t350 -100l-104 -166q-102 78 -234 78q-132 1 -212 -105q-81 -106 -91 -291q129 129 311 129t292 -103t110 -289
t-124 -301q-124 -116 -338 -116z" />
    <glyph glyph-name="six.tab" 
d="M705 186q133 0 207 78t75 215q0 272 -276 273q-215 0 -338 -150q29 -416 332 -416zM1231 488q-1 -230 -149 -374t-396 -143q-248 0 -408 197q-160 196 -159 570q0 374 183 590t442 216t419 -121l-127 -198q-130 94 -292 94t-264 -139t-109 -379q174 164 388 164t343 -124
q129 -123 129 -353z" />
    <glyph glyph-name="slash.sc" horiz-adv-x="1048" 
d="M297 0h-250l705 1212h249z" />
    <glyph glyph-name="slash.tab" 
d="M96 0l881 1516h260l-881 -1516h-260z" />
    <glyph glyph-name="space.frac" horiz-adv-x="163" 
 />
    <glyph glyph-name="space.tab" horiz-adv-x="665" 
 />
    <glyph glyph-name="space.tab_em" horiz-adv-x="2662" 
 />
    <glyph glyph-name="space.tab_thin" horiz-adv-x="333" 
 />
    <glyph glyph-name="space.thin_fra" horiz-adv-x="245" 
 />
    <glyph glyph-name="sterling.sc" horiz-adv-x="1142" 
d="M274 102q90 0 129 74q-72 72 -122 72q-97 0 -97 -73t90 -73zM264 -27q-96 1 -163 49t-66 146q0 98 66 155q67 56 161 56t184 -64q4 33 3 56q-2 78 -62 188h-231v125h145q-76 125 -76 223q1 139 107 233t274 95q346 0 398 -336l-209 -37q-29 195 -179 195q-72 0 -114 -39
t-43 -116q0 -77 88 -218h291v-125h-224q41 -96 41 -187t-26 -167q77 -63 143 -63t100 42q34 43 39 148h189q-8 -166 -74 -262t-215 -96t-289 100q-100 -101 -258 -101z" />
    <glyph glyph-name="sterling.tab" 
d="M317 111q115 0 166 106q-92 88 -164 88q-45 1 -73 -27t-27 -72q-1 -44 27 -70t71 -25zM715 1335q-89 0 -141 -50t-52 -147t101 -280h352v-168h-275q45 -119 45 -228t-36 -214q113 -92 189 -92t109 53q34 53 42 192h208q-4 -190 -62 -299q-71 -131 -248 -131t-341 138
q-115 -137 -293 -138q-106 -1 -181 57t-75 172t75 182t182 67q107 0 204 -78q4 65 -4 137t-59 182h-273v168h183q-86 162 -86 281q0 176 118 291q119 114 323 114t308 -112t125 -283l-215 -43q-29 229 -223 229z" />
    <glyph glyph-name="three.dnom" horiz-adv-x="870" 
d="M430 -12q-246 0 -373 198l129 109q94 -137 230 -137q82 0 124 37t42 105t-52 104q-52 34 -172 34h-69v148h73q109 0 155 30t46 93q0 106 -124 106t-228 -106l-117 122q150 156 352 156q156 0 239 -71t83 -187q0 -160 -152 -209q178 -55 179 -231q-1 -139 -99 -220
t-266 -81z" />
    <glyph glyph-name="three.numr" horiz-adv-x="870" 
d="M430 526q-246 0 -373 199l129 109q94 -137 230 -138q82 0 124 37t42 105q0 138 -224 139h-69v147h73q109 0 155 31t46 92q0 107 -124 107t-228 -107l-117 123q150 156 352 156q156 0 239 -71t83 -187q0 -160 -152 -209q178 -55 179 -232q-1 -139 -99 -220t-266 -81z" />
    <glyph glyph-name="three.sc" horiz-adv-x="1056" 
d="M504 -29q-295 0 -463 222l149 129q115 -156 306 -156q238 0 237 178q0 109 -75 155t-246 46h-60v180h64q168 0 230 41t63 125q0 150 -205 149q-158 0 -277 -120l-135 137q82 82 196 132t238 50q196 0 306 -87t110 -228q0 -109 -64 -186t-184 -97q135 -16 209 -99t74 -208
q0 -164 -132 -264t-341 -99z" />
    <glyph glyph-name="three.tab" 
d="M629 -29q-362 0 -551 267l176 151q152 -190 367 -190q143 0 220 58t77 187q0 128 -96 188t-310 60h-66v209h74q205 0 286 56q81 57 81 159q-1 102 -61 150t-195 47q-211 0 -342 -142l-152 156q91 101 229 159t289 58q231 0 357 -105t127 -280q0 -137 -77 -232t-216 -122
q166 -31 251 -130t85 -255q0 -203 -154 -326t-399 -123z" />
    <glyph glyph-name="two.dnom" horiz-adv-x="870" 
d="M84 4v49q0 121 60 222t237 210q113 70 151 110t37 98q0 120 -126 120t-210 -156l-145 99q133 231 363 231q155 0 237 -78t82 -209q0 -94 -54 -172t-194 -155q-178 -106 -203 -199h455v-170h-690z" />
    <glyph glyph-name="two.numr" horiz-adv-x="870" 
d="M84 543v49q0 121 60 222t237 210q113 70 151 110t37 98q0 120 -126 120t-210 -156l-145 98q133 231 363 232q155 0 237 -78t82 -209q0 -94 -54 -172t-194 -156q-178 -106 -203 -198h455v-170h-690z" />
    <glyph glyph-name="two.sc" horiz-adv-x="1024" 
d="M78 958q152 281 472 281q164 0 270 -95q106 -94 108 -236q0 -142 -67 -230t-220 -191q-285 -186 -301 -290h594v-197h-873v31q0 151 83 281t311 276q135 86 190 148t55 138q0 162 -178 162t-272 -182z" />
    <glyph glyph-name="two.tab" 
d="M129 0v33q0 92 15 164q14 73 62 157q95 168 388 361q182 121 251 197t68 186q0 215 -243 215q-215 0 -344 -221l-183 122q188 330 537 330q225 0 353 -116t128 -314q0 -145 -75 -260q-74 -115 -276 -246t-291 -218t-109 -165h757v-225h-1038z" />
    <glyph glyph-name="yen.sc" horiz-adv-x="1144" 
d="M455 0v176h-303v129h303v115h-303v127h299l-406 665h248l282 -483l283 483h244l-408 -665h305v-127h-307v-115h307v-127h-307v-178h-237z" />
    <glyph glyph-name="yen.tab" 
d="M537 0v199h-367v172h367v143h-367v168h360l-487 834h268l357 -627l356 627h264l-491 -834h366v-168h-370v-143h370v-172h-370v-199h-256z" />
    <glyph glyph-name="zero.dnom" horiz-adv-x="956" 
d="M478 150q196 0 196 334t-196 333q-196 1 -196 -333t196 -334zM478 -14q-192 0 -296 133t-104 363t104 366t296 137q192 0 296 -136q106 -137 106 -367t-105 -363t-297 -133z" />
    <glyph glyph-name="zero.numr" horiz-adv-x="956" 
d="M674 1022q0 334 -196 334t-196 -334t196 -334t196 334zM78 1020q0 230 104 368q104 136 296 136t296 -136q106 -136 106 -366t-105 -364t-297 -134t-296 133t-104 363z" />
    <glyph glyph-name="zero.salt_slash" horiz-adv-x="1388" 
d="M696 197q342 0 342 561q0 154 -28 268l-561 -698q87 -131 247 -131zM350 758q0 -164 31 -277l561 705q-86 129 -246 129q-346 0 -346 -557zM696 -29q-282 0 -442 214q-160 215 -160 573t160 572t442 214t441 -213q157 -213 157 -573t-157 -574q-158 -213 -441 -213z" />
    <glyph glyph-name="zero.sc" horiz-adv-x="1150" 
d="M575 166q262 0 263 440q0 219 -69 328t-194 108q-264 0 -264 -436q-1 -220 69 -330t195 -110zM575 -27q-237 0 -369 172t-132 461t133 460t369 171t368 -171q133 -171 133 -460t-133 -461t-369 -172z" />
    <glyph glyph-name="zero.sc_salt_slash" horiz-adv-x="1150" 
d="M575 166q264 0 265 440q0 127 -25 217l-418 -573q67 -84 178 -84zM311 606q0 -121 23 -215l418 567q-63 84 -177 84q-264 0 -264 -436zM575 -27q-237 0 -369 172t-132 461t133 460t369 171t368 -171q133 -171 133 -460t-133 -461t-369 -172z" />
    <glyph glyph-name="zero.tab" 
d="M668 193q164 0 253 142t89 422t-91 422t-255 142t-253 -141t-89 -421t91 -423t255 -143zM666 -29q-274 0 -432 214q-156 215 -156 573t156 572q158 214 432 214t431 -214t157 -572t-157 -573q-157 -214 -431 -214z" />
    <glyph glyph-name="zero.tab_salt_slash" 
d="M668 197q342 0 342 561q0 154 -29 268l-561 -698q88 -131 248 -131zM322 758q0 -164 30 -277l561 705q-86 129 -245 129q-346 0 -346 -557zM668 -29q-283 0 -443 214q-159 215 -159 573t159 572q160 214 443 214q282 0 440 -213t158 -573t-158 -574t-440 -213z" />
    </font>
</defs>
</svg>
