<?xml version="1.0" standalone="no"?>
<!DOCTYPE svg PUBLIC "-//W3C//DTD SVG 1.1//EN" "http://www.w3.org/Graphics/SVG/1.1/DTD/svg11.dtd" >
<svg xmlns="http://www.w3.org/2000/svg">
<metadata>
Created by FontPrep 20130207 at Wed Feb 24 14:44:53 2016
 By Callum Flack
Copyright 2000-2003, The Font Bureau, Inc. Designed by Cyrus Highsmith, Tobias Frere-Jones, and Font Bureau. All rights reserved.
</metadata>
<defs>
<font id="68f7b38655a077d00ecf5d03d0d23165" horiz-adv-x='1024' >
  <font-face 
    font-family="BentonSans-Thin"
    font-weight="400"
    font-stretch="normal"
    units-per-em="2048"
    panose-1="2 0 5 3 3 0 0 2 0 4"
    ascent="1638"
    descent="-410"
    x-height="1075"
    cap-height="1516"
    bbox="-150 -418 2578 1931"
    underline-thickness="40"
    underline-position="-231"
    unicode-range="U+0020-FB0C"
  />
<missing-glyph horiz-adv-x="1597" 
d="M778 737h-291l2 -288l289 -3v291zM819 737v-291l287 3l4 288h-291zM778 778v291l-289 -2l-2 -289h291zM819 778h291l-4 287l-287 4v-291zM444 315v88h-88v48l88 -2l5 288l-408 -6v51l408 -4l-5 289l-88 -2v47h88v88h48l-3 -90l289 -2l-4 408h51l-6 -408l289 2l-2 90h47
l-2 -90l90 2v-47h-90l-2 -287l407 4v-51l-407 6l2 -288l90 2v-48h-90l2 -88h-47v91l-287 2l6 -408h-51l4 408l-289 -5l3 -88h-48z" />
    <glyph glyph-name="ff" unicode="ff" horiz-adv-x="1181" 
d="M819 1075v211q0 123 75 177t239 57v-45q-143 0 -205 -42t-62 -143v-215h258v-45h-258v-1030h-47v1030h-510v-1030h-47v1030h-188v45h188v211q0 123 75 177t238 57v-45q-143 0 -204 -42t-62 -143v-215h510z" />
    <glyph glyph-name="fi" unicode="fi" horiz-adv-x="1062" 
d="M819 0v1075h47v-1075h-47zM262 1030h-188v45h188v211q0 123 75 177t238 57v-45q-143 0 -204 -42t-62 -143v-215h258v-45h-258v-1030h-47v1030zM811 1356v86h66v-86h-66z" />
    <glyph glyph-name="ffi" unicode="ffi" horiz-adv-x="1619" 
d="M1376 0v1075h47v-1075h-47zM819 1075v211q0 123 75 177t239 57v-45q-143 0 -205 -42t-62 -143v-215h258v-45h-258v-1030h-47v1030h-510v-1030h-47v1030h-188v45h188v211q0 123 75 177t238 57v-45q-143 0 -204 -42t-62 -143v-215h510zM1368 1356v86h66v-86h-66z" />
    <glyph glyph-name="ffl" unicode="ffl" horiz-adv-x="1619" 
d="M1376 0v1516h47v-1516h-47zM819 1075v211q0 123 75 177t239 57v-45q-143 0 -205 -42t-62 -143v-215h258v-45h-258v-1030h-47v1030h-510v-1030h-47v1030h-188v45h188v211q0 123 75 177t238 57v-45q-143 0 -204 -42t-62 -143v-215h510z" />
    <glyph glyph-name="fj" unicode="fj" horiz-adv-x="1062" 
d="M727 -412q-23 0 -59 6v46q33 -8 55 -9q96 0 96 113v1331h47v-1321q0 -166 -139 -166zM262 0v1030h-188v45h188v211q0 123 75 177t238 57v-45q-143 0 -204 -42t-62 -143v-215h258v-45h-258v-1030h-47zM811 1356v86h66v-86h-66z" />
    <glyph glyph-name=".notdef" horiz-adv-x="1597" 
d="M778 737h-291l2 -288l289 -3v291zM819 737v-291l287 3l4 288h-291zM778 778v291l-289 -2l-2 -289h291zM819 778h291l-4 287l-287 4v-291zM444 315v88h-88v48l88 -2l5 288l-408 -6v51l408 -4l-5 289l-88 -2v47h88v88h48l-3 -90l289 -2l-4 408h51l-6 -408l289 2l-2 90h47
l-2 -90l90 2v-47h-90l-2 -287l407 4v-51l-407 6l2 -288l90 2v-48h-90l2 -88h-47v91l-287 2l6 -408h-51l4 408l-289 -5l3 -88h-48z" />
    <glyph glyph-name=".null" horiz-adv-x="0" 
 />
    <glyph glyph-name="nonmarkingreturn" horiz-adv-x="681" 
 />
    <glyph glyph-name="space" unicode=" " horiz-adv-x="411" 
 />
    <glyph glyph-name="exclam" unicode="!" horiz-adv-x="604" 
d="M258 0v106h88v-106h-88zM285 313l-11 1203h56l-11 -1203h-34z" />
    <glyph glyph-name="quotedbl" unicode="&#x22;" horiz-adv-x="772" 
d="M197 1516h49v-105l-15 -401h-20l-14 401v105zM526 1516h49v-105l-14 -401h-20l-15 401v105z" />
    <glyph glyph-name="numbersign" unicode="#" horiz-adv-x="1411" 
d="M991 995h-475l-98 -469h475zM1309 1042v-47h-271l-98 -469h277v-47h-287l-101 -479h-47l101 479h-475l-101 -479h-47l100 479h-256v47h267l98 469h-272v47h282l99 474h47l-99 -474h475l99 474h47l-98 -474h260z" />
    <glyph glyph-name="dollar" unicode="$" horiz-adv-x="1296" 
d="M1108 360q0 156 -92 242t-340 166v-752q196 2 314 94q118 94 118 250zM262 1188q0 -134 76 -206t287 -142v659q-167 -6 -265 -92t-98 -219zM625 -190v161q-340 12 -465 303l47 21q59 -133 153 -202t265 -77v770q-242 80 -328 164t-86 236t113 254q113 100 301 106v131h51
v-131q268 -14 399 -237l-43 -27q-123 203 -356 217v-678q272 -88 378 -181q106 -94 105 -276q0 -182 -135 -287t-348 -108v-159h-51z" />
    <glyph glyph-name="percent" unicode="%" horiz-adv-x="1914" 
d="M1442 831q-125 -1 -197 -109q-71 -108 -71 -290t70 -290t194 -108q126 0 200 108t74 290t-72 290t-198 109zM471 1481q-125 0 -197 -109t-72 -291q0 -181 70 -289t195 -108t200 108t75 290t-73 290q-73 109 -198 109zM1763 432q0 -208 -89 -326t-235 -118t-232 118
q-85 119 -85 326t87 327t233 120t233 -120q88 -120 88 -327zM1430 1516l-904 -1516h-51l903 1516h52zM793 1081q1 -207 -89 -325t-236 -119q-146 0 -231 119q-85 120 -85 326t87 326t232 120t233 -120t89 -327z" />
    <glyph glyph-name="ampersand" unicode="&#x26;" horiz-adv-x="1456" 
d="M561 25q283 0 449 176q-246 188 -443 483q-57 88 -71 113q-152 -83 -245 -185t-93 -258t114 -242q114 -87 289 -87zM680 1499q-110 0 -192 -80q-83 -80 -82 -207q-1 -159 110 -354q209 109 268 156q138 106 138 234t-66 190q-66 61 -176 61zM561 -23q-199 -1 -327 99
t-128 274t100 284t267 200q-119 204 -119 366t98 254t231 92q132 0 211 -74t79 -210q0 -76 -26 -136q-27 -60 -99 -117q-72 -56 -111 -80q-39 -23 -111 -61t-87 -47q213 -360 501 -583q145 182 181 507h51q-37 -342 -193 -536q162 -121 314 -158v-53q-170 43 -346 174
q-185 -195 -486 -195z" />
    <glyph glyph-name="quotesingle" unicode="'" horiz-adv-x="442" 
d="M197 1516h49v-105l-15 -401h-20l-14 401v105z" />
    <glyph glyph-name="parenleft" unicode="(" horiz-adv-x="800" 
d="M207 552q0 -263 129 -513t354 -424l-24 -33q-246 193 -378 444t-132 526t131 525t379 447l24 -33q-227 -180 -355 -428t-128 -511z" />
    <glyph glyph-name="parenright" unicode=")" horiz-adv-x="800" 
d="M594 554q0 263 -129 513t-354 424l24 33q246 -193 378 -444t132 -526t-131 -525t-379 -447l-24 33q227 180 355 428t128 511z" />
    <glyph glyph-name="asterisk" unicode="*" horiz-adv-x="1036" 
d="M496 1137l-381 -9v41l381 -8l-197 328l35 20l184 -333l184 333l35 -20l-196 -328l381 8v-41l-381 9l196 -328l-35 -21l-184 334l-184 -334l-35 21z" />
    <glyph glyph-name="plus" unicode="+" horiz-adv-x="1277" 
d="M614 156v485h-481v47h481v483h52v-483h479v-47h-479v-485h-52z" />
    <glyph glyph-name="comma" unicode="," horiz-adv-x="522" 
d="M217 0v106h88v-94l-49 -182h-33l33 170h-39z" />
    <glyph glyph-name="hyphen" unicode="-" horiz-adv-x="716" 
d="M152 623v47h413v-47h-413z" />
    <glyph glyph-name="period" unicode="." horiz-adv-x="522" 
d="M217 0v106h88v-106h-88z" />
    <glyph glyph-name="slash" unicode="/" horiz-adv-x="1062" 
d="M80 0l852 1516h51l-852 -1516h-51z" />
    <glyph glyph-name="zero" unicode="0" horiz-adv-x="1312" 
d="M657 18q233 0 356 204q122 204 122 536t-122 536q-121 204 -355 205q-234 0 -357 -205q-123 -204 -123 -536t123 -536t356 -204zM657 1546q253 0 391 -217t138 -571t-138 -572t-390 -217q-252 0 -392 218q-139 219 -139 571t139 570t391 218z" />
    <glyph glyph-name="one" unicode="1" horiz-adv-x="862" 
d="M444 49v1403q-115 -84 -297 -84v51q176 0 304 97h45v-1467h268v-49h-625v49h305z" />
    <glyph glyph-name="two" unicode="2" horiz-adv-x="1179" 
d="M1040 49v-49h-921l2 53q6 139 46 227t147 180q108 93 314 220t286 227q79 100 79 228q0 168 -103 266q-102 98 -268 98t-271 -80t-163 -202l-45 20q59 131 183 220t305 89q182 0 298 -110t115 -301q0 -143 -87 -253t-295 -237t-312 -217t-139 -169t-39 -210h868z" />
    <glyph glyph-name="three" unicode="3" horiz-adv-x="1189" 
d="M573 -31q-346 0 -499 289l41 27q139 -268 458 -269q183 0 303 106t120 282q0 175 -119 280q-119 104 -361 104h-96v48h92q199 0 326 78t127 242q1 163 -97 253t-284 90q-250 0 -387 -217l-41 27q59 98 171 168t257 69q212 0 322 -103t110 -284q0 -141 -100 -235
t-261 -111q187 -20 289 -128t102 -292t-132 -304t-341 -120z" />
    <glyph glyph-name="four" unicode="4" horiz-adv-x="1196" 
d="M823 463v975l-676 -975h676zM823 416h-731v47l731 1053h51v-1053h269v-47h-269v-416h-51v416z" />
    <glyph glyph-name="five" unicode="5" horiz-adv-x="1169" 
d="M975 1466h-688l-56 -671q43 70 147 128t232 58q199 0 328 -128t129 -355t-131 -378t-373 -151q-254 0 -419 201q-36 45 -52 86l47 23q37 -89 149 -175t275 -86q217 0 335 138t118 342t-115 320t-291 116q-127 0 -229 -62t-156 -153l-47 14l64 783h733v-50z" />
    <glyph glyph-name="six" unicode="6" horiz-adv-x="1220" 
d="M658 16q186 0 304 132t118 314t-107 305q-106 122 -324 122q-145 0 -271 -81t-198 -177q20 -309 156 -462t322 -153zM129 731q0 369 146 592t411 223q201 0 371 -141l-33 -39q-156 133 -338 133q-242 0 -375 -208t-133 -560v-37q78 90 207 166t264 76q242 0 362 -135
q119 -135 119 -338t-132 -349t-343 -145q-211 0 -360 167q-76 85 -121 239t-45 356z" />
    <glyph glyph-name="seven" unicode="7" horiz-adv-x="1118" 
d="M131 1516h897v-48l-686 -1468h-53l688 1468h-846v48z" />
    <glyph glyph-name="eight" unicode="8" horiz-adv-x="1220" 
d="M618 18q205 0 333 94t128 265q0 172 -205 290q-101 58 -262 117q-290 -114 -379 -203q-88 -90 -88 -214q0 -161 134 -255t339 -94zM1008 1176q0 143 -113 233t-277 90t-276 -90t-111 -240q0 -150 167 -238q70 -39 223 -100q247 96 317 169q70 74 70 176zM617 -31
q-228 0 -375 108q-148 108 -148 286t147 283q124 88 314 161q-282 106 -346 234q-29 58 -29 135q0 164 126 267t312 103t314 -103t127 -258q0 -155 -110 -234q-110 -80 -273 -142q198 -77 290 -146q91 -69 128 -140t36 -156q0 -182 -142 -290t-371 -108z" />
    <glyph glyph-name="nine" unicode="9" horiz-adv-x="1220" 
d="M141 1053q1 -182 107 -304t323 -122q145 0 271 81t198 177q-20 309 -156 462t-322 153t-304 -133q-118 -132 -117 -314zM90 1053q0 203 132 348t343 145t361 -167q76 -85 121 -239t45 -356q0 -370 -146 -592t-411 -223q-201 0 -371 142l33 39q156 -133 338 -134
q243 0 375 208t132 560v37q-78 -90 -206 -166t-265 -75q-241 0 -361 135t-120 338z" />
    <glyph glyph-name="colon" unicode=":" horiz-adv-x="522" 
d="M217 0v106h88v-106h-88zM217 969v106h88v-106h-88z" />
    <glyph glyph-name="semicolon" unicode=";" horiz-adv-x="522" 
d="M217 0v106h88v-94l-49 -182h-33l33 170h-39zM217 969v106h88v-106h-88z" />
    <glyph glyph-name="less" unicode="&#x3c;" horiz-adv-x="1366" 
d="M1184 188l-1043 455v47l1043 449v-49l-991 -424l991 -428v-50z" />
    <glyph glyph-name="equal" unicode="=" horiz-adv-x="1370" 
d="M199 414v47h972v-47h-972zM199 874v48h972v-48h-972z" />
    <glyph glyph-name="greater" unicode="&#x3e;" horiz-adv-x="1366" 
d="M182 1139l1043 -455v-47l-1043 -449v50l992 424l-992 428v49z" />
    <glyph glyph-name="question" unicode="?" horiz-adv-x="1067" 
d="M408 0v106h88v-106h-88zM530 1546q190 0 304 -99t112 -255q0 -156 -78 -238q-43 -44 -82 -74t-114 -77q-133 -84 -164 -166t-31 -305h-51q0 240 35 328t177 176t200 154q57 67 57 201t-100 221t-248 87t-253 -71t-155 -160l-43 24q57 100 173 177t261 77z" />
    <glyph glyph-name="at" unicode="@" horiz-adv-x="1777" 
d="M762 373q178 0 348 157q0 31 2 48l68 456q-119 127 -312 127q-162 0 -257 -147t-95 -348q0 -143 68 -218t178 -75zM909 -25q-398 0 -596 228t-198 566q0 337 221 555t556 218t557 -213t222 -551q0 -223 -93 -335t-228 -111q-92 0 -154 40q-61 40 -80 107
q-164 -154 -354 -153q-131 0 -214 86t-83 254q0 229 112 386q113 156 295 156t316 -121l14 105h51l-90 -617q-14 -92 36 -144t159 -52q110 0 186 101t76 298q0 315 -207 516t-520 201t-520 -207t-207 -528q0 -320 191 -528t524 -207q242 0 448 100l21 -41
q-229 -109 -441 -109z" />
    <glyph glyph-name="A" unicode="A" horiz-adv-x="1325" 
d="M350 592h623l-311 862zM84 0l551 1524h55l551 -1524h-55l-197 545h-655l-197 -545h-53z" />
    <glyph glyph-name="B" unicode="B" horiz-adv-x="1363" 
d="M266 45h475q221 0 337 91t116 261t-132 263t-376 94h-420v-709zM266 801h420q196 0 316 85t120 258t-118 249q-119 76 -369 75h-369v-667zM215 0v1516h416q274 0 408 -88t135 -295q0 -158 -98 -244t-224 -109q132 -16 248 -90q66 -41 106 -119t39 -182q0 -181 -131 -285
t-377 -104h-522z" />
    <glyph glyph-name="C" unicode="C" horiz-adv-x="1417" 
d="M754 -31q-272 1 -444 227t-173 568q0 342 172 562t432 220q225 0 355 -141q107 -119 170 -315l-49 -17q-59 193 -169 309t-307 117q-241 0 -397 -207q-156 -206 -156 -526t158 -535t408 -215q360 0 489 443l49 -13q-33 -122 -91 -215q-59 -94 -115 -143t-143 -84
t-189 -35z" />
    <glyph glyph-name="D" unicode="D" horiz-adv-x="1404" 
d="M264 47h230q723 0 723 711t-723 710h-230v-1421zM213 0v1516h276q778 0 779 -758q0 -758 -779 -758h-276z" />
    <glyph glyph-name="E" unicode="E" horiz-adv-x="1187" 
d="M213 0v1516h856v-48h-805v-639h610v-47h-610v-735h819v-47h-870z" />
    <glyph glyph-name="F" unicode="F" horiz-adv-x="1144" 
d="M213 0v1516h838v-48h-787v-641h592v-47h-592v-780h-51z" />
    <glyph glyph-name="G" unicode="G" horiz-adv-x="1437" 
d="M741 -31q-252 0 -431 211t-179 594q0 316 164 544t438 228q379 0 529 -463l-50 -16q-70 209 -179 321q-110 112 -290 112t-308 -105q-128 -103 -190 -267t-63 -354q0 -358 163 -558t387 -200t357 168q132 168 123 439h-403v47h455v-670h-52v334q-39 -145 -167 -255
t-304 -110z" />
    <glyph glyph-name="H" unicode="H" horiz-adv-x="1478" 
d="M213 0v1516h51v-687h950v687h52v-1516h-52v782h-950v-782h-51z" />
    <glyph glyph-name="I" unicode="I" horiz-adv-x="501" 
d="M225 0v1516h51v-1516h-51z" />
    <glyph glyph-name="J" unicode="J" horiz-adv-x="995" 
d="M795 1516v-1139q-1 -203 -97 -305t-270 -103q-236 0 -352 228l45 22q106 -203 307 -203q315 0 315 361v1139h52z" />
    <glyph glyph-name="K" unicode="K" horiz-adv-x="1310" 
d="M264 0h-51v1516h51v-922l850 922h62l-529 -574l610 -942h-59l-584 905l-350 -379v-526z" />
    <glyph glyph-name="L" unicode="L" horiz-adv-x="1144" 
d="M213 0v1516h51v-1469h789v-47h-840z" />
    <glyph glyph-name="M" unicode="M" horiz-adv-x="1757" 
d="M262 0h-49v1516h47l619 -1453l618 1453h47v-1516h-51v1386l-590 -1386h-51l-590 1386v-1386z" />
    <glyph glyph-name="N" unicode="N" horiz-adv-x="1495" 
d="M213 0v1516h55l965 -1422v1422h49v-1516h-49l-971 1434v-1434h-49z" />
    <glyph glyph-name="O" unicode="O" horiz-adv-x="1497" 
d="M747 16q245 0 403 209t159 533q0 324 -159 532q-160 208 -404 209q-244 0 -401 -208q-157 -207 -157 -533t157 -534t402 -208zM1360 758q0 -346 -174 -568t-439 -221q-265 0 -438 220q-172 221 -172 569t172 568q171 220 437 220t440 -221t174 -567z" />
    <glyph glyph-name="P" unicode="P" horiz-adv-x="1249" 
d="M264 786h400q222 0 338 92t116 246q0 156 -118 250t-336 94h-400v-682zM213 0v1516h449q246 0 376 -108t131 -283q0 -175 -131 -280t-376 -106h-398v-739h-51z" />
    <glyph glyph-name="Q" unicode="Q" horiz-adv-x="1497" 
d="M747 16q245 0 403 209t159 533q0 324 -159 532q-160 208 -404 209q-244 0 -401 -208q-157 -207 -157 -533t157 -534t402 -208zM1124 -305h95v-47h-95q-403 0 -405 323q-256 13 -419 231t-163 561t172 563q171 220 437 220t440 -221t174 -563t-166 -562t-424 -229
q2 -276 354 -276z" />
    <glyph glyph-name="R" unicode="R" horiz-adv-x="1341" 
d="M264 786h400q222 0 338 92t116 246q0 156 -118 250t-336 94h-400v-682zM213 0v1516h449q246 0 376 -108t131 -275t-109 -268t-317 -120l431 -745h-60l-428 741h-422v-741h-51z" />
    <glyph glyph-name="S" unicode="S" horiz-adv-x="1296" 
d="M658 -31q-230 1 -354 107t-183 301l49 16q57 -184 171 -280q114 -97 322 -97q209 0 327 92t118 252q0 158 -93 243t-355 171t-356 169q-93 83 -93 241t118 260q119 102 313 102t312 -96t172 -254l-49 -16q-117 319 -434 319q-176 0 -278 -87q-103 -86 -103 -224t88 -214
t341 -157q253 -82 361 -175q108 -92 108 -278t-137 -290q-135 -104 -365 -105z" />
    <glyph glyph-name="T" unicode="T" horiz-adv-x="1245" 
d="M598 0v1468h-518v48h1085v-48h-516v-1468h-51z" />
    <glyph glyph-name="U" unicode="U" horiz-adv-x="1454" 
d="M1251 469q-1 -209 -147 -355t-382 -145q-236 -1 -378 147q-141 148 -141 369v1031h51v-1031q0 -199 128 -333t341 -136q213 0 345 132t132 321v1047h51v-1047z" />
    <glyph glyph-name="V" unicode="V" horiz-adv-x="1337" 
d="M641 -8l-555 1524h55l529 -1455l528 1455h53l-555 -1524h-55z" />
    <glyph glyph-name="W" unicode="W" horiz-adv-x="1859" 
d="M932 1415l-361 -1415h-55l-422 1516h56l395 -1424l360 1424h53l396 -1424l360 1424h51l-385 -1516h-55z" />
    <glyph glyph-name="X" unicode="X" horiz-adv-x="1308" 
d="M680 817l553 -817h-57l-527 776l-524 -776h-55l553 815l-473 701h57l446 -660l445 660h55z" />
    <glyph glyph-name="Y" unicode="Y" horiz-adv-x="1222" 
d="M586 0v690l-516 826h55l487 -779l490 779h53l-518 -826v-690h-51z" />
    <glyph glyph-name="Z" unicode="Z" horiz-adv-x="1255" 
d="M1139 0h-1043v47l991 1423h-937v46h995v-48l-987 -1423h981v-45z" />
    <glyph glyph-name="bracketleft" unicode="[" horiz-adv-x="759" 
d="M205 -410v1926h432v-48h-381v-1830h381v-48h-432z" />
    <glyph glyph-name="backslash" unicode="\" horiz-adv-x="1062" 
d="M983 0h-51l-852 1516h51z" />
    <glyph glyph-name="bracketright" unicode="]" horiz-adv-x="759" 
d="M555 1516v-1926h-432v48h381v1830h-381v48h432z" />
    <glyph glyph-name="asciicircum" unicode="^" 
d="M215 1182l281 319h32l281 -319h-43l-256 254l-252 -254h-43z" />
    <glyph glyph-name="underscore" unicode="_" 
d="M0 -205v51h1024v-51h-1024z" />
    <glyph glyph-name="grave" unicode="`" 
d="M584 1192h-33l-272 309h88z" />
    <glyph glyph-name="a" unicode="a" horiz-adv-x="1081" 
d="M162 236q0 -104 66 -161q67 -57 193 -57q127 0 253 72t200 156v405q-384 -59 -548 -163t-164 -252zM874 780q0 129 -64 201q-65 72 -196 72q-246 0 -428 -183l-30 31q188 197 458 197q156 0 232 -82t76 -232v-551q0 -154 24 -233h-47q-23 61 -25 190q-82 -86 -204 -152
t-260 -65q-137 0 -216 68t-79 195q0 184 189 292t570 164v88z" />
    <glyph glyph-name="b" unicode="b" horiz-adv-x="1179" 
d="M610 23q180 0 290 130t110 385t-113 385t-291 130q-209 0 -383 -211v-602q104 -115 191 -166t196 -51zM176 0v1516h47v-619q68 80 168 140t219 61q203 0 325 -142t122 -417q0 -273 -122 -417t-327 -144t-385 204v-182h-47z" />
    <glyph glyph-name="c" unicode="c" horiz-adv-x="1077" 
d="M561 -23q-195 0 -317 162t-123 416q0 254 133 398t319 145q143 0 231 -73t148 -220l-41 -21q-57 135 -133 202t-205 67q-169 0 -287 -133q-118 -134 -118 -366t108 -382t285 -149q129 -1 210 67t151 211l41 -20q-76 -156 -167 -230t-235 -74z" />
    <glyph glyph-name="d" unicode="d" horiz-adv-x="1179" 
d="M575 23q209 0 383 210v603q-104 116 -191 166t-196 51q-179 0 -289 -130t-110 -385t112 -385t291 -130zM571 -23q-203 1 -325 143t-121 416q0 274 122 418q123 144 327 144t384 -205v623h48v-1283q0 -154 24 -233h-47q-25 70 -25 178q-68 -80 -168 -140t-219 -61z" />
    <glyph glyph-name="e" unicode="e" horiz-adv-x="1093" 
d="M563 1055q-153 0 -267 -121t-128 -342h758q-8 219 -110 341t-253 122zM166 549v-14q0 -207 104 -360t287 -152q205 0 381 247l37 -26q-188 -266 -418 -267q-205 0 -321 166t-117 392q0 272 133 418q133 147 311 147t295 -142t117 -403v-6h-809z" />
    <glyph glyph-name="f" unicode="f" horiz-adv-x="624" 
d="M262 1030h-188v45h188v211q0 123 75 177t238 57v-45q-143 0 -204 -42t-62 -143v-215h258v-45h-258v-1030h-47v1030z" />
    <glyph glyph-name="g" unicode="g" horiz-adv-x="1134" 
d="M102 -154q0 -211 430 -211q207 0 322 69t115 180t-128 156q-101 36 -271 46q-169 10 -228 20q-98 -38 -169 -106t-71 -154zM532 1053q-156 -1 -252 -97t-96 -235t96 -233t252 -93q156 0 254 94q98 95 98 233t-98 234t-254 97zM932 722q0 -159 -111 -265t-289 -107
q-109 0 -190 41q-125 -63 -125 -133t66 -93q65 -22 285 -35q220 -14 334 -68t114 -181t-128 -209t-356 -82q-477 0 -477 256q0 92 71 162t159 111q-115 31 -115 127t133 166q-166 106 -166 309q0 157 110 267q111 110 273 110t266 -82q152 92 265 110v-49q-121 -18 -228 -92
q109 -104 109 -263z" />
    <glyph glyph-name="h" unicode="h" horiz-adv-x="1153" 
d="M176 0v1516h47v-629q236 211 443 211q330 0 329 -340v-758h-47v758q0 295 -282 295q-211 0 -443 -219v-834h-47z" />
    <glyph glyph-name="i" unicode="i" horiz-adv-x="419" 
d="M186 0v1075h47v-1075h-47zM178 1356v86h66v-86h-66z" />
    <glyph glyph-name="j" unicode="j" horiz-adv-x="419" 
d="M186 -256v1331h47v-1321q0 -166 -139 -166q-23 0 -59 6v46q33 -8 55 -9q96 0 96 113zM178 1356v86h66v-86h-66z" />
    <glyph glyph-name="k" unicode="k" horiz-adv-x="1048" 
d="M223 0h-47v1516h47v-1127l635 686h53l-356 -385l408 -690h-52l-387 655q-219 -235 -301 -325v-330z" />
    <glyph glyph-name="l" unicode="l" horiz-adv-x="419" 
d="M186 0v1516h47v-1516h-47z" />
    <glyph glyph-name="m" unicode="m" horiz-adv-x="1859" 
d="M1702 758v-758h-47v758q0 295 -266 295q-199 0 -431 -224q4 -45 5 -71v-758h-48v758q0 295 -266 295q-195 0 -426 -219v-834h-47v1075h47v-188q236 211 426 211q250 -1 301 -224q254 223 439 224q313 0 313 -340z" />
    <glyph glyph-name="n" unicode="n" horiz-adv-x="1153" 
d="M176 0v1075h47v-188q236 211 443 211q330 0 329 -340v-758h-47v758q0 295 -282 295q-211 0 -443 -219v-834h-47z" />
    <glyph glyph-name="o" unicode="o" horiz-adv-x="1161" 
d="M580 23q172 0 292 146q120 145 121 369q0 224 -121 369q-122 145 -294 145t-291 -144q-119 -146 -119 -369t120 -369t292 -147zM579 -23q-189 0 -324 159q-134 159 -134 404q0 246 133 402q134 156 324 156t326 -158t136 -400t-136 -403q-136 -160 -325 -160z" />
    <glyph glyph-name="p" unicode="p" horiz-adv-x="1179" 
d="M610 23q180 0 290 130t110 385t-113 385t-291 130q-209 0 -383 -211v-602q104 -115 191 -166t196 -51zM176 -410v1485h47v-178q68 80 168 140t219 61q203 0 325 -142t122 -417q0 -273 -122 -417t-327 -144t-385 204v-592h-47z" />
    <glyph glyph-name="q" unicode="q" horiz-adv-x="1179" 
d="M569 1053q-179 0 -289 -130t-110 -385t113 -385t290 -130q209 0 383 210v603q-104 115 -191 166t-196 51zM1004 1075v-1485h-48v588q-68 -80 -168 -140t-219 -61q-203 1 -325 143t-121 416q0 274 122 418q123 144 327 144t384 -205v182h48z" />
    <glyph glyph-name="r" unicode="r" horiz-adv-x="788" 
d="M223 0h-47v1075h47v-246q193 291 459 265l39 -4l-8 -41l-39 4q-262 27 -451 -293v-760z" />
    <glyph glyph-name="s" unicode="s" 
d="M506 23q158 -1 251 67t93 184t-83 174t-270 105t-269 107q-81 60 -81 178q1 118 89 188q88 72 245 72q233 0 375 -162l-37 -29q-127 145 -338 146q-143 1 -215 -59t-72 -157t73 -148q73 -50 207 -84q134 -33 194 -55q155 -55 202 -149q27 -53 27 -127q1 -135 -107 -216
t-284 -81q-244 0 -391 197l37 29q143 -180 354 -180z" />
    <glyph glyph-name="t" unicode="t" horiz-adv-x="716" 
d="M262 1030h-188v45h188v391h47v-391h301v-45h-301v-803q0 -100 40 -147t145 -47q53 0 120 12v-45q-70 -12 -129 -12q-125 0 -174 60t-49 185v797z" />
    <glyph glyph-name="u" unicode="u" horiz-adv-x="1153" 
d="M977 1075v-1075h-47v188q-236 -211 -443 -211q-330 0 -329 340v758h47v-758q0 -295 282 -294q211 0 443 219v833h47z" />
    <glyph glyph-name="v" unicode="v" horiz-adv-x="1026" 
d="M487 -8l-411 1083h49l389 -1024l389 1024h47l-411 -1083h-52z" />
    <glyph glyph-name="w" unicode="w" horiz-adv-x="1523" 
d="M764 1001l-293 -1009h-45l-350 1083h47l326 -1009l290 1009h47l326 -1009l291 1009h45l-313 -1083h-45z" />
    <glyph glyph-name="x" unicode="x" horiz-adv-x="1021" 
d="M485 549l-368 526h51l342 -487l342 487h49l-369 -520l390 -555h-52l-362 516l-363 -516h-49z" />
    <glyph glyph-name="y" unicode="y" horiz-adv-x="1021" 
d="M177 -371q178 0 249 195l63 166l-413 1085h49l389 -1020l385 1020h47l-479 -1268q-43 -117 -116 -169q-125 -90 -365 -29l12 45q92 -25 179 -25z" />
    <glyph glyph-name="z" unicode="z" horiz-adv-x="1021" 
d="M907 0h-786v41l706 991h-669v43h725v-41l-707 -991h731v-43z" />
    <glyph glyph-name="braceleft" unicode="{" horiz-adv-x="739" 
d="M555 -410q-221 0 -221 217v533q0 108 -40 148t-183 40v50q145 0 184 38t39 150v532q0 106 52 162t169 56h84v-48h-84q-170 0 -170 -170v-532q1 -98 -27 -148t-100 -65q74 -21 100 -67t27 -146v-533q0 -170 170 -169h84v-48h-84z" />
    <glyph glyph-name="bar" unicode="|" horiz-adv-x="677" 
d="M313 -410v1926h52v-1926h-52z" />
    <glyph glyph-name="braceright" unicode="}" horiz-adv-x="739" 
d="M406 -193q0 -215 -222 -217h-84v48h84q170 0 170 169v533q0 98 28 148t99 65q-75 21 -101 67t-26 146v532q0 170 -170 170h-84v48h84q117 0 169 -56t53 -162v-532q0 -109 40 -149t183 -39v-50q-145 0 -185 -39t-38 -149v-533z" />
    <glyph glyph-name="asciitilde" unicode="~" 
d="M207 877q0 172 136 172q65 1 175 -63t158 -64t72 30q23 30 22 97h47q0 -172 -134 -172q-65 0 -177 63q-112 64 -160 64q-94 1 -92 -127h-47z" />
    <glyph glyph-name="nbspace" unicode="&#xa0;" horiz-adv-x="204" 
 />
    <glyph glyph-name="exclamdown" unicode="&#xa1;" horiz-adv-x="604" 
d="M274 0l11 1202h34l11 -1202h-56zM258 1409v107h88v-107h-88z" />
    <glyph glyph-name="cent" unicode="&#xa2;" horiz-adv-x="1077" 
d="M573 1053q-169 0 -287 -133t-118 -383q0 -150 56 -274t153 -187l254 973q-33 4 -58 4zM561 -23q-82 0 -160 33l-69 -272h-43l76 293q-113 67 -179 203t-65 303q0 272 133 416t319 145q25 0 70 -4l55 213h43l-57 -222q94 -25 157 -94q62 -70 111 -186l-41 -21
q-45 106 -100 170t-139 86l-258 -985q72 -33 147 -32q129 -1 210 67t151 211l41 -20q-76 -156 -167 -230t-235 -74z" />
    <glyph glyph-name="sterling" unicode="&#xa3;" horiz-adv-x="1200" 
d="M139 171q0 -73 45 -114t119 -41q149 0 217 174q-33 38 -70 74q-70 68 -166 68q-58 0 -102 -44q-43 -44 -43 -117zM178 782v47h228q-119 209 -119 376t104 254t268 87t255 -114t98 -263h-49q-6 129 -85 229q-78 100 -220 101q-142 0 -231 -74q-89 -75 -89 -225t125 -371
h360v-47h-334q113 -203 113 -407q0 -98 -27 -176q49 -57 81 -89t90 -62t124 -30q207 0 213 344h50q-6 -391 -263 -391q-98 0 -169 46t-144 133q-86 -180 -254 -181q-95 1 -155 55t-60 149t57 151t152 55q121 0 240 -133q14 55 14 129q0 198 -119 407h-254z" />
    <glyph glyph-name="currency" unicode="&#xa4;" horiz-adv-x="1478" 
d="M41 893v47h231q41 272 195 439t368 167t325 -135t167 -321l-49 -17q-29 92 -60 160q-83 177 -210 232q-76 34 -174 34q-195 -1 -333 -155t-177 -404h522v-47h-529q-6 -57 -6 -129t8 -131h527v-47h-520q41 -254 180 -412t345 -158t315 150q85 118 139 293l49 -13
q-40 -154 -142 -299q-57 -82 -151 -130t-215 -48q-221 0 -376 170t-196 447h-233v47h227q-8 59 -8 131t6 129h-225z" />
    <glyph glyph-name="yen" unicode="&#xa5;" horiz-adv-x="1222" 
d="M586 639v51l-516 826h55l487 -779l490 779h53l-518 -826v-51h420v-47h-420v-260h420v-47h-420v-285h-51v285h-416v47h416v260h-416v47h416z" />
    <glyph glyph-name="brokenbar" unicode="&#xa6;" horiz-adv-x="677" 
d="M313 -410v762h52v-762h-52zM313 754v762h52v-762h-52z" />
    <glyph glyph-name="section" unicode="&#xa7;" horiz-adv-x="1048" 
d="M870 539q0 63 -46 121t-93 89t-143 83q-96 53 -133 75q-121 -49 -199 -129t-78 -182q0 -64 46 -122t91 -87t139 -80t140 -80q276 113 276 312zM180 1270q0 114 94 194t256 80t255 -83t122 -218l-49 -12q-57 266 -332 266q-137 1 -216 -65t-79 -178t75 -182
q74 -70 220 -150t194 -110t102 -75q100 -83 100 -198q0 -213 -279 -340q119 -74 172 -147q53 -74 53 -188t-94 -194t-256 -80t-255 83t-122 218l49 13q57 -266 332 -266q137 0 216 66t79 176q0 112 -75 182t-220 151q-145 80 -193 110q-143 89 -179 166q-23 47 -23 107
q0 213 279 340q-119 74 -173 146q-53 73 -53 188z" />
    <glyph glyph-name="dieresis" unicode="&#xa8;" 
d="M328 1192v100h67v-100h-67zM629 1192v100h67v-100h-67z" />
    <glyph glyph-name="copyright" unicode="&#xa9;" horiz-adv-x="1765" 
d="M879 319q-162 0 -258 126q-97 126 -97 324t98 325t257 127q242 0 315 -275l-45 -12q-61 242 -270 242q-141 0 -225 -115t-85 -292q0 -177 84 -291t226 -113q221 0 282 251l45 -12q-36 -137 -120 -211t-207 -74zM883 16q307 0 521 217t214 525t-214 524q-214 217 -521 217
t-521 -217t-215 -524q0 -307 214 -525q215 -217 522 -217zM883 -29q-326 1 -553 231t-228 556q0 326 228 556t553 230q326 0 553 -230t227 -556t-227 -556t-553 -231z" />
    <glyph glyph-name="ordfeminine" unicode="&#xaa;" horiz-adv-x="819" 
d="M657 956v261q-274 -43 -377 -108t-104 -167q0 -136 169 -136t312 150zM657 1317q0 182 -170 182q-180 0 -305 -133l-32 33q145 145 337 145q217 0 218 -227v-373q0 -121 24 -168h-51q-18 49 -21 127q-150 -141 -311 -141q-104 0 -161 47q-56 47 -56 133q-1 119 111 195
t417 123v57z" />
    <glyph glyph-name="guillemotleft" unicode="&#xab;" horiz-adv-x="985" 
d="M420 0l-293 539l293 536h51l-295 -536l295 -539h-51zM784 0l-292 539l292 536h52l-295 -536l295 -539h-52z" />
    <glyph glyph-name="registered" unicode="&#xae;" horiz-adv-x="1765" 
d="M678 764h233q260 0 260 199q0 92 -65 140q-66 48 -186 48h-242v-387zM633 324v870h287q143 0 220 -60t77 -171q0 -223 -267 -240l244 -385h-49l-242 383h-225v-397h-45zM883 16q307 0 521 217t214 525t-214 524q-214 217 -521 217t-521 -217t-215 -524q0 -307 214 -525
q215 -217 522 -217zM883 -29q-326 1 -553 231t-228 556q0 326 228 556t553 230q326 0 553 -230t227 -556t-227 -556t-553 -231z" />
    <glyph glyph-name="macron" unicode="&#xaf;" 
d="M233 1288v49h558v-49h-558z" />
    <glyph glyph-name="degree" unicode="&#xb0;" horiz-adv-x="819" 
d="M410 1499q-98 0 -162 -65q-64 -66 -64 -166t64 -166t162 -66t161 66t64 166t-63 166t-162 65zM410 991q-117 0 -196 79t-79 198q0 120 79 198t196 78q118 0 196 -79t78 -197t-78 -198q-78 -79 -196 -79z" />
    <glyph glyph-name="twosuperior" unicode="&#xb2;" horiz-adv-x="886" 
d="M152 653v35q0 94 69 181q70 87 264 194q100 55 147 109q46 54 46 131t-57 133t-151 55q-94 0 -156 -37t-113 -123l-37 25q104 180 299 180q121 0 191 -69t71 -163q0 -94 -51 -155q-52 -61 -196 -139t-210 -154t-69 -158h528v-45h-575z" />
    <glyph glyph-name="threesuperior" unicode="&#xb3;" horiz-adv-x="886" 
d="M737 885q0 -104 -79 -175t-216 -71q-203 0 -313 178l37 25q100 -158 276 -158q115 0 182 56q66 56 66 154q-1 201 -299 202h-57v45h65q272 0 273 182q0 74 -56 121t-167 47q-141 0 -234 -127l-37 25q104 147 271 147q137 0 203 -60t67 -153q0 -168 -207 -205
q225 -23 225 -233z" />
    <glyph glyph-name="acute" unicode="&#xb4;" 
d="M440 1192l217 309h88l-272 -309h-33z" />
    <glyph glyph-name="mu" unicode="&#xb5;" horiz-adv-x="1153" 
d="M158 -410v1485h47v-758q0 -295 282 -294q211 0 443 219v833h47v-1075h-47v188q-236 -211 -443 -211t-282 129v-516h-47z" />
    <glyph glyph-name="paragraph" unicode="&#xb6;" horiz-adv-x="1210" 
d="M588 -410v1221q-207 -4 -319 86q-111 90 -111 257t107 264q108 97 300 98h436v-1926h-51v1878h-311v-1878h-51z" />
    <glyph glyph-name="periodcentered" unicode="&#xb7;" horiz-adv-x="522" 
d="M217 590v106h88v-106h-88z" />
    <glyph glyph-name="cedilla" unicode="&#xb8;" 
d="M700 -221q0 33 -28 55t-77 23q-50 0 -130 -58l-33 25l51 176h45l-45 -150q49 50 115 50t108 -35t42 -86q0 -84 -65 -130t-185 -46t-228 78l25 34q96 -70 223 -69q80 0 131 34t51 99z" />
    <glyph glyph-name="onesuperior" unicode="&#xb9;" horiz-adv-x="847" 
d="M236 651v45h184v772q-23 -18 -79 -31t-101 -14v45q141 0 182 48h45v-820h166v-45h-397z" />
    <glyph glyph-name="ordmasculine" unicode="&#xba;" horiz-adv-x="851" 
d="M426 805q121 0 202 97t81 252t-81 250t-202 95t-202 -95t-81 -250t81 -252t202 -97zM426 1544q137 0 233 -108q97 -108 97 -282q0 -173 -98 -284q-98 -110 -232 -110q-135 0 -232 110q-98 110 -98 284t96 282t234 108z" />
    <glyph glyph-name="guillemotright" unicode="&#xbb;" horiz-adv-x="985" 
d="M201 1075l293 -538l-293 -537h-51l294 537l-294 538h51zM565 1075l293 -538l-293 -537h-51l295 537l-295 538h51z" />
    <glyph glyph-name="onequarter" unicode="&#xbc;" horiz-adv-x="1738" 
d="M1384 274v512l-387 -512h387zM1384 0v231h-446v29l457 604h37v-590h161v-43h-161v-231h-48zM371 0l995 1516h51l-995 -1516h-51zM236 651v45h184v772q-23 -18 -79 -31t-101 -14v45q141 0 182 48h45v-820h166v-45h-397z" />
    <glyph glyph-name="onehalf" unicode="&#xbd;" horiz-adv-x="1880" 
d="M1655 45v-45h-576v35q0 94 70 181t264 194q100 55 147 109q46 54 46 131t-58 132q-58 56 -151 56t-155 -37t-114 -123l-36 24q104 180 299 181q121 0 191 -69t71 -163q0 -94 -51 -155q-52 -61 -196 -139t-210 -154t-70 -158h529zM371 0l995 1516h51l-995 -1516h-51z
M236 651v45h184v772q-23 -18 -79 -31t-101 -14v45q141 0 182 48h45v-820h166v-45h-397z" />
    <glyph glyph-name="threequarters" unicode="&#xbe;" horiz-adv-x="1787" 
d="M1452 274v512l-387 -512h387zM1452 0v231h-446v29l456 604h37v-590h162v-43h-162v-231h-47zM438 0l996 1516h51l-996 -1516h-51zM737 885q0 -104 -79 -175t-216 -71q-203 0 -313 178l37 25q100 -158 276 -158q115 0 182 56q66 56 66 154q-1 201 -299 202h-57v45h65
q272 0 273 182q0 74 -56 121t-167 47q-141 0 -234 -127l-37 25q104 147 271 147q137 0 203 -60t67 -153q0 -168 -207 -205q225 -23 225 -233z" />
    <glyph glyph-name="questiondown" unicode="&#xbf;" horiz-adv-x="1067" 
d="M537 -31q-189 -1 -303 99t-114 257t75 232q74 76 203 158q130 82 161 164t31 305h51q0 -240 -35 -328t-177 -176q-141 -88 -199 -155t-58 -201t100 -220q100 -88 248 -88t253 71t155 161l43 -25q-57 -100 -173 -177t-261 -77zM659 1516v-107h-88v107h88z" />
    <glyph glyph-name="Agrave" unicode="&#xc0;" horiz-adv-x="1325" 
d="M350 592h623l-311 862zM84 0l551 1524h55l551 -1524h-55l-197 545h-655l-197 -545h-53zM733 1612h-33l-272 309h88z" />
    <glyph glyph-name="Aacute" unicode="&#xc1;" horiz-adv-x="1325" 
d="M350 592h623l-311 862zM84 0l551 1524h55l551 -1524h-55l-197 545h-655l-197 -545h-53zM590 1612l217 309h88l-272 -309h-33z" />
    <glyph glyph-name="Acircumflex" unicode="&#xc2;" horiz-adv-x="1325" 
d="M350 592h623l-311 862zM84 0l551 1524h55l551 -1524h-55l-197 545h-655l-197 -545h-53zM365 1581l280 320h33l280 -320h-43l-256 254l-251 -254h-43z" />
    <glyph glyph-name="Atilde" unicode="&#xc3;" horiz-adv-x="1325" 
d="M350 592h623l-311 862zM84 0l551 1524h55l551 -1524h-55l-197 545h-655l-197 -545h-53zM356 1612q0 172 136 172q66 0 176 -64t158 -63q94 0 94 127h47q-1 -172 -135 -172q-64 0 -176 63t-160 63q-93 1 -93 -126h-47z" />
    <glyph glyph-name="Adieresis" unicode="&#xc4;" horiz-adv-x="1325" 
d="M350 592h623l-311 862zM84 0l551 1524h55l551 -1524h-55l-197 545h-655l-197 -545h-53zM477 1612v100h68v-100h-68zM778 1612v100h68v-100h-68z" />
    <glyph glyph-name="Aring" unicode="&#xc5;" horiz-adv-x="1325" 
d="M350 592h623l-311 862zM662 1509q59 0 96 38t37 95q0 56 -38 94t-95 38q-58 0 -96 -37t-38 -95t38 -95q38 -38 96 -38zM481 1648q0 70 51 120q52 50 130 50t129 -50t51 -120t-37 -116q-37 -47 -96 -62l532 -1470h-55l-197 545h-655l-197 -545h-53l532 1468q-61 16 -98 64
q-37 46 -37 116z" />
    <glyph glyph-name="AE" unicode="&#xc6;" horiz-adv-x="1990" 
d="M1016 594v881l-522 -881h522zM1872 1516v-48h-805v-641h610v-47h-610v-733h819v-47h-870v547h-551l-324 -547h-53l899 1516h885z" />
    <glyph glyph-name="Ccedilla" unicode="&#xc7;" horiz-adv-x="1417" 
d="M741 1546q225 0 355 -141q107 -119 170 -315l-49 -17q-59 193 -169 309t-307 117q-241 0 -397 -207q-156 -206 -156 -526t158 -535t408 -215q360 0 489 443l49 -13q-33 -122 -91 -215q-59 -94 -115 -143t-143 -84t-189 -35q-25 0 -37 2l-37 -121q50 50 116 50t107 -35
t41 -86q0 -84 -64 -130t-186 -46q-120 0 -227 78l25 34q96 -70 223 -69q80 0 131 34t51 99q0 33 -28 55q-27 22 -77 23q-50 0 -130 -58l-33 25l43 151q-240 35 -387 255t-147 548t171 548q172 220 432 220z" />
    <glyph glyph-name="Egrave" unicode="&#xc8;" horiz-adv-x="1187" 
d="M213 0v1516h856v-48h-805v-639h610v-47h-610v-735h819v-47h-870zM727 1612h-33l-272 309h88z" />
    <glyph glyph-name="Eacute" unicode="&#xc9;" horiz-adv-x="1187" 
d="M213 0v1516h856v-48h-805v-639h610v-47h-610v-735h819v-47h-870zM522 1612l217 309h88l-272 -309h-33z" />
    <glyph glyph-name="Ecircumflex" unicode="&#xca;" horiz-adv-x="1187" 
d="M213 0v1516h856v-48h-805v-639h610v-47h-610v-735h819v-47h-870zM358 1602l281 319h33l280 -319h-43l-256 253l-252 -253h-43z" />
    <glyph glyph-name="Edieresis" unicode="&#xcb;" horiz-adv-x="1187" 
d="M213 0v1516h856v-48h-805v-639h610v-47h-610v-735h819v-47h-870zM471 1612v100h68v-100h-68zM772 1612v100h68v-100h-68z" />
    <glyph glyph-name="Igrave" unicode="&#xcc;" horiz-adv-x="501" 
d="M270 1612h-32l-273 309h88zM225 0v1516h51v-1516h-51z" />
    <glyph glyph-name="Iacute" unicode="&#xcd;" horiz-adv-x="501" 
d="M225 0v1516h51v-1516h-51zM229 1612l217 309h89l-273 -309h-33z" />
    <glyph glyph-name="Icircumflex" unicode="&#xce;" horiz-adv-x="501" 
d="M-47 1602l280 319h33l281 -319h-43l-256 253l-252 -253h-43zM225 0v1516h51v-1516h-51z" />
    <glyph glyph-name="Idieresis" unicode="&#xcf;" horiz-adv-x="501" 
d="M66 1612v100h67v-100h-67zM367 1612v100h67v-100h-67zM225 0v1516h51v-1516h-51z" />
    <glyph glyph-name="Eth" unicode="&#xd0;" horiz-adv-x="1404" 
d="M264 813h281v-47h-281v-719h230q723 0 723 711t-723 710h-230v-655zM213 766h-164v47h164v703h276q778 0 779 -758q0 -758 -779 -758h-276v766z" />
    <glyph glyph-name="Ntilde" unicode="&#xd1;" horiz-adv-x="1495" 
d="M213 0v1516h55l965 -1422v1422h49v-1516h-49l-971 1434v-1434h-49zM442 1612q0 172 136 172q66 0 176 -64t158 -63q94 0 94 127h47q-1 -172 -135 -172q-64 0 -176 63t-160 63q-93 1 -93 -126h-47z" />
    <glyph glyph-name="Ograve" unicode="&#xd2;" horiz-adv-x="1497" 
d="M747 16q245 0 403 209t159 533q0 324 -159 532q-160 208 -404 209q-244 0 -401 -208q-157 -207 -157 -533t157 -534t402 -208zM1360 758q0 -346 -174 -568t-439 -221q-265 0 -438 220q-172 221 -172 569t172 568q171 220 437 220t440 -221t174 -567zM819 1612h-33
l-272 309h88z" />
    <glyph glyph-name="Oacute" unicode="&#xd3;" horiz-adv-x="1497" 
d="M747 16q245 0 403 209t159 533q0 324 -159 532q-160 208 -404 209q-244 0 -401 -208q-157 -207 -157 -533t157 -534t402 -208zM1360 758q0 -346 -174 -568t-439 -221q-265 0 -438 220q-172 221 -172 569t172 568q171 220 437 220t440 -221t174 -567zM676 1612l217 309h88
l-272 -309h-33z" />
    <glyph glyph-name="Ocircumflex" unicode="&#xd4;" horiz-adv-x="1497" 
d="M747 16q245 0 403 209t159 533q0 324 -159 532q-160 208 -404 209q-244 0 -401 -208q-157 -207 -157 -533t157 -534t402 -208zM1360 758q0 -346 -174 -568t-439 -221q-265 0 -438 220q-172 221 -172 569t172 568q171 220 437 220t440 -221t174 -567zM451 1602l280 319h33
l280 -319h-43l-256 253l-251 -253h-43z" />
    <glyph glyph-name="Otilde" unicode="&#xd5;" horiz-adv-x="1497" 
d="M747 16q245 0 403 209t159 533q0 324 -159 532q-160 208 -404 209q-244 0 -401 -208q-157 -207 -157 -533t157 -534t402 -208zM1360 758q0 -346 -174 -568t-439 -221q-265 0 -438 220q-172 221 -172 569t172 568q171 220 437 220t440 -221t174 -567zM442 1612
q0 172 136 172q66 0 176 -64t158 -63q94 0 94 127h47q-1 -172 -135 -172q-64 0 -176 63t-160 63q-93 1 -93 -126h-47z" />
    <glyph glyph-name="Odieresis" unicode="&#xd6;" horiz-adv-x="1497" 
d="M747 16q245 0 403 209t159 533q0 324 -159 532q-160 208 -404 209q-244 0 -401 -208q-157 -207 -157 -533t157 -534t402 -208zM1360 758q0 -346 -174 -568t-439 -221q-265 0 -438 220q-172 221 -172 569t172 568q171 220 437 220t440 -221t174 -567zM563 1612v100h68
v-100h-68zM864 1612v100h68v-100h-68z" />
    <glyph glyph-name="multiply" unicode="&#xd7;" horiz-adv-x="1277" 
d="M293 289l-31 30l342 345l-342 344l33 32l344 -344l342 344l33 -32l-344 -342l344 -344l-33 -33l-344 342z" />
    <glyph glyph-name="Oslash" unicode="&#xd8;" horiz-adv-x="1497" 
d="M1309 752q0 318 -150 526l-788 -1085q153 -177 387 -177t392 209t159 527zM738 1499q-236 0 -393 -208q-157 -209 -157 -533t154 -529l788 1086q-156 184 -392 184zM1360 755q0 -343 -174 -565t-425 -221q-251 0 -421 183l-133 -183l-37 25l141 192q-174 224 -174 572
t172 568q173 220 427 220t425 -190l139 190l37 -24l-147 -201q170 -223 170 -566z" />
    <glyph glyph-name="Ugrave" unicode="&#xd9;" horiz-adv-x="1454" 
d="M1251 469q-1 -209 -147 -355t-382 -145q-236 -1 -378 147q-141 148 -141 369v1031h51v-1031q0 -199 128 -333t341 -136q213 0 345 132t132 321v1047h51v-1047zM799 1612h-33l-272 309h88z" />
    <glyph glyph-name="Uacute" unicode="&#xda;" horiz-adv-x="1454" 
d="M1251 469q-1 -209 -147 -355t-382 -145q-236 -1 -378 147q-141 148 -141 369v1031h51v-1031q0 -199 128 -333t341 -136q213 0 345 132t132 321v1047h51v-1047zM655 1612l217 309h89l-273 -309h-33z" />
    <glyph glyph-name="Ucircumflex" unicode="&#xdb;" horiz-adv-x="1454" 
d="M1251 469q-1 -209 -147 -355t-382 -145q-236 -1 -378 147q-141 148 -141 369v1031h51v-1031q0 -199 128 -333t341 -136q213 0 345 132t132 321v1047h51v-1047zM430 1602l281 319h32l281 -319h-43l-256 253l-252 -253h-43z" />
    <glyph glyph-name="Udieresis" unicode="&#xdc;" horiz-adv-x="1454" 
d="M1251 469q-1 -209 -147 -355t-382 -145q-236 -1 -378 147q-141 148 -141 369v1031h51v-1031q0 -199 128 -333t341 -136q213 0 345 132t132 321v1047h51v-1047zM543 1612v100h67v-100h-67zM844 1612v100h67v-100h-67z" />
    <glyph glyph-name="Yacute" unicode="&#xdd;" horiz-adv-x="1222" 
d="M586 0v690l-516 826h55l487 -779l490 779h53l-518 -826v-690h-51zM539 1612l217 309h88l-273 -309h-32z" />
    <glyph glyph-name="Thorn" unicode="&#xde;" horiz-adv-x="1249" 
d="M264 512h400q222 0 338 91t116 247t-118 250t-336 94h-400v-682zM213 0v1516h51v-275h398q246 1 376 -107t131 -283q0 -175 -131 -281t-376 -105h-398v-465h-51z" />
    <glyph glyph-name="germandbls" unicode="&#xdf;" horiz-adv-x="1187" 
d="M715 27q147 0 232 102t85 296t-133 300t-342 111v45q170 0 255 84t85 196q0 147 -94 227t-246 80t-243 -102t-91 -293v-1073h-47v1073q0 213 104 327t276 114q171 0 280 -93q109 -92 108 -260q0 -104 -70 -191t-200 -110q186 -24 296 -142t110 -314t-99 -309
q-98 -113 -264 -113t-295 114l29 33q117 -102 264 -102z" />
    <glyph glyph-name="agrave" unicode="&#xe0;" horiz-adv-x="1081" 
d="M162 236q0 -104 66 -161q67 -57 193 -57q127 0 253 72t200 156v405q-384 -59 -548 -163t-164 -252zM874 780q0 129 -64 201q-65 72 -196 72q-246 0 -428 -183l-30 31q188 197 458 197q156 0 232 -82t76 -232v-551q0 -154 24 -233h-47q-23 61 -25 190q-82 -86 -204 -152
t-260 -65q-137 0 -216 68t-79 195q0 184 189 292t570 164v88zM612 1192h-32l-273 309h88z" />
    <glyph glyph-name="aacute" unicode="&#xe1;" horiz-adv-x="1081" 
d="M162 236q0 -104 66 -161q67 -57 193 -57q127 0 253 72t200 156v405q-384 -59 -548 -163t-164 -252zM874 780q0 129 -64 201q-65 72 -196 72q-246 0 -428 -183l-30 31q188 197 458 197q156 0 232 -82t76 -232v-551q0 -154 24 -233h-47q-23 61 -25 190q-82 -86 -204 -152
t-260 -65q-137 0 -216 68t-79 195q0 184 189 292t570 164v88zM469 1192l217 309h88l-272 -309h-33z" />
    <glyph glyph-name="acircumflex" unicode="&#xe2;" horiz-adv-x="1081" 
d="M162 236q0 -104 66 -161q67 -57 193 -57q127 0 253 72t200 156v405q-384 -59 -548 -163t-164 -252zM874 780q0 129 -64 201q-65 72 -196 72q-246 0 -428 -183l-30 31q188 197 458 197q156 0 232 -82t76 -232v-551q0 -154 24 -233h-47q-23 61 -25 190q-82 -86 -204 -152
t-260 -65q-137 0 -216 68t-79 195q0 184 189 292t570 164v88zM244 1182l280 319h33l281 -319h-43l-256 254l-252 -254h-43z" />
    <glyph glyph-name="atilde" unicode="&#xe3;" horiz-adv-x="1081" 
d="M162 236q0 -104 66 -161q67 -57 193 -57q127 0 253 72t200 156v405q-384 -59 -548 -163t-164 -252zM874 780q0 129 -64 201q-65 72 -196 72q-246 0 -428 -183l-30 31q188 197 458 197q156 0 232 -82t76 -232v-551q0 -154 24 -233h-47q-23 61 -25 190q-82 -86 -204 -152
t-260 -65q-137 0 -216 68t-79 195q0 184 189 292t570 164v88zM236 1192q0 172 136 172q66 0 176 -64t157 -63q94 0 94 127h47q0 -172 -134 -172q-64 0 -178 64q-112 64 -159 63q-94 0 -92 -127h-47z" />
    <glyph glyph-name="adieresis" unicode="&#xe4;" horiz-adv-x="1081" 
d="M162 236q0 -104 66 -161q67 -57 193 -57q127 0 253 72t200 156v405q-384 -59 -548 -163t-164 -252zM874 780q0 129 -64 201q-65 72 -196 72q-246 0 -428 -183l-30 31q188 197 458 197q156 0 232 -82t76 -232v-551q0 -154 24 -233h-47q-23 61 -25 190q-82 -86 -204 -152
t-260 -65q-137 0 -216 68t-79 195q0 184 189 292t570 164v88zM356 1192v100h68v-100h-68zM657 1192v100h68v-100h-68z" />
    <glyph glyph-name="aring" unicode="&#xe5;" horiz-adv-x="1081" 
d="M541 1505q-57 0 -95 -37t-38 -95t38 -95t94 -37q58 0 96 37t38 95t-38 95t-95 37zM162 236q0 -104 66 -161q67 -57 193 -57q127 0 253 72t200 156v405q-384 -59 -548 -163t-164 -252zM874 780q0 129 -64 201q-65 72 -196 72q-246 0 -428 -183l-30 31q188 197 458 197
q156 0 232 -82t76 -232v-551q0 -154 24 -233h-47q-23 61 -25 190q-82 -86 -204 -152t-260 -65q-137 0 -216 68t-79 195q0 184 189 292t570 164v88zM541 1196q-78 0 -129 51t-52 127q0 76 52 126t129 50q78 0 129 -50t51 -126t-51 -127t-129 -51z" />
    <glyph glyph-name="ae" unicode="&#xe6;" horiz-adv-x="1849" 
d="M162 236q0 -104 66 -161q67 -57 196 -57t260 75t231 194q-41 117 -41 248v116q-388 -59 -550 -163t-162 -252zM1319 1055q-153 0 -267 -121t-128 -342h757q-8 219 -109 341t-253 122zM874 780q0 129 -64 201q-65 72 -196 72q-246 0 -428 -183l-30 31q188 197 458 197
q295 0 306 -303q55 147 164 226q110 79 235 79q178 0 295 -142t117 -403v-6h-809v-14q0 -207 104 -360t287 -152q205 0 381 247l37 -26q-188 -266 -418 -267q-133 0 -230 73q-96 73 -149 196q-100 -115 -238 -194t-280 -79q-143 0 -222 68t-79 195q0 184 189 292t570 164v88
z" />
    <glyph glyph-name="ccedilla" unicode="&#xe7;" horiz-adv-x="1077" 
d="M121 537q0 272 133 416t319 145q143 0 231 -73t148 -220l-41 -21q-57 135 -133 202t-205 67q-169 0 -287 -133q-118 -134 -118 -366t108 -382t285 -149q129 -1 210 67t151 211l41 -20q-76 -156 -167 -230t-235 -74h-12l-39 -127q50 50 116 50t107 -35t41 -86
q0 -84 -64 -130t-186 -46q-120 0 -227 78l25 34q96 -70 223 -69q80 0 131 34t51 99q0 33 -28 55q-27 22 -77 23q-50 0 -130 -58l-33 25l45 158q-172 25 -278 181q-105 157 -105 374z" />
    <glyph glyph-name="egrave" unicode="&#xe8;" horiz-adv-x="1093" 
d="M563 1055q-153 0 -267 -121t-128 -342h758q-8 219 -110 341t-253 122zM166 549v-14q0 -207 104 -360t287 -152q205 0 381 247l37 -26q-188 -266 -418 -267q-205 0 -321 166t-117 392q0 272 133 418q133 147 311 147t295 -142t117 -403v-6h-809zM618 1192h-32l-273 309h88
z" />
    <glyph glyph-name="eacute" unicode="&#xe9;" horiz-adv-x="1093" 
d="M563 1055q-153 0 -267 -121t-128 -342h758q-8 219 -110 341t-253 122zM166 549v-14q0 -207 104 -360t287 -152q205 0 381 247l37 -26q-188 -266 -418 -267q-205 0 -321 166t-117 392q0 272 133 418q133 147 311 147t295 -142t117 -403v-6h-809zM475 1192l217 309h88
l-272 -309h-33z" />
    <glyph glyph-name="ecircumflex" unicode="&#xea;" horiz-adv-x="1093" 
d="M563 1055q-153 0 -267 -121t-128 -342h758q-8 219 -110 341t-253 122zM166 549v-14q0 -207 104 -360t287 -152q205 0 381 247l37 -26q-188 -266 -418 -267q-205 0 -321 166t-117 392q0 272 133 418q133 147 311 147t295 -142t117 -403v-6h-809zM250 1182l280 319h33
l281 -319h-43l-256 254l-252 -254h-43z" />
    <glyph glyph-name="edieresis" unicode="&#xeb;" horiz-adv-x="1093" 
d="M563 1055q-153 0 -267 -121t-128 -342h758q-8 219 -110 341t-253 122zM166 549v-14q0 -207 104 -360t287 -152q205 0 381 247l37 -26q-188 -266 -418 -267q-205 0 -321 166t-117 392q0 272 133 418q133 147 311 147t295 -142t117 -403v-6h-809zM362 1192v100h68v-100h-68
zM664 1192v100h67v-100h-67z" />
    <glyph glyph-name="igrave" unicode="&#xec;" horiz-adv-x="419" 
d="M229 1192h-32l-273 309h88zM186 0v1075h47v-1075h-47z" />
    <glyph glyph-name="iacute" unicode="&#xed;" horiz-adv-x="419" 
d="M186 0v1075h47v-1075h-47zM188 1192l218 309h88l-273 -309h-33z" />
    <glyph glyph-name="icircumflex" unicode="&#xee;" horiz-adv-x="419" 
d="M-88 1161l281 320h32l281 -320h-43l-256 254l-252 -254h-43zM186 0v1075h47v-1075h-47z" />
    <glyph glyph-name="idieresis" unicode="&#xef;" horiz-adv-x="419" 
d="M25 1192v100h67v-100h-67zM326 1192v100h67v-100h-67zM186 0v1075h47v-1075h-47z" />
    <glyph glyph-name="eth" unicode="&#xf0;" horiz-adv-x="1161" 
d="M580 23q172 0 292 146q120 145 121 369q0 224 -121 369q-122 145 -294 145t-291 -144q-119 -146 -119 -369t120 -369t292 -147zM579 -23q-189 0 -324 159q-134 159 -134 404q0 246 133 402t326 156q110 0 208 -58t158 -161q-74 229 -241 426l-197 -93l-19 39l185 86
q-72 78 -168 154l24 33q109 -86 183 -168l227 104l16 -39l-213 -98q297 -346 297 -786q0 -240 -136 -400t-325 -160z" />
    <glyph glyph-name="ntilde" unicode="&#xf1;" horiz-adv-x="1153" 
d="M176 0v1075h47v-188q236 211 443 211q330 0 329 -340v-758h-47v758q0 295 -282 295q-211 0 -443 -219v-834h-47zM270 1192q0 172 136 172q66 0 176 -64t158 -63q94 0 94 127h47q-1 -172 -135 -172q-64 0 -176 64t-160 63q-93 0 -93 -127h-47z" />
    <glyph glyph-name="ograve" unicode="&#xf2;" horiz-adv-x="1161" 
d="M580 23q172 0 292 146q120 145 121 369q0 224 -121 369q-122 145 -294 145t-291 -144q-119 -146 -119 -369t120 -369t292 -147zM579 -23q-189 0 -324 159q-134 159 -134 404q0 246 133 402q134 156 324 156t326 -158t136 -400t-136 -403q-136 -160 -325 -160zM651 1192
h-33l-272 309h88z" />
    <glyph glyph-name="oacute" unicode="&#xf3;" horiz-adv-x="1161" 
d="M580 23q172 0 292 146q120 145 121 369q0 224 -121 369q-122 145 -294 145t-291 -144q-119 -146 -119 -369t120 -369t292 -147zM579 -23q-189 0 -324 159q-134 159 -134 404q0 246 133 402q134 156 324 156t326 -158t136 -400t-136 -403q-136 -160 -325 -160zM508 1192
l217 309h88l-272 -309h-33z" />
    <glyph glyph-name="ocircumflex" unicode="&#xf4;" horiz-adv-x="1161" 
d="M580 23q172 0 292 146q120 145 121 369q0 224 -121 369q-122 145 -294 145t-291 -144q-119 -146 -119 -369t120 -369t292 -147zM579 -23q-189 0 -324 159q-134 159 -134 404q0 246 133 402q134 156 324 156t326 -158t136 -400t-136 -403q-136 -160 -325 -160zM283 1182
l280 319h33l281 -319h-43l-256 254l-252 -254h-43z" />
    <glyph glyph-name="otilde" unicode="&#xf5;" horiz-adv-x="1161" 
d="M580 23q172 0 292 146q120 145 121 369q0 224 -121 369q-122 145 -294 145t-291 -144q-119 -146 -119 -369t120 -369t292 -147zM579 -23q-189 0 -324 159q-134 159 -134 404q0 246 133 402q134 156 324 156t326 -158t136 -400t-136 -403q-136 -160 -325 -160zM274 1192
q0 172 136 172q66 0 176 -64t158 -63q94 0 94 127h47q-1 -172 -135 -172q-64 0 -176 64t-160 63q-94 0 -92 -127h-48z" />
    <glyph glyph-name="odieresis" unicode="&#xf6;" horiz-adv-x="1161" 
d="M580 23q172 0 292 146q120 145 121 369q0 224 -121 369q-122 145 -294 145t-291 -144q-119 -146 -119 -369t120 -369t292 -147zM579 -23q-189 0 -324 159q-134 159 -134 404q0 246 133 402q134 156 324 156t326 -158t136 -400t-136 -403q-136 -160 -325 -160zM395 1192
v100h68v-100h-68zM696 1192v100h68v-100h-68z" />
    <glyph glyph-name="divide" unicode="&#xf7;" horiz-adv-x="1284" 
d="M598 258v117h86v-117h-86zM133 641v47h1018v-47h-1018zM598 952v117h86v-117h-86z" />
    <glyph glyph-name="oslash" unicode="&#xf8;" horiz-adv-x="1161" 
d="M836 948l-474 -852q100 -74 218 -73q172 0 292 146t121 368q1 259 -157 411zM580 1053q-174 1 -293 -145t-119 -371q0 -265 162 -412l473 850q-104 78 -223 78zM1040 537q0 -240 -136 -400t-324 -160q-131 0 -240 80l-80 -145l-37 20l84 152q-186 166 -186 453
q0 249 133 405t326 156q137 0 245 -84l74 135l37 -21l-78 -141q182 -162 182 -450z" />
    <glyph glyph-name="ugrave" unicode="&#xf9;" horiz-adv-x="1153" 
d="M977 1075v-1075h-47v188q-236 -211 -443 -211q-330 0 -329 340v758h47v-758q0 -295 282 -294q211 0 443 219v833h47zM647 1192h-33l-272 309h88z" />
    <glyph glyph-name="uacute" unicode="&#xfa;" horiz-adv-x="1153" 
d="M977 1075v-1075h-47v188q-236 -211 -443 -211q-330 0 -329 340v758h47v-758q0 -295 282 -294q211 0 443 219v833h47zM504 1192l217 309h88l-272 -309h-33z" />
    <glyph glyph-name="ucircumflex" unicode="&#xfb;" horiz-adv-x="1153" 
d="M977 1075v-1075h-47v188q-236 -211 -443 -211q-330 0 -329 340v758h47v-758q0 -295 282 -294q211 0 443 219v833h47zM279 1182l280 319h33l280 -319h-43l-256 254l-251 -254h-43z" />
    <glyph glyph-name="udieresis" unicode="&#xfc;" horiz-adv-x="1153" 
d="M977 1075v-1075h-47v188q-236 -211 -443 -211q-330 0 -329 340v758h47v-758q0 -295 282 -294q211 0 443 219v833h47zM391 1192v100h68v-100h-68zM692 1192v100h68v-100h-68z" />
    <glyph glyph-name="yacute" unicode="&#xfd;" horiz-adv-x="1021" 
d="M177 -371q178 0 249 195l63 166l-413 1085h49l389 -1020l385 1020h47l-479 -1268q-43 -117 -116 -169q-125 -90 -365 -29l12 45q92 -25 179 -25zM453 1192l217 309h88l-273 -309h-32z" />
    <glyph glyph-name="thorn" unicode="&#xfe;" horiz-adv-x="1179" 
d="M610 23q180 0 290 130t110 385t-113 385t-291 130q-209 0 -383 -211v-602q104 -115 191 -166t196 -51zM176 -410v1926h47v-619q68 80 168 140t219 61q203 0 325 -142t122 -417q0 -273 -122 -417t-327 -144t-385 204v-592h-47z" />
    <glyph glyph-name="ydieresis" unicode="&#xff;" horiz-adv-x="1021" 
d="M177 -371q178 0 249 195l63 166l-413 1085h49l389 -1020l385 1020h47l-479 -1268q-43 -117 -116 -169q-125 -90 -365 -29l12 45q92 -25 179 -25zM326 1192v100h67v-100h-67zM627 1192v100h67v-100h-67z" />
    <glyph glyph-name="dotlessi" unicode="&#x131;" horiz-adv-x="419" 
d="M186 0v1075h47v-1075h-47z" />
    <glyph glyph-name="Lslash" unicode="&#x141;" horiz-adv-x="1144" 
d="M213 1516h51v-736l281 94v-47l-281 -92v-688h789v-47h-840v717l-164 -53v47l164 53v752z" />
    <glyph glyph-name="lslash" unicode="&#x142;" horiz-adv-x="520" 
d="M236 1516h47v-715l225 73v-47l-225 -73v-754h-47v737l-224 -73v47l224 73v732z" />
    <glyph glyph-name="OE" unicode="&#x152;" horiz-adv-x="2283" 
d="M747 16q245 0 403 209t159 533q0 324 -159 532q-160 208 -404 209q-244 0 -401 -208q-157 -207 -157 -533t157 -534t402 -208zM1309 1516h856v-48h-805v-639h610v-47h-610v-735h819v-47h-870v436q-67 -215 -217 -341t-344 -126q-266 0 -439 220q-172 221 -172 569
t172 568t439 220q195 0 344 -126t217 -341v437z" />
    <glyph glyph-name="oe" unicode="&#x153;" horiz-adv-x="1968" 
d="M580 23q172 0 292 146q120 145 121 369q0 224 -121 369q-122 145 -294 145t-291 -144q-119 -146 -119 -369t120 -369t292 -147zM1438 1055q-152 0 -267 -121t-129 -342h758q-8 219 -109 341t-253 122zM121 540q0 246 133 402t326 156q152 0 272 -104t164 -281
q41 188 160 287t262 100q178 0 295 -142t116 -403v-6h-809v-14q0 -207 104 -360t288 -152q205 0 380 247l37 -26q-188 -266 -417 -267q-162 0 -271 110q-108 110 -145 280q-45 -177 -166 -283t-270 -107q-190 0 -325 159q-134 159 -134 404z" />
    <glyph glyph-name="Scaron" unicode="&#x160;" horiz-adv-x="1296" 
d="M658 -31q-230 1 -354 107t-183 301l49 16q57 -184 171 -280q114 -97 322 -97q209 0 327 92t118 252q0 158 -93 243t-355 171t-356 169q-93 83 -93 241t118 260q119 102 313 102t312 -96t172 -254l-49 -16q-117 319 -434 319q-176 0 -278 -87q-103 -86 -103 -224t88 -214
t341 -157q253 -82 361 -175q108 -92 108 -278t-137 -290q-135 -104 -365 -105zM944 1931l-280 -319h-33l-281 319h43l256 -254l252 254h43z" />
    <glyph glyph-name="scaron" unicode="&#x161;" 
d="M506 23q158 -1 251 67t93 184t-83 174t-270 105t-269 107q-81 60 -81 178q1 118 89 188q88 72 245 72q233 0 375 -162l-37 -29q-127 145 -338 146q-143 1 -215 -59t-72 -157t73 -148q73 -50 207 -84q134 -33 194 -55q155 -55 202 -149q27 -53 27 -127q1 -135 -107 -216
t-284 -81q-244 0 -391 197l37 29q143 -180 354 -180zM809 1511l-281 -319h-32l-281 319h43l256 -254l252 254h43z" />
    <glyph glyph-name="Ydieresis" unicode="&#x178;" horiz-adv-x="1222" 
d="M586 0v690l-516 826h55l487 -779l490 779h53l-518 -826v-690h-51zM426 1612v100h68v-100h-68zM727 1612v100h68v-100h-68z" />
    <glyph glyph-name="Zcaron" unicode="&#x17d;" horiz-adv-x="1255" 
d="M1139 0h-1043v47l991 1423h-937v46h995v-48l-987 -1423h981v-45zM924 1931l-281 -319h-33l-280 319h43l256 -254l252 254h43z" />
    <glyph glyph-name="zcaron" unicode="&#x17e;" horiz-adv-x="1021" 
d="M907 0h-786v41l706 991h-669v43h725v-41l-707 -991h731v-43zM807 1511l-281 -319h-32l-281 319h43l256 -254l252 254h43z" />
    <glyph glyph-name="florin" unicode="&#x192;" horiz-adv-x="722" 
d="M-80 -371q-20 0 -70 6l5 43q33 -4 65 -4q186 0 209 166l162 1155h-191l6 45h191l31 217q37 260 331 261h54v-45h-54q-131 -1 -201 -53t-85 -171l-29 -209h287l-6 -45h-287l-164 -1163q-14 -102 -82 -152t-172 -51z" />
    <glyph glyph-name="circumflex" unicode="&#x2c6;" 
d="M215 1182l281 319h32l281 -319h-43l-256 254l-252 -254h-43z" />
    <glyph glyph-name="caron" unicode="&#x2c7;" 
d="M809 1511l-281 -319h-32l-281 319h43l256 -254l252 254h43z" />
    <glyph glyph-name="breve" unicode="&#x2d8;" 
d="M515 1235q99 0 168 77t77 204h39q-8 -150 -88 -238t-196 -88t-199 89t-91 237h39q8 -127 80 -204t171 -77z" />
    <glyph glyph-name="dotaccent" unicode="&#x2d9;" 
d="M479 1356v86h66v-86h-66z" />
    <glyph glyph-name="ring" unicode="&#x2da;" 
d="M512 1241q57 0 95 37t38 95t-38 95t-95 37t-95 -37t-38 -95t38 -95t95 -37zM512 1196q-78 0 -129 51t-51 127t51 126t129 50t129 -50t51 -126t-51 -127t-129 -51z" />
    <glyph glyph-name="ogonek" unicode="&#x2db;" 
d="M373 -226q0 -114 137 -114q111 0 217 72l21 -35q-116 -76 -218 -76t-154 38q-52 39 -52 105t54 130t132 106h55q-76 -41 -134 -103q-58 -63 -58 -123z" />
    <glyph glyph-name="tilde" unicode="&#x2dc;" 
d="M207 1192q0 172 136 172q65 0 175 -64t158 -63q95 0 94 127h47q0 -172 -134 -172q-65 0 -177 64t-160 63q-94 0 -92 -127h-47z" />
    <glyph glyph-name="hungarumlaut" unicode="&#x2dd;" 
d="M209 1192l217 309h88l-272 -309h-33zM510 1192l217 309h88l-272 -309h-33z" />
    <glyph glyph-name="endash" unicode="&#x2013;" horiz-adv-x="1187" 
d="M152 623v47h884v-47h-884z" />
    <glyph glyph-name="emdash" unicode="&#x2014;" horiz-adv-x="1884" 
d="M152 623v47h1581v-47h-1581z" />
    <glyph glyph-name="quoteleft" unicode="&#x2018;" horiz-adv-x="522" 
d="M305 1325v-106h-88v94l55 203h31l-37 -191h39z" />
    <glyph glyph-name="quoteright" unicode="&#x2019;" horiz-adv-x="522" 
d="M217 1409v107h88v-95l-55 -202h-31l37 190h-39z" />
    <glyph glyph-name="quotesinglbase" unicode="&#x201a;" horiz-adv-x="522" 
d="M217 0v106h88v-94l-55 -202h-31l37 190h-39z" />
    <glyph glyph-name="quotedblleft" unicode="&#x201c;" horiz-adv-x="788" 
d="M305 1325v-106h-88v94l55 203h31l-37 -191h39zM571 1325v-106h-88v94l56 203h30l-37 -191h39z" />
    <glyph glyph-name="quotedblright" unicode="&#x201d;" horiz-adv-x="788" 
d="M217 1409v107h88v-95l-55 -202h-31l37 190h-39zM483 1409v107h88v-95l-55 -202h-31l37 190h-39z" />
    <glyph glyph-name="quotedblbase" unicode="&#x201e;" horiz-adv-x="788" 
d="M217 0v106h88v-94l-55 -202h-31l37 190h-39zM483 0v106h88v-94l-55 -202h-31l37 190h-39z" />
    <glyph glyph-name="dagger" unicode="&#x2020;" horiz-adv-x="1112" 
d="M578 948l421 4v-47l-421 4l6 -1319h-52l5 1319l-422 -4v47l422 -4l-5 568h52z" />
    <glyph glyph-name="daggerdbl" unicode="&#x2021;" horiz-adv-x="1114" 
d="M537 967l-422 -4v47l422 -4l-5 510h52l-6 -510l421 4v-47l-421 4l6 -414l-6 -414l421 4v-47l-421 4l6 -510h-52l5 510l-422 -4v47l422 -4l-5 414z" />
    <glyph glyph-name="bullet" unicode="&#x2022;" horiz-adv-x="944" 
d="M470 518q-89 0 -144 55q-56 55 -56 143t56 145t144 57q89 0 145 -56q57 -56 57 -145q0 -87 -56 -143t-146 -56z" />
    <glyph glyph-name="ellipsis" unicode="&#x2026;" horiz-adv-x="1273" 
d="M168 0v106h88v-106h-88zM594 0v106h88v-106h-88zM1018 0v106h88v-106h-88z" />
    <glyph glyph-name="perthousand" unicode="&#x2030;" horiz-adv-x="2727" 
d="M1440 831q-125 -1 -197 -109t-72 -290t70 -290t195 -108q126 0 200 108t74 290t-72 290t-198 109zM2257 831q-125 -1 -197 -109t-72 -290t70 -290t195 -108t199 108t75 290q0 182 -72 291q-73 108 -198 108zM469 1481q-125 0 -197 -109t-72 -291q0 -181 70 -289t195 -108
t200 108t75 290t-73 290q-73 109 -198 109zM1761 432q0 -208 -89 -326t-235 -118t-232 118q-85 119 -85 326t87 327t233 120t233 -120q88 -120 88 -327zM2578 432q0 -208 -89 -326t-235 -118t-232 118q-85 119 -85 326t87 327q86 120 232 120t234 -120t88 -327zM1427 1516
l-903 -1516h-51l903 1516h51zM466 637q-146 0 -232 119q-84 120 -84 326t87 326t232 120t233 -120t88 -327t-88 -325q-90 -118 -236 -119z" />
    <glyph glyph-name="guilsinglleft" unicode="&#x2039;" horiz-adv-x="641" 
d="M420 0l-293 539l293 536h51l-295 -536l295 -539h-51z" />
    <glyph glyph-name="guilsinglright" unicode="&#x203a;" horiz-adv-x="641" 
d="M221 1075l293 -538l-293 -537h-51l295 537l-295 538h51z" />
    <glyph glyph-name="fraction" unicode="&#x2044;" horiz-adv-x="954" 
d="M954 1516l-903 -1516h-51l903 1516h51z" />
    <glyph glyph-name="Euro" unicode="&#x20ac;" horiz-adv-x="1478" 
d="M41 893v47h231q41 272 195 439t368 167t325 -135t167 -321l-49 -17q-29 92 -60 160q-83 177 -210 232q-76 34 -174 34q-195 -1 -333 -155t-177 -404h522v-47h-529q-6 -57 -6 -129t8 -131h527v-47h-520q41 -254 180 -412t345 -158t315 150q85 118 139 293l49 -13
q-40 -154 -142 -299q-57 -82 -151 -130t-215 -48q-221 0 -376 170t-196 447h-233v47h227q-8 59 -8 131t6 129h-225z" />
    <glyph glyph-name="recordright" unicode="&#x2117;" horiz-adv-x="1765" 
d="M678 764h233q260 0 260 199q0 92 -65 140q-66 48 -186 48h-242v-387zM633 324v870h287q143 0 220 -60t77 -176t-81 -176t-225 -61h-233v-397h-45zM883 16q307 0 521 217t214 525t-214 524q-214 217 -521 217t-521 -217t-215 -524q0 -307 214 -525q215 -217 522 -217z
M883 -29q-326 1 -553 231t-228 556q0 326 228 556t553 230q326 0 553 -230t227 -556t-227 -556t-553 -231z" />
    <glyph glyph-name="trademark" unicode="&#x2122;" horiz-adv-x="1763" 
d="M350 1470h-289v46h629v-46h-293v-821h-47v821zM899 649h-39v867h37l342 -816l348 816h39v-867h-45v756l-324 -756h-43l-315 750v-750z" />
    <glyph glyph-name="minus" unicode="&#x2212;" horiz-adv-x="1277" 
d="M133 641v47h1012v-47h-1012z" />
    <glyph glyph-name="radical" unicode="&#x221a;" horiz-adv-x="1191" 
d="M487 -8l-411 1083h49l389 -1024l555 1465h47l-577 -1524h-52z" />
    <glyph glyph-name="registered.alt" unicode="&#xe000;" horiz-adv-x="1169" 
d="M469 1079h133q150 0 150 113q0 106 -146 106h-137v-219zM428 803v534h178q184 0 185 -145q0 -133 -154 -150l154 -239h-48l-149 237h-125v-237h-41zM586 631q180 0 307 128t127 310t-127 310t-307 128t-308 -128t-128 -310t128 -310t308 -128zM586 592q-199 0 -337 139
t-138 338t138 338t337 139t336 -139t137 -338t-137 -338t-336 -139z" />
    <glyph glyph-name="fl" unicode="&#xfb02;" horiz-adv-x="1052" 
d="M819 0v1516h47v-1516h-47zM262 1030h-188v45h188v211q0 123 75 177t238 57v-45q-143 0 -204 -42t-62 -143v-215h258v-45h-258v-1030h-47v1030z" />
    </font>
</defs>
</svg>
