<svg id="Layer_1" xmlns="http://www.w3.org/2000/svg" xmlns:xlink="http://www.w3.org/1999/xlink" viewBox="0 0 242 60"><style>.st0{fill:#0071bc}.st0,.st1{clip-path:url(#SVGID_2_)}.st2{fill:#d71c24}.st3{fill:url(#SVGID_3_)}.st4{fill:#d71c24}.st4,.st5{clip-path:url(#SVGID_2_)}.st5{fill:url(#SVGID_4_)}.st6{fill:#0071bc}.st7{fill:url(#SVGID_5_)}.st8{fill:url(#SVGID_6_)}.st9{fill:#FFF}</style><path d="M82.9 25.2l-1.1-3.6h-5.6l-1.1 3.6h-3.5L77 9.9h4l5.4 15.4h-3.5zm-1.8-6.3c-1-3.3-1.6-5.2-1.7-5.6-.1-.4-.2-.8-.3-1-.2.9-.9 3.1-2 6.6h4zM96.4 25.2l-.4-1.5h-.2c-.3.5-.8 1-1.5 1.3s-1.3.4-2.1.4c-1.4 0-2.4-.4-3.1-1.1s-1-1.8-1-3.2v-7.6h3.2v6.8c0 .8.1 1.5.4 1.9s.8.6 1.4.6c.9 0 1.5-.3 1.9-.9.4-.6.6-1.6.6-3v-5.5h3.2v11.7h-2.4zM110.3 21.8c0 1.2-.4 2.1-1.2 2.7-.8.6-2.1.9-3.7.9-.9 0-1.6-.1-2.2-.2-.6-.1-1.2-.3-1.7-.5v-2.6c.6.3 1.3.5 2 .7.7.2 1.4.3 2 .3 1.2 0 1.7-.3 1.7-1 0-.3-.1-.5-.2-.6-.2-.2-.4-.3-.8-.5s-.9-.4-1.5-.7c-.9-.4-1.6-.7-2-1-.4-.3-.7-.7-.9-1.1-.2-.4-.3-.9-.3-1.5 0-1 .4-1.8 1.2-2.4.8-.6 1.9-.9 3.4-.9 1.4 0 2.8.3 4.1.9l-1 2.3c-.6-.3-1.1-.5-1.6-.6-.5-.2-1-.2-1.6-.2-.9 0-1.4.3-1.4.8 0 .3.2.5.5.7.3.2 1 .5 2 .9.9.4 1.6.7 2 1s.7.7.9 1.1.3.9.3 1.5zM117.7 22.9c.6 0 1.2-.1 2-.4v2.4c-.8.4-1.8.5-2.9.5-1.3 0-2.2-.3-2.8-1-.6-.6-.9-1.6-.9-2.9v-5.6h-1.5v-1.3l1.8-1.1.9-2.5h2v2.5h3.3v2.4h-3.3v5.6c0 .5.1.8.4 1 .3.3.6.4 1 .4zM128.6 13.3c.4 0 .8 0 1.1.1l-.2 3c-.3-.1-.6-.1-.9-.1-1 0-1.8.3-2.4.8-.6.5-.9 1.3-.9 2.2v5.9h-3.2V13.5h2.4l.5 2h.2c.4-.7.9-1.2 1.5-1.6.5-.4 1.2-.6 1.9-.6zM139.3 25.2l-.6-1.6h-.1c-.5.7-1.1 1.1-1.7 1.4-.6.3-1.3.4-2.2.4-1.1 0-2-.3-2.7-1s-1-1.6-1-2.7c0-1.2.4-2.2 1.3-2.7.9-.6 2.2-.9 3.9-1l2-.1v-.5c0-1.2-.6-1.8-1.8-1.8-.9 0-2 .3-3.3.8l-1.1-2.2c1.3-.7 2.8-1.1 4.5-1.1 1.6 0 2.8.3 3.6 1 .8.7 1.3 1.7 1.3 3.1V25h-2.1zm-1-5.4h-1.2c-.9 0-1.6.2-2.1.5s-.7.8-.7 1.4c0 .9.5 1.3 1.5 1.3.7 0 1.3-.2 1.8-.6.4-.4.7-1 .7-1.7v-.9zM148 25.2h-3.2V9h3.2v16.2zM151.2 10.5c0-1 .6-1.6 1.7-1.6 1.2 0 1.7.5 1.7 1.6 0 .5-.1.9-.4 1.2-.3.3-.7.4-1.3.4-1.1 0-1.7-.5-1.7-1.6zm3.3 14.7h-3.2V13.5h3.2v11.7zM165.3 25.2l-.6-1.6h-.1c-.5.7-1.1 1.1-1.7 1.4s-1.3.4-2.2.4c-1.1 0-2-.3-2.7-1-.6-.6-1-1.6-1-2.7 0-1.2.4-2.2 1.3-2.7.9-.6 2.2-.9 3.9-1l2-.1v-.5c0-1.2-.6-1.8-1.8-1.8-.9 0-2 .3-3.3.8l-1.1-2.2c1.3-.7 2.8-1.1 4.5-1.1 1.6 0 2.8.3 3.6 1 .8.7 1.3 1.7 1.3 3.1V25h-2.1zm-1-5.4h-1.2c-.9 0-1.6.2-2.1.5s-.7.8-.7 1.4c0 .9.5 1.3 1.5 1.3.7 0 1.3-.2 1.8-.6.4-.4.7-1 .7-1.7v-.9zM181.6 25.2h-3.2v-6.8c0-.8-.1-1.5-.4-1.9-.3-.4-.8-.6-1.4-.6-.9 0-1.5.3-1.9.9-.4.6-.6 1.6-.6 3v5.5h-3.2V13.5h2.4l.4 1.5h.2c.4-.6.8-1 1.5-1.3.6-.3 1.3-.4 2.1-.4 1.4 0 2.4.4 3.1 1.1.7.7 1.1 1.8 1.1 3.2v7.6z"/><g><path d="M72.5 48.3h2.6V34.7h-2.6v-.8H79c2.1 0 5.8.7 5.8 4.6 0 3.9-3.7 4.6-5.8 4.6h-3v5.2h3v.8h-6.5v-.8zm3.5-6h3c3.2 0 4.9-1.4 4.9-3.8s-1.7-3.8-4.9-3.8h-3v7.6zM86.3 48.4h2.1v-9h-2.1v-.7h3V41c.9-1.3 2.3-2.6 4.2-2.6h.2v.8h-.2c-1.8 0-3.2 1.2-4.3 2.4v6.7h2.3v.7h-5.3v-.6zM94.6 43.9c0-3.5 2.2-5.5 5-5.5s5 2 5 5.5-2.2 5.5-5 5.5-5-2-5-5.5zm9.1 0c0-3-1.6-4.7-4.1-4.7-2.5 0-4.1 1.8-4.1 4.7 0 3 1.6 4.7 4.1 4.7 2.4 0 4.1-1.8 4.1-4.7zM106 53.3h2.1V39.4H106v-.7h3v1.7c.9-1 2.2-1.9 3.9-1.9 3 0 4.5 2.6 4.5 5.5s-1.6 5.5-4.7 5.5c-1.7 0-2.8-.7-3.7-1.7v5.6h2.4v.7H106v-.8zm3-12.1v5.6c.8.9 2 1.8 3.7 1.8 2.6 0 3.9-2.1 3.9-4.8 0-2.4-1.1-4.7-3.7-4.7-1.9 0-3 1.1-3.9 2.1zM119.5 43.9c0-3.4 1.9-5.5 4.7-5.5 3.2 0 4.4 2.9 4.4 5.1v.5h-8.2c0 2.8 1.6 4.6 4.2 4.6 1.2 0 2.5-.4 3.6-1.1v.8c-1 .6-2.1 1-3.6 1-3.3.1-5.1-2.1-5.1-5.4zm.9-.6h7.4c-.1-2-1.1-4.1-3.6-4.1-2.2-.1-3.6 1.6-3.8 4.1zM130.3 48.4h2.1v-9h-2.1v-.7h3V41c.9-1.3 2.3-2.6 4.2-2.6h.2v.8h-.2c-1.8 0-3.2 1.2-4.3 2.4v6.7h2.3v.7h-5.3v-.6zM140.4 46.4v-7h-1.8v-.7h1.8V36h.8v2.7h3.6v.7h-3.6v7c0 1.5.6 2.3 2.1 2.3.6 0 1.2-.1 1.6-.3v.7c-.7.2-1 .3-1.7.3-.4 0-2.8 0-2.8-3zM146 53.6l.3-.7c.5.3 1 .6 1.8.6 1.2 0 2-.7 2.4-1.8l1-2.6h-.8l-3.4-9.7h-1.7v-.7h4.8v.7h-2.2l3.3 9.7 3.7-9.7H153v-.7h4.8v.7h-1.7l-5 12.7c-.5 1.3-1.6 2.2-3 2.2-.8 0-1.5-.3-2.1-.7zM164 48.3h2.6V34.7H164v-.8h11.8v4.2h-.8v-3.4h-7.5v6.6h6.7v.8h-6.7v6.2h3v.8H164v-.8zM177.3 48.4h2.1v-9h-2.1v-.7h3v9.7h2.1v.7h-5.1v-.7zm2.3-14.6c.4 0 .8.4.8.8s-.4.8-.8.8-.8-.4-.8-.8.4-.8.8-.8zM183.5 48.4h2.1v-9h-2.1v-.7h3v1.7c1.3-1.2 2.8-2 4.3-2 1.9 0 3 1.2 3 3.5v6.5h2.1v.7h-5.1v-.7h2.1V42c0-1.7-.6-2.8-2.3-2.8-1.6 0-3.1 1.1-4.2 2.1v7.1h2.1v.7h-5.1v-.7zM197 46.4c0-2.7 2.8-3.2 4.7-3.2h2.6v-1.1c0-2.2-.8-2.9-2.8-2.9-1.3 0-2.6.3-3.6.7v-.8c1.1-.4 2.4-.7 3.7-.7 2.5 0 3.6 1.1 3.6 3.5v6.4h2.1v.7h-2.9v-1.4c-.9.7-2.4 1.7-4.1 1.7-1.7.1-3.3-.9-3.3-2.9zm7.3.4v-2.9h-2.6c-1.6 0-3.8.4-3.8 2.5 0 1.5 1.1 2.2 2.5 2.2 1.6 0 3-1 3.9-1.8zM208.3 48.4h2.1v-9h-2.1v-.7h3v1.7c1.3-1.2 2.8-2 4.3-2 1.9 0 3 1.2 3 3.5v6.5h2.1v.7h-5.1v-.7h2.1V42c0-1.7-.6-2.8-2.3-2.8-1.6 0-3.1 1.1-4.2 2.1v7.1h2.1v.7h-5.1v-.7zM222 43.9c0-3.3 2-5.5 5.3-5.5 1.3 0 2.6.3 3.5.7v2.7h-.8v-2.2c-.6-.2-1.7-.4-2.7-.4-3 0-4.4 2-4.4 4.7 0 2.9 1.7 4.8 4.4 4.8 1.3 0 2.5-.4 3.6-1.1v.8c-1 .6-2.1 1.1-3.6 1.1-3.2-.1-5.3-2.3-5.3-5.6zM232.9 43.9c0-3.4 1.9-5.5 4.7-5.5 3.2 0 4.4 2.9 4.4 5.1v.5h-8.2c0 2.8 1.6 4.6 4.2 4.6 1.2 0 2.5-.4 3.6-1.1v.8c-1 .6-2.1 1-3.6 1-3.3.1-5.1-2.1-5.1-5.4zm.9-.6h7.4c-.1-2-1.1-4.1-3.6-4.1-2.2-.1-3.6 1.6-3.8 4.1z"/></g><g><defs><circle id="SVGID_1_" cx="30" cy="30" r="30"/></defs><clipPath id="SVGID_2_"><use xlink:href="#SVGID_1_" overflow="visible"/></clipPath><ellipse class="st0" cx="13.5" cy="41.6" rx="14.3" ry="14"/><g class="st1"><path class="st2" d="M37.9 36.1c-5.1-6.4 4-29 12-30.2S74 24.2 70.1 31.4s-27.1 11-32.2 4.7z"/><linearGradient id="SVGID_3_" gradientUnits="userSpaceOnUse" x1="203.477" y1="99.898" x2="222.7" y2="138.389" gradientTransform="rotate(-38.418 -7.577 314.55)"><stop offset="0" stop-color="#FFF" stop-opacity="0"/><stop offset=".09" stop-color="#fff8f9" stop-opacity=".063"/><stop offset=".217" stop-color="#ffe6e7" stop-opacity=".152"/><stop offset=".365" stop-color="#ffc8c9" stop-opacity=".255"/><stop offset=".53" stop-color="#ff9ea0" stop-opacity=".371"/><stop offset=".708" stop-color="#ff686b" stop-opacity=".496"/><stop offset=".895" stop-color="#ff282c" stop-opacity=".626"/><stop offset="1" stop-color="#ff0005" stop-opacity=".7"/></linearGradient><circle class="st3" cx="38.4" cy="21.8" r="19.6"/></g><path class="st4" d="M8.8 46.4C1.6 44.9 15 18.2 22.2 17.2c7.2-1.1 21.6 16.5 18.1 22.9S20 48.9 8.8 46.4z"/><path class="st4" d="M-10.8 25.1c-5.1-6.4 4-29 12-30.2s24.1 18.4 20.2 25.5-27.2 11-32.2 4.7z"/><linearGradient id="SVGID_4_" gradientUnits="userSpaceOnUse" x1="165.846" y1="85.969" x2="196.144" y2="116.517" gradientTransform="rotate(-38.418 -7.577 314.55)"><stop offset="0" stop-color="#FFF" stop-opacity="0"/><stop offset="1" stop-color="#FFF" stop-opacity=".2"/></linearGradient><circle class="st5" cx="8" cy="30.3" r="19.6"/><g class="st1"><path class="st2" d="M19.9 66.4c0-6.4 16.6-15.9 22.2-12.7s5.8 23.1 0 25.6-22.2-6.6-22.2-12.9z"/><path class="st6" d="M31 58.3C31 50.1 52.2 38 59.2 42s7.4 29.4-.1 32.5c-7.4 3.2-28-8.1-28.1-16.2z"/><linearGradient id="SVGID_5_" gradientUnits="userSpaceOnUse" x1="37.242" y1="60.841" x2="76.405" y2="60.841"><stop offset="0" stop-color="#FFF" stop-opacity="0"/><stop offset="1" stop-color="#002f77" stop-opacity=".7"/></linearGradient><circle class="st7" cx="56.8" cy="60.8" r="19.6"/></g><g class="st1"><path class="st6" d="M6.3 6.6c0-8.1 21.2-20.3 28.2-16.2s7.4 29.4-.1 32.5-28-8.2-28.1-16.3z"/><linearGradient id="SVGID_6_" gradientUnits="userSpaceOnUse" x1=".158" y1="-19.881" x2="30.456" y2="10.666"><stop offset="0" stop-color="#FFF" stop-opacity="0"/><stop offset="1" stop-color="#002f77" stop-opacity=".7"/></linearGradient><circle class="st8" cx="15.7" cy="-4.2" r="19.6"/></g><g><path class="st9" d="M8.4 29.1c.1.2.2.4.3.5.2 0-.4-1.2-.3-.5.1.1-.1-.7 0 0zM9 28c2.2 7.9 2.2 11.1 2 11.7 1.7 2.3 3.6-.4 5.2-.4 2.8 0 2.6-.7 4.6-1.3 2.2-.6 4.1-1.2 6.3-1.6.8-.1 1.9 1 2.7.7 0 0 1.4 3 1.9 2.9h.3s2.9-2.3 2.4-2.6c1 .5-1.1 3.3-1 3.4.5.8 1.3-1.4 1.3-1.4.8-.3 0 2.2 0 1.8-.1-1.1 1.6.9 1.7.9-.2-.4-.5-.8-.8-1 .4 0 1.2 1.5.8 1.7 1.5 2.5 4.1.6 5 1.4-.4-.3-.1.1 0 .2-.1-.1 1.9.9 1.7 1-.3.2 1.6-1.9 1.4-1.6-.7 1.5 5.1-3.4 3.1-3.4.1 0 .8-1.6.8-1.6l.1-.3c-.3.1-.3.1.1-.1.4-.5.6-.8.5-.9.4.5 1.9-5.5 1.8-6.2 0 0 0 .2 0 0s-.2-.6-.2-.7c.7.4-2.2-4.3-2.4-4.5-.6-.8.6-1.2-.1-1.2-.9-.7-.2-.2-.6.1.1-.1-.2-.2-.4-.1.1-.1-.2-1.2-.3-1.3-.1 0-1.9-2.9-1.9-2.6-.9 0-.7-.8-1.2-1.1 0-.4 0-.4 0 0-.5-.3-.7-6-2.1-5.1-.1.1-1.7-3.7-1.7-4.2 0-.3-.9 2.2-1.1 2.2.6 0 .2.2.2.3l-.2.2c-.1.3.6 5.8-1.6 5.8-2.7 0-6-6-4-5.7.1 0 .5-.1.7-.8-.1.2-.7-.7-.5-.5-.5-.4-.2.7-.4.7s-.6-.6-.4-.6c-2.1.3-2.1-.9-3.7-.9-.2 0-.4.2-.7.1.8.2 1.5.6.6 1.3-.5.4-4.8 1-2.8 3.4-.6.2 0-.9-.6 0 .4-.7-1.3-.5-.9-.2-.1-.1 0 .5-.6.6 1.1-.2-.4-2.3-1-2.3-.1 0-.1.4-.4.6.4-.3-.8 0-.6-.4-.1.2.2.6-.1.9-.4.3.1-.7-.4-.1-.1-.1-.2-.1-.2.1-.1-.5-.1.9 0 .6-.1.2-.5-.3-.7 0 .3-.1.3 0 .1.2 0 0 .5.1.4.3.1-.1-.7-.4-.6-.4l-.3.7c.1-.2.1-.1.1.1l.3-.4c.2 1-1 .2.2.9-.7-.4-1.2 0-1.4.1.7.8-.3.5.2 1.7-.1-.3-.6-1.4-.7-1.5 1.4.6-9.4 7.3-9.4 6.3-.2 1.2-1 3-.5 4.1m17.4-11.5c-.1 0-.2 0-.3-.1l.3.1c-.1 0 .2-.1 0 0z"/><path class="st9" d="M32.9 12.3c.1 0 .2-.1.2-.1s-.1.1-.2.1zM44.8 47.8c-.3-.5-1.4.3-1.5.3-.2-.1-1.4-.5-1.6-.5-1.2-.2-.5 1.2-.1 1.8-.2-.1.4 1.1.5 1.1.2.6 1.9.1 1.7-.3.4-.5.2.7.5.3.4-.4-.3-1.2.4-1.1-.2-.1.2-1.5.1-1.6 0-.1 0 0 0 0zm-2.9 1.7c-.1.4-.2-.1-.3-.2 0 0 .3.1.3.2-.1.4.1-.1 0 0zm1.5-1.3l-.1-.2c.3.3.3.4.1.2 0 0 .1.1 0 0z"/></g></g></svg>