<?xml version="1.0" encoding="utf-8"?>
<!-- Generator: Adobe Illustrator 19.1.0, SVG Export Plug-In . SVG Version: 6.00 Build 0)  -->
<svg version="1.1" id="Layer_1" xmlns="http://www.w3.org/2000/svg" xmlns:xlink="http://www.w3.org/1999/xlink" x="0px" y="0px"
	 viewBox="0 0 242 60" style="enable-background:new 0 0 242 60;" xml:space="preserve">
<style type="text/css">
	.st0{clip-path:url(#SVGID_2_);fill:#0071BC;}
	.st1{clip-path:url(#SVGID_2_);}
	.st2{fill:#D71C24;}
	.st3{fill:url(#SVGID_3_);}
	.st4{clip-path:url(#SVGID_2_);fill:#D71C24;}
	.st5{clip-path:url(#SVGID_2_);fill:url(#SVGID_4_);}
	.st6{fill:#0071BC;}
	.st7{fill:url(#SVGID_5_);}
	.st8{fill:url(#SVGID_6_);}
	.st9{fill:#FFFFFF;}
</style>
<g>
	<g>
		<path d="M82.9,25.2l-1.1-3.6h-5.6l-1.1,3.6h-3.5L77,9.9h4l5.4,15.4H82.9z M81.1,18.9c-1-3.3-1.6-5.2-1.7-5.6
			c-0.1-0.4-0.2-0.8-0.3-1c-0.2,0.9-0.9,3.1-2,6.6H81.1z"/>
		<path d="M96.4,25.2L96,23.7h-0.2c-0.3,0.5-0.8,1-1.5,1.3s-1.3,0.4-2.1,0.4c-1.4,0-2.4-0.4-3.1-1.1s-1-1.8-1-3.2v-7.6h3.2v6.8
			c0,0.8,0.1,1.5,0.4,1.9s0.8,0.6,1.4,0.6c0.9,0,1.5-0.3,1.9-0.9c0.4-0.6,0.6-1.6,0.6-3v-5.5h3.2v11.7H96.4z"/>
		<path d="M110.3,21.8c0,1.2-0.4,2.1-1.2,2.7c-0.8,0.6-2.1,0.9-3.7,0.9c-0.9,0-1.6-0.1-2.2-0.2c-0.6-0.1-1.2-0.3-1.7-0.5v-2.6
			c0.6,0.3,1.3,0.5,2,0.7c0.7,0.2,1.4,0.3,2,0.3c1.2,0,1.7-0.3,1.7-1c0-0.3-0.1-0.5-0.2-0.6c-0.2-0.2-0.4-0.3-0.8-0.5
			s-0.9-0.4-1.5-0.7c-0.9-0.4-1.6-0.7-2-1c-0.4-0.3-0.7-0.7-0.9-1.1c-0.2-0.4-0.3-0.9-0.3-1.5c0-1,0.4-1.8,1.2-2.4
			c0.8-0.6,1.9-0.9,3.4-0.9c1.4,0,2.8,0.3,4.1,0.9l-1,2.3c-0.6-0.3-1.1-0.5-1.6-0.6c-0.5-0.2-1-0.2-1.6-0.2c-0.9,0-1.4,0.3-1.4,0.8
			c0,0.3,0.2,0.5,0.5,0.7c0.3,0.2,1,0.5,2,0.9c0.9,0.4,1.6,0.7,2,1s0.7,0.7,0.9,1.1S110.3,21.2,110.3,21.8z"/>
		<path d="M117.7,22.9c0.6,0,1.2-0.1,2-0.4v2.4c-0.8,0.4-1.8,0.5-2.9,0.5c-1.3,0-2.2-0.3-2.8-1c-0.6-0.6-0.9-1.6-0.9-2.9v-5.6h-1.5
			v-1.3l1.8-1.1l0.9-2.5h2v2.5h3.3v2.4h-3.3v5.6c0,0.5,0.1,0.8,0.4,1C117,22.8,117.3,22.9,117.7,22.9z"/>
		<path d="M128.6,13.3c0.4,0,0.8,0,1.1,0.1l-0.2,3c-0.3-0.1-0.6-0.1-0.9-0.1c-1,0-1.8,0.3-2.4,0.8c-0.6,0.5-0.9,1.3-0.9,2.2v5.9
			h-3.2V13.5h2.4l0.5,2h0.2c0.4-0.7,0.9-1.2,1.5-1.6C127.2,13.5,127.9,13.3,128.6,13.3z"/>
		<path d="M139.3,25.2l-0.6-1.6h-0.1c-0.5,0.7-1.1,1.1-1.7,1.4c-0.6,0.3-1.3,0.4-2.2,0.4c-1.1,0-2-0.3-2.7-1s-1-1.6-1-2.7
			c0-1.2,0.4-2.2,1.3-2.7c0.9-0.6,2.2-0.9,3.9-1l2-0.1v-0.5c0-1.2-0.6-1.8-1.8-1.8c-0.9,0-2,0.3-3.3,0.8l-1.1-2.2
			c1.3-0.7,2.8-1.1,4.5-1.1c1.6,0,2.8,0.3,3.6,1c0.8,0.7,1.3,1.7,1.3,3.1v7.8H139.3z M138.3,19.8l-1.2,0c-0.9,0-1.6,0.2-2.1,0.5
			s-0.7,0.8-0.7,1.4c0,0.9,0.5,1.3,1.5,1.3c0.7,0,1.3-0.2,1.8-0.6c0.4-0.4,0.7-1,0.7-1.7V19.8z"/>
		<path d="M148,25.2h-3.2V9h3.2V25.2z"/>
		<path d="M151.2,10.5c0-1,0.6-1.6,1.7-1.6c1.2,0,1.7,0.5,1.7,1.6c0,0.5-0.1,0.9-0.4,1.2c-0.3,0.3-0.7,0.4-1.3,0.4
			C151.8,12.1,151.2,11.6,151.2,10.5z M154.5,25.2h-3.2V13.5h3.2V25.2z"/>
		<path d="M165.3,25.2l-0.6-1.6h-0.1c-0.5,0.7-1.1,1.1-1.7,1.4s-1.3,0.4-2.2,0.4c-1.1,0-2-0.3-2.7-1c-0.6-0.6-1-1.6-1-2.7
			c0-1.2,0.4-2.2,1.3-2.7c0.9-0.6,2.2-0.9,3.9-1l2-0.1v-0.5c0-1.2-0.6-1.8-1.8-1.8c-0.9,0-2,0.3-3.3,0.8l-1.1-2.2
			c1.3-0.7,2.8-1.1,4.5-1.1c1.6,0,2.8,0.3,3.6,1c0.8,0.7,1.3,1.7,1.3,3.1v7.8H165.3z M164.3,19.8l-1.2,0c-0.9,0-1.6,0.2-2.1,0.5
			s-0.7,0.8-0.7,1.4c0,0.9,0.5,1.3,1.5,1.3c0.7,0,1.3-0.2,1.8-0.6c0.4-0.4,0.7-1,0.7-1.7V19.8z"/>
		<path d="M181.6,25.2h-3.2v-6.8c0-0.8-0.1-1.5-0.4-1.9c-0.3-0.4-0.8-0.6-1.4-0.6c-0.9,0-1.5,0.3-1.9,0.9c-0.4,0.6-0.6,1.6-0.6,3
			v5.5h-3.2V13.5h2.4l0.4,1.5h0.2c0.4-0.6,0.8-1,1.5-1.3c0.6-0.3,1.3-0.4,2.1-0.4c1.4,0,2.4,0.4,3.1,1.1c0.7,0.7,1.1,1.8,1.1,3.2
			V25.2z"/>
	</g>
	<g>
		<path d="M72.5,48.3h2.6V34.7h-2.6v-0.8H79c2.1,0,5.8,0.7,5.8,4.6c0,3.9-3.7,4.6-5.8,4.6h-3v5.2h3v0.8h-6.5V48.3z M76,42.3h3
			c3.2,0,4.9-1.4,4.9-3.8c0-2.4-1.7-3.8-4.9-3.8h-3V42.3z"/>
		<path d="M86.3,48.4h2.1v-9h-2.1v-0.7h3v2.3c0.9-1.3,2.3-2.6,4.2-2.6h0.2v0.8h-0.2c-1.8,0-3.2,1.2-4.3,2.4v6.7h2.3v0.7h-5.3V48.4z"
			/>
		<path d="M94.6,43.9c0-3.5,2.2-5.5,5-5.5c2.8,0,5,2,5,5.5c0,3.5-2.2,5.5-5,5.5C96.8,49.4,94.6,47.4,94.6,43.9z M103.7,43.9
			c0-3-1.6-4.7-4.1-4.7c-2.5,0-4.1,1.8-4.1,4.7c0,3,1.6,4.7,4.1,4.7C102,48.6,103.7,46.8,103.7,43.9z"/>
		<path d="M106,53.3h2.1V39.4H106v-0.7h3v1.7c0.9-1,2.2-1.9,3.9-1.9c3,0,4.5,2.6,4.5,5.5c0,2.9-1.6,5.5-4.7,5.5
			c-1.7,0-2.8-0.7-3.7-1.7v5.6h2.4v0.7H106V53.3z M109,41.2v5.6c0.8,0.9,2,1.8,3.7,1.8c2.6,0,3.9-2.1,3.9-4.8c0-2.4-1.1-4.7-3.7-4.7
			C111,39.1,109.9,40.2,109,41.2z"/>
		<path d="M119.5,43.9c0-3.4,1.9-5.5,4.7-5.5c3.2,0,4.4,2.9,4.4,5.1c0,0.1,0,0.3,0,0.5h-8.2c0,2.8,1.6,4.6,4.2,4.6
			c1.2,0,2.5-0.4,3.6-1.1v0.8c-1,0.6-2.1,1-3.6,1C121.3,49.4,119.5,47.2,119.5,43.9z M120.4,43.3h7.4c-0.1-2-1.1-4.1-3.6-4.1
			C122,39.1,120.6,40.8,120.4,43.3z"/>
		<path d="M130.3,48.4h2.1v-9h-2.1v-0.7h3v2.3c0.9-1.3,2.3-2.6,4.2-2.6h0.2v0.8h-0.2c-1.8,0-3.2,1.2-4.3,2.4v6.7h2.3v0.7h-5.3V48.4z
			"/>
		<path d="M140.4,46.4v-7h-1.8v-0.7h1.8v-2.7h0.8v2.7h3.6v0.7h-3.6v7c0,1.5,0.6,2.3,2.1,2.3c0.6,0,1.2-0.1,1.6-0.3v0.7
			c-0.7,0.2-1,0.3-1.7,0.3C142.8,49.4,140.4,49.4,140.4,46.4z"/>
		<path d="M146,53.6l0.3-0.7c0.5,0.3,1,0.6,1.8,0.6c1.2,0,2-0.7,2.4-1.8l1-2.6h-0.8l-3.4-9.7h-1.7v-0.7h4.8v0.7h-2.2l3.3,9.7
			l3.7-9.7h-2.2v-0.7h4.8v0.7h-1.7l-5,12.7c-0.5,1.3-1.6,2.2-3,2.2C147.3,54.3,146.6,54,146,53.6z"/>
		<path d="M164,48.3h2.6V34.7H164v-0.8h11.8v4.2H175v-3.4h-7.5v6.6h6.7v0.8h-6.7v6.2h3v0.8H164V48.3z"/>
		<path d="M177.3,48.4h2.1v-9h-2.1v-0.7h3v9.7h2.1v0.7h-5.1V48.4z M179.6,33.8c0.4,0,0.8,0.4,0.8,0.8s-0.4,0.8-0.8,0.8
			c-0.4,0-0.8-0.4-0.8-0.8S179.2,33.8,179.6,33.8z"/>
		<path d="M183.5,48.4h2.1v-9h-2.1v-0.7h3v1.7c1.3-1.2,2.8-2,4.3-2c1.9,0,3,1.2,3,3.5v6.5h2.1v0.7h-5.1v-0.7h2.1V42
			c0-1.7-0.6-2.8-2.3-2.8c-1.6,0-3.1,1.1-4.2,2.1v7.1h2.1v0.7h-5.1V48.4z"/>
		<path d="M197,46.4c0-2.7,2.8-3.2,4.7-3.2h2.6v-1.1c0-2.2-0.8-2.9-2.8-2.9c-1.3,0-2.6,0.3-3.6,0.7v-0.8c1.1-0.4,2.4-0.7,3.7-0.7
			c2.5,0,3.6,1.1,3.6,3.5v6.4h2.1v0.7h-2.9v-1.4c-0.9,0.7-2.4,1.7-4.1,1.7C198.6,49.4,197,48.4,197,46.4z M204.3,46.8v-2.9h-2.6
			c-1.6,0-3.8,0.4-3.8,2.5c0,1.5,1.1,2.2,2.5,2.2C202,48.6,203.4,47.6,204.3,46.8z"/>
		<path d="M208.3,48.4h2.1v-9h-2.1v-0.7h3v1.7c1.3-1.2,2.8-2,4.3-2c1.9,0,3,1.2,3,3.5v6.5h2.1v0.7h-5.1v-0.7h2.1V42
			c0-1.7-0.6-2.8-2.3-2.8c-1.6,0-3.1,1.1-4.2,2.1v7.1h2.1v0.7h-5.1V48.4z"/>
		<path d="M222,43.9c0-3.3,2-5.5,5.3-5.5c1.3,0,2.6,0.3,3.5,0.7v2.7H230v-2.2c-0.6-0.2-1.7-0.4-2.7-0.4c-3,0-4.4,2-4.4,4.7
			c0,2.9,1.7,4.8,4.4,4.8c1.3,0,2.5-0.4,3.6-1.1v0.8c-1,0.6-2.1,1.1-3.6,1.1C224.1,49.4,222,47.2,222,43.9z"/>
		<path d="M232.9,43.9c0-3.4,1.9-5.5,4.7-5.5c3.2,0,4.4,2.9,4.4,5.1c0,0.1,0,0.3,0,0.5h-8.2c0,2.8,1.6,4.6,4.2,4.6
			c1.2,0,2.5-0.4,3.6-1.1v0.8c-1,0.6-2.1,1-3.6,1C234.7,49.4,232.9,47.2,232.9,43.9z M233.8,43.3h7.4c-0.1-2-1.1-4.1-3.6-4.1
			C235.4,39.1,234,40.8,233.8,43.3z"/>
	</g>
	<g>
		<g>
			<defs>
				<circle id="SVGID_1_" cx="30" cy="30" r="30"/>
			</defs>
			<clipPath id="SVGID_2_">
				<use xlink:href="#SVGID_1_"  style="overflow:visible;"/>
			</clipPath>
			<ellipse class="st0" cx="13.5" cy="41.6" rx="14.3" ry="14"/>
			<g class="st1">
				<path class="st2" d="M37.9,36.1c-5.1-6.4,4-29,12-30.2S74,24.2,70.1,31.4S43,42.4,37.9,36.1z"/>
				
					<linearGradient id="SVGID_3_" gradientUnits="userSpaceOnUse" x1="203.4768" y1="99.898" x2="222.7004" y2="138.389" gradientTransform="matrix(0.7835 -0.6214 0.6214 0.7835 -197.1025 63.3917)">
					<stop  offset="0" style="stop-color:#FFFFFF;stop-opacity:0"/>
					<stop  offset="9.004710e-02" style="stop-color:#FFF8F9;stop-opacity:6.303297e-02"/>
					<stop  offset="0.2167" style="stop-color:#FFE6E7;stop-opacity:0.1517"/>
					<stop  offset="0.3649" style="stop-color:#FFC8C9;stop-opacity:0.2554"/>
					<stop  offset="0.5297" style="stop-color:#FF9EA0;stop-opacity:0.3708"/>
					<stop  offset="0.708" style="stop-color:#FF686B;stop-opacity:0.4956"/>
					<stop  offset="0.8948" style="stop-color:#FF282C;stop-opacity:0.6263"/>
					<stop  offset="1" style="stop-color:#FF0005;stop-opacity:0.7"/>
				</linearGradient>
				<circle class="st3" cx="38.4" cy="21.8" r="19.6"/>
			</g>
			<path class="st4" d="M8.8,46.4C1.6,44.9,15,18.2,22.2,17.2c7.2-1.1,21.6,16.5,18.1,22.9S20,48.9,8.8,46.4z"/>
			<path class="st4" d="M-10.8,25.1c-5.1-6.4,4-29,12-30.2s24.1,18.4,20.2,25.5S-5.8,31.4-10.8,25.1z"/>
			
				<linearGradient id="SVGID_4_" gradientUnits="userSpaceOnUse" x1="165.8463" y1="85.9693" x2="196.1438" y2="116.5171" gradientTransform="matrix(0.7835 -0.6214 0.6214 0.7835 -197.1025 63.3917)">
				<stop  offset="0" style="stop-color:#FFFFFF;stop-opacity:0"/>
				<stop  offset="1" style="stop-color:#FFFFFF;stop-opacity:0.2"/>
			</linearGradient>
			<circle class="st5" cx="8" cy="30.3" r="19.6"/>
			<g class="st1">
				<path class="st2" d="M19.9,66.4c0-6.4,16.6-15.9,22.2-12.7s5.8,23.1,0,25.6S19.9,72.7,19.9,66.4z"/>
				<path class="st6" d="M31,58.3C31,50.1,52.2,38,59.2,42s7.4,29.4-0.1,32.5C51.7,77.7,31.1,66.4,31,58.3z"/>
				<linearGradient id="SVGID_5_" gradientUnits="userSpaceOnUse" x1="37.2417" y1="60.8407" x2="76.4052" y2="60.8407">
					<stop  offset="0" style="stop-color:#FFFFFF;stop-opacity:0"/>
					<stop  offset="1" style="stop-color:#002F77;stop-opacity:0.7"/>
				</linearGradient>
				<circle class="st7" cx="56.8" cy="60.8" r="19.6"/>
			</g>
			<g class="st1">
				<path class="st6" d="M6.3,6.6c0-8.1,21.2-20.3,28.2-16.2s7.4,29.4-0.1,32.5S6.4,14.7,6.3,6.6z"/>
				<linearGradient id="SVGID_6_" gradientUnits="userSpaceOnUse" x1="0.1584" y1="-19.8815" x2="30.4559" y2="10.6664">
					<stop  offset="0" style="stop-color:#FFFFFF;stop-opacity:0"/>
					<stop  offset="1" style="stop-color:#002F77;stop-opacity:0.7"/>
				</linearGradient>
				<circle class="st8" cx="15.7" cy="-4.2" r="19.6"/>
			</g>
		</g>
		<g>
			<g>
				<path class="st9" d="M8.4,29.1c0.1,0.2,0.2,0.4,0.3,0.5C8.9,29.6,8.3,28.4,8.4,29.1C8.5,29.2,8.3,28.4,8.4,29.1z"/>
				<path class="st9" d="M8.9,29.1 M9,28c2.2,7.9,2.2,11.1,2,11.7c1.7,2.3,3.6-0.4,5.2-0.4c2.8,0,2.6-0.7,4.6-1.3
					c2.2-0.6,4.1-1.2,6.3-1.6c0.8-0.1,1.9,1,2.7,0.7c0,0,1.4,3,1.9,2.9L32,40l0,0c0,0,2.9-2.3,2.4-2.6c1,0.5-1.1,3.3-1,3.4
					c0.5,0.8,1.3-1.4,1.3-1.4c0.8-0.3,0,2.2,0,1.8c-0.1-1.1,1.6,0.9,1.7,0.9c-0.2-0.4-0.5-0.8-0.8-1c0.4,0,1.2,1.5,0.8,1.7
					c1.5,2.5,4.1,0.6,5,1.4c-0.4-0.3-0.1,0.1,0,0.2c-0.1-0.1,1.9,0.9,1.7,1c-0.3,0.2,1.6-1.9,1.4-1.6c-0.7,1.5,5.1-3.4,3.1-3.4
					c0.1,0,0.8-1.6,0.8-1.6l0.1-0.3c-0.3,0.1-0.3,0.1,0.1-0.1c0.4-0.5,0.6-0.8,0.5-0.9c0.4,0.5,1.9-5.5,1.8-6.2c0,0,0,0.2,0,0
					c0-0.2-0.2-0.6-0.2-0.7c0.7,0.4-2.2-4.3-2.4-4.5c-0.6-0.8,0.6-1.2-0.1-1.2c-0.9-0.7-0.2-0.2-0.6,0.1c0.1-0.1-0.2-0.2-0.4-0.1
					c0.1-0.1-0.2-1.2-0.3-1.3c-0.1,0-1.9-2.9-1.9-2.6c-0.9,0-0.7-0.8-1.2-1.1c0-0.4,0-0.4,0,0c-0.5-0.3-0.7-6-2.1-5.1
					c-0.1,0.1-1.7-3.7-1.7-4.2c0-0.3-0.9,2.2-1.1,2.2c0.6,0,0.2,0.2,0.2,0.3l-0.2,0.2c-0.1,0.3,0.6,5.8-1.6,5.8c-2.7,0-6-6-4-5.7
					c0.1,0,0.5-0.1,0.7-0.8c-0.1,0.2-0.7-0.7-0.5-0.5c-0.5-0.4-0.2,0.7-0.4,0.7c-0.2,0-0.6-0.6-0.4-0.6c-2.1,0.3-2.1-0.9-3.7-0.9
					c-0.2,0-0.4,0.2-0.7,0.1c0.8,0.2,1.5,0.6,0.6,1.3c-0.5,0.4-4.8,1-2.8,3.4c-0.6,0.2,0-0.9-0.6,0c0.4-0.7-1.3-0.5-0.9-0.2
					c-0.1-0.1,0,0.5-0.6,0.6c1.1-0.2-0.4-2.3-1-2.3c-0.1,0-0.1,0.4-0.4,0.6c0.4-0.3-0.8,0-0.6-0.4c-0.1,0.2,0.2,0.6-0.1,0.9
					c-0.4,0.3,0.1-0.7-0.4-0.1c-0.1-0.1-0.2-0.1-0.2,0.1c-0.1-0.5-0.1,0.9,0,0.6c-0.1,0.2-0.5-0.3-0.7,0c0.3-0.1,0.3,0,0.1,0.2
					c0,0,0.5,0.1,0.4,0.3c0.1-0.1-0.7-0.4-0.6-0.4c0,0-0.3,0.7-0.3,0.7c0.1-0.2,0.1-0.1,0.1,0.1c0,0,0.3-0.4,0.3-0.4
					c0.2,1-1,0.2,0.2,0.9c-0.7-0.4-1.2,0-1.4,0.1c0.7,0.8-0.3,0.5,0.2,1.7c-0.1-0.3-0.6-1.4-0.7-1.5c1.4,0.6-9.4,7.3-9.4,6.3
					C9.3,25.1,8.5,26.9,9,28 M26.4,16.5c-0.1,0-0.2,0-0.3-0.1C26.1,16.4,26.4,16.5,26.4,16.5C26.3,16.5,26.6,16.4,26.4,16.5z"/>
				<path class="st9" d="M32.9,12.3c0.1,0,0.2-0.1,0.2-0.1S33,12.3,32.9,12.3z"/>
				<path class="st9" d="M44.8,47.8c-0.3-0.5-1.4,0.3-1.5,0.3c-0.2-0.1-1.4-0.5-1.6-0.5c-1.2-0.2-0.5,1.2-0.1,1.8
					c-0.2-0.1,0.4,1.1,0.5,1.1c0.2,0.6,1.9,0.1,1.7-0.3c0.4-0.5,0.2,0.7,0.5,0.3c0.4-0.4-0.3-1.2,0.4-1.1
					C44.5,49.3,44.9,47.9,44.8,47.8C44.8,47.7,44.8,47.8,44.8,47.8z M41.9,49.5c-0.1,0.4-0.2-0.1-0.3-0.2
					C41.6,49.3,41.9,49.4,41.9,49.5C41.8,49.9,42,49.4,41.9,49.5z M43.4,48.2c0,0-0.1-0.2-0.1-0.2C43.6,48.3,43.6,48.4,43.4,48.2
					C43.4,48.2,43.5,48.3,43.4,48.2z"/>
			</g>
		</g>
	</g>
</g>
</svg>
