<?xml version="1.0" encoding="utf-8"?>
<!-- Generator: Adobe Illustrator 19.1.0, SVG Export Plug-In . SVG Version: 6.00 Build 0)  -->
<svg version="1.1" id="Layer_1" xmlns="http://www.w3.org/2000/svg" xmlns:xlink="http://www.w3.org/1999/xlink" x="0px" y="0px"
	 viewBox="-441.8 596.6 169.5 178.7" style="enable-background:new -441.8 596.6 169.5 178.7;" xml:space="preserve">
<style type="text/css">
	.st0{clip-path:url(#SVGID_2_);fill:#0071BC;}
	.st1{clip-path:url(#SVGID_4_);}
	.st2{fill:#D71C24;}
	.st3{fill:url(#SVGID_5_);}
	.st4{clip-path:url(#SVGID_7_);fill:#D71C24;}
	.st5{clip-path:url(#SVGID_9_);fill:#D71C24;}
	.st6{clip-path:url(#SVGID_11_);fill:url(#SVGID_12_);}
	.st7{clip-path:url(#SVGID_14_);}
	.st8{fill:#0071BC;}
	.st9{fill:url(#SVGID_15_);}
	.st10{clip-path:url(#SVGID_17_);}
	.st11{fill:url(#SVGID_18_);}
	.st12{fill:#FFFFFF;}
</style>
<g>
	<path d="M-400.8,746.2l-1.1-3.6h-5.6l-1.1,3.6h-3.5l5.4-15.3h4l5.4,15.4L-400.8,746.2L-400.8,746.2z M-402.6,739.9
		c-1-3.3-1.6-5.2-1.7-5.6c-0.1-0.4-0.2-0.8-0.3-1c-0.2,0.9-0.9,3.1-2,6.6H-402.6z"/>
	<path d="M-387.3,746.2l-0.4-1.5h-0.2c-0.3,0.5-0.8,1-1.5,1.3c-0.7,0.3-1.3,0.4-2.1,0.4c-1.4,0-2.4-0.4-3.1-1.1s-1-1.8-1-3.2v-7.6
		h3.2v6.8c0,0.8,0.1,1.5,0.4,1.9c0.3,0.4,0.8,0.6,1.4,0.6c0.9,0,1.5-0.3,1.9-0.9c0.4-0.6,0.6-1.6,0.6-3v-5.5h3.2v11.7h-2.4V746.2z"
		/>
	<path d="M-373.4,742.8c0,1.2-0.4,2.1-1.2,2.7c-0.8,0.6-2.1,0.9-3.7,0.9c-0.9,0-1.6-0.1-2.2-0.2c-0.6-0.1-1.2-0.3-1.7-0.5v-2.6
		c0.6,0.3,1.3,0.5,2,0.7c0.7,0.2,1.4,0.3,2,0.3c1.2,0,1.7-0.3,1.7-1c0-0.3-0.1-0.5-0.2-0.6c-0.2-0.2-0.4-0.3-0.8-0.5
		s-0.9-0.4-1.5-0.7c-0.9-0.4-1.6-0.7-2-1s-0.7-0.7-0.9-1.1c-0.2-0.4-0.3-0.9-0.3-1.5c0-1,0.4-1.8,1.2-2.4c0.8-0.6,1.9-0.9,3.4-0.9
		c1.4,0,2.8,0.3,4.1,0.9l-1,2.3c-0.6-0.3-1.1-0.5-1.6-0.6c-0.5-0.2-1-0.2-1.6-0.2c-0.9,0-1.4,0.3-1.4,0.8c0,0.3,0.2,0.5,0.5,0.7
		s1,0.5,2,0.9c0.9,0.4,1.6,0.7,2,1s0.7,0.7,0.9,1.1C-373.5,741.7-373.4,742.2-373.4,742.8z"/>
	<path d="M-366,743.9c0.6,0,1.2-0.1,2-0.4v2.4c-0.8,0.4-1.8,0.5-2.9,0.5c-1.3,0-2.2-0.3-2.8-1c-0.6-0.6-0.9-1.6-0.9-2.9v-5.6h-1.5
		v-1.3l1.8-1.1l0.9-2.5h2v2.5h3.3v2.4h-3.3v5.6c0,0.5,0.1,0.8,0.4,1C-366.7,743.8-366.4,743.9-366,743.9z"/>
	<path d="M-355.1,734.3c0.4,0,0.8,0,1.1,0.1l-0.2,3c-0.3-0.1-0.6-0.1-0.9-0.1c-1,0-1.8,0.3-2.4,0.8c-0.6,0.5-0.9,1.3-0.9,2.2v5.9
		h-3.2v-11.7h2.4l0.5,2h0.2c0.4-0.7,0.9-1.2,1.5-1.6C-356.5,734.5-355.8,734.3-355.1,734.3z"/>
	<path d="M-344.4,746.2l-0.6-1.6h-0.1c-0.5,0.7-1.1,1.1-1.7,1.4s-1.3,0.4-2.2,0.4c-1.1,0-2-0.3-2.7-1c-0.7-0.7-1-1.6-1-2.7
		c0-1.2,0.4-2.2,1.3-2.7c0.9-0.6,2.2-0.9,3.9-1l2-0.1v-0.5c0-1.2-0.6-1.8-1.8-1.8c-0.9,0-2,0.3-3.3,0.8l-1.1-2.2
		c1.3-0.7,2.8-1.1,4.5-1.1c1.6,0,2.8,0.3,3.6,1c0.8,0.7,1.3,1.7,1.3,3.1v7.8h-2.1V746.2z M-345.4,740.8h-1.2c-0.9,0-1.6,0.2-2.1,0.5
		s-0.7,0.8-0.7,1.4c0,0.9,0.5,1.3,1.5,1.3c0.7,0,1.3-0.2,1.8-0.6c0.4-0.4,0.7-1,0.7-1.7V740.8z"/>
	<path d="M-335.7,746.2h-3.2V730h3.2V746.2z"/>
	<path d="M-332.5,731.5c0-1,0.6-1.6,1.7-1.6c1.2,0,1.7,0.5,1.7,1.6c0,0.5-0.1,0.9-0.4,1.2c-0.3,0.3-0.7,0.4-1.3,0.4
		C-331.9,733.1-332.5,732.6-332.5,731.5z M-329.2,746.2h-3.2v-11.7h3.2V746.2z"/>
	<path d="M-318.4,746.2l-0.6-1.6h-0.1c-0.5,0.7-1.1,1.1-1.7,1.4s-1.3,0.4-2.2,0.4c-1.1,0-2-0.3-2.7-1c-0.6-0.6-1-1.6-1-2.7
		c0-1.2,0.4-2.2,1.3-2.7c0.9-0.6,2.2-0.9,3.9-1l2-0.1v-0.5c0-1.2-0.6-1.8-1.8-1.8c-0.9,0-2,0.3-3.3,0.8l-1.1-2.2
		c1.3-0.7,2.8-1.1,4.5-1.1c1.6,0,2.8,0.3,3.6,1c0.8,0.7,1.3,1.7,1.3,3.1v7.8h-2.1V746.2z M-319.4,740.8h-1.2c-0.9,0-1.6,0.2-2.1,0.5
		s-0.7,0.8-0.7,1.4c0,0.9,0.5,1.3,1.5,1.3c0.7,0,1.3-0.2,1.8-0.6c0.4-0.4,0.7-1,0.7-1.7V740.8z"/>
	<path d="M-302.1,746.2h-3.2v-6.8c0-0.8-0.1-1.5-0.4-1.9s-0.8-0.6-1.4-0.6c-0.9,0-1.5,0.3-1.9,0.9c-0.4,0.6-0.6,1.6-0.6,3v5.5h-3.2
		v-11.8h2.4l0.4,1.5h0.2c0.4-0.6,0.8-1,1.5-1.3c0.6-0.3,1.3-0.4,2.1-0.4c1.4,0,2.4,0.4,3.1,1.1c0.7,0.7,1.1,1.8,1.1,3.2v7.6H-302.1z
		"/>
</g>
<g>
	<path d="M-441.8,769.3h2.6v-13.6h-2.6v-0.8h6.5c2.1,0,5.8,0.7,5.8,4.6s-3.7,4.6-5.8,4.6h-3v5.2h3v0.8h-6.5V769.3z M-438.2,763.3h3
		c3.2,0,4.9-1.4,4.9-3.8s-1.7-3.8-4.9-3.8h-3V763.3z"/>
	<path d="M-428,769.4h2.1v-9h-2.1v-0.7h3v2.3c0.9-1.3,2.3-2.6,4.2-2.6h0.2v0.8h-0.2c-1.8,0-3.2,1.2-4.3,2.4v6.7h2.3v0.7h-5.3
		L-428,769.4L-428,769.4z"/>
	<path d="M-419.6,764.9c0-3.5,2.2-5.5,5-5.5c2.8,0,5,2,5,5.5s-2.2,5.5-5,5.5C-417.5,770.4-419.6,768.4-419.6,764.9z M-410.5,764.9
		c0-3-1.6-4.7-4.1-4.7s-4.1,1.8-4.1,4.7c0,3,1.6,4.7,4.1,4.7C-412.2,769.6-410.5,767.8-410.5,764.9z"/>
	<path d="M-408.2,774.3h2.1v-13.9h-2.1v-0.7h3v1.7c0.9-1,2.2-1.9,3.9-1.9c3,0,4.5,2.6,4.5,5.5s-1.6,5.5-4.7,5.5
		c-1.7,0-2.8-0.7-3.7-1.7v5.6h2.4v0.7h-5.4V774.3z M-405.2,762.2v5.6c0.8,0.9,2,1.8,3.7,1.8c2.6,0,3.9-2.1,3.9-4.8
		c0-2.4-1.1-4.7-3.7-4.7C-403.2,760.1-404.4,761.2-405.2,762.2z"/>
	<path d="M-394.8,764.9c0-3.4,1.9-5.5,4.7-5.5c3.2,0,4.4,2.9,4.4,5.1c0,0.1,0,0.3,0,0.5h-8.2c0,2.8,1.6,4.6,4.2,4.6
		c1.2,0,2.5-0.4,3.6-1.1v0.8c-1,0.6-2.1,1-3.6,1C-393,770.4-394.8,768.2-394.8,764.9z M-393.9,764.3h7.4c-0.1-2-1.1-4.1-3.6-4.1
		C-392.2,760.1-393.6,761.8-393.9,764.3z"/>
	<path d="M-384,769.4h2.1v-9h-2.1v-0.7h3v2.3c0.9-1.3,2.3-2.6,4.2-2.6h0.2v0.8h-0.2c-1.8,0-3.2,1.2-4.3,2.4v6.7h2.3v0.7h-5.3
		L-384,769.4L-384,769.4z"/>
	<path d="M-373.9,767.4v-7h-1.8v-0.7h1.8V757h0.8v2.7h3.6v0.7h-3.6v7c0,1.5,0.6,2.3,2.1,2.3c0.6,0,1.2-0.1,1.6-0.3v0.7
		c-0.7,0.2-1,0.3-1.7,0.3C-371.5,770.4-373.9,770.4-373.9,767.4z"/>
	<path d="M-368.2,774.6l0.3-0.7c0.5,0.3,1,0.6,1.8,0.6c1.2,0,2-0.7,2.4-1.8l1-2.6h-0.8l-3.4-9.7h-1.7v-0.7h4.8v0.7h-2.2l3.3,9.7
		l3.7-9.7h-2.2v-0.7h4.8v0.7h-1.7l-5,12.7c-0.5,1.3-1.6,2.2-3,2.2C-367,775.3-367.6,775-368.2,774.6z"/>
	<path d="M-350.2,769.3h2.6v-13.6h-2.6v-0.8h11.8v4.2h-0.8v-3.4h-7.5v6.6h6.7v0.8h-6.7v6.2h3v0.8h-6.5V769.3z"/>
	<path d="M-337,769.4h2.1v-9h-2.1v-0.7h3v9.7h2.1v0.7h-5.1V769.4z M-334.6,754.8c0.4,0,0.8,0.4,0.8,0.8c0,0.4-0.4,0.8-0.8,0.8
		s-0.8-0.4-0.8-0.8C-335.5,755.2-335,754.8-334.6,754.8z"/>
	<path d="M-330.8,769.4h2.1v-9h-2.1v-0.7h3v1.7c1.3-1.2,2.8-2,4.3-2c1.9,0,3,1.2,3,3.5v6.5h2.1v0.7h-5.1v-0.7h2.1V763
		c0-1.7-0.6-2.8-2.3-2.8c-1.6,0-3.1,1.1-4.2,2.1v7.1h2.1v0.7h-5.1L-330.8,769.4L-330.8,769.4z"/>
	<path d="M-317.2,767.4c0-2.7,2.8-3.2,4.7-3.2h2.6v-1.1c0-2.2-0.8-2.9-2.8-2.9c-1.3,0-2.6,0.3-3.6,0.7v-0.8c1.1-0.4,2.4-0.7,3.7-0.7
		c2.5,0,3.6,1.1,3.6,3.5v6.4h2.1v0.7h-2.9v-1.4c-0.9,0.7-2.4,1.7-4.1,1.7C-315.6,770.4-317.2,769.4-317.2,767.4z M-310,767.8v-2.9
		h-2.6c-1.6,0-3.8,0.4-3.8,2.5c0,1.5,1.1,2.2,2.5,2.2C-312.2,769.6-310.9,768.6-310,767.8z"/>
	<path d="M-306,769.4h2.1v-9h-2.1v-0.7h3v1.7c1.3-1.2,2.8-2,4.3-2c1.9,0,3,1.2,3,3.5v6.5h2.1v0.7h-5.1v-0.7h2.1V763
		c0-1.7-0.6-2.8-2.3-2.8c-1.6,0-3.1,1.1-4.2,2.1v7.1h2.1v0.7h-5.1L-306,769.4L-306,769.4z"/>
	<path d="M-292.2,764.9c0-3.3,2-5.5,5.3-5.5c1.3,0,2.6,0.3,3.5,0.7v2.7h-0.8v-2.2c-0.6-0.2-1.7-0.4-2.7-0.4c-3,0-4.4,2-4.4,4.7
		c0,2.9,1.7,4.8,4.4,4.8c1.3,0,2.5-0.4,3.6-1.1v0.8c-1,0.6-2.1,1.1-3.6,1.1C-290.1,770.4-292.2,768.2-292.2,764.9z"/>
	<path d="M-281.4,764.9c0-3.4,1.9-5.5,4.7-5.5c3.2,0,4.4,2.9,4.4,5.1c0,0.1,0,0.3,0,0.5h-8.2c0,2.8,1.6,4.6,4.2,4.6
		c1.2,0,2.5-0.4,3.6-1.1v0.8c-1,0.6-2.1,1-3.6,1C-279.5,770.4-281.4,768.2-281.4,764.9z M-280.5,764.3h7.4c-0.1-2-1.1-4.1-3.6-4.1
		C-278.9,760.1-280.2,761.8-280.5,764.3z"/>
</g>
<g>
	<g>
		<g>
			<defs>
				<circle id="SVGID_1_" cx="-357" cy="652.6" r="56"/>
			</defs>
			<clipPath id="SVGID_2_">
				<use xlink:href="#SVGID_1_"  style="overflow:visible;"/>
			</clipPath>
			<ellipse class="st0" cx="-387.8" cy="674.3" rx="26.7" ry="26.1"/>
		</g>
		<g>
			<defs>
				<circle id="SVGID_3_" cx="-357" cy="652.6" r="56"/>
			</defs>
			<clipPath id="SVGID_4_">
				<use xlink:href="#SVGID_3_"  style="overflow:visible;"/>
			</clipPath>
			<g class="st1">
				<path class="st2" d="M-342.3,664c-9.5-11.9,7.5-54.1,22.4-56.4c14.9-2.2,45,34.2,37.7,47.6S-332.7,675.8-342.3,664z"/>
				
					<linearGradient id="SVGID_5_" gradientUnits="userSpaceOnUse" x1="-688.2798" y1="575.285" x2="-652.3958" y2="503.4352" gradientTransform="matrix(0.7835 -0.6214 -0.6214 -0.7835 529.2663 648.1503)">
					<stop  offset="0" style="stop-color:#FFFFFF;stop-opacity:0"/>
					<stop  offset="9.004710e-02" style="stop-color:#FFF8F9;stop-opacity:6.303297e-02"/>
					<stop  offset="0.2167" style="stop-color:#FFE6E7;stop-opacity:0.1517"/>
					<stop  offset="0.3649" style="stop-color:#FFC8C9;stop-opacity:0.2554"/>
					<stop  offset="0.5297" style="stop-color:#FF9EA0;stop-opacity:0.3708"/>
					<stop  offset="0.708" style="stop-color:#FF686B;stop-opacity:0.4956"/>
					<stop  offset="0.8948" style="stop-color:#FF282C;stop-opacity:0.6263"/>
					<stop  offset="1" style="stop-color:#FF0005;stop-opacity:0.7"/>
				</linearGradient>
				<circle class="st3" cx="-341.3" cy="637.3" r="36.6"/>
			</g>
		</g>
		<g>
			<defs>
				<circle id="SVGID_6_" cx="-357" cy="652.6" r="56"/>
			</defs>
			<clipPath id="SVGID_7_">
				<use xlink:href="#SVGID_6_"  style="overflow:visible;"/>
			</clipPath>
			<path class="st4" d="M-396.6,683.3c-13.4-2.8,11.6-52.6,25-54.5c13.4-2.1,40.3,30.8,33.8,42.7
				C-344.3,683.4-375.7,687.9-396.6,683.3z"/>
		</g>
		<g>
			<defs>
				<circle id="SVGID_8_" cx="-357" cy="652.6" r="56"/>
			</defs>
			<clipPath id="SVGID_9_">
				<use xlink:href="#SVGID_8_"  style="overflow:visible;"/>
			</clipPath>
			<path class="st5" d="M-433.2,643.5c-9.5-11.9,7.5-54.1,22.4-56.4c14.9-2.2,45,34.3,37.7,47.6C-380.3,648-423.8,655.3-433.2,643.5
				z"/>
		</g>
		<g>
			<defs>
				<circle id="SVGID_10_" cx="-357" cy="652.6" r="56"/>
			</defs>
			<clipPath id="SVGID_11_">
				<use xlink:href="#SVGID_10_"  style="overflow:visible;"/>
			</clipPath>
			
				<linearGradient id="SVGID_12_" gradientUnits="userSpaceOnUse" x1="-758.4797" y1="601.3012" x2="-701.9244" y2="544.2787" gradientTransform="matrix(0.7835 -0.6214 -0.6214 -0.7835 529.2663 648.1503)">
				<stop  offset="0" style="stop-color:#FFFFFF;stop-opacity:0"/>
				<stop  offset="1" style="stop-color:#FFFFFF;stop-opacity:0.2"/>
			</linearGradient>
			<circle class="st6" cx="-398.1" cy="653.2" r="36.6"/>
		</g>
		<g>
			<defs>
				<circle id="SVGID_13_" cx="-357" cy="652.6" r="56"/>
			</defs>
			<clipPath id="SVGID_14_">
				<use xlink:href="#SVGID_13_"  style="overflow:visible;"/>
			</clipPath>
			<g class="st7">
				<path class="st2" d="M-375.9,720.6c0-11.9,31-29.7,41.4-23.7c10.5,6,10.8,43.1,0,47.8C-345.2,749.3-375.9,732.3-375.9,720.6z"/>
				<path class="st8" d="M-355.1,705.5c0-15.3,39.6-37.9,52.6-30.4c13.1,7.5,13.8,54.9-0.2,60.7
					C-316.5,741.7-354.9,720.6-355.1,705.5z"/>
				
					<linearGradient id="SVGID_15_" gradientUnits="userSpaceOnUse" x1="-343.4822" y1="793.8646" x2="-270.3088" y2="793.8646" gradientTransform="matrix(1 0 0 -1 0 1504)">
					<stop  offset="0" style="stop-color:#FFFFFF;stop-opacity:0"/>
					<stop  offset="1" style="stop-color:#002F77;stop-opacity:0.7"/>
				</linearGradient>
				<circle class="st9" cx="-307" cy="710.1" r="36.6"/>
			</g>
		</g>
		<g>
			<defs>
				<circle id="SVGID_16_" cx="-357" cy="652.6" r="56"/>
			</defs>
			<clipPath id="SVGID_17_">
				<use xlink:href="#SVGID_16_"  style="overflow:visible;"/>
			</clipPath>
			<g class="st10">
				<path class="st8" d="M-401.2,609c0-15.1,39.6-37.9,52.6-30.2c13.1,7.7,13.8,54.9-0.2,60.7C-362.8,645.2-401.1,624.1-401.2,609z"
					/>
				
					<linearGradient id="SVGID_18_" gradientUnits="userSpaceOnUse" x1="-412.715" y1="944.4595" x2="-356.1597" y2="887.4368" gradientTransform="matrix(1 0 0 -1 0 1504)">
					<stop  offset="0" style="stop-color:#FFFFFF;stop-opacity:0"/>
					<stop  offset="1" style="stop-color:#002F77;stop-opacity:0.7"/>
				</linearGradient>
				<circle class="st11" cx="-383.7" cy="588.8" r="36.6"/>
			</g>
		</g>
	</g>
	<g>
		<g>
			<path class="st12" d="M-397.3,651c0.2,0.4,0.4,0.7,0.6,0.9C-396.4,651.9-397.5,649.7-397.3,651
				C-397.1,651.1-397.5,649.7-397.3,651z"/>
			<path class="st12" d="M-396.2,648.9c4.1,14.7,4.1,20.7,3.7,21.8c3.2,4.3,6.7-0.7,9.7-0.7c5.2,0,4.9-1.3,8.6-2.4
				c4.1-1.1,7.7-2.2,11.8-3c1.5-0.2,3.5,1.9,5,1.3c0,0,2.6,5.6,3.5,5.4h0.6l0,0c0,0,5.4-4.3,4.5-4.9c1.9,0.9-2.1,6.2-1.9,6.3
				c0.9,1.5,2.4-2.6,2.4-2.6c1.5-0.6,0,4.1,0,3.4c-0.2-2.1,3,1.7,3.2,1.7c-0.4-0.7-0.9-1.5-1.5-1.9c0.7,0,2.2,2.8,1.5,3.2
				c2.8,4.7,7.7,1.1,9.3,2.6c-0.7-0.6-0.2,0.2,0,0.4c-0.2-0.2,3.5,1.7,3.2,1.9c-0.6,0.4,3-3.5,2.6-3c-1.3,2.8,9.5-6.3,5.8-6.3
				c0.2,0,1.5-3,1.5-3l0.2-0.6c-0.6,0.2-0.6,0.2,0.2-0.2c0.7-0.9,1.1-1.5,0.9-1.7c0.7,0.9,3.5-10.3,3.4-11.6c0,0,0,0.4,0,0
				c0-0.4-0.4-1.1-0.4-1.3c1.3,0.7-4.1-8-4.5-8.4c-1.1-1.5,1.1-2.2-0.2-2.2c-1.7-1.3-0.4-0.4-1.1,0.2c0.2-0.2-0.4-0.4-0.7-0.2
				c0.2-0.2-0.4-2.2-0.6-2.4c-0.2,0-3.5-5.4-3.5-4.9c-1.7,0-1.3-1.5-2.2-2.1c0-0.7,0-0.7,0,0c-0.9-0.6-1.3-11.2-3.9-9.5
				c-0.2,0.2-3.2-6.9-3.2-7.8c0-0.6-1.7,4.1-2.1,4.1c1.1,0,0.4,0.4,0.4,0.6l-0.4,0.4c-0.2,0.6,1.1,10.8-3,10.8
				c-5,0-11.2-11.2-7.5-10.6c0.2,0,0.9-0.2,1.3-1.5c-0.2,0.4-1.3-1.3-0.9-0.9c-0.9-0.7-0.4,1.3-0.7,1.3c-0.4,0-1.1-1.1-0.7-1.1
				c-3.9,0.6-3.9-1.7-6.9-1.7c-0.4,0-0.7,0.4-1.3,0.2c1.5,0.4,2.8,1.1,1.1,2.4c-0.9,0.7-9,1.9-5.2,6.3c-1.1,0.4,0-1.7-1.1,0
				c0.7-1.3-2.4-0.9-1.7-0.4c-0.2-0.2,0,0.9-1.1,1.1c2.1-0.4-0.7-4.3-1.9-4.3c-0.2,0-0.2,0.7-0.7,1.1c0.7-0.6-1.5,0-1.1-0.7
				c-0.2,0.4,0.4,1.1-0.2,1.7c-0.7,0.6,0.2-1.3-0.7-0.2c-0.2-0.2-0.4-0.2-0.4,0.2c-0.2-0.9-0.2,1.7,0,1.1c-0.2,0.4-0.9-0.6-1.3,0
				c0.6-0.2,0.6,0,0.2,0.4c0,0,0.9,0.2,0.7,0.6c0.2-0.2-1.3-0.7-1.1-0.7l-0.6,1.3c0.2-0.4,0.2-0.2,0.2,0.2l0.6-0.7
				c0.4,1.9-1.9,0.4,0.4,1.7c-1.3-0.7-2.2,0-2.6,0.2c1.3,1.5-0.6,0.9,0.4,3.2c-0.2-0.6-1.1-2.6-1.3-2.8c2.6,1.1-17.5,13.6-17.5,11.8
				C-395.6,643.5-397.1,646.9-396.2,648.9 M-363.7,627.4c-0.2,0-0.4,0-0.6-0.2L-363.7,627.4C-363.9,627.4-363.3,627.3-363.7,627.4z"
				/>
			<path class="st12" d="M-351.6,619.6c0.2,0,0.4-0.2,0.4-0.2S-351.4,619.6-351.6,619.6z"/>
			<path class="st12" d="M-329.4,685.9c-0.6-0.9-2.6,0.6-2.8,0.6c-0.4-0.2-2.6-0.9-3-0.9c-2.2-0.4-0.9,2.2-0.2,3.4
				c-0.4-0.2,0.7,2.1,0.9,2.1c0.4,1.1,3.5,0.2,3.2-0.6c0.7-0.9,0.4,1.3,0.9,0.6c0.7-0.7-0.6-2.2,0.7-2.1
				C-329.9,688.7-329.2,686.1-329.4,685.9C-329.4,685.7-329.4,685.9-329.4,685.9z M-334.8,689c-0.2,0.7-0.4-0.2-0.6-0.4
				C-335.3,688.7-334.8,688.9-334.8,689C-335,689.8-334.6,688.9-334.8,689z M-332,686.6l-0.2-0.4C-331.6,686.8-331.6,687-332,686.6
				C-332,686.6-331.8,686.8-332,686.6z"/>
		</g>
	</g>
</g>
</svg>
