<?xml version="1.0" encoding="utf-8"?>
<!-- Generator: Adobe Illustrator 19.1.0, SVG Export Plug-In . SVG Version: 6.00 Build 0)  -->
<svg version="1.1" id="Layer_1" xmlns="http://www.w3.org/2000/svg" xmlns:xlink="http://www.w3.org/1999/xlink" x="0px" y="0px"
	 viewBox="0 0 24 24" style="enable-background:new 0 0 24 24;" xml:space="preserve">
<style type="text/css">
	.st0{fill:none;}
</style>
<path class="st0" d="M0,0h24v24H0V0z"/>
<path d="M20,3H4C2.9,3,2,3.9,2,5v14c0,1.1,0.9,2,2,2h16c1.1,0,2-0.9,2-2V5C22,3.9,21.1,3,20,3z M18.1,17.3c0,0.4-0.3,0.7-0.7,0.7
	C11.1,18,6,12.9,6,6.7C6,6.3,6.3,6,6.7,6H9c0.4,0,0.7,0.3,0.7,0.7C9.7,7.5,9.8,8.3,10,9c0.1,0.2,0,0.5-0.2,0.7l-1.4,1.5
	c1,1.9,2.5,3.4,4.4,4.4l1.5-1.5c0.2-0.2,0.4-0.2,0.7-0.2c0.7,0.2,1.6,0.4,2.4,0.4c0.4,0,0.7,0.3,0.7,0.7
	C18.1,15,18.1,17.3,18.1,17.3z"/>
</svg>
