<?xml version="1.0" encoding="utf-8"?>
<!-- Generator: Adobe Illustrator 19.1.0, SVG Export Plug-In . SVG Version: 6.00 Build 0)  -->
<svg version="1.1" id="Layer_1" xmlns="http://www.w3.org/2000/svg" xmlns:xlink="http://www.w3.org/1999/xlink" x="0px" y="0px"
	 viewBox="0 0 32 32" style="enable-background:new 0 0 32 32;" xml:space="preserve">
<g>
	<path d="M16,0C7.2,0,0,7.2,0,16s7.2,16,16,16s16-7.2,16-16S24.8,0,16,0z M19.4,16h-2.2c0,3.6,0,8,0,8h-3.3c0,0,0-4.4,0-8h-1.6v-2.8
		h1.6v-1.8c0-1.3,0.6-3.4,3.4-3.4h2.5v2.7c0,0-1.5,0-1.8,0s-0.7,0.1-0.7,0.8v1.7h2.5L19.4,16z"/>
</g>
</svg>
