<?xml version="1.0" standalone="no"?>
<!DOCTYPE svg PUBLIC "-//W3C//DTD SVG 1.1//EN" "http://www.w3.org/Graphics/SVG/1.1/DTD/svg11.dtd" >
<svg xmlns="http://www.w3.org/2000/svg">
<metadata>
Created by FontPrep 20130207 at Wed Feb 24 14:44:56 2016
 By Callum Flack
Copyright (c) The Font Bureau, Inc., 2008. All rights reserved.
</metadata>
<defs>
<font id="196d3469482ec04e4abdab6fe4213988" horiz-adv-x='1024' >
  <font-face 
    font-family="BentonSansCondensed-BookItalic"
    font-weight="350"
    font-style="italic"
    font-stretch="semi-condensed"
    units-per-em="2048"
    panose-1="2 0 4 6 2 0 0 9 0 4"
    ascent="1612"
    descent="-436"
    x-height="1077"
    cap-height="1516"
    bbox="-172 -457 2181 1970"
    underline-thickness="0"
    underline-position="0"
    slope="-9"
    unicode-range="U+0020-FB04"
  />
<missing-glyph horiz-adv-x="1024" 
d="M102 1331v-1229h820v1229h-820zM0 0v1434h1024v-1434h-1024z" />
    <glyph glyph-name="f_f" unicode="ff" horiz-adv-x="1099" 
d="M588 1403q-147 0 -170 -141l-29 -185h381l29 180q20 137 94 199t209 62l63 -2h19l-19 -115q-2 2 -57 2q-154 0 -176 -141l-29 -185h203l-19 -110h-202l-154 -967h-131l152 967h-381l-152 -967h-133l152 967h-158l18 110h158l29 180q20 135 94 197t205 64l59 -2h19
l-17 -115q-4 2 -57 2z" />
    <glyph glyph-name="f_i" unicode="fi" horiz-adv-x="1001" 
d="M600 0l170 1077h133l-172 -1077h-131zM588 1401q-147 0 -170 -139l-29 -185h195l-19 -112h-194l-152 -965h-133l152 965h-160l20 112h158l29 180q20 135 94 197t205 64l59 -2h19l-19 -117l-27 2h-28zM805 1313l24 157h138l-25 -157h-137z" />
    <glyph glyph-name="f_l" unicode="fl" horiz-adv-x="1001" 
d="M588 1401q-147 0 -170 -139l-29 -185h195l-19 -112h-194l-152 -965h-133l152 965h-160l20 112h158l29 180q20 135 94 197t205 64l59 -2h19l-19 -117l-27 2h-28zM600 0l240 1516h133l-242 -1516h-131z" />
    <glyph glyph-name="f_f_i" unicode="ffi" horiz-adv-x="1513" 
d="M588 1403q-147 0 -170 -141l-29 -185h381l29 180q20 137 93 199t206 62q6 0 41 -2h37l-19 -115q-2 2 -55 2q-150 0 -170 -141l-29 -185h195l-19 -110h-194l-154 -967h-131l152 967h-381l-152 -967h-133l152 967h-158l18 110h158l29 180q20 135 94 197t205 64l59 -2h19
l-17 -115q-4 2 -57 2zM1112 0l172 1077h131l-170 -1077h-133zM1319 1313l24 157h136l-23 -157h-137z" />
    <glyph glyph-name="f_f_l" unicode="ffl" horiz-adv-x="1513" 
d="M588 1403q-147 0 -170 -141l-29 -185h381l29 180q20 137 93 199t206 62q6 0 41 -2h37l-19 -115q-2 2 -55 2q-150 0 -170 -141l-29 -185h195l-19 -110h-194l-154 -967h-131l152 967h-381l-152 -967h-133l152 967h-158l18 110h158l29 180q20 135 94 197t205 64l59 -2h19
l-17 -115q-4 2 -57 2zM1112 0l240 1516h133l-240 -1516h-133z" />
    <glyph glyph-name="f_j" unicode="fj" horiz-adv-x="1001" 
d="M469 -410q-59 0 -72 4l17 109q20 -4 51 -4q88 0 106 115l199 1263h133l-201 -1259q-16 -120 -72 -174t-161 -54zM588 1403q-145 0 -170 -141l-29 -185h195l-19 -110h-194l-152 -967h-133l152 967h-158l18 110h158l29 180q20 135 94 197t205 64l59 -2h19l-17 -115
q-4 2 -57 2zM805 1313l24 157h138l-25 -157h-137z" />
    <glyph glyph-name=".notdef" horiz-adv-x="1024" 
d="M102 1331v-1229h820v1229h-820zM0 0v1434h1024v-1434h-1024z" />
    <glyph glyph-name=".null" horiz-adv-x="0" 
 />
    <glyph glyph-name="nonmarkingreturn" horiz-adv-x="681" 
 />
    <glyph glyph-name="space" unicode=" " horiz-adv-x="395" 
 />
    <glyph glyph-name="space" unicode="&#xa0;" horiz-adv-x="395" 
 />
    <glyph glyph-name="exclam" unicode="!" horiz-adv-x="559" 
d="M80 0l31 186h163l-30 -186h-164zM182 408l140 1108h161l-213 -1108h-88z" />
    <glyph glyph-name="quotedbl" unicode="&#x22;" horiz-adv-x="731" 
d="M526 1004l35 403l19 109h133l-19 -109l-92 -403h-76zM211 1004l35 403l16 109h135l-16 -109l-94 -403h-76z" />
    <glyph glyph-name="numbersign" unicode="#" horiz-adv-x="1232" 
d="M80 446v115h223l70 393h-217v115h237l82 447h123l-80 -447h316l79 447h123l-80 -447h207v-115h-227l-72 -393h223v-115h-241l-80 -446h-123l78 446h-313l-80 -446h-125l80 446h-203zM428 559h313l72 397h-315z" />
    <glyph glyph-name="dollar" unicode="$" horiz-adv-x="1116" 
d="M614 1524h7l24 153h109l-25 -164q236 -45 293 -286l-121 -51q-29 96 -71 148t-125 71l-91 -570q64 -37 96 -57t83 -62q140 -116 143 -288q0 -194 -122 -306t-329 -116l-28 -186h-109l31 192q-274 41 -342 326l125 47q33 -111 88 -175t151 -83l99 622q-216 124 -267 250
q-23 57 -22 127q0 178 112 293t291 115zM799 397q1 92 -53 157t-154 128l-90 -571q133 3 215 77t82 209zM348 1139q0 -143 174 -256l82 522h-2q-114 -1 -184 -77t-70 -189z" />
    <glyph glyph-name="percent" unicode="%" horiz-adv-x="1650" 
d="M1165 84q74 0 134 80t83 239q14 74 15 170q0 213 -133 213q-170 0 -217 -319q-12 -90 -13 -174q0 -209 131 -209zM1511 571q0 -329 -139 -487q-94 -108 -214 -107q-120 0 -181 85t-62 239q0 80 15 176q33 203 127 309t213 106t180 -84q61 -85 61 -237zM391 735
q74 0 134 80q95 126 98 410q0 211 -131 211q-172 0 -220 -320q-12 -88 -12 -174q0 -207 131 -207zM270 0l990 1516h120l-989 -1516h-121zM737 1223q0 -331 -138 -487q-95 -108 -215 -107q-120 0 -180 85t-61 238q0 78 15 174q31 204 125 310t214 106t180 -83t60 -236z" />
    <glyph glyph-name="ampersand" unicode="&#x26;" horiz-adv-x="1243" 
d="M0 315q0 221 165 371q87 79 218 154q-37 143 -37 268q0 200 89 318t233 118t210 -73q67 -73 66 -183q0 -160 -108 -278t-295 -226q37 -98 111 -240t149 -239q106 158 180 453h131q-96 -360 -231 -545q104 -100 221 -107l-23 -126q-160 2 -291 131q-152 -139 -364 -139
t-319 91q-105 92 -105 252zM139 338q0 -118 74 -184q73 -66 225 -66t275 113q-78 103 -167 265t-126 265q-135 -92 -208 -184t-73 -209zM672 1427q-92 0 -144 -87q-52 -86 -53 -206q0 -120 31 -243q150 92 228 180t79 211q0 145 -141 145z" />
    <glyph glyph-name="quotesingle" unicode="'" horiz-adv-x="419" 
d="M211 1004l35 403l16 109h135l-16 -109l-92 -403h-78z" />
    <glyph glyph-name="parenleft" unicode="(" horiz-adv-x="708" 
d="M61 369q0 652 607 1163l65 -68q-430 -395 -512 -907q-16 -109 -16 -203q0 -401 241 -706l-88 -66q-297 346 -297 787z" />
    <glyph glyph-name="parenright" unicode=")" horiz-adv-x="708" 
d="M442 760q0 401 -241 706l86 66q299 -344 299 -787q0 -653 -606 -1163l-68 66q430 393 514 909q16 109 16 203z" />
    <glyph glyph-name="asterisk" unicode="*" horiz-adv-x="937" 
d="M328 801l-86 69l239 256l-344 27l19 107l336 -80l-152 317l104 43l97 -338l194 291l86 -72l-241 -254l346 -28l-19 -107l-336 80l150 -317l-105 -41l-94 336z" />
    <glyph glyph-name="plus" unicode="+" horiz-adv-x="1081" 
d="M469 170v442h-383v117h383v442h121v-442h383v-117h-383v-442h-121z" />
    <glyph glyph-name="comma" unicode="," horiz-adv-x="481" 
d="M23 -205l81 205h-65l31 190h163l-28 -174l-119 -221h-63z" />
    <glyph glyph-name="hyphen" unicode="-" horiz-adv-x="626" 
d="M88 582l18 120h402l-21 -120h-399z" />
    <glyph glyph-name="hyphen" unicode="&#xad;" horiz-adv-x="626" 
d="M88 582l18 120h402l-21 -120h-399z" />
    <glyph glyph-name="period" unicode="." horiz-adv-x="481" 
d="M39 0l31 190h163l-30 -190h-164z" />
    <glyph glyph-name="slash" unicode="/" horiz-adv-x="962" 
d="M-86 0l989 1516h148l-990 -1516h-147z" />
    <glyph glyph-name="zero" unicode="0" horiz-adv-x="1118" 
d="M475 94q309 0 412 641q25 158 24 277q0 410 -262 409q-311 0 -411 -641q-25 -158 -25 -280q0 -406 262 -406zM475 -29q-201 -1 -301 141t-100 402q0 129 24 279q58 371 204 561t346 190t300 -140t101 -400q0 -129 -25 -279q-60 -373 -204 -563t-345 -191z" />
    <glyph glyph-name="one" unicode="1" horiz-adv-x="768" 
d="M-16 0l20 125h246l196 1243q-125 -70 -251 -70l18 121q170 6 264 97h127l-219 -1391h219l-18 -125h-602z" />
    <glyph glyph-name="two" unicode="2" horiz-adv-x="999" 
d="M823 1196q0 106 -55 165q-56 60 -160 60t-179 -59t-144 -182l-111 55q90 161 194 235t260 74q154 0 244 -94t90 -236t-54 -250q-56 -110 -139 -182q-131 -113 -378 -290q-90 -66 -163 -161t-95 -206h660l-19 -125h-809l6 35q25 139 85 253t136 190t164 140t170 121
t149 119q148 135 148 338z" />
    <glyph glyph-name="three" unicode="3" horiz-adv-x="1011" 
d="M403 -25q-365 0 -436 351l123 45q57 -274 309 -275q147 0 239 104t93 283q0 264 -309 265h-82l18 114h127q156 0 243 86t87 260q0 96 -55 154t-176 59q-166 0 -305 -153l-91 67q174 209 406 209q184 0 271 -91t87 -247t-81 -262t-212 -141q97 -33 153 -113t56 -201
q0 -227 -133 -371t-332 -143z" />
    <glyph glyph-name="four" unicode="4" horiz-adv-x="1038" 
d="M160 494h446l133 831h-2zM528 0l58 371h-590l18 102l729 1043h156l-162 -1022h215l-18 -123h-217l-58 -371h-131z" />
    <glyph glyph-name="five" unicode="5" horiz-adv-x="999" 
d="M424 -29q-182 0 -282 77q-99 77 -150 224l119 54q86 -236 295 -236q164 0 256 148t92 350q0 137 -60 214t-172 77q-166 0 -282 -148l-103 25l166 760h666l-27 -127h-543l-116 -512q45 55 119 87t149 31q164 0 253 -101t89 -284q0 -303 -143 -471q-144 -168 -326 -168z
" />
    <glyph glyph-name="six" unicode="6" horiz-adv-x="1042" 
d="M207 512q1 -202 67 -312t198 -110t229 122t98 349q0 266 -246 266q-88 0 -177 -44t-161 -130q-8 -66 -8 -141zM472 -29q-192 -1 -296 137t-104 408t74 508q74 236 211 378q136 142 307 142q238 0 337 -178l-114 -74q-81 133 -231 133t-263 -173t-160 -461
q151 157 339 157t275 -105t87 -278q0 -262 -135 -428t-327 -166z" />
    <glyph glyph-name="seven" unicode="7" horiz-adv-x="940" 
d="M63 0l762 1389h-635l21 127h778l-18 -117l-768 -1399h-140z" />
    <glyph glyph-name="eight" unicode="8" horiz-adv-x="1040" 
d="M143 326q0 -94 79 -168q79 -72 220 -72t239 80q97 80 97 227q0 104 -67 180q-68 76 -199 166q-88 -39 -143 -70q-153 -89 -198 -187q-28 -62 -28 -156zM328 1170q0 -100 56 -166t163 -140q149 68 227 142t78 183t-58 174t-186 65t-204 -79t-76 -179zM446 -29
q-218 -1 -330 105t-112 260q0 194 128 306q65 56 127 91t157 76q-104 78 -163 158q-58 80 -58 184q0 164 116 280q117 115 299 115t278 -98t97 -243q0 -145 -89 -237t-253 -169q131 -90 202 -179t70 -219q0 -176 -125 -303t-344 -127z" />
    <glyph glyph-name="nine" unicode="9" horiz-adv-x="1042" 
d="M383 -29q-238 0 -338 179l113 73q80 -133 236 -133t263 170q106 170 156 465q-154 -158 -340 -158q-186 -1 -273 105t-87 278q0 262 135 428q134 166 326 166t296 -137t104 -409t-68 -506q-69 -233 -206 -377t-317 -144zM494 686q188 0 337 176q6 74 7 142q0 202 -67 312
t-199 110t-228 -121t-96 -351q0 -268 246 -268z" />
    <glyph glyph-name="colon" unicode=":" horiz-adv-x="485" 
d="M41 0l31 190h164l-33 -190h-162zM182 889l29 188h164l-31 -188h-162z" />
    <glyph glyph-name="semicolon" unicode=";" horiz-adv-x="485" 
d="M25 -205l81 205h-65l31 190h164l-29 -172l-119 -223h-63zM182 889l29 188h164l-31 -188h-162z" />
    <glyph glyph-name="less" unicode="&#x3c;" horiz-adv-x="1167" 
d="M1028 152l-922 458v107l922 459v-129l-780 -383l780 -383v-129z" />
    <glyph glyph-name="equal" unicode="=" horiz-adv-x="1081" 
d="M123 375v117h819v-117h-819zM123 838v118h819v-118h-819z" />
    <glyph glyph-name="greater" unicode="&#x3e;" horiz-adv-x="1167" 
d="M125 152v129l780 383l-780 383v129l924 -459v-107z" />
    <glyph glyph-name="question" unicode="?" horiz-adv-x="919" 
d="M211 0l31 188h166l-29 -188h-168zM770 1225q0 86 -55 141t-166 55q-166 0 -297 -194l-102 55q164 262 411 262q174 0 260 -86t86 -239t-90 -258q-41 -49 -139 -134t-144 -137q-100 -110 -116 -282h-119q4 112 42 202t90 144q51 54 111 107q60 54 110 97t84 112t34 155z
" />
    <glyph glyph-name="at" unicode="@" horiz-adv-x="1519" 
d="M674 422q121 0 239 131l56 438q-89 117 -203 117t-183 -123t-69 -317q0 -246 160 -246zM774 -29q-305 0 -490 209q-186 210 -186 574t188 577t489 213t489 -210t188 -556q0 -219 -82 -338t-217 -118q-90 0 -144 43t-73 112q-133 -154 -281 -153q-121 0 -191 87t-67 246
q1 242 101 398t262 155q131 0 221 -114l12 96h111l-76 -602q-20 -184 142 -184q82 0 139 91q55 91 55 281q0 310 -164 498t-426 188t-424 -190t-162 -518t161 -516t425 -189q188 0 361 94l39 -67q-189 -107 -400 -107z" />
    <glyph glyph-name="A" unicode="A" horiz-adv-x="1134" 
d="M-57 0l684 1522h127l200 -1522h-135l-59 469h-477l-207 -469h-133zM449 846l-113 -254h409l-30 250q-49 385 -60 477h-4q-69 -174 -202 -473z" />
    <glyph glyph-name="B" unicode="B" horiz-adv-x="1157" 
d="M526 123q352 0 353 342q0 254 -338 254h-246l-94 -596h325zM594 840q352 0 352 325q0 113 -76 168t-245 56h-224l-86 -549h279zM625 1516q461 0 460 -330q0 -338 -299 -406v-4q104 -27 166 -104q61 -78 62 -205q0 -227 -134 -347t-352 -120h-483l240 1516h340z" />
    <glyph glyph-name="C" unicode="C" horiz-adv-x="1171" 
d="M537 98q234 0 378 383l123 -20q-173 -490 -499 -490q-219 0 -338 154t-119 432q0 453 187 720t436 267q205 0 304 -126t109 -343l-131 -24q-10 182 -78 274t-207 92q-196 -1 -338 -241t-143 -617q0 -219 82 -340t234 -121z" />
    <glyph glyph-name="D" unicode="D" horiz-adv-x="1193" 
d="M422 127q219 0 351 138t181 456q18 115 19 207q0 459 -426 458h-144l-198 -1259h217zM520 1516q596 0 596 -570q0 -115 -20 -235q-62 -375 -236 -543t-457 -168h-358l240 1516h235z" />
    <glyph glyph-name="E" unicode="E" horiz-adv-x="1011" 
d="M45 0l240 1516h731l-21 -130h-592l-81 -520h430l-21 -127h-430l-96 -612h629l-21 -127h-768z" />
    <glyph glyph-name="F" unicode="F" horiz-adv-x="950" 
d="M45 0l240 1516h723l-21 -130h-584l-81 -526h421l-20 -127h-422l-117 -733h-139z" />
    <glyph glyph-name="G" unicode="G" horiz-adv-x="1218" 
d="M523 -29q-221 0 -331 153t-110 425q0 453 185 724t435 271q212 0 308 -122t108 -347l-131 -24q-10 186 -76 276t-209 90q-196 1 -338 -241t-143 -621q0 -221 81 -340q80 -119 230 -119t254 128t144 366h-297l20 123h420l-112 -713h-117l28 186h-2q-127 -215 -347 -215z
" />
    <glyph glyph-name="H" unicode="H" horiz-adv-x="1236" 
d="M45 0l240 1516h139l-102 -650h630l103 650h139l-240 -1516h-139l117 737h-631l-117 -737h-139z" />
    <glyph glyph-name="I" unicode="I" horiz-adv-x="491" 
d="M57 0l240 1516h139l-239 -1516h-140z" />
    <glyph glyph-name="J" unicode="J" horiz-adv-x="851" 
d="M268 -23q-199 0 -327 119l84 103q105 -97 221 -97t172 52t74 170l188 1192h139l-190 -1201q-54 -338 -361 -338z" />
    <glyph glyph-name="K" unicode="K" horiz-adv-x="1126" 
d="M825 0l-309 817l-246 -278l-86 -539h-139l240 1516h139l-125 -795q10 12 172 207l514 588h150l-514 -586l346 -930h-142z" />
    <glyph glyph-name="L" unicode="L" horiz-adv-x="956" 
d="M45 0l240 1516h139l-219 -1389h586l-19 -127h-727z" />
    <glyph glyph-name="M" unicode="M" horiz-adv-x="1470" 
d="M45 0l240 1516h172l190 -1319h4l602 1319h174l-239 -1516h-135l202 1280h-4q-33 -88 -170 -385l-413 -895h-113l-129 897q-39 270 -49 385h-4l-203 -1282h-125z" />
    <glyph glyph-name="N" unicode="N" horiz-adv-x="1251" 
d="M45 0l240 1516h172l334 -984q72 -219 88 -268h4l198 1252h127l-239 -1516h-129l-353 1032q-10 31 -45 128t-55 169h-4l-211 -1329h-127z" />
    <glyph glyph-name="O" unicode="O" horiz-adv-x="1251" 
d="M543 98q193 0 341 232t148 614q0 221 -84 347t-235 126q-195 0 -342 -231t-148 -617q0 -221 84 -346t236 -125zM537 -29q-209 0 -331 161q-122 160 -122 414t55 444q101 347 351 491q112 63 231 63q209 0 330 -162t120 -442q0 -230 -56 -418q-103 -347 -351 -487
q-110 -64 -227 -64z" />
    <glyph glyph-name="P" unicode="P" horiz-adv-x="1103" 
d="M575 786q360 0 361 365q0 236 -305 235h-228l-94 -600h266zM635 1516q213 0 326 -92t112 -263q0 -280 -152 -390q-152 -111 -346 -109h-286l-105 -662h-139l240 1516h350z" />
    <glyph glyph-name="Q" unicode="Q" horiz-adv-x="1251" 
d="M543 96q193 0 341 232t148 616q0 221 -84 347t-235 126q-195 0 -342 -231t-148 -617q0 -221 84 -347t236 -126zM768 -381q-387 0 -332 369q-166 34 -259 188t-93 389t55 425q101 347 351 491q112 63 231 63q209 0 330 -162t120 -442q0 -221 -52 -403q-95 -333 -332 -483
q-105 -67 -218 -74q-12 -130 40 -184t179 -54h97l-21 -123h-96z" />
    <glyph glyph-name="R" unicode="R" horiz-adv-x="1136" 
d="M639 1516q437 0 437 -370q0 -186 -97 -306q-96 -120 -274 -156l202 -684h-141l-199 670h-278l-107 -670h-137l240 1516h354zM580 791q168 -1 262 79t94 279q0 238 -305 237h-228l-94 -595h271z" />
    <glyph glyph-name="S" unicode="S" horiz-adv-x="1079" 
d="M461 -25q-369 0 -457 355l125 51q70 -281 336 -281q143 0 232 79t89 216q0 86 -60 160t-145 128q-85 55 -171 113t-147 143q-60 85 -60 191q0 188 121 302t294 112q330 0 412 -315l-127 -53q-68 244 -291 243q-114 1 -192 -73t-78 -199q0 -84 60 -156t146 -127t172 -113
q85 -57 145 -145t61 -196q0 -197 -129 -316t-336 -119z" />
    <glyph glyph-name="T" unicode="T" horiz-adv-x="1034" 
d="M328 0l219 1386h-387l20 130h914l-21 -130h-385l-221 -1386h-139z" />
    <glyph glyph-name="U" unicode="U" horiz-adv-x="1208" 
d="M486 -29q-226 1 -318 145t-53 388l159 1012h140l-158 -1002q-70 -418 246 -418q170 0 258 106t121 308l159 1006h134l-164 -1047q-37 -231 -167 -365q-131 -134 -357 -133z" />
    <glyph glyph-name="V" unicode="V" horiz-adv-x="1112" 
d="M373 -6l-191 1522h137l97 -842q12 -102 29 -255t26 -220h4q31 73 102 235t103 236l360 846h131l-667 -1522h-131z" />
    <glyph glyph-name="W" unicode="W" horiz-adv-x="1556" 
d="M279 -6l-89 1522h132l34 -818q2 -88 10 -226t13 -232h2q62 192 162 458l295 818h129l37 -840q2 -47 9 -197t9 -239h2q16 47 72 195q55 148 88 243l299 838h125l-568 -1522h-116l-62 1270h-4l-463 -1270h-116z" />
    <glyph glyph-name="X" unicode="X" horiz-adv-x="1093" 
d="M791 0l-259 698l-471 -698h-141l567 827l-254 689h140l211 -576l383 576h141l-477 -703l297 -813h-137z" />
    <glyph glyph-name="Y" unicode="Y" horiz-adv-x="1034" 
d="M328 0l102 633l-270 883h139l217 -748h4l455 748h139l-545 -879l-100 -637h-141z" />
    <glyph glyph-name="Z" unicode="Z" horiz-adv-x="1046" 
d="M-45 0l16 106l920 1280h-666l19 130h833l-16 -105l-920 -1284h717l-20 -127h-883z" />
    <glyph glyph-name="bracketleft" unicode="[" horiz-adv-x="675" 
d="M-31 -410l305 1926h443l-17 -109h-307l-270 -1708h307l-18 -109h-443z" />
    <glyph glyph-name="backslash" unicode="\" horiz-adv-x="956" 
d="M670 0l-510 1516h129l510 -1516h-129z" />
    <glyph glyph-name="bracketright" unicode="]" horiz-adv-x="675" 
d="M-104 -410l18 109h307l271 1708h-308l17 109h442l-305 -1926h-442z" />
    <glyph glyph-name="asciicircum" unicode="^" horiz-adv-x="1167" 
d="M143 766l389 747h103l387 -747h-129l-309 606l-310 -606h-131z" />
    <glyph glyph-name="underscore" unicode="_" horiz-adv-x="876" 
d="M-164 -256l19 113h882l-16 -113h-885z" />
    <glyph glyph-name="grave" unicode="`" horiz-adv-x="892" 
d="M539 1194l-195 315h162l121 -315h-88z" />
    <glyph glyph-name="a" unicode="a" horiz-adv-x="931" 
d="M246 -16q-106 0 -176 70q-72 70 -72 184q0 188 159 300t507 171l10 75q31 199 -133 199q-178 0 -336 -137l-74 86q186 168 420 168q164 0 221 -79t33 -237l-82 -518q-31 -184 -16 -266h-134q-10 78 0 131q-85 -79 -153 -113t-174 -34zM291 98q147 0 297 144l59 366
q-289 -55 -401 -138t-113 -216q0 -72 44 -114t114 -42z" />
    <glyph glyph-name="b" unicode="b" horiz-adv-x="1007" 
d="M438 98q250 0 314 422q14 86 14 166q0 145 -54 221t-140 76t-147 -34q-62 -34 -136 -105l-99 -611q96 -135 248 -135zM590 1100q152 0 231 -100q80 -100 80 -298q0 -80 -16 -184q-45 -280 -160 -408t-287 -128t-266 133l-18 -115h-134l240 1516h133l-88 -553
q133 137 285 137z" />
    <glyph glyph-name="c" unicode="c" horiz-adv-x="901" 
d="M385 -23q-160 0 -253 118q-93 119 -93 309t45 327q77 235 267 330q79 39 157 39q274 0 323 -312l-131 -34q-16 115 -59 172t-142 57t-189 -101t-122 -304q-12 -80 -12 -168q0 -146 56 -232t163 -86q150 0 250 234l115 -35q-131 -314 -375 -314z" />
    <glyph glyph-name="d" unicode="d" horiz-adv-x="1007" 
d="M354 -18q-150 0 -231 101q-80 101 -80 300q0 66 16 184q35 248 147 390q112 143 295 143t273 -131l86 547h133l-196 -1250q-29 -188 -19 -266h-133q-10 57 -4 119q-137 -137 -287 -137zM372 98q85 0 147 32t138 103l97 613q-92 137 -236 137t-220 -114
q-77 -114 -105 -308q-14 -94 -15 -166q0 -145 54 -221t140 -76z" />
    <glyph glyph-name="e" unicode="e" horiz-adv-x="929" 
d="M39 390q0 186 43 326q76 246 262 343q80 41 160 41q324 0 323 -385q0 -49 -14 -164l-4 -31h-629q-6 -55 -6 -112q0 -150 58 -233t167 -83q147 0 263 211l94 -57q-137 -268 -371 -269q-160 0 -253 113t-93 300zM510 985q-114 0 -198 -94t-117 -262h499q16 154 -26 255
q-44 101 -158 101z" />
    <glyph glyph-name="f" unicode="f" horiz-adv-x="585" 
d="M594 1401q-154 0 -176 -139l-29 -185h203l-19 -112h-202l-152 -965h-133l152 965h-160l20 112h158l29 180q20 137 94 199t207 62l67 -2h19l-21 -117l-28 2h-29z" />
    <glyph glyph-name="g" unicode="g" horiz-adv-x="972" 
d="M330 -307q135 0 215 51t80 162q0 53 -42 85t-163 56l-178 37l-41 8q-178 -80 -178 -221q0 -178 307 -178zM754 -90q0 -106 -67 -184q-120 -136 -352 -136t-338 71q-105 71 -106 187q0 188 218 279q-68 37 -68 113q0 51 37 99t98 77q-90 90 -90 243q0 199 120 320t280 121
t249 -113q106 80 238 103l-23 -132q-100 0 -176 -32q33 -76 33 -162q0 -207 -119 -323t-270 -115q-96 0 -174 39q-78 -39 -78 -97q0 -27 22 -42t99 -31l172 -35q163 -36 229 -90t66 -160zM215 657q1 -101 55 -163t158 -62t176 90q74 90 74 244q0 104 -51 164t-155 61
q-104 0 -181 -91q-76 -91 -76 -243z" />
    <glyph glyph-name="h" unicode="h" horiz-adv-x="995" 
d="M634 1100q156 0 210 -72t30 -221l-129 -807h-131l123 778q18 106 -10 156q-29 49 -119 49q-145 0 -323 -154l-131 -829h-134l240 1516h133l-92 -576q177 160 333 160z" />
    <glyph glyph-name="i" unicode="i" horiz-adv-x="432" 
d="M31 0l170 1077h133l-170 -1077h-133zM238 1313l24 157h135l-24 -157h-135z" />
    <glyph glyph-name="j" unicode="j" horiz-adv-x="432" 
d="M-100 -410q-55 0 -72 4l16 109q25 -4 54 -4q86 0 104 115l199 1263h133l-199 -1259q-19 -120 -75 -174t-160 -54zM238 1313l24 157h135l-24 -157h-135z" />
    <glyph glyph-name="k" unicode="k" horiz-adv-x="901" 
d="M600 0l-188 578l-201 -222l-57 -356h-134l240 1516h133l-155 -986q35 43 163 187l324 360h141l-354 -393l223 -684h-135z" />
    <glyph glyph-name="l" unicode="l" horiz-adv-x="432" 
d="M31 0l239 1516h133l-239 -1516h-133z" />
    <glyph glyph-name="m" unicode="m" horiz-adv-x="1564" 
d="M633 1100q119 0 170 -40t65 -124q178 164 355 164q143 0 194 -74t27 -223l-127 -803h-131l123 778q18 106 -10 156t-115 49q-147 0 -318 -152l-131 -831h-133l123 778q18 106 -10 156q-29 49 -119 49q-133 0 -311 -156l-131 -827h-134l170 1077h134l-23 -141
q182 164 332 164z" />
    <glyph glyph-name="n" unicode="n" horiz-adv-x="995" 
d="M634 1100q156 0 210 -72t30 -221l-129 -807h-131l123 778q18 106 -10 155q-29 48 -119 48q-150 0 -323 -152l-131 -829h-134l170 1077h134l-23 -137q177 160 333 160z" />
    <glyph glyph-name="o" unicode="o" horiz-adv-x="980" 
d="M174 412q0 -144 55 -232t171 -88t207 114q132 165 132 458q0 143 -55 231t-171 88t-206 -114t-121 -304q-12 -78 -12 -153zM389 -23q-160 0 -255 118t-95 321q0 320 147 502t338 182q162 0 256 -116t94 -318q0 -326 -148 -508t-337 -181z" />
    <glyph glyph-name="p" unicode="p" horiz-adv-x="1007" 
d="M592 1100q150 0 229 -100q80 -100 80 -298q0 -80 -16 -184q-45 -280 -160 -408t-287 -128t-266 131l-84 -523h-133l235 1487h134l-19 -114q137 137 287 137zM438 98q250 0 314 422q14 86 14 166q0 145 -54 220t-140 75t-148 -33q-61 -33 -135 -104l-99 -611
q96 -135 248 -135z" />
    <glyph glyph-name="q" unicode="q" horiz-adv-x="1007" 
d="M379 96q131 0 274 137l97 613q-92 137 -248 137q-246 0 -314 -422q-14 -88 -14 -166q0 -145 54 -222t151 -77zM350 -18q-152 0 -231 101q-80 101 -80 300q0 80 16 184q45 277 160 405t272 128q193 0 283 -131l18 108h134l-238 -1487h-133l84 529q-133 -137 -285 -137z
" />
    <glyph glyph-name="r" unicode="r" horiz-adv-x="673" 
d="M664 1100h22l-31 -125h-34q-209 0 -349 -227l-118 -748h-134l170 1077h134l-29 -178h4q147 201 365 201z" />
    <glyph glyph-name="s" unicode="s" horiz-adv-x="856" 
d="M348 -20q-285 0 -383 223l107 67q82 -178 274 -178q102 0 166 50q63 50 63 145q0 61 -48 109q-47 48 -115 81t-136 70t-116 98t-47 146q0 137 93 223t230 86q256 0 340 -199l-106 -67q-37 78 -88 116q-50 38 -140 37q-90 0 -144 -51q-54 -52 -54 -122t47 -118t115 -79
t136 -67t116 -98q46 -62 47 -147q0 -153 -105 -239t-252 -86z" />
    <glyph glyph-name="t" unicode="t" horiz-adv-x="647" 
d="M340 -14q-137 0 -187 66t-28 206l111 707h-162l18 112h162l59 389h133l-59 -389h238l-19 -112h-239l-109 -705q-14 -88 10 -126t94 -38q68 0 111 15l-18 -111q-49 -14 -115 -14z" />
    <glyph glyph-name="u" unicode="u" horiz-adv-x="995" 
d="M294 -23q-154 0 -209 72q-54 72 -32 223l129 805h133l-122 -778q-18 -106 9 -156q28 -49 117 -49q145 0 324 154l131 829h133l-170 -1077h-133l23 139q-179 -162 -333 -162z" />
    <glyph glyph-name="v" unicode="v" horiz-adv-x="870" 
d="M248 -6l-150 1083h133l76 -641q3 -49 15 -138t18 -153h4q47 111 127 291l277 641h126l-489 -1083h-137z" />
    <glyph glyph-name="w" unicode="w" horiz-adv-x="1271" 
d="M295 199h4q49 141 115 305l219 573h119l41 -569q18 -205 20 -309h4q23 61 62 160t59 151l219 567h121l-440 -1083h-115l-66 862h-4l-340 -862h-114l-101 1083h131l43 -579q23 -291 23 -299z" />
    <glyph glyph-name="x" unicode="x" horiz-adv-x="858" 
d="M559 0l-182 455l-318 -455h-135l408 569l-203 508h129l166 -415l281 415h135l-373 -520l221 -557h-129z" />
    <glyph glyph-name="y" unicode="y" horiz-adv-x="899" 
d="M8 -412q-110 0 -170 23l45 110q39 -16 115 -16t115 38t90 142l49 105l-154 1087h133l72 -594q35 -281 41 -325h4q41 100 148 338l254 581h129l-551 -1200q-72 -161 -140 -225q-70 -64 -180 -64z" />
    <glyph glyph-name="z" unicode="z" horiz-adv-x="849" 
d="M-47 0l14 90l658 875h-475l18 112h637l-14 -88l-658 -876h541l-19 -113h-702z" />
    <glyph glyph-name="braceleft" unicode="{" horiz-adv-x="663" 
d="M322 -410q-250 0 -209 277l63 393q23 142 -13 192t-140 50l16 102q104 0 156 50q51 50 75 194l60 391q23 141 85 209t187 68h121l-16 -109h-76q-137 0 -162 -152l-66 -411q-23 -141 -67 -200q-45 -58 -129 -89v-4q75 -31 101 -90t5 -199l-65 -414q-27 -150 112 -149h76
l-18 -109h-96z" />
    <glyph glyph-name="bar" unicode="|" horiz-adv-x="614" 
d="M233 -410v1926h132v-1926h-132z" />
    <glyph glyph-name="braceright" unicode="}" horiz-adv-x="663" 
d="M-29 -301q72 0 110 36t52 113l66 416q20 140 66 198t132 89v4q-77 31 -103 89t-3 198l63 413q25 152 -112 152h-76l16 109h99q254 0 208 -275l-61 -393q-25 -144 11 -194t143 -50l-17 -102q-104 0 -156 -50t-75 -192l-64 -395q-20 -139 -82 -207t-186 -68h-125l19 109h75
z" />
    <glyph glyph-name="asciitilde" unicode="~" horiz-adv-x="1130" 
d="M797 537q-88 0 -259 63t-225 64q-80 0 -92 -97l-104 11q25 207 196 206q86 0 256 -63t222 -64q88 0 98 97l102 -11q-20 -206 -194 -206z" />
    <glyph glyph-name="exclamdown" unicode="&#xa1;" horiz-adv-x="559" 
d="M80 0l211 1108h88l-137 -1108h-162zM289 1329l28 187h164l-28 -187h-164z" />
    <glyph glyph-name="cent" unicode="&#xa2;" horiz-adv-x="903" 
d="M387 -20q-55 0 -111 16l-94 -250h-106l112 297q-147 113 -147 375q0 176 45 313q77 235 267 330q79 39 139 39t96 -6l80 206h106l-92 -241q121 -72 149 -271l-129 -34q-16 131 -69 186l-318 -834q39 -16 82 -16q147 0 250 236l115 -35q-135 -311 -375 -311zM176 410
q0 -156 62 -242l311 815q-29 4 -49 4q-96 0 -188 -103t-122 -306q-14 -94 -14 -168z" />
    <glyph glyph-name="sterling" unicode="&#xa3;" horiz-adv-x="1050" 
d="M145 72q119 0 191 108q-86 109 -150 109t-96 -33q-33 -33 -33 -85q1 -51 25 -75t63 -24zM635 -29q-125 0 -227 121q-98 -121 -258 -121q-90 0 -149 47q-58 47 -58 145q-1 97 67 163t172 66t201 -101q27 95 27 203t-33 247h-227l16 113h182q-51 184 -51 276q0 197 106 306
q107 108 275 108t238 -106t53 -275l-131 -12q31 272 -187 272q-94 1 -156 -77t-63 -226q0 -86 51 -266h273l-19 -113h-225q27 -106 27 -206q0 -195 -70 -347q86 -98 160 -98t123 68t77 217h119q-75 -404 -313 -404z" />
    <glyph glyph-name="currency" unicode="&#xa4;" horiz-adv-x="1302" 
d="M640 391q-116 0 -198 60l-215 -215l-82 83l211 211q-63 90 -63 204t59 200l-207 209l82 82l209 -209q86 63 204 63t204 -63l207 209l82 -82l-207 -207q61 -88 61 -200t-63 -206l211 -211l-82 -81l-213 213q-84 -60 -200 -60zM639 487q106 0 175 69q69 70 69 180t-69 178
t-175 69q-106 0 -174 -69q-68 -70 -68 -180t68 -178t174 -69z" />
    <glyph glyph-name="yen" unicode="&#xa5;" horiz-adv-x="1034" 
d="M551 549l-29 -195h352l-16 -112h-354l-39 -242h-133l39 242h-353l19 112h350l31 195h-352l18 113h336l-260 854h141l215 -754h4l457 754h137l-532 -854h340l-17 -113h-354z" />
    <glyph glyph-name="brokenbar" unicode="&#xa6;" horiz-adv-x="614" 
d="M233 -410v838h132v-838h-132zM233 678v838h132v-838h-132z" />
    <glyph glyph-name="section" unicode="&#xa7;" horiz-adv-x="923" 
d="M639 -86q1 -146 -93 -240t-254 -94t-229 84q-68 84 -73 242l125 26q6 -125 45 -180t142 -55t154 60q50 59 50 143t-42 145t-158 157t-176 176q-60 81 -60 183q0 246 284 385q-114 120 -114 264t96 238t260 94t232 -83t75 -240l-127 -29q-6 123 -48 179t-146 56t-156 -60
q-53 -59 -53 -141t43 -143q42 -61 160 -159t180 -178q62 -81 61 -181q0 -254 -289 -385q111 -118 111 -264zM688 534q0 81 -41 132t-124 127q-84 75 -91 79q-129 -70 -182 -136t-53 -146q0 -82 46 -140t179 -171q22 -22 31 -27q129 68 182 134t53 148z" />
    <glyph glyph-name="dieresis" unicode="&#xa8;" horiz-adv-x="892" 
d="M600 1192l27 164h143l-27 -164h-143zM289 1192l26 164h146l-27 -164h-145z" />
    <glyph glyph-name="copyright" unicode="&#xa9;" horiz-adv-x="1452" 
d="M729 317q-139 0 -220 118t-81 330t81 331t222 118q207 0 268 -282l-98 -19q-23 102 -61 152q-39 49 -121 49t-133 -93t-51 -256t51 -255t145 -92q70 0 112 51t66 162l99 -19q-62 -295 -279 -295zM1286 758q0 294 -161 500t-397 206t-398 -206q-160 -206 -160 -500
t160 -501q160 -206 398 -206t398 206t160 501zM1372 758q0 -330 -186 -558t-458 -229q-272 1 -458 229t-186 558t185 558t459 228t458 -228q186 -228 186 -558z" />
    <glyph glyph-name="ordfeminine" unicode="&#xaa;" horiz-adv-x="743" 
d="M287 743q-84 1 -129 49t-43 126q2 139 118 222q117 83 363 128l6 47q23 133 -92 133q-137 0 -246 -92l-57 65q139 123 309 123q227 0 193 -229l-58 -365q-23 -137 -8 -192h-111q-6 53 -2 92q-126 -107 -243 -107zM313 836q115 0 232 108l37 242q-201 -48 -279 -104
t-78 -148q-3 -46 21 -72t67 -26z" />
    <glyph glyph-name="guillemotleft" unicode="&#xab;" horiz-adv-x="892" 
d="M553 0l-164 541l334 536h135l-330 -536l160 -541h-135zM205 0l-162 541l332 536h135l-328 -536l158 -541h-135z" />
    <glyph glyph-name="logicalnot" unicode="&#xac;" horiz-adv-x="1081" 
d="M983 727v-559h-119v444h-768v115h887z" />
    <glyph glyph-name="registered" unicode="&#xae;" horiz-adv-x="909" 
d="M352 823v510h148q156 0 155 -147q0 -109 -88 -139l97 -224h-72l-98 213h-72v-213h-70zM422 1100h74q90 0 90 84t-90 84h-74v-168zM500 647q141 0 236 123t95 298t-95 298t-236 123q-140 0 -236 -122t-96 -297t96 -299t236 -124zM889 1071q1 -199 -111 -338t-277 -139
t-278 138t-112 337q0 199 111 337q112 138 278 138t278 -137t111 -336z" />
    <glyph glyph-name="macron" unicode="&#xaf;" horiz-adv-x="892" 
d="M293 1192l16 117h451l-19 -117h-448z" />
    <glyph glyph-name="degree" unicode="&#xb0;" horiz-adv-x="702" 
d="M283 1242q-1 -174 133 -173q66 -1 116 63t50 151q1 171 -129 171q-70 0 -120 -62t-50 -150zM684 1283q0 -124 -82 -214t-192 -90q-108 0 -169 69q-61 68 -61 192t83 214t191 90t170 -68q60 -69 60 -193z" />
    <glyph glyph-name="plusminus" unicode="&#xb1;" horiz-adv-x="1085" 
d="M96 131v113h385v420h-385v114h385v430h121v-430h385v-114h-385v-420h385v-113h-891z" />
    <glyph glyph-name="two.sups" unicode="&#xb2;" horiz-adv-x="677" 
d="M573 1323q0 115 -108 115q-102 0 -180 -144l-95 49q109 197 285 197q101 0 157 -53t56 -149t-43 -166q-43 -72 -106 -114t-130 -81q-164 -96 -194 -229h381l-16 -107h-504l6 39q18 117 77 201q58 84 126 128q69 44 135 84q154 92 153 230z" />
    <glyph glyph-name="three.sups" unicode="&#xb3;" horiz-adv-x="698" 
d="M348 631q-211 0 -260 219l100 33q23 -84 62 -118q38 -34 112 -34t120 57t46 142q0 137 -182 137h-43l14 88h64q197 0 197 178q0 104 -117 105q-92 0 -180 -95l-74 68q113 129 276 129q105 0 157 -53t52 -137t-41 -148t-119 -88q111 -49 111 -182t-83 -217t-212 -84z" />
    <glyph glyph-name="acute" unicode="&#xb4;" horiz-adv-x="892" 
d="M406 1194l215 315h170l-295 -315h-90z" />
    <glyph glyph-name="uni00B5" unicode="&#xb5;" horiz-adv-x="1003" 
d="M326 92q150 0 327 156l131 829h131l-172 -1077h-129l23 143q-168 -156 -324 -161q-135 0 -155 67l-72 -459h-131l235 1487h132l-123 -778q-19 -109 9 -158t118 -49z" />
    <glyph glyph-name="paragraph" unicode="&#xb6;" horiz-adv-x="1087" 
d="M152 1036q0 219 124 349q125 130 334 131h439l-306 -1926h-122l286 1807h-172l-286 -1807h-119l174 1104q-168 4 -260 94t-92 248z" />
    <glyph glyph-name="periodcentered" unicode="&#xb7;" horiz-adv-x="544" 
d="M154 543l30 190h174l-28 -190h-176z" />
    <glyph glyph-name="cedilla" unicode="&#xb8;" horiz-adv-x="892" 
d="M262 -412q-118 0 -209 74l58 72q76 -59 168 -60q147 0 147 107q0 61 -66 61q-47 0 -98 -41l-53 27l78 182h84l-54 -123q47 31 97 31t84 -34q33 -34 32 -93q0 -103 -74 -153q-76 -50 -194 -50z" />
    <glyph glyph-name="one.sups" unicode="&#xb9;" horiz-adv-x="575" 
d="M102 633l17 104h139l100 647q-59 -27 -137 -26l15 102q102 2 159 56h101l-123 -779h123l-19 -104h-375z" />
    <glyph glyph-name="ordmasculine" unicode="&#xba;" horiz-adv-x="743" 
d="M240 1034q0 -76 38 -138q38 -60 120 -60q83 0 145 77q92 118 92 324q0 93 -41 153t-123 60t-142 -80q-89 -118 -89 -336zM400 743q-128 0 -198 84t-71 232q-1 231 105 358t235 127t200 -84t70 -231q0 -233 -106 -360q-107 -126 -235 -126z" />
    <glyph glyph-name="guillemotright" unicode="&#xbb;" horiz-adv-x="892" 
d="M317 0l330 541l-160 536h136l161 -536l-331 -541h-136zM-31 0l332 541l-160 536h133l164 -536l-334 -541h-135z" />
    <glyph glyph-name="onequarter" unicode="&#xbc;" horiz-adv-x="1433" 
d="M885 311h225l64 406zM1057 0l35 213h-342l12 76l428 594h117l-90 -570h118l-14 -100h-121l-33 -213h-110zM59 621l17 104h139l100 647q-59 -27 -137 -26l15 102q102 2 159 55h101l-123 -778h123l-19 -104h-375zM172 0l1006 1516h122l-1003 -1516h-125z" />
    <glyph glyph-name="onehalf" unicode="&#xbd;" horiz-adv-x="1492" 
d="M1327 690q0 115 -104 115t-185 -143l-92 49q109 197 285 196q100 0 155 -54q56 -54 56 -147t-43 -163t-107 -114t-129 -84q-165 -100 -192 -230h381l-17 -107h-504l7 39q18 117 75 201t126 128t135 84q153 93 153 230zM59 621l17 104h139l100 647q-59 -27 -137 -26
l15 102q102 2 159 55h101l-123 -778h123l-19 -104h-375zM172 0l1006 1516h122l-1003 -1516h-125z" />
    <glyph glyph-name="threequarters" unicode="&#xbe;" horiz-adv-x="1511" 
d="M965 311h223l65 406zM305 618q-209 0 -260 220l100 34q23 -86 61 -118t112 -33q74 0 121 56q46 56 46 141q0 137 -182 137h-43l14 88h64q197 0 197 178q0 47 -29 77t-88 29q-90 0 -180 -96l-74 68q113 129 276 129q106 0 158 -53t51 -137q0 -84 -41 -148
q-41 -63 -119 -88q111 -49 111 -182q0 -134 -84 -218t-211 -84zM1137 0l32 213h-340l13 76l428 594h116l-90 -570h119l-16 -100h-119l-35 -213h-108zM252 0l1005 1516h123l-1005 -1516h-123z" />
    <glyph glyph-name="questiondown" unicode="&#xbf;" horiz-adv-x="919" 
d="M362 -29q-174 0 -260 87q-86 88 -86 214q0 221 163 360q69 58 139 118t125 150q54 91 65 210h117q-7 -133 -57 -233t-118 -162q-69 -61 -137 -117q-159 -130 -159 -303q0 -90 55 -145t166 -56q166 0 297 195l102 -56q-164 -262 -412 -262zM516 1329l31 187h168l-31 -187
h-168z" />
    <glyph glyph-name="Agrave" unicode="&#xc0;" horiz-adv-x="1134" 
d="M-57 0l684 1522h127l200 -1522h-135l-59 469h-477l-207 -469h-133zM449 846l-113 -254h409l-30 250q-49 385 -60 477h-4q-69 -174 -202 -473zM725 1610l-195 315h162l121 -315h-88z" />
    <glyph glyph-name="Aacute" unicode="&#xc1;" horiz-adv-x="1134" 
d="M-57 0l684 1522h127l200 -1522h-135l-59 469h-477l-207 -469h-133zM449 846l-113 -254h409l-30 250q-49 385 -60 477h-4q-69 -174 -202 -473zM592 1610l215 315h170l-295 -315h-90z" />
    <glyph glyph-name="Acircumflex" unicode="&#xc2;" horiz-adv-x="1134" 
d="M-57 0l684 1522h127l200 -1522h-135l-59 469h-477l-207 -469h-133zM449 846l-113 -254h409l-30 250q-49 385 -60 477h-4q-69 -174 -202 -473zM428 1602l277 323h96l172 -323h-86l-152 196l-223 -196h-84z" />
    <glyph glyph-name="Atilde" unicode="&#xc3;" horiz-adv-x="1134" 
d="M-57 0l684 1522h127l200 -1522h-135l-59 469h-477l-207 -469h-133zM449 846l-113 -254h409l-30 250q-49 385 -60 477h-4q-69 -174 -202 -473zM852 1602q-68 0 -151 57t-111 57q-72 0 -90 -110h-88q37 223 178 223q66 0 150 -57t112 -58q73 0 88 111h86
q-33 -223 -174 -223z" />
    <glyph glyph-name="Adieresis" unicode="&#xc4;" horiz-adv-x="1134" 
d="M-57 0l684 1522h127l200 -1522h-135l-59 469h-477l-207 -469h-133zM449 846l-113 -254h409l-30 250q-49 385 -60 477h-4q-69 -174 -202 -473zM786 1608l27 164h143l-26 -164h-144zM475 1608l27 164h145l-26 -164h-146z" />
    <glyph glyph-name="Aring" unicode="&#xc5;" horiz-adv-x="1134" 
d="M532 1610q0 100 56 159t131 59q74 0 115 -45q41 -46 40 -118q0 -145 -114 -197l194 -1468h-135l-59 469h-477l-207 -469h-133l661 1470q-72 40 -72 140zM449 846l-113 -254h409l-30 250q-49 385 -60 477h-4q-69 -174 -202 -473zM690 1522q41 0 72 41t31 98q0 94 -78 94
q-43 0 -73 -38t-30 -97q0 -98 78 -98z" />
    <glyph glyph-name="AE" unicode="&#xc6;" horiz-adv-x="1665" 
d="M-78 0l940 1516h805l-20 -130h-590l-82 -520h428l-19 -127h-430l-98 -612h629l-21 -127h-766l78 489h-409l-301 -489h-144zM436 608h357l125 776z" />
    <glyph glyph-name="Ccedilla" unicode="&#xc7;" horiz-adv-x="1171" 
d="M537 98q234 0 378 383l123 -20q-174 -489 -499 -490q-31 0 -45 2l-37 -86q47 31 97 31t83 -34t33 -93q0 -103 -75 -153t-193 -50t-209 74l57 72q76 -59 168 -60q147 0 147 107q0 61 -65 61q-47 0 -99 -41l-53 27l68 158q-162 39 -248 187t-86 384q0 453 187 720t436 267
q205 0 304 -126t109 -343l-131 -24q-10 182 -78 274t-207 92q-196 -1 -338 -241t-143 -617q0 -219 82 -340t234 -121z" />
    <glyph glyph-name="Egrave" unicode="&#xc8;" horiz-adv-x="1011" 
d="M45 0l240 1516h731l-21 -130h-592l-81 -520h430l-21 -127h-430l-96 -612h629l-21 -127h-768zM662 1610l-195 315h162l121 -315h-88z" />
    <glyph glyph-name="Eacute" unicode="&#xc9;" horiz-adv-x="1011" 
d="M45 0l240 1516h731l-21 -130h-592l-81 -520h430l-21 -127h-430l-96 -612h629l-21 -127h-768zM528 1610l215 315h170l-295 -315h-90z" />
    <glyph glyph-name="Ecircumflex" unicode="&#xca;" horiz-adv-x="1011" 
d="M45 0l240 1516h731l-21 -130h-592l-81 -520h430l-21 -127h-430l-96 -612h629l-21 -127h-768zM367 1602l276 323h96l172 -323h-86l-151 196l-223 -196h-84z" />
    <glyph glyph-name="Edieresis" unicode="&#xcb;" horiz-adv-x="1011" 
d="M45 0l240 1516h731l-21 -130h-592l-81 -520h430l-21 -127h-430l-96 -612h629l-21 -127h-768zM725 1608l27 164h143l-27 -164h-143zM414 1608l26 164h146l-27 -164h-145z" />
    <glyph glyph-name="Igrave" unicode="&#xcc;" horiz-adv-x="491" 
d="M57 0l240 1516h139l-239 -1516h-140zM338 1610l-195 315h162l121 -315h-88z" />
    <glyph glyph-name="Iacute" unicode="&#xcd;" horiz-adv-x="491" 
d="M57 0l240 1516h139l-239 -1516h-140zM315 1610l215 315h170l-294 -315h-91z" />
    <glyph glyph-name="Icircumflex" unicode="&#xce;" horiz-adv-x="491" 
d="M57 0l240 1516h139l-239 -1516h-140zM106 1602l277 323h96l172 -323h-86l-151 196l-224 -196h-84z" />
    <glyph glyph-name="Idieresis" unicode="&#xcf;" horiz-adv-x="491" 
d="M57 0l240 1516h139l-239 -1516h-140zM465 1608l27 164h143l-27 -164h-143zM154 1608l26 164h146l-27 -164h-145z" />
    <glyph glyph-name="Eth" unicode="&#xd0;" horiz-adv-x="1193" 
d="M420 123q219 0 352 140t182 458q18 115 19 207q0 465 -426 465h-141l-84 -531h253l-18 -119h-256l-98 -620h217zM403 0h-358l117 743h-131l18 119h133l103 654h235q596 0 596 -570q0 -115 -20 -235q-62 -375 -236 -543t-457 -168z" />
    <glyph glyph-name="Ntilde" unicode="&#xd1;" horiz-adv-x="1251" 
d="M45 0l240 1516h172l334 -984q72 -219 88 -268h4l198 1252h127l-239 -1516h-129l-353 1032q-10 31 -45 128t-55 169h-4l-211 -1329h-127zM911 1602q-69 0 -151 57t-111 57q-72 0 -90 -110h-88q37 223 178 223q68 0 150 -57t112 -58q75 0 88 111h86q-33 -223 -174 -223z
" />
    <glyph glyph-name="Ograve" unicode="&#xd2;" horiz-adv-x="1251" 
d="M543 98q193 0 341 232t148 614q0 221 -84 347t-235 126q-195 0 -342 -231t-148 -617q0 -221 84 -346t236 -125zM537 -29q-209 0 -331 161q-122 160 -122 414t55 444q101 347 351 491q112 63 231 63q209 0 330 -162t120 -442q0 -230 -56 -418q-103 -347 -351 -487
q-110 -64 -227 -64zM784 1610l-194 315h162l120 -315h-88z" />
    <glyph glyph-name="Oacute" unicode="&#xd3;" horiz-adv-x="1251" 
d="M543 98q193 0 341 232t148 614q0 221 -84 347t-235 126q-195 0 -342 -231t-148 -617q0 -221 84 -346t236 -125zM537 -29q-209 0 -331 161q-122 160 -122 414t55 444q101 347 351 491q112 63 231 63q209 0 330 -162t120 -442q0 -230 -56 -418q-103 -347 -351 -487
q-110 -64 -227 -64zM651 1610l215 315h170l-295 -315h-90z" />
    <glyph glyph-name="Ocircumflex" unicode="&#xd4;" horiz-adv-x="1251" 
d="M543 98q193 0 341 232t148 614q0 221 -84 347t-235 126q-195 0 -342 -231t-148 -617q0 -221 84 -346t236 -125zM537 -29q-209 0 -331 161q-122 160 -122 414t55 444q101 347 351 491q112 63 231 63q209 0 330 -162t120 -442q0 -230 -56 -418q-103 -347 -351 -487
q-110 -64 -227 -64zM487 1602l277 323h96l172 -323h-86l-151 196l-224 -196h-84z" />
    <glyph glyph-name="Otilde" unicode="&#xd5;" horiz-adv-x="1251" 
d="M543 98q193 0 341 232t148 614q0 221 -84 347t-235 126q-195 0 -342 -231t-148 -617q0 -221 84 -346t236 -125zM537 -29q-209 0 -331 161q-122 160 -122 414t55 444q101 347 351 491q112 63 231 63q209 0 330 -162t120 -442q0 -230 -56 -418q-103 -347 -351 -487
q-110 -64 -227 -64zM911 1602q-69 0 -151 57t-111 57q-72 0 -90 -110h-88q37 223 178 223q68 0 150 -57t112 -58q75 0 88 111h86q-33 -223 -174 -223z" />
    <glyph glyph-name="Odieresis" unicode="&#xd6;" horiz-adv-x="1251" 
d="M543 98q193 0 341 232t148 614q0 221 -84 347t-235 126q-195 0 -342 -231t-148 -617q0 -221 84 -346t236 -125zM537 -29q-209 0 -331 161q-122 160 -122 414t55 444q101 347 351 491q112 63 231 63q209 0 330 -162t120 -442q0 -230 -56 -418q-103 -347 -351 -487
q-110 -64 -227 -64zM846 1608l26 164h144l-27 -164h-143zM535 1608l26 164h146l-27 -164h-145z" />
    <glyph glyph-name="multiply" unicode="&#xd7;" horiz-adv-x="1081" 
d="M215 264l-80 78l330 328l-330 327l80 80l330 -327l325 327l80 -80l-327 -327l327 -328l-80 -78l-325 328z" />
    <glyph glyph-name="Oslash" unicode="&#xd8;" horiz-adv-x="1251" 
d="M537 -29q-180 0 -295 119l-123 -176l-88 49l145 213q-92 156 -92 390t55 424q101 347 351 491q112 63 231 63q176 0 295 -119l121 181l86 -50l-146 -215q94 -154 94 -392q0 -239 -56 -427q-103 -347 -351 -487q-110 -64 -227 -64zM543 92q190 0 340 234t149 618
q0 162 -43 277l-674 -1016q85 -113 228 -113zM223 569q0 -160 43 -270l674 1012q-84 113 -225 112q-195 -1 -343 -235t-149 -619z" />
    <glyph glyph-name="Ugrave" unicode="&#xd9;" horiz-adv-x="1208" 
d="M486 -29q-226 1 -318 145t-53 388l159 1012h140l-158 -1002q-70 -418 246 -418q170 0 258 106t121 308l159 1006h134l-164 -1047q-37 -231 -167 -365q-131 -134 -357 -133zM760 1610l-195 315h162l121 -315h-88z" />
    <glyph glyph-name="Uacute" unicode="&#xda;" horiz-adv-x="1208" 
d="M486 -29q-226 1 -318 145t-53 388l159 1012h140l-158 -1002q-70 -418 246 -418q170 0 258 106t121 308l159 1006h134l-164 -1047q-37 -231 -167 -365q-131 -134 -357 -133zM627 1610l215 315h170l-295 -315h-90z" />
    <glyph glyph-name="Ucircumflex" unicode="&#xdb;" horiz-adv-x="1208" 
d="M486 -29q-226 1 -318 145t-53 388l159 1012h140l-158 -1002q-70 -418 246 -418q170 0 258 106t121 308l159 1006h134l-164 -1047q-37 -231 -167 -365q-131 -134 -357 -133zM463 1602l276 323h97l172 -323h-86l-152 196l-223 -196h-84z" />
    <glyph glyph-name="Udieresis" unicode="&#xdc;" horiz-adv-x="1208" 
d="M486 -29q-226 1 -318 145t-53 388l159 1012h140l-158 -1002q-70 -418 246 -418q170 0 258 106t121 308l159 1006h134l-164 -1047q-37 -231 -167 -365q-131 -134 -357 -133zM821 1608l27 164h143l-26 -164h-144zM510 1608l27 164h145l-27 -164h-145z" />
    <glyph glyph-name="Yacute" unicode="&#xdd;" horiz-adv-x="1034" 
d="M328 0l102 633l-270 883h139l217 -748h4l455 748h139l-545 -879l-100 -637h-141zM541 1610l215 315h170l-295 -315h-90z" />
    <glyph glyph-name="Thorn" unicode="&#xde;" horiz-adv-x="1103" 
d="M535 504q356 0 356 364q0 242 -303 242h-228l-96 -606h271zM594 1233q211 0 324 -91q112 -90 112 -248q-1 -300 -165 -414q-141 -95 -335 -95h-284l-62 -385h-139l240 1516h139l-45 -283h215z" />
    <glyph glyph-name="germandbls" unicode="&#xdf;" horiz-adv-x="1038" 
d="M536 -23q-173 0 -274 101l82 92q80 -80 194 -80t181 115q66 115 65 301q0 137 -78 206q-79 69 -245 79l16 106q311 6 311 303q0 94 -52 146t-154 53q-209 0 -256 -303l-174 -1096h-136l172 1090q68 426 408 426q158 0 241 -79t83 -218q0 -303 -269 -373q125 -18 195 -106
t69 -234q0 -252 -103 -390t-276 -139z" />
    <glyph glyph-name="agrave" unicode="&#xe0;" horiz-adv-x="931" 
d="M246 -16q-106 0 -176 70q-72 70 -72 184q0 188 159 300t507 171l10 75q31 199 -133 199q-178 0 -336 -137l-74 86q186 168 420 168q164 0 221 -79t33 -237l-82 -518q-31 -184 -16 -266h-134q-10 78 0 131q-85 -79 -153 -113t-174 -34zM291 98q147 0 297 144l59 366
q-289 -55 -401 -138t-113 -216q0 -72 44 -114t114 -42zM557 1194l-195 315h162l121 -315h-88z" />
    <glyph glyph-name="aacute" unicode="&#xe1;" horiz-adv-x="931" 
d="M246 -16q-106 0 -176 70q-72 70 -72 184q0 188 159 300t507 171l10 75q31 199 -133 199q-178 0 -336 -137l-74 86q186 168 420 168q164 0 221 -79t33 -237l-82 -518q-31 -184 -16 -266h-134q-10 78 0 131q-85 -79 -153 -113t-174 -34zM291 98q147 0 297 144l59 366
q-289 -55 -401 -138t-113 -216q0 -72 44 -114t114 -42zM424 1194l215 315h170l-295 -315h-90z" />
    <glyph glyph-name="acircumflex" unicode="&#xe2;" horiz-adv-x="931" 
d="M246 -16q-106 0 -176 70q-72 70 -72 184q0 188 159 300t507 171l10 75q31 199 -133 199q-178 0 -336 -137l-74 86q186 168 420 168q164 0 221 -79t33 -237l-82 -518q-31 -184 -16 -266h-134q-10 78 0 131q-85 -79 -153 -113t-174 -34zM291 98q147 0 297 144l59 366
q-289 -55 -401 -138t-113 -216q0 -72 44 -114t114 -42zM260 1186l277 323h96l172 -323h-86l-152 196l-223 -196h-84z" />
    <glyph glyph-name="atilde" unicode="&#xe3;" horiz-adv-x="931" 
d="M246 -16q-106 0 -176 70q-72 70 -72 184q0 188 159 300t507 171l10 75q31 199 -133 199q-178 0 -336 -137l-74 86q186 168 420 168q164 0 221 -79t33 -237l-82 -518q-31 -184 -16 -266h-134q-10 78 0 131q-85 -79 -153 -113t-174 -34zM291 98q147 0 297 144l59 366
q-289 -55 -401 -138t-113 -216q0 -72 44 -114t114 -42zM684 1186q-68 0 -150 57t-112 57q-72 0 -90 -110h-88q37 223 178 223q66 0 150 -57t112 -58q73 0 88 111h86q-33 -223 -174 -223z" />
    <glyph glyph-name="adieresis" unicode="&#xe4;" horiz-adv-x="931" 
d="M246 -16q-106 0 -176 70q-72 70 -72 184q0 188 159 300t507 171l10 75q31 199 -133 199q-178 0 -336 -137l-74 86q186 168 420 168q164 0 221 -79t33 -237l-82 -518q-31 -184 -16 -266h-134q-10 78 0 131q-85 -79 -153 -113t-174 -34zM291 98q147 0 297 144l59 366
q-289 -55 -401 -138t-113 -216q0 -72 44 -114t114 -42zM618 1192l27 164h143l-26 -164h-144zM307 1192l27 164h145l-26 -164h-146z" />
    <glyph glyph-name="aring" unicode="&#xe5;" horiz-adv-x="931" 
d="M246 -16q-106 0 -176 70q-72 70 -72 184q0 188 159 300t507 171l10 75q31 199 -133 199q-178 0 -336 -137l-74 86q186 168 420 168q164 0 221 -79t33 -237l-82 -518q-31 -184 -16 -266h-134q-10 78 0 131q-85 -79 -153 -113t-174 -34zM291 98q147 0 297 144l59 366
q-289 -55 -401 -138t-113 -216q0 -72 44 -114t114 -42zM549 1247q41 0 72 41t30 98q0 94 -78 95q-43 0 -73 -38t-29 -97q0 -99 78 -99zM391 1352q0 84 56 142q57 60 131 60t114 -46t41 -130q0 -84 -56 -142q-56 -60 -132 -60t-115 46t-39 130z" />
    <glyph glyph-name="ae" unicode="&#xe6;" horiz-adv-x="1511" 
d="M254 -16q-112 0 -184 70t-72 184q0 188 159 300t507 171l10 75q31 199 -133 199q-178 0 -336 -137l-74 86q187 168 409 168t257 -146q125 145 288 146q324 0 324 -385q0 -53 -14 -164l-4 -31h-629q-6 -55 -6 -112q0 -150 58 -233t167 -83q150 0 262 211l94 -57
q-137 -268 -365 -268t-308 208q-117 -114 -207 -158t-203 -44zM291 98q166 0 346 187q-8 74 -8 149t16 170q-281 -43 -397 -131t-115 -219q0 -72 44 -114t114 -42zM1091 985q-115 0 -197 -93t-116 -263h498q16 154 -27 255t-158 101z" />
    <glyph glyph-name="ccedilla" unicode="&#xe7;" horiz-adv-x="901" 
d="M535 -209q0 -103 -75 -153q-76 -50 -194 -50t-209 74l58 72q76 -59 168 -60q147 0 147 107q0 61 -65 61q-47 0 -99 -41l-53 27l70 164q-115 36 -180 146t-65 283t46 310q77 235 267 330q79 39 157 39q274 0 323 -312l-131 -34q-16 115 -59 172t-142 57t-189 -101
t-122 -304q-12 -80 -12 -168q0 -146 56 -232t163 -86q150 0 250 234l115 -35q-131 -313 -375 -314h-25l-38 -90q47 31 97 31t83 -34t33 -93z" />
    <glyph glyph-name="egrave" unicode="&#xe8;" horiz-adv-x="929" 
d="M39 390q0 186 43 326q76 246 262 343q80 41 160 41q324 0 323 -385q0 -49 -14 -164l-4 -31h-629q-6 -55 -6 -112q0 -150 58 -233t167 -83q147 0 263 211l94 -57q-137 -268 -371 -269q-160 0 -253 113t-93 300zM510 985q-114 0 -198 -94t-117 -262h499q16 154 -26 255
q-44 101 -158 101zM557 1194l-195 315h162l121 -315h-88z" />
    <glyph glyph-name="eacute" unicode="&#xe9;" horiz-adv-x="929" 
d="M39 390q0 186 43 326q76 246 262 343q80 41 160 41q324 0 323 -385q0 -49 -14 -164l-4 -31h-629q-6 -55 -6 -112q0 -150 58 -233t167 -83q147 0 263 211l94 -57q-137 -268 -371 -269q-160 0 -253 113t-93 300zM510 985q-114 0 -198 -94t-117 -262h499q16 154 -26 255
q-44 101 -158 101zM424 1194l215 315h170l-295 -315h-90z" />
    <glyph glyph-name="ecircumflex" unicode="&#xea;" horiz-adv-x="929" 
d="M39 390q0 186 43 326q76 246 262 343q80 41 160 41q324 0 323 -385q0 -49 -14 -164l-4 -31h-629q-6 -55 -6 -112q0 -150 58 -233t167 -83q147 0 263 211l94 -57q-137 -268 -371 -269q-160 0 -253 113t-93 300zM510 985q-114 0 -198 -94t-117 -262h499q16 154 -26 255
q-44 101 -158 101zM260 1186l277 323h96l172 -323h-86l-152 196l-223 -196h-84z" />
    <glyph glyph-name="edieresis" unicode="&#xeb;" horiz-adv-x="929" 
d="M39 390q0 186 43 326q76 246 262 343q80 41 160 41q324 0 323 -385q0 -49 -14 -164l-4 -31h-629q-6 -55 -6 -112q0 -150 58 -233t167 -83q147 0 263 211l94 -57q-137 -268 -371 -269q-160 0 -253 113t-93 300zM510 985q-114 0 -198 -94t-117 -262h499q16 154 -26 255
q-44 101 -158 101zM618 1192l27 164h143l-26 -164h-144zM307 1192l27 164h145l-26 -164h-146z" />
    <glyph glyph-name="igrave" unicode="&#xec;" horiz-adv-x="432" 
d="M31 0l170 1077h133l-170 -1077h-133zM244 1194l-195 315h162l121 -315h-88z" />
    <glyph glyph-name="iacute" unicode="&#xed;" horiz-adv-x="432" 
d="M31 0l170 1077h133l-170 -1077h-133zM221 1194l215 315h170l-295 -315h-90z" />
    <glyph glyph-name="icircumflex" unicode="&#xee;" horiz-adv-x="432" 
d="M31 0l170 1077h133l-170 -1077h-133zM12 1186l277 323h96l172 -323h-86l-152 196l-223 -196h-84z" />
    <glyph glyph-name="idieresis" unicode="&#xef;" horiz-adv-x="432" 
d="M31 0l170 1077h133l-170 -1077h-133zM371 1192l26 164h144l-27 -164h-143zM59 1192l27 164h145l-26 -164h-146z" />
    <glyph glyph-name="eth" unicode="&#xf0;" horiz-adv-x="980" 
d="M404 90q114 0 204 112q128 161 129 437q0 147 -57 237t-173 89q-116 0 -203 -109q-128 -160 -128 -446q0 -143 56 -232q57 -88 172 -88zM399 -23q-168 0 -264 118t-96 319q0 295 136 477t327 182q86 0 162 -43t100 -119q-16 190 -107 344l-168 -90l-32 84l151 80
q-55 72 -112 115l88 82q78 -63 135 -137l166 88l33 -84l-150 -80q117 -207 117 -510q1 -412 -141 -619t-345 -207z" />
    <glyph glyph-name="ntilde" unicode="&#xf1;" horiz-adv-x="995" 
d="M634 1100q156 0 210 -72t30 -221l-129 -807h-131l123 778q18 106 -10 155q-29 48 -119 48q-150 0 -323 -152l-131 -829h-134l170 1077h134l-23 -137q177 160 333 160zM717 1186q-68 0 -151 57t-111 57q-72 0 -90 -110h-89q37 223 179 223q65 0 149 -57t113 -58
q73 0 88 111h86q-33 -223 -174 -223z" />
    <glyph glyph-name="ograve" unicode="&#xf2;" horiz-adv-x="980" 
d="M174 412q0 -144 55 -232t171 -88t207 114q132 165 132 458q0 143 -55 231t-171 88t-206 -114t-121 -304q-12 -78 -12 -153zM389 -23q-160 0 -255 118t-95 321q0 320 147 502t338 182q162 0 256 -116t94 -318q0 -326 -148 -508t-337 -181zM584 1194l-195 315h162l121 -315
h-88z" />
    <glyph glyph-name="oacute" unicode="&#xf3;" horiz-adv-x="980" 
d="M174 412q0 -144 55 -232t171 -88t207 114q132 165 132 458q0 143 -55 231t-171 88t-206 -114t-121 -304q-12 -78 -12 -153zM389 -23q-160 0 -255 118t-95 321q0 320 147 502t338 182q162 0 256 -116t94 -318q0 -326 -148 -508t-337 -181zM451 1194l215 315h170l-295 -315
h-90z" />
    <glyph glyph-name="ocircumflex" unicode="&#xf4;" horiz-adv-x="980" 
d="M174 412q0 -144 55 -232t171 -88t207 114q132 165 132 458q0 143 -55 231t-171 88t-206 -114t-121 -304q-12 -78 -12 -153zM389 -23q-160 0 -255 118t-95 321q0 320 147 502t338 182q162 0 256 -116t94 -318q0 -326 -148 -508t-337 -181zM287 1186l276 323h96l172 -323
h-86l-151 196l-223 -196h-84z" />
    <glyph glyph-name="otilde" unicode="&#xf5;" horiz-adv-x="980" 
d="M174 412q0 -144 55 -232t171 -88t207 114q132 165 132 458q0 143 -55 231t-171 88t-206 -114t-121 -304q-12 -78 -12 -153zM389 -23q-160 0 -255 118t-95 321q0 320 147 502t338 182q162 0 256 -116t94 -318q0 -326 -148 -508t-337 -181zM711 1186q-68 0 -151 57t-111 57
q-72 0 -91 -110h-88q37 223 179 223q67 0 149 -57t113 -58q73 0 88 111h86q-33 -223 -174 -223z" />
    <glyph glyph-name="odieresis" unicode="&#xf6;" horiz-adv-x="980" 
d="M174 412q0 -144 55 -232t171 -88t207 114q132 165 132 458q0 143 -55 231t-171 88t-206 -114t-121 -304q-12 -78 -12 -153zM389 -23q-160 0 -255 118t-95 321q0 320 147 502t338 182q162 0 256 -116t94 -318q0 -326 -148 -508t-337 -181zM645 1192l27 164h143l-27 -164
h-143zM334 1192l26 164h146l-27 -164h-145z" />
    <glyph glyph-name="divide" unicode="&#xf7;" horiz-adv-x="1081" 
d="M451 221v174h153v-174h-153zM86 612v117h887v-117h-887zM451 944v174h153v-174h-153z" />
    <glyph glyph-name="oslash" unicode="&#xf8;" horiz-adv-x="999" 
d="M389 -23q-147 0 -239 99l-125 -160l-74 51l145 185q-57 109 -57 264q0 320 147 502t338 182q147 0 240 -96l123 157l76 -49l-146 -186q57 -104 57 -260q0 -324 -148 -506t-337 -183zM399 90q117 0 209 115q133 166 133 459q0 80 -16 149l-500 -637q57 -86 174 -86z
M172 411q0 -77 16 -147l500 635q-57 86 -174 86t-208 -115q-134 -169 -134 -459z" />
    <glyph glyph-name="ugrave" unicode="&#xf9;" horiz-adv-x="995" 
d="M294 -23q-154 0 -209 72q-54 72 -32 223l129 805h133l-122 -778q-18 -106 9 -156q28 -49 117 -49q145 0 324 154l131 829h133l-170 -1077h-133l23 139q-179 -162 -333 -162zM590 1194l-195 315h162l121 -315h-88z" />
    <glyph glyph-name="uacute" unicode="&#xfa;" horiz-adv-x="995" 
d="M294 -23q-154 0 -209 72q-54 72 -32 223l129 805h133l-122 -778q-18 -106 9 -156q28 -49 117 -49q145 0 324 154l131 829h133l-170 -1077h-133l23 139q-179 -162 -333 -162zM457 1194l215 315h170l-295 -315h-90z" />
    <glyph glyph-name="ucircumflex" unicode="&#xfb;" horiz-adv-x="995" 
d="M294 -23q-154 0 -209 72q-54 72 -32 223l129 805h133l-122 -778q-18 -106 9 -156q28 -49 117 -49q145 0 324 154l131 829h133l-170 -1077h-133l23 139q-179 -162 -333 -162zM293 1186l276 323h97l172 -323h-86l-152 196l-223 -196h-84z" />
    <glyph glyph-name="udieresis" unicode="&#xfc;" horiz-adv-x="995" 
d="M294 -23q-154 0 -209 72q-54 72 -32 223l129 805h133l-122 -778q-18 -106 9 -156q28 -49 117 -49q145 0 324 154l131 829h133l-170 -1077h-133l23 139q-179 -162 -333 -162zM651 1192l27 164h143l-26 -164h-144zM340 1192l27 164h145l-27 -164h-145z" />
    <glyph glyph-name="yacute" unicode="&#xfd;" horiz-adv-x="899" 
d="M8 -412q-110 0 -170 23l45 110q39 -16 115 -16t115 38t90 142l49 105l-154 1087h133l72 -594q35 -281 41 -325h4q41 100 148 338l254 581h129l-551 -1200q-72 -161 -140 -225q-70 -64 -180 -64zM408 1194l215 315h170l-295 -315h-90z" />
    <glyph glyph-name="thorn" unicode="&#xfe;" horiz-adv-x="1007" 
d="M592 1100q148 0 229 -100q80 -100 80 -298q0 -80 -16 -184q-45 -280 -160 -408t-287 -128t-266 133l-84 -525h-133l305 1926h133l-88 -555q139 139 287 139zM438 96q250 0 314 424q14 86 14 166q0 145 -54 221t-140 76t-147 -34q-62 -34 -136 -105l-99 -611
q96 -137 248 -137z" />
    <glyph glyph-name="ydieresis" unicode="&#xff;" horiz-adv-x="899" 
d="M8 -412q-110 0 -170 23l45 110q39 -16 115 -16t115 38t90 142l49 105l-154 1087h133l72 -594q35 -281 41 -325h4q41 100 148 338l254 581h129l-551 -1200q-72 -161 -140 -225q-70 -64 -180 -64zM602 1192l27 164h143l-27 -164h-143zM291 1192l26 164h146l-27 -164h-145z
" />
    <glyph glyph-name="Amacron" unicode="&#x100;" horiz-adv-x="1134" 
d="M-57 0l684 1522h127l200 -1522h-135l-59 469h-477l-207 -469h-133zM449 846l-113 -254h409l-30 250q-49 385 -60 477h-4q-69 -174 -202 -473zM477 1608l17 116h450l-18 -116h-449z" />
    <glyph glyph-name="amacron" unicode="&#x101;" horiz-adv-x="931" 
d="M246 -16q-106 0 -176 70q-72 70 -72 184q0 188 159 300t507 171l10 75q31 199 -133 199q-178 0 -336 -137l-74 86q186 168 420 168q164 0 221 -79t33 -237l-82 -518q-31 -184 -16 -266h-134q-10 78 0 131q-85 -79 -153 -113t-174 -34zM291 98q147 0 297 144l59 366
q-289 -55 -401 -138t-113 -216q0 -72 44 -114t114 -42zM311 1192l17 117h450l-18 -117h-449z" />
    <glyph glyph-name="Abreve" unicode="&#x102;" horiz-adv-x="1134" 
d="M-57 0l684 1522h127l200 -1522h-135l-59 469h-477l-207 -469h-133zM449 846l-113 -254h409l-30 250q-49 385 -60 477h-4q-69 -174 -202 -473zM717 1602q-131 0 -188 87q-56 87 -40 244h93q-14 -223 135 -223t209 223h88q-66 -331 -297 -331z" />
    <glyph glyph-name="abreve" unicode="&#x103;" horiz-adv-x="931" 
d="M246 -16q-106 0 -176 70q-72 70 -72 184q0 188 159 300t507 171l10 75q31 199 -133 199q-178 0 -336 -137l-74 86q186 168 420 168q164 0 221 -79t33 -237l-82 -518q-31 -184 -16 -266h-134q-10 78 0 131q-85 -79 -153 -113t-174 -34zM291 98q147 0 297 144l59 366
q-289 -55 -401 -138t-113 -216q0 -72 44 -114t114 -42zM551 1186q-131 0 -187 87t-40 245h92q-14 -223 137 -224q147 0 207 224h88q-66 -332 -297 -332z" />
    <glyph glyph-name="Aogonek" unicode="&#x104;" horiz-adv-x="1134" 
d="M810 -385q-93 0 -136 37t-43 98q0 133 188 256l-59 463h-477l-207 -469h-133l684 1522h127l200 -1522h-63q-150 -113 -150 -231q0 -72 78 -72t170 47l29 -59q-115 -70 -208 -70zM449 846l-113 -254h409l-30 250q-49 385 -60 477h-4q-69 -174 -202 -473z" />
    <glyph glyph-name="aogonek" unicode="&#x105;" horiz-adv-x="931" 
d="M564 -385q-93 0 -136 37t-43 98q0 133 188 256q-10 74 0 125q-85 -78 -153 -113q-68 -34 -174 -34t-176 70q-72 70 -72 184q0 188 159 300t507 171l10 75q31 199 -133 199q-178 0 -336 -137l-74 86q186 168 420 168q164 0 221 -79t33 -237l-82 -518q-31 -184 -16 -266
h-62q-150 -113 -149 -231q0 -72 78 -72t169 47l29 -59q-115 -70 -208 -70zM291 98q147 0 297 144l59 366q-289 -55 -401 -138t-113 -216q0 -72 44 -114t114 -42z" />
    <glyph glyph-name="Cacute" unicode="&#x106;" horiz-adv-x="1171" 
d="M537 98q234 0 378 383l123 -20q-173 -490 -499 -490q-219 0 -338 154t-119 432q0 453 187 720t436 267q205 0 304 -126t109 -343l-131 -24q-10 182 -78 274t-207 92q-196 -1 -338 -241t-143 -617q0 -219 82 -340t234 -121zM608 1610l215 315h170l-295 -315h-90z" />
    <glyph glyph-name="cacute" unicode="&#x107;" horiz-adv-x="901" 
d="M385 -23q-160 0 -253 118q-93 119 -93 309t45 327q77 235 267 330q79 39 157 39q274 0 323 -312l-131 -34q-16 115 -59 172t-142 57t-189 -101t-122 -304q-12 -80 -12 -168q0 -146 56 -232t163 -86q150 0 250 234l115 -35q-131 -314 -375 -314zM410 1194l215 315h170
l-295 -315h-90z" />
    <glyph glyph-name="Ccircumflex" unicode="&#x108;" horiz-adv-x="1171" 
d="M537 98q234 0 378 383l123 -20q-173 -490 -499 -490q-219 0 -338 154t-119 432q0 453 187 720t436 267q205 0 304 -126t109 -343l-131 -24q-10 182 -78 274t-207 92q-196 -1 -338 -241t-143 -617q0 -219 82 -340t234 -121zM440 1602l277 323h96l172 -323h-86l-151 196
l-224 -196h-84z" />
    <glyph glyph-name="ccircumflex" unicode="&#x109;" horiz-adv-x="901" 
d="M385 -23q-160 0 -253 118q-93 119 -93 309t45 327q77 235 267 330q79 39 157 39q274 0 323 -312l-131 -34q-16 115 -59 172t-142 57t-189 -101t-122 -304q-12 -80 -12 -168q0 -146 56 -232t163 -86q150 0 250 234l115 -35q-131 -314 -375 -314zM246 1186l276 323h96
l173 -323h-86l-152 196l-223 -196h-84z" />
    <glyph glyph-name="Cdotaccent" unicode="&#x10a;" horiz-adv-x="1171" 
d="M537 98q234 0 378 383l123 -20q-173 -490 -499 -490q-219 0 -338 154t-119 432q0 453 187 720t436 267q205 0 304 -126t109 -343l-131 -24q-10 182 -78 274t-207 92q-196 -1 -338 -241t-143 -617q0 -219 82 -340t234 -121zM637 1610l27 162h161l-26 -162h-162z" />
    <glyph glyph-name="cdotaccent" unicode="&#x10b;" horiz-adv-x="901" 
d="M385 -23q-160 0 -253 118q-93 119 -93 309t45 327q77 235 267 330q79 39 157 39q274 0 323 -312l-131 -34q-16 115 -59 172t-142 57t-189 -101t-122 -304q-12 -80 -12 -168q0 -146 56 -232t163 -86q150 0 250 234l115 -35q-131 -314 -375 -314zM438 1194l27 162h162
l-27 -162h-162z" />
    <glyph glyph-name="Ccaron" unicode="&#x10c;" horiz-adv-x="1171" 
d="M537 98q234 0 378 383l123 -20q-173 -490 -499 -490q-219 0 -338 154t-119 432q0 453 187 720t436 267q205 0 304 -126t109 -343l-131 -24q-10 182 -78 274t-207 92q-196 -1 -338 -241t-143 -617q0 -219 82 -340t234 -121zM670 1608l-172 323h88l153 -198l219 198h84
l-276 -323h-96z" />
    <glyph glyph-name="ccaron" unicode="&#x10d;" horiz-adv-x="901" 
d="M385 -23q-160 0 -253 118q-93 119 -93 309t45 327q77 235 267 330q79 39 157 39q274 0 323 -312l-131 -34q-16 115 -59 172t-142 57t-189 -101t-122 -304q-12 -80 -12 -168q0 -146 56 -232t163 -86q150 0 250 234l115 -35q-131 -314 -375 -314zM471 1192l-172 324h88
l154 -199l219 199h84l-277 -324h-96z" />
    <glyph glyph-name="Dcaron" unicode="&#x10e;" horiz-adv-x="1193" 
d="M422 127q219 0 351 138t181 456q18 115 19 207q0 459 -426 458h-144l-198 -1259h217zM520 1516q596 0 596 -570q0 -115 -20 -235q-62 -375 -236 -543t-457 -168h-358l240 1516h235zM643 1608l-172 323h88l154 -198l219 198h84l-277 -323h-96z" />
    <glyph glyph-name="dcaron" unicode="&#x10f;" horiz-adv-x="1007" 
d="M354 -18q-150 0 -231 101q-80 101 -80 300q0 66 16 184q35 248 147 390q112 143 295 143t273 -131l86 547h133l-196 -1250q-29 -188 -19 -266h-133q-10 57 -4 119q-137 -137 -287 -137zM372 98q85 0 147 32t138 103l97 613q-92 137 -236 137t-220 -114
q-77 -114 -105 -308q-14 -94 -15 -166q0 -145 54 -221t140 -76zM1040 1149l78 199h-55l27 168h147l-25 -154l-112 -213h-60z" />
    <glyph glyph-name="Dcroat" unicode="&#x110;" horiz-adv-x="1193" 
d="M420 123q219 0 352 140t182 458q18 115 19 207q0 465 -426 465h-141l-84 -531h253l-18 -119h-256l-98 -620h217zM403 0h-358l117 743h-131l18 119h133l103 654h235q596 0 596 -570q0 -115 -20 -235q-62 -375 -236 -543t-457 -168z" />
    <glyph glyph-name="dcroat" unicode="&#x111;" horiz-adv-x="1007" 
d="M354 -18q-150 0 -231 101q-80 101 -80 300q0 66 16 184q35 248 147 390q112 143 295 143t273 -131l35 217h-199l17 104h198l35 226h133l-35 -226h150l-18 -104h-148l-145 -920q-29 -188 -19 -266h-133q-10 58 -4 119q-137 -137 -287 -137zM372 98q85 0 147 32t138 103
l97 613q-92 137 -236 137t-220 -114q-77 -114 -105 -308q-14 -94 -15 -166q0 -145 54 -221t140 -76z" />
    <glyph glyph-name="Emacron" unicode="&#x112;" horiz-adv-x="1011" 
d="M45 0l240 1516h731l-21 -130h-592l-81 -520h430l-21 -127h-430l-96 -612h629l-21 -127h-768zM416 1608l16 116h451l-19 -116h-448z" />
    <glyph glyph-name="emacron" unicode="&#x113;" horiz-adv-x="929" 
d="M39 390q0 186 43 326q76 246 262 343q80 41 160 41q324 0 323 -385q0 -49 -14 -164l-4 -31h-629q-6 -55 -6 -112q0 -150 58 -233t167 -83q147 0 263 211l94 -57q-137 -268 -371 -269q-160 0 -253 113t-93 300zM510 985q-114 0 -198 -94t-117 -262h499q16 154 -26 255
q-44 101 -158 101zM311 1192l17 117h450l-18 -117h-449z" />
    <glyph glyph-name="Ebreve" unicode="&#x114;" horiz-adv-x="1011" 
d="M45 0l240 1516h731l-21 -130h-592l-81 -520h430l-21 -127h-430l-96 -612h629l-21 -127h-768zM655 1602q-131 0 -187 87t-40 244h92q-14 -223 135 -223t209 223h88q-66 -331 -297 -331z" />
    <glyph glyph-name="ebreve" unicode="&#x115;" horiz-adv-x="929" 
d="M39 390q0 186 43 326q76 246 262 343q80 41 160 41q324 0 323 -385q0 -49 -14 -164l-4 -31h-629q-6 -55 -6 -112q0 -150 58 -233t167 -83q147 0 263 211l94 -57q-137 -268 -371 -269q-160 0 -253 113t-93 300zM510 985q-114 0 -198 -94t-117 -262h499q16 154 -26 255
q-44 101 -158 101zM532 1186q-131 0 -187 87t-40 245h92q-14 -223 138 -224q147 0 206 224h88q-66 -332 -297 -332z" />
    <glyph glyph-name="Edotaccent" unicode="&#x116;" horiz-adv-x="1011" 
d="M45 0l240 1516h731l-21 -130h-592l-81 -520h430l-21 -127h-430l-96 -612h629l-21 -127h-768zM557 1610l27 162h161l-26 -162h-162z" />
    <glyph glyph-name="edotaccent" unicode="&#x117;" horiz-adv-x="929" 
d="M39 390q0 186 43 326q76 246 262 343q80 41 160 41q324 0 323 -385q0 -49 -14 -164l-4 -31h-629q-6 -55 -6 -112q0 -150 58 -233t167 -83q147 0 263 211l94 -57q-137 -268 -371 -269q-160 0 -253 113t-93 300zM510 985q-114 0 -198 -94t-117 -262h499q16 154 -26 255
q-44 101 -158 101zM453 1194l26 162h162l-27 -162h-161z" />
    <glyph glyph-name="Eogonek" unicode="&#x118;" horiz-adv-x="1011" 
d="M652 -385q-93 0 -136 37t-43 98q0 129 178 250h-606l240 1516h731l-21 -130h-592l-81 -520h430l-21 -127h-430l-96 -612h629l-21 -127h-80q-150 -113 -149 -231q0 -72 78 -72t169 47l29 -59q-115 -70 -208 -70z" />
    <glyph glyph-name="eogonek" unicode="&#x119;" horiz-adv-x="929" 
d="M398 -385q-93 0 -136 37t-43 98q0 119 148 227q-154 8 -241 120t-87 296q0 183 43 323q76 246 262 343q80 41 160 41q324 0 323 -385q0 -49 -14 -164l-4 -31h-629q-6 -55 -6 -112q0 -150 58 -233t167 -83q147 0 263 211l94 -57q-111 -217 -295 -260q-131 -104 -131 -217
q0 -72 78 -72t170 47l28 -59q-115 -70 -208 -70zM510 985q-114 0 -198 -94t-117 -262h499q16 154 -26 255q-44 101 -158 101z" />
    <glyph glyph-name="Ecaron" unicode="&#x11a;" horiz-adv-x="1011" 
d="M45 0l240 1516h731l-21 -130h-592l-81 -520h430l-21 -127h-430l-96 -612h629l-21 -127h-768zM590 1608l-172 323h88l153 -198l220 198h84l-277 -323h-96z" />
    <glyph glyph-name="ecaron" unicode="&#x11b;" horiz-adv-x="929" 
d="M39 390q0 186 43 326q76 246 262 343q80 41 160 41q324 0 323 -385q0 -49 -14 -164l-4 -31h-629q-6 -55 -6 -112q0 -150 58 -233t167 -83q147 0 263 211l94 -57q-137 -268 -371 -269q-160 0 -253 113t-93 300zM510 985q-114 0 -198 -94t-117 -262h499q16 154 -26 255
q-44 101 -158 101zM485 1192l-172 324h88l154 -199l219 199h84l-276 -324h-97z" />
    <glyph glyph-name="Gcircumflex" unicode="&#x11c;" horiz-adv-x="1218" 
d="M523 -29q-221 0 -331 153t-110 425q0 453 185 724t435 271q212 0 308 -122t108 -347l-131 -24q-10 186 -76 276t-209 90q-196 1 -338 -241t-143 -621q0 -221 81 -340q80 -119 230 -119t254 128t144 366h-297l20 123h420l-112 -713h-117l28 186h-2q-127 -215 -347 -215z
M449 1602l276 323h96l172 -323h-86l-151 196l-224 -196h-83z" />
    <glyph glyph-name="gcircumflex" unicode="&#x11d;" horiz-adv-x="972" 
d="M330 -307q135 0 215 51t80 162q0 53 -42 85t-163 56l-178 37l-41 8q-178 -80 -178 -221q0 -178 307 -178zM754 -90q0 -106 -67 -184q-120 -136 -352 -136t-338 71q-105 71 -106 187q0 188 218 279q-68 37 -68 113q0 51 37 99t98 77q-90 90 -90 243q0 199 120 320t280 121
t249 -113q106 80 238 103l-23 -132q-100 0 -176 -32q33 -76 33 -162q0 -207 -119 -323t-270 -115q-96 0 -174 39q-78 -39 -78 -97q0 -27 22 -42t99 -31l172 -35q163 -36 229 -90t66 -160zM215 657q1 -101 55 -163t158 -62t176 90q74 90 74 244q0 104 -51 164t-155 61
q-104 0 -181 -91q-76 -91 -76 -243zM227 1186l277 323h96l172 -323h-86l-151 196l-224 -196h-84z" />
    <glyph glyph-name="Gbreve" unicode="&#x11e;" horiz-adv-x="1218" 
d="M523 -29q-221 0 -331 153t-110 425q0 453 185 724t435 271q212 0 308 -122t108 -347l-131 -24q-10 186 -76 276t-209 90q-196 1 -338 -241t-143 -621q0 -221 81 -340q80 -119 230 -119t254 128t144 366h-297l20 123h420l-112 -713h-117l28 186h-2q-127 -215 -347 -215z
M760 1602q-131 0 -188 87q-56 87 -40 244h93q-14 -223 135 -223t209 223h88q-66 -331 -297 -331z" />
    <glyph glyph-name="gbreve" unicode="&#x11f;" horiz-adv-x="972" 
d="M330 -307q135 0 215 51t80 162q0 53 -42 85t-163 56l-178 37l-41 8q-178 -80 -178 -221q0 -178 307 -178zM754 -90q0 -106 -67 -184q-120 -136 -352 -136t-338 71q-105 71 -106 187q0 188 218 279q-68 37 -68 113q0 51 37 99t98 77q-90 90 -90 243q0 199 120 320t280 121
t249 -113q106 80 238 103l-23 -132q-100 0 -176 -32q33 -76 33 -162q0 -207 -119 -323t-270 -115q-96 0 -174 39q-78 -39 -78 -97q0 -27 22 -42t99 -31l172 -35q163 -36 229 -90t66 -160zM215 657q1 -101 55 -163t158 -62t176 90q74 90 74 244q0 104 -51 164t-155 61
q-104 0 -181 -91q-76 -91 -76 -243zM545 1186q-131 0 -188 87q-56 87 -40 245h93q-14 -223 137 -224q147 0 207 224h88q-66 -332 -297 -332z" />
    <glyph glyph-name="Gdotaccent" unicode="&#x120;" horiz-adv-x="1218" 
d="M523 -29q-221 0 -331 153t-110 425q0 453 185 724t435 271q212 0 308 -122t108 -347l-131 -24q-10 186 -76 276t-209 90q-196 1 -338 -241t-143 -621q0 -221 81 -340q80 -119 230 -119t254 128t144 366h-297l20 123h420l-112 -713h-117l28 186h-2q-127 -215 -347 -215z
M639 1610l27 162h161l-26 -162h-162z" />
    <glyph glyph-name="gdotaccent" unicode="&#x121;" horiz-adv-x="972" 
d="M330 -307q135 0 215 51t80 162q0 53 -42 85t-163 56l-178 37l-41 8q-178 -80 -178 -221q0 -178 307 -178zM754 -90q0 -106 -67 -184q-120 -136 -352 -136t-338 71q-105 71 -106 187q0 188 218 279q-68 37 -68 113q0 51 37 99t98 77q-90 90 -90 243q0 199 120 320t280 121
t249 -113q106 80 238 103l-23 -132q-100 0 -176 -32q33 -76 33 -162q0 -207 -119 -323t-270 -115q-96 0 -174 39q-78 -39 -78 -97q0 -27 22 -42t99 -31l172 -35q163 -36 229 -90t66 -160zM215 657q1 -101 55 -163t158 -62t176 90q74 90 74 244q0 104 -51 164t-155 61
q-104 0 -181 -91q-76 -91 -76 -243zM432 1194l27 162h162l-27 -162h-162z" />
    <glyph glyph-name="Gcommaaccent" unicode="&#x122;" horiz-adv-x="1218" 
d="M358 -457l80 201h-57l29 174h151l-26 -158l-115 -217h-62zM523 -29q-221 0 -331 153t-110 425q0 453 185 724t435 271q212 0 308 -122t108 -347l-131 -24q-10 186 -76 276t-209 90q-196 1 -338 -241t-143 -621q0 -221 81 -340q80 -119 230 -119t254 128t144 366h-297
l20 123h420l-112 -713h-117l28 186h-2q-127 -215 -347 -215z" />
    <glyph glyph-name="gcommaaccent" unicode="&#x123;" horiz-adv-x="972" 
d="M330 -307q135 0 215 51t80 162q0 53 -42 85t-163 56l-178 37l-41 8q-178 -80 -178 -221q0 -178 307 -178zM754 -90q0 -106 -67 -184q-120 -136 -352 -136t-338 71q-105 71 -106 187q0 188 218 279q-68 37 -68 113q0 51 37 99t98 77q-90 90 -90 243q0 199 120 320t280 121
t249 -113q106 80 238 103l-23 -132q-100 0 -176 -32q33 -76 33 -162q0 -207 -119 -323t-270 -115q-96 0 -174 39q-78 -39 -78 -97q0 -27 22 -42t99 -31l172 -35q163 -36 229 -90t66 -160zM215 657q1 -101 55 -163t158 -62t176 90q74 90 74 244q0 104 -51 164t-155 61
q-104 0 -181 -91q-76 -91 -76 -243zM457 1192l24 158l115 217h61l-79 -201h59l-29 -174h-151z" />
    <glyph glyph-name="Hcircumflex" unicode="&#x124;" horiz-adv-x="1236" 
d="M45 0l240 1516h139l-102 -650h630l103 650h139l-240 -1516h-139l117 737h-631l-117 -737h-139zM467 1602l276 323h97l172 -323h-86l-152 196l-223 -196h-84z" />
    <glyph glyph-name="hcircumflex" unicode="&#x125;" horiz-adv-x="995" 
d="M634 1100q156 0 210 -72t30 -221l-129 -807h-131l123 778q18 106 -10 156q-29 49 -119 49q-145 0 -323 -154l-131 -829h-134l240 1516h133l-92 -576q177 160 333 160zM63 1602l277 323h96l172 -323h-86l-151 196l-224 -196h-84z" />
    <glyph glyph-name="Hbar" unicode="&#x126;" horiz-adv-x="1236" 
d="M301 733l-117 -733h-139l178 1124h-131l19 119h131l43 273h139l-43 -273h631l43 273h139l-43 -273h131l-18 -119h-131l-179 -1124h-139l117 733h-631zM319 856h631l43 268h-631z" />
    <glyph glyph-name="hbar" unicode="&#x127;" horiz-adv-x="995" 
d="M636 1100q154 0 208 -72t30 -221l-129 -807h-131l123 778q18 106 -10 156q-29 49 -119 49q-145 0 -323 -154l-131 -829h-134l189 1186h-141l18 104h139l35 226h133l-35 -226h207l-18 -104h-207l-39 -250q181 164 335 164z" />
    <glyph glyph-name="Itilde" unicode="&#x128;" horiz-adv-x="491" 
d="M57 0l240 1516h139l-239 -1516h-140zM530 1602q-68 0 -150 57t-112 57q-72 0 -90 -110h-88q37 223 178 223q68 0 151 -57t111 -58q75 0 88 111h87q-34 -223 -175 -223z" />
    <glyph glyph-name="itilde" unicode="&#x129;" horiz-adv-x="432" 
d="M31 0l170 1077h133l-170 -1077h-133zM444 1186q-68 0 -150 57t-112 57q-72 0 -90 -110h-88q37 223 178 223q68 0 150 -57t112 -58q75 0 88 111h86q-33 -223 -174 -223z" />
    <glyph glyph-name="Imacron" unicode="&#x12a;" horiz-adv-x="491" 
d="M57 0l240 1516h139l-239 -1516h-140zM158 1608l16 116h451l-19 -116h-448z" />
    <glyph glyph-name="imacron" unicode="&#x12b;" horiz-adv-x="432" 
d="M31 0l170 1077h133l-170 -1077h-133zM63 1192l17 117h450l-18 -117h-449z" />
    <glyph glyph-name="Ibreve" unicode="&#x12c;" horiz-adv-x="491" 
d="M57 0l240 1516h139l-239 -1516h-140zM397 1602q-131 0 -187 87t-40 244h92q-14 -223 135 -223t209 223h88q-66 -331 -297 -331z" />
    <glyph glyph-name="ibreve" unicode="&#x12d;" horiz-adv-x="432" 
d="M31 0l170 1077h133l-170 -1077h-133zM311 1186q-131 0 -187 87t-40 245h92q-14 -223 137 -224q147 0 207 224h88q-66 -332 -297 -332z" />
    <glyph glyph-name="Iogonek" unicode="&#x12e;" horiz-adv-x="491" 
d="M46 -385q-93 0 -136 37t-43 98q0 133 190 258h2l238 1508h139l-239 -1516h-70q-150 -113 -150 -231q0 -72 78 -72t170 47l29 -59q-115 -70 -208 -70z" />
    <glyph glyph-name="iogonek" unicode="&#x12f;" horiz-adv-x="432" 
d="M30 -385q-93 0 -136 37t-44 98q0 133 181 252l170 1075h133l-170 -1077h-53q-150 -113 -150 -231q0 -72 78 -72t170 47l29 -59q-115 -70 -208 -70zM238 1313l24 157h135l-24 -157h-135z" />
    <glyph glyph-name="Idotaccent" unicode="&#x130;" horiz-adv-x="491" 
d="M57 0l240 1516h139l-239 -1516h-140zM299 1610l27 162h161l-26 -162h-162z" />
    <glyph glyph-name="dotlessi" unicode="&#x131;" horiz-adv-x="432" 
d="M31 0l170 1077h133l-170 -1077h-133z" />
    <glyph glyph-name="IJ" unicode="&#x132;" horiz-adv-x="1280" 
d="M696 -23q-199 0 -327 119l84 103q105 -97 221 -97t172 52t74 170l188 1192h139l-190 -1201q-54 -338 -361 -338zM57 0l240 1516h139l-239 -1516h-140z" />
    <glyph glyph-name="ij" unicode="&#x133;" horiz-adv-x="864" 
d="M330 -410q-55 0 -72 4l16 109q25 -4 54 -4q86 0 104 115l199 1263h133l-199 -1259q-19 -120 -75 -174t-160 -54zM31 0l170 1077h133l-170 -1077h-133zM238 1313l24 157h135l-24 -157h-135zM668 1313l24 157h135l-24 -157h-135z" />
    <glyph glyph-name="Jcircumflex" unicode="&#x134;" horiz-adv-x="851" 
d="M268 -23q-199 0 -327 119l84 103q105 -97 221 -97t172 52t74 170l188 1192h139l-190 -1201q-54 -338 -361 -338zM481 1602l277 323h96l172 -323h-86l-152 196l-223 -196h-84z" />
    <glyph glyph-name="jcircumflex" unicode="&#x135;" horiz-adv-x="432" 
d="M-100 -410q-55 0 -72 4l16 109q25 -4 54 -4q86 0 104 115l199 1263h133l-199 -1259q-19 -120 -75 -174t-160 -54zM12 1186l277 323h96l172 -323h-86l-152 196l-223 -196h-84z" />
    <glyph glyph-name="Kcommaaccent" unicode="&#x136;" horiz-adv-x="1126" 
d="M311 -457l80 201h-57l28 174h152l-27 -158l-114 -217h-62zM825 0l-309 817l-246 -278l-86 -539h-139l240 1516h139l-125 -795q10 12 172 207l514 588h150l-514 -586l346 -930h-142z" />
    <glyph glyph-name="kcommaaccent" unicode="&#x137;" horiz-adv-x="901" 
d="M199 -457l80 201h-58l29 174h151l-26 -158l-115 -217h-61zM600 0l-188 578l-201 -222l-57 -356h-134l240 1516h133l-155 -986q35 43 163 187l324 360h141l-354 -393l223 -684h-135z" />
    <glyph glyph-name="kgreenlandic" unicode="&#x138;" horiz-adv-x="901" 
d="M600 0l-188 578l-203 -222l-55 -356h-134l170 1077h134l-86 -549q37 45 165 189l324 360h139l-354 -393l223 -684h-135z" />
    <glyph glyph-name="Lacute" unicode="&#x139;" horiz-adv-x="956" 
d="M45 0l240 1516h139l-219 -1389h586l-19 -127h-727zM317 1610l215 315h170l-294 -315h-91z" />
    <glyph glyph-name="lacute" unicode="&#x13a;" horiz-adv-x="432" 
d="M31 0l239 1516h133l-239 -1516h-133zM299 1610l215 315h170l-295 -315h-90z" />
    <glyph glyph-name="Lcommaaccent" unicode="&#x13b;" horiz-adv-x="956" 
d="M225 -457l80 201h-57l28 174h152l-27 -158l-114 -217h-62zM45 0l240 1516h139l-219 -1389h586l-19 -127h-727z" />
    <glyph glyph-name="lcommaaccent" unicode="&#x13c;" horiz-adv-x="432" 
d="M-33 -457l80 201h-57l28 174h152l-27 -158l-114 -217h-62zM31 0l239 1516h133l-239 -1516h-133z" />
    <glyph glyph-name="Lcaron" unicode="&#x13d;" horiz-adv-x="956" 
d="M582 1143l82 200h-58l27 173h151l-24 -158l-117 -215h-61zM45 0l240 1516h139l-219 -1389h586l-19 -127h-727z" />
    <glyph glyph-name="lcaron" unicode="&#x13e;" horiz-adv-x="432" 
d="M449 1149l79 199h-55l25 168h147l-24 -154l-113 -213h-59zM31 0l239 1516h133l-239 -1516h-133z" />
    <glyph glyph-name="Ldot" unicode="&#x13f;" horiz-adv-x="976" 
d="M637 731l27 162h155l-26 -162h-156zM45 0l240 1516h139l-219 -1389h586l-19 -127h-727z" />
    <glyph glyph-name="ldot" unicode="&#x140;" horiz-adv-x="606" 
d="M408 567l26 162h156l-27 -162h-155zM31 0l239 1516h133l-239 -1516h-133z" />
    <glyph glyph-name="Lslash" unicode="&#x141;" horiz-adv-x="974" 
d="M45 0l102 643l-141 -65l19 120l141 64l119 754h139l-109 -695l285 133l-18 -120l-287 -129l-92 -582h606l-21 -123h-743z" />
    <glyph glyph-name="lslash" unicode="&#x142;" horiz-adv-x="514" 
d="M72 0l147 932l-166 -78l19 119l166 76l73 467h133l-65 -412l166 76l-19 -117l-166 -78l-155 -985h-133z" />
    <glyph glyph-name="Nacute" unicode="&#x143;" horiz-adv-x="1251" 
d="M45 0l240 1516h172l334 -984q72 -219 88 -268h4l198 1252h127l-239 -1516h-129l-353 1032q-10 31 -45 128t-55 169h-4l-211 -1329h-127zM649 1610l215 315h170l-295 -315h-90z" />
    <glyph glyph-name="nacute" unicode="&#x144;" horiz-adv-x="995" 
d="M634 1100q156 0 210 -72t30 -221l-129 -807h-131l123 778q18 106 -10 155q-29 48 -119 48q-150 0 -323 -152l-131 -829h-134l170 1077h134l-23 -137q177 160 333 160zM457 1194l215 315h170l-295 -315h-90z" />
    <glyph glyph-name="Ncommaaccent" unicode="&#x145;" horiz-adv-x="1251" 
d="M375 -457l80 201h-58l29 174h152l-27 -158l-115 -217h-61zM45 0l240 1516h172l334 -984q72 -219 88 -268h4l198 1252h127l-239 -1516h-129l-353 1032q-10 31 -45 128t-55 169h-4l-211 -1329h-127z" />
    <glyph glyph-name="ncommaaccent" unicode="&#x146;" horiz-adv-x="995" 
d="M246 -457l80 201h-58l29 174h152l-27 -158l-115 -217h-61zM634 1100q156 0 210 -72t30 -221l-129 -807h-131l123 778q18 106 -10 155q-29 48 -119 48q-150 0 -323 -152l-131 -829h-134l170 1077h134l-23 -137q177 160 333 160z" />
    <glyph glyph-name="Ncaron" unicode="&#x147;" horiz-adv-x="1251" 
d="M45 0l240 1516h172l334 -984q72 -219 88 -268h4l198 1252h127l-239 -1516h-129l-353 1032q-10 31 -45 128t-55 169h-4l-211 -1329h-127zM711 1608l-172 323h88l153 -198l219 198h84l-276 -323h-96z" />
    <glyph glyph-name="ncaron" unicode="&#x148;" horiz-adv-x="995" 
d="M634 1100q156 0 210 -72t30 -221l-129 -807h-131l123 778q18 106 -10 155q-29 48 -119 48q-150 0 -323 -152l-131 -829h-134l170 1077h134l-23 -137q177 160 333 160zM518 1192l-172 324h88l154 -199l219 199h84l-277 -324h-96z" />
    <glyph glyph-name="Eng" unicode="&#x14a;" horiz-adv-x="1251" 
d="M606 -410q-201 0 -325 119l81 101q106 -96 236 -97q197 0 229 215l11 74l-351 1030q-10 31 -45 128t-55 169h-4l-211 -1329h-127l240 1516h172l334 -984q72 -219 88 -268h2l200 1252h127l-252 -1590q-55 -336 -350 -336z" />
    <glyph glyph-name="eng" unicode="&#x14b;" horiz-adv-x="995" 
d="M636 1100q154 0 208 -72t30 -221l-157 -989q-21 -121 -75 -174t-159 -54q-59 0 -71 4l16 109q20 -4 51 -4q88 0 107 115l151 964q18 106 -10 156q-29 49 -119 49q-145 0 -323 -154l-131 -829h-134l170 1077h134l-23 -141q181 164 335 164z" />
    <glyph glyph-name="Omacron" unicode="&#x14c;" horiz-adv-x="1251" 
d="M543 98q193 0 341 232t148 614q0 221 -84 347t-235 126q-195 0 -342 -231t-148 -617q0 -221 84 -346t236 -125zM537 -29q-209 0 -331 161q-122 160 -122 414t55 444q101 347 351 491q112 63 231 63q209 0 330 -162t120 -442q0 -230 -56 -418q-103 -347 -351 -487
q-110 -64 -227 -64zM537 1608l16 116h451l-19 -116h-448z" />
    <glyph glyph-name="omacron" unicode="&#x14d;" horiz-adv-x="980" 
d="M174 412q0 -144 55 -232t171 -88t207 114q132 165 132 458q0 143 -55 231t-171 88t-206 -114t-121 -304q-12 -78 -12 -153zM389 -23q-160 0 -255 118t-95 321q0 320 147 502t338 182q162 0 256 -116t94 -318q0 -326 -148 -508t-337 -181zM338 1192l16 117h451l-19 -117
h-448z" />
    <glyph glyph-name="Obreve" unicode="&#x14e;" horiz-adv-x="1251" 
d="M543 98q193 0 341 232t148 614q0 221 -84 347t-235 126q-195 0 -342 -231t-148 -617q0 -221 84 -346t236 -125zM537 -29q-209 0 -331 161q-122 160 -122 414t55 444q101 347 351 491q112 63 231 63q209 0 330 -162t120 -442q0 -230 -56 -418q-103 -347 -351 -487
q-110 -64 -227 -64zM772 1602q-131 0 -187 87t-40 244h92q-14 -223 135 -223t209 223h88q-66 -331 -297 -331z" />
    <glyph glyph-name="obreve" unicode="&#x14f;" horiz-adv-x="980" 
d="M174 412q0 -144 55 -232t171 -88t207 114q132 165 132 458q0 143 -55 231t-171 88t-206 -114t-121 -304q-12 -78 -12 -153zM389 -23q-160 0 -255 118t-95 321q0 320 147 502t338 182q162 0 256 -116t94 -318q0 -326 -148 -508t-337 -181zM573 1186q-131 0 -187 87
t-40 245h92q-14 -223 137 -224q147 0 207 224h88q-66 -332 -297 -332z" />
    <glyph glyph-name="Ohungarumlaut" unicode="&#x150;" horiz-adv-x="1251" 
d="M543 98q193 0 341 232t148 614q0 221 -84 347t-235 126q-195 0 -342 -231t-148 -617q0 -221 84 -346t236 -125zM537 -29q-209 0 -331 161q-122 160 -122 414t55 444q101 347 351 491q112 63 231 63q209 0 330 -162t120 -442q0 -230 -56 -418q-103 -347 -351 -487
q-110 -64 -227 -64zM797 1610l217 315h172l-295 -315h-94zM514 1610l213 315h172l-293 -315h-92z" />
    <glyph glyph-name="ohungarumlaut" unicode="&#x151;" horiz-adv-x="980" 
d="M174 412q0 -144 55 -232t171 -88t207 114q132 165 132 458q0 143 -55 231t-171 88t-206 -114t-121 -304q-12 -78 -12 -153zM389 -23q-160 0 -255 118t-95 321q0 320 147 502t338 182q162 0 256 -116t94 -318q0 -326 -148 -508t-337 -181zM621 1194l217 315h172l-295 -315
h-94zM338 1194l213 315h172l-293 -315h-92z" />
    <glyph glyph-name="OE" unicode="&#x152;" horiz-adv-x="1865" 
d="M84 546q0 254 55 444q101 347 351 491q112 63 231 63q285 0 385 -299l43 271h719l-21 -130h-592l-81 -520h430l-19 -127h-430l-98 -612h629l-21 -127h-756l33 207q-86 -115 -192 -175t-213 -61q-209 0 -331 161q-122 160 -122 414zM543 98q193 0 341 232t148 614
q0 221 -84 347t-235 126q-195 0 -342 -231t-148 -617q0 -221 84 -346t236 -125z" />
    <glyph glyph-name="oe" unicode="&#x153;" horiz-adv-x="1613" 
d="M39 416q0 320 147 502t338 182q236 0 312 -234q66 117 159 175q94 58 193 59q322 0 321 -385q0 -66 -12 -164l-6 -31h-627q-6 -55 -6 -112q0 -150 58 -233t167 -83q152 0 260 211l97 -57q-137 -268 -374 -268t-310 237q-68 -117 -165 -177t-202 -61q-160 0 -255 118
t-95 321zM174 412q0 -144 55 -232t171 -88t207 114q132 165 132 458q0 143 -55 231t-171 88t-206 -114t-121 -304q-12 -78 -12 -153zM1194 985q-114 0 -198 -94t-115 -262h495q18 152 -25 254t-157 102z" />
    <glyph glyph-name="Racute" unicode="&#x154;" horiz-adv-x="1136" 
d="M639 1516q437 0 437 -370q0 -186 -97 -306q-96 -120 -274 -156l202 -684h-141l-199 670h-278l-107 -670h-137l240 1516h354zM580 791q168 -1 262 79t94 279q0 238 -305 237h-228l-94 -595h271zM592 1610l215 315h170l-295 -315h-90z" />
    <glyph glyph-name="racute" unicode="&#x155;" horiz-adv-x="673" 
d="M664 1100h22l-31 -125h-34q-209 0 -349 -227l-118 -748h-134l170 1077h134l-29 -178h4q147 201 365 201zM299 1194l215 315h170l-295 -315h-90z" />
    <glyph glyph-name="Rcommaaccent" unicode="&#x156;" horiz-adv-x="1136" 
d="M315 -457l80 201h-57l29 174h151l-26 -158l-115 -217h-62zM639 1516q437 0 437 -370q0 -186 -97 -306q-96 -120 -274 -156l202 -684h-141l-199 670h-278l-107 -670h-137l240 1516h354zM580 791q168 -1 262 79t94 279q0 238 -305 237h-228l-94 -595h271z" />
    <glyph glyph-name="rcommaaccent" unicode="&#x157;" horiz-adv-x="673" 
d="M-51 -457l80 201h-58l29 174h152l-27 -158l-115 -217h-61zM664 1100h22l-31 -125h-34q-209 0 -349 -227l-118 -748h-134l170 1077h134l-29 -178h4q147 201 365 201z" />
    <glyph glyph-name="Rcaron" unicode="&#x158;" horiz-adv-x="1136" 
d="M639 1516q437 0 437 -370q0 -186 -97 -306q-96 -120 -274 -156l202 -684h-141l-199 670h-278l-107 -670h-137l240 1516h354zM580 791q168 -1 262 79t94 279q0 238 -305 237h-228l-94 -595h271zM653 1608l-172 323h88l154 -198l219 198h84l-276 -323h-97z" />
    <glyph glyph-name="rcaron" unicode="&#x159;" horiz-adv-x="673" 
d="M664 1100h22l-31 -125h-34q-209 0 -349 -227l-118 -748h-134l170 1077h134l-29 -178h4q147 201 365 201zM360 1192l-172 324h88l154 -199l219 199h84l-276 -324h-97z" />
    <glyph glyph-name="Sacute" unicode="&#x15a;" horiz-adv-x="1079" 
d="M461 -25q-369 0 -457 355l125 51q70 -281 336 -281q143 0 232 79t89 216q0 86 -60 160t-145 128q-85 55 -171 113t-147 143q-60 85 -60 191q0 188 121 302t294 112q330 0 412 -315l-127 -53q-68 244 -291 243q-114 1 -192 -73t-78 -199q0 -84 60 -156t146 -127t172 -113
q85 -57 145 -145t61 -196q0 -197 -129 -316t-336 -119zM565 1610l215 315h170l-295 -315h-90z" />
    <glyph glyph-name="sacute" unicode="&#x15b;" horiz-adv-x="856" 
d="M348 -20q-285 0 -383 223l107 67q82 -178 274 -178q102 0 166 50q63 50 63 145q0 61 -48 109q-47 48 -115 81t-136 70t-116 98t-47 146q0 137 93 223t230 86q256 0 340 -199l-106 -67q-37 78 -88 116q-50 38 -140 37q-90 0 -144 -51q-54 -52 -54 -122t47 -118t115 -79
t136 -67t116 -98q46 -62 47 -147q0 -153 -105 -239t-252 -86zM389 1194l215 315h170l-295 -315h-90z" />
    <glyph glyph-name="Scircumflex" unicode="&#x15c;" horiz-adv-x="1079" 
d="M461 -25q-369 0 -457 355l125 51q70 -281 336 -281q143 0 232 79t89 216q0 86 -60 160t-145 128q-85 55 -171 113t-147 143q-60 85 -60 191q0 188 121 302t294 112q330 0 412 -315l-127 -53q-68 244 -291 243q-114 1 -192 -73t-78 -199q0 -84 60 -156t146 -127t172 -113
q85 -57 145 -145t61 -196q0 -197 -129 -316t-336 -119zM379 1602l276 323h97l172 -323h-86l-152 196l-223 -196h-84z" />
    <glyph glyph-name="scircumflex" unicode="&#x15d;" horiz-adv-x="856" 
d="M348 -20q-285 0 -383 223l107 67q82 -178 274 -178q102 0 166 50q63 50 63 145q0 61 -48 109q-47 48 -115 81t-136 70t-116 98t-47 146q0 137 93 223t230 86q256 0 340 -199l-106 -67q-37 78 -88 116q-50 38 -140 37q-90 0 -144 -51q-54 -52 -54 -122t47 -118t115 -79
t136 -67t116 -98q46 -62 47 -147q0 -153 -105 -239t-252 -86zM213 1186l276 323h97l172 -323h-86l-152 196l-223 -196h-84z" />
    <glyph glyph-name="Scedilla" unicode="&#x15e;" horiz-adv-x="1079" 
d="M625 -209q0 -103 -75 -153q-76 -50 -194 -50t-209 74l58 72q76 -59 168 -60q147 0 147 107q0 61 -65 61q-47 0 -99 -41l-53 27l66 154q-287 39 -365 348l125 51q70 -281 336 -281q143 0 232 79t89 216q0 86 -60 160t-145 128q-85 55 -171 113t-147 143q-60 85 -60 191
q0 188 121 302t294 112q330 0 412 -315l-127 -53q-68 244 -291 243q-114 1 -192 -73t-78 -199q0 -84 60 -156t146 -127t172 -113q85 -57 145 -145t61 -196q0 -197 -129 -316t-336 -119h-10l-39 -88q47 31 97 31t83 -34t33 -93z" />
    <glyph glyph-name="scedilla" unicode="&#x15f;" horiz-adv-x="856" 
d="M514 -209q0 -103 -75 -153t-193 -50t-209 74l57 72q76 -59 168 -60q147 0 148 107q0 61 -66 61q-47 0 -98 -41l-53 27l67 158q-213 29 -295 217l107 67q82 -178 274 -178q102 0 166 50q63 50 63 145q0 61 -48 109q-47 48 -115 81t-136 70t-116 98t-47 146q0 137 93 223
t230 86q256 0 340 -199l-106 -67q-37 78 -88 116q-50 38 -140 37q-90 0 -144 -51q-54 -52 -54 -122t47 -118t115 -79t136 -67t116 -98q46 -62 47 -147q-1 -153 -105 -239t-252 -86h-6l-41 -93q47 31 97 31t83 -34t33 -93z" />
    <glyph glyph-name="Scaron" unicode="&#x160;" horiz-adv-x="1079" 
d="M461 -25q-369 0 -457 355l125 51q70 -281 336 -281q143 0 232 79t89 216q0 86 -60 160t-145 128q-85 55 -171 113t-147 143q-60 85 -60 191q0 188 121 302t294 112q330 0 412 -315l-127 -53q-68 244 -291 243q-114 1 -192 -73t-78 -199q0 -84 60 -156t146 -127t172 -113
q85 -57 145 -145t61 -196q0 -197 -129 -316t-336 -119zM627 1608l-172 323h88l153 -198l219 198h84l-276 -323h-96z" />
    <glyph glyph-name="scaron" unicode="&#x161;" horiz-adv-x="856" 
d="M348 -20q-285 0 -383 223l107 67q82 -178 274 -178q102 0 166 50q63 50 63 145q0 61 -48 109q-47 48 -115 81t-136 70t-116 98t-47 146q0 137 93 223t230 86q256 0 340 -199l-106 -67q-37 78 -88 116q-50 38 -140 37q-90 0 -144 -51q-54 -52 -54 -122t47 -118t115 -79
t136 -67t116 -98q46 -62 47 -147q0 -153 -105 -239t-252 -86zM451 1192l-172 324h88l153 -199l219 199h84l-276 -324h-96z" />
    <glyph glyph-name="Tcaron" unicode="&#x164;" horiz-adv-x="1034" 
d="M328 0l219 1386h-387l20 130h914l-21 -130h-385l-221 -1386h-139zM602 1608l-172 323h88l154 -198l219 198h84l-277 -323h-96z" />
    <glyph glyph-name="tcaron" unicode="&#x165;" horiz-adv-x="647" 
d="M340 -14q-137 0 -187 66t-28 206l111 707h-162l18 112h162l59 389h133l-59 -389h238l-19 -112h-239l-109 -705q-14 -88 10 -126t94 -38q68 0 111 15l-18 -111q-49 -14 -115 -14zM516 1174l80 198h-57l28 168h146l-25 -154l-113 -212h-59z" />
    <glyph glyph-name="Tbar" unicode="&#x166;" horiz-adv-x="1034" 
d="M965 696h-387l-111 -696h-139l110 696h-389l19 121h389l90 576h-385l18 123h914l-19 -123h-387l-92 -576h387z" />
    <glyph glyph-name="tbar" unicode="&#x167;" horiz-adv-x="647" 
d="M340 -14q-137 0 -187 66t-28 206l39 254h-160l16 106h160l56 349h-162l18 110h162l59 389h133l-59 -389h238l-19 -110h-237l-56 -349h240l-16 -106h-240l-39 -252q-14 -88 10 -126t94 -38q68 0 111 15l-18 -111q-49 -14 -115 -14z" />
    <glyph glyph-name="Utilde" unicode="&#x168;" horiz-adv-x="1208" 
d="M486 -29q-226 1 -318 145t-53 388l159 1012h140l-158 -1002q-70 -418 246 -418q170 0 258 106t121 308l159 1006h134l-164 -1047q-37 -231 -167 -365q-131 -134 -357 -133zM885 1602q-68 0 -151 57t-111 57q-72 0 -91 -110h-88q37 223 179 223q65 0 149 -57t113 -58
q73 0 88 111h86q-33 -223 -174 -223z" />
    <glyph glyph-name="utilde" unicode="&#x169;" horiz-adv-x="995" 
d="M294 -23q-154 0 -209 72q-54 72 -32 223l129 805h133l-122 -778q-18 -106 9 -156q28 -49 117 -49q145 0 324 154l131 829h133l-170 -1077h-133l23 139q-179 -162 -333 -162zM707 1186q-68 0 -151 57t-112 57q-72 0 -90 -110h-88q37 223 178 223q68 0 150 -57t113 -58
q73 0 88 111h86q-33 -223 -174 -223z" />
    <glyph glyph-name="Umacron" unicode="&#x16a;" horiz-adv-x="1208" 
d="M486 -29q-226 1 -318 145t-53 388l159 1012h140l-158 -1002q-70 -418 246 -418q170 0 258 106t121 308l159 1006h134l-164 -1047q-37 -231 -167 -365q-131 -134 -357 -133zM514 1608l16 116h451l-18 -116h-449z" />
    <glyph glyph-name="umacron" unicode="&#x16b;" horiz-adv-x="995" 
d="M294 -23q-154 0 -209 72q-54 72 -32 223l129 805h133l-122 -778q-18 -106 9 -156q28 -49 117 -49q145 0 324 154l131 829h133l-170 -1077h-133l23 139q-179 -162 -333 -162zM344 1192l16 117h451l-18 -117h-449z" />
    <glyph glyph-name="Ubreve" unicode="&#x16c;" horiz-adv-x="1208" 
d="M486 -29q-226 1 -318 145t-53 388l159 1012h140l-158 -1002q-70 -418 246 -418q170 0 258 106t121 308l159 1006h134l-164 -1047q-37 -231 -167 -365q-131 -134 -357 -133zM737 1602q-131 0 -187 87t-40 244h92q-14 -223 135 -223t209 223h88q-66 -331 -297 -331z" />
    <glyph glyph-name="ubreve" unicode="&#x16d;" horiz-adv-x="995" 
d="M294 -23q-154 0 -209 72q-54 72 -32 223l129 805h133l-122 -778q-18 -106 9 -156q28 -49 117 -49q145 0 324 154l131 829h133l-170 -1077h-133l23 139q-179 -162 -333 -162zM567 1186q-131 0 -187 87t-40 245h92q-14 -223 137 -224q147 0 207 224h88q-66 -332 -297 -332z
" />
    <glyph glyph-name="Uring" unicode="&#x16e;" horiz-adv-x="1208" 
d="M486 -29q-226 1 -318 145t-53 388l159 1012h140l-158 -1002q-70 -418 246 -418q170 0 258 106t121 308l159 1006h134l-164 -1047q-37 -231 -167 -365q-131 -134 -357 -133zM752 1663q42 0 72 41t30 98q0 94 -78 94q-43 0 -73 -38t-29 -97q0 -98 78 -98zM747 1591
q-153 0 -153 176q0 83 56 143t130 60t115 -46t41 -130t-56 -144t-133 -59z" />
    <glyph glyph-name="uring" unicode="&#x16f;" horiz-adv-x="995" 
d="M294 -23q-154 0 -209 72q-54 72 -32 223l129 805h133l-122 -778q-18 -106 9 -156q28 -49 117 -49q145 0 324 154l131 829h133l-170 -1077h-133l23 139q-179 -162 -333 -162zM582 1247q42 0 72 41t30 98q0 94 -78 95q-42 0 -72 -38t-30 -97q0 -99 78 -99zM577 1176
q-77 0 -115 46t-38 130t56 142q56 60 130 60t115 -46t41 -130t-56 -143q-57 -59 -133 -59z" />
    <glyph glyph-name="Uhungarumlaut" unicode="&#x170;" horiz-adv-x="1208" 
d="M486 -29q-226 1 -318 145t-53 388l159 1012h140l-158 -1002q-70 -418 246 -418q170 0 258 106t121 308l159 1006h134l-164 -1047q-37 -231 -167 -365q-131 -134 -357 -133zM780 1610l217 315h172l-295 -315h-94zM498 1610l213 315h172l-293 -315h-92z" />
    <glyph glyph-name="uhungarumlaut" unicode="&#x171;" horiz-adv-x="995" 
d="M294 -23q-154 0 -209 72q-54 72 -32 223l129 805h133l-122 -778q-18 -106 9 -156q28 -49 117 -49q145 0 324 154l131 829h133l-170 -1077h-133l23 139q-179 -162 -333 -162zM618 1194l218 315h172l-295 -315h-95zM336 1194l213 315h172l-293 -315h-92z" />
    <glyph glyph-name="Uogonek" unicode="&#x172;" horiz-adv-x="1208" 
d="M451 -385q-93 0 -136 37t-43 98q0 115 146 225q-194 27 -266 168t-37 361l159 1012h140l-158 -1002q-70 -418 246 -418q170 0 258 106t121 308l159 1006h134l-164 -1047q-37 -231 -167 -365t-343 -133h-2q-115 -98 -115 -202q0 -72 78 -72t170 47l28 -59
q-115 -70 -208 -70z" />
    <glyph glyph-name="uogonek" unicode="&#x173;" horiz-adv-x="995" 
d="M597 -385q-93 0 -136 37t-43 98q0 133 186 256l23 133q-179 -162 -333 -162t-209 72q-54 72 -32 223l129 805h133l-122 -778q-18 -106 9 -156q28 -49 117 -49q145 0 324 154l131 829h133l-170 -1077h-59q-150 -113 -150 -231q0 -72 78 -72t170 47l29 -59
q-115 -70 -208 -70z" />
    <glyph glyph-name="Wcircumflex" unicode="&#x174;" horiz-adv-x="1556" 
d="M279 -6l-89 1522h132l34 -818q2 -88 10 -226t13 -232h2q62 192 162 458l295 818h129l37 -840q2 -47 9 -197t9 -239h2q16 47 72 195q55 148 88 243l299 838h125l-568 -1522h-116l-62 1270h-4l-463 -1270h-116zM637 1602l276 323h97l172 -323h-86l-152 196l-223 -196h-84z
" />
    <glyph glyph-name="wcircumflex" unicode="&#x175;" horiz-adv-x="1271" 
d="M295 199h4q49 141 115 305l219 573h119l41 -569q18 -205 20 -309h4q23 61 62 160t59 151l219 567h121l-440 -1083h-115l-66 862h-4l-340 -862h-114l-101 1083h131l43 -579q23 -291 23 -299zM430 1186l277 323h96l172 -323h-86l-152 196l-223 -196h-84z" />
    <glyph glyph-name="Ycircumflex" unicode="&#x176;" horiz-adv-x="1034" 
d="M328 0l102 633l-270 883h139l217 -748h4l455 748h139l-545 -879l-100 -637h-141zM365 1602l276 323h96l172 -323h-86l-151 196l-223 -196h-84z" />
    <glyph glyph-name="ycircumflex" unicode="&#x177;" horiz-adv-x="899" 
d="M8 -412q-110 0 -170 23l45 110q39 -16 115 -16t115 38t90 142l49 105l-154 1087h133l72 -594q35 -281 41 -325h4q41 100 148 338l254 581h129l-551 -1200q-72 -161 -140 -225q-70 -64 -180 -64zM227 1186l277 323h96l172 -323h-86l-151 196l-224 -196h-84z" />
    <glyph glyph-name="Ydieresis" unicode="&#x178;" horiz-adv-x="1034" 
d="M328 0l102 633l-270 883h139l217 -748h4l455 748h139l-545 -879l-100 -637h-141zM735 1608l27 164h143l-26 -164h-144zM424 1608l27 164h145l-27 -164h-145z" />
    <glyph glyph-name="Zacute" unicode="&#x179;" horiz-adv-x="1046" 
d="M-45 0l16 106l920 1280h-666l19 130h833l-16 -105l-920 -1284h717l-20 -127h-883zM547 1610l215 315h170l-295 -315h-90z" />
    <glyph glyph-name="zacute" unicode="&#x17a;" horiz-adv-x="849" 
d="M-47 0l14 90l658 875h-475l18 112h637l-14 -88l-658 -876h541l-19 -113h-702zM385 1194l215 315h170l-295 -315h-90z" />
    <glyph glyph-name="Zdotaccent" unicode="&#x17b;" horiz-adv-x="1046" 
d="M-45 0l16 106l920 1280h-666l19 130h833l-16 -105l-920 -1284h717l-20 -127h-883zM575 1610l27 162h162l-27 -162h-162z" />
    <glyph glyph-name="zdotaccent" unicode="&#x17c;" horiz-adv-x="849" 
d="M-47 0l14 90l658 875h-475l18 112h637l-14 -88l-658 -876h541l-19 -113h-702zM414 1194l26 162h162l-27 -162h-161z" />
    <glyph glyph-name="Zcaron" unicode="&#x17d;" horiz-adv-x="1046" 
d="M-45 0l16 106l920 1280h-666l19 130h833l-16 -105l-920 -1284h717l-20 -127h-883zM608 1608l-172 323h88l154 -198l219 198h84l-276 -323h-97z" />
    <glyph glyph-name="zcaron" unicode="&#x17e;" horiz-adv-x="849" 
d="M-47 0l14 90l658 875h-475l18 112h637l-14 -88l-658 -876h541l-19 -113h-702zM446 1192l-172 324h88l154 -199l219 199h84l-276 -324h-97z" />
    <glyph glyph-name="florin" unicode="&#x192;" horiz-adv-x="679" 
d="M625 1405q-152 0 -170 -145l-56 -398h201l-16 -112h-201l-125 -910q-18 -135 -93 -194t-204 -60q-37 0 -86 4l21 115q27 -6 59 -6q152 0 172 151l127 900h-166l16 112h162l56 395q35 262 307 263q41 0 78 -4l-21 -117q-27 6 -61 6z" />
    <glyph glyph-name="Scommaaccent" unicode="&#x218;" horiz-adv-x="1079" 
d="M289 -457l80 201h-58l29 174h152l-27 -158l-115 -217h-61zM461 -25q-369 0 -457 355l125 51q70 -281 336 -281q143 0 232 79t89 216q0 86 -60 160t-145 128q-85 55 -171 113t-147 143q-60 85 -60 191q0 188 121 302t294 112q330 0 412 -315l-127 -53q-68 244 -291 243
q-114 1 -192 -73t-78 -199q0 -84 60 -156t146 -127t172 -113q85 -57 145 -145t61 -196q0 -197 -129 -316t-336 -119z" />
    <glyph glyph-name="scommaaccent" unicode="&#x219;" horiz-adv-x="856" 
d="M176 -457l80 201h-57l28 174h152l-27 -158l-114 -217h-62zM348 -20q-285 0 -383 223l107 67q82 -178 274 -178q102 0 166 50q63 50 63 145q0 61 -48 109q-47 48 -115 81t-136 70t-116 98t-47 146q0 137 93 223t230 86q256 0 340 -199l-106 -67q-37 78 -88 116
q-50 38 -140 37q-90 0 -144 -51q-54 -52 -54 -122t47 -118t115 -79t136 -67t116 -98q46 -62 47 -147q0 -153 -105 -239t-252 -86z" />
    <glyph glyph-name="Tcommaaccent" unicode="&#x21a;" horiz-adv-x="1034" 
d="M266 -457l80 201h-57l28 174h152l-27 -158l-114 -217h-62zM328 0l219 1386h-387l20 130h914l-21 -130h-385l-221 -1386h-139z" />
    <glyph glyph-name="tcommaaccent" unicode="&#x21b;" horiz-adv-x="647" 
d="M18 -457l80 201h-57l29 174h151l-26 -158l-115 -217h-62zM340 -14q-137 0 -187 66t-28 206l111 707h-162l18 112h162l59 389h133l-59 -389h238l-19 -112h-239l-109 -705q-14 -88 10 -126t94 -38q68 0 111 15l-18 -111q-49 -14 -115 -14z" />
    <glyph glyph-name="schwa" unicode="&#x259;" horiz-adv-x="933" 
d="M374 90q94 0 178 95q83 95 120 266h-500q-22 -215 60 -307q48 -54 142 -54zM362 -23q-324 0 -323 385q0 53 14 164l2 27h631q6 57 6 117q0 150 -58 234t-167 85q-152 0 -262 -215l-90 55q135 270 366 271q162 0 254 -113t92 -313q-1 -336 -145 -516t-320 -181z" />
    <glyph glyph-name="circumflex" unicode="&#x2c6;" horiz-adv-x="892" 
d="M242 1186l276 323h96l172 -323h-86l-151 196l-223 -196h-84z" />
    <glyph glyph-name="caron" unicode="&#x2c7;" horiz-adv-x="892" 
d="M467 1192l-172 324h88l154 -199l219 199h84l-277 -324h-96z" />
    <glyph glyph-name="uni02C9" unicode="&#x2c9;" horiz-adv-x="892" 
d="M293 1192l16 117h451l-19 -117h-448z" />
    <glyph glyph-name="breve" unicode="&#x2d8;" horiz-adv-x="892" 
d="M532 1186q-131 0 -187 87t-40 245h92q-14 -223 138 -224q147 0 206 224h88q-66 -332 -297 -332z" />
    <glyph glyph-name="dotaccent" unicode="&#x2d9;" horiz-adv-x="892" 
d="M434 1194l27 162h162l-27 -162h-162z" />
    <glyph glyph-name="ring" unicode="&#x2da;" horiz-adv-x="892" 
d="M530 1247q41 0 72 41t31 98q0 94 -78 95q-43 0 -73 -38t-29 -97q-1 -99 77 -99zM715 1378q-1 -84 -57 -142q-56 -60 -132 -60t-114 46t-39 130q0 84 56 142q56 60 130 60t115 -46t41 -130z" />
    <glyph glyph-name="ogonek" unicode="&#x2db;" horiz-adv-x="892" 
d="M290 -385q-93 0 -136 37t-43 98q0 133 190 258h82q-162 -111 -162 -239q0 -72 78 -72t170 47l29 -59q-115 -70 -208 -70z" />
    <glyph glyph-name="tilde" unicode="&#x2dc;" horiz-adv-x="892" 
d="M666 1186q-68 0 -151 57t-112 57q-72 0 -90 -110h-88q37 223 178 223q68 0 150 -57t113 -58q73 0 88 111h86q-33 -223 -174 -223z" />
    <glyph glyph-name="hungarumlaut" unicode="&#x2dd;" horiz-adv-x="892" 
d="M492 1194l217 315h172l-295 -315h-94zM209 1194l213 315h172l-293 -315h-92z" />
    <glyph glyph-name="Delta" unicode="&#x394;" horiz-adv-x="1136" 
d="M125 115h688l-94 729q-41 328 -57 477h-5q-45 -106 -206 -473zM-59 0l686 1522h125l202 -1522h-1013z" />
    <glyph glyph-name="Omega" unicode="&#x3a9;" horiz-adv-x="1271" 
d="M109 672q0 389 181 631t437 241q219 0 336 -161t117 -416q0 -406 -275 -719q-66 -74 -135 -127h272l-18 -121h-412l19 115q412 344 411 860q0 205 -80 325t-243 121q-195 0 -336 -208q-141 -209 -141 -543t192 -555l-16 -115h-412l19 121h286q-90 91 -146 239t-56 312z
" />
    <glyph glyph-name="mu" unicode="&#x3bc;" horiz-adv-x="1003" 
d="M326 92q150 0 327 156l131 829h131l-172 -1077h-129l23 143q-168 -156 -324 -161q-135 0 -155 67l-72 -459h-131l235 1487h132l-123 -778q-19 -109 9 -158t118 -49z" />
    <glyph glyph-name="pi" unicode="&#x3c0;" horiz-adv-x="1128" 
d="M59 971l17 110h1077l-18 -110h-168l-156 -971h-129l154 971h-478l-153 -971h-129l153 971h-170z" />
    <glyph glyph-name="Wgrave" unicode="&#x1e80;" horiz-adv-x="1556" 
d="M279 -6l-89 1522h132l34 -818q2 -88 10 -226t13 -232h2q62 192 162 458l295 818h129l37 -840q2 -47 9 -197t9 -239h2q16 47 72 195q55 148 88 243l299 838h125l-568 -1522h-116l-62 1270h-4l-463 -1270h-116zM850 1610l-195 315h162l121 -315h-88z" />
    <glyph glyph-name="wgrave" unicode="&#x1e81;" horiz-adv-x="1271" 
d="M295 199h4q49 141 115 305l219 573h119l41 -569q18 -205 20 -309h4q23 61 62 160t59 151l219 567h121l-440 -1083h-115l-66 862h-4l-340 -862h-114l-101 1083h131l43 -579q23 -291 23 -299zM643 1194l-194 315h161l121 -315h-88z" />
    <glyph glyph-name="Wacute" unicode="&#x1e82;" horiz-adv-x="1556" 
d="M279 -6l-89 1522h132l34 -818q2 -88 10 -226t13 -232h2q62 192 162 458l295 818h129l37 -840q2 -47 9 -197t9 -239h2q16 47 72 195q55 148 88 243l299 838h125l-568 -1522h-116l-62 1270h-4l-463 -1270h-116zM864 1610l215 315h170l-295 -315h-90z" />
    <glyph glyph-name="wacute" unicode="&#x1e83;" horiz-adv-x="1271" 
d="M295 199h4q49 141 115 305l219 573h119l41 -569q18 -205 20 -309h4q23 61 62 160t59 151l219 567h121l-440 -1083h-115l-66 862h-4l-340 -862h-114l-101 1083h131l43 -579q23 -291 23 -299zM655 1194l215 315h170l-295 -315h-90z" />
    <glyph glyph-name="Wdieresis" unicode="&#x1e84;" horiz-adv-x="1556" 
d="M279 -6l-89 1522h132l34 -818q2 -88 10 -226t13 -232h2q62 192 162 458l295 818h129l37 -840q2 -47 9 -197t9 -239h2q16 47 72 195q55 148 88 243l299 838h125l-568 -1522h-116l-62 1270h-4l-463 -1270h-116zM995 1608l27 164h143l-26 -164h-144zM684 1608l27 164h145
l-27 -164h-145z" />
    <glyph glyph-name="wdieresis" unicode="&#x1e85;" horiz-adv-x="1271" 
d="M295 199h4q49 141 115 305l219 573h119l41 -569q18 -205 20 -309h4q23 61 62 160t59 151l219 567h121l-440 -1083h-115l-66 862h-4l-340 -862h-114l-101 1083h131l43 -579q23 -291 23 -299zM788 1192l27 164h143l-26 -164h-144zM477 1192l27 164h145l-26 -164h-146z" />
    <glyph glyph-name="Ygrave" unicode="&#x1ef2;" horiz-adv-x="1034" 
d="M328 0l102 633l-270 883h139l217 -748h4l455 748h139l-545 -879l-100 -637h-141zM592 1610l-195 315h162l121 -315h-88z" />
    <glyph glyph-name="ygrave" unicode="&#x1ef3;" horiz-adv-x="899" 
d="M8 -412q-110 0 -170 23l45 110q39 -16 115 -16t115 38t90 142l49 105l-154 1087h133l72 -594q35 -281 41 -325h4q41 100 148 338l254 581h129l-551 -1200q-72 -161 -140 -225q-70 -64 -180 -64zM463 1194l-195 315h162l121 -315h-88z" />
    <glyph glyph-name="space.en" unicode="&#x2002;" horiz-adv-x="1024" 
 />
    <glyph glyph-name="space.em" unicode="&#x2003;" horiz-adv-x="2048" 
 />
    <glyph glyph-name="space.tab_en" unicode="&#x2007;" 
 />
    <glyph glyph-name="space.thin" unicode="&#x2009;" horiz-adv-x="409" 
 />
    <glyph glyph-name="endash.tab" unicode="&#x2012;" 
d="M100 582l21 123h903l-18 -123h-906z" />
    <glyph glyph-name="endash" unicode="&#x2013;" horiz-adv-x="1126" 
d="M84 582l20 123h904l-19 -123h-905z" />
    <glyph glyph-name="emdash" unicode="&#x2014;" horiz-adv-x="1550" 
d="M84 582l18 123h1330l-19 -123h-1329z" />
    <glyph glyph-name="emdash.salt_em" unicode="&#x2015;" horiz-adv-x="2048" 
d="M-27 584l19 114h2048l-19 -114h-2048z" />
    <glyph glyph-name="quoteleft" unicode="&#x2018;" horiz-adv-x="483" 
d="M219 1118l29 176l119 222h63l-82 -207h62l-31 -191h-160z" />
    <glyph glyph-name="quoteright" unicode="&#x2019;" horiz-adv-x="483" 
d="M231 1118l82 209h-63l31 189h161l-26 -177l-121 -221h-64z" />
    <glyph glyph-name="quotesinglbase" unicode="&#x201a;" horiz-adv-x="483" 
d="M23 -207l81 207h-63l31 190h161l-28 -176l-119 -221h-63z" />
    <glyph glyph-name="quotedblleft" unicode="&#x201c;" horiz-adv-x="817" 
d="M553 1118l29 176l118 222h62l-80 -207h63l-32 -191h-160zM219 1118l29 176l119 222h63l-82 -207h62l-31 -191h-160z" />
    <glyph glyph-name="quotedblright" unicode="&#x201d;" horiz-adv-x="817" 
d="M565 1118l82 209h-59l28 189h158l-26 -177l-121 -221h-62zM231 1118l82 209h-63l31 189h161l-26 -177l-121 -221h-64z" />
    <glyph glyph-name="quotedblbase" unicode="&#x201e;" horiz-adv-x="817" 
d="M356 -207l80 207h-59l31 190h157l-28 -176l-119 -221h-62zM23 -207l81 207h-63l31 190h161l-28 -176l-119 -221h-63z" />
    <glyph glyph-name="dagger" unicode="&#x2020;" horiz-adv-x="970" 
d="M229 -410l226 1282l-353 -20l19 131l348 -22l66 555h143l-111 -555l355 22l-21 -131l-348 20l-180 -1282h-144z" />
    <glyph glyph-name="daggerdbl" unicode="&#x2021;" horiz-adv-x="968" 
d="M229 -410l101 492l-342 -21l20 129l336 -20l45 389l76 379l-342 -20l22 129l334 -21l56 490h143l-103 -490l347 21l-23 -129l-338 20l-41 -379l-80 -389l346 20l-22 -129l-338 21l-53 -492h-144z" />
    <glyph glyph-name="bullet" unicode="&#x2022;" horiz-adv-x="948" 
d="M467 479q-102 0 -171 68t-69 171t68 171q68 67 171 67t171 -68t68 -170q0 -103 -68 -171t-170 -68z" />
    <glyph glyph-name="ellipsis" unicode="&#x2026;" horiz-adv-x="1445" 
d="M1001 0l33 190h162l-31 -190h-164zM520 0l31 190h164l-31 -190h-164zM39 0l31 190h163l-30 -190h-164z" />
    <glyph glyph-name="perthousand" unicode="&#x2030;" horiz-adv-x="2320" 
d="M1165 84q74 0 134 80t83 239q14 74 15 170q0 213 -133 213q-170 0 -217 -319q-12 -90 -13 -174q0 -209 131 -209zM1835 84q74 0 134 80q97 129 97 409q0 213 -131 213q-172 0 -219 -319q-12 -90 -12 -174q0 -209 131 -209zM1511 571q0 -329 -139 -487q-94 -108 -214 -107
q-120 0 -181 85t-62 239q0 80 15 176q33 203 127 309t213 106t180 -84q61 -85 61 -237zM2181 571q0 -331 -138 -487q-95 -108 -215 -107q-120 0 -181 85t-62 239q0 80 14 176q33 203 127 309t214 106t180 -84q61 -85 61 -237zM391 735q74 0 134 80q95 126 98 410
q0 211 -131 211q-172 0 -220 -320q-12 -88 -12 -174q0 -207 131 -207zM270 0l990 1516h120l-989 -1516h-121zM737 1223q0 -331 -138 -487q-95 -108 -215 -107q-120 0 -180 85t-61 238q0 78 15 174q31 204 125 310t214 106t180 -83t60 -236z" />
    <glyph glyph-name="minute" unicode="&#x2032;" horiz-adv-x="419" 
d="M166 1004l104 403l33 109h135l-196 -512h-76z" />
    <glyph glyph-name="second" unicode="&#x2033;" horiz-adv-x="731" 
d="M481 1004l105 403l35 109h133l-197 -512h-76zM166 1004l104 403l33 109h135l-196 -512h-76z" />
    <glyph glyph-name="guilsinglleft" unicode="&#x2039;" horiz-adv-x="546" 
d="M199 0l-162 541l332 536h135l-330 -536l158 -541h-133z" />
    <glyph glyph-name="guilsinglright" unicode="&#x203a;" horiz-adv-x="546" 
d="M-23 0l330 541l-160 536h136l166 -536l-338 -541h-134z" />
    <glyph glyph-name="fraction" unicode="&#x2044;" horiz-adv-x="880" 
d="M-123 0l1006 1516h123l-1004 -1516h-125z" />
    <glyph glyph-name="zero.sups" unicode="&#x2070;" horiz-adv-x="817" 
d="M420 717q113 -1 176 149t63 356t-147 208q-78 0 -133 -77q-105 -147 -105 -425q1 -211 146 -211zM410 616q-250 0 -250 320q0 344 162 510q84 86 204 86t184 -86t64 -242q0 -246 -97 -417t-267 -171z" />
    <glyph glyph-name="four.sups" unicode="&#x2074;" horiz-adv-x="706" 
d="M217 944h225l66 406zM391 633l33 213h-340l10 76l428 594h117l-90 -570h121l-17 -100h-118l-35 -213h-109z" />
    <glyph glyph-name="five.sups" unicode="&#x2075;" horiz-adv-x="722" 
d="M370 616q-122 0 -174 44t-85 137l96 41q25 -66 57 -94t101 -27q178 0 178 264q0 135 -113 135q-84 0 -145 -76l-90 15l100 461h407l-24 -105h-309l-58 -256q68 57 152 57q195 0 194 -221q0 -183 -82 -279t-205 -96z" />
    <glyph glyph-name="six.sups" unicode="&#x2076;" horiz-adv-x="749" 
d="M399 715q78 1 126 71t48 179q0 141 -122 141q-94 0 -183 -94q-2 -27 -2 -82q0 -215 133 -215zM684 981q0 -149 -81 -257t-210 -108q-236 0 -235 312q0 344 150 512q83 92 202 92q158 0 227 -129l-92 -51q-49 84 -138 84t-147 -89t-79 -231q90 86 196 86q207 0 207 -221z
" />
    <glyph glyph-name="seven.sups" unicode="&#x2077;" horiz-adv-x="638" 
d="M123 633l440 778h-354l16 105h471l-16 -101l-442 -782h-115z" />
    <glyph glyph-name="eight.sups" unicode="&#x2078;" horiz-adv-x="747" 
d="M389 707q76 0 125 44t49 111q0 68 -37 108t-110 85q-100 -51 -144 -95t-43 -109q0 -64 42 -104t118 -40zM336 1298q0 -80 119 -153q79 39 113 77t34 101q0 115 -121 115q-65 0 -105 -42t-40 -98zM384 616q-132 0 -200 62t-68 155t55 155q54 62 167 120q-111 82 -111 184
t72 171q71 69 185 69t171 -57t57 -143t-43 -140q-44 -53 -139 -96q70 -46 108 -96t38 -121q0 -115 -80 -189t-212 -74z" />
    <glyph glyph-name="nine.sups" unicode="&#x2079;" horiz-adv-x="749" 
d="M354 616q-156 0 -227 129l92 52q49 -84 137 -84q174 0 228 321q-92 -88 -197 -88q-207 0 -207 221q0 152 81 258q81 107 203 107q241 1 243 -311q0 -341 -152 -512q-82 -93 -201 -93zM414 1042q94 0 182 95q2 27 2 82q0 215 -133 215q-80 0 -127 -71t-47 -179
q0 -142 123 -142z" />
    <glyph glyph-name="zero.sinf" unicode="&#x2080;" horiz-adv-x="817" 
d="M258 -324q113 0 176 150q64 150 64 356t-148 207q-78 0 -133 -77q-106 -149 -104 -425q0 -211 145 -211zM248 -424q-250 0 -250 320q0 342 162 510q84 86 204 86t184 -86t64 -242q0 -246 -97 -417t-267 -171z" />
    <glyph glyph-name="one.sinf" unicode="&#x2081;" horiz-adv-x="575" 
d="M-59 -408l16 105h139l101 647q-59 -27 -138 -27l15 103q102 2 159 55h101l-123 -778h123l-19 -105h-374z" />
    <glyph glyph-name="two.sinf" unicode="&#x2082;" horiz-adv-x="677" 
d="M412 283q0 115 -109 114q-102 0 -180 -143l-94 49q109 197 284 197q101 0 157 -54t56 -148q0 -95 -43 -166t-106 -114q-63 -44 -130 -82q-164 -94 -194 -229h381l-16 -106h-504l6 39q18 116 76 200t127 128t135 84q154 93 154 231z" />
    <glyph glyph-name="three.sinf" unicode="&#x2083;" horiz-adv-x="698" 
d="M186 -410q-211 0 -260 220l101 32q23 -84 61 -118t113 -33q74 0 120 57t46 141q0 137 -183 138h-43l15 88h63q197 0 197 178q0 104 -117 104q-92 0 -180 -94l-74 68q113 129 277 129q106 0 157 -54t51 -137q0 -84 -41 -147t-118 -88q111 -48 111 -182t-84 -218
q-83 -84 -212 -84z" />
    <glyph glyph-name="four.sinf" unicode="&#x2084;" horiz-adv-x="706" 
d="M55 -96h226l65 405zM229 -408l33 213h-340l10 76l428 594h117l-90 -569h121l-16 -101h-119l-35 -213h-109z" />
    <glyph glyph-name="five.sinf" unicode="&#x2085;" horiz-adv-x="722" 
d="M496 -49q0 -183 -82 -279t-205 -96t-175 44t-85 136l96 41q25 -65 57 -93t101 -28q178 0 178 265q0 135 -113 135q-84 0 -145 -76l-90 14l100 461h408l-25 -104h-309l-57 -256q68 57 151 57q195 0 195 -221z" />
    <glyph glyph-name="six.sinf" unicode="&#x2086;" horiz-adv-x="749" 
d="M238 -326q78 0 126 71t48 179q0 141 -123 142q-94 0 -183 -95q-2 -27 -2 -82q1 -215 134 -215zM522 -59q0 -149 -81 -257t-210 -108q-236 0 -235 311q0 344 150 512q83 92 202 93q158 0 227 -130l-92 -51q-49 84 -138 84t-146 -89t-80 -230q90 86 196 86q207 0 207 -221z
" />
    <glyph glyph-name="seven.sinf" unicode="&#x2087;" horiz-adv-x="638" 
d="M-39 -408l440 779h-354l16 104h472l-17 -100l-442 -783h-115z" />
    <glyph glyph-name="eight.sinf" unicode="&#x2088;" horiz-adv-x="747" 
d="M227 -334q76 0 125 44t49 112t-36 107q-37 40 -111 85q-100 -51 -143 -95q-43 -45 -43 -109t42 -104t117 -40zM174 258q0 -80 119 -154q80 39 114 77t33 102q0 115 -121 114q-65 0 -105 -41t-40 -98zM514 -162q0 -114 -80 -188t-212 -74t-200 62t-67 155q0 93 54 155
t167 120q-111 82 -110 184q0 102 71 171q72 69 186 69t171 -58t57 -143q0 -86 -44 -139t-138 -97q69 -47 107 -96t38 -121z" />
    <glyph glyph-name="nine.sinf" unicode="&#x2089;" horiz-adv-x="749" 
d="M193 -424q-156 0 -228 129l92 51q49 -84 138 -84q174 0 227 322q-92 -88 -197 -88q-207 0 -207 221q0 152 81 258t210 107q234 0 236 -312q0 -341 -152 -512q-81 -92 -200 -92zM252 2q94 0 182 94q2 27 2 82q0 215 -133 215q-80 -1 -127 -71t-47 -179q0 -141 123 -141z
" />
    <glyph glyph-name="Euro" unicode="&#x20ac;" horiz-adv-x="1204" 
d="M618 -29q-203 1 -304 147t-101 406v23h-217l18 112h203q8 102 25 197h-197l18 113h203q66 259 202 417t327 158q360 0 374 -426l-135 -24q-6 158 -58 242t-187 85q-135 0 -231 -124t-150 -328h372l-16 -113h-381q-16 -88 -27 -197h375l-18 -112h-363v-45q0 -408 275 -408
q117 0 195 84t136 260l125 -22q-61 -197 -180 -321t-283 -124z" />
    <glyph glyph-name="uni2117" unicode="&#x2117;" horiz-adv-x="1452" 
d="M616 780h136q160 0 159 152q0 145 -161 145h-134v-297zM508 313v865h248q262 0 262 -242q0 -254 -270 -254h-132v-369h-108zM1286 758q0 294 -161 500t-397 206t-398 -206q-160 -206 -160 -500t160 -501q160 -206 398 -206t398 206t160 501zM1372 758q0 -330 -186 -558
t-458 -229q-272 1 -458 229t-186 558t185 558t459 228t458 -228q186 -228 186 -558z" />
    <glyph glyph-name="trademark" unicode="&#x2122;" horiz-adv-x="1513" 
d="M793 633v883h125l215 -728l217 728h129v-883h-101v670l-202 -670h-89l-202 674v-674h-92zM352 633v786h-221v97h549v-97h-223v-786h-105z" />
    <glyph glyph-name="uni2126" unicode="&#x2126;" horiz-adv-x="1271" 
d="M109 672q0 389 181 631t437 241q219 0 336 -161t117 -416q0 -406 -275 -719q-66 -74 -135 -127h272l-18 -121h-412l19 115q412 344 411 860q0 205 -80 325t-243 121q-195 0 -336 -208q-141 -209 -141 -543t192 -555l-16 -115h-412l19 121h286q-90 91 -146 239t-56 312z
" />
    <glyph glyph-name="estimated" unicode="&#x212e;" horiz-adv-x="1427" 
d="M1075 733v373q-157 145 -365 145t-354 -145v-373h719zM356 651v-450q145 -145 357 -146q171 0 281 76t204 221l76 -47q-102 -160 -234 -245t-327 -85q-283 0 -459 197q-176 198 -176 484t175 481t466 195t464 -196t177 -485h-1004z" />
    <glyph glyph-name="partialdiff" unicode="&#x2202;" horiz-adv-x="978" 
d="M172 410q0 -142 57 -232t183 -90t226 156q99 156 99 395q0 147 -58 237t-185 91q-126 0 -224 -161t-98 -396zM399 -23q-168 0 -264 118t-96 319q0 295 136 477t327 182q88 0 163 -42t99 -120q-12 162 -85 304t-183 229l86 82q303 -233 303 -725q1 -410 -141 -617
t-345 -207z" />
    <glyph glyph-name="uni2206" unicode="&#x2206;" horiz-adv-x="1136" 
d="M125 115h688l-94 729q-41 328 -57 477h-5q-45 -106 -206 -473zM-59 0l686 1522h125l202 -1522h-1013z" />
    <glyph glyph-name="product" unicode="&#x220f;" horiz-adv-x="1247" 
d="M164 -410v1926h919v-1926h-137v1805h-645v-1805h-137z" />
    <glyph glyph-name="summation" unicode="&#x2211;" horiz-adv-x="970" 
d="M897 -289v-121h-823v105l397 889l-373 829v103h785v-121h-629l362 -811l-385 -873h666z" />
    <glyph glyph-name="minus" unicode="&#x2212;" horiz-adv-x="1081" 
d="M86 612v117h887v-117h-887z" />
    <glyph glyph-name="uni2215" unicode="&#x2215;" horiz-adv-x="880" 
d="M-123 0l1006 1516h123l-1004 -1516h-125z" />
    <glyph glyph-name="uni2219" unicode="&#x2219;" horiz-adv-x="544" 
d="M154 543l30 190h174l-28 -190h-176z" />
    <glyph glyph-name="radical" unicode="&#x221a;" horiz-adv-x="1112" 
d="M406 434l32 -291h4q68 160 129 291l488 1082h129l-701 -1522h-135l-141 964h-152l19 119h239z" />
    <glyph glyph-name="infinity" unicode="&#x221e;" horiz-adv-x="1333" 
d="M358 498q78 0 134 61q55 61 110 176q-58 115 -112 177t-132 63q-162 -1 -162 -239t162 -238zM962 498q82 0 129 61q46 61 46 176t-46 177q-47 62 -129 62t-136 -60q-54 -62 -111 -175q57 -117 111 -179t136 -62zM965 385q-180 0 -306 233q-129 -233 -307 -233
q-274 0 -274 351t274 351q180 0 307 -229q123 229 306 229q137 0 214 -89t77 -263t-76 -262t-215 -88z" />
    <glyph glyph-name="integral" unicode="&#x222b;" horiz-adv-x="583" 
d="M590 1405q-154 0 -176 -143l-230 -1446q-18 -119 -74 -172t-163 -54q-47 0 -64 4l17 107q20 -4 51 -4q84 0 102 115l230 1445q23 135 100 197q78 61 213 62h72l-19 -113l-28 2h-31z" />
    <glyph glyph-name="approxequal" unicode="&#x2248;" horiz-adv-x="1138" 
d="M936 401q-53 -51 -134 -47t-255 77t-213 75q-94 0 -105 -98l-98 12q11 106 67 158t133 48q77 -3 251 -75t217 -74q90 -6 100 94l100 -10q-10 -109 -63 -160zM1010 944q-10 -109 -64 -161t-134 -49q-79 3 -253 76t-215 75q-92 6 -102 -97l-99 13q9 106 65 158
q56 53 134 49t251 -77t216 -75q92 -4 100 98z" />
    <glyph glyph-name="notequal" unicode="&#x2260;" horiz-adv-x="1150" 
d="M131 389v115h322l139 323h-461v117h506l162 391h123l-162 -391h262v-117h-305l-142 -323h447v-115h-492l-155 -389h-125l158 389h-277z" />
    <glyph glyph-name="lessequal" unicode="&#x2264;" horiz-adv-x="1165" 
d="M115 137v113h919v-113h-919zM1020 328l-897 368v101l897 368v-129l-733 -288l733 -291v-129z" />
    <glyph glyph-name="greaterequal" unicode="&#x2265;" horiz-adv-x="1167" 
d="M131 137v113h920v-113h-920zM158 328v129l731 288l-731 291v129l895 -368v-101z" />
    <glyph glyph-name="lozenge" unicode="&#x25ca;" 
d="M575 139l345 619l-345 618l-344 -618zM516 0l-422 758l422 758h117l424 -758l-422 -758h-119z" />
    <glyph glyph-name="uni2713" unicode="&#x2713;" horiz-adv-x="1013" 
d="M254 -6l-158 1083h131l86 -641q16 -121 33 -291h4q55 129 127 291l488 1080h127l-699 -1522h-139z" />
    <glyph glyph-name="commaaccent" unicode="&#xf6c3;" horiz-adv-x="481" 
d="M-10 -457l80 201h-58l29 174h152l-27 -158l-115 -217h-61z" />
    <glyph glyph-name="apple" unicode="&#xf8ff;" horiz-adv-x="1591" 
d="M410 1145v49l338 -23l-23 345h145l-24 -345l340 23v-49h45l-21 -340l344 24v-147l-344 27l21 -342h-45v-43l-340 22l24 -346h-145l23 346l-338 -22v43h-48l21 342l-344 -27v147l344 -24l-21 340h48zM842 711v-283l270 14l16 269h-286zM752 711h-287l16 -267l271 -16v283z
M842 803h286l-16 270l-270 17v-287zM752 803v287l-271 -17l-16 -270h287z" />
    <glyph glyph-name="A.sc" horiz-adv-x="993" 
d="M-51 0l563 1212h133l174 -1212h-133l-49 371h-389l-168 -371h-131zM293 469h330l-35 281q-4 35 -18 137q-13 102 -19 155h-2q-21 -49 -69 -153t-60 -135z" />
    <glyph glyph-name="Agrave.sc" horiz-adv-x="993" 
d="M-51 0l563 1212h133l174 -1212h-133l-49 371h-389l-168 -371h-131zM293 469h330l-35 281q-4 35 -18 137q-13 102 -19 155h-2q-21 -49 -69 -153t-60 -135zM606 1317l-194 315h161l121 -315h-88z" />
    <glyph glyph-name="Aacute.sc" horiz-adv-x="993" 
d="M-51 0l563 1212h133l174 -1212h-133l-49 371h-389l-168 -371h-131zM293 469h330l-35 281q-4 35 -18 137q-13 102 -19 155h-2q-21 -49 -69 -153t-60 -135zM526 1317l215 315h170l-295 -315h-90z" />
    <glyph glyph-name="Acircumflex.sc" horiz-adv-x="993" 
d="M-51 0l563 1212h133l174 -1212h-133l-49 371h-389l-168 -371h-131zM293 469h330l-35 281q-4 35 -18 137q-13 102 -19 155h-2q-21 -49 -69 -153t-60 -135zM309 1309l277 323h96l172 -323h-86l-152 196l-223 -196h-84z" />
    <glyph glyph-name="Atilde.sc" horiz-adv-x="993" 
d="M-51 0l563 1212h133l174 -1212h-133l-49 371h-389l-168 -371h-131zM293 469h330l-35 281q-4 35 -18 137q-13 102 -19 155h-2q-21 -49 -69 -153t-60 -135zM733 1309q-69 0 -151 57t-111 57q-72 0 -90 -110h-88q37 223 178 223q66 0 150 -57t112 -58q75 0 88 111h86
q-33 -223 -174 -223z" />
    <glyph glyph-name="Adieresis.sc" horiz-adv-x="993" 
d="M-51 0l563 1212h133l174 -1212h-133l-49 371h-389l-168 -371h-131zM293 469h330l-35 281q-4 35 -18 137q-13 102 -19 155h-2q-21 -49 -69 -153t-60 -135zM668 1315l26 164h144l-27 -164h-143zM356 1315l27 164h145l-26 -164h-146z" />
    <glyph glyph-name="Aring.sc" horiz-adv-x="993" 
d="M762 1360q0 -141 -111 -195l168 -1165h-133l-49 371h-389l-168 -371h-131l540 1165q-69 41 -69 141t56 158q56 60 130 60t115 -46t41 -118zM293 469h330l-35 281q-4 35 -18 137q-13 102 -19 155h-2q-21 -49 -69 -153t-60 -135zM578 1217q42 1 72 41t30 98q0 94 -78 94
q-43 0 -73 -38t-29 -97q0 -98 78 -98z" />
    <glyph glyph-name="Amacron.sc" horiz-adv-x="993" 
d="M-51 0l563 1212h133l174 -1212h-133l-49 371h-389l-168 -371h-131zM293 469h330l-35 281q-4 35 -18 137q-13 102 -19 155h-2q-21 -49 -69 -153t-60 -135zM360 1315l17 117h450l-18 -117h-449z" />
    <glyph glyph-name="Abreve.sc" horiz-adv-x="993" 
d="M-51 0l563 1212h133l174 -1212h-133l-49 371h-389l-168 -371h-131zM293 469h330l-35 281q-4 35 -18 137q-13 102 -19 155h-2q-21 -49 -69 -153t-60 -135zM600 1309q-131 0 -187 87t-40 244h92q-14 -223 135 -223t209 223h88q-66 -331 -297 -331z" />
    <glyph glyph-name="Aogonek.sc" horiz-adv-x="993" 
d="M681 -385q-93 0 -136 37t-43 98q0 133 184 254l-49 367h-389l-168 -371h-131l563 1212h133l174 -1212h-57q-150 -113 -150 -231q0 -72 78 -72t170 47l29 -59q-115 -70 -208 -70zM293 469h330l-35 281q-4 35 -18 137q-13 102 -19 155h-2q-21 -49 -69 -153t-60 -135z" />
    <glyph glyph-name="B.sc" horiz-adv-x="1009" 
d="M428 111q158 0 230 63t73 201q0 193 -252 192h-221l-74 -456h244zM489 676q291 0 291 254q0 170 -227 170h-213l-66 -424h215zM551 1212q176 0 270 -68t94 -197q-1 -128 -71 -214t-178 -106l-2 -4q92 -23 145 -87t53 -165q0 -151 -96 -261t-309 -110h-420l192 1212h322z
" />
    <glyph glyph-name="C.sc" horiz-adv-x="1021" 
d="M451 -18q-188 0 -288 121q-99 122 -100 348q-1 332 141 556t380 224q190 -1 271 -101t89 -282l-129 -21q-8 150 -58 220q-50 69 -174 69t-214 -100q-172 -191 -172 -565q0 -170 67 -263q68 -92 184 -92t191 67q74 67 129 218l119 -33q-131 -366 -436 -366z" />
    <glyph glyph-name="Ccedilla.sc" horiz-adv-x="1021" 
d="M594 -209q0 -103 -75 -153t-193 -50t-209 74l57 72q76 -59 168 -60q147 0 147 107q0 61 -65 61q-47 0 -98 -41l-54 27l70 166q-135 34 -207 150t-72 307q-1 332 141 556t380 224q190 -1 271 -101t89 -282l-129 -21q-8 150 -58 220q-50 69 -174 69t-214 -100
q-172 -191 -172 -565q0 -170 67 -263q68 -92 184 -92t191 67q74 67 129 218l119 -33q-131 -367 -436 -366h-29l-41 -95q47 31 97 31t83 -34t33 -93z" />
    <glyph glyph-name="Cacute.sc" horiz-adv-x="1021" 
d="M451 -18q-188 0 -288 121q-99 122 -100 348q-1 332 141 556t380 224q190 -1 271 -101t89 -282l-129 -21q-8 150 -58 220q-50 69 -174 69t-214 -100q-172 -191 -172 -565q0 -170 67 -263q68 -92 184 -92t191 67q74 67 129 218l119 -33q-131 -366 -436 -366zM487 1317
l215 315h170l-294 -315h-91z" />
    <glyph glyph-name="Ccircumflex.sc" horiz-adv-x="1021" 
d="M451 -18q-188 0 -288 121q-99 122 -100 348q-1 332 141 556t380 224q190 -1 271 -101t89 -282l-129 -21q-8 150 -58 220q-50 69 -174 69t-214 -100q-172 -191 -172 -565q0 -170 67 -263q68 -92 184 -92t191 67q74 67 129 218l119 -33q-131 -366 -436 -366zM324 1309
l276 323h96l172 -323h-86l-151 196l-223 -196h-84z" />
    <glyph glyph-name="Cdotaccent.sc" horiz-adv-x="1021" 
d="M451 -18q-188 0 -288 121q-99 122 -100 348q-1 332 141 556t380 224q190 -1 271 -101t89 -282l-129 -21q-8 150 -58 220q-50 69 -174 69t-214 -100q-172 -191 -172 -565q0 -170 67 -263q68 -92 184 -92t191 67q74 67 129 218l119 -33q-131 -366 -436 -366zM518 1317
l27 162h162l-27 -162h-162z" />
    <glyph glyph-name="Ccaron.sc" horiz-adv-x="1021" 
d="M451 -18q-188 0 -288 121q-99 122 -100 348q-1 332 141 556t380 224q190 -1 271 -101t89 -282l-129 -21q-8 150 -58 220q-50 69 -174 69t-214 -100q-172 -191 -172 -565q0 -170 67 -263q68 -92 184 -92t191 67q74 67 129 218l119 -33q-131 -366 -436 -366zM549 1315
l-172 323h88l153 -198l220 198h84l-277 -323h-96z" />
    <glyph glyph-name="D.sc" horiz-adv-x="1042" 
d="M373 119q233 0 336 159q102 159 102 461q0 181 -84 267t-258 86h-127l-154 -973h185zM457 1212q487 0 487 -458q0 -374 -142 -564t-452 -190h-315l192 1212h230z" />
    <glyph glyph-name="Dcaron.sc" horiz-adv-x="1042" 
d="M373 119q233 0 336 159q102 159 102 461q0 181 -84 267t-258 86h-127l-154 -973h185zM457 1212q487 0 487 -458q0 -374 -142 -564t-452 -190h-315l192 1212h230zM539 1315l-172 323h88l153 -198l219 198h84l-276 -323h-96z" />
    <glyph glyph-name="E.sc" horiz-adv-x="882" 
d="M694 0h-659l192 1212h631l-20 -120h-496l-61 -396h356l-19 -114h-356l-74 -461h525z" />
    <glyph glyph-name="Egrave.sc" horiz-adv-x="882" 
d="M694 0h-659l192 1212h631l-20 -120h-496l-61 -396h356l-19 -114h-356l-74 -461h525zM569 1317l-194 315h162l120 -315h-88z" />
    <glyph glyph-name="Eacute.sc" horiz-adv-x="882" 
d="M694 0h-659l192 1212h631l-20 -120h-496l-61 -396h356l-19 -114h-356l-74 -461h525zM438 1317l215 315h170l-295 -315h-90z" />
    <glyph glyph-name="Ecircumflex.sc" horiz-adv-x="882" 
d="M694 0h-659l192 1212h631l-20 -120h-496l-61 -396h356l-19 -114h-356l-74 -461h525zM274 1309l277 323h96l172 -323h-86l-151 196l-224 -196h-84z" />
    <glyph glyph-name="Edieresis.sc" horiz-adv-x="882" 
d="M694 0h-659l192 1212h631l-20 -120h-496l-61 -396h356l-19 -114h-356l-74 -461h525zM633 1315l26 164h144l-27 -164h-143zM322 1315l26 164h146l-27 -164h-145z" />
    <glyph glyph-name="Emacron.sc" horiz-adv-x="882" 
d="M694 0h-659l192 1212h631l-20 -120h-496l-61 -396h356l-19 -114h-356l-74 -461h525zM326 1315l16 117h451l-19 -117h-448z" />
    <glyph glyph-name="Ebreve.sc" horiz-adv-x="882" 
d="M694 0h-659l192 1212h631l-20 -120h-496l-61 -396h356l-19 -114h-356l-74 -461h525zM545 1309q-131 0 -188 87q-56 87 -40 244h93q-14 -223 135 -223t209 223h88q-66 -331 -297 -331z" />
    <glyph glyph-name="Edotaccent.sc" horiz-adv-x="882" 
d="M694 0h-659l192 1212h631l-20 -120h-496l-61 -396h356l-19 -114h-356l-74 -461h525zM467 1317l27 162h161l-26 -162h-162z" />
    <glyph glyph-name="Eogonek.sc" horiz-adv-x="882" 
d="M519 -385q-93 0 -136 37t-43 98q0 129 178 250h-483l192 1212h631l-20 -120h-496l-61 -396h356l-19 -114h-356l-74 -461h525l-19 -121h-94q-150 -113 -149 -231q-1 -72 77 -72t170 47l29 -59q-115 -70 -208 -70z" />
    <glyph glyph-name="Ecaron.sc" horiz-adv-x="882" 
d="M694 0h-659l192 1212h631l-20 -120h-496l-61 -396h356l-19 -114h-356l-74 -461h525zM500 1315l-172 323h88l153 -198l219 198h84l-276 -323h-96z" />
    <glyph glyph-name="F.sc" horiz-adv-x="829" 
d="M170 0h-135l192 1212h625l-21 -120h-489l-63 -402h352l-19 -117h-352z" />
    <glyph glyph-name="G.sc" horiz-adv-x="1067" 
d="M446 -16q-194 0 -288 124t-95 343q-1 342 141 561t394 219q176 0 259 -96t93 -289l-127 -21q-10 152 -63 221q-53 68 -175 68t-213 -95t-133 -241t-42 -319q0 -174 66 -269q67 -94 195 -94t210 98t110 273h-252l17 111h372l-90 -578h-108l24 160h-4q-97 -176 -291 -176z
" />
    <glyph glyph-name="Gcircumflex.sc" horiz-adv-x="1067" 
d="M446 -16q-194 0 -288 124t-95 343q-1 342 141 561t394 219q176 0 259 -96t93 -289l-127 -21q-10 152 -63 221q-53 68 -175 68t-213 -95t-133 -241t-42 -319q0 -174 66 -269q67 -94 195 -94t210 98t110 273h-252l17 111h372l-90 -578h-108l24 160h-4q-97 -176 -291 -176z
M330 1309l276 323h96l172 -323h-86l-151 196l-223 -196h-84z" />
    <glyph glyph-name="Gbreve.sc" horiz-adv-x="1067" 
d="M446 -16q-194 0 -288 124t-95 343q-1 342 141 561t394 219q176 0 259 -96t93 -289l-127 -21q-10 152 -63 221q-53 68 -175 68t-213 -95t-133 -241t-42 -319q0 -174 66 -269q67 -94 195 -94t210 98t110 273h-252l17 111h372l-90 -578h-108l24 160h-4q-97 -176 -291 -176z
M639 1309q-131 0 -187 87t-40 244h92q-14 -223 135 -223t209 223h88q-66 -331 -297 -331z" />
    <glyph glyph-name="Gdotaccent.sc" horiz-adv-x="1067" 
d="M446 -16q-194 0 -288 124t-95 343q-1 342 141 561t394 219q176 0 259 -96t93 -289l-127 -21q-10 152 -63 221q-53 68 -175 68t-213 -95t-133 -241t-42 -319q0 -174 66 -269q67 -94 195 -94t210 98t110 273h-252l17 111h372l-90 -578h-108l24 160h-4q-97 -176 -291 -176z
M522 1317l27 162h162l-27 -162h-162z" />
    <glyph glyph-name="Gcommaaccent.sc" horiz-adv-x="1067" 
d="M279 -457l79 201h-57l27 174h151l-24 -158l-117 -217h-59zM446 -16q-194 0 -288 124t-95 343q-1 342 141 561t394 219q176 0 259 -96t93 -289l-127 -21q-10 152 -63 221q-53 68 -175 68t-213 -95t-133 -241t-42 -319q0 -174 66 -269q67 -94 195 -94t210 98t110 273h-252
l17 111h372l-90 -578h-108l24 160h-4q-97 -176 -291 -176z" />
    <glyph glyph-name="H.sc" horiz-adv-x="1079" 
d="M170 0h-135l192 1212h135l-81 -512h516l80 512h135l-193 -1212h-135l92 582h-516z" />
    <glyph glyph-name="Hcircumflex.sc" horiz-adv-x="1079" 
d="M170 0h-135l192 1212h135l-81 -512h516l80 512h135l-193 -1212h-135l92 582h-516zM352 1309l277 323h96l172 -323h-86l-152 196l-223 -196h-84z" />
    <glyph glyph-name="I.sc" horiz-adv-x="458" 
d="M184 0h-133l193 1212h133z" />
    <glyph glyph-name="Igrave.sc" horiz-adv-x="458" 
d="M184 0h-133l193 1212h133zM289 1317l-195 315h162l121 -315h-88z" />
    <glyph glyph-name="Iacute.sc" horiz-adv-x="458" 
d="M184 0h-133l193 1212h133zM270 1317l215 315h170l-295 -315h-90z" />
    <glyph glyph-name="Icircumflex.sc" horiz-adv-x="458" 
d="M184 0h-133l193 1212h133zM45 1309l277 323h96l172 -323h-86l-152 196l-223 -196h-84z" />
    <glyph glyph-name="Idieresis.sc" horiz-adv-x="458" 
d="M184 0h-133l193 1212h133zM403 1315l27 164h143l-26 -164h-144zM92 1315l27 164h145l-26 -164h-146z" />
    <glyph glyph-name="Itilde.sc" horiz-adv-x="458" 
d="M184 0h-133l193 1212h133zM471 1309q-69 0 -151 57t-111 57q-72 0 -90 -110h-88q37 223 178 223q65 0 149 -57t113 -58q73 0 88 111h86q-33 -223 -174 -223z" />
    <glyph glyph-name="Imacron.sc" horiz-adv-x="458" 
d="M184 0h-133l193 1212h133zM96 1315l17 117h450l-18 -117h-449z" />
    <glyph glyph-name="Ibreve.sc" horiz-adv-x="458" 
d="M184 0h-133l193 1212h133zM338 1309q-131 0 -187 87t-40 244h92q-14 -223 135 -223t209 223h88q-66 -331 -297 -331z" />
    <glyph glyph-name="Iogonek.sc" horiz-adv-x="458" 
d="M44 -385q-93 0 -136 37t-43 98q0 133 186 256l193 1206h133l-193 -1212h-59q-150 -113 -150 -231q0 -72 78 -72t170 47l29 -59q-115 -70 -208 -70z" />
    <glyph glyph-name="Idotaccent.sc" horiz-adv-x="458" 
d="M184 0h-133l193 1212h133zM238 1317l26 162h162l-27 -162h-161z" />
    <glyph glyph-name="J.sc" horiz-adv-x="772" 
d="M227 96q174 0 203 193l148 923h135l-150 -940q-47 -291 -327 -290q-174 -1 -293 108l77 92q98 -86 207 -86z" />
    <glyph glyph-name="Jcircumflex.sc" horiz-adv-x="772" 
d="M227 96q174 0 203 193l148 923h135l-150 -940q-47 -291 -327 -290q-174 -1 -293 108l77 92q98 -86 207 -86zM375 1309l276 323h97l172 -323h-86l-152 196l-223 -196h-84z" />
    <glyph glyph-name="K.sc" horiz-adv-x="976" 
d="M35 0l192 1212h133l-96 -594q4 6 93 100t92 97l370 397h146l-441 -467l303 -745h-135l-262 647l-192 -203l-70 -444h-133z" />
    <glyph glyph-name="Kcommaaccent.sc" horiz-adv-x="976" 
d="M236 -457l79 201h-57l29 174h151l-26 -158l-115 -217h-61zM35 0l192 1212h133l-96 -594q4 6 93 100t92 97l370 397h146l-441 -467l303 -745h-135l-262 647l-192 -203l-70 -444h-133z" />
    <glyph glyph-name="L.sc" horiz-adv-x="829" 
d="M657 0h-622l192 1212h135l-174 -1091h488z" />
    <glyph glyph-name="Lacute.sc" horiz-adv-x="829" 
d="M657 0h-622l192 1212h135l-174 -1091h488zM270 1317l215 315h170l-295 -315h-90z" />
    <glyph glyph-name="Lcommaaccent.sc" horiz-adv-x="829" 
d="M162 -457l80 201h-58l29 174h152l-27 -158l-115 -217h-61zM657 0h-622l192 1212h135l-174 -1091h488z" />
    <glyph glyph-name="Lcaron.sc" horiz-adv-x="829" 
d="M481 846l78 198h-57l26 168h148l-25 -153l-112 -213h-58zM657 0h-622l192 1212h135l-174 -1091h488z" />
    <glyph glyph-name="M.sc" horiz-adv-x="1271" 
d="M344 766l-31 215h-2q-6 -33 -17 -105t-18 -112l-120 -764h-121l192 1212h162l162 -1022h2l483 1022h166l-192 -1212h-127l116 748q28 172 39 229h-2q-2 -7 -51 -111t-51 -110l-363 -756h-104z" />
    <glyph glyph-name="N.sc" horiz-adv-x="1081" 
d="M160 0h-125l192 1212h170l279 -788q10 -31 30 -89t31 -87h2l154 964h123l-193 -1212h-123l-311 874q-33 92 -61 173h-4z" />
    <glyph glyph-name="Ntilde.sc" horiz-adv-x="1081" 
d="M160 0h-125l192 1212h170l279 -788q10 -31 30 -89t31 -87h2l154 964h123l-193 -1212h-123l-311 874q-33 92 -61 173h-4zM778 1309q-68 0 -150 57t-112 57q-72 0 -90 -110h-88q37 223 178 223q66 0 150 -57t112 -58q75 0 88 111h86q-33 -223 -174 -223z" />
    <glyph glyph-name="Nacute.sc" horiz-adv-x="1081" 
d="M160 0h-125l192 1212h170l279 -788q10 -31 30 -89t31 -87h2l154 964h123l-193 -1212h-123l-311 874q-33 92 -61 173h-4zM518 1317l215 315h170l-295 -315h-90z" />
    <glyph glyph-name="Ncommaaccent.sc" horiz-adv-x="1081" 
d="M289 -457l80 201h-58l29 174h152l-27 -158l-115 -217h-61zM160 0h-125l192 1212h170l279 -788q10 -31 30 -89t31 -87h2l154 964h123l-193 -1212h-123l-311 874q-33 92 -61 173h-4z" />
    <glyph glyph-name="Ncaron.sc" horiz-adv-x="1081" 
d="M160 0h-125l192 1212h170l279 -788q10 -31 30 -89t31 -87h2l154 964h123l-193 -1212h-123l-311 874q-33 92 -61 173h-4zM580 1315l-172 323h88l153 -198l219 198h84l-276 -323h-96z" />
    <glyph glyph-name="O.sc" horiz-adv-x="1091" 
d="M467 98q178 0 287 192t108 455q0 174 -69 272q-70 97 -199 97q-182 0 -289 -192q-106 -193 -106 -461q1 -171 69 -267t199 -96zM465 -18q-188 0 -294 128q-105 128 -105 355q0 332 146 549t386 217q186 0 290 -128t105 -355q1 -328 -147 -547t-381 -219z" />
    <glyph glyph-name="Ograve.sc" horiz-adv-x="1091" 
d="M467 98q178 0 287 192t108 455q0 174 -69 272q-70 97 -199 97q-182 0 -289 -192q-106 -193 -106 -461q1 -171 69 -267t199 -96zM465 -18q-188 0 -294 128q-105 128 -105 355q0 332 146 549t386 217q186 0 290 -128t105 -355q1 -328 -147 -547t-381 -219zM655 1317
l-194 315h162l120 -315h-88z" />
    <glyph glyph-name="Oacute.sc" horiz-adv-x="1091" 
d="M467 98q178 0 287 192t108 455q0 174 -69 272q-70 97 -199 97q-182 0 -289 -192q-106 -193 -106 -461q1 -171 69 -267t199 -96zM465 -18q-188 0 -294 128q-105 128 -105 355q0 332 146 549t386 217q186 0 290 -128t105 -355q1 -328 -147 -547t-381 -219zM522 1317
l215 315h170l-295 -315h-90z" />
    <glyph glyph-name="Ocircumflex.sc" horiz-adv-x="1091" 
d="M467 98q178 0 287 192t108 455q0 174 -69 272q-70 97 -199 97q-182 0 -289 -192q-106 -193 -106 -461q1 -171 69 -267t199 -96zM465 -18q-188 0 -294 128q-105 128 -105 355q0 332 146 549t386 217q186 0 290 -128t105 -355q1 -328 -147 -547t-381 -219zM358 1309
l277 323h96l172 -323h-86l-151 196l-224 -196h-84z" />
    <glyph glyph-name="Otilde.sc" horiz-adv-x="1091" 
d="M467 98q178 0 287 192t108 455q0 174 -69 272q-70 97 -199 97q-182 0 -289 -192q-106 -193 -106 -461q1 -171 69 -267t199 -96zM465 -18q-188 0 -294 128q-105 128 -105 355q0 332 146 549t386 217q186 0 290 -128t105 -355q1 -328 -147 -547t-381 -219zM782 1309
q-68 0 -150 57t-112 57q-72 0 -90 -110h-88q37 223 178 223q66 0 150 -57t112 -58q75 0 88 111h86q-33 -223 -174 -223z" />
    <glyph glyph-name="Odieresis.sc" horiz-adv-x="1091" 
d="M467 98q178 0 287 192t108 455q0 174 -69 272q-70 97 -199 97q-182 0 -289 -192q-106 -193 -106 -461q1 -171 69 -267t199 -96zM465 -18q-188 0 -294 128q-105 128 -105 355q0 332 146 549t386 217q186 0 290 -128t105 -355q1 -328 -147 -547t-381 -219zM717 1315l26 164
h144l-27 -164h-143zM406 1315l26 164h146l-27 -164h-145z" />
    <glyph glyph-name="Omacron.sc" horiz-adv-x="1091" 
d="M467 98q178 0 287 192t108 455q0 174 -69 272q-70 97 -199 97q-182 0 -289 -192q-106 -193 -106 -461q1 -171 69 -267t199 -96zM465 -18q-188 0 -294 128q-105 128 -105 355q0 332 146 549t386 217q186 0 290 -128t105 -355q1 -328 -147 -547t-381 -219zM410 1315l16 117
h451l-19 -117h-448z" />
    <glyph glyph-name="Obreve.sc" horiz-adv-x="1091" 
d="M467 98q178 0 287 192t108 455q0 174 -69 272q-70 97 -199 97q-182 0 -289 -192q-106 -193 -106 -461q1 -171 69 -267t199 -96zM465 -18q-188 0 -294 128q-105 128 -105 355q0 332 146 549t386 217q186 0 290 -128t105 -355q1 -328 -147 -547t-381 -219zM651 1309
q-131 0 -187 87t-40 244h92q-14 -223 135 -223t209 223h88q-66 -331 -297 -331z" />
    <glyph glyph-name="Ohungarumlaut.sc" horiz-adv-x="1091" 
d="M467 98q178 0 287 192t108 455q0 174 -69 272q-70 97 -199 97q-182 0 -289 -192q-106 -193 -106 -461q1 -171 69 -267t199 -96zM465 -18q-188 0 -294 128q-105 128 -105 355q0 332 146 549t386 217q186 0 290 -128t105 -355q1 -328 -147 -547t-381 -219zM680 1317
l217 315h172l-295 -315h-94zM397 1317l213 315h172l-293 -315h-92z" />
    <glyph glyph-name="P.sc" horiz-adv-x="952" 
d="M473 627q147 1 228 71t81 211q0 186 -239 187h-201l-74 -469h205zM537 1212q180 0 278 -74t98 -218q0 -207 -121 -307q-122 -99 -315 -99h-227l-80 -514h-135l192 1212h310z" />
    <glyph glyph-name="Q.sc" horiz-adv-x="1093" 
d="M467 96q178 0 287 193t108 456q0 174 -69 271q-70 96 -199 96q-184 0 -290 -191t-105 -460q0 -174 68 -270q69 -95 200 -95zM684 -307q-188 0 -264 77t-58 230q-143 29 -220 150t-76 315q0 332 146 549t386 217q186 0 290 -128t105 -355q0 -318 -138 -532t-361 -226
q-12 -115 34 -150t162 -35h80l-18 -112h-68z" />
    <glyph glyph-name="R.sc" horiz-adv-x="1013" 
d="M557 1212q182 0 281 -76q98 -77 98 -218q0 -319 -313 -377l174 -541h-135l-173 530h-237l-84 -530h-133l192 1212h330zM494 639q160 0 234 62t73 210q0 184 -242 185h-217l-74 -457h226z" />
    <glyph glyph-name="Racute.sc" horiz-adv-x="1013" 
d="M557 1212q182 0 281 -76q98 -77 98 -218q0 -319 -313 -377l174 -541h-135l-173 530h-237l-84 -530h-133l192 1212h330zM494 639q160 0 234 62t73 210q0 184 -242 185h-217l-74 -457h226zM483 1317l215 315h170l-295 -315h-90z" />
    <glyph glyph-name="Rcommaaccent.sc" horiz-adv-x="1013" 
d="M254 -457l80 201h-58l29 174h152l-27 -158l-115 -217h-61zM557 1212q182 0 281 -76q98 -77 98 -218q0 -319 -313 -377l174 -541h-135l-173 530h-237l-84 -530h-133l192 1212h330zM494 639q160 0 234 62t73 210q0 184 -242 185h-217l-74 -457h226z" />
    <glyph glyph-name="Rcaron.sc" horiz-adv-x="1013" 
d="M557 1212q182 0 281 -76q98 -77 98 -218q0 -319 -313 -377l174 -541h-135l-173 530h-237l-84 -530h-133l192 1212h330zM494 639q160 0 234 62t73 210q0 184 -242 185h-217l-74 -457h226zM545 1315l-172 323h88l153 -198l220 198h84l-277 -323h-96z" />
    <glyph glyph-name="S.sc" horiz-adv-x="974" 
d="M403 -18q-330 0 -405 299l123 36q29 -111 97 -167t188 -56t190 60t70 151q0 92 -54 142q-54 49 -144 101q-92 52 -130 77t-85 67q-95 84 -93 211q0 158 101 245t253 87q301 0 367 -260l-121 -41q-47 188 -252 188q-96 0 -156 -53t-61 -146q0 -93 58 -145q58 -53 144 -102
q87 -49 123 -72q126 -82 159 -160q22 -51 22 -116q0 -162 -111 -254t-283 -92z" />
    <glyph glyph-name="Sacute.sc" horiz-adv-x="974" 
d="M403 -18q-330 0 -405 299l123 36q29 -111 97 -167t188 -56t190 60t70 151q0 92 -54 142q-54 49 -144 101q-92 52 -130 77t-85 67q-95 84 -93 211q0 158 101 245t253 87q301 0 367 -260l-121 -41q-47 188 -252 188q-96 0 -156 -53t-61 -146q0 -93 58 -145q58 -53 144 -102
q87 -49 123 -72q126 -82 159 -160q22 -51 22 -116q0 -162 -111 -254t-283 -92zM465 1317l215 315h170l-295 -315h-90z" />
    <glyph glyph-name="Scircumflex.sc" horiz-adv-x="974" 
d="M403 -18q-330 0 -405 299l123 36q29 -111 97 -167t188 -56t190 60t70 151q0 92 -54 142q-54 49 -144 101q-92 52 -130 77t-85 67q-95 84 -93 211q0 158 101 245t253 87q301 0 367 -260l-121 -41q-47 188 -252 188q-96 0 -156 -53t-61 -146q0 -93 58 -145q58 -53 144 -102
q87 -49 123 -72q126 -82 159 -160q22 -51 22 -116q0 -162 -111 -254t-283 -92zM293 1309l276 323h97l172 -323h-86l-152 196l-223 -196h-84z" />
    <glyph glyph-name="Scedilla.sc" horiz-adv-x="974" 
d="M304 -412q-118 0 -210 74l58 72q76 -59 167 -60q147 0 148 107q0 61 -66 61q-47 0 -98 -41l-53 27l67 160q-254 31 -319 293l123 36q29 -111 97 -167t188 -56t190 60t70 151q0 92 -54 142q-54 49 -144 101q-92 52 -130 77t-85 67q-95 84 -93 211q0 158 101 245t253 87
q301 0 367 -260l-121 -41q-47 188 -252 188q-96 0 -156 -53t-61 -146q0 -93 58 -145q58 -53 144 -102q87 -49 123 -72q126 -82 159 -160q22 -51 22 -116q0 -162 -111 -254t-283 -92h-4l-41 -95q48 31 98 31t83 -34t32 -93q-1 -103 -75 -153t-192 -50z" />
    <glyph glyph-name="Scaron.sc" horiz-adv-x="974" 
d="M403 -18q-330 0 -405 299l123 36q29 -111 97 -167t188 -56t190 60t70 151q0 92 -54 142q-54 49 -144 101q-92 52 -130 77t-85 67q-95 84 -93 211q0 158 101 245t253 87q301 0 367 -260l-121 -41q-47 188 -252 188q-96 0 -156 -53t-61 -146q0 -93 58 -145q58 -53 144 -102
q87 -49 123 -72q126 -82 159 -160q22 -51 22 -116q0 -162 -111 -254t-283 -92zM526 1315l-172 323h88l154 -198l219 198h84l-276 -323h-97z" />
    <glyph glyph-name="Scommaaccent.sc" horiz-adv-x="974" 
d="M236 -457l79 201h-57l29 174h151l-26 -158l-115 -217h-61zM403 -18q-330 0 -405 299l123 36q29 -111 97 -167t188 -56t190 60t70 151q0 92 -54 142q-54 49 -144 101q-92 52 -130 77t-85 67q-95 84 -93 211q0 158 101 245t253 87q301 0 367 -260l-121 -41
q-47 188 -252 188q-96 0 -156 -53t-61 -146q0 -93 58 -145q58 -53 144 -102q87 -49 123 -72q126 -82 159 -160q22 -51 22 -116q0 -162 -111 -254t-283 -92z" />
    <glyph glyph-name="T.sc" horiz-adv-x="897" 
d="M401 0h-135l174 1092h-323l20 120h785l-21 -120h-326z" />
    <glyph glyph-name="Tcommaaccent.sc" horiz-adv-x="897" 
d="M197 -457l79 201h-57l29 174h151l-26 -158l-115 -217h-61zM401 0h-135l174 1092h-323l20 120h785l-21 -120h-326z" />
    <glyph glyph-name="Tcaron.sc" horiz-adv-x="897" 
d="M401 0h-135l174 1092h-323l20 120h785l-21 -120h-326zM487 1315l-172 323h88l154 -198l219 198h84l-276 -323h-97z" />
    <glyph glyph-name="U.sc" horiz-adv-x="1048" 
d="M428 -18q-401 0 -332 444l123 786h135l-127 -794q-25 -156 19 -238t184 -82q139 0 209 80t94 238l127 796h129l-131 -823q-33 -199 -134 -303t-296 -104z" />
    <glyph glyph-name="Ugrave.sc" horiz-adv-x="1048" 
d="M428 -18q-401 0 -332 444l123 786h135l-127 -794q-25 -156 19 -238t184 -82q139 0 209 80t94 238l127 796h129l-131 -823q-33 -199 -134 -303t-296 -104zM616 1317l-194 315h162l121 -315h-89z" />
    <glyph glyph-name="Uacute.sc" horiz-adv-x="1048" 
d="M428 -18q-401 0 -332 444l123 786h135l-127 -794q-25 -156 19 -238t184 -82q139 0 209 80t94 238l127 796h129l-131 -823q-33 -199 -134 -303t-296 -104zM518 1317l215 315h170l-295 -315h-90z" />
    <glyph glyph-name="Ucircumflex.sc" horiz-adv-x="1048" 
d="M428 -18q-401 0 -332 444l123 786h135l-127 -794q-25 -156 19 -238t184 -82q139 0 209 80t94 238l127 796h129l-131 -823q-33 -199 -134 -303t-296 -104zM338 1309l276 323h97l172 -323h-86l-152 196l-223 -196h-84z" />
    <glyph glyph-name="Udieresis.sc" horiz-adv-x="1048" 
d="M428 -18q-401 0 -332 444l123 786h135l-127 -794q-25 -156 19 -238t184 -82q139 0 209 80t94 238l127 796h129l-131 -823q-33 -199 -134 -303t-296 -104zM696 1315l27 164h143l-26 -164h-144zM385 1315l27 164h145l-27 -164h-145z" />
    <glyph glyph-name="Utilde.sc" horiz-adv-x="1048" 
d="M428 -18q-401 0 -332 444l123 786h135l-127 -794q-25 -156 19 -238t184 -82q139 0 209 80t94 238l127 796h129l-131 -823q-33 -199 -134 -303t-296 -104zM766 1309q-68 0 -151 57t-111 57q-72 0 -90 -110h-88q37 223 178 223q66 0 150 -57t112 -58q73 0 88 111h86
q-33 -223 -174 -223z" />
    <glyph glyph-name="Umacron.sc" horiz-adv-x="1048" 
d="M428 -18q-401 0 -332 444l123 786h135l-127 -794q-25 -156 19 -238t184 -82q139 0 209 80t94 238l127 796h129l-131 -823q-33 -199 -134 -303t-296 -104zM389 1315l17 117h450l-18 -117h-449z" />
    <glyph glyph-name="Ubreve.sc" horiz-adv-x="1048" 
d="M428 -18q-401 0 -332 444l123 786h135l-127 -794q-25 -156 19 -238t184 -82q139 0 209 80t94 238l127 796h129l-131 -823q-33 -199 -134 -303t-296 -104zM618 1309q-131 0 -187 87t-40 244h92q-14 -223 138 -223q147 0 206 223h88q-66 -331 -297 -331z" />
    <glyph glyph-name="Uring.sc" horiz-adv-x="1048" 
d="M428 -18q-401 0 -332 444l123 786h135l-127 -794q-25 -156 19 -238t184 -82q139 0 209 80t94 238l127 796h129l-131 -823q-33 -199 -134 -303t-296 -104zM627 1370q41 0 71 41t31 98q0 94 -78 95q-43 0 -73 -38t-29 -98q0 -98 78 -98zM811 1501q-1 -83 -57 -143t-132 -60
t-114 46t-39 130q0 84 56 144t130 59q74 0 115 -46t41 -130z" />
    <glyph glyph-name="Uhungarumlaut.sc" horiz-adv-x="1048" 
d="M428 -18q-401 0 -332 444l123 786h135l-127 -794q-25 -156 19 -238t184 -82q139 0 209 80t94 238l127 796h129l-131 -823q-33 -199 -134 -303t-296 -104zM657 1317l217 315h173l-295 -315h-95zM375 1317l213 315h172l-293 -315h-92z" />
    <glyph glyph-name="Uogonek.sc" horiz-adv-x="1048" 
d="M408 -385q-93 0 -136 37t-43 98q0 119 154 234q-352 23 -287 442l123 786h135l-127 -794q-25 -156 19 -238t184 -82q139 0 209 80t94 238l127 796h129l-131 -823q-31 -187 -123 -291t-268 -114q-127 -106 -127 -215q0 -72 78 -72t170 47l28 -59q-115 -70 -208 -70z" />
    <glyph glyph-name="V.sc" horiz-adv-x="972" 
d="M434 -4h-123l-168 1216h133l91 -698q4 -35 15 -135t21 -184h5q23 53 135 309l319 708h129z" />
    <glyph glyph-name="W.sc" horiz-adv-x="1359" 
d="M346 0h-117l-84 1212h134l34 -669q1 -51 7 -157t8 -165h4q23 61 62 169q40 108 55 147l256 675h120l43 -680q2 -47 8 -152t9 -163h2q56 142 114 315l248 680h125l-463 -1212h-118l-60 1012h-2z" />
    <glyph glyph-name="Wcircumflex.sc" horiz-adv-x="1359" 
d="M346 0h-117l-84 1212h134l34 -669q1 -51 7 -157t8 -165h4q23 61 62 169q40 108 55 147l256 675h120l43 -680q2 -47 8 -152t9 -163h2q56 142 114 315l248 680h125l-463 -1212h-118l-60 1012h-2zM494 1309l276 323h96l172 -323h-86l-151 196l-223 -196h-84z" />
    <glyph glyph-name="Wgrave.sc" horiz-adv-x="1359" 
d="M346 0h-117l-84 1212h134l34 -669q1 -51 7 -157t8 -165h4q23 61 62 169q40 108 55 147l256 675h120l43 -680q2 -47 8 -152t9 -163h2q56 142 114 315l248 680h125l-463 -1212h-118l-60 1012h-2zM713 1317l-195 315h162l121 -315h-88z" />
    <glyph glyph-name="Wacute.sc" horiz-adv-x="1359" 
d="M346 0h-117l-84 1212h134l34 -669q1 -51 7 -157t8 -165h4q23 61 62 169q40 108 55 147l256 675h120l43 -680q2 -47 8 -152t9 -163h2q56 142 114 315l248 680h125l-463 -1212h-118l-60 1012h-2zM733 1317l215 315h170l-295 -315h-90z" />
    <glyph glyph-name="Wdieresis.sc" horiz-adv-x="1359" 
d="M346 0h-117l-84 1212h134l34 -669q1 -51 7 -157t8 -165h4q23 61 62 169q40 108 55 147l256 675h120l43 -680q2 -47 8 -152t9 -163h2q56 142 114 315l248 680h125l-463 -1212h-118l-60 1012h-2zM854 1315l27 164h143l-27 -164h-143zM543 1315l26 164h146l-27 -164h-145z
" />
    <glyph glyph-name="X.sc" horiz-adv-x="966" 
d="M-55 0l461 655l-218 557h134l172 -446l309 446h131l-395 -563l256 -649h-131l-213 543l-375 -543h-131z" />
    <glyph glyph-name="Y.sc" horiz-adv-x="913" 
d="M412 0h-136l78 504l-229 708h131l125 -401q49 -166 59 -201h2q16 31 117 195l254 407h135l-459 -708z" />
    <glyph glyph-name="Yacute.sc" horiz-adv-x="913" 
d="M412 0h-136l78 504l-229 708h131l125 -401q49 -166 59 -201h2q16 31 117 195l254 407h135l-459 -708zM434 1317l215 315h170l-295 -315h-90z" />
    <glyph glyph-name="Ycircumflex.sc" horiz-adv-x="913" 
d="M412 0h-136l78 504l-229 708h131l125 -401q49 -166 59 -201h2q16 31 117 195l254 407h135l-459 -708zM270 1309l277 323h96l172 -323h-86l-151 196l-224 -196h-84z" />
    <glyph glyph-name="Ydieresis.sc" horiz-adv-x="913" 
d="M412 0h-136l78 504l-229 708h131l125 -401q49 -166 59 -201h2q16 31 117 195l254 407h135l-459 -708zM629 1315l26 164h144l-27 -164h-143zM317 1315l27 164h145l-26 -164h-146z" />
    <glyph glyph-name="Ygrave.sc" horiz-adv-x="913" 
d="M412 0h-136l78 504l-229 708h131l125 -401q49 -166 59 -201h2q16 31 117 195l254 407h135l-459 -708zM512 1317l-195 315h162l121 -315h-88z" />
    <glyph glyph-name="Z.sc" horiz-adv-x="917" 
d="M717 0h-758l14 100l764 996h-561l21 116h712l-14 -98l-762 -997h602z" />
    <glyph glyph-name="Zacute.sc" horiz-adv-x="917" 
d="M717 0h-758l14 100l764 996h-561l21 116h712l-14 -98l-762 -997h602zM436 1317l215 315h170l-295 -315h-90z" />
    <glyph glyph-name="Zdotaccent.sc" horiz-adv-x="917" 
d="M717 0h-758l14 100l764 996h-561l21 116h712l-14 -98l-762 -997h602zM465 1317l27 162h161l-26 -162h-162z" />
    <glyph glyph-name="Zcaron.sc" horiz-adv-x="917" 
d="M717 0h-758l14 100l764 996h-561l21 116h712l-14 -98l-762 -997h602zM498 1315l-172 323h88l153 -198l219 198h84l-276 -323h-96z" />
    <glyph glyph-name="AE.sc" horiz-adv-x="1445" 
d="M-72 0l791 1212h700l-18 -112h-496l-63 -404h358l-16 -112h-359l-77 -467h528l-19 -117h-657l62 379h-347l-245 -379h-142zM381 487h297l96 609h-2z" />
    <glyph glyph-name="Eth.sc" horiz-adv-x="1042" 
d="M373 119q233 0 336 159q102 159 102 461q0 354 -342 355h-129l-64 -404h224l-17 -104h-223l-74 -467h187zM350 0h-315l92 586h-113l17 104h114l82 522h230q487 0 487 -458q0 -373 -142 -564q-143 -190 -452 -190z" />
    <glyph glyph-name="Oslash.sc" horiz-adv-x="1091" 
d="M465 -18q-154 0 -252 86l-96 -140l-76 45l113 160q-88 125 -88 332q0 332 146 549t386 217q152 0 250 -86l100 143l76 -45l-117 -166q86 -125 86 -329q1 -328 -147 -547t-381 -219zM467 92q178 0 288 195t109 458q0 135 -39 220l-546 -797q69 -76 188 -76zM195 461
q0 -133 38 -219l547 798q-72 78 -186 78q-182 0 -291 -194q-108 -195 -108 -463z" />
    <glyph glyph-name="Thorn.sc" horiz-adv-x="948" 
d="M438 410q303 0 303 278q0 184 -237 184h-197l-74 -462h205zM508 991q369 0 369 -289q0 -209 -120 -307t-317 -98h-223l-49 -297h-133l192 1212h133l-34 -221h182z" />
    <glyph glyph-name="Dcroat.sc" horiz-adv-x="1042" 
d="M373 119q233 0 336 159q102 159 102 461q0 354 -342 355h-129l-64 -404h224l-17 -104h-223l-74 -467h187zM350 0h-315l92 586h-113l17 104h114l82 522h230q487 0 487 -458q0 -373 -142 -564q-143 -190 -452 -190z" />
    <glyph glyph-name="Hbar.sc" horiz-adv-x="1079" 
d="M260 575l-90 -575h-135l139 881h-113l17 100h112l37 231h135l-36 -231h514l37 231h135l-37 -231h117l-17 -100h-117l-139 -881h-135l90 575h-514zM279 686h514l30 195h-514z" />
    <glyph glyph-name="IJ.sc" horiz-adv-x="1183" 
d="M639 96q174 0 203 193l147 923h135l-149 -940q-47 -291 -328 -290q-174 -1 -293 108l78 92q98 -86 207 -86zM184 0h-133l193 1212h133z" />
    <glyph glyph-name="Ldot.sc" horiz-adv-x="858" 
d="M553 571l27 162h155l-26 -162h-156zM657 0h-622l192 1212h135l-174 -1091h488z" />
    <glyph glyph-name="Lslash.sc" horiz-adv-x="829" 
d="M37 0l86 547l-123 -35l18 104l123 37l88 559h131l-81 -516l229 66l-19 -107l-227 -63l-74 -471h488l-19 -121h-620z" />
    <glyph glyph-name="Eng.sc" horiz-adv-x="1081" 
d="M487 -410q-174 0 -290 107l75 90q102 -86 207 -86q172 0 203 195l16 104l-309 874q-55 147 -61 173h-4l-164 -1047h-125l192 1212h170l340 -964l156 964h123l-213 -1331q-46 -291 -316 -291z" />
    <glyph glyph-name="OE.sc" horiz-adv-x="1595" 
d="M66 465q0 332 146 549t387 217t323 -223l32 204h617l-19 -120h-495l-64 -396h357l-17 -112h-356l-74 -465h524l-18 -119h-647l22 145q-135 -163 -322 -163t-292 128q-104 128 -104 355zM467 98q178 0 287 192t108 455q0 174 -69 272q-70 97 -199 97q-182 0 -289 -192
q-106 -193 -106 -461q1 -171 69 -267t199 -96z" />
    <glyph glyph-name="Tbar.sc" horiz-adv-x="897" 
d="M813 532h-328l-84 -532h-135l84 532h-321l14 99h324l73 467h-321l18 114h785l-21 -114h-326l-73 -467h325z" />
    <glyph glyph-name="ordfeminine.sc" horiz-adv-x="739" 
d="M39 467l352 745h117l108 -745h-108l-27 199h-237l-94 -199h-111zM281 752h188l-39 323h-4z" />
    <glyph glyph-name="ordmasculine.sc" horiz-adv-x="763" 
d="M362 535q104 0 168 119q64 120 64 243t-36 183t-114 61q-111 0 -173 -119t-62 -270q-1 -217 153 -217zM354 442q-120 0 -188 84t-68 230q0 209 100 343t253 134q119 0 187 -84t69 -231q1 -208 -99 -342t-254 -134z" />
    <glyph glyph-name="germandbls.sc" horiz-adv-x="1949" 
d="M403 -18q-330 0 -405 299l123 36q29 -111 97 -167t188 -56t190 60t70 151q0 92 -54 142q-54 49 -144 101q-92 52 -130 77t-85 67q-95 84 -93 211q0 158 101 245t253 87q301 0 367 -260l-121 -41q-47 188 -252 188q-96 0 -156 -53t-61 -146q0 -93 58 -145q58 -53 144 -102
q87 -49 123 -72q126 -82 159 -160q22 -51 22 -116q0 -162 -111 -254t-283 -92zM1378 -18q-330 0 -405 299l123 36q30 -111 98 -167t186 -56t190 60q70 60 70 151q0 92 -53 142q-53 49 -145 101t-128 77q-38 25 -86 67q-95 84 -93 211q0 158 101 245t253 87q301 0 366 -260
l-120 -41q-47 188 -252 188q-97 0 -157 -53t-60 -146t58 -145q58 -53 144 -102t122 -72q126 -82 160 -160q22 -51 22 -116q0 -162 -111 -254t-283 -92z" />
    <glyph glyph-name="florin.sc" horiz-adv-x="595" 
d="M-47 -328h-37l-31 2l15 109q16 -2 55 -2q117 0 133 108l105 742h-127l14 104h129l37 266q31 213 264 213q4 0 35 -2h28l-16 -110q-33 4 -53 4q-115 0 -131 -107l-37 -264h162l-13 -104h-163l-111 -748q-31 -211 -258 -211z" />
    <glyph glyph-name="florin.tab" 
d="M164 -297q154 0 178 147l145 953h-163l20 108h160l53 346q18 139 99 199t223 62q4 0 34 -2h33l-18 -117q-14 4 -60 4q-158 0 -178 -141l-51 -351h203l-19 -108h-202l-146 -957q-23 -139 -101 -198t-218 -60q-6 0 -37 2h-33l18 115q12 -2 60 -2z" />
    <glyph glyph-name="i.trk" horiz-adv-x="432" 
d="M31 0l170 1077h133l-170 -1077h-133zM238 1313l24 157h135l-24 -157h-135z" />
    <glyph glyph-name="commaaccent.scrap" horiz-adv-x="481" 
d="M242 1192l24 158l115 217h61l-80 -201h60l-29 -174h-151z" />
    <glyph glyph-name="zero.dnom" horiz-adv-x="735" 
d="M281 86q113 0 176 150t63 356t-147 207q-78 0 -133 -77q-105 -147 -105 -425q1 -211 146 -211zM270 -14q-248 0 -250 319q0 344 162 510q84 86 205 86t184 -86t64 -242q1 -247 -97 -417t-268 -170z" />
    <glyph glyph-name="one.dnom" horiz-adv-x="493" 
d="M-37 2l17 104h139l100 648q-59 -27 -137 -27l14 102q102 2 160 56h100l-123 -779h123l-18 -104h-375z" />
    <glyph glyph-name="two.dnom" horiz-adv-x="595" 
d="M438 692q0 115 -108 115q-102 0 -180 -143l-95 49q109 197 285 196q102 0 158 -53t55 -148q0 -95 -43 -166q-42 -71 -106 -114t-131 -82q-163 -95 -193 -229h381l-17 -107h-503l6 39q18 117 77 201q58 84 126 128t134 84q154 92 154 230z" />
    <glyph glyph-name="three.dnom" horiz-adv-x="616" 
d="M209 0q-211 0 -260 219l100 33q23 -84 62 -118t113 -34t119 58q46 58 46 141q0 137 -182 137h-43l14 88h64q197 0 196 178q0 104 -116 105q-92 0 -181 -94l-73 67q113 129 276 129q106 0 158 -53t51 -137q0 -83 -41 -147t-119 -89q111 -49 111 -182t-83 -217t-212 -84z
" />
    <glyph glyph-name="four.dnom" horiz-adv-x="624" 
d="M102 313h226l65 406zM276 2l33 213h-340l11 76l428 594h116l-90 -570h121l-16 -100h-119l-35 -213h-109z" />
    <glyph glyph-name="five.dnom" horiz-adv-x="641" 
d="M231 -14q-123 0 -175 44t-85 136l97 41q26 -65 58 -93t99 -28q178 0 178 264q0 135 -112 135q-84 0 -146 -75l-90 14l101 461h407l-24 -105h-310l-57 -256q68 57 152 58q195 0 194 -222q0 -182 -82 -278t-205 -96z" />
    <glyph glyph-name="six.dnom" horiz-adv-x="667" 
d="M260 84q78 0 126 71t48 179q0 141 -123 141q-94 0 -182 -94q-2 -27 -2 -82q0 -215 133 -215zM545 350q0 -150 -81 -258t-210 -106q-236 0 -236 311q0 345 151 512q83 92 202 92q158 0 227 -129l-92 -51q-49 84 -138 84q-88 0 -146 -89t-81 -231q90 86 197 86
q207 0 207 -221z" />
    <glyph glyph-name="seven.dnom" horiz-adv-x="557" 
d="M-16 2l440 778h-354l16 105h471l-16 -101l-443 -782h-114z" />
    <glyph glyph-name="eight.dnom" horiz-adv-x="665" 
d="M250 76q76 0 125 44t49 112t-37 107q-37 40 -111 85q-100 -51 -143 -95q-43 -45 -43 -109t42 -104t118 -40zM197 668q0 -80 118 -154q80 39 114 77t34 101q0 115 -121 115q-66 0 -106 -41t-39 -98zM537 248q0 -114 -80 -188t-212 -74t-200 61t-68 155q1 94 55 156
q54 61 167 119q-111 83 -111 185t72 171t186 69t170 -58q57 -58 57 -144t-44 -139t-138 -96q70 -47 108 -96t38 -121z" />
    <glyph glyph-name="nine.dnom" horiz-adv-x="667" 
d="M215 -14q-156 0 -227 129l92 51q49 -84 137 -84q174 0 227 321q-92 -88 -196 -88q-207 0 -207 222q0 152 81 258t203 106q242 0 242 -311q0 -340 -151 -512q-82 -92 -201 -92zM274 412q94 0 183 94q2 27 2 82q0 215 -133 215q-80 0 -127 -71t-47 -179q-1 -141 122 -141z
" />
    <glyph glyph-name="zero.numr" horiz-adv-x="735" 
d="M377 707q113 -1 176 149t63 356t-147 207q-78 0 -133 -77q-105 -147 -105 -424q1 -211 146 -211zM367 606q-250 0 -250 320q0 344 162 510q85 86 205 86t184 -86t63 -242q0 -246 -97 -417t-267 -171z" />
    <glyph glyph-name="one.numr" horiz-adv-x="493" 
d="M59 623l17 104h139l100 647q-59 -27 -137 -26l15 102q102 2 159 55h101l-123 -778h123l-19 -104h-375z" />
    <glyph glyph-name="two.numr" horiz-adv-x="595" 
d="M530 1313q0 115 -108 114q-102 0 -180 -143l-95 49q109 197 285 197q102 0 158 -53t55 -149q0 -96 -43 -166q-43 -72 -106 -114t-130 -81q-164 -95 -194 -230h381l-16 -106h-504l6 39q19 116 77 200t126 128t134 84q154 92 154 231z" />
    <glyph glyph-name="three.numr" horiz-adv-x="616" 
d="M305 621q-211 0 -260 219l100 32q23 -84 62 -118t113 -33q74 0 119 57q46 57 46 142q0 137 -182 137h-43l14 88h64q197 0 197 178q0 104 -117 104q-92 0 -180 -94l-74 68q113 129 276 129q106 0 158 -53t51 -137q0 -84 -41 -148q-41 -63 -119 -88q111 -49 111 -182
t-83 -217t-212 -84z" />
    <glyph glyph-name="four.numr" horiz-adv-x="624" 
d="M174 934h225l66 405zM348 623l33 213h-340l10 75l428 594h117l-90 -569h121l-17 -100h-118l-35 -213h-109z" />
    <glyph glyph-name="five.numr" horiz-adv-x="641" 
d="M327 606q-123 0 -175 44t-84 136l96 41q26 -65 58 -93t100 -27q178 0 178 264q0 135 -113 135q-84 0 -145 -76l-90 14l100 461h407l-24 -104h-309l-58 -256q68 57 152 57q195 0 194 -221q0 -183 -82 -279t-205 -96z" />
    <glyph glyph-name="six.numr" horiz-adv-x="667" 
d="M356 705q78 1 126 71t48 178q0 141 -122 142q-94 0 -183 -95q-2 -27 -2 -81q0 -215 133 -215zM641 971q0 -149 -81 -257t-210 -108q-236 0 -235 312q0 344 150 512q83 92 202 92q158 0 227 -129l-92 -52q-49 84 -138 84q-88 0 -146 -89t-80 -230q90 86 196 86
q207 0 207 -221z" />
    <glyph glyph-name="seven.numr" horiz-adv-x="557" 
d="M80 623l440 778h-354l16 104h471l-16 -100l-442 -782h-115z" />
    <glyph glyph-name="eight.numr" horiz-adv-x="665" 
d="M346 696q76 0 125 44t49 112t-37 107q-37 40 -110 85q-99 -51 -143 -95t-44 -108q0 -65 42 -105t118 -40zM293 1288q0 -80 119 -153q80 39 114 77t33 101q0 115 -121 114q-66 0 -106 -41t-39 -98zM633 868q0 -114 -80 -188t-212 -74t-200 62q-67 62 -67 155t54 155
t167 120q-111 82 -111 184t72 171t186 69t170 -58q58 -58 58 -143q0 -86 -44 -139t-139 -97q70 -47 108 -96t38 -121z" />
    <glyph glyph-name="nine.numr" horiz-adv-x="667" 
d="M311 606q-156 0 -227 129l92 51q49 -84 137 -84q174 0 228 322q-92 -88 -197 -88q-207 0 -207 221q0 152 81 258t210 107q234 0 236 -312q0 -340 -152 -512q-82 -92 -201 -92zM371 1032q94 0 182 94q2 27 2 82q0 215 -133 215q-80 -1 -127 -71t-47 -178q0 -142 123 -142z
" />
    <glyph glyph-name="zero.salt_slash" horiz-adv-x="1118" 
d="M475 90q309 0 412 645q45 286 6 461l-637 -958q63 -148 219 -148zM213 526q0 -98 10 -170l631 947q-68 121 -205 120q-311 0 -411 -643q-25 -156 -25 -254zM475 -29q-201 -1 -301 141t-100 402q0 129 24 279q58 371 204 561t346 190t300 -140t101 -400q0 -129 -25 -279
q-60 -373 -204 -563t-345 -191z" />
    <glyph glyph-name="zero.sc" horiz-adv-x="974" 
d="M406 92q112 0 190 109q148 205 145 598q0 322 -200 321q-84 0 -151 -62q-119 -110 -167 -392q-20 -123 -20 -252q0 -322 203 -322zM395 -23q-326 0 -325 441q0 474 212 697q112 118 267 118q324 0 323 -442q0 -330 -112 -564q-56 -115 -150 -183t-215 -67z" />
    <glyph glyph-name="one.sc" horiz-adv-x="761" 
d="M569 0h-569l20 119h232l149 952q-106 -61 -239 -61l20 112q154 6 250 90h121l-172 -1093h209z" />
    <glyph glyph-name="two.sc" horiz-adv-x="872" 
d="M494 1120q-139 0 -250 -205l-101 54q139 266 359 266q143 0 219 -75t76 -216t-81 -250t-258 -205t-244 -178t-87 -194h543l-19 -117h-676l7 33q29 180 108 302q80 122 301 240q154 82 215 164t62 207q0 174 -174 174z" />
    <glyph glyph-name="three.sc" horiz-adv-x="892" 
d="M342 -23q-270 0 -346 263l115 41q33 -101 88 -145t165 -44t172 87t62 222q0 95 -57 139t-201 44h-43l18 112h50q173 0 239 62t66 200q0 160 -174 160q-123 0 -240 -153l-90 65q150 205 340 205q156 0 226 -73q70 -74 71 -196q0 -122 -66 -212t-186 -111q178 -53 178 -256
q1 -180 -103 -295t-284 -115z" />
    <glyph glyph-name="four.sc" horiz-adv-x="897" 
d="M590 1020l-434 -617h338l98 617h-2zM555 0h-125l47 293h-479l14 92l594 827h142l-130 -809h173l-15 -110h-174z" />
    <glyph glyph-name="five.sc" horiz-adv-x="890" 
d="M340 -23q-139 0 -212 68t-116 193l113 38q33 -98 81 -143t138 -45q133 0 206 114t73 263q0 229 -170 229q-131 0 -238 -145l-94 24l139 639h555l-29 -116h-430l-94 -404q84 111 219 111t203 -83t68 -235q0 -223 -113 -365t-299 -143z" />
    <glyph glyph-name="six.sc" horiz-adv-x="901" 
d="M387 90q125 0 192 100t66 265q0 199 -176 198q-158 0 -272 -123q-4 -78 -4 -118q0 -160 51 -241t143 -81zM774 463q0 -207 -105 -346t-292 -140q-150 0 -231 113q-80 113 -80 321t53 391t168 307t268 124q117 0 174 -43t96 -115l-106 -61q-31 55 -67 81t-105 25
q-129 0 -215 -134t-121 -341q51 57 132 89t157 32q142 0 208 -83t66 -220z" />
    <glyph glyph-name="seven.sc" horiz-adv-x="829" 
d="M195 0h-134l609 1092h-510l20 120h645l-20 -112z" />
    <glyph glyph-name="eight.sc" horiz-adv-x="874" 
d="M357 82q116 0 185 66t68 184q0 72 -48 128t-161 130q-145 -61 -210 -130t-65 -166q0 -96 57 -154q58 -58 174 -58zM444 694q123 52 171 114t49 163q0 152 -168 151q-102 0 -162 -57t-60 -131q-2 -74 37 -126q39 -51 133 -114zM741 330q-1 -158 -105 -256t-284 -99
q-180 0 -269 85t-87 210q0 258 315 381q-164 115 -164 259q1 144 101 233q100 90 250 90t223 -75q72 -75 72 -185q0 -238 -258 -340q106 -74 156 -143t50 -160z" />
    <glyph glyph-name="nine.sc" horiz-adv-x="903" 
d="M311 -23q-117 0 -174 43t-94 115l104 64q31 -57 67 -83t108 -26q129 0 215 136t120 345q-51 -59 -132 -93t-158 -34q-143 0 -209 83t-66 221q0 207 106 346t294 139q150 0 230 -113q80 -112 81 -320q0 -208 -53 -391t-169 -307t-270 -125zM399 557q158 0 273 125
q4 82 4 119q0 159 -52 239t-145 80q-125 0 -191 -100t-67 -264q0 -199 178 -199z" />
    <glyph glyph-name="zero.sc_salt_slash" horiz-adv-x="974" 
d="M403 90q115 0 193 110q148 207 145 599q0 70 -8 116l-493 -718q49 -107 163 -107zM543 1122q-113 0 -192 -110t-113 -266t-35 -279q0 -123 8 -170l494 719q-49 106 -162 106zM395 -23q-326 0 -325 441q0 474 212 697q112 118 267 118q324 0 323 -442q0 -330 -112 -564
q-56 -115 -150 -183t-215 -67z" />
    <glyph glyph-name="zero.tab" 
d="M824 352q124 254 124 660t-276 405q-137 0 -245 -136q-204 -257 -204 -771q1 -412 277 -412q200 0 324 254zM684 1540q397 0 397 -552q1 -274 -69 -506t-205 -370t-325 -137q-190 -1 -292 139q-100 140 -100 398q0 404 147 708q71 146 186 233q116 87 261 87z" />
    <glyph glyph-name="one.tab" 
d="M133 0l21 125h292l197 1239q-51 -29 -141 -49t-158 -21l18 123q213 8 310 99h129l-219 -1391h264l-19 -125h-694z" />
    <glyph glyph-name="two.tab" 
d="M252 1219q166 321 471 321q153 0 245 -91t91 -262t-101 -305t-304 -251t-316 -236t-139 -268h696l-21 -127h-841l6 33q45 241 164 391t389 307q168 96 249 205t81 258q0 221 -230 221q-203 0 -336 -254z" />
    <glyph glyph-name="three.tab" 
d="M471 -25q-348 0 -434 312l121 43q40 -125 116 -180q76 -56 216 -56t230 106q91 106 91 271q0 274 -322 274h-86l17 119h90q201 0 296 80t95 250q0 100 -58 162t-181 61q-172 0 -316 -190l-94 71q176 242 422 242q188 0 277 -93t89 -248t-84 -263t-231 -135
q227 -70 227 -322q0 -219 -133 -361t-348 -143z" />
    <glyph glyph-name="four.tab" 
d="M215 494h475l131 825h-2zM612 0l58 373h-621l17 100l757 1043h162l-162 -1022h215l-20 -121h-215l-58 -373h-133z" />
    <glyph glyph-name="five.tab" 
d="M475 -25q-170 0 -272 88t-137 228l120 43q72 -236 291 -236q175 0 275 144t100 340q0 139 -66 218t-180 79q-180 0 -305 -187l-98 33l172 791h692l-29 -127h-567l-119 -529q123 139 288 139t258 -105t93 -292q1 -272 -145 -450t-371 -177z" />
    <glyph glyph-name="six.tab" 
d="M524 96q154 0 252 131t98 334q0 266 -251 266q-201 0 -363 -172q-6 -72 -6 -143q0 -208 72 -312t198 -104zM1008 569q0 -250 -136 -422t-340 -172q-204 1 -308 137t-103 396q0 260 69 491q70 231 214 386t331 155q96 0 168 -33t104 -69t64 -90l-110 -66q-41 68 -91 102
t-143 33q-166 0 -284 -177t-164 -443q160 151 357 151t285 -104q87 -105 87 -275z" />
    <glyph glyph-name="seven.tab" 
d="M186 0l772 1389h-669l20 127h809l-18 -119l-774 -1397h-140z" />
    <glyph glyph-name="eight.tab" 
d="M509 86q146 0 249 85q102 85 102 226q0 98 -65 175q-66 77 -215 173q-205 -86 -298 -172t-94 -227q0 -112 88 -186t233 -74zM932 1184q0 106 -64 174t-199 68q-136 0 -215 -76q-79 -74 -78 -176t54 -166q53 -66 176 -144q172 70 249 142t77 178zM503 -29
q-218 -1 -334 105t-116 270t108 272t318 195q-127 88 -182 165t-55 179q0 170 124 278q124 107 312 107t288 -99t99 -241q0 -142 -90 -238q-90 -95 -264 -165q147 -97 216 -187t68 -209q0 -190 -137 -311t-355 -121z" />
    <glyph glyph-name="nine.tab" 
d="M432 -25q-96 0 -168 33t-104 69t-62 91l111 65q41 -67 90 -101t141 -34q168 0 286 178t165 445q-161 -154 -359 -154q-198 1 -284 105t-86 274q0 250 135 422t339 172t308 -136t104 -396t-69 -492q-71 -232 -215 -386q-144 -155 -332 -155zM915 1004q1 415 -285 415
q-140 0 -238 -131q-97 -131 -97 -332q0 -268 250 -268q205 0 364 172q6 70 6 144z" />
    <glyph glyph-name="zero.tab_salt_slash" 
d="M494 90q311 0 411 645q27 153 27 267t-19 194l-639 -958q66 -148 220 -148zM231 526q0 -98 11 -170l632 947q-68 121 -210 121t-248 -156t-160 -488q-25 -156 -25 -254zM494 -29q-200 1 -300 143t-102 400q0 129 25 279q59 371 205 561t347 190q200 0 299 -140t99 -400
q0 -121 -23 -279q-58 -373 -204 -563t-346 -191z" />
    <glyph glyph-name="endash.salt_en" horiz-adv-x="1024" 
d="M-27 584l19 114h1024l-19 -114h-1024z" />
    <glyph glyph-name="hyphen.uc" horiz-adv-x="626" 
d="M111 725l18 121h401l-20 -121h-399z" />
    <glyph glyph-name="endash.uc" horiz-adv-x="1126" 
d="M106 725l21 123h903l-18 -123h-906z" />
    <glyph glyph-name="emdash.uc" horiz-adv-x="1550" 
d="M106 725l19 123h1329l-18 -123h-1330z" />
    <glyph glyph-name="emdash.uc_salt_em" horiz-adv-x="2048" 
d="M-4 727l18 115h2048l-18 -115h-2048z" />
    <glyph glyph-name="endash.uc_salt_en" horiz-adv-x="1024" 
d="M-4 727l18 115h1024l-18 -115h-1024z" />
    <glyph glyph-name="parenleft.tab" horiz-adv-x="577" 
d="M-4 369q0 651 608 1163l66 -68q-203 -184 -338 -416q-189 -325 -193 -694q0 -403 244 -706l-88 -66q-299 344 -299 787z" />
    <glyph glyph-name="parenleft.uc" horiz-adv-x="708" 
d="M84 512q0 653 606 1163l66 -67q-430 -395 -512 -908q-16 -109 -17 -202q0 -401 242 -707l-88 -65q-297 346 -297 786z" />
    <glyph glyph-name="bracketleft.uc" horiz-adv-x="675" 
d="M-8 -266l305 1925h442l-16 -109h-307l-271 -1708h308l-19 -108h-442z" />
    <glyph glyph-name="braceleft.uc" horiz-adv-x="663" 
d="M344 -266q-250 0 -209 276l64 393q23 141 -13 191t-141 51l16 103q104 0 156 50q51 50 76 193l59 391q23 141 85 209t188 68h120l-16 -109h-76q-137 0 -161 -151l-66 -412q-23 -141 -68 -199t-129 -90v-4q74 -31 101 -90t6 -198l-66 -414q-27 -150 113 -150h76l-19 -108
h-96z" />
    <glyph glyph-name="parenright.tab" horiz-adv-x="577" 
d="M520 745q0 -650 -606 -1163l-66 66q522 482 529 1112q0 401 -242 706l88 66q297 -342 297 -787z" />
    <glyph glyph-name="parenright.uc" horiz-adv-x="708" 
d="M465 903q0 401 -242 707l86 65q299 -344 299 -786q0 -653 -606 -1163l-68 65q430 393 515 909q16 109 16 203z" />
    <glyph glyph-name="bracketright.uc" horiz-adv-x="675" 
d="M-82 -266l19 108h307l270 1708h-307l16 109h443l-306 -1925h-442z" />
    <glyph glyph-name="braceright.uc" horiz-adv-x="663" 
d="M-6 -158q72 0 110 36t52 114l65 416q21 139 67 197t132 89v4q-76 31 -103 89t-4 198l64 414q25 152 -113 151h-76l17 109h98q254 0 209 -275l-61 -393q-25 -143 11 -193t142 -50l-16 -103q-104 0 -156 -50t-76 -192l-63 -395q-19 -139 -81 -207t-187 -67h-125l18 108h76z
" />
    <glyph glyph-name="guillemotleft.uc" horiz-adv-x="892" 
d="M575 143l-163 541l333 537h136l-330 -537l160 -541h-136zM227 143l-161 541l331 537h135l-327 -537l157 -541h-135z" />
    <glyph glyph-name="guilsinglleft.uc" horiz-adv-x="546" 
d="M221 143l-162 541l332 537h135l-329 -537l157 -541h-133z" />
    <glyph glyph-name="guillemotright.uc" horiz-adv-x="892" 
d="M340 143l330 541l-160 537h135l162 -537l-332 -541h-135zM-8 143l332 541l-160 537h133l164 -537l-334 -541h-135z" />
    <glyph glyph-name="guilsinglright.uc" horiz-adv-x="546" 
d="M0 143l330 541l-160 537h135l166 -537l-338 -541h-133z" />
    <glyph glyph-name="exclam.sc" horiz-adv-x="524" 
d="M96 162h158l-25 -162h-157zM264 1212h156l-174 -882h-88z" />
    <glyph glyph-name="numbersign.sc" horiz-adv-x="1083" 
d="M92 350v115h182l52 287h-174v110h194l62 350h122l-63 -350h238l61 350h121l-60 -350h162v-110h-184l-51 -287h176v-115h-197l-61 -350h-121l61 350h-237l-62 -350h-123l64 350h-162zM395 463h236l55 291h-240z" />
    <glyph glyph-name="percent.sc" horiz-adv-x="1409" 
d="M995 76q84 0 131 118t48 248q0 168 -103 168q-59 0 -102 -60q-80 -112 -80 -293t106 -181zM989 -23q-106 0 -159 73q-52 73 -52 196q0 188 81 325t222 138q99 0 151 -72t52 -195q0 -182 -80 -324t-215 -141zM309 604q84 0 131 118t47 249q0 168 -102 168q-59 1 -102 -61
q-80 -114 -80 -294t106 -180zM227 0l799 1212h119l-797 -1212h-121zM303 506q-106 0 -159 73q-52 73 -52 195q0 188 81 324t220 137q99 0 151 -72t52 -192q0 -181 -79 -323t-214 -142z" />
    <glyph glyph-name="ampersand.sc" horiz-adv-x="1112" 
d="M-4 266q0 134 91 240t237 174q-41 122 -41 250t73 216q74 87 196 87t178 -55t56 -144q0 -244 -315 -399q92 -204 234 -365q96 135 147 344h121q-76 -268 -193 -421q94 -86 189 -89l-19 -114q-137 6 -260 108q-135 -116 -321 -116t-280 74q-93 75 -93 210zM131 272
q-1 -82 59 -133t189 -51t235 88q-74 84 -144 204t-110 206q-229 -129 -229 -314zM408 914q0 -91 30 -185q115 61 171 127t57 162q0 111 -107 110q-76 0 -114 -61q-37 -62 -37 -153z" />
    <glyph glyph-name="slash.sc" horiz-adv-x="831" 
d="M68 0h-131l794 1212h129z" />
    <glyph glyph-name="question.sc" horiz-adv-x="825" 
d="M180 0l27 162h160l-27 -162h-160zM647 963q0 160 -186 159q-137 0 -258 -153l-88 67q139 197 358 197q158 0 233 -73q74 -73 74 -180t-50 -188q-32 -56 -194 -176q-88 -65 -120 -124t-47 -166h-115q10 118 53 202t146 160q10 8 57 42t61 48q13 14 27 28t18 25q4 10 18 36
t13 96z" />
    <glyph glyph-name="backslash.sc" horiz-adv-x="831" 
d="M256 1212l410 -1212h-121l-410 1212h121z" />
    <glyph glyph-name="exclamdown.sc" horiz-adv-x="524" 
d="M231 0h-157l174 883h88zM397 1051h-157l24 161h160z" />
    <glyph glyph-name="questiondown.sc" horiz-adv-x="823" 
d="M317 -20q-159 0 -233 72t-74 188q0 153 112 250q57 52 142 112q78 60 111 120t47 165h115q-9 -119 -53 -203t-156 -166t-135 -112q-47 -57 -48 -156q0 -160 185 -160q141 0 258 154l90 -68q-142 -196 -361 -196zM426 1053l25 159h159l-24 -159h-160z" />
    <glyph glyph-name="perthousand.sc" horiz-adv-x="2009" 
d="M995 76q84 0 131 118t48 248q0 168 -103 168q-59 0 -102 -60q-80 -112 -80 -293t106 -181zM1595 76q59 0 102 62q77 113 79 304q0 168 -105 168q-86 0 -134 -114t-48 -246q0 -174 106 -174zM989 -23q-106 0 -159 73q-52 73 -52 196q0 188 81 325t222 138q99 0 151 -72
t52 -195q0 -182 -80 -324t-215 -141zM1591 -23q-106 0 -158 73t-53 196q0 188 81 325t220 138q99 0 151 -72t52 -195q0 -182 -79 -324t-214 -141zM309 604q84 0 131 118t47 249q0 168 -102 168q-59 1 -102 -61q-80 -114 -80 -294t106 -180zM227 0l799 1212h119l-797 -1212
h-121zM303 506q-106 0 -159 73q-52 73 -52 195q0 188 81 324t220 137q99 0 151 -72t52 -192q0 -181 -79 -323t-214 -142z" />
    <glyph glyph-name="numbersign.tab" 
d="M55 446v115h213l70 393h-211v115h227l78 447h119l-76 -447h307l80 447h119l-78 -447h197v-115h-215l-70 -393h213v-115h-231l-78 -446h-119l76 446h-307l-78 -446h-119l76 446h-193zM385 561h311l70 393h-309z" />
    <glyph glyph-name="percent.tab" horiz-adv-x="1748" 
d="M1221 90q106 0 164 138t63 309q6 240 -131 239q-72 0 -124 -74q-97 -138 -101 -375t129 -237zM1210 -18q-119 0 -179 86t-60 235q0 233 96 407t260 175q121 0 182 -88q61 -89 61 -237t-36 -275q-37 -127 -121 -215t-203 -88zM449 739q73 0 125 73q98 136 103 375
t-134 238q-103 0 -161 -140t-63 -310q-5 -236 130 -236zM328 0l995 1516h113l-994 -1516h-114zM437 631q-120 0 -180 87t-60 234q0 234 96 408t260 174q121 0 182 -88t61 -236t-36 -276q-37 -127 -120 -215t-203 -88z" />
    <glyph glyph-name="asterisk.tab" 
d="M436 801l-86 69l240 256l-342 27l16 107l336 -80l-151 317l106 43l94 -338l195 291l86 -72l-242 -254l346 -28l-18 -107l-336 80l151 -317l-104 -41l-94 336z" />
    <glyph glyph-name="comma.tab" horiz-adv-x="577" 
d="M80 -207l80 207h-68l31 190h166l-27 -174l-123 -223h-59z" />
    <glyph glyph-name="period.tab" horiz-adv-x="577" 
d="M92 0l31 190h166l-31 -190h-166z" />
    <glyph glyph-name="slash.tab" 
d="M27 0l985 1516h133l-985 -1516h-133z" />
    <glyph glyph-name="colon.tab" horiz-adv-x="577" 
d="M92 0l31 190h166l-31 -190h-166zM233 889l29 190h166l-29 -190h-166z" />
    <glyph glyph-name="semicolon.tab" horiz-adv-x="577" 
d="M78 -207l82 207h-68l31 190h166l-27 -172l-123 -225h-61zM233 889l29 190h166l-29 -190h-166z" />
    <glyph glyph-name="periodcentered.tab" horiz-adv-x="577" 
d="M172 543l29 190h176l-29 -190h-176z" />
    <glyph glyph-name="minute.tab" horiz-adv-x="577" 
d="M246 1004l104 403l33 109h137l-198 -512h-76z" />
    <glyph glyph-name="second.tab" 
d="M694 1004l107 403l33 109h133l-197 -512h-76zM379 1004l104 403l33 109h135l-196 -512h-76z" />
    <glyph glyph-name="periodcentered.uc" horiz-adv-x="544" 
d="M176 686l31 191h174l-29 -191h-176z" />
    <glyph glyph-name="plus.sc" horiz-adv-x="1081" 
d="M463 115v442h-383v117h383v442h121v-442h383v-117h-383v-442h-121z" />
    <glyph glyph-name="less.sc" horiz-adv-x="1167" 
d="M1024 104l-922 459v107l922 458v-129l-780 -383l780 -383v-129z" />
    <glyph glyph-name="equal.sc" horiz-adv-x="1081" 
d="M117 326v116h819v-116h-819zM117 788v119h819v-119h-819z" />
    <glyph glyph-name="greater.sc" horiz-adv-x="1167" 
d="M121 104v129l780 383l-780 383v129l923 -458v-107z" />
    <glyph glyph-name="multiply.sc" horiz-adv-x="1081" 
d="M209 209l-80 78l330 327l-330 328l80 80l330 -328l325 328l80 -80l-328 -328l328 -327l-80 -78l-325 328z" />
    <glyph glyph-name="divide.sc" horiz-adv-x="1081" 
d="M444 168v174h154v-174h-154zM80 559v117h887v-117h-887zM444 891v174h154v-174h-154z" />
    <glyph glyph-name="minus.sc" horiz-adv-x="1081" 
d="M80 557v117h887v-117h-887z" />
    <glyph glyph-name="plus.tab" 
d="M516 186v428h-385v117h385v430h125v-430h383v-117h-383v-428h-125z" />
    <glyph glyph-name="less.tab" 
d="M1022 176l-897 438v101l897 438v-129l-752 -360l752 -361v-127z" />
    <glyph glyph-name="equal.tab" 
d="M133 389v115h889v-115h-889zM133 827v117h889v-117h-889z" />
    <glyph glyph-name="greater.tab" 
d="M150 176v127l751 361l-751 360v129l894 -438v-101z" />
    <glyph glyph-name="multiply.tab" 
d="M264 266l-80 78l314 309l-314 310l82 79l312 -311l311 311l80 -79l-312 -310l314 -307l-80 -78l-313 307z" />
    <glyph glyph-name="divide.tab" 
d="M496 217v174h157v-174h-157zM131 614v117h893v-117h-893zM496 954v172h157v-172h-157z" />
    <glyph glyph-name="minus.tab" 
d="M133 614v117h889v-117h-889z" />
    <glyph glyph-name="dollar.sc" horiz-adv-x="1003" 
d="M819 324q0 -156 -101 -246t-288 -90l-20 -142h-101l23 148q-246 45 -305 285l118 38q51 -186 211 -215l78 486q-121 66 -183 136q-63 70 -63 198t87 212t253 89l19 118h100l-18 -120q221 -33 272 -248l-117 -39q-43 156 -178 180l-71 -446q100 -56 151 -94t92 -104
t41 -146zM688 301q0 88 -43 139t-131 103l-72 -447q118 4 182 60t64 145zM317 920q2 -115 138 -203l63 403q-92 -6 -146 -58t-55 -142z" />
    <glyph glyph-name="sterling.sc" horiz-adv-x="888" 
d="M131 72q86 0 137 80q-76 88 -121 88t-73 -27t-29 -70q0 -71 86 -71zM528 -25q-106 0 -192 97q-86 -96 -209 -97q-84 0 -136 42t-51 127q1 84 56 138t141 54t172 -86q38 156 -12 336h-188l16 100h141q-39 133 -39 209q0 150 89 241t239 91t202 -85t38 -231l-125 -12
q4 61 2 109t-35 78q-33 28 -111 28t-124 -61q-44 -61 -44 -149t39 -218h226l-17 -100h-182q23 -94 22 -172q0 -145 -53 -256q70 -74 135 -74q115 0 148 227h112q-47 -336 -260 -336z" />
    <glyph glyph-name="yen.sc" horiz-adv-x="907" 
d="M272 0l35 211h-248l15 102h248l22 138h-248l17 102h239l-209 659h136l163 -561l342 561h140l-420 -659h244l-17 -102h-252l-24 -138h254l-15 -102h-254l-34 -211h-134z" />
    <glyph glyph-name="Euro.sc" horiz-adv-x="983" 
d="M152 426h-164l14 102h154q8 98 16 148h-145l16 102h152q53 211 165 334q113 123 269 123q155 0 223 -92t76 -273l-121 -12q-10 142 -47 202t-140 60q-104 0 -180 -93t-118 -249h294l-16 -102h-301q-12 -68 -18 -148h294l-14 -102h-285v-6q0 -330 211 -330q88 0 148 67
q59 67 110 208l113 -29q-131 -360 -377 -361q-330 0 -329 441v10z" />
    <glyph glyph-name="dollar.scrap" horiz-adv-x="1157" 
d="M225 1128q0 168 110 277t316 115l27 157h110l-26 -164q248 -35 317 -280l-118 -43q-59 172 -222 207l-90 -570q66 -37 101 -57t88 -61q152 -117 150 -301q-1 -184 -124 -296t-344 -114l-28 -188h-111l33 192q-291 37 -367 311l123 37q37 -102 95 -160t169 -75l101 626
q-132 73 -197 133t-89 120t-24 134zM852 393q2 100 -56 167t-169 130l-90 -579q139 5 227 73t88 209zM365 1143q0 -85 50 -147t142 -117l82 524q-121 -5 -197 -69t-77 -191z" />
    <glyph glyph-name="cent.scrap" horiz-adv-x="1136" 
d="M496 -23q-45 0 -78 9l-80 -240h-107l93 277q-168 102 -168 397q0 296 137 488t350 192q27 0 39 -2l68 202h106l-74 -225q150 -63 185 -291l-123 -30q-10 55 -18 87q-6 33 -30 71t-59 57l-288 -873q23 -8 57 -8q86 0 149 57t129 181l107 -43q-155 -306 -395 -306zM289 406
q0 -184 80 -265l284 850h-18q-152 1 -249 -171t-97 -414z" />
    <glyph glyph-name="dollar.tab" 
d="M225 1128q0 168 110 277t316 115l27 157h110l-26 -164q248 -35 317 -280l-118 -43q-59 172 -222 207l-90 -572q82 -45 125 -73q44 -28 102 -80q114 -99 112 -273q-1 -175 -124 -287t-344 -114l-28 -188h-111l33 192q-291 37 -367 311l123 37q37 -102 95 -160t169 -75
l101 626q-132 73 -197 133t-89 120t-24 134zM854 393q2 100 -56 167t-169 130l-92 -579q139 5 228 73t89 209zM362 1143q0 -147 195 -264l82 524q-121 -5 -199 -69t-78 -191z" />
    <glyph glyph-name="cent.tab" 
d="M504 -23q-45 0 -78 9l-80 -240h-106l92 277q-166 100 -166 396q0 297 136 489t349 192q27 0 41 -2l68 202h104l-73 -225q150 -63 184 -291l-123 -30q-10 55 -17 87q-7 33 -31 71t-59 57l-288 -873q23 -8 59 -8q86 0 149 57q62 57 128 181l106 -43q-153 -306 -395 -306z
M297 406q0 -182 80 -265l285 850h-19q-152 1 -249 -171t-97 -414z" />
    <glyph glyph-name="sterling.tab" 
d="M215 74q102 0 170 116q-80 106 -160 107q-49 0 -83 -34t-33 -101q4 -88 106 -88zM697 -25q-132 0 -240 125q-104 -125 -252 -125q-89 1 -145 49t-56 146t66 162t169 64t191 -99q27 101 27 199t-35 249h-221l18 109h174q-43 172 -43 270q0 184 104 300t269 116
q344 0 305 -379l-127 -14q31 274 -184 274q-113 0 -174 -87q-61 -88 -61 -198t40 -282h297l-18 -109h-250q31 -135 31 -229q0 -182 -68 -321q90 -104 188 -105q68 0 113 69t74 218h119q-35 -193 -107 -297t-204 -105z" />
    <glyph glyph-name="yen.tab" 
d="M389 0l43 262h-326l19 113h324l32 196h-325l18 111h315l-270 834h143l220 -730h2l450 730h146l-537 -834h320l-19 -111h-326l-30 -196h325l-18 -113h-326l-41 -262h-139z" />
    <glyph glyph-name="Euro.tab" 
d="M174 514v31h-199l17 112h186q10 106 25 199h-178l16 111h186q68 261 207 417t333 156t280 -110t98 -324l-133 -16q-10 176 -62 252t-187 75q-135 0 -239 -124t-162 -326h383l-18 -111h-391q-20 -111 -27 -199h387l-18 -112h-375v-25q0 -424 283 -424q118 0 200 86
t148 260l121 -32q-164 -434 -471 -435q-410 0 -410 539z" />
    <glyph glyph-name="registered.salt_big" horiz-adv-x="1452" 
d="M485 348v844h242q254 0 254 -240q0 -182 -152 -229l166 -375h-112l-160 361h-133v-361h-105zM590 803h129q80 0 119 35q39 34 39 112t-39 111t-119 33h-129v-291zM170 758q0 -295 160 -502t398 -207t398 207t160 502t-161 502q-161 206 -397 206t-398 -206
q-160 -206 -160 -502zM1372 758q0 -330 -186 -558t-458 -229q-272 1 -458 229t-186 558t185 558t459 228t458 -228q186 -228 186 -558z" />
    <glyph glyph-name="space.frac" horiz-adv-x="163" 
 />
    <glyph glyph-name="space.tab" horiz-adv-x="577" 
 />
    <glyph glyph-name="space.tab_em" horiz-adv-x="2314" 
 />
    <glyph glyph-name="space.tab_thin" horiz-adv-x="286" 
 />
    <glyph glyph-name="space.thin_fra" horiz-adv-x="245" 
 />
    <glyph glyph-name="fi.sc" horiz-adv-x="1288" 
d="M170 0h-135l192 1212h625l-21 -120h-489l-63 -402h352l-19 -117h-352zM1014 0h-133l192 1212h133z" />
    <glyph glyph-name="fl.sc" horiz-adv-x="1658" 
d="M170 0h-135l192 1212h625l-21 -120h-489l-63 -402h352l-19 -117h-352zM1487 0h-623l193 1212h135l-174 -1091h487z" />
    <glyph glyph-name="dollarsc.scrap" horiz-adv-x="1003" 
d="M819 324q0 -156 -101 -246t-288 -90l-20 -142h-101l23 148q-246 45 -305 285l118 38q51 -186 211 -215l78 486q-121 66 -183 136q-63 70 -63 198t87 212t253 89l19 118h100l-18 -120q221 -33 272 -248l-117 -39q-43 156 -178 180l-71 -446q100 -56 151 -94t92 -104
t41 -146zM688 301q0 88 -43 139t-131 103l-72 -447q118 4 182 60t64 145zM317 920q2 -115 138 -203l63 403q-92 -6 -146 -58t-55 -142z" />
    </font>
</defs>
</svg>
