<?xml version="1.0" standalone="no"?>
<!DOCTYPE svg PUBLIC "-//W3C//DTD SVG 1.1//EN" "http://www.w3.org/Graphics/SVG/1.1/DTD/svg11.dtd" >
<svg xmlns="http://www.w3.org/2000/svg">
<metadata>
Created by FontPrep 20130207 at Wed Feb 24 14:44:53 2016
 By Callum Flack
Copyright 2000-2003, The Font Bureau, Inc. Designed by Cyrus Highsmith, Tobias Frere-Jones, and Font Bureau. All rights reserved.
</metadata>
<defs>
<font id="f50175ba80b800aed21afcc63f3304ef" horiz-adv-x='1024' >
  <font-face 
    font-family="BentonSans-Regular"
    font-weight="400"
    font-stretch="normal"
    units-per-em="2048"
    panose-1="2 0 5 3 4 0 0 2 0 4"
    ascent="1638"
    descent="-410"
    x-height="1081"
    cap-height="1516"
    bbox="-193 -420 2769 1958"
    underline-thickness="40"
    underline-position="-231"
    unicode-range="U+0020-FB0C"
  />
<missing-glyph horiz-adv-x="1556" 
d="M715 692h-228l13 -213l215 -12v225zM844 692v-225l213 12l12 213h-225zM715 821v228l-215 -13l-13 -215h228zM844 821h225l-12 215l-213 13v-228zM369 348l-56 -4v148l64 -5l12 205l-369 -30v190l369 -31l-12 209l-64 -4v148l56 -5l-4 54h147l-4 -62l207 -14l-31 369h190
l-30 -369l207 14l-4 62h147l-4 -54l55 5v-148l-63 4l-15 -209l369 31v-190l-369 30l15 -205l63 5v-148l-55 4l4 -57h-147l4 65l-207 13l30 -369h-190l31 369l-207 -13l4 -65h-147z" />
    <glyph glyph-name="ff" unicode="ff" horiz-adv-x="1320" 
d="M1176 1520q46 0 102 -7v-143q-29 6 -76 6q-174 0 -174 -151v-144h238v-145h-238v-936h-176v936h-436v-936h-176v936h-189v145h189v146q0 139 77 216q78 77 234 77q56 0 98 -7v-141q-37 4 -71 4q-162 0 -162 -151v-144h436v142q0 297 324 297z" />
    <glyph glyph-name="fi" unicode="fi" horiz-adv-x="1210" 
d="M852 0v1081h176v-1081h-176zM551 1520q42 0 98 -7v-143q-18 4 -71 4q-162 0 -162 -151v-142h225v-145h-225v-936h-176v936h-189v145h189v146q0 139 77 216q78 77 234 77zM850 1307v178h180v-178h-180z" />
    <glyph glyph-name="ffi" unicode="ffi" horiz-adv-x="1804" 
d="M1462 0v1081h176v-1081h-176zM1163 1520q34 0 97 -7v-143q-16 4 -72 4q-160 0 -160 -151v-142h223v-145h-223v-936h-176v936h-436v-936h-176v936h-189v145h189v146q0 139 77 216q78 77 234 77q56 0 98 -7v-143q-18 4 -71 4q-162 0 -162 -151v-142h436v140q0 141 79 220
t232 79zM1460 1307v178h180v-178h-180z" />
    <glyph glyph-name="ffl" unicode="ffl" horiz-adv-x="1804" 
d="M1462 0v1516h176v-1516h-176zM1163 1520q34 0 97 -7v-143q-16 4 -72 4q-160 0 -160 -151v-142h223v-145h-223v-936h-176v936h-436v-936h-176v936h-189v145h189v146q0 139 77 216q78 77 234 77q56 0 98 -7v-143q-18 4 -71 4q-162 0 -162 -151v-142h436v140q0 141 79 220
t232 79z" />
    <glyph glyph-name="fj" unicode="fj" horiz-adv-x="1206" 
d="M778 -412q-49 0 -106 9v133q33 -8 71 -9q109 0 109 125v1235h176v-1247q0 -118 -58 -182t-192 -64zM551 1520q42 0 98 -7v-143q-18 4 -71 4q-162 0 -162 -151v-142h225v-145h-225v-936h-176v936h-189v145h189v146q0 139 77 216q78 77 234 77zM850 1307v178h180v-178h-180
z" />
    <glyph glyph-name=".notdef" horiz-adv-x="1556" 
d="M715 692h-228l13 -213l215 -12v225zM844 692v-225l213 12l12 213h-225zM715 821v228l-215 -13l-13 -215h228zM844 821h225l-12 215l-213 13v-228zM369 348l-56 -4v148l64 -5l12 205l-369 -30v190l369 -31l-12 209l-64 -4v148l56 -5l-4 54h147l-4 -62l207 -14l-31 369h190
l-30 -369l207 14l-4 62h147l-4 -54l55 5v-148l-63 4l-15 -209l369 31v-190l-369 30l15 -205l63 5v-148l-55 4l4 -57h-147l4 65l-207 13l30 -369h-190l31 369l-207 -13l4 -65h-147z" />
    <glyph glyph-name=".null" horiz-adv-x="0" 
 />
    <glyph glyph-name="nonmarkingreturn" horiz-adv-x="681" 
 />
    <glyph glyph-name="space" unicode=" " horiz-adv-x="479" 
 />
    <glyph glyph-name="exclam" unicode="!" horiz-adv-x="657" 
d="M225 0v211h211v-211h-211zM274 426l-53 1090h219l-51 -1090h-115z" />
    <glyph glyph-name="quotedbl" unicode="&#x22;" horiz-adv-x="849" 
d="M160 1516h168v-121l-35 -402h-98l-35 402v121zM522 1516h166v-121l-35 -402h-96l-35 402v121z" />
    <glyph glyph-name="numbersign" unicode="#" horiz-adv-x="1470" 
d="M510 573h362l76 369h-360zM82 432v141h266l76 369h-254v141h285l90 433h162l-91 -433h363l90 433h162l-90 -433h245v-141h-274l-78 -369h264v-141h-292l-93 -432h-161l90 432h-361l-92 -432h-162l90 432h-235z" />
    <glyph glyph-name="dollar" unicode="$" horiz-adv-x="1339" 
d="M1042 389q0 121 -79 184q-80 63 -236 113v-553q315 23 315 256zM610 1382q-139 -8 -210 -71q-70 -63 -70 -165t70 -160q71 -58 210 -101v497zM158 1135q0 163 120 273t326 122v147h127v-151q274 -27 420 -258l-129 -97q-59 95 -125 145t-170 62v-528q113 -30 185 -60
t150 -80q154 -100 152 -307q0 -173 -128 -287t-355 -128v-178h-127v180q-182 14 -303 97t-186 198l131 86q72 -106 155 -166q84 -59 209 -72v586q-104 31 -173 59q-188 75 -244 192q-35 71 -35 165z" />
    <glyph glyph-name="percent" unicode="%" horiz-adv-x="2037" 
d="M1565 770q-97 0 -147 -89t-50 -240t52 -239t146 -89q95 0 146 91q51 92 51 242t-51 237t-147 87zM473 748q94 0 145 90q52 90 52 240t-52 237q-52 88 -146 88q-95 0 -145 -89q-51 -89 -51 -240q0 -150 52 -238t145 -88zM1919 446q0 -210 -95 -338t-260 -128t-258 126
q-94 126 -94 335q0 210 96 337t260 127q163 0 257 -125t94 -334zM487 0l906 1516h159l-905 -1516h-160zM471 612q-166 0 -259 125t-93 336t96 338t259 127t257 -125t94 -335t-94 -338t-260 -128z" />
    <glyph glyph-name="ampersand" unicode="&#x26;" horiz-adv-x="1484" 
d="M252 393q0 -272 351 -272q177 0 308 106q-113 107 -239 267t-174 229q-246 -143 -246 -330zM686 1401q-88 0 -140 -56q-52 -57 -52 -173t86 -263q137 72 210 146t72 178q0 72 -44 120t-132 48zM589 -29q-253 0 -385 110t-132 280q0 169 95 279t259 196q-102 182 -102 340
t96 263t264 105t254 -85t86 -223t-99 -240t-280 -193q33 -51 149 -201t226 -258q117 160 149 418h164q-43 -309 -192 -510q152 -117 301 -117v-155q-233 8 -414 151q-186 -160 -439 -160z" />
    <glyph glyph-name="quotesingle" unicode="'" horiz-adv-x="489" 
d="M160 1516h168v-121l-35 -402h-98l-35 402v121z" />
    <glyph glyph-name="parenleft" unicode="(" horiz-adv-x="817" 
d="M121 563q0 289 129 529t385 454l80 -88q-403 -383 -403 -898t407 -896l-84 -84q-514 432 -514 983z" />
    <glyph glyph-name="parenright" unicode=")" horiz-adv-x="817" 
d="M504 563q0 514 -404 895l82 88q256 -214 384 -454t128 -529q0 -553 -512 -983l-84 84q190 180 298 410t108 489z" />
    <glyph glyph-name="asterisk" unicode="*" horiz-adv-x="1040" 
d="M362 702l-116 68l209 303l-369 -24v127l371 -27l-211 303l116 70l158 -334l158 334l117 -70l-209 -303l368 27v-127l-368 24l209 -303l-115 -68l-160 334z" />
    <glyph glyph-name="plus" unicode="+" horiz-adv-x="1306" 
d="M578 158v450h-443v148h443v450h151v-450h445v-148h-445v-450h-151z" />
    <glyph glyph-name="comma" unicode="," horiz-adv-x="555" 
d="M172 0v215h211v-190l-104 -240h-82l55 215h-80z" />
    <glyph glyph-name="hyphen" unicode="-" horiz-adv-x="731" 
d="M127 573v140h477v-140h-477z" />
    <glyph glyph-name="period" unicode="." horiz-adv-x="555" 
d="M172 0v215h211v-215h-211z" />
    <glyph glyph-name="slash" unicode="/" horiz-adv-x="1159" 
d="M47 0l881 1516h184l-881 -1516h-184z" />
    <glyph glyph-name="zero" unicode="0" horiz-adv-x="1353" 
d="M287 759q1 -304 105 -467t287 -163t286 162q102 162 102 466t-103 466q-102 161 -288 161t-288 -160q-101 -161 -101 -465zM678 -29q-268 0 -420 213q-152 214 -152 574t152 573t420 213t418 -213t150 -573t-150 -574q-150 -213 -418 -213z" />
    <glyph glyph-name="one" unicode="1" horiz-adv-x="894" 
d="M111 0v160h284v1167q-131 -70 -280 -70v160q190 6 288 99h168v-1356h254v-160h-714z" />
    <glyph glyph-name="two" unicode="2" horiz-adv-x="1212" 
d="M90 0v33q0 178 108 339t390 341q178 115 249 199t71 204q0 121 -77 195q-76 74 -208 73q-233 0 -371 -249l-139 86q178 324 518 323q209 0 331 -116t121 -304q0 -152 -83 -268t-298 -250q-383 -244 -409 -446h799v-160h-1002z" />
    <glyph glyph-name="three" unicode="3" horiz-adv-x="1222" 
d="M588 -29q-170 0 -308 72t-227 205l131 98q152 -217 404 -217q160 0 252 76q92 75 92 223t-110 224t-357 75h-62v150h72q227 0 324 66q96 67 96 198q0 242 -301 241q-211 0 -356 -172l-117 109q193 223 487 223q229 0 347 -106t118 -260t-78 -247t-217 -124
q332 -66 332 -393q0 -195 -142 -318t-380 -123z" />
    <glyph glyph-name="four" unicode="4" horiz-adv-x="1267" 
d="M793 508v797h-5l-528 -797h533zM793 0v350h-732v137l691 1029h215v-1008h256v-158h-256v-350h-174z" />
    <glyph glyph-name="five" unicode="5" horiz-adv-x="1202" 
d="M584 -29q-164 0 -297 70t-217 188l120 111q168 -211 390 -211q176 0 268 105q92 106 92 270t-90 255t-240 91q-209 0 -334 -176l-129 45l60 797h823l-14 -162h-664l-37 -484q117 131 330 131t343 -135q130 -136 130 -366t-144 -380t-390 -149z" />
    <glyph glyph-name="six" unicode="6" horiz-adv-x="1267" 
d="M669 125q157 0 247 93t92 250q0 157 -81 245t-249 88q-115 -1 -220 -57t-171 -144q21 -240 123 -358t259 -117zM1182 477q0 -219 -148 -363t-386 -143q-238 0 -390 194t-152 561q0 366 174 592t441 226q221 0 371 -119l-91 -133q-125 94 -286 94q-195 0 -312 -175
t-120 -449q185 192 417 192t357 -129t125 -348z" />
    <glyph glyph-name="seven" unicode="7" horiz-adv-x="1120" 
d="M88 1354v162h956v-152l-630 -1364h-185l627 1354h-768z" />
    <glyph glyph-name="eight" unicode="8" horiz-adv-x="1255" 
d="M629 117q166 -1 269 71t103 189t-91 195t-294 161q-194 -88 -278 -166q-84 -79 -84 -191t104 -186q105 -73 271 -73zM936 1164q0 95 -79 164t-227 69t-230 -67t-81 -162q0 -96 71 -158t247 -138q167 74 233 136t66 156zM628 -33q-255 0 -405 114t-149 290q0 147 98 247
t291 183q-162 76 -241 160q-79 85 -79 225t132 252q133 112 355 110q222 0 351 -110t129 -250q0 -139 -79 -223t-243 -158q203 -88 297 -183q95 -95 95 -261t-148 -281t-404 -115z" />
    <glyph glyph-name="nine" unicode="9" horiz-adv-x="1267" 
d="M590 715q115 0 219 56t170 144q-19 240 -121 357t-259 117q-157 -1 -248 -93t-91 -249t80 -245t250 -87zM547 -29q-233 0 -387 131l88 134q139 -109 305 -109q193 0 309 176t121 451q-185 -193 -417 -193t-356 129t-124 348q0 218 147 362t384 144t390 -194t153 -560
q0 -368 -174 -594q-173 -226 -439 -225z" />
    <glyph glyph-name="colon" unicode=":" horiz-adv-x="563" 
d="M176 0v215h211v-215h-211zM176 864v217h211v-217h-211z" />
    <glyph glyph-name="semicolon" unicode=";" horiz-adv-x="563" 
d="M176 0v215h211v-188l-106 -242h-82l57 215h-80zM176 864v217h211v-217h-211z" />
    <glyph glyph-name="less" unicode="&#x3c;" horiz-adv-x="1306" 
d="M1192 139l-1083 465v119l1083 465v-158l-885 -366l885 -367v-158z" />
    <glyph glyph-name="equal" unicode="=" horiz-adv-x="1306" 
d="M135 362v142h1034v-142h-1034zM135 829v142h1034v-142h-1034z" />
    <glyph glyph-name="greater" unicode="&#x3e;" horiz-adv-x="1306" 
d="M119 139v158l885 367l-885 366v158l1083 -465v-119z" />
    <glyph glyph-name="question" unicode="?" horiz-adv-x="1124" 
d="M403 0v211h209v-211h-209zM430 580q0 182 191 294q129 80 176 134t47 156q0 100 -76 160t-207 60q-215 0 -364 -196l-121 100q203 256 497 256q207 0 328 -102t121 -252t-66 -234q-66 -82 -192 -154t-155 -138q-30 -66 -29 -240h-144q-6 66 -6 156z" />
    <glyph glyph-name="at" unicode="@" horiz-adv-x="1777" 
d="M776 444q139 0 268 123l62 408q-94 109 -228 109t-212 -122q-80 -122 -80 -294q0 -224 190 -224zM883 -29q-348 0 -568 218q-219 219 -219 567t224 568t570 220q345 0 568 -215t223 -551q0 -211 -99 -336t-257 -125q-199 0 -248 156q-156 -145 -336 -145q-137 0 -219 83
t-82 242q0 238 119 396t303 157q152 0 260 -108l15 92h143l-90 -606q-12 -76 28 -123t134 -47t164 93q68 93 67 267q0 299 -194 488q-195 188 -499 188t-498 -194t-194 -500t194 -500q192 -195 493 -195q223 0 411 107l43 -74q-202 -123 -456 -123z" />
    <glyph glyph-name="A" unicode="A" horiz-adv-x="1392" 
d="M444 592h492l-242 711h-4zM66 0l536 1522h189l536 -1522h-186l-150 434h-602l-149 -434h-174z" />
    <glyph glyph-name="B" unicode="B" horiz-adv-x="1415" 
d="M365 158h395q358 0 358 270t-395 270h-358v-540zM365 854h348q358 0 358 254q0 131 -85 189t-269 59h-352v-502zM186 0v1516h543q250 0 384 -96t134 -283q0 -147 -78 -235t-202 -116v-4q149 -30 239 -120t90 -248q0 -194 -137 -304t-387 -110h-586z" />
    <glyph glyph-name="C" unicode="C" horiz-adv-x="1443" 
d="M756 -29q-293 0 -468 212q-175 213 -175 573t178 574t465 214q444 0 561 -465l-172 -47q-51 178 -141 262t-250 84q-211 0 -335 -166t-124 -456t124 -455q124 -166 339 -166q317 0 411 367l170 -39q-57 -231 -204 -362q-148 -130 -379 -130z" />
    <glyph glyph-name="D" unicode="D" horiz-adv-x="1464" 
d="M367 162h241q281 0 421 144t140 450t-142 450q-142 143 -423 144h-237v-1188zM186 0v1516h400q372 0 568 -188t196 -567q0 -377 -199 -569t-565 -192h-400z" />
    <glyph glyph-name="E" unicode="E" horiz-adv-x="1247" 
d="M186 0v1516h930v-166h-749v-473h557v-162h-557v-551h792v-164h-973z" />
    <glyph glyph-name="F" unicode="F" horiz-adv-x="1165" 
d="M186 0v1516h910v-166h-729v-488h536v-162h-536v-700h-181z" />
    <glyph glyph-name="G" unicode="G" horiz-adv-x="1495" 
d="M745 -29q-299 0 -465 219q-166 218 -167 574q0 356 179 568t466 212q442 0 561 -469l-168 -43q-53 184 -145 265t-250 81q-195 0 -328 -154t-133 -457q0 -304 129 -469q130 -165 324 -165t303 117t110 323h-348v152h522v-725h-157v227h-4q-51 -109 -159 -183t-270 -73z
" />
    <glyph glyph-name="H" unicode="H" horiz-adv-x="1513" 
d="M186 0v1516h181v-635h780v635h180v-1516h-180v715h-780v-715h-181z" />
    <glyph glyph-name="I" unicode="I" horiz-adv-x="593" 
d="M207 0v1516h180v-1516h-180z" />
    <glyph glyph-name="J" unicode="J" horiz-adv-x="1034" 
d="M434 -29q-242 0 -385 199l121 102q104 -143 258 -143q256 0 256 293v1094h180v-1106q0 -211 -114 -325t-316 -114z" />
    <glyph glyph-name="K" unicode="K" horiz-adv-x="1388" 
d="M186 0v1516h181v-783l686 783h217l-520 -578l591 -938h-206l-504 801l-264 -289v-512h-181z" />
    <glyph glyph-name="L" unicode="L" horiz-adv-x="1165" 
d="M186 0v1516h181v-1352h729v-164h-910z" />
    <glyph glyph-name="M" unicode="M" horiz-adv-x="1798" 
d="M186 0v1516h236l477 -1289h4l469 1289h240v-1516h-178v1227h-4q-12 -49 -93 -279l-362 -948h-162l-362 948q-66 176 -95 285h-4v-1233h-166z" />
    <glyph glyph-name="N" unicode="N" 
d="M186 0v1516h191l797 -1199h4v1199h170v-1516h-162l-826 1231h-4v-1231h-170z" />
    <glyph glyph-name="O" unicode="O" 
d="M767 133q212 0 342 167t130 458q0 290 -130 456t-342 166t-342 -166t-130 -456t130 -458q130 -167 342 -167zM768 -29q-287 0 -471 214q-184 215 -184 573t184 572t471 214t469 -213t182 -573t-182 -574t-469 -213z" />
    <glyph glyph-name="P" unicode="P" horiz-adv-x="1329" 
d="M367 801h331q186 0 279 64q92 65 92 211t-92 211t-281 65h-329v-551zM186 0v1516h514q256 0 402 -106t145 -330q1 -224 -151 -332t-408 -107h-321v-641h-181z" />
    <glyph glyph-name="Q" unicode="Q" 
d="M766 131q211 0 341 168t130 459q0 290 -129 456t-341 166t-343 -166t-131 -456t131 -459q131 -168 342 -168zM1126 -385q-223 0 -340 100t-120 267q-246 32 -400 242t-154 550t187 555q186 215 468 215t467 -215t185 -558q1 -343 -159 -553t-412 -238q14 -121 95 -165
t237 -44h104v-156h-158z" />
    <glyph glyph-name="R" unicode="R" horiz-adv-x="1386" 
d="M365 813h331q186 0 279 61q92 62 92 208t-92 208t-281 62h-329v-539zM186 0v1516h521q260 0 399 -109t139 -315q0 -342 -352 -416l373 -676h-197l-362 653h-342v-653h-179z" />
    <glyph glyph-name="S" unicode="S" horiz-adv-x="1345" 
d="M1225 390q1 -186 -149 -302q-150 -117 -378 -117q-228 1 -376 107q-150 106 -211 289l151 67q113 -303 430 -303q162 0 258 66q96 65 96 181t-79 184q-81 68 -325 142q-244 76 -362 166t-118 268t136 293q136 113 346 113t343 -92t197 -248l-144 -80q-115 256 -393 256
q-141 0 -224 -62t-83 -170t82 -167t326 -135t360 -173q117 -97 117 -283z" />
    <glyph glyph-name="T" unicode="T" horiz-adv-x="1275" 
d="M547 0v1350h-481v166h1144v-166h-483v-1350h-180z" />
    <glyph glyph-name="U" unicode="U" horiz-adv-x="1468" 
d="M1296 528q0 -248 -146 -402t-420 -153q-276 0 -417 152t-141 399v992h180v-967q0 -190 95 -302t289 -112t288 109t94 301v971h178v-988z" />
    <glyph glyph-name="V" unicode="V" horiz-adv-x="1363" 
d="M598 -6l-532 1522h184l434 -1280h4l436 1280h174l-532 -1522h-168z" />
    <glyph glyph-name="W" unicode="W" horiz-adv-x="1906" 
d="M477 0l-403 1516h182l223 -879q66 -248 88 -371h4q31 162 86 369l211 881h183l217 -887q74 -305 84 -363h4q16 82 84 357l221 893h172l-401 -1516h-166l-305 1268h-5l-313 -1268h-166z" />
    <glyph glyph-name="X" unicode="X" horiz-adv-x="1372" 
d="M66 0l520 809l-457 707h207l358 -564l353 564h190l-453 -705l523 -811h-197l-428 668l-430 -668h-186z" />
    <glyph glyph-name="Y" unicode="Y" horiz-adv-x="1292" 
d="M555 0v664l-510 852h193l411 -699l410 699h188l-512 -852v-664h-180z" />
    <glyph glyph-name="Z" unicode="Z" horiz-adv-x="1290" 
d="M82 0v127l887 1237h-830v152h1051v-132l-881 -1234h881v-150h-1108z" />
    <glyph glyph-name="bracketleft" unicode="[" horiz-adv-x="817" 
d="M172 -410v1926h555v-132h-377v-1663h377v-131h-555z" />
    <glyph glyph-name="backslash" unicode="\" horiz-adv-x="1138" 
d="M918 0l-881 1516h184l881 -1516h-184z" />
    <glyph glyph-name="bracketright" unicode="]" horiz-adv-x="817" 
d="M88 -410v131h377v1661h-377v134h555v-1926h-555z" />
    <glyph glyph-name="asciicircum" unicode="^" horiz-adv-x="1060" 
d="M201 1192l264 330h129l264 -330h-106l-224 192l-221 -192h-106z" />
    <glyph glyph-name="underscore" unicode="_" horiz-adv-x="1024" 
d="M0 -270v137h1024v-137h-1024z" />
    <glyph glyph-name="grave" unicode="`" horiz-adv-x="1024" 
d="M569 1198l-290 324h215l192 -324h-117z" />
    <glyph glyph-name="a" unicode="a" horiz-adv-x="1132" 
d="M446 123q205 0 367 158v303q-297 -47 -423 -121t-126 -180q0 -78 48 -119t134 -41zM395 -16q-141 0 -223 72t-82 200q0 172 168 284t555 167v49q0 200 -204 200t-392 -163l-92 110q219 201 502 201q360 0 360 -361v-477q0 -190 31 -266h-180q-25 78 -25 150
q-178 -166 -418 -166z" />
    <glyph glyph-name="b" unicode="b" horiz-adv-x="1226" 
d="M634 127q318 0 318 414q0 201 -84 306t-221 105q-164 0 -315 -166v-495q146 -164 302 -164zM686 1104q198 0 320 -144t122 -417q0 -271 -126 -415t-322 -144q-198 0 -348 155v-139h-176v1516h176v-586q156 174 354 174z" />
    <glyph glyph-name="c" unicode="c" horiz-adv-x="1097" 
d="M575 -23q-201 0 -341 150t-140 420q0 269 148 413t348 144q299 0 424 -303l-150 -62q-82 215 -278 215q-131 0 -222 -100q-92 -100 -92 -305t85 -315t225 -109q104 0 172 50t118 167l146 -57q-70 -147 -174 -228q-105 -80 -269 -80z" />
    <glyph glyph-name="d" unicode="d" horiz-adv-x="1226" 
d="M592 129q150 0 301 166v496q-145 163 -301 163t-238 -104t-82 -308t85 -309q85 -104 235 -104zM540 -16q-198 0 -321 141t-123 413t127 419t329 147t341 -160v572h176v-1250q0 -193 33 -266h-184q-25 70 -25 154q-155 -170 -353 -170z" />
    <glyph glyph-name="e" unicode="e" horiz-adv-x="1130" 
d="M588 956q-122 0 -210 -82q-86 -82 -104 -241h592q-10 151 -83 237t-195 86zM584 -23q-205 -1 -347 147t-143 417q0 141 44 253q79 201 273 276q85 34 173 34q202 0 326 -144t124 -428v-36h-764q4 -176 96 -276t216 -99q126 0 200 43t140 133l102 -90q-159 -230 -440 -230
z" />
    <glyph glyph-name="f" unicode="f" horiz-adv-x="704" 
d="M565 1520q59 0 101 -7v-143q-25 6 -76 6q-174 0 -174 -151v-144h237v-145h-237v-936h-176v936h-189v145h189v146q0 293 325 293z" />
    <glyph glyph-name="g" unicode="g" horiz-adv-x="1177" 
d="M560 -283q180 0 272 45t92 119t-66 109t-233 47l-205 14l-62 6q-160 -57 -159 -178q-1 -162 361 -162zM551 459q125 -1 198 67t73 186t-72 186t-199 69q-127 0 -201 -70q-74 -71 -74 -187t75 -184t200 -67zM557 -416q-522 0 -522 269q0 164 196 239q-92 43 -92 138
t135 173q-166 106 -165 312q-1 169 123 279t317 110t319 -113q111 84 256 101v-156q-104 0 -194 -35q55 -78 55 -186q0 -173 -123 -279t-313 -106q-82 0 -172 26q-76 -35 -76 -77t33 -58t117 -24l221 -19q414 -29 413 -280q0 -150 -143 -232t-385 -82z" />
    <glyph glyph-name="h" unicode="h" horiz-adv-x="1204" 
d="M156 0v1516h178v-596q188 184 405 184q154 0 237 -85t83 -239v-780h-176v741q0 109 -48 160t-151 51q-166 0 -350 -174v-778h-178z" />
    <glyph glyph-name="i" unicode="i" horiz-adv-x="512" 
d="M168 0v1081h176v-1081h-176zM164 1313v172h184v-172h-184z" />
    <glyph glyph-name="j" unicode="j" horiz-adv-x="512" 
d="M94 -412q-49 0 -106 9v133q37 -8 69 -9q111 0 111 125v1235h176v-1247q0 -118 -56 -182t-194 -64zM164 1313v172h184v-172h-184z" />
    <glyph glyph-name="k" unicode="k" horiz-adv-x="1105" 
d="M156 0v1516h176v-975l483 540h201l-354 -387l393 -694h-189l-319 563l-215 -231v-332h-176z" />
    <glyph glyph-name="l" unicode="l" horiz-adv-x="512" 
d="M168 0v1516h176v-1516h-176z" />
    <glyph glyph-name="m" unicode="m" horiz-adv-x="1878" 
d="M156 0v1081h176v-163q186 186 389 186q236 0 297 -191q195 190 399 191q160 0 237 -86t77 -238v-780h-177v741q0 111 -42 161t-146 50q-150 0 -334 -174v-778h-176v741q0 111 -42 161t-146 50q-147 0 -336 -174v-778h-176z" />
    <glyph glyph-name="n" unicode="n" horiz-adv-x="1204" 
d="M156 0v1081h178v-161q188 184 405 184q154 0 237 -85t83 -239v-780h-176v741q0 109 -48 160t-151 51q-166 0 -350 -174v-778h-178z" />
    <glyph glyph-name="o" unicode="o" horiz-adv-x="1193" 
d="M595 127q155 0 241 113t86 296t-84 300q-84 116 -239 116t-241 -112t-86 -297q0 -184 84 -300t239 -116zM598 -23q-211 1 -357 149q-147 148 -147 414t146 415t357 149q212 0 357 -148q146 -148 146 -415q0 -266 -146 -415t-356 -149z" />
    <glyph glyph-name="p" unicode="p" horiz-adv-x="1226" 
d="M634 127q318 0 318 414q0 201 -84 306t-221 105q-164 0 -315 -166v-495q146 -164 302 -164zM156 -410v1491h176v-149q156 172 354 172t320 -144t122 -417q0 -271 -126 -415t-323 -144t-347 155v-549h-176z" />
    <glyph glyph-name="q" unicode="q" horiz-adv-x="1226" 
d="M592 129q150 0 301 166v496q-145 163 -301 163t-238 -104t-82 -308t85 -309q85 -104 235 -104zM893 -410v564q-155 -170 -353 -170t-321 141t-123 413t127 419t325 147t345 -158v135h176v-1491h-176z" />
    <glyph glyph-name="r" unicode="r" horiz-adv-x="819" 
d="M156 0v1081h176v-200h4q143 223 418 223h22l-12 -164q-6 2 -51 2q-254 0 -381 -244v-698h-176z" />
    <glyph glyph-name="s" unicode="s" horiz-adv-x="1048" 
d="M544 -20q-315 0 -466 184l106 106q139 -150 338 -149q260 0 260 170q0 78 -64 118q-65 41 -239 81t-268 108t-94 203t103 219t276 84q248 0 413 -156l-92 -117q-139 129 -313 130q-111 0 -165 -41t-54 -109q0 -69 59 -105t181 -65q121 -29 185 -51t126 -60
q118 -75 117 -230q-1 -156 -122 -238t-287 -82z" />
    <glyph glyph-name="t" unicode="t" horiz-adv-x="772" 
d="M535 -14q-166 0 -234 66t-68 210v674h-188v145h188v385h177v-385h280v-145h-280v-635q0 -90 36 -131t115 -41q78 0 127 14v-145q-61 -12 -153 -12z" />
    <glyph glyph-name="u" unicode="u" horiz-adv-x="1204" 
d="M465 -20q-154 0 -237 84t-83 237v780h177v-743q0 -109 48 -160t150 -51q166 0 350 174v780h179v-1081h-179v162q-186 -182 -405 -182z" />
    <glyph glyph-name="v" unicode="v" horiz-adv-x="1054" 
d="M438 -4l-397 1085h188l303 -876h5l299 876h176l-396 -1085h-178z" />
    <glyph glyph-name="w" unicode="w" horiz-adv-x="1540" 
d="M375 0l-330 1081h182l142 -508q63 -225 94 -360h4q45 184 94 362l137 506h154l141 -516q45 -156 90 -352h4q53 207 95 348l147 520h166l-330 -1081h-164l-229 846h-4l-231 -846h-162z" />
    <glyph glyph-name="x" unicode="x" horiz-adv-x="1060" 
d="M55 0l385 559l-358 522h192l265 -395l262 395h186l-360 -520l383 -561h-191l-291 430l-288 -430h-185z" />
    <glyph glyph-name="y" unicode="y" horiz-adv-x="1091" 
d="M234 -416q-132 0 -220 27l41 141q70 -18 156 -18t132 36t79 117l41 107l-418 1087h186l318 -874h4l317 874h179l-463 -1204q-59 -153 -139 -223q-81 -70 -213 -70z" />
    <glyph glyph-name="z" unicode="z" horiz-adv-x="1044" 
d="M80 0v106l633 832h-584v143h805v-110l-635 -830h666v-141h-885z" />
    <glyph glyph-name="braceleft" unicode="{" horiz-adv-x="800" 
d="M565 -410q-270 0 -270 283v369q0 143 -52 194t-175 51v131q123 0 175 52t52 194v369q0 283 270 283h158v-132h-90q-160 0 -160 -157v-377q0 -140 -42 -202t-132 -93v-4q90 -31 132 -92t42 -203v-377q0 -158 160 -158h90v-131h-158z" />
    <glyph glyph-name="bar" unicode="|" horiz-adv-x="727" 
d="M276 -410v1926h173v-1926h-173z" />
    <glyph glyph-name="braceright" unicode="}" horiz-adv-x="800" 
d="M78 -410v131h90q160 0 160 158v387q0 138 41 196t133 89v4q-92 31 -133 88t-41 197v387q0 164 -154 164h-90l-6 125h168q137 0 198 -68t62 -205v-379q0 -143 52 -194t175 -52v-131q-123 0 -175 -51t-52 -194v-379q0 -137 -62 -205t-198 -68h-168z" />
    <glyph glyph-name="asciitilde" unicode="~" horiz-adv-x="1040" 
d="M672 834q-66 0 -164 57t-139 57t-61 -25q-19 -26 -19 -85h-109q0 244 189 243q65 0 163 -57t138 -57q84 0 84 110h104q0 -243 -186 -243z" />
    <glyph glyph-name="nbspace" unicode="&#xa0;" horiz-adv-x="239" 
 />
    <glyph glyph-name="exclamdown" unicode="&#xa1;" horiz-adv-x="657" 
d="M217 0l51 1090h115l53 -1090h-219zM221 1305v211h211v-211h-211z" />
    <glyph glyph-name="cent" unicode="&#xa2;" horiz-adv-x="1101" 
d="M586 956q-132 0 -228 -101t-96 -331t135 -342l213 774h-24zM94 541q0 274 148 418t348 145q39 0 57 -2l58 205h110l-63 -228q174 -63 264 -278l-144 -62q-61 152 -167 197l-222 -801q43 -14 99 -14q102 0 173 51t126 170l139 -57q-143 -307 -445 -308q-63 0 -124 17
l-72 -258h-113l84 299q-116 65 -186 195t-70 311z" />
    <glyph glyph-name="sterling" unicode="&#xa3;" horiz-adv-x="1277" 
d="M310 299q-62 0 -93 -31t-31 -80q0 -48 31 -76t80 -28q127 0 182 123q-107 92 -169 92zM180 725v131h193q-94 170 -94 297q0 174 108 283q109 108 303 108t293 -110q98 -110 119 -275l-164 -24q-25 258 -256 258q-109 0 -169 -65t-60 -173q0 -49 19 -108q18 -59 32 -86
t55 -105h354v-131h-290q59 -133 59 -262t-35 -227q47 -40 76 -60q81 -58 169 -57q87 0 128 60t49 202h160q-10 -410 -328 -410q-147 0 -319 148q-106 -147 -293 -148q-92 -1 -163 55t-71 159t68 168t172 65t223 -82q6 47 6 106q0 131 -78 283h-266z" />
    <glyph glyph-name="currency" unicode="&#xa4;" horiz-adv-x="1476" 
d="M909 666v-136h-436q68 -403 389 -403q141 0 222 83t126 259l162 -47q-123 -451 -512 -451q-216 -1 -366 141t-195 418h-256v136h240q-2 33 -2 92t2 84h-240v133h254q43 281 197 425t360 144t325 -112q118 -112 173 -316l-162 -51q-49 170 -119 246q-70 75 -215 75
q-146 0 -248 -103t-137 -308h438v-133h-452q-2 -23 -2 -72l2 -104h452z" />
    <glyph glyph-name="yen" unicode="&#xa5;" horiz-adv-x="1288" 
d="M553 0v240h-387v131h387v180h-387v131h381l-498 834h193l405 -689l404 689h188l-502 -834h387v-131h-391v-180h391v-131h-391v-240h-180z" />
    <glyph glyph-name="brokenbar" unicode="&#xa6;" horiz-adv-x="727" 
d="M276 -410v838h173v-838h-173zM276 678v838h173v-838h-173z" />
    <glyph glyph-name="section" unicode="&#xa7;" horiz-adv-x="1105" 
d="M838 514q0 82 -62 141t-266 181q-6 2 -13 6t-15 8t-13 6q-201 -94 -201 -235q0 -81 62 -141t266 -181q16 -6 39 -20q203 94 203 235zM553 -410q-336 0 -412 297l144 50q31 -103 88 -155t170 -52t162 48t49 122t-54 132t-237 164q-182 106 -267 189q-85 84 -85 211
q0 203 249 332q-104 78 -145 144t-41 153q0 131 104 225t275 94q346 0 418 -297l-148 -53q-59 213 -264 213q-109 0 -163 -50t-54 -122t56 -130q56 -59 240 -165t270 -190q85 -84 85 -211q0 -207 -248 -334q101 -77 139 -141t38 -154q0 -132 -98 -226t-271 -94z" />
    <glyph glyph-name="dieresis" unicode="&#xa8;" horiz-adv-x="1044" 
d="M244 1194v192h180v-192h-180zM616 1194v192h183v-192h-183z" />
    <glyph glyph-name="copyright" unicode="&#xa9;" horiz-adv-x="1769" 
d="M881 317q-164 0 -263 124q-98 124 -98 326t98 325t265 122q252 0 321 -272l-110 -29q-29 101 -78 149q-50 48 -146 48t-162 -93t-65 -250q0 -157 65 -249t177 -92q164 0 217 209q104 -29 115 -29q-76 -289 -336 -289zM886 66q286 0 482 200t197 490q0 290 -198 492
q-197 202 -483 202t-483 -201t-197 -489t198 -492q198 -202 484 -202zM1667 759q0 -329 -227 -559t-556 -229t-555 229q-227 228 -227 557t228 558t556 229q329 0 555 -228t226 -557z" />
    <glyph glyph-name="ordfeminine" unicode="&#xaa;" horiz-adv-x="862" 
d="M363 862q128 0 243 109v205q-209 -31 -290 -84t-80 -127q-1 -103 127 -103zM322 752q-102 0 -162 51q-59 51 -60 143q0 123 118 201t388 115v32q0 138 -142 138t-265 -113l-76 76q152 145 360 145q258 0 258 -254v-330q0 -129 27 -188h-143q-16 49 -19 102
q-130 -118 -284 -118z" />
    <glyph glyph-name="guillemotleft" unicode="&#xab;" horiz-adv-x="1110" 
d="M393 0l-309 543l309 538h178l-301 -538l301 -543h-178zM825 0l-313 543l313 538h176l-305 -538l305 -543h-176z" />
    <glyph glyph-name="registered" unicode="&#xae;" horiz-adv-x="1769" 
d="M717 803h176q195 0 194 149q0 143 -196 144h-174v-293zM596 342v862h303q147 0 228 -63t81 -183q0 -190 -190 -237l205 -379h-131l-195 365h-180v-365h-121zM886 66q286 0 482 200t197 490q0 290 -198 492q-197 202 -483 202t-483 -201t-197 -489t198 -492
q198 -202 484 -202zM1667 759q0 -329 -227 -559t-556 -229t-555 229q-227 228 -227 557t228 558t556 229q329 0 555 -228t226 -557z" />
    <glyph glyph-name="macron" unicode="&#xaf;" horiz-adv-x="1024" 
d="M213 1266v141h598v-141h-598z" />
    <glyph glyph-name="degree" unicode="&#xb0;" horiz-adv-x="829" 
d="M416 1059q78 0 128 53t50 137t-50 136q-50 53 -129 53t-129 -52t-50 -137q0 -84 51 -137t129 -53zM415 954q-128 0 -213 84t-85 211t85 210t213 83t213 -83t85 -210t-85 -211t-213 -84z" />
    <glyph glyph-name="twosuperior" unicode="&#xb2;" horiz-adv-x="925" 
d="M133 565v41q0 113 67 213t242 213q100 66 142 114q41 48 41 114t-40 105q-40 40 -112 40q-131 0 -217 -162l-115 68q115 225 336 225q137 0 217 -76t80 -186t-54 -185t-192 -157q-205 -125 -225 -236h475v-131h-645z" />
    <glyph glyph-name="threesuperior" unicode="&#xb3;" horiz-adv-x="925" 
d="M459 547q-229 0 -350 198l104 80q92 -147 240 -147q90 0 139 44t49 124q0 166 -256 166h-57v114h63q231 0 232 146q0 61 -40 97t-120 36q-121 0 -219 -115l-97 88q135 158 324 158q151 0 227 -71t76 -179q0 -160 -158 -215q180 -55 181 -233q0 -131 -92 -211t-246 -80z
" />
    <glyph glyph-name="acute" unicode="&#xb4;" horiz-adv-x="1024" 
d="M338 1198l192 324h215l-290 -324h-117z" />
    <glyph glyph-name="mu" unicode="&#xb5;" horiz-adv-x="1214" 
d="M156 -410v1491h176v-743q0 -213 200 -213q162 0 351 174v782h176v-1081h-176v174q-182 -178 -363 -188q-131 -4 -188 59v-455h-176z" />
    <glyph glyph-name="paragraph" unicode="&#xb6;" horiz-adv-x="1275" 
d="M616 -410v1092q-244 4 -370 108t-127 298q0 192 124 310t345 118h514v-1926h-139v1782h-205v-1782h-142z" />
    <glyph glyph-name="periodcentered" unicode="&#xb7;" horiz-adv-x="559" 
d="M172 551v215h215v-215h-215z" />
    <glyph glyph-name="cedilla" unicode="&#xb8;" horiz-adv-x="1024" 
d="M774 -228q0 -78 -72 -126q-72 -47 -202 -47q-132 0 -244 73l41 68q92 -61 205 -62q141 0 141 93q0 70 -82 69q-51 0 -102 -41l-64 31l54 170h96l-31 -106q46 30 110 30t107 -37t43 -115z" />
    <glyph glyph-name="onesuperior" unicode="&#xb9;" horiz-adv-x="831" 
d="M188 563v129h172v664q-72 -31 -167 -31v129q129 2 182 59h135v-821h154v-129h-476z" />
    <glyph glyph-name="ordmasculine" unicode="&#xba;" horiz-adv-x="892" 
d="M442 860q106 0 166 80t60 204t-58 207t-162 83t-163 -80t-59 -205t55 -207t161 -82zM446 752q-150 0 -254 103t-104 291t103 292q103 102 255 102t255 -102t103 -290t-104 -292t-254 -104z" />
    <glyph glyph-name="guillemotright" unicode="&#xbb;" horiz-adv-x="1110" 
d="M109 0l303 543l-303 538h178l311 -538l-311 -543h-178zM539 0l303 543l-303 538h176l311 -538l-311 -543h-176z" />
    <glyph glyph-name="onequarter" unicode="&#xbc;" horiz-adv-x="1961" 
d="M1540 350v408l-270 -408h270zM1538 0v223h-436v99l424 632h162v-604h153v-127h-153v-223h-150zM471 0l907 1516h160l-907 -1516h-160zM188 563v129h172v664q-72 -31 -167 -31v129q129 2 182 59h135v-821h154v-129h-476z" />
    <glyph glyph-name="onehalf" unicode="&#xbd;" horiz-adv-x="2037" 
d="M1245 0v43q0 113 66 212t243 212q100 66 142 114q41 47 41 113t-40 106t-114 40q-131 0 -217 -162l-113 70q117 223 334 223q137 0 217 -75q80 -76 80 -186t-54 -185t-192 -156q-207 -129 -223 -238h475v-131h-645zM471 0l907 1516h160l-907 -1516h-160zM188 563v129h172
v664q-72 -31 -167 -31v129q129 2 182 59h135v-821h154v-129h-476z" />
    <glyph glyph-name="threequarters" unicode="&#xbe;" horiz-adv-x="2021" 
d="M1599 350v408l-270 -408h270zM1597 0v223h-436v99l424 632h162v-604h154v-127h-154v-223h-150zM532 0l906 1516h159l-905 -1516h-160zM459 547q-229 0 -350 198l104 80q92 -147 240 -147q90 0 139 44t49 124q0 166 -256 166h-57v114h63q231 0 232 146q0 61 -40 97
t-120 36q-121 0 -219 -115l-97 88q135 158 324 158q151 0 227 -71t76 -179q0 -160 -158 -215q180 -55 181 -233q0 -131 -92 -211t-246 -80z" />
    <glyph glyph-name="questiondown" unicode="&#xbf;" horiz-adv-x="1124" 
d="M551 -29q-207 1 -328 103t-121 252t66 233q66 82 192 155q126 72 155 138q30 66 30 240h143q6 -63 6 -155q0 -183 -188 -296q-129 -78 -177 -133q-48 -54 -48 -156t75 -162q76 -59 207 -59q215 0 365 197l121 -101q-203 -256 -498 -256zM512 1305v211h209v-211h-209z" />
    <glyph glyph-name="Agrave" unicode="&#xc0;" horiz-adv-x="1392" 
d="M444 592h492l-242 711h-4zM66 0l536 1522h189l536 -1522h-186l-150 434h-602l-149 -434h-174zM645 1610l-291 323h215l193 -323h-117z" />
    <glyph glyph-name="Aacute" unicode="&#xc1;" horiz-adv-x="1392" 
d="M444 592h492l-242 711h-4zM66 0l536 1522h189l536 -1522h-186l-150 434h-602l-149 -434h-174zM633 1610l192 323h215l-290 -323h-117z" />
    <glyph glyph-name="Acircumflex" unicode="&#xc2;" horiz-adv-x="1392" 
d="M444 592h492l-242 711h-4zM66 0l536 1522h189l536 -1522h-186l-150 434h-602l-149 -434h-174zM367 1604l264 329h129l264 -329h-106l-224 192l-221 -192h-106z" />
    <glyph glyph-name="Atilde" unicode="&#xc3;" horiz-adv-x="1392" 
d="M444 592h492l-242 711h-4zM66 0l536 1522h189l536 -1522h-186l-150 434h-602l-149 -434h-174zM850 1599q-66 -1 -164 57t-139 58t-61 -25q-19 -26 -19 -85h-109q0 244 189 243q66 0 164 -57t137 -57q84 0 84 110h104q0 -244 -186 -244z" />
    <glyph glyph-name="Adieresis" unicode="&#xc4;" horiz-adv-x="1392" 
d="M444 592h492l-242 711h-4zM66 0l536 1522h189l536 -1522h-186l-150 434h-602l-149 -434h-174zM418 1606v192h180v-192h-180zM791 1606v192h182v-192h-182z" />
    <glyph glyph-name="Aring" unicode="&#xc5;" horiz-adv-x="1392" 
d="M444 592h492l-242 711h-4zM696 1526q47 0 77 32t30 80t-31 79q-31 32 -76 32q-46 0 -76 -32t-30 -80q0 -47 30 -79t76 -32zM502 1625q0 95 55 149t139 55q84 0 140 -54q56 -53 55 -149q0 -96 -84 -149l520 -1477h-186l-150 434h-602l-149 -434h-174l520 1477
q-84 53 -84 148z" />
    <glyph glyph-name="AE" unicode="&#xc6;" horiz-adv-x="2068" 
d="M1010 627v741h-2l-420 -741h422zM1935 1516v-166h-747v-473h555v-162h-555v-551h790v-164h-968v467h-512l-265 -467h-182l862 1516h1022z" />
    <glyph glyph-name="Ccedilla" unicode="&#xc7;" horiz-adv-x="1443" 
d="M1012 -228q0 -78 -72 -126q-72 -47 -202 -47q-132 0 -244 73l43 68q92 -61 202 -62q141 0 142 93q0 70 -82 69q-51 0 -103 -41l-61 31l43 145q-258 29 -412 239t-154 555t180 560q179 215 464 215q444 0 561 -465l-172 -47q-51 180 -141 270t-250 89q-211 0 -335 -171
t-124 -462t125 -463t338 -172q313 0 411 379l170 -39q-55 -227 -197 -357t-366 -135l-24 -77q47 30 111 30q65 0 107 -37t42 -115z" />
    <glyph glyph-name="Egrave" unicode="&#xc8;" horiz-adv-x="1247" 
d="M186 0v1516h930v-166h-749v-473h557v-162h-557v-551h792v-164h-973zM641 1610l-291 323h215l193 -323h-117z" />
    <glyph glyph-name="Eacute" unicode="&#xc9;" horiz-adv-x="1247" 
d="M186 0v1516h930v-166h-749v-473h557v-162h-557v-551h792v-164h-973zM545 1610l192 323h215l-290 -323h-117z" />
    <glyph glyph-name="Ecircumflex" unicode="&#xca;" horiz-adv-x="1247" 
d="M186 0v1516h930v-166h-749v-473h557v-162h-557v-551h792v-164h-973zM322 1604l264 329h129l264 -329h-107l-223 192l-221 -192h-106z" />
    <glyph glyph-name="Edieresis" unicode="&#xcb;" horiz-adv-x="1247" 
d="M186 0v1516h930v-166h-749v-473h557v-162h-557v-551h792v-164h-973zM383 1606v192h180v-192h-180zM756 1606v192h182v-192h-182z" />
    <glyph glyph-name="Igrave" unicode="&#xcc;" horiz-adv-x="593" 
d="M207 0v1516h180v-1516h-180zM258 1610l-291 323h215l193 -323h-117z" />
    <glyph glyph-name="Iacute" unicode="&#xcd;" horiz-adv-x="593" 
d="M207 0v1516h180v-1516h-180zM238 1610l192 323h215l-291 -323h-116z" />
    <glyph glyph-name="Icircumflex" unicode="&#xce;" horiz-adv-x="593" 
d="M207 0v1516h180v-1516h-180zM-33 1604l264 329h129l265 -329h-107l-223 192l-221 -192h-107z" />
    <glyph glyph-name="Idieresis" unicode="&#xcf;" horiz-adv-x="593" 
d="M207 0v1516h180v-1516h-180zM18 1606v192h181v-192h-181zM391 1606v192h182v-192h-182z" />
    <glyph glyph-name="Eth" unicode="&#xd0;" horiz-adv-x="1464" 
d="M367 162h241q281 0 421 144t140 450t-142 450q-142 143 -423 144h-237v-482h323v-147h-323v-559zM186 0v721h-163v147h163v648h400q372 0 568 -190t196 -566t-199 -568t-565 -192h-400z" />
    <glyph glyph-name="Ntilde" unicode="&#xd1;" 
d="M186 0v1516h191l797 -1199h4v1199h170v-1516h-162l-826 1231h-4v-1231h-170zM936 1599q-66 -1 -164 57t-139 58t-61 -25q-19 -26 -19 -85h-109q0 244 189 243q66 0 164 -57t137 -57q84 0 84 110h104q0 -244 -186 -244z" />
    <glyph glyph-name="Ograve" unicode="&#xd2;" 
d="M767 133q212 0 342 167t130 458q0 290 -130 456t-342 166t-342 -166t-130 -456t130 -458q130 -167 342 -167zM768 -29q-287 0 -471 214q-184 215 -184 573t184 572t471 214t469 -213t182 -573t-182 -574t-469 -213zM733 1610l-291 323h215l193 -323h-117z" />
    <glyph glyph-name="Oacute" unicode="&#xd3;" 
d="M767 133q212 0 342 167t130 458q0 290 -130 456t-342 166t-342 -166t-130 -456t130 -458q130 -167 342 -167zM768 -29q-287 0 -471 214q-184 215 -184 573t184 572t471 214t469 -213t182 -573t-182 -574t-469 -213zM676 1610l192 323h215l-290 -323h-117z" />
    <glyph glyph-name="Ocircumflex" unicode="&#xd4;" 
d="M767 133q212 0 342 167t130 458q0 290 -130 456t-342 166t-342 -166t-130 -456t130 -458q130 -167 342 -167zM768 -29q-287 0 -471 214q-184 215 -184 573t184 572t471 214t469 -213t182 -573t-182 -574t-469 -213zM436 1604l264 329h129l265 -329h-107l-223 192
l-221 -192h-107z" />
    <glyph glyph-name="Otilde" unicode="&#xd5;" 
d="M767 133q212 0 342 167t130 458q0 290 -130 456t-342 166t-342 -166t-130 -456t130 -458q130 -167 342 -167zM768 -29q-287 0 -471 214q-184 215 -184 573t184 572t471 214t469 -213t182 -573t-182 -574t-469 -213zM918 1599q-66 -1 -164 57t-140 58t-60 -26
q-19 -26 -19 -84h-109q0 244 188 243q66 0 164 -57t137 -57q84 0 84 110h105q0 -244 -186 -244z" />
    <glyph glyph-name="Odieresis" unicode="&#xd6;" 
d="M767 133q212 0 342 167t130 458q0 290 -130 456t-342 166t-342 -166t-130 -456t130 -458q130 -167 342 -167zM768 -29q-287 0 -471 214q-184 215 -184 573t184 572t471 214t469 -213t182 -573t-182 -574t-469 -213zM487 1606v192h181v-192h-181zM860 1606v192h182v-192
h-182z" />
    <glyph glyph-name="multiply" unicode="&#xd7;" horiz-adv-x="1306" 
d="M305 199l-104 106l346 346l-346 346l104 105l346 -348l346 348l105 -105l-346 -346l348 -346l-105 -104l-346 348z" />
    <glyph glyph-name="Oslash" unicode="&#xd8;" 
d="M780 129q200 0 330 169q131 169 131 460q0 239 -92 399l-696 -895q127 -133 327 -133zM756 1384q-200 0 -333 -168q-132 -168 -132 -434t92 -426l694 897q-121 131 -321 131zM768 -29q-242 0 -416 156l-133 -168l-100 74l149 188q-156 211 -156 553t185 556
q184 214 471 214q244 0 412 -155l135 167l98 -73l-147 -189q154 -212 154 -554t-183 -556q-182 -214 -469 -213z" />
    <glyph glyph-name="Ugrave" unicode="&#xd9;" horiz-adv-x="1468" 
d="M1296 528q0 -248 -146 -402t-420 -153q-276 0 -417 152t-141 399v992h180v-967q0 -190 95 -302t289 -112t288 109t94 301v971h178v-988zM713 1610l-291 323h215l192 -323h-116z" />
    <glyph glyph-name="Uacute" unicode="&#xda;" horiz-adv-x="1468" 
d="M1296 528q0 -248 -146 -402t-420 -153q-276 0 -417 152t-141 399v992h180v-967q0 -190 95 -302t289 -112t288 109t94 301v971h178v-988zM625 1610l192 323h215l-291 -323h-116z" />
    <glyph glyph-name="Ucircumflex" unicode="&#xdb;" horiz-adv-x="1468" 
d="M1296 528q0 -248 -146 -402t-420 -153q-276 0 -417 152t-141 399v992h180v-967q0 -190 95 -302t289 -112t288 109t94 301v971h178v-988zM403 1604l265 329h129l264 -329h-107l-223 192l-221 -192h-107z" />
    <glyph glyph-name="Udieresis" unicode="&#xdc;" horiz-adv-x="1468" 
d="M1296 528q0 -248 -146 -402t-420 -153q-276 0 -417 152t-141 399v992h180v-967q0 -190 95 -302t289 -112t288 109t94 301v971h178v-988zM455 1606v192h180v-192h-180zM827 1606v192h183v-192h-183z" />
    <glyph glyph-name="Yacute" unicode="&#xdd;" horiz-adv-x="1292" 
d="M555 0v664l-510 852h193l411 -699l410 699h188l-512 -852v-664h-180zM477 1626l193 324h215l-291 -324h-117z" />
    <glyph glyph-name="Thorn" unicode="&#xde;" horiz-adv-x="1337" 
d="M367 522h327q186 0 279 65q92 65 92 211t-92 210t-281 63h-325v-549zM186 0v1516h181v-277h331q256 -3 402 -109t147 -330t-153 -333t-408 -109h-319v-358h-181z" />
    <glyph glyph-name="germandbls" unicode="&#xdf;" horiz-adv-x="1282" 
d="M770 -23q-200 0 -313 123l96 107q94 -88 216 -88q123 0 189 81t66 216q0 178 -120 258t-355 90v133q172 2 254 70t82 176q0 107 -72 165t-199 58q-283 0 -282 -313v-1053h-176v1044q0 228 124 350t332 122t324 -94q117 -94 117 -265q0 -117 -71 -199t-194 -116
q176 -25 289 -126t113 -299t-110 -319t-310 -121z" />
    <glyph glyph-name="agrave" unicode="&#xe0;" horiz-adv-x="1132" 
d="M446 123q205 0 367 158v303q-297 -47 -423 -121t-126 -180q0 -78 48 -119t134 -41zM395 -16q-141 0 -223 72t-82 200q0 172 168 284t555 167v49q0 200 -204 200t-392 -163l-92 110q219 201 502 201q360 0 360 -361v-477q0 -190 31 -266h-180q-25 78 -25 150
q-178 -166 -418 -166zM565 1198l-291 324h215l193 -324h-117z" />
    <glyph glyph-name="aacute" unicode="&#xe1;" horiz-adv-x="1132" 
d="M446 123q205 0 367 158v303q-297 -47 -423 -121t-126 -180q0 -78 48 -119t134 -41zM395 -16q-141 0 -223 72t-82 200q0 172 168 284t555 167v49q0 200 -204 200t-392 -163l-92 110q219 201 502 201q360 0 360 -361v-477q0 -190 31 -266h-180q-25 78 -25 150
q-178 -166 -418 -166zM485 1198l193 324h215l-291 -324h-117z" />
    <glyph glyph-name="acircumflex" unicode="&#xe2;" horiz-adv-x="1132" 
d="M446 123q205 0 367 158v303q-297 -47 -423 -121t-126 -180q0 -78 48 -119t134 -41zM395 -16q-141 0 -223 72t-82 200q0 172 168 284t555 167v49q0 200 -204 200t-392 -163l-92 110q219 201 502 201q360 0 360 -361v-477q0 -190 31 -266h-180q-25 78 -25 150
q-178 -166 -418 -166zM250 1192l264 330h129l264 -330h-106l-223 192l-222 -192h-106z" />
    <glyph glyph-name="atilde" unicode="&#xe3;" horiz-adv-x="1132" 
d="M446 123q205 0 367 158v303q-297 -47 -423 -121t-126 -180q0 -78 48 -119t134 -41zM395 -16q-141 0 -223 72t-82 200q0 172 168 284t555 167v49q0 200 -204 200t-392 -163l-92 110q219 201 502 201q360 0 360 -361v-477q0 -190 31 -266h-180q-25 78 -25 150
q-178 -166 -418 -166zM727 1188q-66 0 -164 57t-139 57t-60 -25q-19 -26 -20 -85h-108q0 244 188 244q66 0 164 -58t137 -57q84 0 84 111h104q0 -244 -186 -244z" />
    <glyph glyph-name="adieresis" unicode="&#xe4;" horiz-adv-x="1132" 
d="M446 123q205 0 367 158v303q-297 -47 -423 -121t-126 -180q0 -78 48 -119t134 -41zM395 -16q-141 0 -223 72t-82 200q0 172 168 284t555 167v49q0 200 -204 200t-392 -163l-92 110q219 201 502 201q360 0 360 -361v-477q0 -190 31 -266h-180q-25 78 -25 150
q-178 -166 -418 -166zM311 1194v192h181v-192h-181zM684 1194v192h182v-192h-182z" />
    <glyph glyph-name="aring" unicode="&#xe5;" horiz-adv-x="1132" 
d="M446 123q205 0 367 158v303q-297 -47 -423 -121t-126 -180q0 -78 48 -119t134 -41zM395 -16q-141 0 -223 72t-82 200q0 172 168 284t555 167v49q0 200 -204 200t-392 -163l-92 110q219 201 502 201q360 0 360 -361v-477q0 -190 31 -266h-180q-25 78 -25 150
q-178 -166 -418 -166zM592 1264q47 0 77 32q29 32 29 79q0 48 -30 80q-31 32 -76 32t-76 -32t-31 -80q0 -47 30 -79t77 -32zM592 1182q-84 0 -139 55t-55 138t54 137q56 54 140 54t139 -54t55 -137t-55 -138t-139 -55z" />
    <glyph glyph-name="ae" unicode="&#xe6;" horiz-adv-x="1830" 
d="M444 119q213 0 396 190q-31 90 -31 177t2 102q-295 -49 -422 -126t-127 -186q0 -76 48 -116t134 -41zM1288 956q-123 0 -208 -82t-103 -241h590q-10 151 -83 237t-196 86zM393 -23q-141 0 -223 72t-82 201q0 174 168 288t555 169v49q0 200 -204 200t-392 -163l-90 110
q219 201 500 201q252 0 307 -207q53 91 147 149t205 58q197 0 324 -146t127 -426v-30h-762q4 -182 95 -282t216 -99q125 0 199 43t139 133l102 -90q-160 -229 -438 -229t-403 229q-220 -230 -490 -230z" />
    <glyph glyph-name="ccedilla" unicode="&#xe7;" horiz-adv-x="1097" 
d="M829 -228q1 -78 -71 -126q-72 -47 -204 -47t-243 73l43 68q92 -61 203 -62q141 0 141 93q0 70 -82 69q-51 0 -102 -41l-61 31l45 156q-174 27 -289 171t-115 402q0 257 148 401t348 144q299 0 424 -303l-150 -62q-45 115 -110 170q-66 55 -182 55t-208 -104
q-92 -106 -92 -311t85 -321t225 -115q102 0 170 54t120 175l146 -57q-137 -295 -422 -305l-27 -86q47 30 111 30t107 -37q42 -37 42 -115z" />
    <glyph glyph-name="egrave" unicode="&#xe8;" horiz-adv-x="1130" 
d="M588 956q-122 0 -210 -82q-86 -82 -104 -241h592q-10 151 -83 237t-195 86zM584 -23q-205 -1 -347 147t-143 417q0 141 44 253q79 201 273 276q85 34 173 34q202 0 326 -144t124 -428v-36h-764q4 -176 96 -276t216 -99q126 0 200 43t140 133l102 -90q-159 -230 -440 -230
zM541 1198l-291 324h215l192 -324h-116z" />
    <glyph glyph-name="eacute" unicode="&#xe9;" horiz-adv-x="1130" 
d="M588 956q-122 0 -210 -82q-86 -82 -104 -241h592q-10 151 -83 237t-195 86zM584 -23q-205 -1 -347 147t-143 417q0 141 44 253q79 201 273 276q85 34 173 34q202 0 326 -144t124 -428v-36h-764q4 -176 96 -276t216 -99q126 0 200 43t140 133l102 -90q-159 -230 -440 -230
zM489 1198l193 324h215l-291 -324h-117z" />
    <glyph glyph-name="ecircumflex" unicode="&#xea;" horiz-adv-x="1130" 
d="M588 956q-122 0 -210 -82q-86 -82 -104 -241h592q-10 151 -83 237t-195 86zM584 -23q-205 -1 -347 147t-143 417q0 141 44 253q79 201 273 276q85 34 173 34q202 0 326 -144t124 -428v-36h-764q4 -176 96 -276t216 -99q126 0 200 43t140 133l102 -90q-159 -230 -440 -230
zM250 1192l264 330h129l264 -330h-106l-223 192l-222 -192h-106z" />
    <glyph glyph-name="edieresis" unicode="&#xeb;" horiz-adv-x="1130" 
d="M588 956q-122 0 -210 -82q-86 -82 -104 -241h592q-10 151 -83 237t-195 86zM584 -23q-205 -1 -347 147t-143 417q0 141 44 253q79 201 273 276q85 34 173 34q202 0 326 -144t124 -428v-36h-764q4 -176 96 -276t216 -99q126 0 200 43t140 133l102 -90q-159 -230 -440 -230
zM293 1194v192h180v-192h-180zM666 1194v192h182v-192h-182z" />
    <glyph glyph-name="igrave" unicode="&#xec;" horiz-adv-x="512" 
d="M168 0v1081h176v-1081h-176zM217 1198l-291 324h215l193 -324h-117z" />
    <glyph glyph-name="iacute" unicode="&#xed;" horiz-adv-x="512" 
d="M168 0v1081h176v-1081h-176zM205 1198l192 324h215l-290 -324h-117z" />
    <glyph glyph-name="icircumflex" unicode="&#xee;" horiz-adv-x="512" 
d="M168 0v1081h176v-1081h-176zM-74 1192l264 330h129l265 -330h-107l-223 192l-221 -192h-107z" />
    <glyph glyph-name="idieresis" unicode="&#xef;" horiz-adv-x="512" 
d="M168 0v1081h176v-1081h-176zM-23 1194v192h181v-192h-181zM350 1194v192h182v-192h-182z" />
    <glyph glyph-name="eth" unicode="&#xf0;" horiz-adv-x="1193" 
d="M272 524q0 -178 86 -290t238 -111q152 -1 239 109t87 287t-87 285t-238 108t-238 -105t-87 -283zM597 -23q-218 -1 -359 147q-142 148 -142 397t134 389t339 141q95 -1 187 -49t147 -130q-51 209 -172 347l-211 -82l-53 110l176 68q-55 53 -151 115l86 108
q121 -70 208 -154l199 80l51 -112l-164 -68q225 -281 226 -745q0 -256 -142 -409t-359 -153z" />
    <glyph glyph-name="ntilde" unicode="&#xf1;" horiz-adv-x="1204" 
d="M156 0v1081h178v-161q188 184 405 184q154 0 237 -85t83 -239v-780h-176v741q0 109 -48 160t-151 51q-166 0 -350 -174v-778h-178zM768 1188q-66 0 -164 57t-139 57q-80 1 -80 -110h-109q0 244 189 244q66 0 164 -58t137 -57q84 0 84 111h104q0 -244 -186 -244z" />
    <glyph glyph-name="ograve" unicode="&#xf2;" horiz-adv-x="1193" 
d="M595 127q155 0 241 113t86 296t-84 300q-84 116 -239 116t-241 -112t-86 -297q0 -184 84 -300t239 -116zM598 -23q-211 1 -357 149q-147 148 -147 414t146 415t357 149q212 0 357 -148q146 -148 146 -415q0 -266 -146 -415t-356 -149zM565 1198l-291 324h215l193 -324
h-117z" />
    <glyph glyph-name="oacute" unicode="&#xf3;" horiz-adv-x="1193" 
d="M595 127q155 0 241 113t86 296t-84 300q-84 116 -239 116t-241 -112t-86 -297q0 -184 84 -300t239 -116zM598 -23q-211 1 -357 149q-147 148 -147 414t146 415t357 149q212 0 357 -148q146 -148 146 -415q0 -266 -146 -415t-356 -149zM508 1198l192 324h215l-290 -324
h-117z" />
    <glyph glyph-name="ocircumflex" unicode="&#xf4;" horiz-adv-x="1193" 
d="M595 127q155 0 241 113t86 296t-84 300q-84 116 -239 116t-241 -112t-86 -297q0 -184 84 -300t239 -116zM598 -23q-211 1 -357 149q-147 148 -147 414t146 415t357 149q212 0 357 -148q146 -148 146 -415q0 -266 -146 -415t-356 -149zM268 1192l264 330h130l264 -330
h-107l-223 192l-221 -192h-107z" />
    <glyph glyph-name="otilde" unicode="&#xf5;" horiz-adv-x="1193" 
d="M595 127q155 0 241 113t86 296t-84 300q-84 116 -239 116t-241 -112t-86 -297q0 -184 84 -300t239 -116zM598 -23q-211 1 -357 149q-147 148 -147 414t146 415t357 149q212 0 357 -148q146 -148 146 -415q0 -266 -146 -415t-356 -149zM752 1188q-66 0 -164 57t-139 57
q-80 1 -80 -110h-109q0 244 189 244q65 0 163 -58t138 -57q84 0 84 111h104q0 -244 -186 -244z" />
    <glyph glyph-name="odieresis" unicode="&#xf6;" horiz-adv-x="1193" 
d="M595 127q155 0 241 113t86 296t-84 300q-84 116 -239 116t-241 -112t-86 -297q0 -184 84 -300t239 -116zM598 -23q-211 1 -357 149q-147 148 -147 414t146 415t357 149q212 0 357 -148q146 -148 146 -415q0 -266 -146 -415t-356 -149zM317 1194v192h181v-192h-181z
M690 1194v192h182v-192h-182z" />
    <glyph glyph-name="divide" unicode="&#xf7;" horiz-adv-x="1306" 
d="M553 217v189h192v-189h-192zM135 608v148h1039v-148h-1039zM553 956v189h192v-189h-192z" />
    <glyph glyph-name="oslash" unicode="&#xf8;" horiz-adv-x="1193" 
d="M864 803l-465 -615q82 -70 199 -69q154 0 241 117t87 289t-62 278zM332 270l463 617q-82 72 -197 71q-154 0 -242 -116t-88 -287q0 -172 64 -285zM1100 528q0 -254 -146 -402t-356 -149q-164 0 -289 91l-110 -140l-86 74l112 141q-131 154 -131 409t146 403t358 149
q164 0 291 -90l106 135l88 -74l-110 -139q127 -154 127 -408z" />
    <glyph glyph-name="ugrave" unicode="&#xf9;" horiz-adv-x="1204" 
d="M465 -20q-154 0 -237 84t-83 237v780h177v-743q0 -109 48 -160t150 -51q166 0 350 174v780h179v-1081h-179v162q-186 -182 -405 -182zM573 1198l-290 324h215l192 -324h-117z" />
    <glyph glyph-name="uacute" unicode="&#xfa;" horiz-adv-x="1204" 
d="M465 -20q-154 0 -237 84t-83 237v780h177v-743q0 -109 48 -160t150 -51q166 0 350 174v780h179v-1081h-179v162q-186 -182 -405 -182zM506 1198l192 324h215l-290 -324h-117z" />
    <glyph glyph-name="ucircumflex" unicode="&#xfb;" horiz-adv-x="1204" 
d="M465 -20q-154 0 -237 84t-83 237v780h177v-743q0 -109 48 -160t150 -51q166 0 350 174v780h179v-1081h-179v162q-186 -182 -405 -182zM268 1192l264 330h130l264 -330h-107l-223 192l-221 -192h-107z" />
    <glyph glyph-name="udieresis" unicode="&#xfc;" horiz-adv-x="1204" 
d="M465 -20q-154 0 -237 84t-83 237v780h177v-743q0 -109 48 -160t150 -51q166 0 350 174v780h179v-1081h-179v162q-186 -182 -405 -182zM322 1194v192h180v-192h-180zM694 1194v192h183v-192h-183z" />
    <glyph glyph-name="yacute" unicode="&#xfd;" horiz-adv-x="1091" 
d="M234 -416q-132 0 -220 27l41 141q70 -18 156 -18t132 36t79 117l41 107l-418 1087h186l318 -874h4l317 874h179l-463 -1204q-59 -153 -139 -223q-81 -70 -213 -70zM377 1198l192 324h215l-290 -324h-117z" />
    <glyph glyph-name="thorn" unicode="&#xfe;" horiz-adv-x="1226" 
d="M634 127q318 0 318 414q0 201 -84 306t-221 105q-164 0 -315 -166v-495q146 -164 302 -164zM156 -410v1926h176v-584q156 172 354 172t320 -144t122 -417q0 -271 -126 -415t-323 -144t-347 155v-549h-176z" />
    <glyph glyph-name="ydieresis" unicode="&#xff;" horiz-adv-x="1091" 
d="M234 -416q-132 0 -220 27l41 141q70 -18 156 -18t132 36t79 117l41 107l-418 1087h186l318 -874h4l317 874h179l-463 -1204q-59 -153 -139 -223q-81 -70 -213 -70zM272 1194v192h181v-192h-181zM645 1194v192h182v-192h-182z" />
    <glyph glyph-name="dotlessi" unicode="&#x131;" horiz-adv-x="512" 
d="M168 0v1081h176v-1081h-176z" />
    <glyph glyph-name="Lslash" unicode="&#x141;" horiz-adv-x="1165" 
d="M188 0v700l-174 -45v146l174 47v668h181v-621l317 86v-147l-317 -84v-586h727v-164h-908z" />
    <glyph glyph-name="lslash" unicode="&#x142;" horiz-adv-x="622" 
d="M223 0v690l-180 -47v137l180 49v687h176v-642l185 50v-138l-185 -49v-737h-176z" />
    <glyph glyph-name="OE" unicode="&#x152;" horiz-adv-x="2295" 
d="M766 133q211 0 341 167t130 458q0 290 -129 456t-341 166t-343 -166t-131 -456t131 -458q131 -167 342 -167zM768 -29q-283 0 -469 215q-186 216 -186 572t186 571t469 215q160 0 284 -77t197 -212v261h916v-166h-750v-473h557v-162h-557v-551h791v-164h-957v264
q-73 -135 -197 -214t-284 -79z" />
    <glyph glyph-name="oe" unicode="&#x153;" horiz-adv-x="1939" 
d="M591 125q155 0 239 113t85 297q0 184 -82 301q-83 116 -237 116t-239 -112t-85 -297q0 -184 82 -301t237 -117zM1398 956q-122 0 -208 -82t-103 -241h590q-10 151 -83 237q-74 86 -196 86zM594 -23q-211 1 -355 149q-145 148 -145 414t144 415q144 148 356 149
q137 0 245 -72t162 -194q49 118 158 192t236 74q197 0 323 -146t127 -426v-30h-760q3 -182 93 -282t216 -99q126 0 198 43t139 133l104 -90q-160 -229 -440 -230q-129 0 -240 72t-158 189q-57 -119 -163 -190t-240 -71z" />
    <glyph glyph-name="Scaron" unicode="&#x160;" horiz-adv-x="1345" 
d="M1225 390q1 -186 -149 -302q-150 -117 -378 -117q-228 1 -376 107q-150 106 -211 289l151 67q113 -303 430 -303q162 0 258 66q96 65 96 181t-79 184q-81 68 -325 142q-244 76 -362 166t-118 268t136 293q136 113 346 113t343 -92t197 -248l-144 -80q-115 256 -393 256
q-141 0 -224 -62t-83 -170t82 -167t326 -135t360 -173q117 -97 117 -283zM606 1628l-264 330h109l221 -193l221 193h106l-264 -330h-129z" />
    <glyph glyph-name="scaron" unicode="&#x161;" horiz-adv-x="1048" 
d="M544 -20q-315 0 -466 184l106 106q139 -150 338 -149q260 0 260 170q0 78 -64 118q-65 41 -239 81t-268 108t-94 203t103 219t276 84q248 0 413 -156l-92 -117q-139 129 -313 130q-111 0 -165 -41t-54 -109q0 -69 59 -105t181 -65q121 -29 185 -51t126 -60
q118 -75 117 -230q-1 -156 -122 -238t-287 -82zM459 1200l-264 330h108l221 -193l221 193h107l-264 -330h-129z" />
    <glyph glyph-name="Ydieresis" unicode="&#x178;" horiz-adv-x="1292" 
d="M555 0v664l-510 852h193l411 -699l410 699h188l-512 -852v-664h-180zM369 1606v192h180v-192h-180zM741 1606v192h183v-192h-183z" />
    <glyph glyph-name="Zcaron" unicode="&#x17d;" horiz-adv-x="1290" 
d="M82 0v127l887 1237h-830v152h1051v-132l-881 -1234h881v-150h-1108zM584 1628l-265 330h109l221 -193l221 193h107l-264 -330h-129z" />
    <glyph glyph-name="zcaron" unicode="&#x17e;" horiz-adv-x="1044" 
d="M80 0v106l633 832h-584v143h805v-110l-635 -830h666v-141h-885zM459 1200l-264 330h108l221 -193l221 193h107l-264 -330h-129z" />
    <glyph glyph-name="florin" unicode="&#x192;" horiz-adv-x="714" 
d="M-100 -276q176 0 196 161l131 953h-188l18 137h189l33 252q39 293 364 293q46 0 102 -7l-20 -137q-29 4 -74 4q-178 0 -196 -151l-33 -254h237l-18 -137h-238l-133 -969q-39 -281 -362 -281q-52 0 -101 6l19 134q29 -4 74 -4z" />
    <glyph glyph-name="circumflex" unicode="&#x2c6;" horiz-adv-x="1060" 
d="M201 1192l264 330h129l264 -330h-106l-224 192l-221 -192h-106z" />
    <glyph glyph-name="caron" unicode="&#x2c7;" horiz-adv-x="1060" 
d="M465 1200l-264 330h108l221 -193l222 193h106l-264 -330h-129z" />
    <glyph glyph-name="breve" unicode="&#x2d8;" horiz-adv-x="1024" 
d="M512 1186q-141 0 -225 93t-92 251h106q25 -213 211 -213t211 213h106q-8 -158 -92 -251t-225 -93z" />
    <glyph glyph-name="dotaccent" unicode="&#x2d9;" horiz-adv-x="1024" 
d="M410 1206v185h204v-185h-204z" />
    <glyph glyph-name="ring" unicode="&#x2da;" horiz-adv-x="1105" 
d="M553 1264q47 0 77 32t30 79q0 48 -31 80t-76 32t-76 -32t-31 -80q0 -47 30 -79t77 -32zM553 1182q-84 0 -139 55q-56 55 -56 138t56 137t139 54q84 0 139 -54q56 -54 56 -137t-56 -138t-139 -55z" />
    <glyph glyph-name="ogonek" unicode="&#x2db;" horiz-adv-x="1024" 
d="M534 -383q-110 0 -162 42t-53 116q0 119 168 225h111q-141 -98 -141 -196t104 -97q84 0 191 51l36 -63q-144 -78 -254 -78z" />
    <glyph glyph-name="tilde" unicode="&#x2dc;" horiz-adv-x="1040" 
d="M672 1188q-66 0 -164 57t-139 57q-80 1 -80 -110h-109q0 244 189 244q65 0 163 -58t138 -57q84 0 84 111h104q0 -244 -186 -244z" />
    <glyph glyph-name="hungarumlaut" unicode="&#x2dd;" horiz-adv-x="1042" 
d="M156 1198l198 324h217l-297 -324h-118zM496 1198l204 324h218l-302 -324h-120z" />
    <glyph glyph-name="endash" unicode="&#x2013;" horiz-adv-x="1320" 
d="M133 563v156h1055v-156h-1055z" />
    <glyph glyph-name="emdash" unicode="&#x2014;" horiz-adv-x="1900" 
d="M133 563v156h1634v-156h-1634z" />
    <glyph glyph-name="quoteleft" unicode="&#x2018;" horiz-adv-x="555" 
d="M174 1085v199l107 232h81l-57 -216h74v-215h-205z" />
    <glyph glyph-name="quoteright" unicode="&#x2019;" horiz-adv-x="555" 
d="M174 1300v216h205v-199l-105 -232h-81l55 215h-74z" />
    <glyph glyph-name="quotesinglbase" unicode="&#x201a;" horiz-adv-x="555" 
d="M174 0v215h205v-197l-105 -233h-81l55 215h-74z" />
    <glyph glyph-name="quotedblleft" unicode="&#x201c;" horiz-adv-x="952" 
d="M174 1085v199l107 232h81l-57 -216h74v-215h-205zM573 1085v199l107 232h80l-55 -216h73v-215h-205z" />
    <glyph glyph-name="quotedblright" unicode="&#x201d;" horiz-adv-x="952" 
d="M174 1300v216h205v-199l-105 -232h-81l55 215h-74zM573 1300v216h205v-199l-106 -232h-80l55 215h-74z" />
    <glyph glyph-name="quotedblbase" unicode="&#x201e;" horiz-adv-x="952" 
d="M174 0v215h205v-197l-105 -233h-81l55 215h-74zM573 0v215h205v-197l-106 -233h-80l55 215h-74z" />
    <glyph glyph-name="dagger" unicode="&#x2020;" horiz-adv-x="1159" 
d="M483 -410l31 1256l-422 -23v168l422 -26l-31 551h191l-31 -551l422 26v-168l-422 23l31 -1256h-191z" />
    <glyph glyph-name="daggerdbl" unicode="&#x2021;" horiz-adv-x="1159" 
d="M483 -410l31 478l-401 -27v164l401 -25l-22 377l22 369l-401 -23v162l401 -25l-31 476h191l-31 -476l401 25v-162l-401 23l23 -369l-23 -377l401 25v-164l-401 27l31 -478h-191z" />
    <glyph glyph-name="bullet" unicode="&#x2022;" horiz-adv-x="948" 
d="M473 469q-109 0 -179 71q-70 70 -69 178q0 108 70 178q71 70 179 71q108 0 178 -71q70 -72 71 -180q-1 -108 -71 -178t-179 -69z" />
    <glyph glyph-name="ellipsis" unicode="&#x2026;" horiz-adv-x="1662" 
d="M172 0v215h211v-215h-211zM725 0v215h211v-215h-211zM1280 0v215h211v-215h-211z" />
    <glyph glyph-name="perthousand" unicode="&#x2030;" horiz-adv-x="2889" 
d="M1565 770q-97 0 -147 -89t-50 -240t52 -239t146 -89q95 0 146 91q51 92 51 242t-51 237t-147 87zM2417 113q94 0 145 91q51 92 51 242t-51 237t-146 87q-94 0 -146 -90t-52 -240t52 -238t147 -89zM473 748q94 0 145 90q52 90 52 240t-52 237q-52 88 -146 88
q-95 0 -145 -89q-51 -89 -51 -240q0 -150 52 -238t145 -88zM1919 446q0 -210 -95 -338t-260 -128t-258 126q-94 126 -94 335q0 210 96 337t260 127q163 0 257 -125t94 -334zM2769 446q0 -210 -94 -338t-259 -128t-258 126q-94 126 -94 335q0 210 96 337t259 127
q162 0 256 -125t94 -334zM487 0l906 1516h159l-905 -1516h-160zM471 612q-166 0 -259 125t-93 336t96 338t259 127t257 -125t94 -335t-94 -338t-260 -128z" />
    <glyph glyph-name="guilsinglleft" unicode="&#x2039;" horiz-adv-x="681" 
d="M393 0l-309 543l309 538h178l-301 -538l301 -543h-178z" />
    <glyph glyph-name="guilsinglright" unicode="&#x203a;" horiz-adv-x="681" 
d="M109 0l303 543l-303 538h178l311 -538l-311 -543h-178z" />
    <glyph glyph-name="fraction" unicode="&#x2044;" horiz-adv-x="983" 
d="M-33 0l889 1516h160l-887 -1516h-162z" />
    <glyph glyph-name="Euro" unicode="&#x20ac;" horiz-adv-x="1476" 
d="M909 666v-136h-436q68 -403 389 -403q141 0 222 83t126 259l162 -47q-123 -451 -512 -451q-216 -1 -366 141t-195 418h-256v136h240q-2 33 -2 92t2 84h-240v133h254q43 281 197 425t360 144t325 -112q118 -112 173 -316l-162 -51q-49 170 -119 246q-70 75 -215 75
q-146 0 -248 -103t-137 -308h438v-133h-452q-2 -23 -2 -72l2 -104h452z" />
    <glyph glyph-name="recordright" unicode="&#x2117;" horiz-adv-x="1769" 
d="M741 797h179q193 0 192 145q0 143 -194 143h-177v-288zM621 330v862h303q309 0 309 -244q0 -129 -84 -192t-236 -64h-172v-362h-120zM886 66q286 0 482 200t197 490q0 290 -198 492q-197 202 -483 202t-483 -201t-197 -489t198 -492q198 -202 484 -202zM1667 759
q0 -329 -227 -559t-556 -229t-555 229q-227 228 -227 557t228 558t556 229q329 0 555 -228t226 -557z" />
    <glyph glyph-name="trademark" unicode="&#x2122;" horiz-adv-x="1812" 
d="M324 649v754h-263v113h658v-113h-264v-754h-131zM864 649v867h172l242 -697l244 697h172v-867h-129v660l-236 -660h-108l-236 658v-658h-121z" />
    <glyph glyph-name="minus" unicode="&#x2212;" horiz-adv-x="1306" 
d="M135 608v148h1039v-148h-1039z" />
    <glyph glyph-name="radical" unicode="&#x221a;" horiz-adv-x="1224" 
d="M440 -4l-393 1079h195l290 -842h5l444 1280h195l-551 -1517h-185z" />
    <glyph glyph-name="registered.alt" unicode="&#xe000;" horiz-adv-x="1112" 
d="M463 1104h98q113 0 113 86q0 80 -115 80h-96v-166zM379 819v527h186q89 0 139 -40t50 -114q0 -117 -109 -145l123 -228l-90 2l-117 215h-98v-217h-84zM556 664q169 0 287 118t118 290q0 171 -118 291t-287 120t-286 -119q-116 -119 -116 -290t116 -291q117 -119 286 -119
zM555 596q-199 0 -336 138t-137 338t138 338t337 138t336 -137t137 -337t-138 -339t-337 -139z" />
    <glyph glyph-name="fl" unicode="&#xfb02;" horiz-adv-x="1206" 
d="M852 0v1516h176v-1516h-176zM551 1520q42 0 98 -7v-143q-18 4 -71 4q-162 0 -162 -151v-142h225v-145h-225v-936h-176v936h-189v145h189v146q0 139 77 216q78 77 234 77z" />
    </font>
</defs>
</svg>
